<?xml version='1.0' encoding='utf-8'?>
<mlt title="Anonymous Submission" LC_NUMERIC="fr_FR.UTF-8" producer="main bin" version="6.12.0" root="/home/bordun/Clip01_SnapshatAuHarem/Video">
 <profile frame_rate_num="24" sample_aspect_num="1" display_aspect_den="9" colorspace="709" progressive="1" description="HD 1080p 24 fps" display_aspect_num="16" frame_rate_den="1" width="1920" height="1080" sample_aspect_den="1"/>
 <producer title="Anonymous Submission" id="1" in="0" out="4287">
  <property name="length">00:02:58:16</property>
  <property name="eof">pause</property>
  <property name="resource">/home/bordun/Clip01_SnapshatAuHarem/Audio/Snapchat_au_Harem.flac</property>
  <property name="audio_index">0</property>
  <property name="video_index">-1</property>
  <property name="mute_on_pause">1</property>
  <property name="mlt_service">avformat-novalidate</property>
  <property name="meta.media.nb_streams">1</property>
  <property name="meta.media.0.stream.type">audio</property>
  <property name="meta.media.0.codec.sample_fmt">s16</property>
  <property name="meta.media.0.codec.sample_rate">48000</property>
  <property name="meta.media.0.codec.channels">2</property>
  <property name="meta.media.0.codec.name">flac</property>
  <property name="meta.media.0.codec.long_name">FLAC (Free Lossless Audio Codec)</property>
  <property name="meta.media.0.codec.bit_rate">0</property>
  <property name="seekable">1</property>
  <property name="kdenlive:folderid">-1</property>
  <property name="kdenlive:file_size">16614188</property>
  <property name="kdenlive:file_hash">115a31e39ebfe7c973cc2dc7b9f7cbf8</property>
  <property name="global_feed">1</property>
 </producer>
 <producer title="Anonymous Submission" id="2" in="0" out="8182">
  <property name="length">00:05:40:23</property>
  <property name="eof">pause</property>
  <property name="resource">/media/bordun/Odile/SnapshatAuHarem/etalo/CAM2_2017-11-25_0641_C0004.mov</property>
  <property name="audio_index">2</property>
  <property name="video_index">0</property>
  <property name="mute_on_pause">1</property>
  <property name="mlt_service">avformat-novalidate</property>
  <property name="meta.media.nb_streams">2</property>
  <property name="meta.media.1.stream.type">video</property>
  <property name="meta.media.1.stream.frame_rate">24</property>
  <property name="meta.media.1.stream.sample_aspect_ratio">1</property>
  <property name="meta.media.1.codec.width">1920</property>
  <property name="meta.media.1.codec.height">1080</property>
  <property name="meta.media.1.codec.rotate">0</property>
  <property name="meta.media.1.codec.frame_rate">2400</property>
  <property name="meta.media.1.codec.pix_fmt">yuv422p10le</property>
  <property name="meta.media.1.codec.sample_aspect_ratio">0</property>
  <property name="meta.media.1.codec.colorspace">709</property>
  <property name="meta.media.1.codec.color_trc">1</property>
  <property name="meta.media.1.codec.name">prores</property>
  <property name="meta.media.1.codec.long_name">ProRes</property>
  <property name="meta.media.1.codec.bit_rate">176138545</property>
  <property name="meta.attr.1.stream.creation_time.markup">2017-11-25T06:41:36.000000Z</property>
  <property name="meta.attr.1.stream.language.markup">eng</property>
  <property name="meta.attr.1.stream.handler_name.markup">Apple Alias Data Handler</property>
  <property name="meta.attr.1.stream.encoder.markup">Apple ProRes 422 HQ</property>
  <property name="meta.attr.1.stream.timecode.markup">06:41:36:22</property>
  <property name="meta.media.2.stream.type">audio</property>
  <property name="meta.media.2.codec.sample_fmt">s32</property>
  <property name="meta.media.2.codec.sample_rate">48000</property>
  <property name="meta.media.2.codec.channels">2</property>
  <property name="meta.media.2.codec.name">pcm_s24le</property>
  <property name="meta.media.2.codec.long_name">PCM signed 24-bit little-endian</property>
  <property name="meta.media.2.codec.bit_rate">2304000</property>
  <property name="meta.attr.2.stream.creation_time.markup">2017-11-25T06:41:36.000000Z</property>
  <property name="meta.attr.2.stream.language.markup">eng</property>
  <property name="meta.attr.2.stream.handler_name.markup">Apple Alias Data Handler</property>
  <property name="meta.attr.2.stream.timecode.markup">06:41:36:22</property>
  <property name="meta.attr.com.apple.proapps.manufacturer.markup">Blackmagic Design</property>
  <property name="meta.attr.com.apple.proapps.cameraName.markup">CAM2</property>
  <property name="meta.attr.com.apple.proapps.isGood.markup">0</property>
  <property name="meta.attr.com.apple.proapps.customgamma.markup">com.blackmagic-design.cinemacamera.filmlog</property>
  <property name="meta.attr.com.blackmagic-design.cinemacamera.uuid.markup">18E5E00548F94923B646613A73C01B56</property>
  <property name="meta.attr.creation_time.markup">2017-11-25T06:41:36.000000Z</property>
  <property name="meta.attr.timecode.markup">06:41:36:22</property>
  <property name="seekable">1</property>
  <property name="meta.media.sample_aspect_num">1</property>
  <property name="meta.media.sample_aspect_den">1</property>
  <property name="aspect_ratio">1</property>
  <property name="kdenlive:folderid">-1</property>
  <property name="meta.media.frame_rate_num">24</property>
  <property name="meta.media.frame_rate_den">1</property>
  <property name="meta.media.colorspace">709</property>
  <property name="meta.media.color_trc">1</property>
  <property name="meta.media.width">1920</property>
  <property name="meta.media.height">1080</property>
  <property name="meta.media.top_field_first">0</property>
  <property name="meta.media.progressive">1</property>
  <property name="kdenlive:file_size">7607151857</property>
  <property name="kdenlive:file_hash">2458c801213032c96f9026b0a9e3b793</property>
  <property name="proxy_out">8182</property>
  <property name="kdenlive:originalurl">/media/joris/1TO_RUSHS/_Plagiat/Dimanche_soir/CAM2_2017-11-25_0641_C0004.mov</property>
  <property name="global_feed">1</property>
  <property name="meta.media.0.stream.type">video</property>
  <property name="meta.media.0.stream.frame_rate">24</property>
  <property name="meta.media.0.stream.sample_aspect_ratio">1</property>
  <property name="meta.media.0.codec.width">1920</property>
  <property name="meta.media.0.codec.height">1080</property>
  <property name="meta.media.0.codec.rotate">0</property>
  <property name="meta.media.0.codec.frame_rate">12288</property>
  <property name="meta.media.0.codec.pix_fmt">yuv422p10le</property>
  <property name="meta.media.0.codec.sample_aspect_ratio">0</property>
  <property name="meta.media.0.codec.colorspace">709</property>
  <property name="meta.media.0.codec.color_trc">1</property>
  <property name="meta.media.0.codec.name">dnxhd</property>
  <property name="meta.media.0.codec.long_name">VC3/DNxHD</property>
  <property name="meta.media.0.codec.bit_rate">176160768</property>
  <property name="meta.attr.0.stream.language.markup">eng</property>
  <property name="meta.attr.0.stream.handler_name.markup">Core Media Data Handler</property>
  <property name="meta.attr.0.stream.timecode.markup">06:41:36:22</property>
  <property name="meta.attr.major_brand.markup">qt  </property>
  <property name="meta.attr.minor_version.markup">512</property>
  <property name="meta.attr.compatible_brands.markup">qt  </property>
  <property name="meta.attr.encoder.markup">Lavf57.25.100</property>
 </producer>
 <producer title="Anonymous Submission" id="3" in="0" out="9283">
  <property name="length">00:06:26:20</property>
  <property name="eof">pause</property>
  <property name="resource">/media/bordun/Odile/SnapshatAuHarem/etalo/CAM2_2017-11-25_0738_C0005.mov</property>
  <property name="audio_index">2</property>
  <property name="video_index">0</property>
  <property name="mute_on_pause">1</property>
  <property name="mlt_service">avformat-novalidate</property>
  <property name="meta.media.nb_streams">2</property>
  <property name="meta.media.1.stream.type">video</property>
  <property name="meta.media.1.stream.frame_rate">24</property>
  <property name="meta.media.1.stream.sample_aspect_ratio">1</property>
  <property name="meta.media.1.codec.width">1920</property>
  <property name="meta.media.1.codec.height">1080</property>
  <property name="meta.media.1.codec.rotate">0</property>
  <property name="meta.media.1.codec.frame_rate">2400</property>
  <property name="meta.media.1.codec.pix_fmt">yuv422p10le</property>
  <property name="meta.media.1.codec.sample_aspect_ratio">0</property>
  <property name="meta.media.1.codec.colorspace">709</property>
  <property name="meta.media.1.codec.color_trc">1</property>
  <property name="meta.media.1.codec.name">prores</property>
  <property name="meta.media.1.codec.long_name">ProRes</property>
  <property name="meta.media.1.codec.bit_rate">176140748</property>
  <property name="meta.attr.1.stream.creation_time.markup">2017-11-25T07:38:16.000000Z</property>
  <property name="meta.attr.1.stream.language.markup">eng</property>
  <property name="meta.attr.1.stream.handler_name.markup">Apple Alias Data Handler</property>
  <property name="meta.attr.1.stream.encoder.markup">Apple ProRes 422 HQ</property>
  <property name="meta.attr.1.stream.timecode.markup">07:38:16:19</property>
  <property name="meta.media.2.stream.type">audio</property>
  <property name="meta.media.2.codec.sample_fmt">s32</property>
  <property name="meta.media.2.codec.sample_rate">48000</property>
  <property name="meta.media.2.codec.channels">2</property>
  <property name="meta.media.2.codec.name">pcm_s24le</property>
  <property name="meta.media.2.codec.long_name">PCM signed 24-bit little-endian</property>
  <property name="meta.media.2.codec.bit_rate">2304000</property>
  <property name="meta.attr.2.stream.creation_time.markup">2017-11-25T07:38:16.000000Z</property>
  <property name="meta.attr.2.stream.language.markup">eng</property>
  <property name="meta.attr.2.stream.handler_name.markup">Apple Alias Data Handler</property>
  <property name="meta.attr.2.stream.timecode.markup">07:38:16:19</property>
  <property name="meta.attr.com.apple.proapps.manufacturer.markup">Blackmagic Design</property>
  <property name="meta.attr.com.apple.proapps.cameraName.markup">CAM2</property>
  <property name="meta.attr.com.apple.proapps.isGood.markup">0</property>
  <property name="meta.attr.com.apple.proapps.customgamma.markup">com.blackmagic-design.cinemacamera.filmlog</property>
  <property name="meta.attr.com.blackmagic-design.cinemacamera.uuid.markup">18E5E00548F94923B646613A73C01B56</property>
  <property name="meta.attr.creation_time.markup">2017-11-25T07:38:16.000000Z</property>
  <property name="meta.attr.timecode.markup">07:38:16:19</property>
  <property name="seekable">1</property>
  <property name="meta.media.sample_aspect_num">1</property>
  <property name="meta.media.sample_aspect_den">1</property>
  <property name="aspect_ratio">1</property>
  <property name="kdenlive:folderid">-1</property>
  <property name="meta.media.frame_rate_num">24</property>
  <property name="meta.media.frame_rate_den">1</property>
  <property name="meta.media.colorspace">709</property>
  <property name="meta.media.color_trc">1</property>
  <property name="meta.media.width">1920</property>
  <property name="meta.media.height">1080</property>
  <property name="meta.media.top_field_first">0</property>
  <property name="meta.media.progressive">1</property>
  <property name="kdenlive:file_size">8630671969</property>
  <property name="kdenlive:file_hash">e2d172a49e06df1febf831b67d6dc430</property>
  <property name="proxy_out">9283</property>
  <property name="kdenlive:originalurl">/media/joris/1TO_RUSHS/_Plagiat/Dimanche_soir/CAM2_2017-11-25_0738_C0005.mov</property>
  <property name="global_feed">1</property>
  <property name="meta.media.0.stream.type">video</property>
  <property name="meta.media.0.stream.frame_rate">24</property>
  <property name="meta.media.0.stream.sample_aspect_ratio">1</property>
  <property name="meta.media.0.codec.width">1920</property>
  <property name="meta.media.0.codec.height">1080</property>
  <property name="meta.media.0.codec.rotate">0</property>
  <property name="meta.media.0.codec.frame_rate">12288</property>
  <property name="meta.media.0.codec.pix_fmt">yuv422p10le</property>
  <property name="meta.media.0.codec.sample_aspect_ratio">0</property>
  <property name="meta.media.0.codec.colorspace">709</property>
  <property name="meta.media.0.codec.color_trc">1</property>
  <property name="meta.media.0.codec.name">dnxhd</property>
  <property name="meta.media.0.codec.long_name">VC3/DNxHD</property>
  <property name="meta.media.0.codec.bit_rate">176160768</property>
  <property name="meta.attr.0.stream.language.markup">eng</property>
  <property name="meta.attr.0.stream.handler_name.markup">Core Media Data Handler</property>
  <property name="meta.attr.0.stream.timecode.markup">07:38:16:19</property>
  <property name="meta.attr.major_brand.markup">qt  </property>
  <property name="meta.attr.minor_version.markup">512</property>
  <property name="meta.attr.compatible_brands.markup">qt  </property>
  <property name="meta.attr.encoder.markup">Lavf57.25.100</property>
 </producer>
 <producer title="Anonymous Submission" id="4" in="0" out="3104">
  <property name="length">00:02:09:09</property>
  <property name="eof">pause</property>
  <property name="resource">/media/bordun/Odile/SnapshatAuHarem/etalo/CAM2_2017-11-25_0748_C0006.mov</property>
  <property name="audio_index">2</property>
  <property name="video_index">0</property>
  <property name="mute_on_pause">1</property>
  <property name="mlt_service">avformat-novalidate</property>
  <property name="meta.media.nb_streams">2</property>
  <property name="meta.media.1.stream.type">video</property>
  <property name="meta.media.1.stream.frame_rate">24</property>
  <property name="meta.media.1.stream.sample_aspect_ratio">1</property>
  <property name="meta.media.1.codec.width">1920</property>
  <property name="meta.media.1.codec.height">1080</property>
  <property name="meta.media.1.codec.rotate">0</property>
  <property name="meta.media.1.codec.frame_rate">2400</property>
  <property name="meta.media.1.codec.pix_fmt">yuv422p10le</property>
  <property name="meta.media.1.codec.sample_aspect_ratio">0</property>
  <property name="meta.media.1.codec.colorspace">709</property>
  <property name="meta.media.1.codec.color_trc">1</property>
  <property name="meta.media.1.codec.name">prores</property>
  <property name="meta.media.1.codec.long_name">ProRes</property>
  <property name="meta.media.1.codec.bit_rate">176138245</property>
  <property name="meta.attr.1.stream.creation_time.markup">2017-11-25T07:48:40.000000Z</property>
  <property name="meta.attr.1.stream.language.markup">eng</property>
  <property name="meta.attr.1.stream.handler_name.markup">Apple Alias Data Handler</property>
  <property name="meta.attr.1.stream.encoder.markup">Apple ProRes 422 HQ</property>
  <property name="meta.attr.1.stream.timecode.markup">07:48:40:09</property>
  <property name="meta.media.2.stream.type">audio</property>
  <property name="meta.media.2.codec.sample_fmt">s32</property>
  <property name="meta.media.2.codec.sample_rate">48000</property>
  <property name="meta.media.2.codec.channels">2</property>
  <property name="meta.media.2.codec.name">pcm_s24le</property>
  <property name="meta.media.2.codec.long_name">PCM signed 24-bit little-endian</property>
  <property name="meta.media.2.codec.bit_rate">2304000</property>
  <property name="meta.attr.2.stream.creation_time.markup">2017-11-25T07:48:40.000000Z</property>
  <property name="meta.attr.2.stream.language.markup">eng</property>
  <property name="meta.attr.2.stream.handler_name.markup">Apple Alias Data Handler</property>
  <property name="meta.attr.2.stream.timecode.markup">07:48:40:09</property>
  <property name="meta.attr.com.apple.proapps.manufacturer.markup">Blackmagic Design</property>
  <property name="meta.attr.com.apple.proapps.cameraName.markup">CAM2</property>
  <property name="meta.attr.com.apple.proapps.isGood.markup">0</property>
  <property name="meta.attr.com.apple.proapps.customgamma.markup">com.blackmagic-design.cinemacamera.filmlog</property>
  <property name="meta.attr.com.blackmagic-design.cinemacamera.uuid.markup">18E5E00548F94923B646613A73C01B56</property>
  <property name="meta.attr.creation_time.markup">2017-11-25T07:48:40.000000Z</property>
  <property name="meta.attr.timecode.markup">07:48:40:09</property>
  <property name="seekable">1</property>
  <property name="meta.media.sample_aspect_num">1</property>
  <property name="meta.media.sample_aspect_den">1</property>
  <property name="aspect_ratio">1</property>
  <property name="kdenlive:folderid">-1</property>
  <property name="meta.media.frame_rate_num">24</property>
  <property name="meta.media.frame_rate_den">1</property>
  <property name="meta.media.colorspace">709</property>
  <property name="meta.media.color_trc">1</property>
  <property name="meta.media.width">1920</property>
  <property name="meta.media.height">1080</property>
  <property name="meta.media.top_field_first">0</property>
  <property name="meta.media.progressive">1</property>
  <property name="kdenlive:file_size">2886505049</property>
  <property name="kdenlive:file_hash">b372f3b96eb788693ce67bf8f641c241</property>
  <property name="proxy_out">3104</property>
  <property name="kdenlive:originalurl">/media/joris/1TO_RUSHS/_Plagiat/Dimanche_soir/CAM2_2017-11-25_0748_C0006.mov</property>
  <property name="global_feed">1</property>
  <property name="meta.media.0.stream.type">video</property>
  <property name="meta.media.0.stream.frame_rate">24</property>
  <property name="meta.media.0.stream.sample_aspect_ratio">1</property>
  <property name="meta.media.0.codec.width">1920</property>
  <property name="meta.media.0.codec.height">1080</property>
  <property name="meta.media.0.codec.rotate">0</property>
  <property name="meta.media.0.codec.frame_rate">12288</property>
  <property name="meta.media.0.codec.pix_fmt">yuv422p10le</property>
  <property name="meta.media.0.codec.sample_aspect_ratio">0</property>
  <property name="meta.media.0.codec.colorspace">709</property>
  <property name="meta.media.0.codec.color_trc">1</property>
  <property name="meta.media.0.codec.name">dnxhd</property>
  <property name="meta.media.0.codec.long_name">VC3/DNxHD</property>
  <property name="meta.media.0.codec.bit_rate">176160768</property>
  <property name="meta.attr.0.stream.language.markup">eng</property>
  <property name="meta.attr.0.stream.handler_name.markup">Core Media Data Handler</property>
  <property name="meta.attr.0.stream.timecode.markup">07:48:40:09</property>
  <property name="meta.attr.major_brand.markup">qt  </property>
  <property name="meta.attr.minor_version.markup">512</property>
  <property name="meta.attr.compatible_brands.markup">qt  </property>
  <property name="meta.attr.encoder.markup">Lavf57.25.100</property>
 </producer>
 <producer title="Anonymous Submission" id="5" in="0" out="893">
  <property name="length">00:00:37:06</property>
  <property name="eof">pause</property>
  <property name="resource">/media/bordun/Odile/SnapshatAuHarem/etalo/CAM2_2017-11-25_0751_C0007.mov</property>
  <property name="audio_index">2</property>
  <property name="video_index">0</property>
  <property name="mute_on_pause">1</property>
  <property name="mlt_service">avformat-novalidate</property>
  <property name="meta.media.nb_streams">2</property>
  <property name="meta.media.1.stream.type">video</property>
  <property name="meta.media.1.stream.frame_rate">24</property>
  <property name="meta.media.1.stream.sample_aspect_ratio">1</property>
  <property name="meta.media.1.codec.width">1920</property>
  <property name="meta.media.1.codec.height">1080</property>
  <property name="meta.media.1.codec.rotate">0</property>
  <property name="meta.media.1.codec.frame_rate">2400</property>
  <property name="meta.media.1.codec.pix_fmt">yuv422p10le</property>
  <property name="meta.media.1.codec.sample_aspect_ratio">0</property>
  <property name="meta.media.1.codec.colorspace">709</property>
  <property name="meta.media.1.codec.color_trc">1</property>
  <property name="meta.media.1.codec.name">prores</property>
  <property name="meta.media.1.codec.long_name">ProRes</property>
  <property name="meta.media.1.codec.bit_rate">176138551</property>
  <property name="meta.attr.1.stream.creation_time.markup">2017-11-25T07:51:21.000000Z</property>
  <property name="meta.attr.1.stream.language.markup">eng</property>
  <property name="meta.attr.1.stream.handler_name.markup">Apple Alias Data Handler</property>
  <property name="meta.attr.1.stream.encoder.markup">Apple ProRes 422 HQ</property>
  <property name="meta.attr.1.stream.timecode.markup">07:51:21:11</property>
  <property name="meta.media.2.stream.type">audio</property>
  <property name="meta.media.2.codec.sample_fmt">s32</property>
  <property name="meta.media.2.codec.sample_rate">48000</property>
  <property name="meta.media.2.codec.channels">2</property>
  <property name="meta.media.2.codec.name">pcm_s24le</property>
  <property name="meta.media.2.codec.long_name">PCM signed 24-bit little-endian</property>
  <property name="meta.media.2.codec.bit_rate">2304000</property>
  <property name="meta.attr.2.stream.creation_time.markup">2017-11-25T07:51:21.000000Z</property>
  <property name="meta.attr.2.stream.language.markup">eng</property>
  <property name="meta.attr.2.stream.handler_name.markup">Apple Alias Data Handler</property>
  <property name="meta.attr.2.stream.timecode.markup">07:51:21:11</property>
  <property name="meta.attr.com.apple.proapps.manufacturer.markup">Blackmagic Design</property>
  <property name="meta.attr.com.apple.proapps.cameraName.markup">CAM2</property>
  <property name="meta.attr.com.apple.proapps.isGood.markup">0</property>
  <property name="meta.attr.com.apple.proapps.customgamma.markup">com.blackmagic-design.cinemacamera.filmlog</property>
  <property name="meta.attr.com.blackmagic-design.cinemacamera.uuid.markup">18E5E00548F94923B646613A73C01B56</property>
  <property name="meta.attr.creation_time.markup">2017-11-25T07:51:21.000000Z</property>
  <property name="meta.attr.timecode.markup">07:51:21:11</property>
  <property name="seekable">1</property>
  <property name="meta.media.sample_aspect_num">1</property>
  <property name="meta.media.sample_aspect_den">1</property>
  <property name="aspect_ratio">1</property>
  <property name="kdenlive:folderid">-1</property>
  <property name="meta.media.frame_rate_num">24</property>
  <property name="meta.media.frame_rate_den">1</property>
  <property name="meta.media.colorspace">709</property>
  <property name="meta.media.color_trc">1</property>
  <property name="meta.media.width">1920</property>
  <property name="meta.media.height">1080</property>
  <property name="meta.media.top_field_first">0</property>
  <property name="meta.media.progressive">1</property>
  <property name="kdenlive:file_size">831097721</property>
  <property name="kdenlive:file_hash">7d009c26d78878e48ae70b95e36270d4</property>
  <property name="proxy_out">893</property>
  <property name="kdenlive:originalurl">/media/joris/1TO_RUSHS/_Plagiat/Dimanche_soir/CAM2_2017-11-25_0751_C0007.mov</property>
  <property name="global_feed">1</property>
  <property name="meta.media.0.stream.type">video</property>
  <property name="meta.media.0.stream.frame_rate">24</property>
  <property name="meta.media.0.stream.sample_aspect_ratio">1</property>
  <property name="meta.media.0.codec.width">1920</property>
  <property name="meta.media.0.codec.height">1080</property>
  <property name="meta.media.0.codec.rotate">0</property>
  <property name="meta.media.0.codec.frame_rate">12288</property>
  <property name="meta.media.0.codec.pix_fmt">yuv422p10le</property>
  <property name="meta.media.0.codec.sample_aspect_ratio">0</property>
  <property name="meta.media.0.codec.colorspace">709</property>
  <property name="meta.media.0.codec.color_trc">1</property>
  <property name="meta.media.0.codec.name">dnxhd</property>
  <property name="meta.media.0.codec.long_name">VC3/DNxHD</property>
  <property name="meta.media.0.codec.bit_rate">176160768</property>
  <property name="meta.attr.0.stream.language.markup">eng</property>
  <property name="meta.attr.0.stream.handler_name.markup">Core Media Data Handler</property>
  <property name="meta.attr.0.stream.timecode.markup">07:51:21:11</property>
  <property name="meta.attr.major_brand.markup">qt  </property>
  <property name="meta.attr.minor_version.markup">512</property>
  <property name="meta.attr.compatible_brands.markup">qt  </property>
  <property name="meta.attr.encoder.markup">Lavf57.25.100</property>
 </producer>
 <producer title="Anonymous Submission" id="6" in="0" out="2099">
  <property name="length">00:01:27:12</property>
  <property name="eof">pause</property>
  <property name="resource">/media/bordun/Odile/SnapshatAuHarem/etalo/CAM2_2017-11-25_0754_C0008.mov</property>
  <property name="audio_index">2</property>
  <property name="video_index">0</property>
  <property name="mute_on_pause">1</property>
  <property name="mlt_service">avformat-novalidate</property>
  <property name="meta.media.nb_streams">2</property>
  <property name="meta.media.1.stream.type">video</property>
  <property name="meta.media.1.stream.frame_rate">24</property>
  <property name="meta.media.1.stream.sample_aspect_ratio">1</property>
  <property name="meta.media.1.codec.width">1920</property>
  <property name="meta.media.1.codec.height">1080</property>
  <property name="meta.media.1.codec.rotate">0</property>
  <property name="meta.media.1.codec.frame_rate">2400</property>
  <property name="meta.media.1.codec.pix_fmt">yuv422p10le</property>
  <property name="meta.media.1.codec.sample_aspect_ratio">0</property>
  <property name="meta.media.1.codec.colorspace">709</property>
  <property name="meta.media.1.codec.color_trc">1</property>
  <property name="meta.media.1.codec.name">prores</property>
  <property name="meta.media.1.codec.long_name">ProRes</property>
  <property name="meta.media.1.codec.bit_rate">176138402</property>
  <property name="meta.attr.1.stream.creation_time.markup">2017-11-25T07:54:11.000000Z</property>
  <property name="meta.attr.1.stream.language.markup">eng</property>
  <property name="meta.attr.1.stream.handler_name.markup">Apple Alias Data Handler</property>
  <property name="meta.attr.1.stream.encoder.markup">Apple ProRes 422 HQ</property>
  <property name="meta.attr.1.stream.timecode.markup">07:54:11:05</property>
  <property name="meta.media.2.stream.type">audio</property>
  <property name="meta.media.2.codec.sample_fmt">s32</property>
  <property name="meta.media.2.codec.sample_rate">48000</property>
  <property name="meta.media.2.codec.channels">2</property>
  <property name="meta.media.2.codec.name">pcm_s24le</property>
  <property name="meta.media.2.codec.long_name">PCM signed 24-bit little-endian</property>
  <property name="meta.media.2.codec.bit_rate">2304000</property>
  <property name="meta.attr.2.stream.creation_time.markup">2017-11-25T07:54:11.000000Z</property>
  <property name="meta.attr.2.stream.language.markup">eng</property>
  <property name="meta.attr.2.stream.handler_name.markup">Apple Alias Data Handler</property>
  <property name="meta.attr.2.stream.timecode.markup">07:54:11:05</property>
  <property name="meta.attr.com.apple.proapps.manufacturer.markup">Blackmagic Design</property>
  <property name="meta.attr.com.apple.proapps.cameraName.markup">CAM2</property>
  <property name="meta.attr.com.apple.proapps.isGood.markup">0</property>
  <property name="meta.attr.com.apple.proapps.customgamma.markup">com.blackmagic-design.cinemacamera.filmlog</property>
  <property name="meta.attr.com.blackmagic-design.cinemacamera.uuid.markup">18E5E00548F94923B646613A73C01B56</property>
  <property name="meta.attr.creation_time.markup">2017-11-25T07:54:11.000000Z</property>
  <property name="meta.attr.timecode.markup">07:54:11:05</property>
  <property name="seekable">1</property>
  <property name="meta.media.sample_aspect_num">1</property>
  <property name="meta.media.sample_aspect_den">1</property>
  <property name="aspect_ratio">1</property>
  <property name="kdenlive:folderid">-1</property>
  <property name="meta.media.frame_rate_num">24</property>
  <property name="meta.media.frame_rate_den">1</property>
  <property name="meta.media.colorspace">709</property>
  <property name="meta.media.color_trc">1</property>
  <property name="meta.media.width">1920</property>
  <property name="meta.media.height">1080</property>
  <property name="meta.media.top_field_first">0</property>
  <property name="meta.media.progressive">1</property>
  <property name="kdenlive:file_size">1952229641</property>
  <property name="kdenlive:file_hash">53b9d1a9ee6ea5f84b6a7b567d6e5a41</property>
  <property name="proxy_out">2099</property>
  <property name="kdenlive:originalurl">/media/joris/1TO_RUSHS/_Plagiat/Dimanche_soir/CAM2_2017-11-25_0754_C0008.mov</property>
  <property name="global_feed">1</property>
  <property name="meta.media.0.stream.type">video</property>
  <property name="meta.media.0.stream.frame_rate">24</property>
  <property name="meta.media.0.stream.sample_aspect_ratio">1</property>
  <property name="meta.media.0.codec.width">1920</property>
  <property name="meta.media.0.codec.height">1080</property>
  <property name="meta.media.0.codec.rotate">0</property>
  <property name="meta.media.0.codec.frame_rate">12288</property>
  <property name="meta.media.0.codec.pix_fmt">yuv422p10le</property>
  <property name="meta.media.0.codec.sample_aspect_ratio">0</property>
  <property name="meta.media.0.codec.colorspace">709</property>
  <property name="meta.media.0.codec.color_trc">1</property>
  <property name="meta.media.0.codec.name">dnxhd</property>
  <property name="meta.media.0.codec.long_name">VC3/DNxHD</property>
  <property name="meta.media.0.codec.bit_rate">176160768</property>
  <property name="meta.attr.0.stream.language.markup">eng</property>
  <property name="meta.attr.0.stream.handler_name.markup">Core Media Data Handler</property>
  <property name="meta.attr.0.stream.timecode.markup">07:54:11:05</property>
  <property name="meta.attr.major_brand.markup">qt  </property>
  <property name="meta.attr.minor_version.markup">512</property>
  <property name="meta.attr.compatible_brands.markup">qt  </property>
  <property name="meta.attr.encoder.markup">Lavf57.25.100</property>
 </producer>
 <producer title="Anonymous Submission" id="7" in="0" out="1872">
  <property name="length">00:01:18:01</property>
  <property name="eof">pause</property>
  <property name="resource">/media/bordun/Odile/SnapshatAuHarem/etalo/CAM2_2017-11-25_0756_C0009.mov</property>
  <property name="audio_index">2</property>
  <property name="video_index">0</property>
  <property name="mute_on_pause">1</property>
  <property name="mlt_service">avformat-novalidate</property>
  <property name="meta.media.nb_streams">2</property>
  <property name="meta.media.1.stream.type">video</property>
  <property name="meta.media.1.stream.frame_rate">24</property>
  <property name="meta.media.1.stream.sample_aspect_ratio">1</property>
  <property name="meta.media.1.codec.width">1920</property>
  <property name="meta.media.1.codec.height">1080</property>
  <property name="meta.media.1.codec.rotate">0</property>
  <property name="meta.media.1.codec.frame_rate">2400</property>
  <property name="meta.media.1.codec.pix_fmt">yuv422p10le</property>
  <property name="meta.media.1.codec.sample_aspect_ratio">0</property>
  <property name="meta.media.1.codec.colorspace">709</property>
  <property name="meta.media.1.codec.color_trc">1</property>
  <property name="meta.media.1.codec.name">prores</property>
  <property name="meta.media.1.codec.long_name">ProRes</property>
  <property name="meta.media.1.codec.bit_rate">176138010</property>
  <property name="meta.attr.1.stream.creation_time.markup">2017-11-25T07:56:22.000000Z</property>
  <property name="meta.attr.1.stream.language.markup">eng</property>
  <property name="meta.attr.1.stream.handler_name.markup">Apple Alias Data Handler</property>
  <property name="meta.attr.1.stream.encoder.markup">Apple ProRes 422 HQ</property>
  <property name="meta.attr.1.stream.timecode.markup">07:56:22:19</property>
  <property name="meta.media.2.stream.type">audio</property>
  <property name="meta.media.2.codec.sample_fmt">s32</property>
  <property name="meta.media.2.codec.sample_rate">48000</property>
  <property name="meta.media.2.codec.channels">2</property>
  <property name="meta.media.2.codec.name">pcm_s24le</property>
  <property name="meta.media.2.codec.long_name">PCM signed 24-bit little-endian</property>
  <property name="meta.media.2.codec.bit_rate">2304000</property>
  <property name="meta.attr.2.stream.creation_time.markup">2017-11-25T07:56:22.000000Z</property>
  <property name="meta.attr.2.stream.language.markup">eng</property>
  <property name="meta.attr.2.stream.handler_name.markup">Apple Alias Data Handler</property>
  <property name="meta.attr.2.stream.timecode.markup">07:56:22:19</property>
  <property name="meta.attr.com.apple.proapps.manufacturer.markup">Blackmagic Design</property>
  <property name="meta.attr.com.apple.proapps.cameraName.markup">CAM2</property>
  <property name="meta.attr.com.apple.proapps.isGood.markup">0</property>
  <property name="meta.attr.com.apple.proapps.customgamma.markup">com.blackmagic-design.cinemacamera.filmlog</property>
  <property name="meta.attr.com.blackmagic-design.cinemacamera.uuid.markup">18E5E00548F94923B646613A73C01B56</property>
  <property name="meta.attr.creation_time.markup">2017-11-25T07:56:22.000000Z</property>
  <property name="meta.attr.timecode.markup">07:56:22:19</property>
  <property name="seekable">1</property>
  <property name="meta.media.sample_aspect_num">1</property>
  <property name="meta.media.sample_aspect_den">1</property>
  <property name="aspect_ratio">1</property>
  <property name="kdenlive:folderid">-1</property>
  <property name="meta.media.frame_rate_num">24</property>
  <property name="meta.media.frame_rate_den">1</property>
  <property name="meta.media.colorspace">709</property>
  <property name="meta.media.color_trc">1</property>
  <property name="meta.media.width">1920</property>
  <property name="meta.media.height">1080</property>
  <property name="meta.media.top_field_first">0</property>
  <property name="meta.media.progressive">1</property>
  <property name="kdenlive:file_size">1741202113</property>
  <property name="kdenlive:file_hash">272c3d2831d97e2b8d84194981e707ca</property>
  <property name="proxy_out">1872</property>
  <property name="kdenlive:originalurl">/media/joris/1TO_RUSHS/_Plagiat/Dimanche_soir/CAM2_2017-11-25_0756_C0009.mov</property>
  <property name="global_feed">1</property>
  <property name="meta.media.0.stream.type">video</property>
  <property name="meta.media.0.stream.frame_rate">24</property>
  <property name="meta.media.0.stream.sample_aspect_ratio">1</property>
  <property name="meta.media.0.codec.width">1920</property>
  <property name="meta.media.0.codec.height">1080</property>
  <property name="meta.media.0.codec.rotate">0</property>
  <property name="meta.media.0.codec.frame_rate">12288</property>
  <property name="meta.media.0.codec.pix_fmt">yuv422p10le</property>
  <property name="meta.media.0.codec.sample_aspect_ratio">0</property>
  <property name="meta.media.0.codec.colorspace">709</property>
  <property name="meta.media.0.codec.color_trc">1</property>
  <property name="meta.media.0.codec.name">dnxhd</property>
  <property name="meta.media.0.codec.long_name">VC3/DNxHD</property>
  <property name="meta.media.0.codec.bit_rate">176160768</property>
  <property name="meta.attr.0.stream.language.markup">eng</property>
  <property name="meta.attr.0.stream.handler_name.markup">Core Media Data Handler</property>
  <property name="meta.attr.0.stream.timecode.markup">07:56:22:19</property>
  <property name="meta.attr.major_brand.markup">qt  </property>
  <property name="meta.attr.minor_version.markup">512</property>
  <property name="meta.attr.compatible_brands.markup">qt  </property>
  <property name="meta.attr.encoder.markup">Lavf57.25.100</property>
 </producer>
 <producer title="Anonymous Submission" id="8" in="0" out="969">
  <property name="length">00:00:40:10</property>
  <property name="eof">pause</property>
  <property name="resource">/media/bordun/Odile/SnapshatAuHarem/etalo/CAM2_2017-11-25_0759_C0010.mov</property>
  <property name="audio_index">2</property>
  <property name="video_index">0</property>
  <property name="mute_on_pause">1</property>
  <property name="mlt_service">avformat-novalidate</property>
  <property name="meta.media.nb_streams">2</property>
  <property name="meta.media.1.stream.type">video</property>
  <property name="meta.media.1.stream.frame_rate">24</property>
  <property name="meta.media.1.stream.sample_aspect_ratio">1</property>
  <property name="meta.media.1.codec.width">1920</property>
  <property name="meta.media.1.codec.height">1080</property>
  <property name="meta.media.1.codec.rotate">0</property>
  <property name="meta.media.1.codec.frame_rate">2400</property>
  <property name="meta.media.1.codec.pix_fmt">yuv422p10le</property>
  <property name="meta.media.1.codec.sample_aspect_ratio">0</property>
  <property name="meta.media.1.codec.colorspace">709</property>
  <property name="meta.media.1.codec.color_trc">1</property>
  <property name="meta.media.1.codec.name">prores</property>
  <property name="meta.media.1.codec.long_name">ProRes</property>
  <property name="meta.media.1.codec.bit_rate">176139264</property>
  <property name="meta.attr.1.stream.creation_time.markup">2017-11-25T07:59:50.000000Z</property>
  <property name="meta.attr.1.stream.language.markup">eng</property>
  <property name="meta.attr.1.stream.handler_name.markup">Apple Alias Data Handler</property>
  <property name="meta.attr.1.stream.encoder.markup">Apple ProRes 422 HQ</property>
  <property name="meta.attr.1.stream.timecode.markup">07:59:50:17</property>
  <property name="meta.media.2.stream.type">audio</property>
  <property name="meta.media.2.codec.sample_fmt">s32</property>
  <property name="meta.media.2.codec.sample_rate">48000</property>
  <property name="meta.media.2.codec.channels">2</property>
  <property name="meta.media.2.codec.name">pcm_s24le</property>
  <property name="meta.media.2.codec.long_name">PCM signed 24-bit little-endian</property>
  <property name="meta.media.2.codec.bit_rate">2304000</property>
  <property name="meta.attr.2.stream.creation_time.markup">2017-11-25T07:59:50.000000Z</property>
  <property name="meta.attr.2.stream.language.markup">eng</property>
  <property name="meta.attr.2.stream.handler_name.markup">Apple Alias Data Handler</property>
  <property name="meta.attr.2.stream.timecode.markup">07:59:50:17</property>
  <property name="meta.attr.com.apple.proapps.manufacturer.markup">Blackmagic Design</property>
  <property name="meta.attr.com.apple.proapps.cameraName.markup">CAM2</property>
  <property name="meta.attr.com.apple.proapps.isGood.markup">0</property>
  <property name="meta.attr.com.apple.proapps.customgamma.markup">com.blackmagic-design.cinemacamera.filmlog</property>
  <property name="meta.attr.com.blackmagic-design.cinemacamera.uuid.markup">18E5E00548F94923B646613A73C01B56</property>
  <property name="meta.attr.creation_time.markup">2017-11-25T07:59:50.000000Z</property>
  <property name="meta.attr.timecode.markup">07:59:50:17</property>
  <property name="seekable">1</property>
  <property name="meta.media.sample_aspect_num">1</property>
  <property name="meta.media.sample_aspect_den">1</property>
  <property name="aspect_ratio">1</property>
  <property name="kdenlive:folderid">-1</property>
  <property name="meta.media.frame_rate_num">24</property>
  <property name="meta.media.frame_rate_den">1</property>
  <property name="meta.media.colorspace">709</property>
  <property name="meta.media.color_trc">1</property>
  <property name="meta.media.width">1920</property>
  <property name="meta.media.height">1080</property>
  <property name="meta.media.top_field_first">0</property>
  <property name="meta.media.progressive">1</property>
  <property name="kdenlive:file_size">901761937</property>
  <property name="kdenlive:file_hash">e643de28a1251c248d7eb82cd5d9834e</property>
  <property name="proxy_out">969</property>
  <property name="kdenlive:originalurl">/media/joris/1TO_RUSHS/_Plagiat/Dimanche_soir/CAM2_2017-11-25_0759_C0010.mov</property>
  <property name="global_feed">1</property>
  <property name="meta.media.0.stream.type">video</property>
  <property name="meta.media.0.stream.frame_rate">24</property>
  <property name="meta.media.0.stream.sample_aspect_ratio">1</property>
  <property name="meta.media.0.codec.width">1920</property>
  <property name="meta.media.0.codec.height">1080</property>
  <property name="meta.media.0.codec.rotate">0</property>
  <property name="meta.media.0.codec.frame_rate">12288</property>
  <property name="meta.media.0.codec.pix_fmt">yuv422p10le</property>
  <property name="meta.media.0.codec.sample_aspect_ratio">0</property>
  <property name="meta.media.0.codec.colorspace">709</property>
  <property name="meta.media.0.codec.color_trc">1</property>
  <property name="meta.media.0.codec.name">dnxhd</property>
  <property name="meta.media.0.codec.long_name">VC3/DNxHD</property>
  <property name="meta.media.0.codec.bit_rate">176160768</property>
  <property name="meta.attr.0.stream.language.markup">eng</property>
  <property name="meta.attr.0.stream.handler_name.markup">Core Media Data Handler</property>
  <property name="meta.attr.0.stream.timecode.markup">07:59:50:17</property>
  <property name="meta.attr.major_brand.markup">qt  </property>
  <property name="meta.attr.minor_version.markup">512</property>
  <property name="meta.attr.compatible_brands.markup">qt  </property>
  <property name="meta.attr.encoder.markup">Lavf57.25.100</property>
 </producer>
 <producer title="Anonymous Submission" id="9" in="0" out="5809">
  <property name="length">00:04:02:02</property>
  <property name="eof">pause</property>
  <property name="resource">/media/bordun/Odile/SnapshatAuHarem/etalo/CAM2_2017-11-25_0823_C0011.mov</property>
  <property name="audio_index">2</property>
  <property name="video_index">0</property>
  <property name="mute_on_pause">1</property>
  <property name="mlt_service">avformat-novalidate</property>
  <property name="meta.media.nb_streams">2</property>
  <property name="meta.media.1.stream.type">video</property>
  <property name="meta.media.1.stream.frame_rate">24</property>
  <property name="meta.media.1.stream.sample_aspect_ratio">1</property>
  <property name="meta.media.1.codec.width">1920</property>
  <property name="meta.media.1.codec.height">1080</property>
  <property name="meta.media.1.codec.rotate">0</property>
  <property name="meta.media.1.codec.frame_rate">2400</property>
  <property name="meta.media.1.codec.pix_fmt">yuv422p10le</property>
  <property name="meta.media.1.codec.sample_aspect_ratio">0</property>
  <property name="meta.media.1.codec.colorspace">709</property>
  <property name="meta.media.1.codec.color_trc">1</property>
  <property name="meta.media.1.codec.name">prores</property>
  <property name="meta.media.1.codec.long_name">ProRes</property>
  <property name="meta.media.1.codec.bit_rate">176139060</property>
  <property name="meta.attr.1.stream.creation_time.markup">2017-11-25T08:23:03.000000Z</property>
  <property name="meta.attr.1.stream.language.markup">eng</property>
  <property name="meta.attr.1.stream.handler_name.markup">Apple Alias Data Handler</property>
  <property name="meta.attr.1.stream.encoder.markup">Apple ProRes 422 HQ</property>
  <property name="meta.attr.1.stream.timecode.markup">08:23:03:08</property>
  <property name="meta.media.2.stream.type">audio</property>
  <property name="meta.media.2.codec.sample_fmt">s32</property>
  <property name="meta.media.2.codec.sample_rate">48000</property>
  <property name="meta.media.2.codec.channels">2</property>
  <property name="meta.media.2.codec.name">pcm_s24le</property>
  <property name="meta.media.2.codec.long_name">PCM signed 24-bit little-endian</property>
  <property name="meta.media.2.codec.bit_rate">2304000</property>
  <property name="meta.attr.2.stream.creation_time.markup">2017-11-25T08:23:03.000000Z</property>
  <property name="meta.attr.2.stream.language.markup">eng</property>
  <property name="meta.attr.2.stream.handler_name.markup">Apple Alias Data Handler</property>
  <property name="meta.attr.2.stream.timecode.markup">08:23:03:08</property>
  <property name="meta.attr.com.apple.proapps.manufacturer.markup">Blackmagic Design</property>
  <property name="meta.attr.com.apple.proapps.cameraName.markup">CAM2</property>
  <property name="meta.attr.com.apple.proapps.isGood.markup">0</property>
  <property name="meta.attr.com.apple.proapps.customgamma.markup">com.blackmagic-design.cinemacamera.filmlog</property>
  <property name="meta.attr.com.blackmagic-design.cinemacamera.uuid.markup">18E5E00548F94923B646613A73C01B56</property>
  <property name="meta.attr.creation_time.markup">2017-11-25T08:23:03.000000Z</property>
  <property name="meta.attr.timecode.markup">08:23:03:08</property>
  <property name="seekable">1</property>
  <property name="meta.media.sample_aspect_num">1</property>
  <property name="meta.media.sample_aspect_den">1</property>
  <property name="aspect_ratio">1</property>
  <property name="kdenlive:folderid">-1</property>
  <property name="meta.media.frame_rate_num">24</property>
  <property name="meta.media.frame_rate_den">1</property>
  <property name="meta.media.colorspace">709</property>
  <property name="meta.media.color_trc">1</property>
  <property name="meta.media.width">1920</property>
  <property name="meta.media.height">1080</property>
  <property name="meta.media.top_field_first">0</property>
  <property name="meta.media.progressive">1</property>
  <property name="kdenlive:file_size">5401146337</property>
  <property name="kdenlive:file_hash">0e80b31f91ba766cf6d5cc0ec3c08cfb</property>
  <property name="proxy_out">5809</property>
  <property name="kdenlive:originalurl">/media/joris/1TO_RUSHS/_Plagiat/Dimanche_soir/CAM2_2017-11-25_0823_C0011.mov</property>
  <property name="kdenlive:zone_in">1493</property>
  <property name="kdenlive:zone_out">1542</property>
  <property name="global_feed">1</property>
  <property name="meta.media.0.stream.type">video</property>
  <property name="meta.media.0.stream.frame_rate">24</property>
  <property name="meta.media.0.stream.sample_aspect_ratio">1</property>
  <property name="meta.media.0.codec.width">1920</property>
  <property name="meta.media.0.codec.height">1080</property>
  <property name="meta.media.0.codec.rotate">0</property>
  <property name="meta.media.0.codec.frame_rate">12288</property>
  <property name="meta.media.0.codec.pix_fmt">yuv422p10le</property>
  <property name="meta.media.0.codec.sample_aspect_ratio">0</property>
  <property name="meta.media.0.codec.colorspace">709</property>
  <property name="meta.media.0.codec.color_trc">1</property>
  <property name="meta.media.0.codec.name">dnxhd</property>
  <property name="meta.media.0.codec.long_name">VC3/DNxHD</property>
  <property name="meta.media.0.codec.bit_rate">176160768</property>
  <property name="meta.attr.0.stream.language.markup">eng</property>
  <property name="meta.attr.0.stream.handler_name.markup">Core Media Data Handler</property>
  <property name="meta.attr.0.stream.timecode.markup">08:23:03:08</property>
  <property name="meta.attr.major_brand.markup">qt  </property>
  <property name="meta.attr.minor_version.markup">512</property>
  <property name="meta.attr.compatible_brands.markup">qt  </property>
  <property name="meta.attr.encoder.markup">Lavf57.25.100</property>
  <property name="kdenlive:clipanalysis.motion_vector_list">1283=727/250:481x616:0;1284=727/250:481x616;1285=726,3/249,1:481x616;1286=726,15/248,8:481x616;1287=725,75/247,7:481x616;1288=725,1/246,5:481x616;1289=724,45/246,35:481x616;1290=724,5/245,6:481x616;1291=725,1/245,45:481x616;1292=724,95/244,8:481x616;1293=724,65/244,5:481x616;1294=724,9/244,05:481x616;1295=724,567/243,106:481x616;1296=724,233/242,994:481x616;1297=723,933/242,594:481x616;1298=723,655/242,483:481x616;1299=723,42/242,366:481x616;1300=722,832/242,013:481x616;1301=722,519/241,7:481x616;1302=721,853/241,567:481x616;1303=721,665/241,442:481x616;1304=721,54/241,192:481x616;1305=721,607/240,859:481x616;1306=721,313/240,682:481x616;1307=721,019/240,564:481x616;1308=720,842/240,506:481x616;1309=721,042/240,506:481x616;1310=721,119/240,429:481x616;1311=721,119/240,376:481x616;1312=721,382/239,955:481x616;1313=721,382/240,008:481x616;1314=721,332/239,758:481x616;1315=721,282/239,558:481x616;1316=720,982/239,508:481x616;1317=720,877/239,35:481x616;1318=720,727/239,45:481x616;1319=720,577/239,15:481x616;1320=721,177/239:481x616;1321=721,027/237,95:481x616;1322=720,627/236,75:481x616;1323=720,977/236,45:481x616;1324=721,227/236,15:481x616;1325=721,677/236,15:481x616;1326=721,327/235,95:481x616;1327=720,877/235,9:481x616;1328=720,877/235,9:481x616;1329=720,877/235,9:481x616;1330=720,877/235,9:481x616;1331=720,877/235,9:481x616;1332=720,877/235,9:481x616;1333=720,877/235,9:481x616;1334=720,877/235,9:481x616;1335=720,877/235,9:481x616;1336=721,577/235,95:481x616;1337=721,977/236,65:481x616;1338=722,327/237,35:481x616;1339=722,627/238,05:481x616;1340=722,627/238,75:481x616;1341=722,627/239,3:481x616;1342=722,627/239,85:481x616;1343=721,827/240,183:481x616;1344=721,027/240,45:481x616;1345=719,96/240,45:481x616;1346=718,71/240,866:481x616;1347=710,71/240,866:481x616;1348=702,71/240,866:481x616;1349=694,71/240,866:481x616;1350=691,619/240,412:481x616;1351=688,553/240,212:481x616;1352=686,29/240,37:481x616;1353=683,165/240,745:481x616;1354=680,241/240,976:481x616;1355=677,065/240,976:481x616;1356=673,68/240,899:481x616;1357=670,296/240,822:481x616;1358=667,129/240,822:481x616;1359=663,629/240,722:481x616;1360=661,429/240,672:481x616;1361=659,029/240,672:481x616;1362=656,379/240,672:481x616;1363=654,079/240,272:481x616;1364=651,629/240,072:481x616;1365=649,279/239,922:481x616;1366=647,029/239,572:481x616;1367=644,679/239,122:481x616;1368=640,512/238,372:481x616;1369=637,262/238,288:481x616;1370=635,878/237,75:481x616;1371=633,995/237,162:481x616;1372=633,495/236,762:481x616;1373=631,895/236,028:481x616;1374=630,013/234,381:481x616;1375=628,131/233,323:481x616;1376=626,443/232,073:481x616;1377=624,679/231,073:481x616;1378=624,063/229,996:481x616;1379=623,525/228,765:481x616;1380=622,909/227,534:481x616;1381=622,109/225,867:481x616;1382=621,756/225,22:481x616;1383=621,403/223,985:481x616;1384=621,903/223,735:481x616;1385=621,528/222,298:481x616;1386=620,466/221,985:481x616;1387=620,289/221,632:481x616;1388=620,407/221,338:481x616;1389=620,289/220,985:481x616;1390=620,054/220,867:481x616;1391=619,367/220,055:481x616;1392=618,778/219,702:481x616;1393=618,278/218,452:481x616;1394=617,878/217,552:481x616;1395=615,745/216,819:481x616;1396=614,053/215,434:481x616;1397=613,553/215,184:481x616;1398=612,803/213,934:481x616;1399=611,903/213,234:481x616;1400=610,403/212,151:481x616;1401=608,864/211,612:481x616;1402=608,403/210,689:481x616;1403=607,864/210,381:481x616;1404=606,326/209,689:481x616;1405=605,492/208,939:481x616;1406=603,954/208,478:481x616;1407=602,871/207,478:481x616;1408=602,204/207,311:481x616;1409=600,871/205,978:481x616;1410=597,496/205,353:481x616;1411=596,058/204,728:481x616;1412=595,121/203,54:481x616;1413=594,121/202,658:481x616;1414=592,65/201,07:481x616;1415=591,15/200,132:481x616;1416=589,525/199,09:481x616;1417=588,858/197,519:481x616;1418=588,467/195,867:481x616;1419=586,902/195,041:481x616;1420=585,163/193,562:481x616;1421=584,337/192,606:481x616;1422=584,032/191,954:481x616;1423=583,082/190,304:481x616;1424=581,219/189,395:481x616;1425=579,523/188,873:481x616;1426=578,74/187,09:481x616;1427=578,032/186,549:481x616;1428=576,461/185,072:481x616;1429=574,336/184,072:481x616;1430=573,51/183,333:481x616;1431=572,96/181,733:481x616;1432=572,51/180,633:481x616;1433=571,232/179,467:481x616;1434=569,782/178,267:481x616;1435=569,203/177,214:481x616;1436=568,603/176,264:481x616;1437=566,919/175,159:481x616;1438=565,129/174,422:481x616;1439=563,603/173,001:481x616;1440=562,182/171,948:481x616;1441=560,919/171,211:481x616;1442=560,287/170,369:481x616;1443=559,129/169,001:481x616;1444=556,392/168,474:481x616;1445=553,656/167,001:481x616;1446=552,498/166,79:481x616;1447=551,498/166,106:481x616;1448=550,34/165,106:481x616;1449=547,89/164,506:481x616;1450=545,69/163,556:481x616;1451=544,64/162,456:481x616;1452=543,14/160,856:481x616;1453=540,94/159,656:481x616;1454=538,782/157,814:481x616;1455=537,182/157,214:481x616;1456=535,382/155,614:481x616;1457=533,432/154,064:481x616;1458=531,132/153,414:481x616;1459=529,232/151,764:481x616;1460=527,382/151,264:481x616;1461=525,323/149,735:481x616;1462=523,073/148,735:481x616;1463=520,873/147,785:481x616;1464=519,61/146,469:481x616;1465=518,81/145,719:481x616;1466=517,343/144,852:481x616;1467=515,276/143,385:481x616;1468=513,477/141,919:481x616;1469=512,076/141,052:481x616;1470=511,476/139,919:481x616;1471=510,276/139,519:481x616</property>
  <property name="kdenlive:clipanalysis.motion_vector_list1">1280=819/300:235x496:0;1281=823,511/299,089:235x496;1282=823,5/298,858:235x496;1283=823,448/298,429:235x496;1284=823,278/297,811:235x496;1285=822,981/297,097:235x496;1286=822,952/296,636:235x496;1287=822,59/295,582:235x496;1288=822,018/294,561:235x496;1289=821,499/294,112:235x496;1290=821,299/293,454:235x496;1291=821,266/293,081:235x496;1292=820,804/292,574:235x496;1293=820,588/292,381:235x496;1294=820,493/292,004:235x496;1295=820,127/291,387:235x496;1296=819,703/291,254:235x496;1297=819,5/291,026:235x496;1298=819,418/291,15:235x496;1299=819,205/291,336:235x496;1300=818,585/291,281:235x496;1301=818,619/291,504:235x496;1302=818,591/291,633:235x496;1303=818,949/292,151:235x496;1304=819,044/292,039:235x496;1305=818,732/292,403:235x496;1306=818,411/292,575:235x496;1307=818,199/292,818:235x496;1308=818,587/293,117:235x496;1309=818,773/293,401:235x496;1310=818,578/295,727:235x496;1311=817,814/298,174:235x496;1312=814,414/300,974:235x496;1313=810,852/303,974:235x496;1314=808,369/306,836:235x496;1315=805,802/309,296:235x496;1316=803,433/310,611:235x496;1317=801,073/311,726:235x496;1318=800,35/312,344:235x496;1319=799,433/312,148:235x496;1320=799,065/312,156:235x496;1321=798,672/312,16:235x496;1322=798,188/312,015:235x496;1323=797,641/312,133:235x496;1324=797,116/312,144:235x496;1325=797,1/312,228:235x496;1326=796,525/312,319:235x496;1327=795,987/312,396:235x496;1328=795,502/312,594:235x496;1329=794,837/312,55:235x496;1330=790,542/312,021:235x496;1331=784,542/312,021:235x496;1332=772,542/312,021:235x496;1333=772,542/312,021:235x496;1334=772,542/312,021:235x496;1335=772,542/312,021:235x496;1336=772,542/312,021:235x496;1337=768,654/312,243:235x496;1338=765,765/312,132:235x496;1339=763,878/312,434:235x496;1340=763,294/312,661:235x496;1341=763,056/313,152:235x496;1342=762,695/313,388:235x496;1343=762,267/313,596:235x496;1344=761,837/313,633:235x496;1345=761,289/313,714:235x496;1346=759,539/313,428:235x496;1347=755,448/312,883:235x496;1348=752,448/313,383:235x496;1349=749,893/313,494:235x496;1350=747,226/313,938:235x496;1351=744,014/313,514:235x496;1352=741,387/313,633:235x496;1353=738,732/314,037:235x496;1354=736,237/314,565:235x496;1355=734,186/314,941:235x496;1356=731,805/315,104:235x496;1357=729,305/315,395:235x496;1358=726,253/315,85:235x496;1359=723,023/316,181:235x496;1360=719,174/317,097:235x496;1361=715,11/317,614:235x496;1362=710,523/317,705:235x496;1363=706,169/317,487:235x496;1364=701,092/317,297:235x496;1365=696,218/316,966:235x496;1366=692,025/316,698:235x496;1367=687,352/316,236:235x496;1368=682,347/315,806:235x496;1369=677,261/315,503:235x496;1370=672,62/315,244:235x496;1371=668,27/314,949:235x496;1372=663,575/314,832:235x496;1373=659,23/314,588:235x496;1374=654,94/314,324:235x496;1375=650,639/313,899:235x496;1376=646,396/313,327:235x496;1377=642,502/312,257:235x496;1378=638,305/311,184:235x496;1379=634,086/310,257:235x496;1380=629,664/308,305:235x496;1381=625,385/306,447:235x496;1382=621,231/304,975:235x496;1383=616,683/303,09:235x496;1384=612,422/301,287:235x496;1385=607,789/299,186:235x496;1386=602,81/297,165:235x496;1387=597,478/295,25:235x496;1388=593,169/293,235:235x496;1389=588,017/290,547:235x496;1390=582,957/288,013:235x496;1391=578,102/285,521:235x496;1392=573,181/282,893:235x496;1393=568,445/280,12:235x496;1394=563,677/277,976:235x496;1395=558,799/275,793:235x496;1396=553,79/273,556:235x496;1397=548,226/271,492:235x496;1398=543,445/269,82:235x496;1399=537,782/268,285:235x496;1400=531,966/266,591:235x496;1401=526,055/265,063:235x496;1402=520,467/263,263:235x496;1403=514,907/261,703:235x496;1404=509,211/260,082:235x496;1405=503,153/258,45:235x496;1406=497,085/256,94:235x496;1407=492,123/255,376:235x496;1408=488,064/254,376:235x496;1409=484,359/253,452:235x496;1410=480,831/252,667:235x496;1411=477,809/251,956:235x496;1412=475,17/251,115:235x496;1413=474,281/250,584:235x496;1414=473,261/249,977:235x496;1415=472,03/249,378:235x496;1416=470,749/248,727:235x496;1417=469,958/247,57:235x496;1418=468,753/246,237:235x496;1419=467,269/245,608:235x496;1420=465,597/244,369:235x496;1421=464,147/243,168:235x496;1422=462,904/242,416:235x496;1423=461,422/241,062:235x496;1424=458,295/239,802:235x496;1425=455,341/238,575:235x496;1426=453,19/236,493:235x496;1427=450,817/235,792:235x496;1428=447,32/234,324:235x496;1429=443,649/232,938:235x496;1430=440,739/231,62:235x496;1431=438,661/229,05:235x496;1432=435,785/226,754:235x496;1433=431,201/224,663:235x496;1434=426,512/222,478:235x496;1435=422,612/220,94:235x496;1436=418,643/219,228:235x496;1437=413,656/217,507:235x496;1438=407,693/215,927:235x496;1439=401,605/213,897:235x496;1440=395,727/212,748:235x496;1441=390,374/211,719:235x496;1442=385,278/210,6:235x496;1443=379,827/209,416:235x496;1444=372,994/209,156:235x496;1445=365,667/208,023:235x496;1446=359,364/207,637:235x496;1447=353,207/206,55:235x496;1448=346,913/205,38:235x496;1449=339,348/204,276:235x496;1450=332,135/203,011:235x496;1451=325,047/200,684:235x496;1452=317,889/198,323:235x496;1453=309,104/196,068:235x496;1454=299,786/192,959:235x496;1455=291,205/190,649:235x496;1456=282,633/187,526:235x496;1457=273,187/184,598:235x496;1458=262,654/182,473:235x496;1459=252,56/179,383:235x496;1460=242,334/177,201:235x496;1461=231,198/174,175:235x496;1462=220,027/171,213:235x496;1463=207,927/168,26:235x496;1464=196,911/165,243:235x496;1465=186,551/162,273:235x496;1466=175,325/159,19:235x496;1467=163,378/156,2:235x496;1468=151,129/152,074:235x496;1469=139,963/147,945:235x496;1470=128,804/143,824:235x496;1471=115,644/139,486:235x496</property>
  <property name="kdenlive:clipanalysis.motion_vector_list2">1272=819/300:235x496:0;1273=819/300:235x496;1274=819,25/300:235x496;1275=819,25/299,5:235x496;1276=819,5/299,5:235x496;1277=820/298,75:235x496;1278=820,25/298,5:235x496;1279=820,75/298:235x496;1280=821/297,5:235x496;1281=820,75/296,75:235x496;1282=820,75/295,75:235x496;1283=820,75/294,75:235x496;1284=820,75/292,75:235x496;1285=820,25/291,25:235x496;1286=820,25/290,75:235x496;1287=819,75/289,75:235x496;1288=818,5/288,25:235x496;1289=818/287,75:235x496;1290=818/287:235x496;1291=818/286,5:235x496;1292=817,75/285,75:235x496;1293=818/285,5:235x496;1294=818,25/285:235x496;1295=818/284:235x496;1296=817,75/284:235x496;1297=817,75/284:235x496;1298=817,75/284,5:235x496;1299=817,75/285,167:235x496;1300=817,75/285,833:235x496;1301=817,75/285,833:235x496;1302=817,75/285,833:235x496;1303=817,75/285,833:235x496;1304=817,75/285,833:235x496;1305=817,75/285,833:235x496;1306=817,75/285,833:235x496;1307=817,75/285,833:235x496;1308=817,75/285,833:235x496;1309=817,75/285,833:235x496;1310=817,75/285,833:235x496;1311=817,75/285,833:235x496;1312=817,75/285,833:235x496;1313=817,75/285,833:235x496;1314=817,75/285,833:235x496;1315=817,75/285,833:235x496;1316=817,75/285,833:235x496;1317=817,75/285,833:235x496;1318=817,75/285,833:235x496;1319=817,75/285,833:235x496;1320=817,75/285,833:235x496;1321=817,75/285,833:235x496;1322=817,75/285,833:235x496;1323=817,75/285,833:235x496;1324=817,75/285,833:235x496;1325=817,75/285,833:235x496;1326=817,75/285,833:235x496;1327=817,75/285,833:235x496;1328=817,75/285,833:235x496;1329=817,75/285,833:235x496;1330=817,75/285,833:235x496;1331=817,75/285,833:235x496;1332=817,75/285,833:235x496;1333=817,75/285,833:235x496;1334=817,75/285,833:235x496;1335=817,75/285,833:235x496;1336=817,75/285,833:235x496;1337=817,75/285,833:235x496;1338=817,75/285,833:235x496;1339=817,75/285,833:235x496;1340=817,75/285,833:235x496;1341=817,75/285,833:235x496;1342=817,75/285,833:235x496;1343=811,75/285,833:235x496;1344=805,75/286,833:235x496;1345=799,75/288,833:235x496;1346=799,75/288,833:235x496;1347=799,75/288,833:235x496;1348=799,75/288,833:235x496;1349=793,75/288,833:235x496;1350=793,75/288,833:235x496;1351=793,75/288,833:235x496;1352=790,25/291,583:235x496;1353=786,75/292,583:235x496;1354=784,75/293,583:235x496;1355=780,5/294,583:235x496;1356=778/296,083:235x496;1357=772,5/296,417:235x496;1358=770,5/296,917:235x496;1359=765,214/296,917:235x496;1360=762,214/296,917:235x496;1361=757,714/296,917:235x496;1362=753,214/296,917:235x496;1363=749,214/296,667:235x496;1364=745,214/296,667:235x496;1365=741,214/296,417:235x496;1366=737,464/296,167:235x496;1367=733,464/295,833:235x496;1368=728,214/295,333:235x496;1369=722,214/294,833:235x496;1370=716,214/293,833:235x496;1371=711,464/293,083:235x496;1372=705,964/292,583:235x496;1373=700,714/292,083:235x496;1374=695,881/290,083:235x496;1375=691,281/288,083:235x496;1376=686,681/285,683:235x496;1377=682,681/282,933:235x496;1378=679,281/280,533:235x496;1379=675,281/278,283:235x496;1380=671,881/276,483:235x496;1381=668,714/274,65:235x496;1382=667,314/274,05:235x496;1383=665,564/272,8:235x496;1384=664,964/272,6:235x496;1385=659,464/266,35:235x496;1386=653,464/260,35:235x496;1387=649,464/258,35:235x496;1388=645,464/256,35:235x496;1389=641,464/254,35:235x496;1390=637,464/252,35:235x496;1391=633,464/250,35:235x496;1392=629,464/248,35:235x496;1393=625,464/246,35:235x496;1394=621,464/244,85:235x496;1395=617,214/243,35:235x496;1396=612,464/240,35:235x496;1397=608,464/238,35:235x496;1398=603,964/235,85:235x496;1399=599,298/233,183:235x496;1400=594,923/230,933:235x496;1401=590,423/228,683:235x496;1402=586,089/226,35:235x496;1403=580,946/223,493:235x496;1404=576,089/221,064:235x496;1405=571,232/218,636:235x496;1406=565,232/216,064:235x496;1407=559,518/213,636:235x496;1408=554,518/211,636:235x496;1409=550,518/209,636:235x496;1410=542,518/205,969:235x496;1411=536,518/201,969:235x496;1412=530,518/196,969:235x496;1413=528,518/196,969:235x496;1414=528,518/196,969:235x496;1415=526,518/196,969:235x496;1416=522,018/192,969:235x496;1417=518,351/188,969:235x496;1418=515,685/185,969:235x496;1419=512,685/182,969:235x496;1420=509,685/179,969:235x496;1421=503,185/173,969:235x496;1422=496,685/168,469:235x496;1423=489,685/161,136:235x496;1424=483,185/155,386:235x496;1425=476,851/150,719:235x496;1426=474,851/147,719:235x496;1427=471,851/146,469:235x496;1428=468,251/144,269:235x496;1429=464,251/142,269:235x496;1430=464,251/142,269:235x496;1431=461,251/140,269:235x496;1432=457,251/138,269:235x496;1433=452,251/137,269:235x496;1434=447,251/135,269:235x496;1435=443,251/132,769:235x496;1436=439,251/129,269:235x496;1437=434,501/126,519:235x496;1438=429,501/124,269:235x496;1439=424,001/120,769:235x496;1440=418,751/118,269:235x496;1441=414,001/116,269:235x496;1442=409,751/113,769:235x496;1443=405,001/111,269:235x496;1444=399,251/110,019:235x496;1445=391,751/107,686:235x496;1446=385,876/106,311:235x496;1447=380,448/104,739:235x496;1448=375,281/103,239:235x496;1449=369,281/101,439:235x496;1450=363,114/98,7726:235x496;1451=356,114/94,2726:235x496;1452=349,114/89,7726:235x496;1453=341,114/85,2726:235x496;1454=332,614/80,2726:235x496;1455=325,281/77,6059:235x496;1456=318,281/73,6059:235x496;1457=310,031/68,6059:235x496;1458=301,031/65,6059:235x496;1459=292,281/60,3559:235x496;1460=283,481/57,1559:235x496;1461=274,481/52,4893:235x496;1462=264,052/47,3464:235x496;1463=252,302/42,0964:235x496;1464=242,552/36,5964:235x496;1465=233,802/31,5964:235x496;1466=224,302/26,3464:235x496;1467=214,302/21,5964:235x496;1468=204,552/16,3464:235x496;1469=195,302/11,3464:235x496;1470=186,302/6,34639:235x496;1471=175,552/0,596394:235x496</property>
 </producer>
 <producer title="Anonymous Submission" id="10" in="0" out="2072">
  <property name="length">00:01:26:09</property>
  <property name="eof">pause</property>
  <property name="resource">/media/bordun/Odile/SnapshatAuHarem/etalo/CAM2_2017-11-25_0844_C0012.mov</property>
  <property name="audio_index">2</property>
  <property name="video_index">0</property>
  <property name="mute_on_pause">1</property>
  <property name="mlt_service">avformat-novalidate</property>
  <property name="meta.media.nb_streams">2</property>
  <property name="meta.media.1.stream.type">video</property>
  <property name="meta.media.1.stream.frame_rate">24</property>
  <property name="meta.media.1.stream.sample_aspect_ratio">1</property>
  <property name="meta.media.1.codec.width">1920</property>
  <property name="meta.media.1.codec.height">1080</property>
  <property name="meta.media.1.codec.rotate">0</property>
  <property name="meta.media.1.codec.frame_rate">2400</property>
  <property name="meta.media.1.codec.pix_fmt">yuv422p10le</property>
  <property name="meta.media.1.codec.sample_aspect_ratio">0</property>
  <property name="meta.media.1.codec.colorspace">709</property>
  <property name="meta.media.1.codec.color_trc">1</property>
  <property name="meta.media.1.codec.name">prores</property>
  <property name="meta.media.1.codec.long_name">ProRes</property>
  <property name="meta.media.1.codec.bit_rate">176138321</property>
  <property name="meta.attr.1.stream.creation_time.markup">2017-11-25T08:44:27.000000Z</property>
  <property name="meta.attr.1.stream.language.markup">eng</property>
  <property name="meta.attr.1.stream.handler_name.markup">Apple Alias Data Handler</property>
  <property name="meta.attr.1.stream.encoder.markup">Apple ProRes 422 HQ</property>
  <property name="meta.attr.1.stream.timecode.markup">08:44:27:17</property>
  <property name="meta.media.2.stream.type">audio</property>
  <property name="meta.media.2.codec.sample_fmt">s32</property>
  <property name="meta.media.2.codec.sample_rate">48000</property>
  <property name="meta.media.2.codec.channels">2</property>
  <property name="meta.media.2.codec.name">pcm_s24le</property>
  <property name="meta.media.2.codec.long_name">PCM signed 24-bit little-endian</property>
  <property name="meta.media.2.codec.bit_rate">2304000</property>
  <property name="meta.attr.2.stream.creation_time.markup">2017-11-25T08:44:27.000000Z</property>
  <property name="meta.attr.2.stream.language.markup">eng</property>
  <property name="meta.attr.2.stream.handler_name.markup">Apple Alias Data Handler</property>
  <property name="meta.attr.2.stream.timecode.markup">08:44:27:17</property>
  <property name="meta.attr.com.apple.proapps.manufacturer.markup">Blackmagic Design</property>
  <property name="meta.attr.com.apple.proapps.cameraName.markup">CAM2</property>
  <property name="meta.attr.com.apple.proapps.isGood.markup">0</property>
  <property name="meta.attr.com.apple.proapps.customgamma.markup">com.blackmagic-design.cinemacamera.filmlog</property>
  <property name="meta.attr.com.blackmagic-design.cinemacamera.uuid.markup">18E5E00548F94923B646613A73C01B56</property>
  <property name="meta.attr.creation_time.markup">2017-11-25T08:44:27.000000Z</property>
  <property name="meta.attr.timecode.markup">08:44:27:17</property>
  <property name="seekable">1</property>
  <property name="meta.media.sample_aspect_num">1</property>
  <property name="meta.media.sample_aspect_den">1</property>
  <property name="aspect_ratio">1</property>
  <property name="kdenlive:folderid">-1</property>
  <property name="meta.media.frame_rate_num">24</property>
  <property name="meta.media.frame_rate_den">1</property>
  <property name="meta.media.colorspace">709</property>
  <property name="meta.media.color_trc">1</property>
  <property name="meta.media.width">1920</property>
  <property name="meta.media.height">1080</property>
  <property name="meta.media.top_field_first">0</property>
  <property name="meta.media.progressive">1</property>
  <property name="kdenlive:file_size">1927129345</property>
  <property name="kdenlive:file_hash">d2c6dc1b2eadd62f7d89eaf9839227d5</property>
  <property name="proxy_out">2072</property>
  <property name="kdenlive:originalurl">/media/joris/1TO_RUSHS/_Plagiat/Dimanche_soir/CAM2_2017-11-25_0844_C0012.mov</property>
  <property name="global_feed">1</property>
  <property name="meta.media.0.stream.type">video</property>
  <property name="meta.media.0.stream.frame_rate">24</property>
  <property name="meta.media.0.stream.sample_aspect_ratio">1</property>
  <property name="meta.media.0.codec.width">1920</property>
  <property name="meta.media.0.codec.height">1080</property>
  <property name="meta.media.0.codec.rotate">0</property>
  <property name="meta.media.0.codec.frame_rate">12288</property>
  <property name="meta.media.0.codec.pix_fmt">yuv422p10le</property>
  <property name="meta.media.0.codec.sample_aspect_ratio">0</property>
  <property name="meta.media.0.codec.colorspace">709</property>
  <property name="meta.media.0.codec.color_trc">1</property>
  <property name="meta.media.0.codec.name">dnxhd</property>
  <property name="meta.media.0.codec.long_name">VC3/DNxHD</property>
  <property name="meta.media.0.codec.bit_rate">176160768</property>
  <property name="meta.attr.0.stream.language.markup">eng</property>
  <property name="meta.attr.0.stream.handler_name.markup">Core Media Data Handler</property>
  <property name="meta.attr.0.stream.timecode.markup">08:44:27:17</property>
  <property name="meta.attr.major_brand.markup">qt  </property>
  <property name="meta.attr.minor_version.markup">512</property>
  <property name="meta.attr.compatible_brands.markup">qt  </property>
  <property name="meta.attr.encoder.markup">Lavf57.25.100</property>
 </producer>
 <producer title="Anonymous Submission" id="11" in="0" out="2299">
  <property name="length">00:01:35:20</property>
  <property name="eof">pause</property>
  <property name="resource">/media/bordun/Odile/SnapshatAuHarem/etalo/CAM2_2017-11-25_0847_C0013.mov</property>
  <property name="audio_index">2</property>
  <property name="video_index">0</property>
  <property name="mute_on_pause">1</property>
  <property name="mlt_service">avformat-novalidate</property>
  <property name="meta.media.nb_streams">2</property>
  <property name="meta.media.1.stream.type">video</property>
  <property name="meta.media.1.stream.frame_rate">24</property>
  <property name="meta.media.1.stream.sample_aspect_ratio">1</property>
  <property name="meta.media.1.codec.width">1920</property>
  <property name="meta.media.1.codec.height">1080</property>
  <property name="meta.media.1.codec.rotate">0</property>
  <property name="meta.media.1.codec.frame_rate">2400</property>
  <property name="meta.media.1.codec.pix_fmt">yuv422p10le</property>
  <property name="meta.media.1.codec.sample_aspect_ratio">0</property>
  <property name="meta.media.1.codec.colorspace">709</property>
  <property name="meta.media.1.codec.color_trc">1</property>
  <property name="meta.media.1.codec.name">prores</property>
  <property name="meta.media.1.codec.long_name">ProRes</property>
  <property name="meta.media.1.codec.bit_rate">176138616</property>
  <property name="meta.attr.1.stream.creation_time.markup">2017-11-25T08:47:46.000000Z</property>
  <property name="meta.attr.1.stream.language.markup">eng</property>
  <property name="meta.attr.1.stream.handler_name.markup">Apple Alias Data Handler</property>
  <property name="meta.attr.1.stream.encoder.markup">Apple ProRes 422 HQ</property>
  <property name="meta.attr.1.stream.timecode.markup">08:47:46:22</property>
  <property name="meta.media.2.stream.type">audio</property>
  <property name="meta.media.2.codec.sample_fmt">s32</property>
  <property name="meta.media.2.codec.sample_rate">48000</property>
  <property name="meta.media.2.codec.channels">2</property>
  <property name="meta.media.2.codec.name">pcm_s24le</property>
  <property name="meta.media.2.codec.long_name">PCM signed 24-bit little-endian</property>
  <property name="meta.media.2.codec.bit_rate">2304000</property>
  <property name="meta.attr.2.stream.creation_time.markup">2017-11-25T08:47:46.000000Z</property>
  <property name="meta.attr.2.stream.language.markup">eng</property>
  <property name="meta.attr.2.stream.handler_name.markup">Apple Alias Data Handler</property>
  <property name="meta.attr.2.stream.timecode.markup">08:47:46:22</property>
  <property name="meta.attr.com.apple.proapps.manufacturer.markup">Blackmagic Design</property>
  <property name="meta.attr.com.apple.proapps.cameraName.markup">CAM2</property>
  <property name="meta.attr.com.apple.proapps.isGood.markup">0</property>
  <property name="meta.attr.com.apple.proapps.customgamma.markup">com.blackmagic-design.cinemacamera.filmlog</property>
  <property name="meta.attr.com.blackmagic-design.cinemacamera.uuid.markup">18E5E00548F94923B646613A73C01B56</property>
  <property name="meta.attr.creation_time.markup">2017-11-25T08:47:46.000000Z</property>
  <property name="meta.attr.timecode.markup">08:47:46:22</property>
  <property name="seekable">1</property>
  <property name="meta.media.sample_aspect_num">1</property>
  <property name="meta.media.sample_aspect_den">1</property>
  <property name="aspect_ratio">1</property>
  <property name="kdenlive:folderid">-1</property>
  <property name="meta.media.frame_rate_num">24</property>
  <property name="meta.media.frame_rate_den">1</property>
  <property name="meta.media.colorspace">709</property>
  <property name="meta.media.color_trc">1</property>
  <property name="meta.media.width">1920</property>
  <property name="meta.media.height">1080</property>
  <property name="meta.media.top_field_first">0</property>
  <property name="meta.media.progressive">1</property>
  <property name="kdenlive:file_size">2138152777</property>
  <property name="kdenlive:file_hash">a0a40ba05c1c0c852ecb5506561dec13</property>
  <property name="proxy_out">2299</property>
  <property name="kdenlive:originalurl">/media/joris/1TO_RUSHS/_Plagiat/Dimanche_soir/CAM2_2017-11-25_0847_C0013.mov</property>
  <property name="global_feed">1</property>
  <property name="meta.media.0.stream.type">video</property>
  <property name="meta.media.0.stream.frame_rate">24</property>
  <property name="meta.media.0.stream.sample_aspect_ratio">1</property>
  <property name="meta.media.0.codec.width">1920</property>
  <property name="meta.media.0.codec.height">1080</property>
  <property name="meta.media.0.codec.rotate">0</property>
  <property name="meta.media.0.codec.frame_rate">12288</property>
  <property name="meta.media.0.codec.pix_fmt">yuv422p10le</property>
  <property name="meta.media.0.codec.sample_aspect_ratio">0</property>
  <property name="meta.media.0.codec.colorspace">709</property>
  <property name="meta.media.0.codec.color_trc">1</property>
  <property name="meta.media.0.codec.name">dnxhd</property>
  <property name="meta.media.0.codec.long_name">VC3/DNxHD</property>
  <property name="meta.media.0.codec.bit_rate">176160768</property>
  <property name="meta.attr.0.stream.language.markup">eng</property>
  <property name="meta.attr.0.stream.handler_name.markup">Core Media Data Handler</property>
  <property name="meta.attr.0.stream.timecode.markup">08:47:46:22</property>
  <property name="meta.attr.major_brand.markup">qt  </property>
  <property name="meta.attr.minor_version.markup">512</property>
  <property name="meta.attr.compatible_brands.markup">qt  </property>
  <property name="meta.attr.encoder.markup">Lavf57.25.100</property>
 </producer>
 <producer title="Anonymous Submission" id="12" in="0" out="2260">
  <property name="length">00:01:34:05</property>
  <property name="eof">pause</property>
  <property name="resource">/media/bordun/Odile/SnapshatAuHarem/etalo/CAM2_2017-11-25_0850_C0014.mov</property>
  <property name="audio_index">2</property>
  <property name="video_index">0</property>
  <property name="mute_on_pause">1</property>
  <property name="mlt_service">avformat-novalidate</property>
  <property name="meta.media.nb_streams">2</property>
  <property name="meta.media.1.stream.type">video</property>
  <property name="meta.media.1.stream.frame_rate">24</property>
  <property name="meta.media.1.stream.sample_aspect_ratio">1</property>
  <property name="meta.media.1.codec.width">1920</property>
  <property name="meta.media.1.codec.height">1080</property>
  <property name="meta.media.1.codec.rotate">0</property>
  <property name="meta.media.1.codec.frame_rate">2400</property>
  <property name="meta.media.1.codec.pix_fmt">yuv422p10le</property>
  <property name="meta.media.1.codec.sample_aspect_ratio">0</property>
  <property name="meta.media.1.codec.colorspace">709</property>
  <property name="meta.media.1.codec.color_trc">1</property>
  <property name="meta.media.1.codec.name">prores</property>
  <property name="meta.media.1.codec.long_name">ProRes</property>
  <property name="meta.media.1.codec.bit_rate">176138333</property>
  <property name="meta.attr.1.stream.creation_time.markup">2017-11-25T08:50:03.000000Z</property>
  <property name="meta.attr.1.stream.language.markup">eng</property>
  <property name="meta.attr.1.stream.handler_name.markup">Apple Alias Data Handler</property>
  <property name="meta.attr.1.stream.encoder.markup">Apple ProRes 422 HQ</property>
  <property name="meta.attr.1.stream.timecode.markup">08:50:03:05</property>
  <property name="meta.media.2.stream.type">audio</property>
  <property name="meta.media.2.codec.sample_fmt">s32</property>
  <property name="meta.media.2.codec.sample_rate">48000</property>
  <property name="meta.media.2.codec.channels">2</property>
  <property name="meta.media.2.codec.name">pcm_s24le</property>
  <property name="meta.media.2.codec.long_name">PCM signed 24-bit little-endian</property>
  <property name="meta.media.2.codec.bit_rate">2304000</property>
  <property name="meta.attr.2.stream.creation_time.markup">2017-11-25T08:50:03.000000Z</property>
  <property name="meta.attr.2.stream.language.markup">eng</property>
  <property name="meta.attr.2.stream.handler_name.markup">Apple Alias Data Handler</property>
  <property name="meta.attr.2.stream.timecode.markup">08:50:03:05</property>
  <property name="meta.attr.com.apple.proapps.manufacturer.markup">Blackmagic Design</property>
  <property name="meta.attr.com.apple.proapps.cameraName.markup">CAM2</property>
  <property name="meta.attr.com.apple.proapps.isGood.markup">0</property>
  <property name="meta.attr.com.apple.proapps.customgamma.markup">com.blackmagic-design.cinemacamera.filmlog</property>
  <property name="meta.attr.com.blackmagic-design.cinemacamera.uuid.markup">18E5E00548F94923B646613A73C01B56</property>
  <property name="meta.attr.creation_time.markup">2017-11-25T08:50:03.000000Z</property>
  <property name="meta.attr.timecode.markup">08:50:03:05</property>
  <property name="seekable">1</property>
  <property name="meta.media.sample_aspect_num">1</property>
  <property name="meta.media.sample_aspect_den">1</property>
  <property name="aspect_ratio">1</property>
  <property name="kdenlive:folderid">-1</property>
  <property name="meta.media.frame_rate_num">24</property>
  <property name="meta.media.frame_rate_den">1</property>
  <property name="meta.media.colorspace">709</property>
  <property name="meta.media.color_trc">1</property>
  <property name="meta.media.width">1920</property>
  <property name="meta.media.height">1080</property>
  <property name="meta.media.top_field_first">0</property>
  <property name="meta.media.progressive">1</property>
  <property name="kdenlive:file_size">2101898049</property>
  <property name="kdenlive:file_hash">f9107726803d489f8ec240dffe5f2a08</property>
  <property name="proxy_out">2260</property>
  <property name="kdenlive:originalurl">/media/joris/1TO_RUSHS/_Plagiat/Dimanche_soir/CAM2_2017-11-25_0850_C0014.mov</property>
  <property name="global_feed">1</property>
  <property name="meta.media.0.stream.type">video</property>
  <property name="meta.media.0.stream.frame_rate">24</property>
  <property name="meta.media.0.stream.sample_aspect_ratio">1</property>
  <property name="meta.media.0.codec.width">1920</property>
  <property name="meta.media.0.codec.height">1080</property>
  <property name="meta.media.0.codec.rotate">0</property>
  <property name="meta.media.0.codec.frame_rate">12288</property>
  <property name="meta.media.0.codec.pix_fmt">yuv422p10le</property>
  <property name="meta.media.0.codec.sample_aspect_ratio">0</property>
  <property name="meta.media.0.codec.colorspace">709</property>
  <property name="meta.media.0.codec.color_trc">1</property>
  <property name="meta.media.0.codec.name">dnxhd</property>
  <property name="meta.media.0.codec.long_name">VC3/DNxHD</property>
  <property name="meta.media.0.codec.bit_rate">176160768</property>
  <property name="meta.attr.0.stream.language.markup">eng</property>
  <property name="meta.attr.0.stream.handler_name.markup">Core Media Data Handler</property>
  <property name="meta.attr.0.stream.timecode.markup">08:50:03:05</property>
  <property name="meta.attr.major_brand.markup">qt  </property>
  <property name="meta.attr.minor_version.markup">512</property>
  <property name="meta.attr.compatible_brands.markup">qt  </property>
  <property name="meta.attr.encoder.markup">Lavf57.25.100</property>
 </producer>
 <producer title="Anonymous Submission" id="13" in="0" out="8136">
  <property name="length">00:05:39:01</property>
  <property name="eof">pause</property>
  <property name="resource">/media/bordun/Odile/SnapshatAuHarem/etalo/CAM2_2017-11-25_0904_C0015.mov</property>
  <property name="audio_index">2</property>
  <property name="video_index">0</property>
  <property name="mute_on_pause">1</property>
  <property name="mlt_service">avformat-novalidate</property>
  <property name="meta.media.nb_streams">2</property>
  <property name="meta.media.1.stream.type">video</property>
  <property name="meta.media.1.stream.frame_rate">24</property>
  <property name="meta.media.1.stream.sample_aspect_ratio">1</property>
  <property name="meta.media.1.codec.width">1920</property>
  <property name="meta.media.1.codec.height">1080</property>
  <property name="meta.media.1.codec.rotate">0</property>
  <property name="meta.media.1.codec.frame_rate">2400</property>
  <property name="meta.media.1.codec.pix_fmt">yuv422p10le</property>
  <property name="meta.media.1.codec.sample_aspect_ratio">0</property>
  <property name="meta.media.1.codec.colorspace">709</property>
  <property name="meta.media.1.codec.color_trc">1</property>
  <property name="meta.media.1.codec.name">prores</property>
  <property name="meta.media.1.codec.long_name">ProRes</property>
  <property name="meta.media.1.codec.bit_rate">176138876</property>
  <property name="meta.attr.1.stream.creation_time.markup">2017-11-25T09:04:57.000000Z</property>
  <property name="meta.attr.1.stream.language.markup">eng</property>
  <property name="meta.attr.1.stream.handler_name.markup">Apple Alias Data Handler</property>
  <property name="meta.attr.1.stream.encoder.markup">Apple ProRes 422 HQ</property>
  <property name="meta.attr.1.stream.timecode.markup">09:04:57:06</property>
  <property name="meta.media.2.stream.type">audio</property>
  <property name="meta.media.2.codec.sample_fmt">s32</property>
  <property name="meta.media.2.codec.sample_rate">48000</property>
  <property name="meta.media.2.codec.channels">2</property>
  <property name="meta.media.2.codec.name">pcm_s24le</property>
  <property name="meta.media.2.codec.long_name">PCM signed 24-bit little-endian</property>
  <property name="meta.media.2.codec.bit_rate">2304000</property>
  <property name="meta.attr.2.stream.creation_time.markup">2017-11-25T09:04:57.000000Z</property>
  <property name="meta.attr.2.stream.language.markup">eng</property>
  <property name="meta.attr.2.stream.handler_name.markup">Apple Alias Data Handler</property>
  <property name="meta.attr.2.stream.timecode.markup">09:04:57:06</property>
  <property name="meta.attr.com.apple.proapps.manufacturer.markup">Blackmagic Design</property>
  <property name="meta.attr.com.apple.proapps.cameraName.markup">CAM2</property>
  <property name="meta.attr.com.apple.proapps.isGood.markup">0</property>
  <property name="meta.attr.com.apple.proapps.customgamma.markup">com.blackmagic-design.cinemacamera.filmlog</property>
  <property name="meta.attr.com.blackmagic-design.cinemacamera.uuid.markup">18E5E00548F94923B646613A73C01B56</property>
  <property name="meta.attr.creation_time.markup">2017-11-25T09:04:57.000000Z</property>
  <property name="meta.attr.timecode.markup">09:04:57:06</property>
  <property name="seekable">1</property>
  <property name="meta.media.sample_aspect_num">1</property>
  <property name="meta.media.sample_aspect_den">1</property>
  <property name="aspect_ratio">1</property>
  <property name="kdenlive:folderid">-1</property>
  <property name="meta.media.frame_rate_num">24</property>
  <property name="meta.media.frame_rate_den">1</property>
  <property name="meta.media.colorspace">709</property>
  <property name="meta.media.color_trc">1</property>
  <property name="meta.media.width">1920</property>
  <property name="meta.media.height">1080</property>
  <property name="meta.media.top_field_first">0</property>
  <property name="meta.media.progressive">1</property>
  <property name="kdenlive:file_size">7564389609</property>
  <property name="kdenlive:file_hash">260f4d967ff432f80e7391eb6465c3fd</property>
  <property name="proxy_out">8136</property>
  <property name="kdenlive:originalurl">/media/joris/1TO_RUSHS/_Plagiat/Dimanche_soir/CAM2_2017-11-25_0904_C0015.mov</property>
  <property name="meta.media.0.stream.type">video</property>
  <property name="meta.media.0.stream.frame_rate">24</property>
  <property name="meta.media.0.stream.sample_aspect_ratio">1</property>
  <property name="meta.media.0.codec.width">1920</property>
  <property name="meta.media.0.codec.height">1080</property>
  <property name="meta.media.0.codec.rotate">0</property>
  <property name="meta.media.0.codec.frame_rate">12288</property>
  <property name="meta.media.0.codec.pix_fmt">yuv422p10le</property>
  <property name="meta.media.0.codec.sample_aspect_ratio">0</property>
  <property name="meta.media.0.codec.colorspace">709</property>
  <property name="meta.media.0.codec.color_trc">1</property>
  <property name="meta.media.0.codec.name">dnxhd</property>
  <property name="meta.media.0.codec.long_name">VC3/DNxHD</property>
  <property name="meta.media.0.codec.bit_rate">176160768</property>
  <property name="meta.attr.0.stream.language.markup">eng</property>
  <property name="meta.attr.0.stream.handler_name.markup">Core Media Data Handler</property>
  <property name="meta.attr.0.stream.timecode.markup">09:04:57:06</property>
  <property name="meta.attr.major_brand.markup">qt  </property>
  <property name="meta.attr.minor_version.markup">512</property>
  <property name="meta.attr.compatible_brands.markup">qt  </property>
  <property name="meta.attr.encoder.markup">Lavf57.25.100</property>
  <property name="global_feed">1</property>
 </producer>
 <producer title="Anonymous Submission" id="14" in="0" out="2881">
  <property name="length">00:02:00:02</property>
  <property name="eof">pause</property>
  <property name="resource">/media/bordun/Odile/SnapshatAuHarem/etalo/CAM2_2017-11-25_0941_C0001.mov</property>
  <property name="audio_index">2</property>
  <property name="video_index">0</property>
  <property name="mute_on_pause">1</property>
  <property name="mlt_service">avformat-novalidate</property>
  <property name="meta.media.nb_streams">2</property>
  <property name="meta.media.1.stream.type">video</property>
  <property name="meta.media.1.stream.frame_rate">60</property>
  <property name="meta.media.1.stream.sample_aspect_ratio">1</property>
  <property name="meta.media.1.codec.width">1920</property>
  <property name="meta.media.1.codec.height">1080</property>
  <property name="meta.media.1.codec.rotate">0</property>
  <property name="meta.media.1.codec.frame_rate">6000</property>
  <property name="meta.media.1.codec.pix_fmt">yuv422p10le</property>
  <property name="meta.media.1.codec.sample_aspect_ratio">0</property>
  <property name="meta.media.1.codec.colorspace">709</property>
  <property name="meta.media.1.codec.color_trc">1</property>
  <property name="meta.media.1.codec.name">prores</property>
  <property name="meta.media.1.codec.long_name">ProRes</property>
  <property name="meta.media.1.codec.bit_rate">440346156</property>
  <property name="meta.attr.1.stream.creation_time.markup">2017-11-25T09:41:37.000000Z</property>
  <property name="meta.attr.1.stream.language.markup">eng</property>
  <property name="meta.attr.1.stream.handler_name.markup">Apple Alias Data Handler</property>
  <property name="meta.attr.1.stream.encoder.markup">Apple ProRes 422 HQ</property>
  <property name="meta.attr.1.stream.timecode.markup">09:41:37:09</property>
  <property name="meta.media.2.stream.type">audio</property>
  <property name="meta.media.2.codec.sample_fmt">s32</property>
  <property name="meta.media.2.codec.sample_rate">48000</property>
  <property name="meta.media.2.codec.channels">2</property>
  <property name="meta.media.2.codec.name">pcm_s24le</property>
  <property name="meta.media.2.codec.long_name">PCM signed 24-bit little-endian</property>
  <property name="meta.media.2.codec.bit_rate">2304000</property>
  <property name="meta.attr.2.stream.creation_time.markup">2017-11-25T09:41:37.000000Z</property>
  <property name="meta.attr.2.stream.language.markup">eng</property>
  <property name="meta.attr.2.stream.handler_name.markup">Apple Alias Data Handler</property>
  <property name="meta.attr.2.stream.timecode.markup">09:41:37:09</property>
  <property name="meta.attr.com.apple.proapps.manufacturer.markup">Blackmagic Design</property>
  <property name="meta.attr.com.apple.proapps.cameraName.markup">CAM2</property>
  <property name="meta.attr.com.apple.proapps.isGood.markup">0</property>
  <property name="meta.attr.com.apple.proapps.customgamma.markup">com.blackmagic-design.cinemacamera.filmlog</property>
  <property name="meta.attr.com.blackmagic-design.cinemacamera.uuid.markup">18E5E00548F94923B646613A73C01B56</property>
  <property name="meta.attr.creation_time.markup">2017-11-25T09:41:37.000000Z</property>
  <property name="meta.attr.timecode.markup">09:41:37:09</property>
  <property name="seekable">1</property>
  <property name="meta.media.sample_aspect_num">1</property>
  <property name="meta.media.sample_aspect_den">1</property>
  <property name="aspect_ratio">1</property>
  <property name="kdenlive:folderid">-1</property>
  <property name="meta.media.frame_rate_num">60</property>
  <property name="meta.media.frame_rate_den">1</property>
  <property name="meta.media.colorspace">709</property>
  <property name="meta.media.color_trc">1</property>
  <property name="meta.media.width">1920</property>
  <property name="meta.media.height">1080</property>
  <property name="meta.media.top_field_first">0</property>
  <property name="meta.media.progressive">1</property>
  <property name="kdenlive:file_size">6646002705</property>
  <property name="kdenlive:file_hash">f22de9cde004f4cdccd2392a6b8453e7</property>
  <property name="proxy_out">2881</property>
  <property name="kdenlive:originalurl">/media/joris/1TO_RUSHS/_Plagiat/Dimanche_soir/CAM2_2017-11-25_0941_C0001.mov</property>
  <property name="global_feed">1</property>
  <property name="meta.media.0.stream.type">video</property>
  <property name="meta.media.0.stream.frame_rate">60</property>
  <property name="meta.media.0.stream.sample_aspect_ratio">1</property>
  <property name="meta.media.0.codec.width">1920</property>
  <property name="meta.media.0.codec.height">1080</property>
  <property name="meta.media.0.codec.rotate">0</property>
  <property name="meta.media.0.codec.frame_rate">15360</property>
  <property name="meta.media.0.codec.pix_fmt">yuv422p10le</property>
  <property name="meta.media.0.codec.sample_aspect_ratio">0</property>
  <property name="meta.media.0.codec.colorspace">709</property>
  <property name="meta.media.0.codec.color_trc">1</property>
  <property name="meta.media.0.codec.name">dnxhd</property>
  <property name="meta.media.0.codec.long_name">VC3/DNxHD</property>
  <property name="meta.media.0.codec.bit_rate">440401920</property>
  <property name="meta.attr.0.stream.language.markup">eng</property>
  <property name="meta.attr.0.stream.handler_name.markup">Core Media Data Handler</property>
  <property name="meta.attr.0.stream.timecode.markup">09:41:37:09</property>
  <property name="meta.attr.major_brand.markup">qt  </property>
  <property name="meta.attr.minor_version.markup">512</property>
  <property name="meta.attr.compatible_brands.markup">qt  </property>
  <property name="meta.attr.encoder.markup">Lavf57.25.100</property>
  <property name="kdenlive:zone_in">705</property>
  <property name="kdenlive:zone_out">707</property>
  <filter id="frei0r.sigmoidaltransfer">
   <property name="version">0,9</property>
   <property name="mlt_service">frei0r.sigmoidaltransfer</property>
   <property name="kdenlive_id">frei0r.sigmoidaltransfer</property>
   <property name="tag">frei0r.sigmoidaltransfer</property>
   <property name="kdenlive_ix">1</property>
   <property name="kdenlive_info"/>
   <property name="0">1</property>
   <property name="1">0,3</property>
   <property name="disable">0</property>
  </filter>
 </producer>
 <producer title="Anonymous Submission" id="15" in="0" out="837">
  <property name="length">838</property>
  <property name="eof">pause</property>
  <property name="resource">0x000000ff</property>
  <property name="aspect_ratio">1</property>
  <property name="mlt_service">color</property>
  <property name="kdenlive:clipname">Color Clip</property>
  <property name="kdenlive:folderid">-1</property>
  <property name="kdenlive:duration">120</property>
  <property name="kdenlive:file_hash">9196813120dc5c505072516b15baf414</property>
  <property name="global_feed">1</property>
 </producer>
 <producer title="Anonymous Submission" id="23" in="0" out="336">
  <property name="length">337</property>
  <property name="eof">pause</property>
  <property name="resource">0x000000ff</property>
  <property name="aspect_ratio">1</property>
  <property name="mlt_service">color</property>
  <property name="kdenlive:clipname">Color Clip</property>
  <property name="kdenlive:folderid">-1</property>
  <property name="kdenlive:duration">120</property>
  <property name="kdenlive:file_hash">9196813120dc5c505072516b15baf414</property>
  <property name="global_feed">1</property>
 </producer>
 <producer title="Anonymous Submission" id="29" in="0" out="197">
  <property name="length">198</property>
  <property name="eof">pause</property>
  <property name="resource"/>
  <property name="progressive">1</property>
  <property name="aspect_ratio">1</property>
  <property name="seekable">1</property>
  <property name="mlt_service">kdenlivetitle</property>
  <property name="kdenlive:clipname">plagia</property>
  <property name="kdenlive:folderid">3</property>
  <property name="xmldata">&lt;kdenlivetitle width="1920" duration="120" out="120" height="1080" LC_NUMERIC="fr_FR.UTF-8">
 &lt;item z-index="0" type="QGraphicsTextItem">
  &lt;position x="188" y="120">
   &lt;transform>1,0,0,0,1,0,0,0,1&lt;/transform>
  &lt;/position>
  &lt;content font-italic="0" letter-spacing="0" font-weight="63" box-height="35" font-outline-color="0,0,0,255" shadow="0;#64000000;3;3;3" font="FreeMono" font-underline="0" font-outline="0" font-pixel-size="35" line-spacing="0" box-width="168" font-color="255,255,255,255" alignment="1">[plaʒia]&lt;/content>
 &lt;/item>
 &lt;startviewport rect="0,0,1920,1080"/>
 &lt;endviewport rect="0,0,1920,1080"/>
 &lt;background color="0,0,0,255"/>
&lt;/kdenlivetitle>
</property>
  <property name="kdenlive:duration">120</property>
  <property name="force_reload">0</property>
  <property name="meta.media.width">1920</property>
  <property name="meta.media.height">1080</property>
  <property name="kdenlive:file_hash">e14a7c7ba2f913e918a7dab043832b2e</property>
  <property name="global_feed">1</property>
 </producer>
 <producer title="Anonymous Submission" id="31" in="0" out="175">
  <property name="length">176</property>
  <property name="eof">pause</property>
  <property name="resource"/>
  <property name="progressive">1</property>
  <property name="aspect_ratio">1</property>
  <property name="seekable">1</property>
  <property name="mlt_service">kdenlivetitle</property>
  <property name="kdenlive:clipname">snapchat</property>
  <property name="kdenlive:folderid">3</property>
  <property name="xmldata">&lt;kdenlivetitle width="1920" duration="120" out="120" height="1080" LC_NUMERIC="fr_FR.UTF-8">
 &lt;item z-index="0" type="QGraphicsTextItem">
  &lt;position x="1402" y="920">
   &lt;transform>1,0,0,0,1,0,0,0,1&lt;/transform>
  &lt;/position>
  &lt;content font-italic="0" letter-spacing="0" font-weight="63" box-height="35" font-outline-color="0,0,0,255" shadow="0;#64000000;3;3;3" font="FreeMono" font-underline="0" font-outline="0" font-pixel-size="35" line-spacing="0" box-width="358" font-color="255,255,255,255" alignment="1">snapchat au harem&lt;/content>
 &lt;/item>
 &lt;startviewport rect="0,0,1920,1080"/>
 &lt;endviewport rect="0,0,1920,1080"/>
 &lt;background color="0,0,0,255"/>
&lt;/kdenlivetitle>
</property>
  <property name="kdenlive:duration">120</property>
  <property name="force_reload">0</property>
  <property name="kdenlive:file_hash">a16f71136ee403729d675799df5955b1</property>
  <property name="global_feed">1</property>
  <property name="meta.media.width">1920</property>
  <property name="meta.media.height">1080</property>
 </producer>
 <producer title="Anonymous Submission" id="22" in="0" out="535">
  <property name="length">536</property>
  <property name="eof">pause</property>
  <property name="resource">0xffffffff</property>
  <property name="aspect_ratio">1</property>
  <property name="mlt_service">color</property>
  <property name="kdenlive:clipname">Color Clip</property>
  <property name="kdenlive:folderid">-1</property>
  <property name="kdenlive:duration">120</property>
  <property name="kdenlive:file_hash">039b56a692cd66eefeea44a17539e5a2</property>
  <property name="global_feed">1</property>
 </producer>
 <producer id="49" in="0" out="119">
  <property name="length">120</property>
  <property name="eof">pause</property>
  <property name="resource">/home/bordun/Clip01_SnapshatAuHarem/Logos/Ammd/ammd_newlogo.png</property>
  <property name="ttl">25</property>
  <property name="aspect_ratio">1</property>
  <property name="progressive">1</property>
  <property name="seekable">1</property>
  <property name="meta.media.width">2480</property>
  <property name="meta.media.height">1181</property>
  <property name="mlt_service">qimage</property>
  <property name="kdenlive:duration">120</property>
  <property name="kdenlive:file_size">48958</property>
  <property name="kdenlive:file_hash">f4d823415406f40ede1c5199de7da37e</property>
  <property name="kdenlive:folderid">1</property>
 </producer>
 <producer id="50" in="0" out="179">
  <property name="length">180</property>
  <property name="eof">pause</property>
  <property name="resource">/home/bordun/Clip01_SnapshatAuHarem/Logos/Ammd/2d_payes.png</property>
  <property name="ttl">25</property>
  <property name="aspect_ratio">1</property>
  <property name="progressive">1</property>
  <property name="seekable">1</property>
  <property name="meta.media.width">2480</property>
  <property name="meta.media.height">1181</property>
  <property name="mlt_service">qimage</property>
  <property name="kdenlive:duration">120</property>
  <property name="kdenlive:file_size">37474</property>
  <property name="kdenlive:file_hash">be745f1f1bcb205d0478f6201f0338a3</property>
  <property name="kdenlive:folderid">1</property>
 </producer>
 <producer id="51" in="0" out="154">
  <property name="length">155</property>
  <property name="eof">pause</property>
  <property name="resource">/home/bordun/Clip01_SnapshatAuHarem/Logos/Ammd/smp.png</property>
  <property name="ttl">25</property>
  <property name="aspect_ratio">1</property>
  <property name="progressive">1</property>
  <property name="seekable">1</property>
  <property name="meta.media.width">2480</property>
  <property name="meta.media.height">1181</property>
  <property name="mlt_service">qimage</property>
  <property name="kdenlive:duration">120</property>
  <property name="kdenlive:file_size">50895</property>
  <property name="kdenlive:file_hash">877342a497a871719739f75ff92def66</property>
  <property name="kdenlive:folderid">1</property>
 </producer>
 <producer id="52" in="0" out="144">
  <property name="length">145</property>
  <property name="eof">pause</property>
  <property name="resource">/home/bordun/Clip01_SnapshatAuHarem/Logos/Ammd/plagiat.png</property>
  <property name="ttl">25</property>
  <property name="aspect_ratio">1</property>
  <property name="progressive">1</property>
  <property name="seekable">1</property>
  <property name="meta.media.width">2480</property>
  <property name="meta.media.height">1181</property>
  <property name="mlt_service">qimage</property>
  <property name="kdenlive:duration">120</property>
  <property name="kdenlive:file_size">108541</property>
  <property name="kdenlive:file_hash">0eae1d0c29d1258db7db04a63a14fd58</property>
  <property name="kdenlive:folderid">1</property>
 </producer>
 <producer id="53" in="0" out="123">
  <property name="length">124</property>
  <property name="eof">pause</property>
  <property name="resource">/home/bordun/Clip01_SnapshatAuHarem/Logos/Ammd/2d_payes_sansfaute.png</property>
  <property name="ttl">25</property>
  <property name="aspect_ratio">1</property>
  <property name="progressive">1</property>
  <property name="seekable">1</property>
  <property name="meta.media.width">2480</property>
  <property name="meta.media.height">1181</property>
  <property name="mlt_service">qimage</property>
  <property name="kdenlive:duration">120</property>
  <property name="kdenlive:file_size">38849</property>
  <property name="kdenlive:file_hash">dfdc05463768160217a0aae8ff15849b</property>
  <property name="kdenlive:folderid">1</property>
 </producer>
 <producer title="Anonymous Submission" id="47" in="0" out="556">
  <property name="length">557</property>
  <property name="eof">pause</property>
  <property name="resource">/home/bordun/Clip01_SnapshatAuHarem/title-missy.png</property>
  <property name="ttl">25</property>
  <property name="aspect_ratio">1</property>
  <property name="progressive">1</property>
  <property name="seekable">1</property>
  <property name="meta.media.width">1920</property>
  <property name="meta.media.height">1080</property>
  <property name="mlt_service">qimage</property>
  <property name="kdenlive:duration">120</property>
  <property name="kdenlive:file_size">158108</property>
  <property name="kdenlive:file_hash">71974637abd28fa4c626eb3968f657b8</property>
  <property name="global_feed">1</property>
  <property name="kdenlive:folderid">2</property>
 </producer>
 <producer title="Anonymous Submission" id="58" in="0" out="287">
  <property name="length">00:00:12:00</property>
  <property name="eof">pause</property>
  <property name="resource">/home/bordun/Clip01_SnapshatAuHarem/title.mkv</property>
  <property name="audio_index">1</property>
  <property name="video_index">0</property>
  <property name="mute_on_pause">1</property>
  <property name="mlt_service">avformat-novalidate</property>
  <property name="meta.media.nb_streams">2</property>
  <property name="meta.media.0.stream.type">video</property>
  <property name="meta.media.0.stream.frame_rate">24</property>
  <property name="meta.media.0.stream.sample_aspect_ratio">1</property>
  <property name="meta.media.0.codec.width">1920</property>
  <property name="meta.media.0.codec.height">1080</property>
  <property name="meta.media.0.codec.rotate">0</property>
  <property name="meta.media.0.codec.frame_rate">1000</property>
  <property name="meta.media.0.codec.pix_fmt">yuv422p</property>
  <property name="meta.media.0.codec.sample_aspect_ratio">0</property>
  <property name="meta.media.0.codec.colorspace">709</property>
  <property name="meta.media.0.codec.color_trc">1</property>
  <property name="meta.media.0.codec.name">ffv1</property>
  <property name="meta.media.0.codec.long_name">FFmpeg video codec #1</property>
  <property name="meta.media.0.codec.bit_rate">0</property>
  <property name="meta.attr.0.stream.DURATION.markup">00:00:12,000000000</property>
  <property name="meta.media.1.stream.type">audio</property>
  <property name="meta.media.1.codec.sample_fmt">s16</property>
  <property name="meta.media.1.codec.sample_rate">48000</property>
  <property name="meta.media.1.codec.channels">2</property>
  <property name="meta.media.1.codec.name">flac</property>
  <property name="meta.media.1.codec.long_name">FLAC (Free Lossless Audio Codec)</property>
  <property name="meta.media.1.codec.bit_rate">0</property>
  <property name="meta.attr.1.stream.DURATION.markup">00:00:12,000000000</property>
  <property name="meta.attr.ENCODER.markup">Lavf58.12.100</property>
  <property name="seekable">1</property>
  <property name="meta.media.sample_aspect_num">1</property>
  <property name="meta.media.sample_aspect_den">1</property>
  <property name="aspect_ratio">1</property>
  <property name="kdenlive:file_size">32744973</property>
  <property name="kdenlive:file_hash">a0c8350e5a6086af344aa29c2e25823c</property>
  <property name="global_feed">1</property>
  <property name="meta.media.frame_rate_num">24</property>
  <property name="meta.media.frame_rate_den">1</property>
  <property name="meta.media.colorspace">709</property>
  <property name="meta.media.color_trc">1</property>
  <property name="meta.media.width">1920</property>
  <property name="meta.media.height">1080</property>
  <property name="meta.media.top_field_first">0</property>
  <property name="meta.media.progressive">1</property>
  <property name="kdenlive:folderid">2</property>
  <filter id="pan_zoom" out="287">
   <property name="background">colour:0x00000000</property>
   <property name="mlt_service">affine</property>
   <property name="kdenlive_id">pan_zoom</property>
   <property name="tag">affine</property>
   <property name="kdenlive_ix">1</property>
   <property name="kdenlive:sync_in_out">1</property>
   <property name="kdenlive_info"/>
   <property name="transition.geometry">0/-60:1920x1080:100</property>
   <property name="transition.distort">0</property>
  </filter>
 </producer>
 <producer title="Anonymous Submission" id="48" in="0" out="556">
  <property name="length">557</property>
  <property name="eof">pause</property>
  <property name="resource">/home/bordun/Clip01_SnapshatAuHarem/title-nano.png</property>
  <property name="ttl">25</property>
  <property name="aspect_ratio">1</property>
  <property name="progressive">1</property>
  <property name="seekable">1</property>
  <property name="meta.media.width">1920</property>
  <property name="meta.media.height">1080</property>
  <property name="mlt_service">qimage</property>
  <property name="kdenlive:duration">120</property>
  <property name="kdenlive:file_size">769567</property>
  <property name="kdenlive:file_hash">fa2b973913e58862f97341c5336b8a26</property>
  <property name="global_feed">1</property>
  <property name="kdenlive:folderid">2</property>
 </producer>
 <playlist id="main bin">
  <property name="kdenlive:docproperties.audiotargettrack">2</property>
  <property name="kdenlive:docproperties.decimalPoint">,</property>
  <property name="kdenlive:docproperties.dirtypreviewchunks"/>
  <property name="kdenlive:docproperties.disablepreview">0</property>
  <property name="kdenlive:docproperties.documentid">1516638450852</property>
  <property name="kdenlive:docproperties.enableproxy">0</property>
  <property name="kdenlive:docproperties.generateimageproxy">1</property>
  <property name="kdenlive:docproperties.generateproxy">1</property>
  <property name="kdenlive:docproperties.kdenliveversion">18.08.3</property>
  <property name="kdenlive:docproperties.position">1514</property>
  <property name="kdenlive:docproperties.previewchunks"/>
  <property name="kdenlive:docproperties.previewextension">mov</property>
  <property name="kdenlive:docproperties.previewparameters">r=24 s=1920x1080 vb=36M threads=0 vcodec=dnxhd</property>
  <property name="kdenlive:docproperties.profile">atsc_1080p_24</property>
  <property name="kdenlive:docproperties.proxyextension">mpg</property>
  <property name="kdenlive:docproperties.proxyimageminsize">2000</property>
  <property name="kdenlive:docproperties.proxyminsize">1000</property>
  <property name="kdenlive:docproperties.proxyparams">-vf scale=640:-1 -g 5 -qscale 6 -ab 128k -vcodec mpeg2video -acodec mp2</property>
  <property name="kdenlive:docproperties.version">0.96</property>
  <property name="kdenlive:docproperties.verticalzoom">1</property>
  <property name="kdenlive:docproperties.videotargettrack">11</property>
  <property name="kdenlive:docproperties.zonein">975</property>
  <property name="kdenlive:docproperties.zoneout">1022</property>
  <property name="kdenlive:docproperties.zoom">6</property>
  <property name="kdenlive:docmetadata.meta.attr.author.markup">Plagiat &amp; Joris Le Guidart</property>
  <property name="kdenlive:docmetadata.meta.attr.copyright.markup">Copyleft - Licence Art Libre 1.3</property>
  <property name="kdenlive:docmetadata.meta.attr.title.markup">Snapchat au Harem (part of)</property>
  <property name="kdenlive:docmetadata.meta.attr.year.markup">2018</property>
  <property name="kdenlive:documentnotes"/>
  <property name="kdenlive:clipgroups"/>
  <property name="kdenlive:marker.9:93,1667">0:yo</property>
  <property name="kdenlive:docproperties.renderaudioquality">7</property>
  <property name="kdenlive:docproperties.rendercategory">Sans perte / Haute qualité</property>
  <property name="kdenlive:docproperties.renderendguide">-1</property>
  <property name="kdenlive:docproperties.renderexportaudio">0</property>
  <property name="kdenlive:docproperties.renderguide">0</property>
  <property name="kdenlive:docproperties.renderplay">0</property>
  <property name="kdenlive:docproperties.renderprofile">H.264 (libx264+aac)</property>
  <property name="kdenlive:docproperties.renderquality">15</property>
  <property name="kdenlive:docproperties.renderratio">1</property>
  <property name="kdenlive:docproperties.renderrescale">0</property>
  <property name="kdenlive:docproperties.renderrescaleheight">180</property>
  <property name="kdenlive:docproperties.renderrescalewidth">320</property>
  <property name="kdenlive:docproperties.renderscanning">0</property>
  <property name="kdenlive:docproperties.renderspeed">2</property>
  <property name="kdenlive:docproperties.renderstartguide">-1</property>
  <property name="kdenlive:docproperties.rendertcoverlay">0</property>
  <property name="kdenlive:docproperties.rendertctype">0</property>
  <property name="kdenlive:docproperties.rendertwopass">0</property>
  <property name="kdenlive:docproperties.renderurl">/home/bordun/Clip01_SnapshatAuHarem/Rendus/intro.mp4</property>
  <property name="kdenlive:docproperties.renderzone">1</property>
  <property name="kdenlive:folder.-1.1">logos</property>
  <property name="kdenlive:folder.-1.2">tarantino</property>
  <property name="kdenlive:folder.-1.3">titres</property>
  <property name="xml_retain">1</property>
  <entry producer="1" in="0" out="4287"/>
  <entry producer="2" in="0" out="8182"/>
  <entry producer="3" in="0" out="9283"/>
  <entry producer="4" in="0" out="3104"/>
  <entry producer="5" in="0" out="893"/>
  <entry producer="6" in="0" out="2099"/>
  <entry producer="7" in="0" out="1872"/>
  <entry producer="8" in="0" out="969"/>
  <entry producer="9" in="0" out="5809"/>
  <entry producer="10" in="0" out="2072"/>
  <entry producer="11" in="0" out="2299"/>
  <entry producer="12" in="0" out="2260"/>
  <entry producer="13" in="0" out="8136"/>
  <entry producer="14" in="0" out="2881"/>
  <entry producer="15" in="0" out="119"/>
  <entry producer="23" in="0" out="119"/>
  <blank length="3455"/>
  <entry producer="29" in="0" out="119"/>
  <entry producer="31" in="0" out="119"/>
  <blank length="119"/>
  <entry producer="22" in="0" out="535"/>
  <entry producer="49" in="0" out="119"/>
  <entry producer="50" in="0" out="119"/>
  <entry producer="51" in="0" out="119"/>
  <entry producer="52" in="0" out="119"/>
  <entry producer="53" in="0" out="119"/>
  <blank length="556"/>
  <entry producer="47" in="0" out="556"/>
  <entry producer="58" in="0" out="287"/>
  <entry producer="48" in="0" out="556"/>
 </playlist>
 <producer id="black" in="0" out="500">
  <property name="length">15000</property>
  <property name="eof">pause</property>
  <property name="resource">black</property>
  <property name="aspect_ratio">0</property>
  <property name="mlt_service">colour</property>
  <property name="set.test_audio">0</property>
 </producer>
 <playlist id="black_track">
  <entry producer="black" in="0" out="3454"/>
 </playlist>
 <playlist id="playlist1">
  <property name="kdenlive:track_name">Audio 2</property>
  <property name="kdenlive:audio_track">1</property>
  <blank length="189"/>
  <blank length="1302"/>
  <blank length="51"/>
  <blank length="1912"/>
 </playlist>
 <playlist id="playlist2">
  <property name="kdenlive:track_name">Audio 1</property>
  <property name="kdenlive:audio_track">1</property>
  <property name="kdenlive:locked_track">0</property>
 </playlist>
 <producer id="slowmotion:9:7:1:0" in="0" out="829">
  <property name="length">830</property>
  <property name="eof">pause</property>
  <property name="resource">7:/media/bordun/Odile/SnapshatAuHarem/etalo/CAM2_2017-11-25_0823_C0011.mov</property>
  <property name="aspect_ratio">1</property>
  <property name="meta.media.nb_streams">2</property>
  <property name="meta.media.0.stream.type">video</property>
  <property name="meta.media.0.stream.frame_rate">24</property>
  <property name="meta.media.0.stream.sample_aspect_ratio">1</property>
  <property name="meta.media.0.codec.width">1920</property>
  <property name="meta.media.0.codec.height">1080</property>
  <property name="meta.media.0.codec.rotate">0</property>
  <property name="meta.media.0.codec.frame_rate">12288</property>
  <property name="meta.media.0.codec.pix_fmt">yuv422p10le</property>
  <property name="meta.media.0.codec.sample_aspect_ratio">0</property>
  <property name="meta.media.0.codec.colorspace">709</property>
  <property name="meta.media.0.codec.color_trc">1</property>
  <property name="meta.media.0.codec.name">dnxhd</property>
  <property name="meta.media.0.codec.long_name">VC3/DNxHD</property>
  <property name="meta.media.0.codec.bit_rate">176160768</property>
  <property name="meta.attr.0.stream.language.markup">eng</property>
  <property name="meta.attr.0.stream.handler_name.markup">Core Media Data Handler</property>
  <property name="meta.attr.0.stream.timecode.markup">08:23:03:08</property>
  <property name="meta.attr.major_brand.markup">qt  </property>
  <property name="meta.attr.minor_version.markup">512</property>
  <property name="meta.attr.compatible_brands.markup">qt  </property>
  <property name="meta.attr.encoder.markup">Lavf57.25.100</property>
  <property name="seekable">1</property>
  <property name="meta.media.sample_aspect_num">1</property>
  <property name="meta.media.sample_aspect_den">1</property>
  <property name="audio_index">2</property>
  <property name="video_index">0</property>
  <property name="mute_on_pause">1</property>
  <property name="warp_speed">7</property>
  <property name="warp_resource">/media/bordun/Odile/SnapshatAuHarem/etalo/CAM2_2017-11-25_0823_C0011.mov</property>
  <property name="mlt_service">timewarp</property>
  <property name="meta.media.1.stream.type">video</property>
  <property name="meta.media.1.stream.frame_rate">24</property>
  <property name="meta.media.1.stream.sample_aspect_ratio">1</property>
  <property name="meta.media.1.codec.width">1920</property>
  <property name="meta.media.1.codec.height">1080</property>
  <property name="meta.media.1.codec.rotate">0</property>
  <property name="meta.media.1.codec.frame_rate">2400</property>
  <property name="meta.media.1.codec.pix_fmt">yuv422p10le</property>
  <property name="meta.media.1.codec.sample_aspect_ratio">0</property>
  <property name="meta.media.1.codec.colorspace">709</property>
  <property name="meta.media.1.codec.color_trc">1</property>
  <property name="meta.media.1.codec.name">prores</property>
  <property name="meta.media.1.codec.long_name">ProRes</property>
  <property name="meta.media.1.codec.bit_rate">176139060</property>
  <property name="meta.attr.1.stream.creation_time.markup">2017-11-25T08:23:03.000000Z</property>
  <property name="meta.attr.1.stream.language.markup">eng</property>
  <property name="meta.attr.1.stream.handler_name.markup">Apple Alias Data Handler</property>
  <property name="meta.attr.1.stream.encoder.markup">Apple ProRes 422 HQ</property>
  <property name="meta.attr.1.stream.timecode.markup">08:23:03:08</property>
  <property name="meta.media.2.stream.type">audio</property>
  <property name="meta.media.2.codec.sample_fmt">s32</property>
  <property name="meta.media.2.codec.sample_rate">48000</property>
  <property name="meta.media.2.codec.channels">2</property>
  <property name="meta.media.2.codec.name">pcm_s24le</property>
  <property name="meta.media.2.codec.long_name">PCM signed 24-bit little-endian</property>
  <property name="meta.media.2.codec.bit_rate">2304000</property>
  <property name="meta.attr.2.stream.creation_time.markup">2017-11-25T08:23:03.000000Z</property>
  <property name="meta.attr.2.stream.language.markup">eng</property>
  <property name="meta.attr.2.stream.handler_name.markup">Apple Alias Data Handler</property>
  <property name="meta.attr.2.stream.timecode.markup">08:23:03:08</property>
  <property name="meta.attr.com.apple.proapps.manufacturer.markup">Blackmagic Design</property>
  <property name="meta.attr.com.apple.proapps.cameraName.markup">CAM2</property>
  <property name="meta.attr.com.apple.proapps.isGood.markup">0</property>
  <property name="meta.attr.com.apple.proapps.customgamma.markup">com.blackmagic-design.cinemacamera.filmlog</property>
  <property name="meta.attr.com.blackmagic-design.cinemacamera.uuid.markup">18E5E00548F94923B646613A73C01B56</property>
  <property name="meta.attr.creation_time.markup">2017-11-25T08:23:03.000000Z</property>
  <property name="meta.attr.timecode.markup">08:23:03:08</property>
  <property name="kdenlive:originalurl">/media/joris/1TO_RUSHS/_Plagiat/Dimanche_soir/CAM2_2017-11-25_0823_C0011.mov</property>
  <property name="meta.media.frame_rate_num">24</property>
  <property name="meta.media.frame_rate_den">1</property>
  <property name="meta.media.colorspace">709</property>
  <property name="meta.media.color_trc">1</property>
  <property name="meta.media.width">1920</property>
  <property name="meta.media.height">1080</property>
  <property name="meta.media.top_field_first">0</property>
  <property name="meta.media.progressive">1</property>
  <property name="force_colorspace"/>
 </producer>
 <producer id="slowmotion:9:0,7:1:0" in="0" out="8299">
  <property name="length">8300</property>
  <property name="eof">pause</property>
  <property name="resource">0,7:/media/bordun/Odile/SnapshatAuHarem/etalo/CAM2_2017-11-25_0823_C0011.mov</property>
  <property name="aspect_ratio">1</property>
  <property name="meta.media.nb_streams">2</property>
  <property name="meta.media.0.stream.type">video</property>
  <property name="meta.media.0.stream.frame_rate">24</property>
  <property name="meta.media.0.stream.sample_aspect_ratio">1</property>
  <property name="meta.media.0.codec.width">1920</property>
  <property name="meta.media.0.codec.height">1080</property>
  <property name="meta.media.0.codec.rotate">0</property>
  <property name="meta.media.0.codec.frame_rate">12288</property>
  <property name="meta.media.0.codec.pix_fmt">yuv422p10le</property>
  <property name="meta.media.0.codec.sample_aspect_ratio">0</property>
  <property name="meta.media.0.codec.colorspace">709</property>
  <property name="meta.media.0.codec.color_trc">1</property>
  <property name="meta.media.0.codec.name">dnxhd</property>
  <property name="meta.media.0.codec.long_name">VC3/DNxHD</property>
  <property name="meta.media.0.codec.bit_rate">176160768</property>
  <property name="meta.attr.0.stream.language.markup">eng</property>
  <property name="meta.attr.0.stream.handler_name.markup">Core Media Data Handler</property>
  <property name="meta.attr.0.stream.timecode.markup">08:23:03:08</property>
  <property name="meta.attr.major_brand.markup">qt  </property>
  <property name="meta.attr.minor_version.markup">512</property>
  <property name="meta.attr.compatible_brands.markup">qt  </property>
  <property name="meta.attr.encoder.markup">Lavf57.25.100</property>
  <property name="seekable">1</property>
  <property name="meta.media.sample_aspect_num">1</property>
  <property name="meta.media.sample_aspect_den">1</property>
  <property name="audio_index">2</property>
  <property name="video_index">0</property>
  <property name="mute_on_pause">1</property>
  <property name="warp_speed">0,7</property>
  <property name="warp_resource">/media/bordun/Odile/SnapshatAuHarem/etalo/CAM2_2017-11-25_0823_C0011.mov</property>
  <property name="mlt_service">timewarp</property>
  <property name="meta.media.1.stream.type">video</property>
  <property name="meta.media.1.stream.frame_rate">24</property>
  <property name="meta.media.1.stream.sample_aspect_ratio">1</property>
  <property name="meta.media.1.codec.width">1920</property>
  <property name="meta.media.1.codec.height">1080</property>
  <property name="meta.media.1.codec.rotate">0</property>
  <property name="meta.media.1.codec.frame_rate">2400</property>
  <property name="meta.media.1.codec.pix_fmt">yuv422p10le</property>
  <property name="meta.media.1.codec.sample_aspect_ratio">0</property>
  <property name="meta.media.1.codec.colorspace">709</property>
  <property name="meta.media.1.codec.color_trc">1</property>
  <property name="meta.media.1.codec.name">prores</property>
  <property name="meta.media.1.codec.long_name">ProRes</property>
  <property name="meta.media.1.codec.bit_rate">176139060</property>
  <property name="meta.attr.1.stream.creation_time.markup">2017-11-25T08:23:03.000000Z</property>
  <property name="meta.attr.1.stream.language.markup">eng</property>
  <property name="meta.attr.1.stream.handler_name.markup">Apple Alias Data Handler</property>
  <property name="meta.attr.1.stream.encoder.markup">Apple ProRes 422 HQ</property>
  <property name="meta.attr.1.stream.timecode.markup">08:23:03:08</property>
  <property name="meta.media.2.stream.type">audio</property>
  <property name="meta.media.2.codec.sample_fmt">s32</property>
  <property name="meta.media.2.codec.sample_rate">48000</property>
  <property name="meta.media.2.codec.channels">2</property>
  <property name="meta.media.2.codec.name">pcm_s24le</property>
  <property name="meta.media.2.codec.long_name">PCM signed 24-bit little-endian</property>
  <property name="meta.media.2.codec.bit_rate">2304000</property>
  <property name="meta.attr.2.stream.creation_time.markup">2017-11-25T08:23:03.000000Z</property>
  <property name="meta.attr.2.stream.language.markup">eng</property>
  <property name="meta.attr.2.stream.handler_name.markup">Apple Alias Data Handler</property>
  <property name="meta.attr.2.stream.timecode.markup">08:23:03:08</property>
  <property name="meta.attr.com.apple.proapps.manufacturer.markup">Blackmagic Design</property>
  <property name="meta.attr.com.apple.proapps.cameraName.markup">CAM2</property>
  <property name="meta.attr.com.apple.proapps.isGood.markup">0</property>
  <property name="meta.attr.com.apple.proapps.customgamma.markup">com.blackmagic-design.cinemacamera.filmlog</property>
  <property name="meta.attr.com.blackmagic-design.cinemacamera.uuid.markup">18E5E00548F94923B646613A73C01B56</property>
  <property name="meta.attr.creation_time.markup">2017-11-25T08:23:03.000000Z</property>
  <property name="meta.attr.timecode.markup">08:23:03:08</property>
  <property name="kdenlive:originalurl">/media/joris/1TO_RUSHS/_Plagiat/Dimanche_soir/CAM2_2017-11-25_0823_C0011.mov</property>
  <property name="meta.media.frame_rate_num">24</property>
  <property name="meta.media.frame_rate_den">1</property>
  <property name="meta.media.colorspace">709</property>
  <property name="meta.media.color_trc">1</property>
  <property name="meta.media.width">1920</property>
  <property name="meta.media.height">1080</property>
  <property name="meta.media.top_field_first">0</property>
  <property name="meta.media.progressive">1</property>
  <property name="force_colorspace"/>
 </producer>
 <producer title="Anonymous Submission" id="9_playlist9" in="0" out="5809">
  <property name="length">00:04:02:02</property>
  <property name="eof">pause</property>
  <property name="resource">/media/bordun/Odile/SnapshatAuHarem/etalo/CAM2_2017-11-25_0823_C0011.mov</property>
  <property name="audio_index">2</property>
  <property name="video_index">0</property>
  <property name="mute_on_pause">1</property>
  <property name="mlt_service">avformat-novalidate</property>
  <property name="seekable">1</property>
  <property name="aspect_ratio">1</property>
  <property name="kdenlive:folderid">-1</property>
  <property name="kdenlive:file_size">5401146337</property>
  <property name="kdenlive:file_hash">0e80b31f91ba766cf6d5cc0ec3c08cfb</property>
  <property name="proxy_out">5809</property>
  <property name="kdenlive:originalurl">/media/joris/1TO_RUSHS/_Plagiat/Dimanche_soir/CAM2_2017-11-25_0823_C0011.mov</property>
  <property name="kdenlive:zone_in">2067</property>
  <property name="kdenlive:zone_out">2140</property>
  <property name="global_feed">1</property>
  <property name="xml">was here</property>
  <property name="force_colorspace"/>
  <property name="meta.media.nb_streams">2</property>
  <property name="meta.media.0.stream.type">video</property>
  <property name="meta.media.0.stream.frame_rate">24</property>
  <property name="meta.media.0.stream.sample_aspect_ratio">1</property>
  <property name="meta.media.0.codec.width">1920</property>
  <property name="meta.media.0.codec.height">1080</property>
  <property name="meta.media.0.codec.rotate">0</property>
  <property name="meta.media.0.codec.frame_rate">12288</property>
  <property name="meta.media.0.codec.pix_fmt">yuv422p10le</property>
  <property name="meta.media.0.codec.sample_aspect_ratio">0</property>
  <property name="meta.media.0.codec.colorspace">709</property>
  <property name="meta.media.0.codec.color_trc">1</property>
  <property name="meta.media.0.codec.name">dnxhd</property>
  <property name="meta.media.0.codec.long_name">VC3/DNxHD</property>
  <property name="meta.media.0.codec.bit_rate">176160768</property>
  <property name="meta.attr.0.stream.language.markup">eng</property>
  <property name="meta.attr.0.stream.handler_name.markup">Core Media Data Handler</property>
  <property name="meta.attr.0.stream.timecode.markup">08:23:03:08</property>
  <property name="meta.attr.major_brand.markup">qt  </property>
  <property name="meta.attr.minor_version.markup">512</property>
  <property name="meta.attr.compatible_brands.markup">qt  </property>
  <property name="meta.attr.encoder.markup">Lavf57.25.100</property>
  <property name="meta.media.sample_aspect_num">1</property>
  <property name="meta.media.sample_aspect_den">1</property>
  <property name="meta.media.frame_rate_num">24</property>
  <property name="meta.media.frame_rate_den">1</property>
  <property name="meta.media.colorspace">709</property>
  <property name="meta.media.color_trc">1</property>
  <property name="meta.media.width">1920</property>
  <property name="meta.media.height">1080</property>
  <property name="meta.media.top_field_first">0</property>
  <property name="meta.media.progressive">1</property>
 </producer>
 <producer id="slowmotion:9:0,8:1:0" in="0" out="7261">
  <property name="length">7262</property>
  <property name="eof">pause</property>
  <property name="resource">0,8:/media/bordun/Odile/SnapshatAuHarem/etalo/CAM2_2017-11-25_0823_C0011.mov</property>
  <property name="aspect_ratio">1</property>
  <property name="meta.media.nb_streams">2</property>
  <property name="meta.media.0.stream.type">video</property>
  <property name="meta.media.0.stream.frame_rate">24</property>
  <property name="meta.media.0.stream.sample_aspect_ratio">1</property>
  <property name="meta.media.0.codec.width">1920</property>
  <property name="meta.media.0.codec.height">1080</property>
  <property name="meta.media.0.codec.rotate">0</property>
  <property name="meta.media.0.codec.frame_rate">12288</property>
  <property name="meta.media.0.codec.pix_fmt">yuv422p10le</property>
  <property name="meta.media.0.codec.sample_aspect_ratio">0</property>
  <property name="meta.media.0.codec.colorspace">709</property>
  <property name="meta.media.0.codec.color_trc">1</property>
  <property name="meta.media.0.codec.name">dnxhd</property>
  <property name="meta.media.0.codec.long_name">VC3/DNxHD</property>
  <property name="meta.media.0.codec.bit_rate">176160768</property>
  <property name="meta.attr.0.stream.language.markup">eng</property>
  <property name="meta.attr.0.stream.handler_name.markup">Core Media Data Handler</property>
  <property name="meta.attr.0.stream.timecode.markup">08:23:03:08</property>
  <property name="meta.attr.major_brand.markup">qt  </property>
  <property name="meta.attr.minor_version.markup">512</property>
  <property name="meta.attr.compatible_brands.markup">qt  </property>
  <property name="meta.attr.encoder.markup">Lavf57.25.100</property>
  <property name="seekable">1</property>
  <property name="meta.media.sample_aspect_num">1</property>
  <property name="meta.media.sample_aspect_den">1</property>
  <property name="audio_index">2</property>
  <property name="video_index">0</property>
  <property name="mute_on_pause">1</property>
  <property name="warp_speed">0,8</property>
  <property name="warp_resource">/media/bordun/Odile/SnapshatAuHarem/etalo/CAM2_2017-11-25_0823_C0011.mov</property>
  <property name="mlt_service">timewarp</property>
  <property name="meta.media.1.stream.type">video</property>
  <property name="meta.media.1.stream.frame_rate">24</property>
  <property name="meta.media.1.stream.sample_aspect_ratio">1</property>
  <property name="meta.media.1.codec.width">1920</property>
  <property name="meta.media.1.codec.height">1080</property>
  <property name="meta.media.1.codec.rotate">0</property>
  <property name="meta.media.1.codec.frame_rate">2400</property>
  <property name="meta.media.1.codec.pix_fmt">yuv422p10le</property>
  <property name="meta.media.1.codec.sample_aspect_ratio">0</property>
  <property name="meta.media.1.codec.colorspace">709</property>
  <property name="meta.media.1.codec.color_trc">1</property>
  <property name="meta.media.1.codec.name">prores</property>
  <property name="meta.media.1.codec.long_name">ProRes</property>
  <property name="meta.media.1.codec.bit_rate">176139060</property>
  <property name="meta.attr.1.stream.creation_time.markup">2017-11-25T08:23:03.000000Z</property>
  <property name="meta.attr.1.stream.language.markup">eng</property>
  <property name="meta.attr.1.stream.handler_name.markup">Apple Alias Data Handler</property>
  <property name="meta.attr.1.stream.encoder.markup">Apple ProRes 422 HQ</property>
  <property name="meta.attr.1.stream.timecode.markup">08:23:03:08</property>
  <property name="meta.media.2.stream.type">audio</property>
  <property name="meta.media.2.codec.sample_fmt">s32</property>
  <property name="meta.media.2.codec.sample_rate">48000</property>
  <property name="meta.media.2.codec.channels">2</property>
  <property name="meta.media.2.codec.name">pcm_s24le</property>
  <property name="meta.media.2.codec.long_name">PCM signed 24-bit little-endian</property>
  <property name="meta.media.2.codec.bit_rate">2304000</property>
  <property name="meta.attr.2.stream.creation_time.markup">2017-11-25T08:23:03.000000Z</property>
  <property name="meta.attr.2.stream.language.markup">eng</property>
  <property name="meta.attr.2.stream.handler_name.markup">Apple Alias Data Handler</property>
  <property name="meta.attr.2.stream.timecode.markup">08:23:03:08</property>
  <property name="meta.attr.com.apple.proapps.manufacturer.markup">Blackmagic Design</property>
  <property name="meta.attr.com.apple.proapps.cameraName.markup">CAM2</property>
  <property name="meta.attr.com.apple.proapps.isGood.markup">0</property>
  <property name="meta.attr.com.apple.proapps.customgamma.markup">com.blackmagic-design.cinemacamera.filmlog</property>
  <property name="meta.attr.com.blackmagic-design.cinemacamera.uuid.markup">18E5E00548F94923B646613A73C01B56</property>
  <property name="meta.attr.creation_time.markup">2017-11-25T08:23:03.000000Z</property>
  <property name="meta.attr.timecode.markup">08:23:03:08</property>
  <property name="kdenlive:originalurl">/media/joris/1TO_RUSHS/_Plagiat/Dimanche_soir/CAM2_2017-11-25_0823_C0011.mov</property>
  <property name="meta.media.frame_rate_num">24</property>
  <property name="meta.media.frame_rate_den">1</property>
  <property name="meta.media.colorspace">709</property>
  <property name="meta.media.color_trc">1</property>
  <property name="meta.media.width">1920</property>
  <property name="meta.media.height">1080</property>
  <property name="meta.media.top_field_first">0</property>
  <property name="meta.media.progressive">1</property>
  <property name="force_colorspace"/>
 </producer>
 <producer id="slowmotion:9:1,3:1:0" in="0" out="4468">
  <property name="length">4469</property>
  <property name="eof">pause</property>
  <property name="resource">1,3:/media/bordun/Odile/SnapshatAuHarem/etalo/CAM2_2017-11-25_0823_C0011.mov</property>
  <property name="aspect_ratio">1</property>
  <property name="meta.media.nb_streams">2</property>
  <property name="meta.media.0.stream.type">video</property>
  <property name="meta.media.0.stream.frame_rate">24</property>
  <property name="meta.media.0.stream.sample_aspect_ratio">1</property>
  <property name="meta.media.0.codec.width">1920</property>
  <property name="meta.media.0.codec.height">1080</property>
  <property name="meta.media.0.codec.rotate">0</property>
  <property name="meta.media.0.codec.frame_rate">12288</property>
  <property name="meta.media.0.codec.pix_fmt">yuv422p10le</property>
  <property name="meta.media.0.codec.sample_aspect_ratio">0</property>
  <property name="meta.media.0.codec.colorspace">709</property>
  <property name="meta.media.0.codec.color_trc">1</property>
  <property name="meta.media.0.codec.name">dnxhd</property>
  <property name="meta.media.0.codec.long_name">VC3/DNxHD</property>
  <property name="meta.media.0.codec.bit_rate">176160768</property>
  <property name="meta.attr.0.stream.language.markup">eng</property>
  <property name="meta.attr.0.stream.handler_name.markup">Core Media Data Handler</property>
  <property name="meta.attr.0.stream.timecode.markup">08:23:03:08</property>
  <property name="meta.attr.major_brand.markup">qt  </property>
  <property name="meta.attr.minor_version.markup">512</property>
  <property name="meta.attr.compatible_brands.markup">qt  </property>
  <property name="meta.attr.encoder.markup">Lavf57.25.100</property>
  <property name="seekable">1</property>
  <property name="meta.media.sample_aspect_num">1</property>
  <property name="meta.media.sample_aspect_den">1</property>
  <property name="audio_index">-1</property>
  <property name="video_index">0</property>
  <property name="mute_on_pause">1</property>
  <property name="warp_speed">1,3</property>
  <property name="warp_resource">/media/bordun/Odile/SnapshatAuHarem/etalo/CAM2_2017-11-25_0823_C0011.mov</property>
  <property name="mlt_service">timewarp</property>
  <property name="kdenlive:originalurl">/media/joris/1TO_RUSHS/_Plagiat/Dimanche_soir/CAM2_2017-11-25_0823_C0011.mov</property>
  <property name="meta.media.frame_rate_num">24</property>
  <property name="meta.media.frame_rate_den">1</property>
  <property name="meta.media.colorspace">709</property>
  <property name="meta.media.color_trc">1</property>
  <property name="meta.media.width">1920</property>
  <property name="meta.media.height">1080</property>
  <property name="meta.media.top_field_first">0</property>
  <property name="meta.media.progressive">1</property>
 </producer>
 <playlist id="playlist9">
  <property name="kdenlive:track_name">Couleur couloir</property>
  <blank length="1188"/>
  <entry producer="slowmotion:9:7:1:0" in="245" out="269"/>
  <entry producer="slowmotion:9:0,7:1:0" in="2700" out="2708"/>
  <entry producer="9_playlist9" in="4334" out="4359"/>
  <entry producer="9_playlist9" in="4360" out="4428"/>
  <entry producer="9_playlist9" in="4429" out="4430">
   <filter id="frei0r.glitch0r">
    <property name="version">0,1</property>
    <property name="mlt_service">frei0r.glitch0r</property>
    <property name="kdenlive_id">frei0r.glitch0r</property>
    <property name="tag">frei0r.glitch0r</property>
    <property name="kdenlive_info">0/-1/</property>
    <property name="kdenlive_ix">1</property>
    <property name="disable"/>
    <property name="0">0,571</property>
    <property name="1">0,015</property>
    <property name="2">0,016</property>
    <property name="3">0</property>
   </filter>
   <filter id="frei0r.rgbnoise">
    <property name="version">0,9</property>
    <property name="mlt_service">frei0r.rgbnoise</property>
    <property name="kdenlive_id">frei0r.rgbnoise</property>
    <property name="tag">frei0r.rgbnoise</property>
    <property name="kdenlive_ix">2</property>
    <property name="0">0,15</property>
   </filter>
  </entry>
  <blank length="2"/>
  <entry producer="slowmotion:9:0,8:1:0" in="5541" out="5561"/>
  <blank length="47"/>
  <entry producer="9_playlist9" in="4505" out="4506">
   <filter id="filter8">
    <property name="version">0,1</property>
    <property name="mlt_service">frei0r.glitch0r</property>
    <property name="kdenlive_id">frei0r.glitch0r</property>
    <property name="tag">frei0r.glitch0r</property>
    <property name="kdenlive_info">0/-1/</property>
    <property name="kdenlive_ix">1</property>
    <property name="disable"/>
    <property name="0">0,571</property>
    <property name="1">0,022</property>
    <property name="2">0,021</property>
    <property name="3">0</property>
   </filter>
   <filter id="filter9">
    <property name="version">0,9</property>
    <property name="mlt_service">frei0r.rgbnoise</property>
    <property name="kdenlive_id">frei0r.rgbnoise</property>
    <property name="tag">frei0r.rgbnoise</property>
    <property name="kdenlive_ix">2</property>
    <property name="0">0,15</property>
    <property name="kdenlive_info"/>
   </filter>
  </entry>
  <entry producer="9_playlist9" in="4507" out="4587"/>
  <entry producer="slowmotion:9:1,3:1:0" in="3528" out="3546"/>
  <filter id="frei0r.letterb0xed">
   <property name="version">0,1</property>
   <property name="mlt_service">frei0r.letterb0xed</property>
   <property name="kdenlive_id">frei0r.letterb0xed</property>
   <property name="tag">frei0r.letterb0xed</property>
   <property name="kdenlive_ix">1</property>
   <property name="kdenlive_info">0/-1/</property>
   <property name="disable">0</property>
   <property name="Border Width">0,33</property>
   <property name="Transparency">0</property>
  </filter>
 </playlist>
 <producer title="Anonymous Submission" id="9_playlist13" in="0" out="5809">
  <property name="length">00:04:02:02</property>
  <property name="eof">pause</property>
  <property name="resource">/media/bordun/Odile/SnapshatAuHarem/etalo/CAM2_2017-11-25_0823_C0011.mov</property>
  <property name="audio_index">2</property>
  <property name="video_index">0</property>
  <property name="mute_on_pause">1</property>
  <property name="mlt_service">avformat-novalidate</property>
  <property name="seekable">1</property>
  <property name="aspect_ratio">1</property>
  <property name="kdenlive:folderid">-1</property>
  <property name="kdenlive:file_size">5401146337</property>
  <property name="kdenlive:file_hash">0e80b31f91ba766cf6d5cc0ec3c08cfb</property>
  <property name="proxy_out">5809</property>
  <property name="kdenlive:originalurl">/media/joris/1TO_RUSHS/_Plagiat/Dimanche_soir/CAM2_2017-11-25_0823_C0011.mov</property>
  <property name="kdenlive:zone_in">1493</property>
  <property name="kdenlive:zone_out">1542</property>
  <property name="global_feed">1</property>
  <property name="kdenlive:clipanalysis.motion_vector_list">1283=727/250:481x616:0;1284=727/250:481x616;1285=726,3/249,1:481x616;1286=726,15/248,8:481x616;1287=725,75/247,7:481x616;1288=725,1/246,5:481x616;1289=724,45/246,35:481x616;1290=724,5/245,6:481x616;1291=725,1/245,45:481x616;1292=724,95/244,8:481x616;1293=724,65/244,5:481x616;1294=724,9/244,05:481x616;1295=724,567/243,106:481x616;1296=724,233/242,994:481x616;1297=723,933/242,594:481x616;1298=723,655/242,483:481x616;1299=723,42/242,366:481x616;1300=722,832/242,013:481x616;1301=722,519/241,7:481x616;1302=721,853/241,567:481x616;1303=721,665/241,442:481x616;1304=721,54/241,192:481x616;1305=721,607/240,859:481x616;1306=721,313/240,682:481x616;1307=721,019/240,564:481x616;1308=720,842/240,506:481x616;1309=721,042/240,506:481x616;1310=721,119/240,429:481x616;1311=721,119/240,376:481x616;1312=721,382/239,955:481x616;1313=721,382/240,008:481x616;1314=721,332/239,758:481x616;1315=721,282/239,558:481x616;1316=720,982/239,508:481x616;1317=720,877/239,35:481x616;1318=720,727/239,45:481x616;1319=720,577/239,15:481x616;1320=721,177/239:481x616;1321=721,027/237,95:481x616;1322=720,627/236,75:481x616;1323=720,977/236,45:481x616;1324=721,227/236,15:481x616;1325=721,677/236,15:481x616;1326=721,327/235,95:481x616;1327=720,877/235,9:481x616;1328=720,877/235,9:481x616;1329=720,877/235,9:481x616;1330=720,877/235,9:481x616;1331=720,877/235,9:481x616;1332=720,877/235,9:481x616;1333=720,877/235,9:481x616;1334=720,877/235,9:481x616;1335=720,877/235,9:481x616;1336=721,577/235,95:481x616;1337=721,977/236,65:481x616;1338=722,327/237,35:481x616;1339=722,627/238,05:481x616;1340=722,627/238,75:481x616;1341=722,627/239,3:481x616;1342=722,627/239,85:481x616;1343=721,827/240,183:481x616;1344=721,027/240,45:481x616;1345=719,96/240,45:481x616;1346=718,71/240,866:481x616;1347=710,71/240,866:481x616;1348=702,71/240,866:481x616;1349=694,71/240,866:481x616;1350=691,619/240,412:481x616;1351=688,553/240,212:481x616;1352=686,29/240,37:481x616;1353=683,165/240,745:481x616;1354=680,241/240,976:481x616;1355=677,065/240,976:481x616;1356=673,68/240,899:481x616;1357=670,296/240,822:481x616;1358=667,129/240,822:481x616;1359=663,629/240,722:481x616;1360=661,429/240,672:481x616;1361=659,029/240,672:481x616;1362=656,379/240,672:481x616;1363=654,079/240,272:481x616;1364=651,629/240,072:481x616;1365=649,279/239,922:481x616;1366=647,029/239,572:481x616;1367=644,679/239,122:481x616;1368=640,512/238,372:481x616;1369=637,262/238,288:481x616;1370=635,878/237,75:481x616;1371=633,995/237,162:481x616;1372=633,495/236,762:481x616;1373=631,895/236,028:481x616;1374=630,013/234,381:481x616;1375=628,131/233,323:481x616;1376=626,443/232,073:481x616;1377=624,679/231,073:481x616;1378=624,063/229,996:481x616;1379=623,525/228,765:481x616;1380=622,909/227,534:481x616;1381=622,109/225,867:481x616;1382=621,756/225,22:481x616;1383=621,403/223,985:481x616;1384=621,903/223,735:481x616;1385=621,528/222,298:481x616;1386=620,466/221,985:481x616;1387=620,289/221,632:481x616;1388=620,407/221,338:481x616;1389=620,289/220,985:481x616;1390=620,054/220,867:481x616;1391=619,367/220,055:481x616;1392=618,778/219,702:481x616;1393=618,278/218,452:481x616;1394=617,878/217,552:481x616;1395=615,745/216,819:481x616;1396=614,053/215,434:481x616;1397=613,553/215,184:481x616;1398=612,803/213,934:481x616;1399=611,903/213,234:481x616;1400=610,403/212,151:481x616;1401=608,864/211,612:481x616;1402=608,403/210,689:481x616;1403=607,864/210,381:481x616;1404=606,326/209,689:481x616;1405=605,492/208,939:481x616;1406=603,954/208,478:481x616;1407=602,871/207,478:481x616;1408=602,204/207,311:481x616;1409=600,871/205,978:481x616;1410=597,496/205,353:481x616;1411=596,058/204,728:481x616;1412=595,121/203,54:481x616;1413=594,121/202,658:481x616;1414=592,65/201,07:481x616;1415=591,15/200,132:481x616;1416=589,525/199,09:481x616;1417=588,858/197,519:481x616;1418=588,467/195,867:481x616;1419=586,902/195,041:481x616;1420=585,163/193,562:481x616;1421=584,337/192,606:481x616;1422=584,032/191,954:481x616;1423=583,082/190,304:481x616;1424=581,219/189,395:481x616;1425=579,523/188,873:481x616;1426=578,74/187,09:481x616;1427=578,032/186,549:481x616;1428=576,461/185,072:481x616;1429=574,336/184,072:481x616;1430=573,51/183,333:481x616;1431=572,96/181,733:481x616;1432=572,51/180,633:481x616;1433=571,232/179,467:481x616;1434=569,782/178,267:481x616;1435=569,203/177,214:481x616;1436=568,603/176,264:481x616;1437=566,919/175,159:481x616;1438=565,129/174,422:481x616;1439=563,603/173,001:481x616;1440=562,182/171,948:481x616;1441=560,919/171,211:481x616;1442=560,287/170,369:481x616;1443=559,129/169,001:481x616;1444=556,392/168,474:481x616;1445=553,656/167,001:481x616;1446=552,498/166,79:481x616;1447=551,498/166,106:481x616;1448=550,34/165,106:481x616;1449=547,89/164,506:481x616;1450=545,69/163,556:481x616;1451=544,64/162,456:481x616;1452=543,14/160,856:481x616;1453=540,94/159,656:481x616;1454=538,782/157,814:481x616;1455=537,182/157,214:481x616;1456=535,382/155,614:481x616;1457=533,432/154,064:481x616;1458=531,132/153,414:481x616;1459=529,232/151,764:481x616;1460=527,382/151,264:481x616;1461=525,323/149,735:481x616;1462=523,073/148,735:481x616;1463=520,873/147,785:481x616;1464=519,61/146,469:481x616;1465=518,81/145,719:481x616;1466=517,343/144,852:481x616;1467=515,276/143,385:481x616;1468=513,477/141,919:481x616;1469=512,076/141,052:481x616;1470=511,476/139,919:481x616;1471=510,276/139,519:481x616</property>
  <property name="kdenlive:clipanalysis.motion_vector_list1">1280=819/300:235x496:0;1281=823,511/299,089:235x496;1282=823,5/298,858:235x496;1283=823,448/298,429:235x496;1284=823,278/297,811:235x496;1285=822,981/297,097:235x496;1286=822,952/296,636:235x496;1287=822,59/295,582:235x496;1288=822,018/294,561:235x496;1289=821,499/294,112:235x496;1290=821,299/293,454:235x496;1291=821,266/293,081:235x496;1292=820,804/292,574:235x496;1293=820,588/292,381:235x496;1294=820,493/292,004:235x496;1295=820,127/291,387:235x496;1296=819,703/291,254:235x496;1297=819,5/291,026:235x496;1298=819,418/291,15:235x496;1299=819,205/291,336:235x496;1300=818,585/291,281:235x496;1301=818,619/291,504:235x496;1302=818,591/291,633:235x496;1303=818,949/292,151:235x496;1304=819,044/292,039:235x496;1305=818,732/292,403:235x496;1306=818,411/292,575:235x496;1307=818,199/292,818:235x496;1308=818,587/293,117:235x496;1309=818,773/293,401:235x496;1310=818,578/295,727:235x496;1311=817,814/298,174:235x496;1312=814,414/300,974:235x496;1313=810,852/303,974:235x496;1314=808,369/306,836:235x496;1315=805,802/309,296:235x496;1316=803,433/310,611:235x496;1317=801,073/311,726:235x496;1318=800,35/312,344:235x496;1319=799,433/312,148:235x496;1320=799,065/312,156:235x496;1321=798,672/312,16:235x496;1322=798,188/312,015:235x496;1323=797,641/312,133:235x496;1324=797,116/312,144:235x496;1325=797,1/312,228:235x496;1326=796,525/312,319:235x496;1327=795,987/312,396:235x496;1328=795,502/312,594:235x496;1329=794,837/312,55:235x496;1330=790,542/312,021:235x496;1331=784,542/312,021:235x496;1332=772,542/312,021:235x496;1333=772,542/312,021:235x496;1334=772,542/312,021:235x496;1335=772,542/312,021:235x496;1336=772,542/312,021:235x496;1337=768,654/312,243:235x496;1338=765,765/312,132:235x496;1339=763,878/312,434:235x496;1340=763,294/312,661:235x496;1341=763,056/313,152:235x496;1342=762,695/313,388:235x496;1343=762,267/313,596:235x496;1344=761,837/313,633:235x496;1345=761,289/313,714:235x496;1346=759,539/313,428:235x496;1347=755,448/312,883:235x496;1348=752,448/313,383:235x496;1349=749,893/313,494:235x496;1350=747,226/313,938:235x496;1351=744,014/313,514:235x496;1352=741,387/313,633:235x496;1353=738,732/314,037:235x496;1354=736,237/314,565:235x496;1355=734,186/314,941:235x496;1356=731,805/315,104:235x496;1357=729,305/315,395:235x496;1358=726,253/315,85:235x496;1359=723,023/316,181:235x496;1360=719,174/317,097:235x496;1361=715,11/317,614:235x496;1362=710,523/317,705:235x496;1363=706,169/317,487:235x496;1364=701,092/317,297:235x496;1365=696,218/316,966:235x496;1366=692,025/316,698:235x496;1367=687,352/316,236:235x496;1368=682,347/315,806:235x496;1369=677,261/315,503:235x496;1370=672,62/315,244:235x496;1371=668,27/314,949:235x496;1372=663,575/314,832:235x496;1373=659,23/314,588:235x496;1374=654,94/314,324:235x496;1375=650,639/313,899:235x496;1376=646,396/313,327:235x496;1377=642,502/312,257:235x496;1378=638,305/311,184:235x496;1379=634,086/310,257:235x496;1380=629,664/308,305:235x496;1381=625,385/306,447:235x496;1382=621,231/304,975:235x496;1383=616,683/303,09:235x496;1384=612,422/301,287:235x496;1385=607,789/299,186:235x496;1386=602,81/297,165:235x496;1387=597,478/295,25:235x496;1388=593,169/293,235:235x496;1389=588,017/290,547:235x496;1390=582,957/288,013:235x496;1391=578,102/285,521:235x496;1392=573,181/282,893:235x496;1393=568,445/280,12:235x496;1394=563,677/277,976:235x496;1395=558,799/275,793:235x496;1396=553,79/273,556:235x496;1397=548,226/271,492:235x496;1398=543,445/269,82:235x496;1399=537,782/268,285:235x496;1400=531,966/266,591:235x496;1401=526,055/265,063:235x496;1402=520,467/263,263:235x496;1403=514,907/261,703:235x496;1404=509,211/260,082:235x496;1405=503,153/258,45:235x496;1406=497,085/256,94:235x496;1407=492,123/255,376:235x496;1408=488,064/254,376:235x496;1409=484,359/253,452:235x496;1410=480,831/252,667:235x496;1411=477,809/251,956:235x496;1412=475,17/251,115:235x496;1413=474,281/250,584:235x496;1414=473,261/249,977:235x496;1415=472,03/249,378:235x496;1416=470,749/248,727:235x496;1417=469,958/247,57:235x496;1418=468,753/246,237:235x496;1419=467,269/245,608:235x496;1420=465,597/244,369:235x496;1421=464,147/243,168:235x496;1422=462,904/242,416:235x496;1423=461,422/241,062:235x496;1424=458,295/239,802:235x496;1425=455,341/238,575:235x496;1426=453,19/236,493:235x496;1427=450,817/235,792:235x496;1428=447,32/234,324:235x496;1429=443,649/232,938:235x496;1430=440,739/231,62:235x496;1431=438,661/229,05:235x496;1432=435,785/226,754:235x496;1433=431,201/224,663:235x496;1434=426,512/222,478:235x496;1435=422,612/220,94:235x496;1436=418,643/219,228:235x496;1437=413,656/217,507:235x496;1438=407,693/215,927:235x496;1439=401,605/213,897:235x496;1440=395,727/212,748:235x496;1441=390,374/211,719:235x496;1442=385,278/210,6:235x496;1443=379,827/209,416:235x496;1444=372,994/209,156:235x496;1445=365,667/208,023:235x496;1446=359,364/207,637:235x496;1447=353,207/206,55:235x496;1448=346,913/205,38:235x496;1449=339,348/204,276:235x496;1450=332,135/203,011:235x496;1451=325,047/200,684:235x496;1452=317,889/198,323:235x496;1453=309,104/196,068:235x496;1454=299,786/192,959:235x496;1455=291,205/190,649:235x496;1456=282,633/187,526:235x496;1457=273,187/184,598:235x496;1458=262,654/182,473:235x496;1459=252,56/179,383:235x496;1460=242,334/177,201:235x496;1461=231,198/174,175:235x496;1462=220,027/171,213:235x496;1463=207,927/168,26:235x496;1464=196,911/165,243:235x496;1465=186,551/162,273:235x496;1466=175,325/159,19:235x496;1467=163,378/156,2:235x496;1468=151,129/152,074:235x496;1469=139,963/147,945:235x496;1470=128,804/143,824:235x496;1471=115,644/139,486:235x496</property>
  <property name="kdenlive:clipanalysis.motion_vector_list2">1272=819/300:235x496:0;1273=819/300:235x496;1274=819,25/300:235x496;1275=819,25/299,5:235x496;1276=819,5/299,5:235x496;1277=820/298,75:235x496;1278=820,25/298,5:235x496;1279=820,75/298:235x496;1280=821/297,5:235x496;1281=820,75/296,75:235x496;1282=820,75/295,75:235x496;1283=820,75/294,75:235x496;1284=820,75/292,75:235x496;1285=820,25/291,25:235x496;1286=820,25/290,75:235x496;1287=819,75/289,75:235x496;1288=818,5/288,25:235x496;1289=818/287,75:235x496;1290=818/287:235x496;1291=818/286,5:235x496;1292=817,75/285,75:235x496;1293=818/285,5:235x496;1294=818,25/285:235x496;1295=818/284:235x496;1296=817,75/284:235x496;1297=817,75/284:235x496;1298=817,75/284,5:235x496;1299=817,75/285,167:235x496;1300=817,75/285,833:235x496;1301=817,75/285,833:235x496;1302=817,75/285,833:235x496;1303=817,75/285,833:235x496;1304=817,75/285,833:235x496;1305=817,75/285,833:235x496;1306=817,75/285,833:235x496;1307=817,75/285,833:235x496;1308=817,75/285,833:235x496;1309=817,75/285,833:235x496;1310=817,75/285,833:235x496;1311=817,75/285,833:235x496;1312=817,75/285,833:235x496;1313=817,75/285,833:235x496;1314=817,75/285,833:235x496;1315=817,75/285,833:235x496;1316=817,75/285,833:235x496;1317=817,75/285,833:235x496;1318=817,75/285,833:235x496;1319=817,75/285,833:235x496;1320=817,75/285,833:235x496;1321=817,75/285,833:235x496;1322=817,75/285,833:235x496;1323=817,75/285,833:235x496;1324=817,75/285,833:235x496;1325=817,75/285,833:235x496;1326=817,75/285,833:235x496;1327=817,75/285,833:235x496;1328=817,75/285,833:235x496;1329=817,75/285,833:235x496;1330=817,75/285,833:235x496;1331=817,75/285,833:235x496;1332=817,75/285,833:235x496;1333=817,75/285,833:235x496;1334=817,75/285,833:235x496;1335=817,75/285,833:235x496;1336=817,75/285,833:235x496;1337=817,75/285,833:235x496;1338=817,75/285,833:235x496;1339=817,75/285,833:235x496;1340=817,75/285,833:235x496;1341=817,75/285,833:235x496;1342=817,75/285,833:235x496;1343=811,75/285,833:235x496;1344=805,75/286,833:235x496;1345=799,75/288,833:235x496;1346=799,75/288,833:235x496;1347=799,75/288,833:235x496;1348=799,75/288,833:235x496;1349=793,75/288,833:235x496;1350=793,75/288,833:235x496;1351=793,75/288,833:235x496;1352=790,25/291,583:235x496;1353=786,75/292,583:235x496;1354=784,75/293,583:235x496;1355=780,5/294,583:235x496;1356=778/296,083:235x496;1357=772,5/296,417:235x496;1358=770,5/296,917:235x496;1359=765,214/296,917:235x496;1360=762,214/296,917:235x496;1361=757,714/296,917:235x496;1362=753,214/296,917:235x496;1363=749,214/296,667:235x496;1364=745,214/296,667:235x496;1365=741,214/296,417:235x496;1366=737,464/296,167:235x496;1367=733,464/295,833:235x496;1368=728,214/295,333:235x496;1369=722,214/294,833:235x496;1370=716,214/293,833:235x496;1371=711,464/293,083:235x496;1372=705,964/292,583:235x496;1373=700,714/292,083:235x496;1374=695,881/290,083:235x496;1375=691,281/288,083:235x496;1376=686,681/285,683:235x496;1377=682,681/282,933:235x496;1378=679,281/280,533:235x496;1379=675,281/278,283:235x496;1380=671,881/276,483:235x496;1381=668,714/274,65:235x496;1382=667,314/274,05:235x496;1383=665,564/272,8:235x496;1384=664,964/272,6:235x496;1385=659,464/266,35:235x496;1386=653,464/260,35:235x496;1387=649,464/258,35:235x496;1388=645,464/256,35:235x496;1389=641,464/254,35:235x496;1390=637,464/252,35:235x496;1391=633,464/250,35:235x496;1392=629,464/248,35:235x496;1393=625,464/246,35:235x496;1394=621,464/244,85:235x496;1395=617,214/243,35:235x496;1396=612,464/240,35:235x496;1397=608,464/238,35:235x496;1398=603,964/235,85:235x496;1399=599,298/233,183:235x496;1400=594,923/230,933:235x496;1401=590,423/228,683:235x496;1402=586,089/226,35:235x496;1403=580,946/223,493:235x496;1404=576,089/221,064:235x496;1405=571,232/218,636:235x496;1406=565,232/216,064:235x496;1407=559,518/213,636:235x496;1408=554,518/211,636:235x496;1409=550,518/209,636:235x496;1410=542,518/205,969:235x496;1411=536,518/201,969:235x496;1412=530,518/196,969:235x496;1413=528,518/196,969:235x496;1414=528,518/196,969:235x496;1415=526,518/196,969:235x496;1416=522,018/192,969:235x496;1417=518,351/188,969:235x496;1418=515,685/185,969:235x496;1419=512,685/182,969:235x496;1420=509,685/179,969:235x496;1421=503,185/173,969:235x496;1422=496,685/168,469:235x496;1423=489,685/161,136:235x496;1424=483,185/155,386:235x496;1425=476,851/150,719:235x496;1426=474,851/147,719:235x496;1427=471,851/146,469:235x496;1428=468,251/144,269:235x496;1429=464,251/142,269:235x496;1430=464,251/142,269:235x496;1431=461,251/140,269:235x496;1432=457,251/138,269:235x496;1433=452,251/137,269:235x496;1434=447,251/135,269:235x496;1435=443,251/132,769:235x496;1436=439,251/129,269:235x496;1437=434,501/126,519:235x496;1438=429,501/124,269:235x496;1439=424,001/120,769:235x496;1440=418,751/118,269:235x496;1441=414,001/116,269:235x496;1442=409,751/113,769:235x496;1443=405,001/111,269:235x496;1444=399,251/110,019:235x496;1445=391,751/107,686:235x496;1446=385,876/106,311:235x496;1447=380,448/104,739:235x496;1448=375,281/103,239:235x496;1449=369,281/101,439:235x496;1450=363,114/98,7726:235x496;1451=356,114/94,2726:235x496;1452=349,114/89,7726:235x496;1453=341,114/85,2726:235x496;1454=332,614/80,2726:235x496;1455=325,281/77,6059:235x496;1456=318,281/73,6059:235x496;1457=310,031/68,6059:235x496;1458=301,031/65,6059:235x496;1459=292,281/60,3559:235x496;1460=283,481/57,1559:235x496;1461=274,481/52,4893:235x496;1462=264,052/47,3464:235x496;1463=252,302/42,0964:235x496;1464=242,552/36,5964:235x496;1465=233,802/31,5964:235x496;1466=224,302/26,3464:235x496;1467=214,302/21,5964:235x496;1468=204,552/16,3464:235x496;1469=195,302/11,3464:235x496;1470=186,302/6,34639:235x496;1471=175,552/0,596394:235x496</property>
  <property name="xml">was here</property>
  <property name="meta.media.nb_streams">2</property>
  <property name="meta.media.0.stream.type">video</property>
  <property name="meta.media.0.stream.frame_rate">24</property>
  <property name="meta.media.0.stream.sample_aspect_ratio">1</property>
  <property name="meta.media.0.codec.width">1920</property>
  <property name="meta.media.0.codec.height">1080</property>
  <property name="meta.media.0.codec.rotate">0</property>
  <property name="meta.media.0.codec.frame_rate">12288</property>
  <property name="meta.media.0.codec.pix_fmt">yuv422p10le</property>
  <property name="meta.media.0.codec.sample_aspect_ratio">0</property>
  <property name="meta.media.0.codec.colorspace">709</property>
  <property name="meta.media.0.codec.color_trc">1</property>
  <property name="meta.media.0.codec.name">dnxhd</property>
  <property name="meta.media.0.codec.long_name">VC3/DNxHD</property>
  <property name="meta.media.0.codec.bit_rate">176160768</property>
  <property name="meta.attr.0.stream.language.markup">eng</property>
  <property name="meta.attr.0.stream.handler_name.markup">Core Media Data Handler</property>
  <property name="meta.attr.0.stream.timecode.markup">08:23:03:08</property>
  <property name="meta.attr.major_brand.markup">qt  </property>
  <property name="meta.attr.minor_version.markup">512</property>
  <property name="meta.attr.compatible_brands.markup">qt  </property>
  <property name="meta.attr.encoder.markup">Lavf57.25.100</property>
  <property name="meta.media.sample_aspect_num">1</property>
  <property name="meta.media.sample_aspect_den">1</property>
  <property name="meta.media.frame_rate_num">24</property>
  <property name="meta.media.frame_rate_den">1</property>
  <property name="meta.media.colorspace">709</property>
  <property name="meta.media.color_trc">1</property>
  <property name="meta.media.width">1920</property>
  <property name="meta.media.height">1080</property>
  <property name="meta.media.top_field_first">0</property>
  <property name="meta.media.progressive">1</property>
 </producer>
 <playlist id="playlist13">
  <property name="kdenlive:track_name">Couleur couloir 2</property>
  <blank length="1207"/>
  <entry producer="slowmotion:9:7:1:0" in="264" out="267">
   <filter id="filter60">
    <property name="version">0,1</property>
    <property name="mlt_service">frei0r.colorize</property>
    <property name="kdenlive_id">frei0r.colorize</property>
    <property name="tag">frei0r.colorize</property>
    <property name="kdenlive_ix">2</property>
    <property name="kdenlive_info"/>
    <property name="disable">1</property>
    <property name="0">0,41</property>
    <property name="1">0,981</property>
    <property name="2">1</property>
   </filter>
   <filter id="frei0r.scale0tilt">
    <property name="version">0,1</property>
    <property name="mlt_service">frei0r.scale0tilt</property>
    <property name="kdenlive_id">frei0r.scale0tilt</property>
    <property name="tag">frei0r.scale0tilt</property>
    <property name="kdenlive_ix">3</property>
    <property name="kdenlive_info"/>
    <property name="disable">0</property>
    <property name="Clip left">0,223438</property>
    <property name="Clip right">0,613542</property>
    <property name="Clip top">0,358333</property>
    <property name="Clip bottom">0,397222</property>
    <property name="Scale X">0,5</property>
    <property name="Scale Y">0,5</property>
    <property name="Tilt X">0,5</property>
    <property name="Tilt Y">0,5</property>
   </filter>
   <filter id="filter0">
    <property name="version">0,1</property>
    <property name="mlt_service">frei0r.glitch0r</property>
    <property name="kdenlive_id">frei0r.glitch0r</property>
    <property name="tag">frei0r.glitch0r</property>
    <property name="kdenlive_ix">4</property>
    <property name="disable">0</property>
    <property name="0">0,58</property>
    <property name="1">0,002</property>
    <property name="2">0,003</property>
    <property name="3">0</property>
    <property name="kdenlive_info"/>
   </filter>
  </entry>
  <blank length="19"/>
  <entry producer="9_playlist13" in="4342" out="4342">
   <filter id="filter1">
    <property name="version">0,1</property>
    <property name="mlt_service">frei0r.rgbsplit0r</property>
    <property name="kdenlive_id">frei0r.rgbsplit0r</property>
    <property name="tag">frei0r.rgbsplit0r</property>
    <property name="kdenlive_ix">1</property>
    <property name="0">0</property>
    <property name="1">0,044</property>
    <property name="kdenlive_info"/>
   </filter>
  </entry>
  <blank length="1"/>
  <entry producer="9_playlist13" in="4344" out="4344">
   <filter id="filter2">
    <property name="version">0,1</property>
    <property name="mlt_service">frei0r.rgbsplit0r</property>
    <property name="kdenlive_id">frei0r.rgbsplit0r</property>
    <property name="tag">frei0r.rgbsplit0r</property>
    <property name="kdenlive_ix">1</property>
    <property name="0">0,081</property>
    <property name="1">0</property>
    <property name="kdenlive_info"/>
   </filter>
  </entry>
  <blank length="11"/>
  <entry producer="9_playlist13" in="4356" out="4356">
   <filter id="filter4">
    <property name="version">1</property>
    <property name="mlt_service">frei0r.pixeliz0r</property>
    <property name="kdenlive_id">frei0r.pixeliz0r</property>
    <property name="tag">frei0r.pixeliz0r</property>
    <property name="kdenlive_ix">1</property>
    <property name="BlockSizeX">4356=0,01</property>
    <property name="BlockSizeY">4356=0</property>
    <property name="kdenlive_info"/>
    <property name="disable"/>
   </filter>
   <filter id="frei0r.rgbsplit0r">
    <property name="version">0,1</property>
    <property name="mlt_service">frei0r.rgbsplit0r</property>
    <property name="kdenlive_id">frei0r.rgbsplit0r</property>
    <property name="tag">frei0r.rgbsplit0r</property>
    <property name="kdenlive_ix">2</property>
    <property name="0">0,081</property>
    <property name="1">0,055</property>
    <property name="kdenlive_info"/>
    <property name="disable"/>
   </filter>
  </entry>
  <blank length="74"/>
  <entry producer="slowmotion:9:0,8:1:0" in="5537" out="5538">
   <filter id="filter26">
    <property name="version">0,1</property>
    <property name="mlt_service">frei0r.glitch0r</property>
    <property name="kdenlive_id">frei0r.glitch0r</property>
    <property name="tag">frei0r.glitch0r</property>
    <property name="kdenlive_info">0/-1/</property>
    <property name="kdenlive_ix">2</property>
    <property name="disable"/>
    <property name="0">0,571</property>
    <property name="1">0,015</property>
    <property name="2">0,016</property>
    <property name="3">0</property>
   </filter>
   <filter id="filter27">
    <property name="version">0,9</property>
    <property name="mlt_service">frei0r.rgbnoise</property>
    <property name="kdenlive_id">frei0r.rgbnoise</property>
    <property name="tag">frei0r.rgbnoise</property>
    <property name="kdenlive_ix">3</property>
    <property name="0">0,15</property>
   </filter>
  </entry>
  <entry producer="slowmotion:9:0,8:1:0" in="5539" out="5559"/>
  <entry producer="slowmotion:9:0,8:1:0" in="5560" out="5561">
   <filter id="filter12">
    <property name="version">0,1</property>
    <property name="mlt_service">frei0r.glitch0r</property>
    <property name="kdenlive_id">frei0r.glitch0r</property>
    <property name="tag">frei0r.glitch0r</property>
    <property name="kdenlive_info"/>
    <property name="kdenlive_ix">2</property>
    <property name="disable"/>
    <property name="0">0,571</property>
    <property name="1">0,015</property>
    <property name="2">0,016</property>
    <property name="3">0</property>
   </filter>
   <filter id="filter13">
    <property name="version">0,9</property>
    <property name="mlt_service">frei0r.rgbnoise</property>
    <property name="kdenlive_id">frei0r.rgbnoise</property>
    <property name="tag">frei0r.rgbnoise</property>
    <property name="kdenlive_info"/>
    <property name="kdenlive_ix">3</property>
    <property name="disable"/>
    <property name="0">0,15</property>
   </filter>
  </entry>
  <entry producer="9_playlist13" in="4457" out="4460">
   <filter id="filter14">
    <property name="version">0,1</property>
    <property name="mlt_service">frei0r.glitch0r</property>
    <property name="kdenlive_id">frei0r.glitch0r</property>
    <property name="tag">frei0r.glitch0r</property>
    <property name="kdenlive_ix">1</property>
    <property name="kdenlive_info"/>
    <property name="disable"/>
    <property name="0">0,571</property>
    <property name="1">0,015</property>
    <property name="2">0,016</property>
    <property name="3">0</property>
   </filter>
   <filter id="filter15">
    <property name="version">0,9</property>
    <property name="mlt_service">frei0r.rgbnoise</property>
    <property name="kdenlive_id">frei0r.rgbnoise</property>
    <property name="tag">frei0r.rgbnoise</property>
    <property name="kdenlive_ix">2</property>
    <property name="kdenlive_info"/>
    <property name="disable"/>
    <property name="0">0,15</property>
   </filter>
  </entry>
  <entry producer="9_playlist13" in="4461" out="4476"/>
  <entry producer="9_playlist13" in="4477" out="4478">
   <filter id="filter16">
    <property name="version">0,1</property>
    <property name="mlt_service">frei0r.glitch0r</property>
    <property name="kdenlive_id">frei0r.glitch0r</property>
    <property name="tag">frei0r.glitch0r</property>
    <property name="kdenlive_ix">1</property>
    <property name="kdenlive_info"/>
    <property name="disable"/>
    <property name="0">0,571</property>
    <property name="1">0,005</property>
    <property name="2">0,008</property>
    <property name="3">0</property>
   </filter>
  </entry>
  <entry producer="9_playlist13" in="4479" out="4499"/>
  <entry producer="9_playlist13" in="4500" out="4501">
   <filter id="filter17">
    <property name="version">0,1</property>
    <property name="mlt_service">frei0r.glitch0r</property>
    <property name="kdenlive_id">frei0r.glitch0r</property>
    <property name="tag">frei0r.glitch0r</property>
    <property name="kdenlive_ix">1</property>
    <property name="kdenlive_info"/>
    <property name="disable"/>
    <property name="0">0,571</property>
    <property name="1">0,019</property>
    <property name="2">0,015</property>
    <property name="3">0</property>
   </filter>
   <filter id="filter18">
    <property name="version">0,9</property>
    <property name="mlt_service">frei0r.rgbnoise</property>
    <property name="kdenlive_id">frei0r.rgbnoise</property>
    <property name="tag">frei0r.rgbnoise</property>
    <property name="kdenlive_ix">2</property>
    <property name="kdenlive_info"/>
    <property name="disable"/>
    <property name="0">0,15</property>
   </filter>
  </entry>
  <filter id="filter21">
   <property name="version">0,1</property>
   <property name="mlt_service">frei0r.letterb0xed</property>
   <property name="kdenlive_id">frei0r.letterb0xed</property>
   <property name="tag">frei0r.letterb0xed</property>
   <property name="kdenlive_ix">1</property>
   <property name="kdenlive_info">0/-1/</property>
   <property name="disable">0</property>
   <property name="Border Width">0,33</property>
   <property name="Transparency">0</property>
  </filter>
 </playlist>
 <playlist id="playlist26">
  <property name="kdenlive:track_name">Vidéo 7</property>
 </playlist>
 <producer title="Anonymous Submission" id="58_playlist24" in="0" out="287">
  <property name="length">00:00:12:00</property>
  <property name="eof">pause</property>
  <property name="resource">/home/bordun/Clip01_SnapshatAuHarem/title.mkv</property>
  <property name="audio_index">1</property>
  <property name="video_index">0</property>
  <property name="mute_on_pause">1</property>
  <property name="mlt_service">avformat-novalidate</property>
  <property name="seekable">1</property>
  <property name="aspect_ratio">1</property>
  <property name="kdenlive:file_size">319609030</property>
  <property name="kdenlive:file_hash">bdf802942b2ad215013acb27b87e951d</property>
  <property name="global_feed">1</property>
  <property name="xml">was here</property>
  <property name="meta.media.nb_streams">2</property>
  <property name="meta.media.0.stream.type">video</property>
  <property name="meta.media.0.stream.frame_rate">24</property>
  <property name="meta.media.0.stream.sample_aspect_ratio">1</property>
  <property name="meta.media.0.codec.width">1920</property>
  <property name="meta.media.0.codec.height">1080</property>
  <property name="meta.media.0.codec.rotate">0</property>
  <property name="meta.media.0.codec.frame_rate">1000</property>
  <property name="meta.media.0.codec.pix_fmt">yuv422p</property>
  <property name="meta.media.0.codec.sample_aspect_ratio">0</property>
  <property name="meta.media.0.codec.colorspace">709</property>
  <property name="meta.media.0.codec.color_trc">1</property>
  <property name="meta.media.0.codec.name">ffv1</property>
  <property name="meta.media.0.codec.long_name">FFmpeg video codec #1</property>
  <property name="meta.media.0.codec.bit_rate">0</property>
  <property name="meta.attr.0.stream.DURATION.markup">00:00:12,000000000</property>
  <property name="meta.media.1.stream.type">audio</property>
  <property name="meta.media.1.codec.sample_fmt">s16</property>
  <property name="meta.media.1.codec.sample_rate">48000</property>
  <property name="meta.media.1.codec.channels">2</property>
  <property name="meta.media.1.codec.name">flac</property>
  <property name="meta.media.1.codec.long_name">FLAC (Free Lossless Audio Codec)</property>
  <property name="meta.media.1.codec.bit_rate">0</property>
  <property name="meta.attr.1.stream.DURATION.markup">00:00:12,000000000</property>
  <property name="meta.attr.ENCODER.markup">Lavf58.12.100</property>
  <property name="meta.media.sample_aspect_num">1</property>
  <property name="meta.media.sample_aspect_den">1</property>
  <property name="meta.media.frame_rate_num">24</property>
  <property name="meta.media.frame_rate_den">1</property>
  <property name="meta.media.colorspace">709</property>
  <property name="meta.media.color_trc">1</property>
  <property name="meta.media.width">1920</property>
  <property name="meta.media.height">1080</property>
  <property name="meta.media.top_field_first">0</property>
  <property name="meta.media.progressive">1</property>
  <filter id="filter5" out="287">
   <property name="background">colour:0x00000000</property>
   <property name="mlt_service">affine</property>
   <property name="kdenlive_id">pan_zoom</property>
   <property name="tag">affine</property>
   <property name="kdenlive_ix">1</property>
   <property name="kdenlive:sync_in_out">1</property>
   <property name="kdenlive_info"/>
   <property name="transition.geometry">0/-60:1920x1080:100</property>
   <property name="transition.distort">0</property>
  </filter>
 </producer>
 <playlist id="playlist24">
  <property name="kdenlive:track_name">splah 3</property>
  <blank length="1480"/>
  <entry producer="58_playlist24" in="0" out="287">
   <filter id="frei0r.softglow">
    <property name="version">0,9</property>
    <property name="mlt_service">frei0r.softglow</property>
    <property name="kdenlive_id">frei0r.softglow</property>
    <property name="tag">frei0r.softglow</property>
    <property name="kdenlive_info"/>
    <property name="kdenlive_ix">1</property>
    <property name="disable">0</property>
    <property name="0">0,517</property>
    <property name="1">0</property>
    <property name="2">0,833</property>
    <property name="3">1</property>
   </filter>
  </entry>
  <filter id="frei0r.levels">
   <property name="version">0,3</property>
   <property name="mlt_service">frei0r.levels</property>
   <property name="kdenlive_id">frei0r.levels</property>
   <property name="tag">frei0r.levels</property>
   <property name="kdenlive_ix">1</property>
   <property name="kdenlive_info">0/-1/</property>
   <property name="Channel">0,3</property>
   <property name="Input black level">0=0</property>
   <property name="Input white level">0=1</property>
   <property name="Gamma">0=0,15625</property>
   <property name="Black output">0=0,185</property>
   <property name="White output">0=0,798</property>
   <property name="Show histogram">0</property>
   <property name="Histogram position">0,3</property>
  </filter>
  <filter id="frei0r.colortap">
   <property name="version">0,9</property>
   <property name="mlt_service">frei0r.colortap</property>
   <property name="kdenlive_id">frei0r.colortap</property>
   <property name="tag">frei0r.colortap</property>
   <property name="kdenlive_ix">2</property>
   <property name="kdenlive_info"/>
   <property name="table">xpro</property>
  </filter>
  <filter id="filter11">
   <property name="version">0,1</property>
   <property name="mlt_service">frei0r.letterb0xed</property>
   <property name="kdenlive_id">frei0r.letterb0xed</property>
   <property name="tag">frei0r.letterb0xed</property>
   <property name="kdenlive_ix">3</property>
   <property name="kdenlive_info">0/-1/</property>
   <property name="disable">0</property>
   <property name="Border Width">0,33</property>
   <property name="Transparency">0</property>
  </filter>
  <filter id="tcolor">
   <property name="oversaturate_cr">-36</property>
   <property name="oversaturate_cb">190</property>
   <property name="mlt_service">tcolor</property>
   <property name="kdenlive_id">tcolor</property>
   <property name="tag">tcolor</property>
   <property name="kdenlive_ix">4</property>
   <property name="kdenlive_info"/>
   <property name="disable">1</property>
  </filter>
 </playlist>
 <producer title="Anonymous Submission" id="58_playlist23" in="0" out="287">
  <property name="length">00:00:12:00</property>
  <property name="eof">pause</property>
  <property name="resource">/home/bordun/Clip01_SnapshatAuHarem/title.mkv</property>
  <property name="audio_index">1</property>
  <property name="video_index">0</property>
  <property name="mute_on_pause">1</property>
  <property name="mlt_service">avformat-novalidate</property>
  <property name="seekable">1</property>
  <property name="aspect_ratio">1</property>
  <property name="kdenlive:file_size">319609030</property>
  <property name="kdenlive:file_hash">bdf802942b2ad215013acb27b87e951d</property>
  <property name="global_feed">1</property>
  <property name="xml">was here</property>
  <property name="meta.media.nb_streams">2</property>
  <property name="meta.media.0.stream.type">video</property>
  <property name="meta.media.0.stream.frame_rate">24</property>
  <property name="meta.media.0.stream.sample_aspect_ratio">1</property>
  <property name="meta.media.0.codec.width">1920</property>
  <property name="meta.media.0.codec.height">1080</property>
  <property name="meta.media.0.codec.rotate">0</property>
  <property name="meta.media.0.codec.frame_rate">1000</property>
  <property name="meta.media.0.codec.pix_fmt">yuv422p</property>
  <property name="meta.media.0.codec.sample_aspect_ratio">0</property>
  <property name="meta.media.0.codec.colorspace">709</property>
  <property name="meta.media.0.codec.color_trc">1</property>
  <property name="meta.media.0.codec.name">ffv1</property>
  <property name="meta.media.0.codec.long_name">FFmpeg video codec #1</property>
  <property name="meta.media.0.codec.bit_rate">0</property>
  <property name="meta.attr.0.stream.DURATION.markup">00:00:12,000000000</property>
  <property name="meta.media.1.stream.type">audio</property>
  <property name="meta.media.1.codec.sample_fmt">s16</property>
  <property name="meta.media.1.codec.sample_rate">48000</property>
  <property name="meta.media.1.codec.channels">2</property>
  <property name="meta.media.1.codec.name">flac</property>
  <property name="meta.media.1.codec.long_name">FLAC (Free Lossless Audio Codec)</property>
  <property name="meta.media.1.codec.bit_rate">0</property>
  <property name="meta.attr.1.stream.DURATION.markup">00:00:12,000000000</property>
  <property name="meta.attr.ENCODER.markup">Lavf58.12.100</property>
  <property name="meta.media.sample_aspect_num">1</property>
  <property name="meta.media.sample_aspect_den">1</property>
  <property name="meta.media.frame_rate_num">24</property>
  <property name="meta.media.frame_rate_den">1</property>
  <property name="meta.media.colorspace">709</property>
  <property name="meta.media.color_trc">1</property>
  <property name="meta.media.width">1920</property>
  <property name="meta.media.height">1080</property>
  <property name="meta.media.top_field_first">0</property>
  <property name="meta.media.progressive">1</property>
  <filter id="filter19" out="287">
   <property name="background">colour:0x00000000</property>
   <property name="mlt_service">affine</property>
   <property name="kdenlive_id">pan_zoom</property>
   <property name="tag">affine</property>
   <property name="kdenlive_ix">1</property>
   <property name="kdenlive:sync_in_out">1</property>
   <property name="kdenlive_info"/>
   <property name="transition.geometry">0/-60:1920x1080:100</property>
   <property name="transition.distort">0</property>
  </filter>
 </producer>
 <playlist id="playlist23">
  <property name="kdenlive:track_name">splash 2</property>
  <blank length="1480"/>
  <entry producer="58_playlist23" in="0" out="287">
   <filter id="filter22">
    <property name="version">0,9</property>
    <property name="mlt_service">frei0r.softglow</property>
    <property name="kdenlive_id">frei0r.softglow</property>
    <property name="tag">frei0r.softglow</property>
    <property name="kdenlive_info"/>
    <property name="kdenlive_ix">1</property>
    <property name="disable">0</property>
    <property name="0">0,078</property>
    <property name="1">0,291</property>
    <property name="2">0,078</property>
    <property name="3">0,9</property>
   </filter>
  </entry>
  <filter id="filter23">
   <property name="version">0,9</property>
   <property name="mlt_service">frei0r.colortap</property>
   <property name="kdenlive_id">frei0r.colortap</property>
   <property name="tag">frei0r.colortap</property>
   <property name="kdenlive_ix">1</property>
   <property name="kdenlive_info">0/-1/</property>
   <property name="disable">0</property>
   <property name="table">xpro</property>
  </filter>
  <filter id="filter24">
   <property name="version">0,1</property>
   <property name="mlt_service">frei0r.letterb0xed</property>
   <property name="kdenlive_id">frei0r.letterb0xed</property>
   <property name="tag">frei0r.letterb0xed</property>
   <property name="kdenlive_ix">2</property>
   <property name="kdenlive_info">0/-1/</property>
   <property name="disable">0</property>
   <property name="Border Width">0,33</property>
   <property name="Transparency">0</property>
  </filter>
 </playlist>
 <playlist id="playlist17">
  <property name="kdenlive:track_name">Vidéo 5</property>
  <blank length="782"/>
  <entry producer="23" in="0" out="201"/>
 </playlist>
 <producer title="Anonymous Submission" id="9_playlist11" in="0" out="5809">
  <property name="length">00:04:02:02</property>
  <property name="eof">pause</property>
  <property name="resource">/media/bordun/Odile/SnapshatAuHarem/etalo/CAM2_2017-11-25_0823_C0011.mov</property>
  <property name="audio_index">2</property>
  <property name="video_index">0</property>
  <property name="mute_on_pause">1</property>
  <property name="mlt_service">avformat-novalidate</property>
  <property name="seekable">1</property>
  <property name="aspect_ratio">1</property>
  <property name="kdenlive:folderid">-1</property>
  <property name="kdenlive:file_size">5401146337</property>
  <property name="kdenlive:file_hash">0e80b31f91ba766cf6d5cc0ec3c08cfb</property>
  <property name="proxy_out">5809</property>
  <property name="kdenlive:originalurl">/media/joris/1TO_RUSHS/_Plagiat/Dimanche_soir/CAM2_2017-11-25_0823_C0011.mov</property>
  <property name="kdenlive:zone_in">2067</property>
  <property name="kdenlive:zone_out">2140</property>
  <property name="global_feed">1</property>
  <property name="xml">was here</property>
  <property name="meta.media.nb_streams">2</property>
  <property name="meta.media.1.stream.type">video</property>
  <property name="meta.media.1.stream.frame_rate">24</property>
  <property name="meta.media.1.stream.sample_aspect_ratio">1</property>
  <property name="meta.media.1.codec.width">1920</property>
  <property name="meta.media.1.codec.height">1080</property>
  <property name="meta.media.1.codec.rotate">0</property>
  <property name="meta.media.1.codec.frame_rate">2400</property>
  <property name="meta.media.1.codec.pix_fmt">yuv422p10le</property>
  <property name="meta.media.1.codec.sample_aspect_ratio">0</property>
  <property name="meta.media.1.codec.colorspace">709</property>
  <property name="meta.media.1.codec.color_trc">1</property>
  <property name="meta.media.1.codec.name">prores</property>
  <property name="meta.media.1.codec.long_name">ProRes</property>
  <property name="meta.media.1.codec.bit_rate">176139060</property>
  <property name="meta.attr.1.stream.creation_time.markup">2017-11-25T08:23:03.000000Z</property>
  <property name="meta.attr.1.stream.language.markup">eng</property>
  <property name="meta.attr.1.stream.handler_name.markup">Apple Alias Data Handler</property>
  <property name="meta.attr.1.stream.encoder.markup">Apple ProRes 422 HQ</property>
  <property name="meta.attr.1.stream.timecode.markup">08:23:03:08</property>
  <property name="meta.media.2.stream.type">audio</property>
  <property name="meta.media.2.codec.sample_fmt">s32</property>
  <property name="meta.media.2.codec.sample_rate">48000</property>
  <property name="meta.media.2.codec.channels">2</property>
  <property name="meta.media.2.codec.name">pcm_s24le</property>
  <property name="meta.media.2.codec.long_name">PCM signed 24-bit little-endian</property>
  <property name="meta.media.2.codec.bit_rate">2304000</property>
  <property name="meta.attr.2.stream.creation_time.markup">2017-11-25T08:23:03.000000Z</property>
  <property name="meta.attr.2.stream.language.markup">eng</property>
  <property name="meta.attr.2.stream.handler_name.markup">Apple Alias Data Handler</property>
  <property name="meta.attr.2.stream.timecode.markup">08:23:03:08</property>
  <property name="meta.attr.com.apple.proapps.manufacturer.markup">Blackmagic Design</property>
  <property name="meta.attr.com.apple.proapps.cameraName.markup">CAM2</property>
  <property name="meta.attr.com.apple.proapps.isGood.markup">0</property>
  <property name="meta.attr.com.apple.proapps.customgamma.markup">com.blackmagic-design.cinemacamera.filmlog</property>
  <property name="meta.attr.com.blackmagic-design.cinemacamera.uuid.markup">18E5E00548F94923B646613A73C01B56</property>
  <property name="meta.attr.creation_time.markup">2017-11-25T08:23:03.000000Z</property>
  <property name="meta.attr.timecode.markup">08:23:03:08</property>
  <property name="meta.media.sample_aspect_num">1</property>
  <property name="meta.media.sample_aspect_den">1</property>
  <property name="meta.media.frame_rate_num">24</property>
  <property name="meta.media.frame_rate_den">1</property>
  <property name="meta.media.colorspace">709</property>
  <property name="meta.media.color_trc">1</property>
  <property name="meta.media.width">1920</property>
  <property name="meta.media.height">1080</property>
  <property name="meta.media.top_field_first">0</property>
  <property name="meta.media.progressive">1</property>
  <property name="meta.media.0.stream.type">video</property>
  <property name="meta.media.0.stream.frame_rate">24</property>
  <property name="meta.media.0.stream.sample_aspect_ratio">1</property>
  <property name="meta.media.0.codec.width">1920</property>
  <property name="meta.media.0.codec.height">1080</property>
  <property name="meta.media.0.codec.rotate">0</property>
  <property name="meta.media.0.codec.frame_rate">12288</property>
  <property name="meta.media.0.codec.pix_fmt">yuv422p10le</property>
  <property name="meta.media.0.codec.sample_aspect_ratio">0</property>
  <property name="meta.media.0.codec.colorspace">709</property>
  <property name="meta.media.0.codec.color_trc">1</property>
  <property name="meta.media.0.codec.name">dnxhd</property>
  <property name="meta.media.0.codec.long_name">VC3/DNxHD</property>
  <property name="meta.media.0.codec.bit_rate">176160768</property>
  <property name="meta.attr.0.stream.language.markup">eng</property>
  <property name="meta.attr.0.stream.handler_name.markup">Core Media Data Handler</property>
  <property name="meta.attr.0.stream.timecode.markup">08:23:03:08</property>
  <property name="meta.attr.major_brand.markup">qt  </property>
  <property name="meta.attr.minor_version.markup">512</property>
  <property name="meta.attr.compatible_brands.markup">qt  </property>
  <property name="meta.attr.encoder.markup">Lavf57.25.100</property>
  <property name="force_colorspace"/>
 </producer>
 <producer id="slowmotion:9:4:1:0" in="0" out="1451">
  <property name="length">1452</property>
  <property name="eof">pause</property>
  <property name="resource">4:/media/bordun/Odile/SnapshatAuHarem/etalo/CAM2_2017-11-25_0823_C0011.mov</property>
  <property name="aspect_ratio">1</property>
  <property name="meta.media.nb_streams">2</property>
  <property name="meta.media.0.stream.type">video</property>
  <property name="meta.media.0.stream.frame_rate">24</property>
  <property name="meta.media.0.stream.sample_aspect_ratio">1</property>
  <property name="meta.media.0.codec.width">1920</property>
  <property name="meta.media.0.codec.height">1080</property>
  <property name="meta.media.0.codec.rotate">0</property>
  <property name="meta.media.0.codec.frame_rate">12288</property>
  <property name="meta.media.0.codec.pix_fmt">yuv422p10le</property>
  <property name="meta.media.0.codec.sample_aspect_ratio">0</property>
  <property name="meta.media.0.codec.colorspace">709</property>
  <property name="meta.media.0.codec.color_trc">1</property>
  <property name="meta.media.0.codec.name">dnxhd</property>
  <property name="meta.media.0.codec.long_name">VC3/DNxHD</property>
  <property name="meta.media.0.codec.bit_rate">176160768</property>
  <property name="meta.attr.0.stream.language.markup">eng</property>
  <property name="meta.attr.0.stream.handler_name.markup">Core Media Data Handler</property>
  <property name="meta.attr.0.stream.timecode.markup">08:23:03:08</property>
  <property name="meta.attr.major_brand.markup">qt  </property>
  <property name="meta.attr.minor_version.markup">512</property>
  <property name="meta.attr.compatible_brands.markup">qt  </property>
  <property name="meta.attr.encoder.markup">Lavf57.25.100</property>
  <property name="seekable">1</property>
  <property name="meta.media.sample_aspect_num">1</property>
  <property name="meta.media.sample_aspect_den">1</property>
  <property name="audio_index">2</property>
  <property name="video_index">0</property>
  <property name="mute_on_pause">1</property>
  <property name="warp_speed">4</property>
  <property name="warp_resource">/media/bordun/Odile/SnapshatAuHarem/etalo/CAM2_2017-11-25_0823_C0011.mov</property>
  <property name="mlt_service">timewarp</property>
  <property name="meta.media.1.stream.type">video</property>
  <property name="meta.media.1.stream.frame_rate">24</property>
  <property name="meta.media.1.stream.sample_aspect_ratio">1</property>
  <property name="meta.media.1.codec.width">1920</property>
  <property name="meta.media.1.codec.height">1080</property>
  <property name="meta.media.1.codec.rotate">0</property>
  <property name="meta.media.1.codec.frame_rate">2400</property>
  <property name="meta.media.1.codec.pix_fmt">yuv422p10le</property>
  <property name="meta.media.1.codec.sample_aspect_ratio">0</property>
  <property name="meta.media.1.codec.colorspace">709</property>
  <property name="meta.media.1.codec.color_trc">1</property>
  <property name="meta.media.1.codec.name">prores</property>
  <property name="meta.media.1.codec.long_name">ProRes</property>
  <property name="meta.media.1.codec.bit_rate">176139060</property>
  <property name="meta.attr.1.stream.creation_time.markup">2017-11-25T08:23:03.000000Z</property>
  <property name="meta.attr.1.stream.language.markup">eng</property>
  <property name="meta.attr.1.stream.handler_name.markup">Apple Alias Data Handler</property>
  <property name="meta.attr.1.stream.encoder.markup">Apple ProRes 422 HQ</property>
  <property name="meta.attr.1.stream.timecode.markup">08:23:03:08</property>
  <property name="meta.media.2.stream.type">audio</property>
  <property name="meta.media.2.codec.sample_fmt">s32</property>
  <property name="meta.media.2.codec.sample_rate">48000</property>
  <property name="meta.media.2.codec.channels">2</property>
  <property name="meta.media.2.codec.name">pcm_s24le</property>
  <property name="meta.media.2.codec.long_name">PCM signed 24-bit little-endian</property>
  <property name="meta.media.2.codec.bit_rate">2304000</property>
  <property name="meta.attr.2.stream.creation_time.markup">2017-11-25T08:23:03.000000Z</property>
  <property name="meta.attr.2.stream.language.markup">eng</property>
  <property name="meta.attr.2.stream.handler_name.markup">Apple Alias Data Handler</property>
  <property name="meta.attr.2.stream.timecode.markup">08:23:03:08</property>
  <property name="meta.attr.com.apple.proapps.manufacturer.markup">Blackmagic Design</property>
  <property name="meta.attr.com.apple.proapps.cameraName.markup">CAM2</property>
  <property name="meta.attr.com.apple.proapps.isGood.markup">0</property>
  <property name="meta.attr.com.apple.proapps.customgamma.markup">com.blackmagic-design.cinemacamera.filmlog</property>
  <property name="meta.attr.com.blackmagic-design.cinemacamera.uuid.markup">18E5E00548F94923B646613A73C01B56</property>
  <property name="meta.attr.creation_time.markup">2017-11-25T08:23:03.000000Z</property>
  <property name="meta.attr.timecode.markup">08:23:03:08</property>
  <property name="kdenlive:originalurl">/media/joris/1TO_RUSHS/_Plagiat/Dimanche_soir/CAM2_2017-11-25_0823_C0011.mov</property>
  <property name="meta.media.frame_rate_num">24</property>
  <property name="meta.media.frame_rate_den">1</property>
  <property name="meta.media.colorspace">709</property>
  <property name="meta.media.color_trc">1</property>
  <property name="meta.media.width">1920</property>
  <property name="meta.media.height">1080</property>
  <property name="meta.media.top_field_first">0</property>
  <property name="meta.media.progressive">1</property>
  <property name="force_colorspace"/>
 </producer>
 <producer id="slowmotion:9:3:1:0" in="0" out="1936">
  <property name="length">1937</property>
  <property name="eof">pause</property>
  <property name="resource">3:/media/bordun/Odile/SnapshatAuHarem/etalo/CAM2_2017-11-25_0823_C0011.mov</property>
  <property name="aspect_ratio">1</property>
  <property name="meta.media.nb_streams">2</property>
  <property name="meta.media.0.stream.type">video</property>
  <property name="meta.media.0.stream.frame_rate">24</property>
  <property name="meta.media.0.stream.sample_aspect_ratio">1</property>
  <property name="meta.media.0.codec.width">1920</property>
  <property name="meta.media.0.codec.height">1080</property>
  <property name="meta.media.0.codec.rotate">0</property>
  <property name="meta.media.0.codec.frame_rate">12288</property>
  <property name="meta.media.0.codec.pix_fmt">yuv422p10le</property>
  <property name="meta.media.0.codec.sample_aspect_ratio">0</property>
  <property name="meta.media.0.codec.colorspace">709</property>
  <property name="meta.media.0.codec.color_trc">1</property>
  <property name="meta.media.0.codec.name">dnxhd</property>
  <property name="meta.media.0.codec.long_name">VC3/DNxHD</property>
  <property name="meta.media.0.codec.bit_rate">176160768</property>
  <property name="meta.attr.0.stream.language.markup">eng</property>
  <property name="meta.attr.0.stream.handler_name.markup">Core Media Data Handler</property>
  <property name="meta.attr.0.stream.timecode.markup">08:23:03:08</property>
  <property name="meta.attr.major_brand.markup">qt  </property>
  <property name="meta.attr.minor_version.markup">512</property>
  <property name="meta.attr.compatible_brands.markup">qt  </property>
  <property name="meta.attr.encoder.markup">Lavf57.25.100</property>
  <property name="seekable">1</property>
  <property name="meta.media.sample_aspect_num">1</property>
  <property name="meta.media.sample_aspect_den">1</property>
  <property name="audio_index">2</property>
  <property name="video_index">0</property>
  <property name="mute_on_pause">1</property>
  <property name="warp_speed">3</property>
  <property name="warp_resource">/media/bordun/Odile/SnapshatAuHarem/etalo/CAM2_2017-11-25_0823_C0011.mov</property>
  <property name="mlt_service">timewarp</property>
  <property name="meta.media.1.stream.type">video</property>
  <property name="meta.media.1.stream.frame_rate">24</property>
  <property name="meta.media.1.stream.sample_aspect_ratio">1</property>
  <property name="meta.media.1.codec.width">1920</property>
  <property name="meta.media.1.codec.height">1080</property>
  <property name="meta.media.1.codec.rotate">0</property>
  <property name="meta.media.1.codec.frame_rate">2400</property>
  <property name="meta.media.1.codec.pix_fmt">yuv422p10le</property>
  <property name="meta.media.1.codec.sample_aspect_ratio">0</property>
  <property name="meta.media.1.codec.colorspace">709</property>
  <property name="meta.media.1.codec.color_trc">1</property>
  <property name="meta.media.1.codec.name">prores</property>
  <property name="meta.media.1.codec.long_name">ProRes</property>
  <property name="meta.media.1.codec.bit_rate">176139060</property>
  <property name="meta.attr.1.stream.creation_time.markup">2017-11-25T08:23:03.000000Z</property>
  <property name="meta.attr.1.stream.language.markup">eng</property>
  <property name="meta.attr.1.stream.handler_name.markup">Apple Alias Data Handler</property>
  <property name="meta.attr.1.stream.encoder.markup">Apple ProRes 422 HQ</property>
  <property name="meta.attr.1.stream.timecode.markup">08:23:03:08</property>
  <property name="meta.media.2.stream.type">audio</property>
  <property name="meta.media.2.codec.sample_fmt">s32</property>
  <property name="meta.media.2.codec.sample_rate">48000</property>
  <property name="meta.media.2.codec.channels">2</property>
  <property name="meta.media.2.codec.name">pcm_s24le</property>
  <property name="meta.media.2.codec.long_name">PCM signed 24-bit little-endian</property>
  <property name="meta.media.2.codec.bit_rate">2304000</property>
  <property name="meta.attr.2.stream.creation_time.markup">2017-11-25T08:23:03.000000Z</property>
  <property name="meta.attr.2.stream.language.markup">eng</property>
  <property name="meta.attr.2.stream.handler_name.markup">Apple Alias Data Handler</property>
  <property name="meta.attr.2.stream.timecode.markup">08:23:03:08</property>
  <property name="meta.attr.com.apple.proapps.manufacturer.markup">Blackmagic Design</property>
  <property name="meta.attr.com.apple.proapps.cameraName.markup">CAM2</property>
  <property name="meta.attr.com.apple.proapps.isGood.markup">0</property>
  <property name="meta.attr.com.apple.proapps.customgamma.markup">com.blackmagic-design.cinemacamera.filmlog</property>
  <property name="meta.attr.com.blackmagic-design.cinemacamera.uuid.markup">18E5E00548F94923B646613A73C01B56</property>
  <property name="meta.attr.creation_time.markup">2017-11-25T08:23:03.000000Z</property>
  <property name="meta.attr.timecode.markup">08:23:03:08</property>
  <property name="kdenlive:originalurl">/media/joris/1TO_RUSHS/_Plagiat/Dimanche_soir/CAM2_2017-11-25_0823_C0011.mov</property>
  <property name="meta.media.frame_rate_num">24</property>
  <property name="meta.media.frame_rate_den">1</property>
  <property name="meta.media.colorspace">709</property>
  <property name="meta.media.color_trc">1</property>
  <property name="meta.media.width">1920</property>
  <property name="meta.media.height">1080</property>
  <property name="meta.media.top_field_first">0</property>
  <property name="meta.media.progressive">1</property>
  <property name="force_colorspace"/>
 </producer>
 <playlist id="playlist11">
  <property name="kdenlive:track_name">Couleur entrée</property>
  <blank length="782"/>
  <entry producer="9_playlist11" in="1269" out="1470">
   <filter id="filter39">
    <property name="background">colour:0x00000000</property>
    <property name="mlt_service">affine</property>
    <property name="kdenlive_id">pan_zoom</property>
    <property name="tag">affine</property>
    <property name="kdenlive_ix">1</property>
    <property name="kdenlive_info">1/-1/</property>
    <property name="disable">0</property>
    <property name="transition.geometry">0=0/16:1920x1080:100;24=0/27:1920x1080:100;48=0/35:1920x1080:100;58=0/39:1920x1080:100;80=0/-16:1920x1080:100;94=0/-28:1920x1080:100;103=0/-35:1920x1080:100;118=0/-9:1920x1080:100</property>
    <property name="transition.distort">0</property>
   </filter>
   <filter id="filter40">
    <property name="background">colour:0x00000000</property>
    <property name="mlt_service">affine</property>
    <property name="kdenlive_id">pan_zoom</property>
    <property name="tag">affine</property>
    <property name="kdenlive_ix">2</property>
    <property name="kdenlive_info">1/-1/</property>
    <property name="disable">0</property>
    <property name="transition.geometry">0/-11:1958x1102:100</property>
    <property name="transition.distort">0</property>
   </filter>
   <filter id="frei0r.alphaspot">
    <property name="version">0,1</property>
    <property name="mlt_service">frei0r.alphaspot</property>
    <property name="kdenlive_id">frei0r.alphaspot</property>
    <property name="tag">frei0r.alphaspot</property>
    <property name="kdenlive_ix">3</property>
    <property name="kdenlive_info">0/-1/</property>
    <property name="disable">0</property>
    <property name="Shape">0,0</property>
    <property name="Position X">1269=0,487;1298=0,491;1321=0,495;1327=0,495;1330=0,495;1333=0,496;1345=0,502;1359=0,504;1373=0,499;1381=0,499;1390=0,496;1398=0,492;1402=0,483;1407=0,473;1414=0,434;1419=0,43;1421=0,464;1470=0,501</property>
    <property name="Position Y">1269=0,49;1298=0,479;1321=0,491;1327=0,492;1330=0,498;1333=0,499;1345=0,51;1359=0,51;1373=0,51;1381=0,51;1390=0,51;1398=0,51;1402=0,51;1407=0,51;1414=0,467;1419=0,488;1421=0,498;1470=0,51</property>
    <property name="Size X">1269=0,046;1298=0,054;1321=0,069;1327=0,073;1330=0,076;1333=0,077;1345=0,088;1359=0,104;1373=0,132;1381=0,155;1390=0,183;1398=0,227;1402=0,252;1407=0,291;1414=0,397;1419=0,516;1421=0,753;1470=1</property>
    <property name="Size Y">1269=0,199;1298=0,234;1321=0,277;1327=0,3;1330=0,308;1333=0,322;1345=0,404;1359=0,404;1373=0,404;1381=0,404;1390=0,404;1398=0,404;1402=0,488;1407=0,595;1414=0,501;1419=0,452;1421=0,428;1470=0,404</property>
    <property name="Tilt">1269=0,497;1298=0,498;1321=0,498;1327=0,497;1330=0,496;1333=0,496;1345=0,497;1359=0,498;1373=0,497;1381=0,497;1390=0,498;1398=0,497;1402=0,497;1407=0,498;1414=0,491;1419=0,486;1421=0,491;1470=0,498</property>
    <property name="Transition width">1269=1;1298=0,428;1321=0,012;1327=0,012;1330=0,012;1333=0,012;1345=0,012;1359=0,012;1373=0,039;1381=0,062;1390=0,07;1398=0,118;1402=0,091;1407=0,044;1414=0;1419=0;1421=0;1470=0</property>
    <property name="Min">1269=0;1298=0;1321=0;1327=0;1330=0;1333=0;1345=0;1359=0;1373=0;1381=0;1390=0;1398=0;1402=0;1407=0;1414=0;1419=0;1421=0;1470=0</property>
    <property name="Max">1269=1;1298=1;1321=1;1327=1;1330=1;1333=1;1345=1;1359=1;1373=1;1381=1;1390=1;1398=1;1402=1;1407=1;1414=1;1419=1;1421=1;1470=1</property>
    <property name="Operation">0,0</property>
   </filter>
  </entry>
  <blank length="22"/>
  <entry producer="9_playlist11" in="1493" out="1541"/>
  <entry producer="slowmotion:9:4:1:0" in="386" out="398"/>
  <entry producer="9_playlist11" in="1593" out="1603"/>
  <entry producer="9_playlist11" in="1604" out="1613"/>
  <entry producer="slowmotion:9:3:1:0" in="540" out="553"/>
  <entry producer="slowmotion:9:0,7:1:0" in="2374" out="2395"/>
  <filter id="frei0r.saturat0r">
   <property name="version">0,3</property>
   <property name="mlt_service">frei0r.saturat0r</property>
   <property name="kdenlive_id">frei0r.saturat0r</property>
   <property name="tag">frei0r.saturat0r</property>
   <property name="kdenlive_ix">1</property>
   <property name="kdenlive_info">0/-1/</property>
   <property name="Saturation">0=0,001;844=0,001;961=0,125</property>
   <property name="disable">0</property>
  </filter>
  <filter id="filter3">
   <property name="version">0,1</property>
   <property name="mlt_service">frei0r.letterb0xed</property>
   <property name="kdenlive_id">frei0r.letterb0xed</property>
   <property name="tag">frei0r.letterb0xed</property>
   <property name="kdenlive_ix">2</property>
   <property name="kdenlive_info">0/-1/</property>
   <property name="disable">0</property>
   <property name="Border Width">0,33</property>
   <property name="Transparency">0</property>
  </filter>
 </playlist>
 <producer title="Anonymous Submission" id="9_playlist8" in="0" out="5809">
  <property name="length">00:04:02:02</property>
  <property name="eof">pause</property>
  <property name="resource">/media/bordun/Odile/SnapshatAuHarem/etalo/CAM2_2017-11-25_0823_C0011.mov</property>
  <property name="audio_index">2</property>
  <property name="video_index">0</property>
  <property name="mute_on_pause">1</property>
  <property name="mlt_service">avformat-novalidate</property>
  <property name="seekable">1</property>
  <property name="aspect_ratio">1</property>
  <property name="kdenlive:folderid">-1</property>
  <property name="kdenlive:file_size">5401146337</property>
  <property name="kdenlive:file_hash">0e80b31f91ba766cf6d5cc0ec3c08cfb</property>
  <property name="proxy_out">5809</property>
  <property name="kdenlive:originalurl">/media/joris/1TO_RUSHS/_Plagiat/Dimanche_soir/CAM2_2017-11-25_0823_C0011.mov</property>
  <property name="kdenlive:zone_in">2067</property>
  <property name="kdenlive:zone_out">2140</property>
  <property name="global_feed">1</property>
  <property name="xml">was here</property>
  <property name="force_colorspace"/>
  <property name="meta.media.nb_streams">2</property>
  <property name="meta.media.0.stream.type">video</property>
  <property name="meta.media.0.stream.frame_rate">24</property>
  <property name="meta.media.0.stream.sample_aspect_ratio">1</property>
  <property name="meta.media.0.codec.width">1920</property>
  <property name="meta.media.0.codec.height">1080</property>
  <property name="meta.media.0.codec.rotate">0</property>
  <property name="meta.media.0.codec.frame_rate">12288</property>
  <property name="meta.media.0.codec.pix_fmt">yuv422p10le</property>
  <property name="meta.media.0.codec.sample_aspect_ratio">0</property>
  <property name="meta.media.0.codec.colorspace">709</property>
  <property name="meta.media.0.codec.color_trc">1</property>
  <property name="meta.media.0.codec.name">dnxhd</property>
  <property name="meta.media.0.codec.long_name">VC3/DNxHD</property>
  <property name="meta.media.0.codec.bit_rate">176160768</property>
  <property name="meta.attr.0.stream.language.markup">eng</property>
  <property name="meta.attr.0.stream.handler_name.markup">Core Media Data Handler</property>
  <property name="meta.attr.0.stream.timecode.markup">08:23:03:08</property>
  <property name="meta.attr.major_brand.markup">qt  </property>
  <property name="meta.attr.minor_version.markup">512</property>
  <property name="meta.attr.compatible_brands.markup">qt  </property>
  <property name="meta.attr.encoder.markup">Lavf57.25.100</property>
  <property name="meta.media.sample_aspect_num">1</property>
  <property name="meta.media.sample_aspect_den">1</property>
  <property name="meta.media.frame_rate_num">24</property>
  <property name="meta.media.frame_rate_den">1</property>
  <property name="meta.media.colorspace">709</property>
  <property name="meta.media.color_trc">1</property>
  <property name="meta.media.width">1920</property>
  <property name="meta.media.height">1080</property>
  <property name="meta.media.top_field_first">0</property>
  <property name="meta.media.progressive">1</property>
 </producer>
 <playlist id="playlist8">
  <property name="kdenlive:track_name">Couleur entrée 2</property>
  <blank length="1065"/>
  <entry producer="9_playlist8" in="1588" out="1603"/>
  <entry producer="9_playlist8" in="1604" out="1611"/>
  <blank length="13"/>
  <entry producer="slowmotion:9:0,7:1:0" in="2375" out="2397"/>
  <filter id="filter50">
   <property name="version">0,1</property>
   <property name="mlt_service">frei0r.letterb0xed</property>
   <property name="kdenlive_id">frei0r.letterb0xed</property>
   <property name="tag">frei0r.letterb0xed</property>
   <property name="kdenlive_ix">1</property>
   <property name="kdenlive_info">0/-1/</property>
   <property name="disable">0</property>
   <property name="Border Width">0,33</property>
   <property name="Transparency">0</property>
  </filter>
 </playlist>
 <producer title="Anonymous Submission" id="9_playlist3" in="0" out="5809">
  <property name="length">00:04:02:02</property>
  <property name="eof">pause</property>
  <property name="resource">/media/bordun/Odile/SnapshatAuHarem/etalo/CAM2_2017-11-25_0823_C0011.mov</property>
  <property name="audio_index">2</property>
  <property name="video_index">0</property>
  <property name="mute_on_pause">1</property>
  <property name="mlt_service">avformat-novalidate</property>
  <property name="seekable">1</property>
  <property name="aspect_ratio">1</property>
  <property name="kdenlive:folderid">-1</property>
  <property name="kdenlive:file_size">5401146337</property>
  <property name="kdenlive:file_hash">0e80b31f91ba766cf6d5cc0ec3c08cfb</property>
  <property name="proxy_out">5809</property>
  <property name="kdenlive:originalurl">/media/joris/1TO_RUSHS/_Plagiat/Dimanche_soir/CAM2_2017-11-25_0823_C0011.mov</property>
  <property name="kdenlive:zone_in">2067</property>
  <property name="kdenlive:zone_out">2140</property>
  <property name="global_feed">1</property>
  <property name="xml">was here</property>
  <property name="meta.media.nb_streams">2</property>
  <property name="meta.media.1.stream.type">video</property>
  <property name="meta.media.1.stream.frame_rate">24</property>
  <property name="meta.media.1.stream.sample_aspect_ratio">1</property>
  <property name="meta.media.1.codec.width">1920</property>
  <property name="meta.media.1.codec.height">1080</property>
  <property name="meta.media.1.codec.rotate">0</property>
  <property name="meta.media.1.codec.frame_rate">2400</property>
  <property name="meta.media.1.codec.pix_fmt">yuv422p10le</property>
  <property name="meta.media.1.codec.sample_aspect_ratio">0</property>
  <property name="meta.media.1.codec.colorspace">709</property>
  <property name="meta.media.1.codec.color_trc">1</property>
  <property name="meta.media.1.codec.name">prores</property>
  <property name="meta.media.1.codec.long_name">ProRes</property>
  <property name="meta.media.1.codec.bit_rate">176139060</property>
  <property name="meta.attr.1.stream.creation_time.markup">2017-11-25T08:23:03.000000Z</property>
  <property name="meta.attr.1.stream.language.markup">eng</property>
  <property name="meta.attr.1.stream.handler_name.markup">Apple Alias Data Handler</property>
  <property name="meta.attr.1.stream.encoder.markup">Apple ProRes 422 HQ</property>
  <property name="meta.attr.1.stream.timecode.markup">08:23:03:08</property>
  <property name="meta.media.2.stream.type">audio</property>
  <property name="meta.media.2.codec.sample_fmt">s32</property>
  <property name="meta.media.2.codec.sample_rate">48000</property>
  <property name="meta.media.2.codec.channels">2</property>
  <property name="meta.media.2.codec.name">pcm_s24le</property>
  <property name="meta.media.2.codec.long_name">PCM signed 24-bit little-endian</property>
  <property name="meta.media.2.codec.bit_rate">2304000</property>
  <property name="meta.attr.2.stream.creation_time.markup">2017-11-25T08:23:03.000000Z</property>
  <property name="meta.attr.2.stream.language.markup">eng</property>
  <property name="meta.attr.2.stream.handler_name.markup">Apple Alias Data Handler</property>
  <property name="meta.attr.2.stream.timecode.markup">08:23:03:08</property>
  <property name="meta.attr.com.apple.proapps.manufacturer.markup">Blackmagic Design</property>
  <property name="meta.attr.com.apple.proapps.cameraName.markup">CAM2</property>
  <property name="meta.attr.com.apple.proapps.isGood.markup">0</property>
  <property name="meta.attr.com.apple.proapps.customgamma.markup">com.blackmagic-design.cinemacamera.filmlog</property>
  <property name="meta.attr.com.blackmagic-design.cinemacamera.uuid.markup">18E5E00548F94923B646613A73C01B56</property>
  <property name="meta.attr.creation_time.markup">2017-11-25T08:23:03.000000Z</property>
  <property name="meta.attr.timecode.markup">08:23:03:08</property>
  <property name="meta.media.sample_aspect_num">1</property>
  <property name="meta.media.sample_aspect_den">1</property>
  <property name="meta.media.frame_rate_num">24</property>
  <property name="meta.media.frame_rate_den">1</property>
  <property name="meta.media.colorspace">709</property>
  <property name="meta.media.color_trc">1</property>
  <property name="meta.media.width">1920</property>
  <property name="meta.media.height">1080</property>
  <property name="meta.media.top_field_first">0</property>
  <property name="meta.media.progressive">1</property>
  <property name="meta.media.0.stream.type">video</property>
  <property name="meta.media.0.stream.frame_rate">24</property>
  <property name="meta.media.0.stream.sample_aspect_ratio">1</property>
  <property name="meta.media.0.codec.width">1920</property>
  <property name="meta.media.0.codec.height">1080</property>
  <property name="meta.media.0.codec.rotate">0</property>
  <property name="meta.media.0.codec.frame_rate">12288</property>
  <property name="meta.media.0.codec.pix_fmt">yuv422p10le</property>
  <property name="meta.media.0.codec.sample_aspect_ratio">0</property>
  <property name="meta.media.0.codec.colorspace">709</property>
  <property name="meta.media.0.codec.color_trc">1</property>
  <property name="meta.media.0.codec.name">dnxhd</property>
  <property name="meta.media.0.codec.long_name">VC3/DNxHD</property>
  <property name="meta.media.0.codec.bit_rate">176160768</property>
  <property name="meta.attr.0.stream.language.markup">eng</property>
  <property name="meta.attr.0.stream.handler_name.markup">Core Media Data Handler</property>
  <property name="meta.attr.0.stream.timecode.markup">08:23:03:08</property>
  <property name="meta.attr.major_brand.markup">qt  </property>
  <property name="meta.attr.minor_version.markup">512</property>
  <property name="meta.attr.compatible_brands.markup">qt  </property>
  <property name="meta.attr.encoder.markup">Lavf57.25.100</property>
  <property name="force_colorspace"/>
 </producer>
 <producer id="slowmotion:14:0,3:1:0" in="0" out="9607">
  <property name="length">9608</property>
  <property name="eof">pause</property>
  <property name="resource">0,3:/media/bordun/Odile/SnapshatAuHarem/etalo/CAM2_2017-11-25_0941_C0001.mov</property>
  <property name="aspect_ratio">1</property>
  <property name="meta.media.nb_streams">2</property>
  <property name="meta.media.0.stream.type">video</property>
  <property name="meta.media.0.stream.frame_rate">60</property>
  <property name="meta.media.0.stream.sample_aspect_ratio">1</property>
  <property name="meta.media.0.codec.width">1920</property>
  <property name="meta.media.0.codec.height">1080</property>
  <property name="meta.media.0.codec.rotate">0</property>
  <property name="meta.media.0.codec.frame_rate">15360</property>
  <property name="meta.media.0.codec.pix_fmt">yuv422p10le</property>
  <property name="meta.media.0.codec.sample_aspect_ratio">0</property>
  <property name="meta.media.0.codec.colorspace">709</property>
  <property name="meta.media.0.codec.color_trc">1</property>
  <property name="meta.media.0.codec.name">dnxhd</property>
  <property name="meta.media.0.codec.long_name">VC3/DNxHD</property>
  <property name="meta.media.0.codec.bit_rate">440401920</property>
  <property name="meta.attr.0.stream.language.markup">eng</property>
  <property name="meta.attr.0.stream.handler_name.markup">Core Media Data Handler</property>
  <property name="meta.attr.0.stream.timecode.markup">09:41:37:09</property>
  <property name="meta.attr.major_brand.markup">qt  </property>
  <property name="meta.attr.minor_version.markup">512</property>
  <property name="meta.attr.compatible_brands.markup">qt  </property>
  <property name="meta.attr.encoder.markup">Lavf57.25.100</property>
  <property name="seekable">1</property>
  <property name="meta.media.sample_aspect_num">1</property>
  <property name="meta.media.sample_aspect_den">1</property>
  <property name="audio_index">2</property>
  <property name="video_index">0</property>
  <property name="mute_on_pause">1</property>
  <property name="warp_speed">0,3</property>
  <property name="warp_resource">/media/bordun/Odile/SnapshatAuHarem/etalo/CAM2_2017-11-25_0941_C0001.mov</property>
  <property name="mlt_service">timewarp</property>
  <property name="meta.media.1.stream.type">video</property>
  <property name="meta.media.1.stream.frame_rate">60</property>
  <property name="meta.media.1.stream.sample_aspect_ratio">1</property>
  <property name="meta.media.1.codec.width">1920</property>
  <property name="meta.media.1.codec.height">1080</property>
  <property name="meta.media.1.codec.rotate">0</property>
  <property name="meta.media.1.codec.frame_rate">6000</property>
  <property name="meta.media.1.codec.pix_fmt">yuv422p10le</property>
  <property name="meta.media.1.codec.sample_aspect_ratio">0</property>
  <property name="meta.media.1.codec.colorspace">709</property>
  <property name="meta.media.1.codec.color_trc">1</property>
  <property name="meta.media.1.codec.name">prores</property>
  <property name="meta.media.1.codec.long_name">ProRes</property>
  <property name="meta.media.1.codec.bit_rate">440346156</property>
  <property name="meta.attr.1.stream.creation_time.markup">2017-11-25T09:41:37.000000Z</property>
  <property name="meta.attr.1.stream.language.markup">eng</property>
  <property name="meta.attr.1.stream.handler_name.markup">Apple Alias Data Handler</property>
  <property name="meta.attr.1.stream.encoder.markup">Apple ProRes 422 HQ</property>
  <property name="meta.attr.1.stream.timecode.markup">09:41:37:09</property>
  <property name="meta.media.2.stream.type">audio</property>
  <property name="meta.media.2.codec.sample_fmt">s32</property>
  <property name="meta.media.2.codec.sample_rate">48000</property>
  <property name="meta.media.2.codec.channels">2</property>
  <property name="meta.media.2.codec.name">pcm_s24le</property>
  <property name="meta.media.2.codec.long_name">PCM signed 24-bit little-endian</property>
  <property name="meta.media.2.codec.bit_rate">2304000</property>
  <property name="meta.attr.2.stream.creation_time.markup">2017-11-25T09:41:37.000000Z</property>
  <property name="meta.attr.2.stream.language.markup">eng</property>
  <property name="meta.attr.2.stream.handler_name.markup">Apple Alias Data Handler</property>
  <property name="meta.attr.2.stream.timecode.markup">09:41:37:09</property>
  <property name="meta.attr.com.apple.proapps.manufacturer.markup">Blackmagic Design</property>
  <property name="meta.attr.com.apple.proapps.cameraName.markup">CAM2</property>
  <property name="meta.attr.com.apple.proapps.isGood.markup">0</property>
  <property name="meta.attr.com.apple.proapps.customgamma.markup">com.blackmagic-design.cinemacamera.filmlog</property>
  <property name="meta.attr.com.blackmagic-design.cinemacamera.uuid.markup">18E5E00548F94923B646613A73C01B56</property>
  <property name="meta.attr.creation_time.markup">2017-11-25T09:41:37.000000Z</property>
  <property name="meta.attr.timecode.markup">09:41:37:09</property>
  <property name="kdenlive:originalurl">/media/joris/1TO_RUSHS/_Plagiat/Dimanche_soir/CAM2_2017-11-25_0941_C0001.mov</property>
  <property name="meta.media.frame_rate_num">60</property>
  <property name="meta.media.frame_rate_den">1</property>
  <property name="meta.media.colorspace">709</property>
  <property name="meta.media.color_trc">1</property>
  <property name="meta.media.width">1920</property>
  <property name="meta.media.height">1080</property>
  <property name="meta.media.top_field_first">0</property>
  <property name="meta.media.progressive">1</property>
  <property name="force_colorspace"/>
  <filter id="filter51">
   <property name="version">0,9</property>
   <property name="mlt_service">frei0r.sigmoidaltransfer</property>
   <property name="kdenlive_id">frei0r.sigmoidaltransfer</property>
   <property name="tag">frei0r.sigmoidaltransfer</property>
   <property name="kdenlive_ix">1</property>
   <property name="kdenlive_info"/>
   <property name="0">1</property>
   <property name="1">0,3</property>
   <property name="disable">0</property>
  </filter>
 </producer>
 <producer id="slowmotion:14:0,4:1:0" in="0" out="7205">
  <property name="length">7206</property>
  <property name="eof">pause</property>
  <property name="resource">0,4:/media/bordun/Odile/SnapshatAuHarem/etalo/CAM2_2017-11-25_0941_C0001.mov</property>
  <property name="aspect_ratio">1</property>
  <property name="meta.media.nb_streams">2</property>
  <property name="meta.media.0.stream.type">video</property>
  <property name="meta.media.0.stream.frame_rate">60</property>
  <property name="meta.media.0.stream.sample_aspect_ratio">1</property>
  <property name="meta.media.0.codec.width">1920</property>
  <property name="meta.media.0.codec.height">1080</property>
  <property name="meta.media.0.codec.rotate">0</property>
  <property name="meta.media.0.codec.frame_rate">15360</property>
  <property name="meta.media.0.codec.pix_fmt">yuv422p10le</property>
  <property name="meta.media.0.codec.sample_aspect_ratio">0</property>
  <property name="meta.media.0.codec.colorspace">709</property>
  <property name="meta.media.0.codec.color_trc">1</property>
  <property name="meta.media.0.codec.name">dnxhd</property>
  <property name="meta.media.0.codec.long_name">VC3/DNxHD</property>
  <property name="meta.media.0.codec.bit_rate">440401920</property>
  <property name="meta.attr.0.stream.language.markup">eng</property>
  <property name="meta.attr.0.stream.handler_name.markup">Core Media Data Handler</property>
  <property name="meta.attr.0.stream.timecode.markup">09:41:37:09</property>
  <property name="meta.attr.major_brand.markup">qt  </property>
  <property name="meta.attr.minor_version.markup">512</property>
  <property name="meta.attr.compatible_brands.markup">qt  </property>
  <property name="meta.attr.encoder.markup">Lavf57.25.100</property>
  <property name="seekable">1</property>
  <property name="meta.media.sample_aspect_num">1</property>
  <property name="meta.media.sample_aspect_den">1</property>
  <property name="audio_index">2</property>
  <property name="video_index">0</property>
  <property name="mute_on_pause">1</property>
  <property name="warp_speed">0,4</property>
  <property name="warp_resource">/media/bordun/Odile/SnapshatAuHarem/etalo/CAM2_2017-11-25_0941_C0001.mov</property>
  <property name="mlt_service">timewarp</property>
  <property name="meta.media.1.stream.type">video</property>
  <property name="meta.media.1.stream.frame_rate">60</property>
  <property name="meta.media.1.stream.sample_aspect_ratio">1</property>
  <property name="meta.media.1.codec.width">1920</property>
  <property name="meta.media.1.codec.height">1080</property>
  <property name="meta.media.1.codec.rotate">0</property>
  <property name="meta.media.1.codec.frame_rate">6000</property>
  <property name="meta.media.1.codec.pix_fmt">yuv422p10le</property>
  <property name="meta.media.1.codec.sample_aspect_ratio">0</property>
  <property name="meta.media.1.codec.colorspace">709</property>
  <property name="meta.media.1.codec.color_trc">1</property>
  <property name="meta.media.1.codec.name">prores</property>
  <property name="meta.media.1.codec.long_name">ProRes</property>
  <property name="meta.media.1.codec.bit_rate">440346156</property>
  <property name="meta.attr.1.stream.creation_time.markup">2017-11-25T09:41:37.000000Z</property>
  <property name="meta.attr.1.stream.language.markup">eng</property>
  <property name="meta.attr.1.stream.handler_name.markup">Apple Alias Data Handler</property>
  <property name="meta.attr.1.stream.encoder.markup">Apple ProRes 422 HQ</property>
  <property name="meta.attr.1.stream.timecode.markup">09:41:37:09</property>
  <property name="meta.media.2.stream.type">audio</property>
  <property name="meta.media.2.codec.sample_fmt">s32</property>
  <property name="meta.media.2.codec.sample_rate">48000</property>
  <property name="meta.media.2.codec.channels">2</property>
  <property name="meta.media.2.codec.name">pcm_s24le</property>
  <property name="meta.media.2.codec.long_name">PCM signed 24-bit little-endian</property>
  <property name="meta.media.2.codec.bit_rate">2304000</property>
  <property name="meta.attr.2.stream.creation_time.markup">2017-11-25T09:41:37.000000Z</property>
  <property name="meta.attr.2.stream.language.markup">eng</property>
  <property name="meta.attr.2.stream.handler_name.markup">Apple Alias Data Handler</property>
  <property name="meta.attr.2.stream.timecode.markup">09:41:37:09</property>
  <property name="meta.attr.com.apple.proapps.manufacturer.markup">Blackmagic Design</property>
  <property name="meta.attr.com.apple.proapps.cameraName.markup">CAM2</property>
  <property name="meta.attr.com.apple.proapps.isGood.markup">0</property>
  <property name="meta.attr.com.apple.proapps.customgamma.markup">com.blackmagic-design.cinemacamera.filmlog</property>
  <property name="meta.attr.com.blackmagic-design.cinemacamera.uuid.markup">18E5E00548F94923B646613A73C01B56</property>
  <property name="meta.attr.creation_time.markup">2017-11-25T09:41:37.000000Z</property>
  <property name="meta.attr.timecode.markup">09:41:37:09</property>
  <property name="kdenlive:originalurl">/media/joris/1TO_RUSHS/_Plagiat/Dimanche_soir/CAM2_2017-11-25_0941_C0001.mov</property>
  <property name="meta.media.frame_rate_num">60</property>
  <property name="meta.media.frame_rate_den">1</property>
  <property name="meta.media.colorspace">709</property>
  <property name="meta.media.color_trc">1</property>
  <property name="meta.media.width">1920</property>
  <property name="meta.media.height">1080</property>
  <property name="meta.media.top_field_first">0</property>
  <property name="meta.media.progressive">1</property>
  <property name="force_colorspace"/>
  <filter id="filter52">
   <property name="version">0,9</property>
   <property name="mlt_service">frei0r.sigmoidaltransfer</property>
   <property name="kdenlive_id">frei0r.sigmoidaltransfer</property>
   <property name="tag">frei0r.sigmoidaltransfer</property>
   <property name="kdenlive_ix">1</property>
   <property name="kdenlive_info"/>
   <property name="0">1</property>
   <property name="1">0,3</property>
   <property name="disable">0</property>
  </filter>
 </producer>
 <playlist id="playlist3">
  <property name="kdenlive:track_name">Video 1</property>
  <blank length="782"/>
  <entry producer="9_playlist3" in="1269" out="1470">
   <filter id="filter53">
    <property name="background">colour:0x00000000</property>
    <property name="mlt_service">affine</property>
    <property name="kdenlive_id">pan_zoom</property>
    <property name="tag">affine</property>
    <property name="kdenlive_ix">1</property>
    <property name="kdenlive_info">1/-1/</property>
    <property name="disable">0</property>
    <property name="transition.geometry">0=0/16:1920x1080:100;24=0/27:1920x1080:100;48=0/35:1920x1080:100;58=0/39:1920x1080:100;80=0/-16:1920x1080:100;94=0/-28:1920x1080:100;103=0/-35:1920x1080:100;118=0/-9:1920x1080:100</property>
    <property name="transition.distort">0</property>
   </filter>
   <filter id="filter54">
    <property name="background">colour:0x00000000</property>
    <property name="mlt_service">affine</property>
    <property name="kdenlive_id">pan_zoom</property>
    <property name="tag">affine</property>
    <property name="kdenlive_ix">2</property>
    <property name="kdenlive_info">1/-1/</property>
    <property name="disable">0</property>
    <property name="transition.geometry">0/-11:1958x1102:100</property>
    <property name="transition.distort">0</property>
   </filter>
   <filter id="charcoal">
    <property name="x_scatter">1</property>
    <property name="y_scatter">1</property>
    <property name="scale">1</property>
    <property name="mix">0</property>
    <property name="mlt_service">charcoal</property>
    <property name="kdenlive_id">charcoal</property>
    <property name="tag">charcoal</property>
    <property name="kdenlive_ix">3</property>
    <property name="invert">1</property>
    <property name="kdenlive_info">1/-1/</property>
    <property name="disable">1</property>
   </filter>
   <filter id="frei0r.sobel">
    <property name="version">0,2</property>
    <property name="mlt_service">frei0r.sobel</property>
    <property name="kdenlive_id">frei0r.sobel</property>
    <property name="tag">frei0r.sobel</property>
    <property name="kdenlive_ix">4</property>
    <property name="kdenlive_info">0/-1/</property>
    <property name="disable">0</property>
   </filter>
   <filter id="frei0r.colorize">
    <property name="version">0,1</property>
    <property name="mlt_service">frei0r.colorize</property>
    <property name="kdenlive_id">frei0r.colorize</property>
    <property name="tag">frei0r.colorize</property>
    <property name="kdenlive_ix">5</property>
    <property name="0">0,5679999999999999</property>
    <property name="1">0,968</property>
    <property name="2">0</property>
    <property name="kdenlive_info">1/-1/</property>
    <property name="disable">1</property>
   </filter>
   <filter id="filter55">
    <property name="version">0,1</property>
    <property name="mlt_service">frei0r.alphaspot</property>
    <property name="kdenlive_id">frei0r.alphaspot</property>
    <property name="tag">frei0r.alphaspot</property>
    <property name="kdenlive_ix">6</property>
    <property name="kdenlive_info">0/-1/</property>
    <property name="Shape">0,0</property>
    <property name="Position X">1269=0,487;1298=0,491;1321=0,495;1327=0,495;1330=0,495;1333=0,496;1345=0,502;1359=0,504;1373=0,499;1381=0,499;1390=0,496;1398=0,492;1402=0,483;1407=0,473;1410=0,456;1412=0,445;1413=0,439;1414=0,434;1415=0,433;1416=0,429;1419=0,43;1420=0,447;1421=0,464;1470=0,501</property>
    <property name="Position Y">1269=0,49;1298=0,479;1321=0,491;1327=0,492;1330=0,498;1333=0,499;1345=0,51;1359=0,51;1373=0,51;1381=0,51;1390=0,51;1398=0,51;1402=0,51;1407=0,51;1410=0,491;1412=0,479;1413=0,473;1414=0,467;1415=0,471;1416=0,475;1419=0,488;1420=0,493;1421=0,498;1470=0,51</property>
    <property name="Size X">1269=0,046;1298=0,054;1321=0,069;1327=0,073;1330=0,076;1333=0,077;1345=0,088;1359=0,104;1373=0,132;1381=0,155;1390=0,183;1398=0,227;1402=0,252;1407=0,291;1410=0,327;1412=0,359;1413=0,378;1414=0,396;1415=0,412;1416=0,437;1419=0,516;1420=0,531;1421=0,753;1470=1</property>
    <property name="Size Y">1269=0,199;1298=0,234;1321=0,277;1327=0,3;1330=0,308;1333=0,322;1345=0,404;1359=0,404;1373=0,404;1381=0,404;1390=0,404;1398=0,404;1402=0,488;1407=0,595;1410=0,554;1412=0,527;1413=0,514;1414=0,501;1415=0,491;1416=0,481;1419=0,452;1420=0,44;1421=0,428;1470=0,404</property>
    <property name="Tilt">1269=0,497;1298=0,498;1321=0,498;1327=0,497;1330=0,496;1333=0,496;1345=0,497;1359=0,498;1373=0,497;1381=0,497;1390=0,498;1398=0,497;1402=0,497;1407=0,498;1410=0,495;1412=0,493;1413=0,492;1414=0,491;1415=0,49;1416=0,489;1419=0,486;1420=0,488;1421=0,491;1470=0,498</property>
    <property name="Transition width">1269=1;1298=0,428;1321=0,012;1327=0,012;1330=0,012;1333=0,012;1345=0,012;1359=0,012;1373=0,039;1381=0,062;1390=0,07;1398=0,118;1402=0,091;1407=0,044;1410=0,025;1412=0,012;1413=0,006;1414=0;1415=0;1416=0;1419=0;1420=0;1421=0;1470=0</property>
    <property name="Min">1269=0;1298=0;1321=0;1327=0;1330=0;1333=0;1345=0;1359=0;1373=0;1381=0;1390=0;1398=0;1402=0;1407=0;1410=0;1412=0;1413=0;1414=0;1415=0;1416=0;1419=0;1420=0;1421=0;1470=0</property>
    <property name="Max">1269=1;1298=1;1321=1;1327=1;1330=1;1333=1;1345=1;1359=1;1373=1;1381=1;1390=1;1398=1;1402=1;1407=1;1410=1;1412=1;1413=1;1414=1;1415=1;1416=1;1419=1;1420=1;1421=1;1470=1</property>
    <property name="Operation">1,0</property>
    <property name="disable">0</property>
   </filter>
   <filter id="filter56">
    <property name="version">0,1</property>
    <property name="mlt_service">frei0r.glitch0r</property>
    <property name="kdenlive_id">frei0r.glitch0r</property>
    <property name="tag">frei0r.glitch0r</property>
    <property name="kdenlive_ix">7</property>
    <property name="kdenlive_info">1/-1/</property>
    <property name="disable">0</property>
    <property name="0">0,395</property>
    <property name="1">0,002</property>
    <property name="2">0</property>
    <property name="3">0</property>
   </filter>
   <filter id="filter57" in="1269" out="1470">
    <property name="background">colour:0x00000000</property>
    <property name="mlt_service">affine</property>
    <property name="kdenlive_id">pan_zoom</property>
    <property name="tag">affine</property>
    <property name="kdenlive_ix">8</property>
    <property name="transition.geometry">-2/-1:1924x1082:100</property>
    <property name="transition.distort">0</property>
    <property name="kdenlive:sync_in_out">1</property>
    <property name="kdenlive_info">1/-1/</property>
    <property name="disable">0</property>
   </filter>
   <filter id="frei0r.brightness">
    <property name="version">0,2</property>
    <property name="mlt_service">frei0r.brightness</property>
    <property name="kdenlive_id">frei0r.brightness</property>
    <property name="tag">frei0r.brightness</property>
    <property name="kdenlive_ix">9</property>
    <property name="Brightness">0,351</property>
    <property name="kdenlive_info">0/-1/</property>
    <property name="disable">0</property>
   </filter>
  </entry>
  <blank length="2"/>
  <entry producer="slowmotion:14:0,3:1:0" in="9283" out="9301">
   <filter id="frei0r.delay0r">
    <property name="version">0,2</property>
    <property name="mlt_service">frei0r.delay0r</property>
    <property name="kdenlive_id">frei0r.delay0r</property>
    <property name="tag">frei0r.delay0r</property>
    <property name="kdenlive_ix">2</property>
    <property name="DelayTime">0,002</property>
    <property name="kdenlive_info"/>
    <property name="disable">1</property>
   </filter>
   <filter id="filter62" in="9283" out="9301">
    <property name="background">colour:0x00000000</property>
    <property name="mlt_service">affine</property>
    <property name="kdenlive_id">pan_zoom</property>
    <property name="tag">affine</property>
    <property name="kdenlive_ix">3</property>
    <property name="transition.geometry">0=-96/-54:2112x1188:100;18=0/0:1920x1080:100</property>
    <property name="transition.distort">0</property>
    <property name="kdenlive:sync_in_out">1</property>
    <property name="kdenlive_info">0/-1/</property>
    <property name="disable"/>
   </filter>
  </entry>
  <blank length="122"/>
  <entry producer="slowmotion:14:0,3:1:0" in="9338" out="9369">
   <filter id="filter63">
    <property name="background">colour:0x00000000</property>
    <property name="mlt_service">affine</property>
    <property name="kdenlive_id">pan_zoom</property>
    <property name="tag">affine</property>
    <property name="kdenlive_ix">2</property>
    <property name="kdenlive_info"/>
    <property name="disable"/>
    <property name="transition.geometry">2=0/-17:2035x1145:100;10=0/-17:2035x1145:100;23=4/-12:2035x1145:100;30=0/-18:2035x1145:100</property>
    <property name="transition.distort">0</property>
   </filter>
  </entry>
  <blank length="2"/>
  <entry producer="slowmotion:14:0,4:1:0" in="7045" out="7071">
   <filter id="filter64" in="7045" out="7071">
    <property name="background">colour:0x00000000</property>
    <property name="mlt_service">affine</property>
    <property name="kdenlive_id">pan_zoom</property>
    <property name="tag">affine</property>
    <property name="kdenlive_ix">2</property>
    <property name="transition.geometry">0=-40/-54:2016x1134:100;6=-52/-60:2016x1134:100;14=-58/-67:2016x1134:100;26=-59/-80:2016x1134:100</property>
    <property name="transition.distort">0</property>
    <property name="kdenlive:sync_in_out">1</property>
    <property name="kdenlive_info"/>
    <property name="disable">0</property>
   </filter>
  </entry>
  <filter id="filter65">
   <property name="version">0,1</property>
   <property name="mlt_service">frei0r.letterb0xed</property>
   <property name="kdenlive_id">frei0r.letterb0xed</property>
   <property name="tag">frei0r.letterb0xed</property>
   <property name="kdenlive_ix">1</property>
   <property name="kdenlive_info"/>
   <property name="disable">0</property>
   <property name="Border Width">0,33</property>
   <property name="Transparency">0</property>
  </filter>
 </playlist>
 <producer title="Anonymous Submission" id="9_playlist25" in="0" out="5809">
  <property name="length">00:04:02:02</property>
  <property name="eof">pause</property>
  <property name="resource">/media/bordun/Odile/SnapshatAuHarem/etalo/CAM2_2017-11-25_0823_C0011.mov</property>
  <property name="audio_index">2</property>
  <property name="video_index">0</property>
  <property name="mute_on_pause">1</property>
  <property name="mlt_service">avformat-novalidate</property>
  <property name="seekable">1</property>
  <property name="aspect_ratio">1</property>
  <property name="kdenlive:folderid">-1</property>
  <property name="kdenlive:file_size">5401146337</property>
  <property name="kdenlive:file_hash">0e80b31f91ba766cf6d5cc0ec3c08cfb</property>
  <property name="proxy_out">5809</property>
  <property name="kdenlive:originalurl">/media/joris/1TO_RUSHS/_Plagiat/Dimanche_soir/CAM2_2017-11-25_0823_C0011.mov</property>
  <property name="kdenlive:zone_in">2067</property>
  <property name="kdenlive:zone_out">2140</property>
  <property name="global_feed">1</property>
  <property name="kdenlive:clipanalysis.motion_vector_list">1283=727/250:481x616:0;1284=727/250:481x616;1285=726,3/249,1:481x616;1286=726,15/248,8:481x616;1287=725,75/247,7:481x616;1288=725,1/246,5:481x616;1289=724,45/246,35:481x616;1290=724,5/245,6:481x616;1291=725,1/245,45:481x616;1292=724,95/244,8:481x616;1293=724,65/244,5:481x616;1294=724,9/244,05:481x616;1295=724,567/243,106:481x616;1296=724,233/242,994:481x616;1297=723,933/242,594:481x616;1298=723,655/242,483:481x616;1299=723,42/242,366:481x616;1300=722,832/242,013:481x616;1301=722,519/241,7:481x616;1302=721,853/241,567:481x616;1303=721,665/241,442:481x616;1304=721,54/241,192:481x616;1305=721,607/240,859:481x616;1306=721,313/240,682:481x616;1307=721,019/240,564:481x616;1308=720,842/240,506:481x616;1309=721,042/240,506:481x616;1310=721,119/240,429:481x616;1311=721,119/240,376:481x616;1312=721,382/239,955:481x616;1313=721,382/240,008:481x616;1314=721,332/239,758:481x616;1315=721,282/239,558:481x616;1316=720,982/239,508:481x616;1317=720,877/239,35:481x616;1318=720,727/239,45:481x616;1319=720,577/239,15:481x616;1320=721,177/239:481x616;1321=721,027/237,95:481x616;1322=720,627/236,75:481x616;1323=720,977/236,45:481x616;1324=721,227/236,15:481x616;1325=721,677/236,15:481x616;1326=721,327/235,95:481x616;1327=720,877/235,9:481x616;1328=720,877/235,9:481x616;1329=720,877/235,9:481x616;1330=720,877/235,9:481x616;1331=720,877/235,9:481x616;1332=720,877/235,9:481x616;1333=720,877/235,9:481x616;1334=720,877/235,9:481x616;1335=720,877/235,9:481x616;1336=721,577/235,95:481x616;1337=721,977/236,65:481x616;1338=722,327/237,35:481x616;1339=722,627/238,05:481x616;1340=722,627/238,75:481x616;1341=722,627/239,3:481x616;1342=722,627/239,85:481x616;1343=721,827/240,183:481x616;1344=721,027/240,45:481x616;1345=719,96/240,45:481x616;1346=718,71/240,866:481x616;1347=710,71/240,866:481x616;1348=702,71/240,866:481x616;1349=694,71/240,866:481x616;1350=691,619/240,412:481x616;1351=688,553/240,212:481x616;1352=686,29/240,37:481x616;1353=683,165/240,745:481x616;1354=680,241/240,976:481x616;1355=677,065/240,976:481x616;1356=673,68/240,899:481x616;1357=670,296/240,822:481x616;1358=667,129/240,822:481x616;1359=663,629/240,722:481x616;1360=661,429/240,672:481x616;1361=659,029/240,672:481x616;1362=656,379/240,672:481x616;1363=654,079/240,272:481x616;1364=651,629/240,072:481x616;1365=649,279/239,922:481x616;1366=647,029/239,572:481x616;1367=644,679/239,122:481x616;1368=640,512/238,372:481x616;1369=637,262/238,288:481x616;1370=635,878/237,75:481x616;1371=633,995/237,162:481x616;1372=633,495/236,762:481x616;1373=631,895/236,028:481x616;1374=630,013/234,381:481x616;1375=628,131/233,323:481x616;1376=626,443/232,073:481x616;1377=624,679/231,073:481x616;1378=624,063/229,996:481x616;1379=623,525/228,765:481x616;1380=622,909/227,534:481x616;1381=622,109/225,867:481x616;1382=621,756/225,22:481x616;1383=621,403/223,985:481x616;1384=621,903/223,735:481x616;1385=621,528/222,298:481x616;1386=620,466/221,985:481x616;1387=620,289/221,632:481x616;1388=620,407/221,338:481x616;1389=620,289/220,985:481x616;1390=620,054/220,867:481x616;1391=619,367/220,055:481x616;1392=618,778/219,702:481x616;1393=618,278/218,452:481x616;1394=617,878/217,552:481x616;1395=615,745/216,819:481x616;1396=614,053/215,434:481x616;1397=613,553/215,184:481x616;1398=612,803/213,934:481x616;1399=611,903/213,234:481x616;1400=610,403/212,151:481x616;1401=608,864/211,612:481x616;1402=608,403/210,689:481x616;1403=607,864/210,381:481x616;1404=606,326/209,689:481x616;1405=605,492/208,939:481x616;1406=603,954/208,478:481x616;1407=602,871/207,478:481x616;1408=602,204/207,311:481x616;1409=600,871/205,978:481x616;1410=597,496/205,353:481x616;1411=596,058/204,728:481x616;1412=595,121/203,54:481x616;1413=594,121/202,658:481x616;1414=592,65/201,07:481x616;1415=591,15/200,132:481x616;1416=589,525/199,09:481x616;1417=588,858/197,519:481x616;1418=588,467/195,867:481x616;1419=586,902/195,041:481x616;1420=585,163/193,562:481x616;1421=584,337/192,606:481x616;1422=584,032/191,954:481x616;1423=583,082/190,304:481x616;1424=581,219/189,395:481x616;1425=579,523/188,873:481x616;1426=578,74/187,09:481x616;1427=578,032/186,549:481x616;1428=576,461/185,072:481x616;1429=574,336/184,072:481x616;1430=573,51/183,333:481x616;1431=572,96/181,733:481x616;1432=572,51/180,633:481x616;1433=571,232/179,467:481x616;1434=569,782/178,267:481x616;1435=569,203/177,214:481x616;1436=568,603/176,264:481x616;1437=566,919/175,159:481x616;1438=565,129/174,422:481x616;1439=563,603/173,001:481x616;1440=562,182/171,948:481x616;1441=560,919/171,211:481x616;1442=560,287/170,369:481x616;1443=559,129/169,001:481x616;1444=556,392/168,474:481x616;1445=553,656/167,001:481x616;1446=552,498/166,79:481x616;1447=551,498/166,106:481x616;1448=550,34/165,106:481x616;1449=547,89/164,506:481x616;1450=545,69/163,556:481x616;1451=544,64/162,456:481x616;1452=543,14/160,856:481x616;1453=540,94/159,656:481x616;1454=538,782/157,814:481x616;1455=537,182/157,214:481x616;1456=535,382/155,614:481x616;1457=533,432/154,064:481x616;1458=531,132/153,414:481x616;1459=529,232/151,764:481x616;1460=527,382/151,264:481x616;1461=525,323/149,735:481x616;1462=523,073/148,735:481x616;1463=520,873/147,785:481x616;1464=519,61/146,469:481x616;1465=518,81/145,719:481x616;1466=517,343/144,852:481x616;1467=515,276/143,385:481x616;1468=513,477/141,919:481x616;1469=512,076/141,052:481x616;1470=511,476/139,919:481x616;1471=510,276/139,519:481x616</property>
  <property name="kdenlive:clipanalysis.motion_vector_list1">1280=819/300:235x496:0;1281=823,511/299,089:235x496;1282=823,5/298,858:235x496;1283=823,448/298,429:235x496;1284=823,278/297,811:235x496;1285=822,981/297,097:235x496;1286=822,952/296,636:235x496;1287=822,59/295,582:235x496;1288=822,018/294,561:235x496;1289=821,499/294,112:235x496;1290=821,299/293,454:235x496;1291=821,266/293,081:235x496;1292=820,804/292,574:235x496;1293=820,588/292,381:235x496;1294=820,493/292,004:235x496;1295=820,127/291,387:235x496;1296=819,703/291,254:235x496;1297=819,5/291,026:235x496;1298=819,418/291,15:235x496;1299=819,205/291,336:235x496;1300=818,585/291,281:235x496;1301=818,619/291,504:235x496;1302=818,591/291,633:235x496;1303=818,949/292,151:235x496;1304=819,044/292,039:235x496;1305=818,732/292,403:235x496;1306=818,411/292,575:235x496;1307=818,199/292,818:235x496;1308=818,587/293,117:235x496;1309=818,773/293,401:235x496;1310=818,578/295,727:235x496;1311=817,814/298,174:235x496;1312=814,414/300,974:235x496;1313=810,852/303,974:235x496;1314=808,369/306,836:235x496;1315=805,802/309,296:235x496;1316=803,433/310,611:235x496;1317=801,073/311,726:235x496;1318=800,35/312,344:235x496;1319=799,433/312,148:235x496;1320=799,065/312,156:235x496;1321=798,672/312,16:235x496;1322=798,188/312,015:235x496;1323=797,641/312,133:235x496;1324=797,116/312,144:235x496;1325=797,1/312,228:235x496;1326=796,525/312,319:235x496;1327=795,987/312,396:235x496;1328=795,502/312,594:235x496;1329=794,837/312,55:235x496;1330=790,542/312,021:235x496;1331=784,542/312,021:235x496;1332=772,542/312,021:235x496;1333=772,542/312,021:235x496;1334=772,542/312,021:235x496;1335=772,542/312,021:235x496;1336=772,542/312,021:235x496;1337=768,654/312,243:235x496;1338=765,765/312,132:235x496;1339=763,878/312,434:235x496;1340=763,294/312,661:235x496;1341=763,056/313,152:235x496;1342=762,695/313,388:235x496;1343=762,267/313,596:235x496;1344=761,837/313,633:235x496;1345=761,289/313,714:235x496;1346=759,539/313,428:235x496;1347=755,448/312,883:235x496;1348=752,448/313,383:235x496;1349=749,893/313,494:235x496;1350=747,226/313,938:235x496;1351=744,014/313,514:235x496;1352=741,387/313,633:235x496;1353=738,732/314,037:235x496;1354=736,237/314,565:235x496;1355=734,186/314,941:235x496;1356=731,805/315,104:235x496;1357=729,305/315,395:235x496;1358=726,253/315,85:235x496;1359=723,023/316,181:235x496;1360=719,174/317,097:235x496;1361=715,11/317,614:235x496;1362=710,523/317,705:235x496;1363=706,169/317,487:235x496;1364=701,092/317,297:235x496;1365=696,218/316,966:235x496;1366=692,025/316,698:235x496;1367=687,352/316,236:235x496;1368=682,347/315,806:235x496;1369=677,261/315,503:235x496;1370=672,62/315,244:235x496;1371=668,27/314,949:235x496;1372=663,575/314,832:235x496;1373=659,23/314,588:235x496;1374=654,94/314,324:235x496;1375=650,639/313,899:235x496;1376=646,396/313,327:235x496;1377=642,502/312,257:235x496;1378=638,305/311,184:235x496;1379=634,086/310,257:235x496;1380=629,664/308,305:235x496;1381=625,385/306,447:235x496;1382=621,231/304,975:235x496;1383=616,683/303,09:235x496;1384=612,422/301,287:235x496;1385=607,789/299,186:235x496;1386=602,81/297,165:235x496;1387=597,478/295,25:235x496;1388=593,169/293,235:235x496;1389=588,017/290,547:235x496;1390=582,957/288,013:235x496;1391=578,102/285,521:235x496;1392=573,181/282,893:235x496;1393=568,445/280,12:235x496;1394=563,677/277,976:235x496;1395=558,799/275,793:235x496;1396=553,79/273,556:235x496;1397=548,226/271,492:235x496;1398=543,445/269,82:235x496;1399=537,782/268,285:235x496;1400=531,966/266,591:235x496;1401=526,055/265,063:235x496;1402=520,467/263,263:235x496;1403=514,907/261,703:235x496;1404=509,211/260,082:235x496;1405=503,153/258,45:235x496;1406=497,085/256,94:235x496;1407=492,123/255,376:235x496;1408=488,064/254,376:235x496;1409=484,359/253,452:235x496;1410=480,831/252,667:235x496;1411=477,809/251,956:235x496;1412=475,17/251,115:235x496;1413=474,281/250,584:235x496;1414=473,261/249,977:235x496;1415=472,03/249,378:235x496;1416=470,749/248,727:235x496;1417=469,958/247,57:235x496;1418=468,753/246,237:235x496;1419=467,269/245,608:235x496;1420=465,597/244,369:235x496;1421=464,147/243,168:235x496;1422=462,904/242,416:235x496;1423=461,422/241,062:235x496;1424=458,295/239,802:235x496;1425=455,341/238,575:235x496;1426=453,19/236,493:235x496;1427=450,817/235,792:235x496;1428=447,32/234,324:235x496;1429=443,649/232,938:235x496;1430=440,739/231,62:235x496;1431=438,661/229,05:235x496;1432=435,785/226,754:235x496;1433=431,201/224,663:235x496;1434=426,512/222,478:235x496;1435=422,612/220,94:235x496;1436=418,643/219,228:235x496;1437=413,656/217,507:235x496;1438=407,693/215,927:235x496;1439=401,605/213,897:235x496;1440=395,727/212,748:235x496;1441=390,374/211,719:235x496;1442=385,278/210,6:235x496;1443=379,827/209,416:235x496;1444=372,994/209,156:235x496;1445=365,667/208,023:235x496;1446=359,364/207,637:235x496;1447=353,207/206,55:235x496;1448=346,913/205,38:235x496;1449=339,348/204,276:235x496;1450=332,135/203,011:235x496;1451=325,047/200,684:235x496;1452=317,889/198,323:235x496;1453=309,104/196,068:235x496;1454=299,786/192,959:235x496;1455=291,205/190,649:235x496;1456=282,633/187,526:235x496;1457=273,187/184,598:235x496;1458=262,654/182,473:235x496;1459=252,56/179,383:235x496;1460=242,334/177,201:235x496;1461=231,198/174,175:235x496;1462=220,027/171,213:235x496;1463=207,927/168,26:235x496;1464=196,911/165,243:235x496;1465=186,551/162,273:235x496;1466=175,325/159,19:235x496;1467=163,378/156,2:235x496;1468=151,129/152,074:235x496;1469=139,963/147,945:235x496;1470=128,804/143,824:235x496;1471=115,644/139,486:235x496</property>
  <property name="kdenlive:clipanalysis.motion_vector_list2">1272=819/300:235x496:0;1273=819/300:235x496;1274=819,25/300:235x496;1275=819,25/299,5:235x496;1276=819,5/299,5:235x496;1277=820/298,75:235x496;1278=820,25/298,5:235x496;1279=820,75/298:235x496;1280=821/297,5:235x496;1281=820,75/296,75:235x496;1282=820,75/295,75:235x496;1283=820,75/294,75:235x496;1284=820,75/292,75:235x496;1285=820,25/291,25:235x496;1286=820,25/290,75:235x496;1287=819,75/289,75:235x496;1288=818,5/288,25:235x496;1289=818/287,75:235x496;1290=818/287:235x496;1291=818/286,5:235x496;1292=817,75/285,75:235x496;1293=818/285,5:235x496;1294=818,25/285:235x496;1295=818/284:235x496;1296=817,75/284:235x496;1297=817,75/284:235x496;1298=817,75/284,5:235x496;1299=817,75/285,167:235x496;1300=817,75/285,833:235x496;1301=817,75/285,833:235x496;1302=817,75/285,833:235x496;1303=817,75/285,833:235x496;1304=817,75/285,833:235x496;1305=817,75/285,833:235x496;1306=817,75/285,833:235x496;1307=817,75/285,833:235x496;1308=817,75/285,833:235x496;1309=817,75/285,833:235x496;1310=817,75/285,833:235x496;1311=817,75/285,833:235x496;1312=817,75/285,833:235x496;1313=817,75/285,833:235x496;1314=817,75/285,833:235x496;1315=817,75/285,833:235x496;1316=817,75/285,833:235x496;1317=817,75/285,833:235x496;1318=817,75/285,833:235x496;1319=817,75/285,833:235x496;1320=817,75/285,833:235x496;1321=817,75/285,833:235x496;1322=817,75/285,833:235x496;1323=817,75/285,833:235x496;1324=817,75/285,833:235x496;1325=817,75/285,833:235x496;1326=817,75/285,833:235x496;1327=817,75/285,833:235x496;1328=817,75/285,833:235x496;1329=817,75/285,833:235x496;1330=817,75/285,833:235x496;1331=817,75/285,833:235x496;1332=817,75/285,833:235x496;1333=817,75/285,833:235x496;1334=817,75/285,833:235x496;1335=817,75/285,833:235x496;1336=817,75/285,833:235x496;1337=817,75/285,833:235x496;1338=817,75/285,833:235x496;1339=817,75/285,833:235x496;1340=817,75/285,833:235x496;1341=817,75/285,833:235x496;1342=817,75/285,833:235x496;1343=811,75/285,833:235x496;1344=805,75/286,833:235x496;1345=799,75/288,833:235x496;1346=799,75/288,833:235x496;1347=799,75/288,833:235x496;1348=799,75/288,833:235x496;1349=793,75/288,833:235x496;1350=793,75/288,833:235x496;1351=793,75/288,833:235x496;1352=790,25/291,583:235x496;1353=786,75/292,583:235x496;1354=784,75/293,583:235x496;1355=780,5/294,583:235x496;1356=778/296,083:235x496;1357=772,5/296,417:235x496;1358=770,5/296,917:235x496;1359=765,214/296,917:235x496;1360=762,214/296,917:235x496;1361=757,714/296,917:235x496;1362=753,214/296,917:235x496;1363=749,214/296,667:235x496;1364=745,214/296,667:235x496;1365=741,214/296,417:235x496;1366=737,464/296,167:235x496;1367=733,464/295,833:235x496;1368=728,214/295,333:235x496;1369=722,214/294,833:235x496;1370=716,214/293,833:235x496;1371=711,464/293,083:235x496;1372=705,964/292,583:235x496;1373=700,714/292,083:235x496;1374=695,881/290,083:235x496;1375=691,281/288,083:235x496;1376=686,681/285,683:235x496;1377=682,681/282,933:235x496;1378=679,281/280,533:235x496;1379=675,281/278,283:235x496;1380=671,881/276,483:235x496;1381=668,714/274,65:235x496;1382=667,314/274,05:235x496;1383=665,564/272,8:235x496;1384=664,964/272,6:235x496;1385=659,464/266,35:235x496;1386=653,464/260,35:235x496;1387=649,464/258,35:235x496;1388=645,464/256,35:235x496;1389=641,464/254,35:235x496;1390=637,464/252,35:235x496;1391=633,464/250,35:235x496;1392=629,464/248,35:235x496;1393=625,464/246,35:235x496;1394=621,464/244,85:235x496;1395=617,214/243,35:235x496;1396=612,464/240,35:235x496;1397=608,464/238,35:235x496;1398=603,964/235,85:235x496;1399=599,298/233,183:235x496;1400=594,923/230,933:235x496;1401=590,423/228,683:235x496;1402=586,089/226,35:235x496;1403=580,946/223,493:235x496;1404=576,089/221,064:235x496;1405=571,232/218,636:235x496;1406=565,232/216,064:235x496;1407=559,518/213,636:235x496;1408=554,518/211,636:235x496;1409=550,518/209,636:235x496;1410=542,518/205,969:235x496;1411=536,518/201,969:235x496;1412=530,518/196,969:235x496;1413=528,518/196,969:235x496;1414=528,518/196,969:235x496;1415=526,518/196,969:235x496;1416=522,018/192,969:235x496;1417=518,351/188,969:235x496;1418=515,685/185,969:235x496;1419=512,685/182,969:235x496;1420=509,685/179,969:235x496;1421=503,185/173,969:235x496;1422=496,685/168,469:235x496;1423=489,685/161,136:235x496;1424=483,185/155,386:235x496;1425=476,851/150,719:235x496;1426=474,851/147,719:235x496;1427=471,851/146,469:235x496;1428=468,251/144,269:235x496;1429=464,251/142,269:235x496;1430=464,251/142,269:235x496;1431=461,251/140,269:235x496;1432=457,251/138,269:235x496;1433=452,251/137,269:235x496;1434=447,251/135,269:235x496;1435=443,251/132,769:235x496;1436=439,251/129,269:235x496;1437=434,501/126,519:235x496;1438=429,501/124,269:235x496;1439=424,001/120,769:235x496;1440=418,751/118,269:235x496;1441=414,001/116,269:235x496;1442=409,751/113,769:235x496;1443=405,001/111,269:235x496;1444=399,251/110,019:235x496;1445=391,751/107,686:235x496;1446=385,876/106,311:235x496;1447=380,448/104,739:235x496;1448=375,281/103,239:235x496;1449=369,281/101,439:235x496;1450=363,114/98,7726:235x496;1451=356,114/94,2726:235x496;1452=349,114/89,7726:235x496;1453=341,114/85,2726:235x496;1454=332,614/80,2726:235x496;1455=325,281/77,6059:235x496;1456=318,281/73,6059:235x496;1457=310,031/68,6059:235x496;1458=301,031/65,6059:235x496;1459=292,281/60,3559:235x496;1460=283,481/57,1559:235x496;1461=274,481/52,4893:235x496;1462=264,052/47,3464:235x496;1463=252,302/42,0964:235x496;1464=242,552/36,5964:235x496;1465=233,802/31,5964:235x496;1466=224,302/26,3464:235x496;1467=214,302/21,5964:235x496;1468=204,552/16,3464:235x496;1469=195,302/11,3464:235x496;1470=186,302/6,34639:235x496;1471=175,552/0,596394:235x496</property>
  <property name="xml">was here</property>
  <property name="meta.media.nb_streams">2</property>
  <property name="meta.media.0.stream.type">video</property>
  <property name="meta.media.0.stream.frame_rate">24</property>
  <property name="meta.media.0.stream.sample_aspect_ratio">1</property>
  <property name="meta.media.0.codec.width">1920</property>
  <property name="meta.media.0.codec.height">1080</property>
  <property name="meta.media.0.codec.rotate">0</property>
  <property name="meta.media.0.codec.frame_rate">12288</property>
  <property name="meta.media.0.codec.pix_fmt">yuv422p10le</property>
  <property name="meta.media.0.codec.sample_aspect_ratio">0</property>
  <property name="meta.media.0.codec.colorspace">709</property>
  <property name="meta.media.0.codec.color_trc">1</property>
  <property name="meta.media.0.codec.name">dnxhd</property>
  <property name="meta.media.0.codec.long_name">VC3/DNxHD</property>
  <property name="meta.media.0.codec.bit_rate">176160768</property>
  <property name="meta.attr.0.stream.language.markup">eng</property>
  <property name="meta.attr.0.stream.handler_name.markup">Core Media Data Handler</property>
  <property name="meta.attr.0.stream.timecode.markup">08:23:03:08</property>
  <property name="meta.attr.major_brand.markup">qt  </property>
  <property name="meta.attr.minor_version.markup">512</property>
  <property name="meta.attr.compatible_brands.markup">qt  </property>
  <property name="meta.attr.encoder.markup">Lavf57.25.100</property>
  <property name="meta.media.sample_aspect_num">1</property>
  <property name="meta.media.sample_aspect_den">1</property>
  <property name="meta.media.frame_rate_num">24</property>
  <property name="meta.media.frame_rate_den">1</property>
  <property name="meta.media.colorspace">709</property>
  <property name="meta.media.color_trc">1</property>
  <property name="meta.media.width">1920</property>
  <property name="meta.media.height">1080</property>
  <property name="meta.media.top_field_first">0</property>
  <property name="meta.media.progressive">1</property>
 </producer>
 <playlist id="playlist25">
  <property name="kdenlive:track_name">Vidéo 1</property>
  <blank length="782"/>
  <entry producer="9_playlist25" in="1269" out="1470">
   <filter id="filter66">
    <property name="background">colour:0x00000000</property>
    <property name="mlt_service">affine</property>
    <property name="kdenlive_id">pan_zoom</property>
    <property name="tag">affine</property>
    <property name="kdenlive_ix">1</property>
    <property name="kdenlive_info">1/-1/</property>
    <property name="disable">0</property>
    <property name="transition.geometry">0=0/16:1920x1080:100;10=0/20:1920x1080:100;14=0/22:1920x1080:100;24=0/27:1920x1080:100;48=0/35:1920x1080:100;58=0/39:1920x1080:100;80=0/-16:1920x1080:100;94=0/-28:1920x1080:100;103=0/-35:1920x1080:100;118=0/-9:1920x1080:100</property>
    <property name="transition.distort">0</property>
   </filter>
   <filter id="filter67">
    <property name="background">colour:0x00000000</property>
    <property name="mlt_service">affine</property>
    <property name="kdenlive_id">pan_zoom</property>
    <property name="tag">affine</property>
    <property name="kdenlive_ix">2</property>
    <property name="kdenlive_info">1/-1/</property>
    <property name="disable">0</property>
    <property name="transition.geometry">0=0/-11:1958x1102:100;10=0/-11:1958x1102:100;14=0/-11:1958x1102:100</property>
    <property name="transition.distort">0</property>
   </filter>
   <filter id="filter68">
    <property name="version">0,2</property>
    <property name="mlt_service">frei0r.sobel</property>
    <property name="kdenlive_id">frei0r.sobel</property>
    <property name="tag">frei0r.sobel</property>
    <property name="kdenlive_ix">3</property>
    <property name="kdenlive_info">0/-1/</property>
    <property name="disable">0</property>
   </filter>
   <filter id="frei0r.contrast0r">
    <property name="version">0,2</property>
    <property name="mlt_service">frei0r.contrast0r</property>
    <property name="kdenlive_id">frei0r.contrast0r</property>
    <property name="tag">frei0r.contrast0r</property>
    <property name="kdenlive_ix">4</property>
    <property name="Contrast">1269=0,748</property>
    <property name="kdenlive_info">0/-1/</property>
    <property name="disable">0</property>
   </filter>
   <filter id="filter69">
    <property name="version">0,1</property>
    <property name="mlt_service">frei0r.glitch0r</property>
    <property name="kdenlive_id">frei0r.glitch0r</property>
    <property name="tag">frei0r.glitch0r</property>
    <property name="kdenlive_ix">5</property>
    <property name="kdenlive_info">0/-1/</property>
    <property name="disable">0</property>
    <property name="0">0,379</property>
    <property name="1">0,229</property>
    <property name="2">1</property>
    <property name="3">0,013</property>
   </filter>
   <filter id="filter70">
    <property name="version">0,1</property>
    <property name="mlt_service">frei0r.alphaspot</property>
    <property name="kdenlive_id">frei0r.alphaspot</property>
    <property name="tag">frei0r.alphaspot</property>
    <property name="kdenlive_ix">6</property>
    <property name="kdenlive_info">1/-1/</property>
    <property name="disable">0</property>
    <property name="Shape">0,0</property>
    <property name="Position X">1269=0,487;1298=0,491;1321=0,495;1327=0,495;1330=0,495;1333=0,496;1345=0,502;1359=0,504;1373=0,499;1381=0,499;1390=0,496;1398=0,492;1402=0,483;1407=0,473;1414=0,434;1470=0,501</property>
    <property name="Position Y">1269=0,49;1298=0,479;1321=0,491;1327=0,492;1330=0,498;1333=0,499;1345=0,51;1359=0,51;1373=0,51;1381=0,51;1390=0,51;1398=0,51;1402=0,51;1407=0,51;1414=0,467;1470=0,51</property>
    <property name="Size X">1269=0,046;1298=0,054;1321=0,069;1327=0,073;1330=0,076;1333=0,077;1345=0,088;1359=0,104;1373=0,132;1381=0,155;1390=0,183;1398=0,227;1402=0,252;1407=0,291;1414=0,399;1470=1</property>
    <property name="Size Y">1269=0,199;1298=0,234;1321=0,277;1327=0,3;1330=0,308;1333=0,322;1345=0,404;1359=0,404;1373=0,404;1381=0,404;1390=0,404;1398=0,404;1402=0,488;1407=0,595;1414=0,501;1470=0,404</property>
    <property name="Tilt">1269=0,497;1298=0,498;1321=0,498;1327=0,497;1330=0,496;1333=0,496;1345=0,497;1359=0,498;1373=0,497;1381=0,497;1390=0,498;1398=0,497;1402=0,497;1407=0,498;1414=0,498;1470=0,498</property>
    <property name="Transition width">1269=1;1298=0,428;1321=0,012;1327=0,012;1330=0,012;1333=0,012;1345=0,012;1359=0,012;1373=0,039;1381=0,062;1390=0,07;1398=0,118;1402=0,091;1407=0,056;1414=0,089;1470=0</property>
    <property name="Min">1269=0;1298=0;1321=0;1327=0;1330=0;1333=0;1345=0;1359=0;1373=0;1381=0;1390=0;1398=0;1402=0;1407=0;1414=0;1470=0</property>
    <property name="Max">1269=1;1298=1;1321=1;1327=1;1330=1;1333=1;1345=1;1359=1;1373=1;1381=1;1390=1;1398=1;1402=1;1407=1;1414=1;1470=1</property>
    <property name="Operation">1,0</property>
   </filter>
   <filter id="filter71">
    <property name="version">0,3</property>
    <property name="mlt_service">frei0r.saturat0r</property>
    <property name="kdenlive_id">frei0r.saturat0r</property>
    <property name="tag">frei0r.saturat0r</property>
    <property name="kdenlive_ix">7</property>
    <property name="Saturation">1269=0,041</property>
    <property name="kdenlive_info">0/-1/</property>
    <property name="disable"/>
   </filter>
   <filter id="filter72">
    <property name="version">0,2</property>
    <property name="mlt_service">frei0r.brightness</property>
    <property name="kdenlive_id">frei0r.brightness</property>
    <property name="tag">frei0r.brightness</property>
    <property name="kdenlive_ix">8</property>
    <property name="Brightness">0,225</property>
    <property name="kdenlive_info">0/-1/</property>
    <property name="disable">1</property>
   </filter>
   <filter id="filter73" in="1269" out="1470">
    <property name="background">colour:0x00000000</property>
    <property name="mlt_service">affine</property>
    <property name="kdenlive_id">pan_zoom</property>
    <property name="tag">affine</property>
    <property name="kdenlive_ix">9</property>
    <property name="transition.geometry">0=-2/-1:1924x1082:100;10=-2/-1:1924x1082:100;14=-2/-1:1924x1082:100</property>
    <property name="transition.distort">0</property>
    <property name="kdenlive:sync_in_out">1</property>
    <property name="kdenlive_info">0/-1/</property>
    <property name="disable"/>
   </filter>
   <filter id="invert">
    <property name="mlt_service">invert</property>
    <property name="kdenlive_id">invert</property>
    <property name="tag">invert</property>
    <property name="kdenlive_ix">10</property>
    <property name="disable">1</property>
   </filter>
   <filter id="avfilter.histeq">
    <property name="mlt_service">avfilter.histeq</property>
    <property name="kdenlive_id">avfilter.histeq</property>
    <property name="tag">avfilter.histeq</property>
    <property name="kdenlive_ix">11</property>
    <property name="av.strength">1</property>
    <property name="av.intensity">0,073</property>
    <property name="kdenlive_info"/>
    <property name="disable">1</property>
   </filter>
  </entry>
  <blank length="2"/>
  <entry producer="slowmotion:14:0,3:1:0" in="9283" out="9301">
   <filter id="filter74">
    <property name="version">0,2</property>
    <property name="mlt_service">frei0r.delay0r</property>
    <property name="kdenlive_id">frei0r.delay0r</property>
    <property name="tag">frei0r.delay0r</property>
    <property name="kdenlive_ix">2</property>
    <property name="kdenlive_info"/>
    <property name="disable">1</property>
    <property name="DelayTime">0,002</property>
   </filter>
   <filter id="filter75">
    <property name="background">colour:0x00000000</property>
    <property name="mlt_service">affine</property>
    <property name="kdenlive_id">pan_zoom</property>
    <property name="tag">affine</property>
    <property name="kdenlive_ix">3</property>
    <property name="kdenlive_info">0/-1/</property>
    <property name="disable"/>
    <property name="transition.geometry">0=-96/-54:2112x1188:100;18=0/0:1920x1080:100</property>
    <property name="transition.distort">0</property>
   </filter>
   <filter id="frei0r.vertigo">
    <property name="version">1,1</property>
    <property name="mlt_service">frei0r.vertigo</property>
    <property name="kdenlive_id">frei0r.vertigo</property>
    <property name="tag">frei0r.vertigo</property>
    <property name="kdenlive_ix">4</property>
    <property name="PhaseIncrement">9283=0,02</property>
    <property name="Zoomrate">9283=0,202</property>
   </filter>
  </entry>
  <filter id="filter76">
   <property name="version">0,1</property>
   <property name="mlt_service">frei0r.letterb0xed</property>
   <property name="kdenlive_id">frei0r.letterb0xed</property>
   <property name="tag">frei0r.letterb0xed</property>
   <property name="kdenlive_ix">1</property>
   <property name="kdenlive_info"/>
   <property name="disable">0</property>
   <property name="Border Width">0,33</property>
   <property name="Transparency">0</property>
  </filter>
 </playlist>
 <playlist id="playlist4">
  <property name="kdenlive:track_name">Video 2</property>
  <blank length="782"/>
  <entry producer="15" in="0" out="201"/>
  <filter id="filter77">
   <property name="version">0,1</property>
   <property name="mlt_service">frei0r.letterb0xed</property>
   <property name="kdenlive_id">frei0r.letterb0xed</property>
   <property name="tag">frei0r.letterb0xed</property>
   <property name="kdenlive_ix">1</property>
   <property name="kdenlive_info"/>
   <property name="disable">0</property>
   <property name="Border Width">0,33</property>
   <property name="Transparency">0</property>
  </filter>
 </playlist>
 <playlist id="playlist15">
  <property name="kdenlive:track_name">Video 14</property>
  <blank length="1188"/>
  <entry producer="23" in="73" out="74"/>
  <blank length="21"/>
  <entry producer="23" in="74" out="75"/>
  <blank length="9"/>
  <entry producer="23" in="73" out="74"/>
  <filter id="filter78">
   <property name="version">0,1</property>
   <property name="mlt_service">frei0r.letterb0xed</property>
   <property name="kdenlive_id">frei0r.letterb0xed</property>
   <property name="tag">frei0r.letterb0xed</property>
   <property name="kdenlive_ix">1</property>
   <property name="kdenlive_info"/>
   <property name="disable">0</property>
   <property name="Border Width">0,33</property>
   <property name="Transparency">0</property>
  </filter>
 </playlist>
 <playlist id="playlist18">
  <property name="kdenlive:track_name">Vidéo 6</property>
  <filter id="filter79">
   <property name="version">0,1</property>
   <property name="mlt_service">frei0r.letterb0xed</property>
   <property name="kdenlive_id">frei0r.letterb0xed</property>
   <property name="tag">frei0r.letterb0xed</property>
   <property name="kdenlive_ix">1</property>
   <property name="kdenlive_info"/>
   <property name="disable">0</property>
   <property name="Border Width">0,33</property>
   <property name="Transparency">0</property>
  </filter>
 </playlist>
 <playlist id="playlist0">
  <property name="kdenlive:track_name">Video 4</property>
  <blank length="1480"/>
  <entry producer="47" in="0" out="328">
   <filter id="filter80">
    <property name="background">colour:0x00000000</property>
    <property name="mlt_service">affine</property>
    <property name="kdenlive_id">pan_zoom</property>
    <property name="tag">affine</property>
    <property name="kdenlive_ix">1</property>
    <property name="kdenlive_info"/>
    <property name="disable"/>
    <property name="transition.geometry">0=0/0:1920x1080:100;194=81/-121:1920x1080:100</property>
    <property name="transition.distort">0</property>
   </filter>
  </entry>
  <filter id="filter81">
   <property name="version">0,3</property>
   <property name="mlt_service">frei0r.levels</property>
   <property name="kdenlive_id">frei0r.levels</property>
   <property name="tag">frei0r.levels</property>
   <property name="kdenlive_ix">1</property>
   <property name="kdenlive_info">0/-1/</property>
   <property name="Channel">0,3</property>
   <property name="Input black level">0=0</property>
   <property name="Input white level">0=1</property>
   <property name="Gamma">0=0,23775</property>
   <property name="Black output">0=0</property>
   <property name="White output">0=0,977</property>
   <property name="Show histogram">0</property>
   <property name="Histogram position">0,3</property>
  </filter>
  <filter id="filter82">
   <property name="version">0,9</property>
   <property name="mlt_service">frei0r.colortap</property>
   <property name="kdenlive_id">frei0r.colortap</property>
   <property name="tag">frei0r.colortap</property>
   <property name="kdenlive_ix">2</property>
   <property name="kdenlive_info"/>
   <property name="table">xpro</property>
   <property name="disable">0</property>
  </filter>
 </playlist>
 <playlist id="playlist14">
  <property name="kdenlive:track_name">Video 13</property>
  <blank length="1480"/>
  <entry producer="48" in="0" out="328">
   <filter id="filter83">
    <property name="version">0,3</property>
    <property name="mlt_service">frei0r.saturat0r</property>
    <property name="kdenlive_id">frei0r.saturat0r</property>
    <property name="tag">frei0r.saturat0r</property>
    <property name="kdenlive_ix">1</property>
    <property name="kdenlive_info"/>
    <property name="disable">0</property>
    <property name="Saturation">0=0,098</property>
   </filter>
   <filter id="filter84">
    <property name="background">colour:0x00000000</property>
    <property name="mlt_service">affine</property>
    <property name="kdenlive_id">pan_zoom</property>
    <property name="tag">affine</property>
    <property name="kdenlive_ix">2</property>
    <property name="kdenlive_info"/>
    <property name="disable"/>
    <property name="transition.geometry">0=0/0:1920x1080:100;71=-40/12:1920x1080:100;194=-110/33:1920x1080:100</property>
    <property name="transition.distort">0</property>
   </filter>
  </entry>
  <filter id="filter85">
   <property name="version">0,3</property>
   <property name="mlt_service">frei0r.levels</property>
   <property name="kdenlive_id">frei0r.levels</property>
   <property name="tag">frei0r.levels</property>
   <property name="kdenlive_ix">1</property>
   <property name="kdenlive_info">0/-1/</property>
   <property name="Channel">0,3</property>
   <property name="Input black level">0=0</property>
   <property name="Input white level">0=0,345</property>
   <property name="Gamma">0=0,23775</property>
   <property name="Black output">0=0</property>
   <property name="White output">0=0,977</property>
   <property name="Show histogram">0</property>
   <property name="Histogram position">0,3</property>
  </filter>
  <filter id="filter86">
   <property name="version">0,9</property>
   <property name="mlt_service">frei0r.colortap</property>
   <property name="kdenlive_id">frei0r.colortap</property>
   <property name="tag">frei0r.colortap</property>
   <property name="kdenlive_ix">2</property>
   <property name="kdenlive_info"/>
   <property name="table">xpro</property>
  </filter>
 </playlist>
 <playlist id="playlist12">
  <property name="kdenlive:track_name">Video 11</property>
  <blank length="809"/>
  <entry producer="31" in="53" out="174">
   <filter id="filter87" in="160" out="175">
    <property name="start">1</property>
    <property name="mlt_service">brightness</property>
    <property name="kdenlive_id">fade_to_black</property>
    <property name="tag">brightness</property>
    <property name="kdenlive_ix">1</property>
    <property name="end">0</property>
    <property name="kdenlive_info"/>
    <property name="disable"/>
   </filter>
   <filter id="filter88" in="53" out="71">
    <property name="start">0</property>
    <property name="mlt_service">brightness</property>
    <property name="kdenlive_id">fade_from_black</property>
    <property name="tag">brightness</property>
    <property name="kdenlive_ix">2</property>
    <property name="end">1</property>
    <property name="kdenlive_info"/>
    <property name="disable"/>
   </filter>
  </entry>
 </playlist>
 <playlist id="playlist19">
  <property name="kdenlive:track_name">Video 18</property>
  <blank length="781"/>
  <entry producer="29" in="47" out="49">
   <filter id="filter89">
    <property name="version">0,1</property>
    <property name="mlt_service">frei0r.glitch0r</property>
    <property name="kdenlive_id">frei0r.glitch0r</property>
    <property name="tag">frei0r.glitch0r</property>
    <property name="kdenlive_ix">1</property>
    <property name="0">1</property>
    <property name="1">0</property>
    <property name="2">0,01</property>
    <property name="3">0</property>
    <property name="kdenlive_info"/>
   </filter>
  </entry>
  <entry producer="29" in="50" out="196">
   <filter id="filter90" in="181" out="196">
    <property name="start">1</property>
    <property name="mlt_service">brightness</property>
    <property name="kdenlive_id">fade_to_black</property>
    <property name="tag">brightness</property>
    <property name="kdenlive_ix">1</property>
    <property name="end">0</property>
    <property name="kdenlive_info"/>
    <property name="disable"/>
   </filter>
  </entry>
 </playlist>
 <playlist id="playlist5">
  <property name="kdenlive:track_name">Vidéo 2</property>
  <blank length="205"/>
  <entry producer="15" in="0" out="567"/>
  <entry producer="22" in="0" out="1"/>
  <entry producer="15" in="570" out="573"/>
  <entry producer="22" in="0" out="1"/>
 </playlist>
 <playlist id="playlist6">
  <property name="kdenlive:track_name">Vidéo 3</property>
  <blank length="208"/>
  <entry producer="49" in="3" out="103"/>
  <blank length="5"/>
  <entry producer="53" in="2" out="21"/>
  <entry producer="53" in="9" out="10">
   <filter id="filter100">
    <property name="version">0,1</property>
    <property name="mlt_service">frei0r.glitch0r</property>
    <property name="kdenlive_id">frei0r.glitch0r</property>
    <property name="tag">frei0r.glitch0r</property>
    <property name="kdenlive_ix">1</property>
    <property name="kdenlive_info"/>
    <property name="disable"/>
    <property name="0">1</property>
    <property name="1">0,021</property>
    <property name="2">0,004</property>
    <property name="3">0</property>
   </filter>
  </entry>
  <entry producer="50" in="11" out="11">
   <filter id="filter101">
    <property name="version">0,1</property>
    <property name="mlt_service">frei0r.glitch0r</property>
    <property name="kdenlive_id">frei0r.glitch0r</property>
    <property name="tag">frei0r.glitch0r</property>
    <property name="kdenlive_ix">1</property>
    <property name="kdenlive_info"/>
    <property name="disable"/>
    <property name="0">1</property>
    <property name="1">0,021</property>
    <property name="2">0,004</property>
    <property name="3">0</property>
   </filter>
  </entry>
  <entry producer="50" in="25" out="165"/>
  <blank length="5"/>
  <entry producer="51" in="2" out="150"/>
  <blank length="5"/>
  <entry producer="52" in="2" out="30"/>
  <entry producer="52" in="31" out="32">
   <filter id="filter102">
    <property name="version">0,1</property>
    <property name="mlt_service">frei0r.glitch0r</property>
    <property name="kdenlive_id">frei0r.glitch0r</property>
    <property name="tag">frei0r.glitch0r</property>
    <property name="kdenlive_info"/>
    <property name="kdenlive_ix">1</property>
    <property name="disable"/>
    <property name="0">1</property>
    <property name="1">0,001</property>
    <property name="2">0,008</property>
    <property name="3">0</property>
   </filter>
  </entry>
  <entry producer="52" in="33" out="64"/>
  <entry producer="52" in="65" out="65">
   <filter id="filter103">
    <property name="version">0,1</property>
    <property name="mlt_service">frei0r.glitch0r</property>
    <property name="kdenlive_id">frei0r.glitch0r</property>
    <property name="tag">frei0r.glitch0r</property>
    <property name="kdenlive_info"/>
    <property name="kdenlive_ix">1</property>
    <property name="disable"/>
    <property name="0">1</property>
    <property name="1">0,002</property>
    <property name="2">0,015</property>
    <property name="3">0</property>
   </filter>
  </entry>
  <entry producer="52" in="66" out="67"/>
  <entry producer="52" in="68" out="69">
   <filter id="filter104">
    <property name="version">0,1</property>
    <property name="mlt_service">frei0r.glitch0r</property>
    <property name="kdenlive_id">frei0r.glitch0r</property>
    <property name="tag">frei0r.glitch0r</property>
    <property name="kdenlive_info"/>
    <property name="kdenlive_ix">1</property>
    <property name="disable"/>
    <property name="0">1</property>
    <property name="1">0,002</property>
    <property name="2">0,025</property>
    <property name="3">0</property>
   </filter>
  </entry>
  <entry producer="52" in="70" out="87"/>
  <entry producer="52" in="88" out="89">
   <filter id="filter105">
    <property name="version">0,1</property>
    <property name="mlt_service">frei0r.glitch0r</property>
    <property name="kdenlive_id">frei0r.glitch0r</property>
    <property name="tag">frei0r.glitch0r</property>
    <property name="kdenlive_info"/>
    <property name="kdenlive_ix">1</property>
    <property name="disable"/>
    <property name="0">1</property>
    <property name="1">0,002</property>
    <property name="2">0,011</property>
    <property name="3">0</property>
   </filter>
  </entry>
  <entry producer="52" in="90" out="135"/>
  <entry producer="52" in="136" out="137">
   <filter id="filter106">
    <property name="version">0,1</property>
    <property name="mlt_service">frei0r.glitch0r</property>
    <property name="kdenlive_id">frei0r.glitch0r</property>
    <property name="tag">frei0r.glitch0r</property>
    <property name="kdenlive_info"/>
    <property name="kdenlive_ix">1</property>
    <property name="disable"/>
    <property name="0">1</property>
    <property name="1">0,002</property>
    <property name="2">0,017</property>
    <property name="3">0</property>
   </filter>
  </entry>
  <entry producer="52" in="138" out="139">
   <filter id="filter107">
    <property name="mlt_service">invert</property>
    <property name="kdenlive_id">invert</property>
    <property name="tag">invert</property>
    <property name="kdenlive_info"/>
    <property name="kdenlive_ix">1</property>
    <property name="disable"/>
   </filter>
   <filter id="filter108">
    <property name="version">0,1</property>
    <property name="mlt_service">frei0r.glitch0r</property>
    <property name="kdenlive_id">frei0r.glitch0r</property>
    <property name="tag">frei0r.glitch0r</property>
    <property name="kdenlive_info"/>
    <property name="kdenlive_ix">2</property>
    <property name="disable"/>
    <property name="0">1</property>
    <property name="1">0,002</property>
    <property name="2">0,017</property>
    <property name="3">0</property>
   </filter>
  </entry>
  <entry producer="52" in="140" out="141">
   <filter id="filter109">
    <property name="version">0,1</property>
    <property name="mlt_service">frei0r.glitch0r</property>
    <property name="kdenlive_id">frei0r.glitch0r</property>
    <property name="tag">frei0r.glitch0r</property>
    <property name="kdenlive_info"/>
    <property name="kdenlive_ix">1</property>
    <property name="disable"/>
    <property name="0">1</property>
    <property name="1">0,002</property>
    <property name="2">0,023</property>
    <property name="3">0</property>
   </filter>
  </entry>
  <filter id="filter110">
   <property name="background">colour:0x00000000</property>
   <property name="mlt_service">affine</property>
   <property name="kdenlive_id">pan_zoom</property>
   <property name="tag">affine</property>
   <property name="kdenlive_ix">1</property>
   <property name="kdenlive_info">0/-1/</property>
   <property name="transition.geometry">0=0/0:1920x1080:100;205=96/54:1728x972:100;778=0/0:1920x1080:100</property>
   <property name="transition.distort">0</property>
   <property name="disable"/>
  </filter>
 </playlist>
 <playlist id="playlist7">
  <property name="kdenlive:track_name">Vidéo 4</property>
  <blank length="205"/>
  <entry producer="49" in="0" out="2">
   <filter id="filter111">
    <property name="version">0,1</property>
    <property name="mlt_service">frei0r.glitch0r</property>
    <property name="kdenlive_id">frei0r.glitch0r</property>
    <property name="tag">frei0r.glitch0r</property>
    <property name="kdenlive_info"/>
    <property name="kdenlive_ix">1</property>
    <property name="disable"/>
    <property name="0">1</property>
    <property name="1">0,015</property>
    <property name="2">0,009</property>
    <property name="3">0</property>
   </filter>
  </entry>
  <blank length="101"/>
  <entry producer="49" in="104" out="106"/>
  <entry producer="53" in="0" out="1"/>
  <blank length="164"/>
  <entry producer="50" in="166" out="168"/>
  <entry producer="51" in="0" out="1"/>
  <blank length="149"/>
  <entry producer="51" in="151" out="153"/>
  <entry producer="52" in="0" out="1"/>
  <blank length="140"/>
  <entry producer="52" in="142" out="143">
   <filter id="filter112">
    <property name="version">0,1</property>
    <property name="mlt_service">frei0r.glitch0r</property>
    <property name="kdenlive_id">frei0r.glitch0r</property>
    <property name="tag">frei0r.glitch0r</property>
    <property name="kdenlive_info"/>
    <property name="kdenlive_ix">1</property>
    <property name="disable"/>
    <property name="0">1</property>
    <property name="1">0,002</property>
    <property name="2">0,023</property>
    <property name="3">0</property>
   </filter>
  </entry>
  <filter id="filter113">
   <property name="background">colour:0x00000000</property>
   <property name="mlt_service">affine</property>
   <property name="kdenlive_id">pan_zoom</property>
   <property name="tag">affine</property>
   <property name="kdenlive_ix">1</property>
   <property name="kdenlive_info">0/-1/</property>
   <property name="transition.geometry">0=0/0:1920x1080:100;205=96/54:1728x972:100;778=0/0:1920x1080:100</property>
   <property name="transition.distort">0</property>
   <property name="disable"/>
  </filter>
  <filter id="filter114">
   <property name="version">0,1</property>
   <property name="mlt_service">frei0r.glitch0r</property>
   <property name="kdenlive_id">frei0r.glitch0r</property>
   <property name="tag">frei0r.glitch0r</property>
   <property name="kdenlive_ix">2</property>
   <property name="kdenlive_info"/>
   <property name="0">1</property>
   <property name="1">0,225</property>
   <property name="2">0,218</property>
   <property name="3">0</property>
  </filter>
 </playlist>
 <tractor title="Anonymous Submission" id="maintractor" global_feed="1" in="0" out="3454">
  <track producer="black_track"/>
  <track hide="video" producer="playlist1"/>
  <track hide="video" producer="playlist2"/>
  <track producer="playlist9"/>
  <track producer="playlist13"/>
  <track producer="playlist26"/>
  <track producer="playlist24"/>
  <track producer="playlist23"/>
  <track producer="playlist17"/>
  <track hide="audio" producer="playlist11"/>
  <track producer="playlist8"/>
  <track hide="audio" producer="playlist3"/>
  <track producer="playlist25"/>
  <track hide="audio" producer="playlist4"/>
  <track producer="playlist15"/>
  <track producer="playlist18"/>
  <track producer="playlist0"/>
  <track producer="playlist14"/>
  <track producer="playlist12"/>
  <track producer="playlist19"/>
  <track producer="playlist5"/>
  <track producer="playlist6"/>
  <track producer="playlist7"/>
  <transition id="transition0" in="205" out="778">
   <property name="a_track">20</property>
   <property name="b_track">21</property>
   <property name="start">0/0:100%x100%</property>
   <property name="factory">loader</property>
   <property name="aligned">1</property>
   <property name="progressive">0</property>
   <property name="mlt_service">composite</property>
   <property name="kdenlive_id">composite</property>
   <property name="force_track">1</property>
   <property name="deinterlace">0</property>
   <property name="distort">0</property>
   <property name="fill">1</property>
   <property name="geometry">9/5:1901x1069:100</property>
   <property name="halign">centre</property>
   <property name="luma_invert">0</property>
   <property name="operator">over</property>
   <property name="softness">0</property>
   <property name="valign">middle</property>
  </transition>
  <transition id="transition1" in="205" out="778">
   <property name="a_track">20</property>
   <property name="b_track">22</property>
   <property name="start">0/0:100%x100%</property>
   <property name="factory">loader</property>
   <property name="aligned">1</property>
   <property name="progressive">0</property>
   <property name="mlt_service">composite</property>
   <property name="kdenlive_id">composite</property>
   <property name="force_track">1</property>
   <property name="deinterlace">0</property>
   <property name="distort">0</property>
   <property name="fill">1</property>
   <property name="geometry">9/5:1901x1069:100</property>
   <property name="halign">centre</property>
   <property name="luma_invert">0</property>
   <property name="operator">over</property>
   <property name="softness">0</property>
   <property name="valign">middle</property>
   <property name="automatic">0</property>
   <property name="luma"/>
  </transition>
  <transition id="transition27" in="782" out="983">
   <property name="a_track">11</property>
   <property name="b_track">12</property>
   <property name="start">0/0:100%x100%</property>
   <property name="factory">loader</property>
   <property name="aligned">1</property>
   <property name="progressive">1</property>
   <property name="mlt_service">composite</property>
   <property name="kdenlive_id">composite</property>
   <property name="force_track">1</property>
   <property name="deinterlace">0</property>
   <property name="distort">0</property>
   <property name="fill">1</property>
   <property name="geometry">0=0/0:1920x1080:55;21=0/0:1920x1080:50;32=0/0:1920x1080:48;41=0/0:1920x1080:41;69=0/0:1920x1080:37;114=0/0:1920x1080:20;147=0/0:1920x1080:0;201=0/0:1920x1080:0</property>
   <property name="halign">centre</property>
   <property name="luma">/home/bordun/.local/share/kdenlive/lumas/HD/159170-bi-linear_x_-_16-9.pgm</property>
   <property name="luma_invert">1</property>
   <property name="operator">over</property>
   <property name="softness">0,55</property>
   <property name="valign">middle</property>
  </transition>
  <transition id="transition26" in="986" out="1004">
   <property name="a_track">11</property>
   <property name="b_track">12</property>
   <property name="start">0/0:100%x100%</property>
   <property name="factory">loader</property>
   <property name="aligned">1</property>
   <property name="progressive">1</property>
   <property name="mlt_service">composite</property>
   <property name="kdenlive_id">composite</property>
   <property name="force_track">0</property>
   <property name="deinterlace">0</property>
   <property name="distort">0</property>
   <property name="fill">1</property>
   <property name="geometry">0/0:1920x1080:27</property>
   <property name="halign">centre</property>
   <property name="luma_invert">0</property>
   <property name="operator">or</property>
   <property name="softness">0</property>
   <property name="valign">middle</property>
   <property name="automatic">0</property>
   <property name="luma"/>
  </transition>
  <transition id="transition28" in="1065" out="1088">
   <property name="a_track">9</property>
   <property name="b_track">10</property>
   <property name="start">0/0:100%x100%</property>
   <property name="factory">loader</property>
   <property name="aligned">1</property>
   <property name="progressive">1</property>
   <property name="mlt_service">composite</property>
   <property name="automatic">1</property>
   <property name="kdenlive_id">composite</property>
   <property name="force_track">0</property>
   <property name="deinterlace">0</property>
   <property name="distort">0</property>
   <property name="fill">1</property>
   <property name="geometry">0=0/0:1920x1080:0;3=0/0:1920x1080:50;18=0/0:1920x1080:50;23=0/0:1920x1080:0</property>
   <property name="halign">centre</property>
   <property name="luma_invert">0</property>
   <property name="operator">over</property>
   <property name="softness">0</property>
   <property name="valign">middle</property>
   <property name="luma"/>
  </transition>
  <transition id="transition30" in="1102" out="1124">
   <property name="a_track">9</property>
   <property name="b_track">10</property>
   <property name="start">0/0:100%x100%</property>
   <property name="factory">loader</property>
   <property name="aligned">1</property>
   <property name="progressive">1</property>
   <property name="mlt_service">composite</property>
   <property name="automatic">1</property>
   <property name="kdenlive_id">composite</property>
   <property name="force_track">0</property>
   <property name="deinterlace">0</property>
   <property name="distort">0</property>
   <property name="fill">1</property>
   <property name="geometry">2=0/0:1920x1080:0;11=0/0:1920x1080:50;21=0/0:1920x1080:0;22=0/0:1920x1080:0</property>
   <property name="halign">centre</property>
   <property name="luma_invert">0</property>
   <property name="operator">over</property>
   <property name="softness">0</property>
   <property name="valign">middle</property>
   <property name="luma"/>
  </transition>
  <transition id="transition29" in="782" out="983">
   <property name="a_track">8</property>
   <property name="b_track">9</property>
   <property name="start">0/0:100%x100%</property>
   <property name="factory">loader</property>
   <property name="aligned">1</property>
   <property name="progressive">1</property>
   <property name="mlt_service">composite</property>
   <property name="kdenlive_id">composite</property>
   <property name="force_track">1</property>
   <property name="deinterlace">0</property>
   <property name="distort">0</property>
   <property name="fill">1</property>
   <property name="geometry">0=0/0:1920x1080:20;49=0/0:1920x1080:20;59=0/0:1920x1080:20;201=0/0:1920x1080:100</property>
   <property name="halign">centre</property>
   <property name="luma_invert">0</property>
   <property name="operator">over</property>
   <property name="softness">0</property>
   <property name="valign">middle</property>
   <property name="automatic">0</property>
   <property name="luma"/>
  </transition>
  <transition id="transition31" in="1103" out="1124">
   <property name="a_track">8</property>
   <property name="b_track">9</property>
   <property name="factory">loader</property>
   <property name="mlt_service">luma</property>
   <property name="kdenlive_id">dissolve</property>
   <property name="force_track">0</property>
   <property name="reverse">1</property>
  </transition>
  <transition id="transition32" in="782" out="983">
   <property name="a_track">8</property>
   <property name="b_track">10</property>
   <property name="start">0/0:100%x100%</property>
   <property name="factory">loader</property>
   <property name="aligned">1</property>
   <property name="progressive">1</property>
   <property name="mlt_service">composite</property>
   <property name="kdenlive_id">composite</property>
   <property name="force_track">1</property>
   <property name="deinterlace">0</property>
   <property name="distort">0</property>
   <property name="fill">1</property>
   <property name="geometry">0%/0%:100%x100%:100</property>
   <property name="halign">centre</property>
   <property name="luma_invert">0</property>
   <property name="operator">over</property>
   <property name="softness">0</property>
   <property name="valign">middle</property>
  </transition>
  <transition id="transition33" in="782" out="983">
   <property name="a_track">8</property>
   <property name="b_track">11</property>
   <property name="distort">0</property>
   <property name="rect">0%/0%:100%x100%:100%</property>
   <property name="fill">1</property>
   <property name="mlt_service">affine</property>
   <property name="force_track">1</property>
   <property name="geometry">0=0/0:1920x1080:81;3=0/0:1920x1080:81;138=0/0:1920x1080:81;148=0/0:1920x1080:84;170=0/0:1920x1080:0</property>
   <property name="keyed">1</property>
   <property name="rotate_x">0|=0;3=0;138=0;148=0;170=0</property>
   <property name="rotate_y">0|=0;3=0;138=0;148=0;170=0</property>
   <property name="rotate_z">0|=0;3=0;138=0;148=0;170=0</property>
   <property name="shear_x">0</property>
   <property name="shear_y">0</property>
   <property name="shear_z">0</property>
   <property name="automatic">0</property>
  </transition>
  <transition id="transition34" in="782" out="983">
   <property name="a_track">8</property>
   <property name="b_track">13</property>
   <property name="start">0/0:100%x100%</property>
   <property name="factory">loader</property>
   <property name="aligned">1</property>
   <property name="progressive">0</property>
   <property name="mlt_service">composite</property>
   <property name="kdenlive_id">composite</property>
   <property name="force_track">1</property>
   <property name="deinterlace">0</property>
   <property name="distort">0</property>
   <property name="fill">1</property>
   <property name="geometry">0=0/0:1920x1080:67;18=0/0:1920x1080:61;50=0/0:1920x1080:53;61=0/0:1920x1080:49;78=0/0:1920x1080:48;97=0/0:1920x1080:45;111=0/0:1920x1080:43;127=0/0:1920x1080:36;149=0/0:1920x1080:0;201=0/0:1920x1080:0</property>
   <property name="halign">centre</property>
   <property name="luma">/home/bordun/.local/share/kdenlive/lumas/HD/Bilinear_x_1080.pgm</property>
   <property name="luma_invert">1</property>
   <property name="operator">over</property>
   <property name="softness">0,76</property>
   <property name="valign">middle</property>
  </transition>
  <transition id="transition35" in="809" out="930">
   <property name="a_track">8</property>
   <property name="b_track">18</property>
   <property name="version">0,2</property>
   <property name="mlt_service">frei0r.addition</property>
   <property name="force_track">1</property>
  </transition>
  <transition id="transition36" in="781" out="930">
   <property name="a_track">8</property>
   <property name="b_track">19</property>
   <property name="version">0,2</property>
   <property name="mlt_service">frei0r.addition</property>
   <property name="force_track">1</property>
  </transition>
  <transition id="transition43" in="1480" out="1747">
   <property name="a_track">6</property>
   <property name="b_track">7</property>
   <property name="start">0/0:100%x100%</property>
   <property name="factory">loader</property>
   <property name="aligned">1</property>
   <property name="progressive">1</property>
   <property name="mlt_service">composite</property>
   <property name="kdenlive_id">composite</property>
   <property name="force_track">0</property>
   <property name="deinterlace">0</property>
   <property name="distort">0</property>
   <property name="fill">1</property>
   <property name="geometry">0=0/0:1920x1080:0;4=0/0:1920x1080:100;11=0/0:1920x1080:0</property>
   <property name="halign">centre</property>
   <property name="luma_invert">0</property>
   <property name="operator">over</property>
   <property name="softness">0,95</property>
   <property name="valign">middle</property>
  </transition>
  <transition id="transition46" in="1480" out="1808">
   <property name="a_track">4</property>
   <property name="b_track">16</property>
   <property name="start">0/0:100%x100%</property>
   <property name="factory">loader</property>
   <property name="aligned">1</property>
   <property name="progressive">0</property>
   <property name="mlt_service">composite</property>
   <property name="kdenlive_id">composite</property>
   <property name="force_track">1</property>
   <property name="deinterlace">0</property>
   <property name="distort">0</property>
   <property name="fill">0</property>
   <property name="geometry">0/0:1901x1069:100</property>
   <property name="halign">centre</property>
   <property name="luma_invert">0</property>
   <property name="operator">over</property>
   <property name="softness">0</property>
   <property name="valign">middle</property>
  </transition>
  <transition id="transition47" in="1480" out="1808">
   <property name="a_track">4</property>
   <property name="b_track">17</property>
   <property name="start">0/0:100%x100%</property>
   <property name="factory">loader</property>
   <property name="aligned">1</property>
   <property name="progressive">1</property>
   <property name="mlt_service">composite</property>
   <property name="kdenlive_id">composite</property>
   <property name="force_track">1</property>
   <property name="deinterlace">0</property>
   <property name="distort">0</property>
   <property name="fill">0</property>
   <property name="geometry">0/0:1901x1069:100</property>
   <property name="halign">centre</property>
   <property name="luma_invert">0</property>
   <property name="operator">over</property>
   <property name="softness">0</property>
   <property name="valign">middle</property>
  </transition>
  <transition id="transition48" in="1321" out="1341">
   <property name="a_track">3</property>
   <property name="b_track">4</property>
   <property name="factory">loader</property>
   <property name="mlt_service">luma</property>
   <property name="automatic">1</property>
   <property name="kdenlive_id">dissolve</property>
   <property name="force_track">0</property>
   <property name="reverse">0</property>
  </transition>
  <transition id="transition50" in="1342" out="1388">
   <property name="a_track">3</property>
   <property name="b_track">4</property>
   <property name="start">0/0:100%x100%</property>
   <property name="factory">loader</property>
   <property name="aligned">1</property>
   <property name="progressive">1</property>
   <property name="mlt_service">composite</property>
   <property name="automatic">1</property>
   <property name="kdenlive_id">composite</property>
   <property name="force_track">0</property>
   <property name="deinterlace">0</property>
   <property name="distort">0</property>
   <property name="fill">1</property>
   <property name="geometry">0=0/0:1920x1080:50;44=0/0:1920x1080:0</property>
   <property name="halign">centre</property>
   <property name="luma_invert">0</property>
   <property name="operator">over</property>
   <property name="softness">0</property>
   <property name="valign">middle</property>
   <property name="luma"/>
  </transition>
  <transition id="transition49" in="1207" out="1210">
   <property name="a_track">3</property>
   <property name="b_track">4</property>
   <property name="start">0/0:100%x100%</property>
   <property name="factory">loader</property>
   <property name="aligned">1</property>
   <property name="progressive">1</property>
   <property name="mlt_service">composite</property>
   <property name="kdenlive_id">composite</property>
   <property name="force_track">0</property>
   <property name="deinterlace">0</property>
   <property name="distort">0</property>
   <property name="fill">1</property>
   <property name="geometry">0%/0%:100%x100%:100</property>
   <property name="halign">centre</property>
   <property name="luma_invert">0</property>
   <property name="operator">over</property>
   <property name="softness">0</property>
   <property name="valign">middle</property>
   <property name="automatic">0</property>
   <property name="luma"/>
  </transition>
  <transition id="transition2">
   <property name="a_track">0</property>
   <property name="b_track">1</property>
   <property name="mlt_service">mix</property>
   <property name="always_active">1</property>
   <property name="sum">1</property>
   <property name="internal_added">237</property>
  </transition>
  <transition id="transition3">
   <property name="a_track">0</property>
   <property name="b_track">2</property>
   <property name="mlt_service">mix</property>
   <property name="always_active">1</property>
   <property name="sum">1</property>
   <property name="internal_added">237</property>
  </transition>
  <transition id="transition4">
   <property name="a_track">0</property>
   <property name="b_track">3</property>
   <property name="mlt_service">mix</property>
   <property name="always_active">1</property>
   <property name="sum">1</property>
   <property name="internal_added">237</property>
  </transition>
  <transition id="transition5">
   <property name="a_track">0</property>
   <property name="b_track">4</property>
   <property name="mlt_service">mix</property>
   <property name="always_active">1</property>
   <property name="sum">1</property>
   <property name="internal_added">237</property>
  </transition>
  <transition id="transition6">
   <property name="a_track">0</property>
   <property name="b_track">5</property>
   <property name="mlt_service">mix</property>
   <property name="always_active">1</property>
   <property name="sum">1</property>
   <property name="internal_added">237</property>
  </transition>
  <transition id="transition7">
   <property name="a_track">0</property>
   <property name="b_track">6</property>
   <property name="mlt_service">mix</property>
   <property name="always_active">1</property>
   <property name="sum">1</property>
   <property name="internal_added">237</property>
  </transition>
  <transition id="transition8">
   <property name="a_track">0</property>
   <property name="b_track">7</property>
   <property name="mlt_service">mix</property>
   <property name="always_active">1</property>
   <property name="sum">1</property>
   <property name="internal_added">237</property>
  </transition>
  <transition id="transition9">
   <property name="a_track">0</property>
   <property name="b_track">8</property>
   <property name="mlt_service">mix</property>
   <property name="always_active">1</property>
   <property name="sum">1</property>
   <property name="internal_added">237</property>
  </transition>
  <transition id="transition10">
   <property name="a_track">0</property>
   <property name="b_track">9</property>
   <property name="mlt_service">mix</property>
   <property name="always_active">1</property>
   <property name="sum">1</property>
   <property name="internal_added">237</property>
  </transition>
  <transition id="transition11">
   <property name="a_track">0</property>
   <property name="b_track">10</property>
   <property name="mlt_service">mix</property>
   <property name="always_active">1</property>
   <property name="sum">1</property>
   <property name="internal_added">237</property>
  </transition>
  <transition id="transition12">
   <property name="a_track">0</property>
   <property name="b_track">11</property>
   <property name="mlt_service">mix</property>
   <property name="always_active">1</property>
   <property name="sum">1</property>
   <property name="internal_added">237</property>
  </transition>
  <transition id="transition13">
   <property name="a_track">0</property>
   <property name="b_track">12</property>
   <property name="mlt_service">mix</property>
   <property name="always_active">1</property>
   <property name="sum">1</property>
   <property name="internal_added">237</property>
  </transition>
  <transition id="transition14">
   <property name="a_track">0</property>
   <property name="b_track">13</property>
   <property name="mlt_service">mix</property>
   <property name="always_active">1</property>
   <property name="sum">1</property>
   <property name="internal_added">237</property>
  </transition>
  <transition id="transition15">
   <property name="a_track">0</property>
   <property name="b_track">14</property>
   <property name="mlt_service">mix</property>
   <property name="always_active">1</property>
   <property name="sum">1</property>
   <property name="internal_added">237</property>
  </transition>
  <transition id="transition16">
   <property name="a_track">0</property>
   <property name="b_track">15</property>
   <property name="mlt_service">mix</property>
   <property name="always_active">1</property>
   <property name="sum">1</property>
   <property name="internal_added">237</property>
  </transition>
  <transition id="transition17">
   <property name="a_track">0</property>
   <property name="b_track">16</property>
   <property name="mlt_service">mix</property>
   <property name="always_active">1</property>
   <property name="sum">1</property>
   <property name="internal_added">237</property>
  </transition>
  <transition id="transition18">
   <property name="a_track">0</property>
   <property name="b_track">17</property>
   <property name="mlt_service">mix</property>
   <property name="always_active">1</property>
   <property name="sum">1</property>
   <property name="internal_added">237</property>
  </transition>
  <transition id="transition19">
   <property name="a_track">0</property>
   <property name="b_track">18</property>
   <property name="mlt_service">mix</property>
   <property name="always_active">1</property>
   <property name="sum">1</property>
   <property name="internal_added">237</property>
  </transition>
  <transition id="transition20">
   <property name="a_track">0</property>
   <property name="b_track">19</property>
   <property name="mlt_service">mix</property>
   <property name="always_active">1</property>
   <property name="sum">1</property>
   <property name="internal_added">237</property>
  </transition>
  <transition id="transition21">
   <property name="a_track">0</property>
   <property name="b_track">20</property>
   <property name="mlt_service">mix</property>
   <property name="always_active">1</property>
   <property name="sum">1</property>
   <property name="internal_added">237</property>
  </transition>
  <transition id="transition22">
   <property name="a_track">0</property>
   <property name="b_track">21</property>
   <property name="mlt_service">mix</property>
   <property name="always_active">1</property>
   <property name="sum">1</property>
   <property name="internal_added">237</property>
  </transition>
  <transition id="transition23">
   <property name="a_track">0</property>
   <property name="b_track">22</property>
   <property name="mlt_service">mix</property>
   <property name="always_active">1</property>
   <property name="sum">1</property>
   <property name="internal_added">237</property>
  </transition>
  <transition id="transition45" in="1480" out="1751">
   <property name="a_track">3</property>
   <property name="b_track">6</property>
   <property name="start">0/0:100%x100%</property>
   <property name="factory">loader</property>
   <property name="aligned">1</property>
   <property name="progressive">1</property>
   <property name="mlt_service">composite</property>
   <property name="automatic">1</property>
   <property name="kdenlive_id">composite</property>
   <property name="force_track">1</property>
   <property name="deinterlace">0</property>
   <property name="distort">0</property>
   <property name="fill">1</property>
   <property name="geometry">0=0/0:1920x1080:0;6=0/0:1920x1080:94;8=0/0:1920x1080:100</property>
   <property name="halign">centre</property>
   <property name="luma">/home/bordun/.local/share/kdenlive/lumas/HD/98807-Explosion Fractal with Small Spiral Blur.pgm</property>
   <property name="luma_invert">1</property>
   <property name="operator">over</property>
   <property name="softness">0</property>
   <property name="valign">middle</property>
  </transition>
 </tractor>
</mlt>
