<?xml version='1.0' encoding='utf-8'?>
<mlt title="Anonymous Submission" LC_NUMERIC="fr_FR.UTF-8" producer="main bin" version="6.12.0" root="/home/bordun/Clip01_SnapshatAuHarem/Video">
 <profile frame_rate_num="24" sample_aspect_num="1" display_aspect_den="9" colorspace="709" progressive="1" description="HD 1080p 24 fps" display_aspect_num="16" frame_rate_den="1" width="1920" height="1080" sample_aspect_den="1"/>
 <producer title="Anonymous Submission" id="1" in="0" out="4287">
  <property name="length">00:02:58:16</property>
  <property name="eof">pause</property>
  <property name="resource">/home/bordun/Clip01_SnapshatAuHarem/Audio/Snapchat_au_Harem.flac</property>
  <property name="audio_index">0</property>
  <property name="video_index">-1</property>
  <property name="mute_on_pause">1</property>
  <property name="mlt_service">avformat-novalidate</property>
  <property name="meta.media.nb_streams">1</property>
  <property name="meta.media.0.stream.type">audio</property>
  <property name="meta.media.0.codec.sample_fmt">s16</property>
  <property name="meta.media.0.codec.sample_rate">48000</property>
  <property name="meta.media.0.codec.channels">2</property>
  <property name="meta.media.0.codec.name">flac</property>
  <property name="meta.media.0.codec.long_name">FLAC (Free Lossless Audio Codec)</property>
  <property name="meta.media.0.codec.bit_rate">0</property>
  <property name="seekable">1</property>
  <property name="kdenlive:folderid">-1</property>
  <property name="kdenlive:file_size">16614188</property>
  <property name="kdenlive:file_hash">115a31e39ebfe7c973cc2dc7b9f7cbf8</property>
  <property name="global_feed">1</property>
 </producer>
 <producer title="Anonymous Submission" id="5" in="0" out="1872">
  <property name="length">00:01:18:01</property>
  <property name="eof">pause</property>
  <property name="resource">/media/bordun/Odile/SnapshatAuHarem/etalo/CAM2_2017-11-25_0756_C0009.mov</property>
  <property name="audio_index">2</property>
  <property name="video_index">0</property>
  <property name="mute_on_pause">1</property>
  <property name="mlt_service">avformat-novalidate</property>
  <property name="meta.media.nb_streams">2</property>
  <property name="meta.media.1.stream.type">video</property>
  <property name="meta.media.1.stream.frame_rate">24</property>
  <property name="meta.media.1.stream.sample_aspect_ratio">1</property>
  <property name="meta.media.1.codec.width">1920</property>
  <property name="meta.media.1.codec.height">1080</property>
  <property name="meta.media.1.codec.rotate">0</property>
  <property name="meta.media.1.codec.frame_rate">2400</property>
  <property name="meta.media.1.codec.pix_fmt">yuv422p10le</property>
  <property name="meta.media.1.codec.sample_aspect_ratio">0</property>
  <property name="meta.media.1.codec.colorspace">709</property>
  <property name="meta.media.1.codec.color_trc">1</property>
  <property name="meta.media.1.codec.name">prores</property>
  <property name="meta.media.1.codec.long_name">ProRes</property>
  <property name="meta.media.1.codec.bit_rate">176138010</property>
  <property name="meta.attr.1.stream.creation_time.markup">2017-11-25T07:56:22.000000Z</property>
  <property name="meta.attr.1.stream.language.markup">eng</property>
  <property name="meta.attr.1.stream.handler_name.markup">Apple Alias Data Handler</property>
  <property name="meta.attr.1.stream.encoder.markup">Apple ProRes 422 HQ</property>
  <property name="meta.attr.1.stream.timecode.markup">07:56:22:19</property>
  <property name="meta.media.2.stream.type">audio</property>
  <property name="meta.media.2.codec.sample_fmt">s32</property>
  <property name="meta.media.2.codec.sample_rate">48000</property>
  <property name="meta.media.2.codec.channels">2</property>
  <property name="meta.media.2.codec.name">pcm_s24le</property>
  <property name="meta.media.2.codec.long_name">PCM signed 24-bit little-endian</property>
  <property name="meta.media.2.codec.bit_rate">2304000</property>
  <property name="meta.attr.2.stream.creation_time.markup">2017-11-25T07:56:22.000000Z</property>
  <property name="meta.attr.2.stream.language.markup">eng</property>
  <property name="meta.attr.2.stream.handler_name.markup">Apple Alias Data Handler</property>
  <property name="meta.attr.2.stream.timecode.markup">07:56:22:19</property>
  <property name="meta.attr.com.apple.proapps.manufacturer.markup">Blackmagic Design</property>
  <property name="meta.attr.com.apple.proapps.cameraName.markup">CAM2</property>
  <property name="meta.attr.com.apple.proapps.isGood.markup">0</property>
  <property name="meta.attr.com.apple.proapps.customgamma.markup">com.blackmagic-design.cinemacamera.filmlog</property>
  <property name="meta.attr.com.blackmagic-design.cinemacamera.uuid.markup">18E5E00548F94923B646613A73C01B56</property>
  <property name="meta.attr.creation_time.markup">2017-11-25T07:56:22.000000Z</property>
  <property name="meta.attr.timecode.markup">07:56:22:19</property>
  <property name="seekable">1</property>
  <property name="meta.media.sample_aspect_num">1</property>
  <property name="meta.media.sample_aspect_den">1</property>
  <property name="aspect_ratio">1</property>
  <property name="meta.media.frame_rate_num">24</property>
  <property name="meta.media.frame_rate_den">1</property>
  <property name="meta.media.colorspace">709</property>
  <property name="meta.media.color_trc">1</property>
  <property name="meta.media.width">1920</property>
  <property name="meta.media.height">1080</property>
  <property name="meta.media.top_field_first">0</property>
  <property name="meta.media.progressive">1</property>
  <property name="kdenlive:file_size">1741202113</property>
  <property name="kdenlive:file_hash">272c3d2831d97e2b8d84194981e707ca</property>
  <property name="kdenlive:proxy">-</property>
  <property name="proxy_out">1872</property>
  <property name="kdenlive:originalurl">/media/bordun/Odile/SnapshatAuHarem/etalo/CAM2_2017-11-25_0756_C0009.mov</property>
  <property name="global_feed">1</property>
  <property name="kdenlive:clipname">julios aux chiottes</property>
  <property name="meta.media.0.stream.type">video</property>
  <property name="meta.media.0.stream.frame_rate">24</property>
  <property name="meta.media.0.stream.sample_aspect_ratio">1</property>
  <property name="meta.media.0.codec.width">1920</property>
  <property name="meta.media.0.codec.height">1080</property>
  <property name="meta.media.0.codec.rotate">0</property>
  <property name="meta.media.0.codec.frame_rate">12288</property>
  <property name="meta.media.0.codec.pix_fmt">yuv422p10le</property>
  <property name="meta.media.0.codec.sample_aspect_ratio">0</property>
  <property name="meta.media.0.codec.colorspace">709</property>
  <property name="meta.media.0.codec.color_trc">1</property>
  <property name="meta.media.0.codec.name">dnxhd</property>
  <property name="meta.media.0.codec.long_name">VC3/DNxHD</property>
  <property name="meta.media.0.codec.bit_rate">176160768</property>
  <property name="meta.attr.0.stream.language.markup">eng</property>
  <property name="meta.attr.0.stream.handler_name.markup">Core Media Data Handler</property>
  <property name="meta.attr.0.stream.timecode.markup">07:56:22:19</property>
  <property name="meta.attr.major_brand.markup">qt  </property>
  <property name="meta.attr.minor_version.markup">512</property>
  <property name="meta.attr.compatible_brands.markup">qt  </property>
  <property name="meta.attr.encoder.markup">Lavf57.25.100</property>
 </producer>
 <producer id="6" in="0" out="119">
  <property name="length">120</property>
  <property name="eof">pause</property>
  <property name="resource">0x000000ff</property>
  <property name="aspect_ratio">1</property>
  <property name="mlt_service">color</property>
  <property name="kdenlive:clipname">noir</property>
  <property name="kdenlive:folderid">-1</property>
  <property name="kdenlive:duration">120</property>
  <property name="kdenlive:file_hash">9196813120dc5c505072516b15baf414</property>
 </producer>
 <producer id="7" in="0" out="119">
  <property name="length">120</property>
  <property name="eof">pause</property>
  <property name="resource">0xffffffff</property>
  <property name="aspect_ratio">1</property>
  <property name="mlt_service">color</property>
  <property name="kdenlive:clipname">blanc</property>
  <property name="kdenlive:folderid">-1</property>
  <property name="kdenlive:duration">120</property>
  <property name="kdenlive:file_hash">039b56a692cd66eefeea44a17539e5a2</property>
 </producer>
 <producer title="Anonymous Submission" id="2" in="0" out="2072">
  <property name="length">00:01:26:09</property>
  <property name="eof">pause</property>
  <property name="resource">/media/bordun/Odile/SnapshatAuHarem/etalo/CAM2_2017-11-25_0844_C0012.mov</property>
  <property name="audio_index">2</property>
  <property name="video_index">0</property>
  <property name="mute_on_pause">1</property>
  <property name="mlt_service">avformat-novalidate</property>
  <property name="meta.media.nb_streams">2</property>
  <property name="meta.media.1.stream.type">video</property>
  <property name="meta.media.1.stream.frame_rate">24</property>
  <property name="meta.media.1.stream.sample_aspect_ratio">1</property>
  <property name="meta.media.1.codec.width">1920</property>
  <property name="meta.media.1.codec.height">1080</property>
  <property name="meta.media.1.codec.rotate">0</property>
  <property name="meta.media.1.codec.frame_rate">2400</property>
  <property name="meta.media.1.codec.pix_fmt">yuv422p10le</property>
  <property name="meta.media.1.codec.sample_aspect_ratio">0</property>
  <property name="meta.media.1.codec.colorspace">709</property>
  <property name="meta.media.1.codec.color_trc">1</property>
  <property name="meta.media.1.codec.name">prores</property>
  <property name="meta.media.1.codec.long_name">ProRes</property>
  <property name="meta.media.1.codec.bit_rate">176138321</property>
  <property name="meta.attr.1.stream.creation_time.markup">2017-11-25T08:44:27.000000Z</property>
  <property name="meta.attr.1.stream.language.markup">eng</property>
  <property name="meta.attr.1.stream.handler_name.markup">Apple Alias Data Handler</property>
  <property name="meta.attr.1.stream.encoder.markup">Apple ProRes 422 HQ</property>
  <property name="meta.attr.1.stream.timecode.markup">08:44:27:17</property>
  <property name="meta.media.2.stream.type">audio</property>
  <property name="meta.media.2.codec.sample_fmt">s32</property>
  <property name="meta.media.2.codec.sample_rate">48000</property>
  <property name="meta.media.2.codec.channels">2</property>
  <property name="meta.media.2.codec.name">pcm_s24le</property>
  <property name="meta.media.2.codec.long_name">PCM signed 24-bit little-endian</property>
  <property name="meta.media.2.codec.bit_rate">2304000</property>
  <property name="meta.attr.2.stream.creation_time.markup">2017-11-25T08:44:27.000000Z</property>
  <property name="meta.attr.2.stream.language.markup">eng</property>
  <property name="meta.attr.2.stream.handler_name.markup">Apple Alias Data Handler</property>
  <property name="meta.attr.2.stream.timecode.markup">08:44:27:17</property>
  <property name="meta.attr.com.apple.proapps.manufacturer.markup">Blackmagic Design</property>
  <property name="meta.attr.com.apple.proapps.cameraName.markup">CAM2</property>
  <property name="meta.attr.com.apple.proapps.isGood.markup">0</property>
  <property name="meta.attr.com.apple.proapps.customgamma.markup">com.blackmagic-design.cinemacamera.filmlog</property>
  <property name="meta.attr.com.blackmagic-design.cinemacamera.uuid.markup">18E5E00548F94923B646613A73C01B56</property>
  <property name="meta.attr.creation_time.markup">2017-11-25T08:44:27.000000Z</property>
  <property name="meta.attr.timecode.markup">08:44:27:17</property>
  <property name="seekable">1</property>
  <property name="meta.media.sample_aspect_num">1</property>
  <property name="meta.media.sample_aspect_den">1</property>
  <property name="aspect_ratio">1</property>
  <property name="kdenlive:file_size">1927129345</property>
  <property name="kdenlive:file_hash">d2c6dc1b2eadd62f7d89eaf9839227d5</property>
  <property name="kdenlive:proxy">-</property>
  <property name="proxy_out">2072</property>
  <property name="kdenlive:originalurl">/media/bordun/Odile/SnapshatAuHarem/etalo/CAM2_2017-11-25_0844_C0012.mov</property>
  <property name="global_feed">1</property>
  <property name="kdenlive:meta.media.nb_streams">3</property>
  <property name="kdenlive:meta.media.1.stream.type">video</property>
  <property name="kdenlive:meta.media.1.stream.frame_rate">24</property>
  <property name="kdenlive:meta.media.1.stream.sample_aspect_ratio">1</property>
  <property name="kdenlive:meta.media.1.codec.width">1920</property>
  <property name="kdenlive:meta.media.1.codec.height">1080</property>
  <property name="kdenlive:meta.media.1.codec.rotate">0</property>
  <property name="kdenlive:meta.media.1.codec.frame_rate">2400</property>
  <property name="kdenlive:meta.media.1.codec.pix_fmt">yuv422p10le</property>
  <property name="kdenlive:meta.media.1.codec.sample_aspect_ratio">0</property>
  <property name="kdenlive:meta.media.1.codec.colorspace">709</property>
  <property name="kdenlive:meta.media.1.codec.color_trc">1</property>
  <property name="kdenlive:meta.media.1.codec.name">prores</property>
  <property name="kdenlive:meta.media.1.codec.long_name">ProRes</property>
  <property name="kdenlive:meta.media.1.codec.bit_rate">176138321</property>
  <property name="kdenlive:meta.attr.1.stream.creation_time.markup">2017-11-25T08:44:27.000000Z</property>
  <property name="kdenlive:meta.attr.1.stream.language.markup">eng</property>
  <property name="kdenlive:meta.attr.1.stream.handler_name.markup">Apple Alias Data Handler</property>
  <property name="kdenlive:meta.attr.1.stream.encoder.markup">Apple ProRes 422 HQ</property>
  <property name="kdenlive:meta.attr.1.stream.timecode.markup">08:44:27:17</property>
  <property name="kdenlive:meta.media.2.stream.type">audio</property>
  <property name="kdenlive:meta.media.2.codec.sample_fmt">s32</property>
  <property name="kdenlive:meta.media.2.codec.sample_rate">48000</property>
  <property name="kdenlive:meta.media.2.codec.channels">2</property>
  <property name="kdenlive:meta.media.2.codec.name">pcm_s24le</property>
  <property name="kdenlive:meta.media.2.codec.long_name">PCM signed 24-bit little-endian</property>
  <property name="kdenlive:meta.media.2.codec.bit_rate">2304000</property>
  <property name="kdenlive:meta.attr.2.stream.creation_time.markup">2017-11-25T08:44:27.000000Z</property>
  <property name="kdenlive:meta.attr.2.stream.language.markup">eng</property>
  <property name="kdenlive:meta.attr.2.stream.handler_name.markup">Apple Alias Data Handler</property>
  <property name="kdenlive:meta.attr.2.stream.timecode.markup">08:44:27:17</property>
  <property name="kdenlive:meta.attr.com.apple.proapps.manufacturer.markup">Blackmagic Design</property>
  <property name="kdenlive:meta.attr.com.apple.proapps.cameraName.markup">CAM2</property>
  <property name="kdenlive:meta.attr.com.apple.proapps.isGood.markup">0</property>
  <property name="kdenlive:meta.attr.com.apple.proapps.customgamma.markup">com.blackmagic-design.cinemacamera.filmlog</property>
  <property name="kdenlive:meta.attr.com.blackmagic-design.cinemacamera.uuid.markup">18E5E00548F94923B646613A73C01B56</property>
  <property name="kdenlive:meta.attr.creation_time.markup">2017-11-25T08:44:27.000000Z</property>
  <property name="kdenlive:meta.attr.timecode.markup">08:44:27:17</property>
  <property name="kdenlive:meta.media.sample_aspect_num">1</property>
  <property name="kdenlive:meta.media.sample_aspect_den">1</property>
  <property name="kdenlive:meta.media.frame_rate_num">24</property>
  <property name="kdenlive:meta.media.frame_rate_den">1</property>
  <property name="kdenlive:meta.media.colorspace">709</property>
  <property name="kdenlive:meta.media.color_trc">1</property>
  <property name="kdenlive:meta.media.width">1920</property>
  <property name="kdenlive:meta.media.height">1080</property>
  <property name="kdenlive:meta.media.top_field_first">0</property>
  <property name="kdenlive:meta.media.progressive">1</property>
  <property name="kdenlive:clipname">plan seq 1</property>
  <property name="meta.media.frame_rate_num">24</property>
  <property name="meta.media.frame_rate_den">1</property>
  <property name="meta.media.colorspace">709</property>
  <property name="meta.media.color_trc">1</property>
  <property name="meta.media.width">1920</property>
  <property name="meta.media.height">1080</property>
  <property name="meta.media.top_field_first">0</property>
  <property name="meta.media.progressive">1</property>
  <property name="meta.media.0.stream.type">video</property>
  <property name="meta.media.0.stream.frame_rate">24</property>
  <property name="meta.media.0.stream.sample_aspect_ratio">1</property>
  <property name="meta.media.0.codec.width">1920</property>
  <property name="meta.media.0.codec.height">1080</property>
  <property name="meta.media.0.codec.rotate">0</property>
  <property name="meta.media.0.codec.frame_rate">12288</property>
  <property name="meta.media.0.codec.pix_fmt">yuv422p10le</property>
  <property name="meta.media.0.codec.sample_aspect_ratio">0</property>
  <property name="meta.media.0.codec.colorspace">709</property>
  <property name="meta.media.0.codec.color_trc">1</property>
  <property name="meta.media.0.codec.name">dnxhd</property>
  <property name="meta.media.0.codec.long_name">VC3/DNxHD</property>
  <property name="meta.media.0.codec.bit_rate">176160768</property>
  <property name="meta.attr.0.stream.language.markup">eng</property>
  <property name="meta.attr.0.stream.handler_name.markup">Core Media Data Handler</property>
  <property name="meta.attr.0.stream.timecode.markup">08:44:27:17</property>
  <property name="meta.attr.major_brand.markup">qt  </property>
  <property name="meta.attr.minor_version.markup">512</property>
  <property name="meta.attr.compatible_brands.markup">qt  </property>
  <property name="meta.attr.encoder.markup">Lavf57.25.100</property>
 </producer>
 <producer title="Anonymous Submission" id="3" in="0" out="2299">
  <property name="length">00:01:35:20</property>
  <property name="eof">pause</property>
  <property name="resource">/media/bordun/Odile/SnapshatAuHarem/etalo/CAM2_2017-11-25_0847_C0013.mov</property>
  <property name="audio_index">2</property>
  <property name="video_index">0</property>
  <property name="mute_on_pause">1</property>
  <property name="mlt_service">avformat-novalidate</property>
  <property name="meta.media.nb_streams">2</property>
  <property name="meta.media.1.stream.type">video</property>
  <property name="meta.media.1.stream.frame_rate">24</property>
  <property name="meta.media.1.stream.sample_aspect_ratio">1</property>
  <property name="meta.media.1.codec.width">1920</property>
  <property name="meta.media.1.codec.height">1080</property>
  <property name="meta.media.1.codec.rotate">0</property>
  <property name="meta.media.1.codec.frame_rate">2400</property>
  <property name="meta.media.1.codec.pix_fmt">yuv422p10le</property>
  <property name="meta.media.1.codec.sample_aspect_ratio">0</property>
  <property name="meta.media.1.codec.colorspace">709</property>
  <property name="meta.media.1.codec.color_trc">1</property>
  <property name="meta.media.1.codec.name">prores</property>
  <property name="meta.media.1.codec.long_name">ProRes</property>
  <property name="meta.media.1.codec.bit_rate">176138616</property>
  <property name="meta.attr.1.stream.creation_time.markup">2017-11-25T08:47:46.000000Z</property>
  <property name="meta.attr.1.stream.language.markup">eng</property>
  <property name="meta.attr.1.stream.handler_name.markup">Apple Alias Data Handler</property>
  <property name="meta.attr.1.stream.encoder.markup">Apple ProRes 422 HQ</property>
  <property name="meta.attr.1.stream.timecode.markup">08:47:46:22</property>
  <property name="meta.media.2.stream.type">audio</property>
  <property name="meta.media.2.codec.sample_fmt">s32</property>
  <property name="meta.media.2.codec.sample_rate">48000</property>
  <property name="meta.media.2.codec.channels">2</property>
  <property name="meta.media.2.codec.name">pcm_s24le</property>
  <property name="meta.media.2.codec.long_name">PCM signed 24-bit little-endian</property>
  <property name="meta.media.2.codec.bit_rate">2304000</property>
  <property name="meta.attr.2.stream.creation_time.markup">2017-11-25T08:47:46.000000Z</property>
  <property name="meta.attr.2.stream.language.markup">eng</property>
  <property name="meta.attr.2.stream.handler_name.markup">Apple Alias Data Handler</property>
  <property name="meta.attr.2.stream.timecode.markup">08:47:46:22</property>
  <property name="meta.attr.com.apple.proapps.manufacturer.markup">Blackmagic Design</property>
  <property name="meta.attr.com.apple.proapps.cameraName.markup">CAM2</property>
  <property name="meta.attr.com.apple.proapps.isGood.markup">0</property>
  <property name="meta.attr.com.apple.proapps.customgamma.markup">com.blackmagic-design.cinemacamera.filmlog</property>
  <property name="meta.attr.com.blackmagic-design.cinemacamera.uuid.markup">18E5E00548F94923B646613A73C01B56</property>
  <property name="meta.attr.creation_time.markup">2017-11-25T08:47:46.000000Z</property>
  <property name="meta.attr.timecode.markup">08:47:46:22</property>
  <property name="seekable">1</property>
  <property name="meta.media.sample_aspect_num">1</property>
  <property name="meta.media.sample_aspect_den">1</property>
  <property name="aspect_ratio">1</property>
  <property name="kdenlive:file_size">2138152777</property>
  <property name="kdenlive:file_hash">a0a40ba05c1c0c852ecb5506561dec13</property>
  <property name="kdenlive:proxy">-</property>
  <property name="proxy_out">2299</property>
  <property name="kdenlive:originalurl">/media/bordun/Odile/SnapshatAuHarem/etalo/CAM2_2017-11-25_0847_C0013.mov</property>
  <property name="global_feed">1</property>
  <property name="kdenlive:meta.media.nb_streams">3</property>
  <property name="kdenlive:meta.media.1.stream.type">video</property>
  <property name="kdenlive:meta.media.1.stream.frame_rate">24</property>
  <property name="kdenlive:meta.media.1.stream.sample_aspect_ratio">1</property>
  <property name="kdenlive:meta.media.1.codec.width">1920</property>
  <property name="kdenlive:meta.media.1.codec.height">1080</property>
  <property name="kdenlive:meta.media.1.codec.rotate">0</property>
  <property name="kdenlive:meta.media.1.codec.frame_rate">2400</property>
  <property name="kdenlive:meta.media.1.codec.pix_fmt">yuv422p10le</property>
  <property name="kdenlive:meta.media.1.codec.sample_aspect_ratio">0</property>
  <property name="kdenlive:meta.media.1.codec.colorspace">709</property>
  <property name="kdenlive:meta.media.1.codec.color_trc">1</property>
  <property name="kdenlive:meta.media.1.codec.name">prores</property>
  <property name="kdenlive:meta.media.1.codec.long_name">ProRes</property>
  <property name="kdenlive:meta.media.1.codec.bit_rate">176138616</property>
  <property name="kdenlive:meta.attr.1.stream.creation_time.markup">2017-11-25T08:47:46.000000Z</property>
  <property name="kdenlive:meta.attr.1.stream.language.markup">eng</property>
  <property name="kdenlive:meta.attr.1.stream.handler_name.markup">Apple Alias Data Handler</property>
  <property name="kdenlive:meta.attr.1.stream.encoder.markup">Apple ProRes 422 HQ</property>
  <property name="kdenlive:meta.attr.1.stream.timecode.markup">08:47:46:22</property>
  <property name="kdenlive:meta.media.2.stream.type">audio</property>
  <property name="kdenlive:meta.media.2.codec.sample_fmt">s32</property>
  <property name="kdenlive:meta.media.2.codec.sample_rate">48000</property>
  <property name="kdenlive:meta.media.2.codec.channels">2</property>
  <property name="kdenlive:meta.media.2.codec.name">pcm_s24le</property>
  <property name="kdenlive:meta.media.2.codec.long_name">PCM signed 24-bit little-endian</property>
  <property name="kdenlive:meta.media.2.codec.bit_rate">2304000</property>
  <property name="kdenlive:meta.attr.2.stream.creation_time.markup">2017-11-25T08:47:46.000000Z</property>
  <property name="kdenlive:meta.attr.2.stream.language.markup">eng</property>
  <property name="kdenlive:meta.attr.2.stream.handler_name.markup">Apple Alias Data Handler</property>
  <property name="kdenlive:meta.attr.2.stream.timecode.markup">08:47:46:22</property>
  <property name="kdenlive:meta.attr.com.apple.proapps.manufacturer.markup">Blackmagic Design</property>
  <property name="kdenlive:meta.attr.com.apple.proapps.cameraName.markup">CAM2</property>
  <property name="kdenlive:meta.attr.com.apple.proapps.isGood.markup">0</property>
  <property name="kdenlive:meta.attr.com.apple.proapps.customgamma.markup">com.blackmagic-design.cinemacamera.filmlog</property>
  <property name="kdenlive:meta.attr.com.blackmagic-design.cinemacamera.uuid.markup">18E5E00548F94923B646613A73C01B56</property>
  <property name="kdenlive:meta.attr.creation_time.markup">2017-11-25T08:47:46.000000Z</property>
  <property name="kdenlive:meta.attr.timecode.markup">08:47:46:22</property>
  <property name="kdenlive:meta.media.sample_aspect_num">1</property>
  <property name="kdenlive:meta.media.sample_aspect_den">1</property>
  <property name="kdenlive:meta.media.frame_rate_num">24</property>
  <property name="kdenlive:meta.media.frame_rate_den">1</property>
  <property name="kdenlive:meta.media.colorspace">709</property>
  <property name="kdenlive:meta.media.color_trc">1</property>
  <property name="kdenlive:meta.media.width">1920</property>
  <property name="kdenlive:meta.media.height">1080</property>
  <property name="kdenlive:meta.media.top_field_first">0</property>
  <property name="kdenlive:meta.media.progressive">1</property>
  <property name="kdenlive:clipname">plan seq 2</property>
  <property name="meta.media.frame_rate_num">24</property>
  <property name="meta.media.frame_rate_den">1</property>
  <property name="meta.media.colorspace">709</property>
  <property name="meta.media.color_trc">1</property>
  <property name="meta.media.width">1920</property>
  <property name="meta.media.height">1080</property>
  <property name="meta.media.top_field_first">0</property>
  <property name="meta.media.progressive">1</property>
  <property name="meta.media.0.stream.type">video</property>
  <property name="meta.media.0.stream.frame_rate">24</property>
  <property name="meta.media.0.stream.sample_aspect_ratio">1</property>
  <property name="meta.media.0.codec.width">1920</property>
  <property name="meta.media.0.codec.height">1080</property>
  <property name="meta.media.0.codec.rotate">0</property>
  <property name="meta.media.0.codec.frame_rate">12288</property>
  <property name="meta.media.0.codec.pix_fmt">yuv422p10le</property>
  <property name="meta.media.0.codec.sample_aspect_ratio">0</property>
  <property name="meta.media.0.codec.colorspace">709</property>
  <property name="meta.media.0.codec.color_trc">1</property>
  <property name="meta.media.0.codec.name">dnxhd</property>
  <property name="meta.media.0.codec.long_name">VC3/DNxHD</property>
  <property name="meta.media.0.codec.bit_rate">176160768</property>
  <property name="meta.attr.0.stream.language.markup">eng</property>
  <property name="meta.attr.0.stream.handler_name.markup">Core Media Data Handler</property>
  <property name="meta.attr.0.stream.timecode.markup">08:47:46:22</property>
  <property name="meta.attr.major_brand.markup">qt  </property>
  <property name="meta.attr.minor_version.markup">512</property>
  <property name="meta.attr.compatible_brands.markup">qt  </property>
  <property name="meta.attr.encoder.markup">Lavf57.25.100</property>
 </producer>
 <producer title="Anonymous Submission" id="4" in="0" out="2260">
  <property name="length">00:01:34:05</property>
  <property name="eof">pause</property>
  <property name="resource">/media/bordun/Odile/SnapshatAuHarem/etalo/CAM2_2017-11-25_0850_C0014.mov</property>
  <property name="audio_index">2</property>
  <property name="video_index">0</property>
  <property name="mute_on_pause">1</property>
  <property name="mlt_service">avformat-novalidate</property>
  <property name="meta.media.nb_streams">2</property>
  <property name="meta.media.1.stream.type">video</property>
  <property name="meta.media.1.stream.frame_rate">24</property>
  <property name="meta.media.1.stream.sample_aspect_ratio">1</property>
  <property name="meta.media.1.codec.width">1920</property>
  <property name="meta.media.1.codec.height">1080</property>
  <property name="meta.media.1.codec.rotate">0</property>
  <property name="meta.media.1.codec.frame_rate">2400</property>
  <property name="meta.media.1.codec.pix_fmt">yuv422p10le</property>
  <property name="meta.media.1.codec.sample_aspect_ratio">0</property>
  <property name="meta.media.1.codec.colorspace">709</property>
  <property name="meta.media.1.codec.color_trc">1</property>
  <property name="meta.media.1.codec.name">prores</property>
  <property name="meta.media.1.codec.long_name">ProRes</property>
  <property name="meta.media.1.codec.bit_rate">176138333</property>
  <property name="meta.attr.1.stream.creation_time.markup">2017-11-25T08:50:03.000000Z</property>
  <property name="meta.attr.1.stream.language.markup">eng</property>
  <property name="meta.attr.1.stream.handler_name.markup">Apple Alias Data Handler</property>
  <property name="meta.attr.1.stream.encoder.markup">Apple ProRes 422 HQ</property>
  <property name="meta.attr.1.stream.timecode.markup">08:50:03:05</property>
  <property name="meta.media.2.stream.type">audio</property>
  <property name="meta.media.2.codec.sample_fmt">s32</property>
  <property name="meta.media.2.codec.sample_rate">48000</property>
  <property name="meta.media.2.codec.channels">2</property>
  <property name="meta.media.2.codec.name">pcm_s24le</property>
  <property name="meta.media.2.codec.long_name">PCM signed 24-bit little-endian</property>
  <property name="meta.media.2.codec.bit_rate">2304000</property>
  <property name="meta.attr.2.stream.creation_time.markup">2017-11-25T08:50:03.000000Z</property>
  <property name="meta.attr.2.stream.language.markup">eng</property>
  <property name="meta.attr.2.stream.handler_name.markup">Apple Alias Data Handler</property>
  <property name="meta.attr.2.stream.timecode.markup">08:50:03:05</property>
  <property name="meta.attr.com.apple.proapps.manufacturer.markup">Blackmagic Design</property>
  <property name="meta.attr.com.apple.proapps.cameraName.markup">CAM2</property>
  <property name="meta.attr.com.apple.proapps.isGood.markup">0</property>
  <property name="meta.attr.com.apple.proapps.customgamma.markup">com.blackmagic-design.cinemacamera.filmlog</property>
  <property name="meta.attr.com.blackmagic-design.cinemacamera.uuid.markup">18E5E00548F94923B646613A73C01B56</property>
  <property name="meta.attr.creation_time.markup">2017-11-25T08:50:03.000000Z</property>
  <property name="meta.attr.timecode.markup">08:50:03:05</property>
  <property name="seekable">1</property>
  <property name="meta.media.sample_aspect_num">1</property>
  <property name="meta.media.sample_aspect_den">1</property>
  <property name="aspect_ratio">1</property>
  <property name="kdenlive:file_size">2101898049</property>
  <property name="kdenlive:file_hash">f9107726803d489f8ec240dffe5f2a08</property>
  <property name="kdenlive:proxy">-</property>
  <property name="proxy_out">2260</property>
  <property name="kdenlive:originalurl">/media/bordun/Odile/SnapshatAuHarem/etalo/CAM2_2017-11-25_0850_C0014.mov</property>
  <property name="global_feed">1</property>
  <property name="kdenlive:meta.media.nb_streams">3</property>
  <property name="kdenlive:meta.media.1.stream.type">video</property>
  <property name="kdenlive:meta.media.1.stream.frame_rate">24</property>
  <property name="kdenlive:meta.media.1.stream.sample_aspect_ratio">1</property>
  <property name="kdenlive:meta.media.1.codec.width">1920</property>
  <property name="kdenlive:meta.media.1.codec.height">1080</property>
  <property name="kdenlive:meta.media.1.codec.rotate">0</property>
  <property name="kdenlive:meta.media.1.codec.frame_rate">2400</property>
  <property name="kdenlive:meta.media.1.codec.pix_fmt">yuv422p10le</property>
  <property name="kdenlive:meta.media.1.codec.sample_aspect_ratio">0</property>
  <property name="kdenlive:meta.media.1.codec.colorspace">709</property>
  <property name="kdenlive:meta.media.1.codec.color_trc">1</property>
  <property name="kdenlive:meta.media.1.codec.name">prores</property>
  <property name="kdenlive:meta.media.1.codec.long_name">ProRes</property>
  <property name="kdenlive:meta.media.1.codec.bit_rate">176138333</property>
  <property name="kdenlive:meta.attr.1.stream.creation_time.markup">2017-11-25T08:50:03.000000Z</property>
  <property name="kdenlive:meta.attr.1.stream.language.markup">eng</property>
  <property name="kdenlive:meta.attr.1.stream.handler_name.markup">Apple Alias Data Handler</property>
  <property name="kdenlive:meta.attr.1.stream.encoder.markup">Apple ProRes 422 HQ</property>
  <property name="kdenlive:meta.attr.1.stream.timecode.markup">08:50:03:05</property>
  <property name="kdenlive:meta.media.2.stream.type">audio</property>
  <property name="kdenlive:meta.media.2.codec.sample_fmt">s32</property>
  <property name="kdenlive:meta.media.2.codec.sample_rate">48000</property>
  <property name="kdenlive:meta.media.2.codec.channels">2</property>
  <property name="kdenlive:meta.media.2.codec.name">pcm_s24le</property>
  <property name="kdenlive:meta.media.2.codec.long_name">PCM signed 24-bit little-endian</property>
  <property name="kdenlive:meta.media.2.codec.bit_rate">2304000</property>
  <property name="kdenlive:meta.attr.2.stream.creation_time.markup">2017-11-25T08:50:03.000000Z</property>
  <property name="kdenlive:meta.attr.2.stream.language.markup">eng</property>
  <property name="kdenlive:meta.attr.2.stream.handler_name.markup">Apple Alias Data Handler</property>
  <property name="kdenlive:meta.attr.2.stream.timecode.markup">08:50:03:05</property>
  <property name="kdenlive:meta.attr.com.apple.proapps.manufacturer.markup">Blackmagic Design</property>
  <property name="kdenlive:meta.attr.com.apple.proapps.cameraName.markup">CAM2</property>
  <property name="kdenlive:meta.attr.com.apple.proapps.isGood.markup">0</property>
  <property name="kdenlive:meta.attr.com.apple.proapps.customgamma.markup">com.blackmagic-design.cinemacamera.filmlog</property>
  <property name="kdenlive:meta.attr.com.blackmagic-design.cinemacamera.uuid.markup">18E5E00548F94923B646613A73C01B56</property>
  <property name="kdenlive:meta.attr.creation_time.markup">2017-11-25T08:50:03.000000Z</property>
  <property name="kdenlive:meta.attr.timecode.markup">08:50:03:05</property>
  <property name="kdenlive:meta.media.sample_aspect_num">1</property>
  <property name="kdenlive:meta.media.sample_aspect_den">1</property>
  <property name="kdenlive:meta.media.frame_rate_num">24</property>
  <property name="kdenlive:meta.media.frame_rate_den">1</property>
  <property name="kdenlive:meta.media.colorspace">709</property>
  <property name="kdenlive:meta.media.color_trc">1</property>
  <property name="kdenlive:meta.media.width">1920</property>
  <property name="kdenlive:meta.media.height">1080</property>
  <property name="kdenlive:meta.media.top_field_first">0</property>
  <property name="kdenlive:meta.media.progressive">1</property>
  <property name="kdenlive:clipname">plan seq 3</property>
  <property name="meta.media.frame_rate_num">24</property>
  <property name="meta.media.frame_rate_den">1</property>
  <property name="meta.media.colorspace">709</property>
  <property name="meta.media.color_trc">1</property>
  <property name="meta.media.width">1920</property>
  <property name="meta.media.height">1080</property>
  <property name="meta.media.top_field_first">0</property>
  <property name="meta.media.progressive">1</property>
  <property name="meta.media.0.stream.type">video</property>
  <property name="meta.media.0.stream.frame_rate">24</property>
  <property name="meta.media.0.stream.sample_aspect_ratio">1</property>
  <property name="meta.media.0.codec.width">1920</property>
  <property name="meta.media.0.codec.height">1080</property>
  <property name="meta.media.0.codec.rotate">0</property>
  <property name="meta.media.0.codec.frame_rate">12288</property>
  <property name="meta.media.0.codec.pix_fmt">yuv422p10le</property>
  <property name="meta.media.0.codec.sample_aspect_ratio">0</property>
  <property name="meta.media.0.codec.colorspace">709</property>
  <property name="meta.media.0.codec.color_trc">1</property>
  <property name="meta.media.0.codec.name">dnxhd</property>
  <property name="meta.media.0.codec.long_name">VC3/DNxHD</property>
  <property name="meta.media.0.codec.bit_rate">176160768</property>
  <property name="meta.attr.0.stream.language.markup">eng</property>
  <property name="meta.attr.0.stream.handler_name.markup">Core Media Data Handler</property>
  <property name="meta.attr.0.stream.timecode.markup">08:50:03:05</property>
  <property name="meta.attr.major_brand.markup">qt  </property>
  <property name="meta.attr.minor_version.markup">512</property>
  <property name="meta.attr.compatible_brands.markup">qt  </property>
  <property name="meta.attr.encoder.markup">Lavf57.25.100</property>
 </producer>
 <producer title="Anonymous Submission" id="9" in="0" out="9283">
  <property name="length">00:06:26:20</property>
  <property name="eof">pause</property>
  <property name="resource">/media/bordun/Odile/SnapshatAuHarem/etalo/CAM2_2017-11-25_0738_C0005.mov</property>
  <property name="audio_index">2</property>
  <property name="video_index">0</property>
  <property name="mute_on_pause">1</property>
  <property name="mlt_service">avformat-novalidate</property>
  <property name="meta.media.nb_streams">2</property>
  <property name="meta.media.1.stream.type">video</property>
  <property name="meta.media.1.stream.frame_rate">24</property>
  <property name="meta.media.1.stream.sample_aspect_ratio">1</property>
  <property name="meta.media.1.codec.width">1920</property>
  <property name="meta.media.1.codec.height">1080</property>
  <property name="meta.media.1.codec.rotate">0</property>
  <property name="meta.media.1.codec.frame_rate">2400</property>
  <property name="meta.media.1.codec.pix_fmt">yuv422p10le</property>
  <property name="meta.media.1.codec.sample_aspect_ratio">0</property>
  <property name="meta.media.1.codec.colorspace">709</property>
  <property name="meta.media.1.codec.color_trc">1</property>
  <property name="meta.media.1.codec.name">prores</property>
  <property name="meta.media.1.codec.long_name">ProRes</property>
  <property name="meta.media.1.codec.bit_rate">176140748</property>
  <property name="meta.attr.1.stream.creation_time.markup">2017-11-25T07:38:16.000000Z</property>
  <property name="meta.attr.1.stream.language.markup">eng</property>
  <property name="meta.attr.1.stream.handler_name.markup">Apple Alias Data Handler</property>
  <property name="meta.attr.1.stream.encoder.markup">Apple ProRes 422 HQ</property>
  <property name="meta.attr.1.stream.timecode.markup">07:38:16:19</property>
  <property name="meta.media.2.stream.type">audio</property>
  <property name="meta.media.2.codec.sample_fmt">s32</property>
  <property name="meta.media.2.codec.sample_rate">48000</property>
  <property name="meta.media.2.codec.channels">2</property>
  <property name="meta.media.2.codec.name">pcm_s24le</property>
  <property name="meta.media.2.codec.long_name">PCM signed 24-bit little-endian</property>
  <property name="meta.media.2.codec.bit_rate">2304000</property>
  <property name="meta.attr.2.stream.creation_time.markup">2017-11-25T07:38:16.000000Z</property>
  <property name="meta.attr.2.stream.language.markup">eng</property>
  <property name="meta.attr.2.stream.handler_name.markup">Apple Alias Data Handler</property>
  <property name="meta.attr.2.stream.timecode.markup">07:38:16:19</property>
  <property name="meta.attr.com.apple.proapps.manufacturer.markup">Blackmagic Design</property>
  <property name="meta.attr.com.apple.proapps.cameraName.markup">CAM2</property>
  <property name="meta.attr.com.apple.proapps.isGood.markup">0</property>
  <property name="meta.attr.com.apple.proapps.customgamma.markup">com.blackmagic-design.cinemacamera.filmlog</property>
  <property name="meta.attr.com.blackmagic-design.cinemacamera.uuid.markup">18E5E00548F94923B646613A73C01B56</property>
  <property name="meta.attr.creation_time.markup">2017-11-25T07:38:16.000000Z</property>
  <property name="meta.attr.timecode.markup">07:38:16:19</property>
  <property name="seekable">1</property>
  <property name="meta.media.sample_aspect_num">1</property>
  <property name="meta.media.sample_aspect_den">1</property>
  <property name="aspect_ratio">1</property>
  <property name="kdenlive:file_size">8630671969</property>
  <property name="kdenlive:file_hash">e2d172a49e06df1febf831b67d6dc430</property>
  <property name="kdenlive:proxy">-</property>
  <property name="proxy_out">9283</property>
  <property name="kdenlive:originalurl">/media/bordun/Odile/SnapshatAuHarem/etalo/CAM2_2017-11-25_0738_C0005.mov</property>
  <property name="global_feed">1</property>
  <property name="kdenlive:meta.media.nb_streams">3</property>
  <property name="kdenlive:meta.media.1.stream.type">video</property>
  <property name="kdenlive:meta.media.1.stream.frame_rate">24</property>
  <property name="kdenlive:meta.media.1.stream.sample_aspect_ratio">1</property>
  <property name="kdenlive:meta.media.1.codec.width">1920</property>
  <property name="kdenlive:meta.media.1.codec.height">1080</property>
  <property name="kdenlive:meta.media.1.codec.rotate">0</property>
  <property name="kdenlive:meta.media.1.codec.frame_rate">2400</property>
  <property name="kdenlive:meta.media.1.codec.pix_fmt">yuv422p10le</property>
  <property name="kdenlive:meta.media.1.codec.sample_aspect_ratio">0</property>
  <property name="kdenlive:meta.media.1.codec.colorspace">709</property>
  <property name="kdenlive:meta.media.1.codec.color_trc">1</property>
  <property name="kdenlive:meta.media.1.codec.name">prores</property>
  <property name="kdenlive:meta.media.1.codec.long_name">ProRes</property>
  <property name="kdenlive:meta.media.1.codec.bit_rate">176140748</property>
  <property name="kdenlive:meta.attr.1.stream.creation_time.markup">2017-11-25T07:38:16.000000Z</property>
  <property name="kdenlive:meta.attr.1.stream.language.markup">eng</property>
  <property name="kdenlive:meta.attr.1.stream.handler_name.markup">Apple Alias Data Handler</property>
  <property name="kdenlive:meta.attr.1.stream.encoder.markup">Apple ProRes 422 HQ</property>
  <property name="kdenlive:meta.attr.1.stream.timecode.markup">07:38:16:19</property>
  <property name="kdenlive:meta.media.2.stream.type">audio</property>
  <property name="kdenlive:meta.media.2.codec.sample_fmt">s32</property>
  <property name="kdenlive:meta.media.2.codec.sample_rate">48000</property>
  <property name="kdenlive:meta.media.2.codec.channels">2</property>
  <property name="kdenlive:meta.media.2.codec.name">pcm_s24le</property>
  <property name="kdenlive:meta.media.2.codec.long_name">PCM signed 24-bit little-endian</property>
  <property name="kdenlive:meta.media.2.codec.bit_rate">2304000</property>
  <property name="kdenlive:meta.attr.2.stream.creation_time.markup">2017-11-25T07:38:16.000000Z</property>
  <property name="kdenlive:meta.attr.2.stream.language.markup">eng</property>
  <property name="kdenlive:meta.attr.2.stream.handler_name.markup">Apple Alias Data Handler</property>
  <property name="kdenlive:meta.attr.2.stream.timecode.markup">07:38:16:19</property>
  <property name="kdenlive:meta.attr.com.apple.proapps.manufacturer.markup">Blackmagic Design</property>
  <property name="kdenlive:meta.attr.com.apple.proapps.cameraName.markup">CAM2</property>
  <property name="kdenlive:meta.attr.com.apple.proapps.isGood.markup">0</property>
  <property name="kdenlive:meta.attr.com.apple.proapps.customgamma.markup">com.blackmagic-design.cinemacamera.filmlog</property>
  <property name="kdenlive:meta.attr.com.blackmagic-design.cinemacamera.uuid.markup">18E5E00548F94923B646613A73C01B56</property>
  <property name="kdenlive:meta.attr.creation_time.markup">2017-11-25T07:38:16.000000Z</property>
  <property name="kdenlive:meta.attr.timecode.markup">07:38:16:19</property>
  <property name="kdenlive:meta.media.sample_aspect_num">1</property>
  <property name="kdenlive:meta.media.sample_aspect_den">1</property>
  <property name="kdenlive:meta.media.frame_rate_num">24</property>
  <property name="kdenlive:meta.media.frame_rate_den">1</property>
  <property name="kdenlive:meta.media.colorspace">709</property>
  <property name="kdenlive:meta.media.color_trc">1</property>
  <property name="kdenlive:meta.media.width">1920</property>
  <property name="kdenlive:meta.media.height">1080</property>
  <property name="kdenlive:meta.media.top_field_first">0</property>
  <property name="kdenlive:meta.media.progressive">1</property>
  <property name="kdenlive:clipname">yoga</property>
  <property name="meta.media.frame_rate_num">24</property>
  <property name="meta.media.frame_rate_den">1</property>
  <property name="meta.media.colorspace">709</property>
  <property name="meta.media.color_trc">1</property>
  <property name="meta.media.width">1920</property>
  <property name="meta.media.height">1080</property>
  <property name="meta.media.top_field_first">0</property>
  <property name="meta.media.progressive">1</property>
  <property name="meta.media.0.stream.type">video</property>
  <property name="meta.media.0.stream.frame_rate">24</property>
  <property name="meta.media.0.stream.sample_aspect_ratio">1</property>
  <property name="meta.media.0.codec.width">1920</property>
  <property name="meta.media.0.codec.height">1080</property>
  <property name="meta.media.0.codec.rotate">0</property>
  <property name="meta.media.0.codec.frame_rate">12288</property>
  <property name="meta.media.0.codec.pix_fmt">yuv422p10le</property>
  <property name="meta.media.0.codec.sample_aspect_ratio">0</property>
  <property name="meta.media.0.codec.colorspace">709</property>
  <property name="meta.media.0.codec.color_trc">1</property>
  <property name="meta.media.0.codec.name">dnxhd</property>
  <property name="meta.media.0.codec.long_name">VC3/DNxHD</property>
  <property name="meta.media.0.codec.bit_rate">176160768</property>
  <property name="meta.attr.0.stream.language.markup">eng</property>
  <property name="meta.attr.0.stream.handler_name.markup">Core Media Data Handler</property>
  <property name="meta.attr.0.stream.timecode.markup">07:38:16:19</property>
  <property name="meta.attr.major_brand.markup">qt  </property>
  <property name="meta.attr.minor_version.markup">512</property>
  <property name="meta.attr.compatible_brands.markup">qt  </property>
  <property name="meta.attr.encoder.markup">Lavf57.25.100</property>
  <filter id="frei0r.coloradj_RGB">
   <property name="version">0,2</property>
   <property name="mlt_service">frei0r.coloradj_RGB</property>
   <property name="kdenlive_id">frei0r.coloradj_RGB</property>
   <property name="tag">frei0r.coloradj_RGB</property>
   <property name="kdenlive_ix">1</property>
   <property name="kdenlive_info"/>
   <property name="R">0=0,5</property>
   <property name="G">0=0,475</property>
   <property name="B">0=0,5</property>
   <property name="Action">0,5</property>
   <property name="Keep luma">1</property>
   <property name="Alpha controlled">0</property>
   <property name="Luma formula">1,0</property>
   <property name="disable">0</property>
  </filter>
  <filter id="frei0r.saturat0r">
   <property name="version">0,3</property>
   <property name="mlt_service">frei0r.saturat0r</property>
   <property name="kdenlive_id">frei0r.saturat0r</property>
   <property name="tag">frei0r.saturat0r</property>
   <property name="kdenlive_ix">2</property>
   <property name="kdenlive_info"/>
   <property name="Saturation">0=0,09</property>
   <property name="disable">0</property>
  </filter>
  <filter id="frei0r.levels">
   <property name="version">0,3</property>
   <property name="mlt_service">frei0r.levels</property>
   <property name="kdenlive_id">frei0r.levels</property>
   <property name="tag">frei0r.levels</property>
   <property name="kdenlive_ix">3</property>
   <property name="kdenlive_info"/>
   <property name="Channel">0,3</property>
   <property name="Input black level">0=0</property>
   <property name="Input white level">0=1</property>
   <property name="Gamma">0=0,25</property>
   <property name="Black output">0=0</property>
   <property name="White output">0=1</property>
   <property name="Show histogram">0</property>
   <property name="Histogram position">0,3</property>
   <property name="disable">0</property>
  </filter>
 </producer>
 <producer id="10" in="0" out="119">
  <property name="length">120</property>
  <property name="eof">pause</property>
  <property name="resource">0x000000ff</property>
  <property name="aspect_ratio">1</property>
  <property name="mlt_service">color</property>
  <property name="kdenlive:clipname">Clip couleur</property>
  <property name="kdenlive:folderid">-1</property>
  <property name="kdenlive:duration">120</property>
  <property name="kdenlive:file_hash">9196813120dc5c505072516b15baf414</property>
 </producer>
 <producer title="Anonymous Submission" id="8" in="0" out="2881">
  <property name="length">00:02:00:02</property>
  <property name="eof">pause</property>
  <property name="resource">/media/bordun/Odile/SnapshatAuHarem/etalo/CAM2_2017-11-25_0941_C0001.mov</property>
  <property name="audio_index">-1</property>
  <property name="video_index">0</property>
  <property name="mute_on_pause">1</property>
  <property name="mlt_service">avformat-novalidate</property>
  <property name="meta.media.nb_streams">2</property>
  <property name="meta.media.0.stream.type">video</property>
  <property name="meta.media.0.stream.frame_rate">60</property>
  <property name="meta.media.0.stream.sample_aspect_ratio">1</property>
  <property name="meta.media.0.codec.width">1920</property>
  <property name="meta.media.0.codec.height">1080</property>
  <property name="meta.media.0.codec.rotate">0</property>
  <property name="meta.media.0.codec.frame_rate">15360</property>
  <property name="meta.media.0.codec.pix_fmt">yuv422p10le</property>
  <property name="meta.media.0.codec.sample_aspect_ratio">0</property>
  <property name="meta.media.0.codec.colorspace">709</property>
  <property name="meta.media.0.codec.color_trc">1</property>
  <property name="meta.media.0.codec.name">dnxhd</property>
  <property name="meta.media.0.codec.long_name">VC3/DNxHD</property>
  <property name="meta.media.0.codec.bit_rate">440401920</property>
  <property name="meta.attr.0.stream.language.markup">eng</property>
  <property name="meta.attr.0.stream.handler_name.markup">Core Media Data Handler</property>
  <property name="meta.attr.0.stream.timecode.markup">09:41:37:09</property>
  <property name="meta.attr.major_brand.markup">qt  </property>
  <property name="meta.attr.minor_version.markup">512</property>
  <property name="meta.attr.compatible_brands.markup">qt  </property>
  <property name="meta.attr.encoder.markup">Lavf57.25.100</property>
  <property name="seekable">1</property>
  <property name="meta.media.sample_aspect_num">1</property>
  <property name="meta.media.sample_aspect_den">1</property>
  <property name="aspect_ratio">1</property>
  <property name="kdenlive:file_size">6611549812</property>
  <property name="kdenlive:file_hash">1ec5bc11cc4cf0b59a337d657e1ae558</property>
  <property name="kdenlive:proxy">-</property>
  <property name="proxy_out">2881</property>
  <property name="kdenlive:originalurl">/media/bordun/Odile/SnapshatAuHarem/etalo/CAM2_2017-11-25_0941_C0001.mov</property>
  <property name="global_feed">1</property>
  <property name="kdenlive:clipname">sniffed-eaten-mixed-jerked</property>
  <property name="meta.media.frame_rate_num">60</property>
  <property name="meta.media.frame_rate_den">1</property>
  <property name="meta.media.colorspace">709</property>
  <property name="meta.media.color_trc">1</property>
  <property name="meta.media.width">1920</property>
  <property name="meta.media.height">1080</property>
  <property name="meta.media.top_field_first">0</property>
  <property name="meta.media.progressive">1</property>
  <filter id="frei0r.sigmoidaltransfer">
   <property name="version">0,9</property>
   <property name="mlt_service">frei0r.sigmoidaltransfer</property>
   <property name="kdenlive_id">frei0r.sigmoidaltransfer</property>
   <property name="tag">frei0r.sigmoidaltransfer</property>
   <property name="kdenlive_ix">1</property>
   <property name="kdenlive_info"/>
   <property name="0">1</property>
   <property name="1">0,234</property>
   <property name="disable">0</property>
  </filter>
 </producer>
 <playlist id="main bin">
  <property name="kdenlive:docproperties.audiotargettrack">2</property>
  <property name="kdenlive:docproperties.decimalPoint">,</property>
  <property name="kdenlive:docproperties.dirtypreviewchunks">1425,1450,1475,1500,1525,1550,1575,1600,1625,1650,1675,1700,1725,1750,1775,1800,1825,1850,1875,1900,1925,1950,1975,2000,2025,2050,2075,2100,2125,2150,2175,2200,2225,2250,2275,2300,2325,2350,2375,2400,2425,2450,2475,2500,2525,2550</property>
  <property name="kdenlive:docproperties.disablepreview">0</property>
  <property name="kdenlive:docproperties.documentid">1516638450852</property>
  <property name="kdenlive:docproperties.enableproxy">0</property>
  <property name="kdenlive:docproperties.generateimageproxy">1</property>
  <property name="kdenlive:docproperties.generateproxy">1</property>
  <property name="kdenlive:docproperties.kdenliveversion">18.08.3</property>
  <property name="kdenlive:docproperties.position">2083</property>
  <property name="kdenlive:docproperties.previewchunks"/>
  <property name="kdenlive:docproperties.previewextension">mov</property>
  <property name="kdenlive:docproperties.previewparameters">r=24 s=1920x1080 vb=36M threads=0 vcodec=dnxhd</property>
  <property name="kdenlive:docproperties.profile">atsc_1080p_24</property>
  <property name="kdenlive:docproperties.proxyextension">mpg</property>
  <property name="kdenlive:docproperties.proxyimageminsize">2000</property>
  <property name="kdenlive:docproperties.proxyminsize">1000</property>
  <property name="kdenlive:docproperties.proxyparams">-vf scale=640:-1 -g 5 -qscale 6 -ab 128k -vcodec mpeg2video -acodec mp2</property>
  <property name="kdenlive:docproperties.version">0.96</property>
  <property name="kdenlive:docproperties.verticalzoom">1</property>
  <property name="kdenlive:docproperties.videotargettrack">3</property>
  <property name="kdenlive:docproperties.zonein">1458</property>
  <property name="kdenlive:docproperties.zoneout">2302</property>
  <property name="kdenlive:docproperties.zoom">7</property>
  <property name="kdenlive:docmetadata.meta.attr.author.markup">Plagiat &amp; Joris Le Guidart</property>
  <property name="kdenlive:docmetadata.meta.attr.copyright.markup">Copyleft - Licence Art Libre 1.3</property>
  <property name="kdenlive:docmetadata.meta.attr.title.markup">Snapchat au Harem (part of)</property>
  <property name="kdenlive:docmetadata.meta.attr.year.markup">2018</property>
  <property name="kdenlive:documentnotes"/>
  <property name="kdenlive:clipgroups"/>
  <property name="kdenlive:docproperties.renderaudioquality">7</property>
  <property name="kdenlive:docproperties.rendercategory">Sans perte / Haute qualité</property>
  <property name="kdenlive:docproperties.renderendguide">-1</property>
  <property name="kdenlive:docproperties.renderexportaudio">2</property>
  <property name="kdenlive:docproperties.renderguide">0</property>
  <property name="kdenlive:docproperties.renderplay">0</property>
  <property name="kdenlive:docproperties.renderprofile">H.264 (libx264+aac)</property>
  <property name="kdenlive:docproperties.renderquality">15</property>
  <property name="kdenlive:docproperties.renderratio">1</property>
  <property name="kdenlive:docproperties.renderrescale">0</property>
  <property name="kdenlive:docproperties.renderrescaleheight">180</property>
  <property name="kdenlive:docproperties.renderrescalewidth">320</property>
  <property name="kdenlive:docproperties.renderscanning">0</property>
  <property name="kdenlive:docproperties.renderspeed">2</property>
  <property name="kdenlive:docproperties.renderstartguide">-1</property>
  <property name="kdenlive:docproperties.rendertcoverlay">0</property>
  <property name="kdenlive:docproperties.rendertctype">0</property>
  <property name="kdenlive:docproperties.rendertwopass">0</property>
  <property name="kdenlive:docproperties.renderurl">/home/bordun/Clip01_SnapshatAuHarem/Rendus/01_Couplet1.mp4</property>
  <property name="kdenlive:docproperties.renderzone">1</property>
  <property name="xml_retain">1</property>
  <entry producer="1" in="0" out="4287"/>
  <entry producer="5" in="0" out="1872"/>
  <entry producer="6" in="0" out="119"/>
  <entry producer="7" in="0" out="119"/>
  <entry producer="2" in="0" out="2072"/>
  <entry producer="3" in="0" out="2299"/>
  <entry producer="4" in="0" out="2260"/>
  <entry producer="9" in="0" out="9283"/>
  <entry producer="10" in="0" out="119"/>
  <entry producer="8" in="0" out="2881"/>
 </playlist>
 <producer id="black" in="0" out="21973">
  <property name="length">21974</property>
  <property name="eof">pause</property>
  <property name="resource">black</property>
  <property name="aspect_ratio">0</property>
  <property name="mlt_service">colour</property>
  <property name="set.test_audio">0</property>
 </producer>
 <playlist id="black_track">
  <entry producer="black" in="0" out="18568"/>
 </playlist>
 <playlist id="playlist1">
  <property name="kdenlive:track_name">Audio 2</property>
  <property name="kdenlive:audio_track">1</property>
 </playlist>
 <producer title="Anonymous Submission" id="1_playlist2" in="0" out="4287">
  <property name="length">00:02:58:16</property>
  <property name="eof">pause</property>
  <property name="resource">/home/bordun/Clip01_SnapshatAuHarem/Audio/Snapchat_au_Harem.flac</property>
  <property name="audio_index">0</property>
  <property name="video_index">-1</property>
  <property name="mute_on_pause">1</property>
  <property name="mlt_service">avformat-novalidate</property>
  <property name="seekable">1</property>
  <property name="kdenlive:folderid">-1</property>
  <property name="kdenlive:file_size">16614188</property>
  <property name="kdenlive:file_hash">115a31e39ebfe7c973cc2dc7b9f7cbf8</property>
  <property name="global_feed">1</property>
  <property name="xml">was here</property>
  <property name="meta.media.nb_streams">1</property>
  <property name="meta.media.0.stream.type">audio</property>
  <property name="meta.media.0.codec.sample_fmt">s16</property>
  <property name="meta.media.0.codec.sample_rate">48000</property>
  <property name="meta.media.0.codec.channels">2</property>
  <property name="meta.media.0.codec.name">flac</property>
  <property name="meta.media.0.codec.long_name">FLAC (Free Lossless Audio Codec)</property>
  <property name="meta.media.0.codec.bit_rate">0</property>
 </producer>
 <playlist id="playlist2">
  <property name="kdenlive:track_name">Audio 1</property>
  <property name="kdenlive:audio_track">1</property>
  <property name="kdenlive:locked_track">1</property>
  <blank length="1440"/>
  <entry producer="1_playlist2" in="0" out="4287"/>
  <filter id="audiopan">
   <property name="channel">1</property>
   <property name="mlt_service">panner</property>
   <property name="kdenlive_id">audiopan</property>
   <property name="tag">panner</property>
   <property name="kdenlive_ix">1</property>
   <property name="kdenlive_info"/>
   <property name="start">0</property>
   <property name="disable">1</property>
  </filter>
 </playlist>
 <playlist id="playlist3">
  <property name="kdenlive:track_name">Video 1</property>
 </playlist>
 <playlist id="playlist10">
  <property name="kdenlive:track_name">Video 8</property>
 </playlist>
 <producer title="Anonymous Submission" id="2_playlist7" in="0" out="2072">
  <property name="length">00:01:26:09</property>
  <property name="eof">pause</property>
  <property name="resource">/media/bordun/Odile/SnapshatAuHarem/etalo/CAM2_2017-11-25_0844_C0012.mov</property>
  <property name="audio_index">2</property>
  <property name="video_index">0</property>
  <property name="mute_on_pause">1</property>
  <property name="mlt_service">avformat-novalidate</property>
  <property name="seekable">1</property>
  <property name="aspect_ratio">1</property>
  <property name="kdenlive:file_size">1927129345</property>
  <property name="kdenlive:file_hash">d2c6dc1b2eadd62f7d89eaf9839227d5</property>
  <property name="kdenlive:proxy">-</property>
  <property name="proxy_out">2072</property>
  <property name="kdenlive:originalurl">/home/bordun/Clip01_SnapshatAuHarem_assets/DimancheAprem/CAM2201711250738C0005/CAM2_2017-11-25_0844_C0012.mov</property>
  <property name="global_feed">1</property>
  <property name="kdenlive:meta.media.nb_streams">3</property>
  <property name="kdenlive:meta.media.1.stream.type">video</property>
  <property name="kdenlive:meta.media.1.stream.frame_rate">24</property>
  <property name="kdenlive:meta.media.1.stream.sample_aspect_ratio">1</property>
  <property name="kdenlive:meta.media.1.codec.width">1920</property>
  <property name="kdenlive:meta.media.1.codec.height">1080</property>
  <property name="kdenlive:meta.media.1.codec.rotate">0</property>
  <property name="kdenlive:meta.media.1.codec.frame_rate">2400</property>
  <property name="kdenlive:meta.media.1.codec.pix_fmt">yuv422p10le</property>
  <property name="kdenlive:meta.media.1.codec.sample_aspect_ratio">0</property>
  <property name="kdenlive:meta.media.1.codec.colorspace">709</property>
  <property name="kdenlive:meta.media.1.codec.color_trc">1</property>
  <property name="kdenlive:meta.media.1.codec.name">prores</property>
  <property name="kdenlive:meta.media.1.codec.long_name">ProRes</property>
  <property name="kdenlive:meta.media.1.codec.bit_rate">176138321</property>
  <property name="kdenlive:meta.attr.1.stream.creation_time.markup">2017-11-25T08:44:27.000000Z</property>
  <property name="kdenlive:meta.attr.1.stream.language.markup">eng</property>
  <property name="kdenlive:meta.attr.1.stream.handler_name.markup">Apple Alias Data Handler</property>
  <property name="kdenlive:meta.attr.1.stream.encoder.markup">Apple ProRes 422 HQ</property>
  <property name="kdenlive:meta.attr.1.stream.timecode.markup">08:44:27:17</property>
  <property name="kdenlive:meta.media.2.stream.type">audio</property>
  <property name="kdenlive:meta.media.2.codec.sample_fmt">s32</property>
  <property name="kdenlive:meta.media.2.codec.sample_rate">48000</property>
  <property name="kdenlive:meta.media.2.codec.channels">2</property>
  <property name="kdenlive:meta.media.2.codec.name">pcm_s24le</property>
  <property name="kdenlive:meta.media.2.codec.long_name">PCM signed 24-bit little-endian</property>
  <property name="kdenlive:meta.media.2.codec.bit_rate">2304000</property>
  <property name="kdenlive:meta.attr.2.stream.creation_time.markup">2017-11-25T08:44:27.000000Z</property>
  <property name="kdenlive:meta.attr.2.stream.language.markup">eng</property>
  <property name="kdenlive:meta.attr.2.stream.handler_name.markup">Apple Alias Data Handler</property>
  <property name="kdenlive:meta.attr.2.stream.timecode.markup">08:44:27:17</property>
  <property name="kdenlive:meta.attr.com.apple.proapps.manufacturer.markup">Blackmagic Design</property>
  <property name="kdenlive:meta.attr.com.apple.proapps.cameraName.markup">CAM2</property>
  <property name="kdenlive:meta.attr.com.apple.proapps.isGood.markup">0</property>
  <property name="kdenlive:meta.attr.com.apple.proapps.customgamma.markup">com.blackmagic-design.cinemacamera.filmlog</property>
  <property name="kdenlive:meta.attr.com.blackmagic-design.cinemacamera.uuid.markup">18E5E00548F94923B646613A73C01B56</property>
  <property name="kdenlive:meta.attr.creation_time.markup">2017-11-25T08:44:27.000000Z</property>
  <property name="kdenlive:meta.attr.timecode.markup">08:44:27:17</property>
  <property name="kdenlive:meta.media.sample_aspect_num">1</property>
  <property name="kdenlive:meta.media.sample_aspect_den">1</property>
  <property name="kdenlive:meta.media.frame_rate_num">24</property>
  <property name="kdenlive:meta.media.frame_rate_den">1</property>
  <property name="kdenlive:meta.media.colorspace">709</property>
  <property name="kdenlive:meta.media.color_trc">1</property>
  <property name="kdenlive:meta.media.width">1920</property>
  <property name="kdenlive:meta.media.height">1080</property>
  <property name="kdenlive:meta.media.top_field_first">0</property>
  <property name="kdenlive:meta.media.progressive">1</property>
  <property name="kdenlive:clipname">plan seq 1</property>
  <property name="xml">was here</property>
  <property name="force_colorspace"/>
  <property name="meta.media.nb_streams">2</property>
  <property name="meta.media.0.stream.type">video</property>
  <property name="meta.media.0.stream.frame_rate">24</property>
  <property name="meta.media.0.stream.sample_aspect_ratio">1</property>
  <property name="meta.media.0.codec.width">1920</property>
  <property name="meta.media.0.codec.height">1080</property>
  <property name="meta.media.0.codec.rotate">0</property>
  <property name="meta.media.0.codec.frame_rate">12288</property>
  <property name="meta.media.0.codec.pix_fmt">yuv422p10le</property>
  <property name="meta.media.0.codec.sample_aspect_ratio">0</property>
  <property name="meta.media.0.codec.colorspace">709</property>
  <property name="meta.media.0.codec.color_trc">1</property>
  <property name="meta.media.0.codec.name">dnxhd</property>
  <property name="meta.media.0.codec.long_name">VC3/DNxHD</property>
  <property name="meta.media.0.codec.bit_rate">176160768</property>
  <property name="meta.attr.0.stream.language.markup">eng</property>
  <property name="meta.attr.0.stream.handler_name.markup">Core Media Data Handler</property>
  <property name="meta.attr.0.stream.timecode.markup">08:44:27:17</property>
  <property name="meta.attr.major_brand.markup">qt  </property>
  <property name="meta.attr.minor_version.markup">512</property>
  <property name="meta.attr.compatible_brands.markup">qt  </property>
  <property name="meta.attr.encoder.markup">Lavf57.25.100</property>
  <property name="meta.media.sample_aspect_num">1</property>
  <property name="meta.media.sample_aspect_den">1</property>
  <property name="meta.media.frame_rate_num">24</property>
  <property name="meta.media.frame_rate_den">1</property>
  <property name="meta.media.colorspace">709</property>
  <property name="meta.media.color_trc">1</property>
  <property name="meta.media.width">1920</property>
  <property name="meta.media.height">1080</property>
  <property name="meta.media.top_field_first">0</property>
  <property name="meta.media.progressive">1</property>
 </producer>
 <producer title="Anonymous Submission" id="4_playlist7" in="0" out="2260">
  <property name="length">00:01:34:05</property>
  <property name="eof">pause</property>
  <property name="resource">/media/bordun/Odile/SnapshatAuHarem/etalo/CAM2_2017-11-25_0850_C0014.mov</property>
  <property name="audio_index">2</property>
  <property name="video_index">0</property>
  <property name="mute_on_pause">1</property>
  <property name="mlt_service">avformat-novalidate</property>
  <property name="seekable">1</property>
  <property name="aspect_ratio">1</property>
  <property name="kdenlive:file_size">2101898049</property>
  <property name="kdenlive:file_hash">f9107726803d489f8ec240dffe5f2a08</property>
  <property name="kdenlive:proxy">-</property>
  <property name="proxy_out">2260</property>
  <property name="kdenlive:originalurl">/home/bordun/Clip01_SnapshatAuHarem_assets/DimancheAprem/CAM2201711250738C0005/CAM2_2017-11-25_0850_C0014.mov</property>
  <property name="global_feed">1</property>
  <property name="kdenlive:meta.media.nb_streams">3</property>
  <property name="kdenlive:meta.media.1.stream.type">video</property>
  <property name="kdenlive:meta.media.1.stream.frame_rate">24</property>
  <property name="kdenlive:meta.media.1.stream.sample_aspect_ratio">1</property>
  <property name="kdenlive:meta.media.1.codec.width">1920</property>
  <property name="kdenlive:meta.media.1.codec.height">1080</property>
  <property name="kdenlive:meta.media.1.codec.rotate">0</property>
  <property name="kdenlive:meta.media.1.codec.frame_rate">2400</property>
  <property name="kdenlive:meta.media.1.codec.pix_fmt">yuv422p10le</property>
  <property name="kdenlive:meta.media.1.codec.sample_aspect_ratio">0</property>
  <property name="kdenlive:meta.media.1.codec.colorspace">709</property>
  <property name="kdenlive:meta.media.1.codec.color_trc">1</property>
  <property name="kdenlive:meta.media.1.codec.name">prores</property>
  <property name="kdenlive:meta.media.1.codec.long_name">ProRes</property>
  <property name="kdenlive:meta.media.1.codec.bit_rate">176138333</property>
  <property name="kdenlive:meta.attr.1.stream.creation_time.markup">2017-11-25T08:50:03.000000Z</property>
  <property name="kdenlive:meta.attr.1.stream.language.markup">eng</property>
  <property name="kdenlive:meta.attr.1.stream.handler_name.markup">Apple Alias Data Handler</property>
  <property name="kdenlive:meta.attr.1.stream.encoder.markup">Apple ProRes 422 HQ</property>
  <property name="kdenlive:meta.attr.1.stream.timecode.markup">08:50:03:05</property>
  <property name="kdenlive:meta.media.2.stream.type">audio</property>
  <property name="kdenlive:meta.media.2.codec.sample_fmt">s32</property>
  <property name="kdenlive:meta.media.2.codec.sample_rate">48000</property>
  <property name="kdenlive:meta.media.2.codec.channels">2</property>
  <property name="kdenlive:meta.media.2.codec.name">pcm_s24le</property>
  <property name="kdenlive:meta.media.2.codec.long_name">PCM signed 24-bit little-endian</property>
  <property name="kdenlive:meta.media.2.codec.bit_rate">2304000</property>
  <property name="kdenlive:meta.attr.2.stream.creation_time.markup">2017-11-25T08:50:03.000000Z</property>
  <property name="kdenlive:meta.attr.2.stream.language.markup">eng</property>
  <property name="kdenlive:meta.attr.2.stream.handler_name.markup">Apple Alias Data Handler</property>
  <property name="kdenlive:meta.attr.2.stream.timecode.markup">08:50:03:05</property>
  <property name="kdenlive:meta.attr.com.apple.proapps.manufacturer.markup">Blackmagic Design</property>
  <property name="kdenlive:meta.attr.com.apple.proapps.cameraName.markup">CAM2</property>
  <property name="kdenlive:meta.attr.com.apple.proapps.isGood.markup">0</property>
  <property name="kdenlive:meta.attr.com.apple.proapps.customgamma.markup">com.blackmagic-design.cinemacamera.filmlog</property>
  <property name="kdenlive:meta.attr.com.blackmagic-design.cinemacamera.uuid.markup">18E5E00548F94923B646613A73C01B56</property>
  <property name="kdenlive:meta.attr.creation_time.markup">2017-11-25T08:50:03.000000Z</property>
  <property name="kdenlive:meta.attr.timecode.markup">08:50:03:05</property>
  <property name="kdenlive:meta.media.sample_aspect_num">1</property>
  <property name="kdenlive:meta.media.sample_aspect_den">1</property>
  <property name="kdenlive:meta.media.frame_rate_num">24</property>
  <property name="kdenlive:meta.media.frame_rate_den">1</property>
  <property name="kdenlive:meta.media.colorspace">709</property>
  <property name="kdenlive:meta.media.color_trc">1</property>
  <property name="kdenlive:meta.media.width">1920</property>
  <property name="kdenlive:meta.media.height">1080</property>
  <property name="kdenlive:meta.media.top_field_first">0</property>
  <property name="kdenlive:meta.media.progressive">1</property>
  <property name="kdenlive:clipname">plan seq 3</property>
  <property name="xml">was here</property>
  <property name="meta.media.nb_streams">2</property>
  <property name="meta.media.1.stream.type">video</property>
  <property name="meta.media.1.stream.frame_rate">24</property>
  <property name="meta.media.1.stream.sample_aspect_ratio">1</property>
  <property name="meta.media.1.codec.width">1920</property>
  <property name="meta.media.1.codec.height">1080</property>
  <property name="meta.media.1.codec.rotate">0</property>
  <property name="meta.media.1.codec.frame_rate">2400</property>
  <property name="meta.media.1.codec.pix_fmt">yuv422p10le</property>
  <property name="meta.media.1.codec.sample_aspect_ratio">0</property>
  <property name="meta.media.1.codec.colorspace">709</property>
  <property name="meta.media.1.codec.color_trc">1</property>
  <property name="meta.media.1.codec.name">prores</property>
  <property name="meta.media.1.codec.long_name">ProRes</property>
  <property name="meta.media.1.codec.bit_rate">176138333</property>
  <property name="meta.attr.1.stream.creation_time.markup">2017-11-25T08:50:03.000000Z</property>
  <property name="meta.attr.1.stream.language.markup">eng</property>
  <property name="meta.attr.1.stream.handler_name.markup">Apple Alias Data Handler</property>
  <property name="meta.attr.1.stream.encoder.markup">Apple ProRes 422 HQ</property>
  <property name="meta.attr.1.stream.timecode.markup">08:50:03:05</property>
  <property name="meta.media.2.stream.type">audio</property>
  <property name="meta.media.2.codec.sample_fmt">s32</property>
  <property name="meta.media.2.codec.sample_rate">48000</property>
  <property name="meta.media.2.codec.channels">2</property>
  <property name="meta.media.2.codec.name">pcm_s24le</property>
  <property name="meta.media.2.codec.long_name">PCM signed 24-bit little-endian</property>
  <property name="meta.media.2.codec.bit_rate">2304000</property>
  <property name="meta.attr.2.stream.creation_time.markup">2017-11-25T08:50:03.000000Z</property>
  <property name="meta.attr.2.stream.language.markup">eng</property>
  <property name="meta.attr.2.stream.handler_name.markup">Apple Alias Data Handler</property>
  <property name="meta.attr.2.stream.timecode.markup">08:50:03:05</property>
  <property name="meta.attr.com.apple.proapps.manufacturer.markup">Blackmagic Design</property>
  <property name="meta.attr.com.apple.proapps.cameraName.markup">CAM2</property>
  <property name="meta.attr.com.apple.proapps.isGood.markup">0</property>
  <property name="meta.attr.com.apple.proapps.customgamma.markup">com.blackmagic-design.cinemacamera.filmlog</property>
  <property name="meta.attr.com.blackmagic-design.cinemacamera.uuid.markup">18E5E00548F94923B646613A73C01B56</property>
  <property name="meta.attr.creation_time.markup">2017-11-25T08:50:03.000000Z</property>
  <property name="meta.attr.timecode.markup">08:50:03:05</property>
  <property name="meta.media.sample_aspect_num">1</property>
  <property name="meta.media.sample_aspect_den">1</property>
  <property name="meta.media.frame_rate_num">24</property>
  <property name="meta.media.frame_rate_den">1</property>
  <property name="meta.media.colorspace">709</property>
  <property name="meta.media.color_trc">1</property>
  <property name="meta.media.width">1920</property>
  <property name="meta.media.height">1080</property>
  <property name="meta.media.top_field_first">0</property>
  <property name="meta.media.progressive">1</property>
  <property name="meta.media.0.stream.type">video</property>
  <property name="meta.media.0.stream.frame_rate">24</property>
  <property name="meta.media.0.stream.sample_aspect_ratio">1</property>
  <property name="meta.media.0.codec.width">1920</property>
  <property name="meta.media.0.codec.height">1080</property>
  <property name="meta.media.0.codec.rotate">0</property>
  <property name="meta.media.0.codec.frame_rate">12288</property>
  <property name="meta.media.0.codec.pix_fmt">yuv422p10le</property>
  <property name="meta.media.0.codec.sample_aspect_ratio">0</property>
  <property name="meta.media.0.codec.colorspace">709</property>
  <property name="meta.media.0.codec.color_trc">1</property>
  <property name="meta.media.0.codec.name">dnxhd</property>
  <property name="meta.media.0.codec.long_name">VC3/DNxHD</property>
  <property name="meta.media.0.codec.bit_rate">176160768</property>
  <property name="meta.attr.0.stream.language.markup">eng</property>
  <property name="meta.attr.0.stream.handler_name.markup">Core Media Data Handler</property>
  <property name="meta.attr.0.stream.timecode.markup">08:50:03:05</property>
  <property name="meta.attr.major_brand.markup">qt  </property>
  <property name="meta.attr.minor_version.markup">512</property>
  <property name="meta.attr.compatible_brands.markup">qt  </property>
  <property name="meta.attr.encoder.markup">Lavf57.25.100</property>
  <property name="force_colorspace"/>
 </producer>
 <playlist id="playlist7">
  <property name="kdenlive:track_name">Video 5</property>
  <blank length="1746"/>
  <entry producer="2_playlist7" in="807" out="882"/>
  <entry producer="4_playlist7" in="684" out="762">
   <filter id="pan_zoom" in="681" out="725">
    <property name="background">colour:0x00000000</property>
    <property name="mlt_service">affine</property>
    <property name="kdenlive_id">pan_zoom</property>
    <property name="tag">affine</property>
    <property name="kdenlive_info"/>
    <property name="kdenlive_ix">1</property>
    <property name="disable">0</property>
    <property name="transition.geometry">7=-1138/-18:3072x1728:100</property>
    <property name="transition.distort">0</property>
    <property name="kdenlive:sync_in_out">1</property>
   </filter>
  </entry>
  <blank length="112"/>
  <entry producer="4_playlist7" in="876" out="1068"/>
  <entry producer="4_playlist7" in="1070" out="1109"/>
  <entry producer="4_playlist7" in="1114" out="1114"/>
 </playlist>
 <producer title="Anonymous Submission" id="2_playlist4" in="0" out="2072">
  <property name="length">00:01:26:09</property>
  <property name="eof">pause</property>
  <property name="resource">/media/bordun/Odile/SnapshatAuHarem/etalo/CAM2_2017-11-25_0844_C0012.mov</property>
  <property name="audio_index">2</property>
  <property name="video_index">0</property>
  <property name="mute_on_pause">1</property>
  <property name="mlt_service">avformat-novalidate</property>
  <property name="seekable">1</property>
  <property name="aspect_ratio">1</property>
  <property name="kdenlive:file_size">1927129345</property>
  <property name="kdenlive:file_hash">d2c6dc1b2eadd62f7d89eaf9839227d5</property>
  <property name="kdenlive:proxy">-</property>
  <property name="proxy_out">2072</property>
  <property name="kdenlive:originalurl">/home/bordun/Clip01_SnapshatAuHarem_assets/DimancheAprem/CAM2201711250738C0005/CAM2_2017-11-25_0844_C0012.mov</property>
  <property name="global_feed">1</property>
  <property name="kdenlive:meta.media.nb_streams">3</property>
  <property name="kdenlive:meta.media.1.stream.type">video</property>
  <property name="kdenlive:meta.media.1.stream.frame_rate">24</property>
  <property name="kdenlive:meta.media.1.stream.sample_aspect_ratio">1</property>
  <property name="kdenlive:meta.media.1.codec.width">1920</property>
  <property name="kdenlive:meta.media.1.codec.height">1080</property>
  <property name="kdenlive:meta.media.1.codec.rotate">0</property>
  <property name="kdenlive:meta.media.1.codec.frame_rate">2400</property>
  <property name="kdenlive:meta.media.1.codec.pix_fmt">yuv422p10le</property>
  <property name="kdenlive:meta.media.1.codec.sample_aspect_ratio">0</property>
  <property name="kdenlive:meta.media.1.codec.colorspace">709</property>
  <property name="kdenlive:meta.media.1.codec.color_trc">1</property>
  <property name="kdenlive:meta.media.1.codec.name">prores</property>
  <property name="kdenlive:meta.media.1.codec.long_name">ProRes</property>
  <property name="kdenlive:meta.media.1.codec.bit_rate">176138321</property>
  <property name="kdenlive:meta.attr.1.stream.creation_time.markup">2017-11-25T08:44:27.000000Z</property>
  <property name="kdenlive:meta.attr.1.stream.language.markup">eng</property>
  <property name="kdenlive:meta.attr.1.stream.handler_name.markup">Apple Alias Data Handler</property>
  <property name="kdenlive:meta.attr.1.stream.encoder.markup">Apple ProRes 422 HQ</property>
  <property name="kdenlive:meta.attr.1.stream.timecode.markup">08:44:27:17</property>
  <property name="kdenlive:meta.media.2.stream.type">audio</property>
  <property name="kdenlive:meta.media.2.codec.sample_fmt">s32</property>
  <property name="kdenlive:meta.media.2.codec.sample_rate">48000</property>
  <property name="kdenlive:meta.media.2.codec.channels">2</property>
  <property name="kdenlive:meta.media.2.codec.name">pcm_s24le</property>
  <property name="kdenlive:meta.media.2.codec.long_name">PCM signed 24-bit little-endian</property>
  <property name="kdenlive:meta.media.2.codec.bit_rate">2304000</property>
  <property name="kdenlive:meta.attr.2.stream.creation_time.markup">2017-11-25T08:44:27.000000Z</property>
  <property name="kdenlive:meta.attr.2.stream.language.markup">eng</property>
  <property name="kdenlive:meta.attr.2.stream.handler_name.markup">Apple Alias Data Handler</property>
  <property name="kdenlive:meta.attr.2.stream.timecode.markup">08:44:27:17</property>
  <property name="kdenlive:meta.attr.com.apple.proapps.manufacturer.markup">Blackmagic Design</property>
  <property name="kdenlive:meta.attr.com.apple.proapps.cameraName.markup">CAM2</property>
  <property name="kdenlive:meta.attr.com.apple.proapps.isGood.markup">0</property>
  <property name="kdenlive:meta.attr.com.apple.proapps.customgamma.markup">com.blackmagic-design.cinemacamera.filmlog</property>
  <property name="kdenlive:meta.attr.com.blackmagic-design.cinemacamera.uuid.markup">18E5E00548F94923B646613A73C01B56</property>
  <property name="kdenlive:meta.attr.creation_time.markup">2017-11-25T08:44:27.000000Z</property>
  <property name="kdenlive:meta.attr.timecode.markup">08:44:27:17</property>
  <property name="kdenlive:meta.media.sample_aspect_num">1</property>
  <property name="kdenlive:meta.media.sample_aspect_den">1</property>
  <property name="kdenlive:meta.media.frame_rate_num">24</property>
  <property name="kdenlive:meta.media.frame_rate_den">1</property>
  <property name="kdenlive:meta.media.colorspace">709</property>
  <property name="kdenlive:meta.media.color_trc">1</property>
  <property name="kdenlive:meta.media.width">1920</property>
  <property name="kdenlive:meta.media.height">1080</property>
  <property name="kdenlive:meta.media.top_field_first">0</property>
  <property name="kdenlive:meta.media.progressive">1</property>
  <property name="kdenlive:clipname">plan seq 1</property>
  <property name="xml">was here</property>
  <property name="meta.media.nb_streams">2</property>
  <property name="meta.media.1.stream.type">video</property>
  <property name="meta.media.1.stream.frame_rate">24</property>
  <property name="meta.media.1.stream.sample_aspect_ratio">1</property>
  <property name="meta.media.1.codec.width">1920</property>
  <property name="meta.media.1.codec.height">1080</property>
  <property name="meta.media.1.codec.rotate">0</property>
  <property name="meta.media.1.codec.frame_rate">2400</property>
  <property name="meta.media.1.codec.pix_fmt">yuv422p10le</property>
  <property name="meta.media.1.codec.sample_aspect_ratio">0</property>
  <property name="meta.media.1.codec.colorspace">709</property>
  <property name="meta.media.1.codec.color_trc">1</property>
  <property name="meta.media.1.codec.name">prores</property>
  <property name="meta.media.1.codec.long_name">ProRes</property>
  <property name="meta.media.1.codec.bit_rate">176138321</property>
  <property name="meta.attr.1.stream.creation_time.markup">2017-11-25T08:44:27.000000Z</property>
  <property name="meta.attr.1.stream.language.markup">eng</property>
  <property name="meta.attr.1.stream.handler_name.markup">Apple Alias Data Handler</property>
  <property name="meta.attr.1.stream.encoder.markup">Apple ProRes 422 HQ</property>
  <property name="meta.attr.1.stream.timecode.markup">08:44:27:17</property>
  <property name="meta.media.2.stream.type">audio</property>
  <property name="meta.media.2.codec.sample_fmt">s32</property>
  <property name="meta.media.2.codec.sample_rate">48000</property>
  <property name="meta.media.2.codec.channels">2</property>
  <property name="meta.media.2.codec.name">pcm_s24le</property>
  <property name="meta.media.2.codec.long_name">PCM signed 24-bit little-endian</property>
  <property name="meta.media.2.codec.bit_rate">2304000</property>
  <property name="meta.attr.2.stream.creation_time.markup">2017-11-25T08:44:27.000000Z</property>
  <property name="meta.attr.2.stream.language.markup">eng</property>
  <property name="meta.attr.2.stream.handler_name.markup">Apple Alias Data Handler</property>
  <property name="meta.attr.2.stream.timecode.markup">08:44:27:17</property>
  <property name="meta.attr.com.apple.proapps.manufacturer.markup">Blackmagic Design</property>
  <property name="meta.attr.com.apple.proapps.cameraName.markup">CAM2</property>
  <property name="meta.attr.com.apple.proapps.isGood.markup">0</property>
  <property name="meta.attr.com.apple.proapps.customgamma.markup">com.blackmagic-design.cinemacamera.filmlog</property>
  <property name="meta.attr.com.blackmagic-design.cinemacamera.uuid.markup">18E5E00548F94923B646613A73C01B56</property>
  <property name="meta.attr.creation_time.markup">2017-11-25T08:44:27.000000Z</property>
  <property name="meta.attr.timecode.markup">08:44:27:17</property>
  <property name="meta.media.sample_aspect_num">1</property>
  <property name="meta.media.sample_aspect_den">1</property>
  <property name="meta.media.frame_rate_num">24</property>
  <property name="meta.media.frame_rate_den">1</property>
  <property name="meta.media.colorspace">709</property>
  <property name="meta.media.color_trc">1</property>
  <property name="meta.media.width">1920</property>
  <property name="meta.media.height">1080</property>
  <property name="meta.media.top_field_first">0</property>
  <property name="meta.media.progressive">1</property>
  <property name="meta.media.0.stream.type">video</property>
  <property name="meta.media.0.stream.frame_rate">24</property>
  <property name="meta.media.0.stream.sample_aspect_ratio">1</property>
  <property name="meta.media.0.codec.width">1920</property>
  <property name="meta.media.0.codec.height">1080</property>
  <property name="meta.media.0.codec.rotate">0</property>
  <property name="meta.media.0.codec.frame_rate">12288</property>
  <property name="meta.media.0.codec.pix_fmt">yuv422p10le</property>
  <property name="meta.media.0.codec.sample_aspect_ratio">0</property>
  <property name="meta.media.0.codec.colorspace">709</property>
  <property name="meta.media.0.codec.color_trc">1</property>
  <property name="meta.media.0.codec.name">dnxhd</property>
  <property name="meta.media.0.codec.long_name">VC3/DNxHD</property>
  <property name="meta.media.0.codec.bit_rate">176160768</property>
  <property name="meta.attr.0.stream.language.markup">eng</property>
  <property name="meta.attr.0.stream.handler_name.markup">Core Media Data Handler</property>
  <property name="meta.attr.0.stream.timecode.markup">08:44:27:17</property>
  <property name="meta.attr.major_brand.markup">qt  </property>
  <property name="meta.attr.minor_version.markup">512</property>
  <property name="meta.attr.compatible_brands.markup">qt  </property>
  <property name="meta.attr.encoder.markup">Lavf57.25.100</property>
  <property name="force_colorspace"/>
 </producer>
 <producer id="slowmotion:5:1,5:1:0" in="0" out="1248">
  <property name="length">1249</property>
  <property name="eof">pause</property>
  <property name="resource">1,5:/media/bordun/Odile/SnapshatAuHarem/etalo/CAM2_2017-11-25_0756_C0009.mov</property>
  <property name="aspect_ratio">1</property>
  <property name="meta.media.nb_streams">2</property>
  <property name="meta.media.0.stream.type">video</property>
  <property name="meta.media.0.stream.frame_rate">24</property>
  <property name="meta.media.0.stream.sample_aspect_ratio">1</property>
  <property name="meta.media.0.codec.width">1920</property>
  <property name="meta.media.0.codec.height">1080</property>
  <property name="meta.media.0.codec.rotate">0</property>
  <property name="meta.media.0.codec.frame_rate">12288</property>
  <property name="meta.media.0.codec.pix_fmt">yuv422p10le</property>
  <property name="meta.media.0.codec.sample_aspect_ratio">0</property>
  <property name="meta.media.0.codec.colorspace">709</property>
  <property name="meta.media.0.codec.color_trc">1</property>
  <property name="meta.media.0.codec.name">dnxhd</property>
  <property name="meta.media.0.codec.long_name">VC3/DNxHD</property>
  <property name="meta.media.0.codec.bit_rate">176160768</property>
  <property name="meta.attr.0.stream.language.markup">eng</property>
  <property name="meta.attr.0.stream.handler_name.markup">Core Media Data Handler</property>
  <property name="meta.attr.0.stream.timecode.markup">07:56:22:19</property>
  <property name="meta.attr.major_brand.markup">qt  </property>
  <property name="meta.attr.minor_version.markup">512</property>
  <property name="meta.attr.compatible_brands.markup">qt  </property>
  <property name="meta.attr.encoder.markup">Lavf57.25.100</property>
  <property name="seekable">1</property>
  <property name="meta.media.sample_aspect_num">1</property>
  <property name="meta.media.sample_aspect_den">1</property>
  <property name="audio_index">2</property>
  <property name="video_index">0</property>
  <property name="mute_on_pause">1</property>
  <property name="warp_speed">1,5</property>
  <property name="warp_resource">/media/bordun/Odile/SnapshatAuHarem/etalo/CAM2_2017-11-25_0756_C0009.mov</property>
  <property name="mlt_service">timewarp</property>
  <property name="meta.media.1.stream.type">video</property>
  <property name="meta.media.1.stream.frame_rate">24</property>
  <property name="meta.media.1.stream.sample_aspect_ratio">1</property>
  <property name="meta.media.1.codec.width">1920</property>
  <property name="meta.media.1.codec.height">1080</property>
  <property name="meta.media.1.codec.rotate">0</property>
  <property name="meta.media.1.codec.frame_rate">2400</property>
  <property name="meta.media.1.codec.pix_fmt">yuv422p10le</property>
  <property name="meta.media.1.codec.sample_aspect_ratio">0</property>
  <property name="meta.media.1.codec.colorspace">709</property>
  <property name="meta.media.1.codec.color_trc">1</property>
  <property name="meta.media.1.codec.name">prores</property>
  <property name="meta.media.1.codec.long_name">ProRes</property>
  <property name="meta.media.1.codec.bit_rate">176138010</property>
  <property name="meta.attr.1.stream.creation_time.markup">2017-11-25T07:56:22.000000Z</property>
  <property name="meta.attr.1.stream.language.markup">eng</property>
  <property name="meta.attr.1.stream.handler_name.markup">Apple Alias Data Handler</property>
  <property name="meta.attr.1.stream.encoder.markup">Apple ProRes 422 HQ</property>
  <property name="meta.attr.1.stream.timecode.markup">07:56:22:19</property>
  <property name="meta.media.2.stream.type">audio</property>
  <property name="meta.media.2.codec.sample_fmt">s32</property>
  <property name="meta.media.2.codec.sample_rate">48000</property>
  <property name="meta.media.2.codec.channels">2</property>
  <property name="meta.media.2.codec.name">pcm_s24le</property>
  <property name="meta.media.2.codec.long_name">PCM signed 24-bit little-endian</property>
  <property name="meta.media.2.codec.bit_rate">2304000</property>
  <property name="meta.attr.2.stream.creation_time.markup">2017-11-25T07:56:22.000000Z</property>
  <property name="meta.attr.2.stream.language.markup">eng</property>
  <property name="meta.attr.2.stream.handler_name.markup">Apple Alias Data Handler</property>
  <property name="meta.attr.2.stream.timecode.markup">07:56:22:19</property>
  <property name="meta.attr.com.apple.proapps.manufacturer.markup">Blackmagic Design</property>
  <property name="meta.attr.com.apple.proapps.cameraName.markup">CAM2</property>
  <property name="meta.attr.com.apple.proapps.isGood.markup">0</property>
  <property name="meta.attr.com.apple.proapps.customgamma.markup">com.blackmagic-design.cinemacamera.filmlog</property>
  <property name="meta.attr.com.blackmagic-design.cinemacamera.uuid.markup">18E5E00548F94923B646613A73C01B56</property>
  <property name="meta.attr.creation_time.markup">2017-11-25T07:56:22.000000Z</property>
  <property name="meta.attr.timecode.markup">07:56:22:19</property>
  <property name="kdenlive:proxy">-</property>
  <property name="kdenlive:originalurl">/home/bordun/Clip01_SnapshatAuHarem_assets/DimancheAprem/CAM2201711250738C0005/CAM2_2017-11-25_0756_C0009.mov</property>
  <property name="meta.media.frame_rate_num">24</property>
  <property name="meta.media.frame_rate_den">1</property>
  <property name="meta.media.colorspace">709</property>
  <property name="meta.media.color_trc">1</property>
  <property name="meta.media.width">1920</property>
  <property name="meta.media.height">1080</property>
  <property name="meta.media.top_field_first">0</property>
  <property name="meta.media.progressive">1</property>
  <property name="force_colorspace"/>
 </producer>
 <producer title="Anonymous Submission" id="4_playlist4" in="0" out="2260">
  <property name="length">00:01:34:05</property>
  <property name="eof">pause</property>
  <property name="resource">/media/bordun/Odile/SnapshatAuHarem/etalo/CAM2_2017-11-25_0850_C0014.mov</property>
  <property name="audio_index">2</property>
  <property name="video_index">0</property>
  <property name="mute_on_pause">1</property>
  <property name="mlt_service">avformat-novalidate</property>
  <property name="seekable">1</property>
  <property name="aspect_ratio">1</property>
  <property name="kdenlive:file_size">2101898049</property>
  <property name="kdenlive:file_hash">f9107726803d489f8ec240dffe5f2a08</property>
  <property name="kdenlive:proxy">-</property>
  <property name="proxy_out">2260</property>
  <property name="kdenlive:originalurl">/home/bordun/Clip01_SnapshatAuHarem_assets/DimancheAprem/CAM2201711250738C0005/CAM2_2017-11-25_0850_C0014.mov</property>
  <property name="global_feed">1</property>
  <property name="kdenlive:meta.media.nb_streams">3</property>
  <property name="kdenlive:meta.media.1.stream.type">video</property>
  <property name="kdenlive:meta.media.1.stream.frame_rate">24</property>
  <property name="kdenlive:meta.media.1.stream.sample_aspect_ratio">1</property>
  <property name="kdenlive:meta.media.1.codec.width">1920</property>
  <property name="kdenlive:meta.media.1.codec.height">1080</property>
  <property name="kdenlive:meta.media.1.codec.rotate">0</property>
  <property name="kdenlive:meta.media.1.codec.frame_rate">2400</property>
  <property name="kdenlive:meta.media.1.codec.pix_fmt">yuv422p10le</property>
  <property name="kdenlive:meta.media.1.codec.sample_aspect_ratio">0</property>
  <property name="kdenlive:meta.media.1.codec.colorspace">709</property>
  <property name="kdenlive:meta.media.1.codec.color_trc">1</property>
  <property name="kdenlive:meta.media.1.codec.name">prores</property>
  <property name="kdenlive:meta.media.1.codec.long_name">ProRes</property>
  <property name="kdenlive:meta.media.1.codec.bit_rate">176138333</property>
  <property name="kdenlive:meta.attr.1.stream.creation_time.markup">2017-11-25T08:50:03.000000Z</property>
  <property name="kdenlive:meta.attr.1.stream.language.markup">eng</property>
  <property name="kdenlive:meta.attr.1.stream.handler_name.markup">Apple Alias Data Handler</property>
  <property name="kdenlive:meta.attr.1.stream.encoder.markup">Apple ProRes 422 HQ</property>
  <property name="kdenlive:meta.attr.1.stream.timecode.markup">08:50:03:05</property>
  <property name="kdenlive:meta.media.2.stream.type">audio</property>
  <property name="kdenlive:meta.media.2.codec.sample_fmt">s32</property>
  <property name="kdenlive:meta.media.2.codec.sample_rate">48000</property>
  <property name="kdenlive:meta.media.2.codec.channels">2</property>
  <property name="kdenlive:meta.media.2.codec.name">pcm_s24le</property>
  <property name="kdenlive:meta.media.2.codec.long_name">PCM signed 24-bit little-endian</property>
  <property name="kdenlive:meta.media.2.codec.bit_rate">2304000</property>
  <property name="kdenlive:meta.attr.2.stream.creation_time.markup">2017-11-25T08:50:03.000000Z</property>
  <property name="kdenlive:meta.attr.2.stream.language.markup">eng</property>
  <property name="kdenlive:meta.attr.2.stream.handler_name.markup">Apple Alias Data Handler</property>
  <property name="kdenlive:meta.attr.2.stream.timecode.markup">08:50:03:05</property>
  <property name="kdenlive:meta.attr.com.apple.proapps.manufacturer.markup">Blackmagic Design</property>
  <property name="kdenlive:meta.attr.com.apple.proapps.cameraName.markup">CAM2</property>
  <property name="kdenlive:meta.attr.com.apple.proapps.isGood.markup">0</property>
  <property name="kdenlive:meta.attr.com.apple.proapps.customgamma.markup">com.blackmagic-design.cinemacamera.filmlog</property>
  <property name="kdenlive:meta.attr.com.blackmagic-design.cinemacamera.uuid.markup">18E5E00548F94923B646613A73C01B56</property>
  <property name="kdenlive:meta.attr.creation_time.markup">2017-11-25T08:50:03.000000Z</property>
  <property name="kdenlive:meta.attr.timecode.markup">08:50:03:05</property>
  <property name="kdenlive:meta.media.sample_aspect_num">1</property>
  <property name="kdenlive:meta.media.sample_aspect_den">1</property>
  <property name="kdenlive:meta.media.frame_rate_num">24</property>
  <property name="kdenlive:meta.media.frame_rate_den">1</property>
  <property name="kdenlive:meta.media.colorspace">709</property>
  <property name="kdenlive:meta.media.color_trc">1</property>
  <property name="kdenlive:meta.media.width">1920</property>
  <property name="kdenlive:meta.media.height">1080</property>
  <property name="kdenlive:meta.media.top_field_first">0</property>
  <property name="kdenlive:meta.media.progressive">1</property>
  <property name="kdenlive:clipname">plan seq 3</property>
  <property name="xml">was here</property>
  <property name="force_colorspace"/>
  <property name="meta.media.nb_streams">2</property>
  <property name="meta.media.0.stream.type">video</property>
  <property name="meta.media.0.stream.frame_rate">24</property>
  <property name="meta.media.0.stream.sample_aspect_ratio">1</property>
  <property name="meta.media.0.codec.width">1920</property>
  <property name="meta.media.0.codec.height">1080</property>
  <property name="meta.media.0.codec.rotate">0</property>
  <property name="meta.media.0.codec.frame_rate">12288</property>
  <property name="meta.media.0.codec.pix_fmt">yuv422p10le</property>
  <property name="meta.media.0.codec.sample_aspect_ratio">0</property>
  <property name="meta.media.0.codec.colorspace">709</property>
  <property name="meta.media.0.codec.color_trc">1</property>
  <property name="meta.media.0.codec.name">dnxhd</property>
  <property name="meta.media.0.codec.long_name">VC3/DNxHD</property>
  <property name="meta.media.0.codec.bit_rate">176160768</property>
  <property name="meta.attr.0.stream.language.markup">eng</property>
  <property name="meta.attr.0.stream.handler_name.markup">Core Media Data Handler</property>
  <property name="meta.attr.0.stream.timecode.markup">08:50:03:05</property>
  <property name="meta.attr.major_brand.markup">qt  </property>
  <property name="meta.attr.minor_version.markup">512</property>
  <property name="meta.attr.compatible_brands.markup">qt  </property>
  <property name="meta.attr.encoder.markup">Lavf57.25.100</property>
  <property name="meta.media.sample_aspect_num">1</property>
  <property name="meta.media.sample_aspect_den">1</property>
  <property name="meta.media.frame_rate_num">24</property>
  <property name="meta.media.frame_rate_den">1</property>
  <property name="meta.media.colorspace">709</property>
  <property name="meta.media.color_trc">1</property>
  <property name="meta.media.width">1920</property>
  <property name="meta.media.height">1080</property>
  <property name="meta.media.top_field_first">0</property>
  <property name="meta.media.progressive">1</property>
 </producer>
 <producer title="Anonymous Submission" id="3_playlist4" in="0" out="2299">
  <property name="length">00:01:35:20</property>
  <property name="eof">pause</property>
  <property name="resource">/media/bordun/Odile/SnapshatAuHarem/etalo/CAM2_2017-11-25_0847_C0013.mov</property>
  <property name="audio_index">2</property>
  <property name="video_index">0</property>
  <property name="mute_on_pause">1</property>
  <property name="mlt_service">avformat-novalidate</property>
  <property name="seekable">1</property>
  <property name="aspect_ratio">1</property>
  <property name="kdenlive:file_size">2138152777</property>
  <property name="kdenlive:file_hash">a0a40ba05c1c0c852ecb5506561dec13</property>
  <property name="kdenlive:proxy">-</property>
  <property name="proxy_out">2299</property>
  <property name="kdenlive:originalurl">/home/bordun/Clip01_SnapshatAuHarem_assets/DimancheAprem/CAM2201711250738C0005/CAM2_2017-11-25_0847_C0013.mov</property>
  <property name="global_feed">1</property>
  <property name="kdenlive:meta.media.nb_streams">3</property>
  <property name="kdenlive:meta.media.1.stream.type">video</property>
  <property name="kdenlive:meta.media.1.stream.frame_rate">24</property>
  <property name="kdenlive:meta.media.1.stream.sample_aspect_ratio">1</property>
  <property name="kdenlive:meta.media.1.codec.width">1920</property>
  <property name="kdenlive:meta.media.1.codec.height">1080</property>
  <property name="kdenlive:meta.media.1.codec.rotate">0</property>
  <property name="kdenlive:meta.media.1.codec.frame_rate">2400</property>
  <property name="kdenlive:meta.media.1.codec.pix_fmt">yuv422p10le</property>
  <property name="kdenlive:meta.media.1.codec.sample_aspect_ratio">0</property>
  <property name="kdenlive:meta.media.1.codec.colorspace">709</property>
  <property name="kdenlive:meta.media.1.codec.color_trc">1</property>
  <property name="kdenlive:meta.media.1.codec.name">prores</property>
  <property name="kdenlive:meta.media.1.codec.long_name">ProRes</property>
  <property name="kdenlive:meta.media.1.codec.bit_rate">176138616</property>
  <property name="kdenlive:meta.attr.1.stream.creation_time.markup">2017-11-25T08:47:46.000000Z</property>
  <property name="kdenlive:meta.attr.1.stream.language.markup">eng</property>
  <property name="kdenlive:meta.attr.1.stream.handler_name.markup">Apple Alias Data Handler</property>
  <property name="kdenlive:meta.attr.1.stream.encoder.markup">Apple ProRes 422 HQ</property>
  <property name="kdenlive:meta.attr.1.stream.timecode.markup">08:47:46:22</property>
  <property name="kdenlive:meta.media.2.stream.type">audio</property>
  <property name="kdenlive:meta.media.2.codec.sample_fmt">s32</property>
  <property name="kdenlive:meta.media.2.codec.sample_rate">48000</property>
  <property name="kdenlive:meta.media.2.codec.channels">2</property>
  <property name="kdenlive:meta.media.2.codec.name">pcm_s24le</property>
  <property name="kdenlive:meta.media.2.codec.long_name">PCM signed 24-bit little-endian</property>
  <property name="kdenlive:meta.media.2.codec.bit_rate">2304000</property>
  <property name="kdenlive:meta.attr.2.stream.creation_time.markup">2017-11-25T08:47:46.000000Z</property>
  <property name="kdenlive:meta.attr.2.stream.language.markup">eng</property>
  <property name="kdenlive:meta.attr.2.stream.handler_name.markup">Apple Alias Data Handler</property>
  <property name="kdenlive:meta.attr.2.stream.timecode.markup">08:47:46:22</property>
  <property name="kdenlive:meta.attr.com.apple.proapps.manufacturer.markup">Blackmagic Design</property>
  <property name="kdenlive:meta.attr.com.apple.proapps.cameraName.markup">CAM2</property>
  <property name="kdenlive:meta.attr.com.apple.proapps.isGood.markup">0</property>
  <property name="kdenlive:meta.attr.com.apple.proapps.customgamma.markup">com.blackmagic-design.cinemacamera.filmlog</property>
  <property name="kdenlive:meta.attr.com.blackmagic-design.cinemacamera.uuid.markup">18E5E00548F94923B646613A73C01B56</property>
  <property name="kdenlive:meta.attr.creation_time.markup">2017-11-25T08:47:46.000000Z</property>
  <property name="kdenlive:meta.attr.timecode.markup">08:47:46:22</property>
  <property name="kdenlive:meta.media.sample_aspect_num">1</property>
  <property name="kdenlive:meta.media.sample_aspect_den">1</property>
  <property name="kdenlive:meta.media.frame_rate_num">24</property>
  <property name="kdenlive:meta.media.frame_rate_den">1</property>
  <property name="kdenlive:meta.media.colorspace">709</property>
  <property name="kdenlive:meta.media.color_trc">1</property>
  <property name="kdenlive:meta.media.width">1920</property>
  <property name="kdenlive:meta.media.height">1080</property>
  <property name="kdenlive:meta.media.top_field_first">0</property>
  <property name="kdenlive:meta.media.progressive">1</property>
  <property name="kdenlive:clipname">plan seq 2</property>
  <property name="xml">was here</property>
  <property name="meta.media.nb_streams">2</property>
  <property name="meta.media.1.stream.type">video</property>
  <property name="meta.media.1.stream.frame_rate">24</property>
  <property name="meta.media.1.stream.sample_aspect_ratio">1</property>
  <property name="meta.media.1.codec.width">1920</property>
  <property name="meta.media.1.codec.height">1080</property>
  <property name="meta.media.1.codec.rotate">0</property>
  <property name="meta.media.1.codec.frame_rate">2400</property>
  <property name="meta.media.1.codec.pix_fmt">yuv422p10le</property>
  <property name="meta.media.1.codec.sample_aspect_ratio">0</property>
  <property name="meta.media.1.codec.colorspace">709</property>
  <property name="meta.media.1.codec.color_trc">1</property>
  <property name="meta.media.1.codec.name">prores</property>
  <property name="meta.media.1.codec.long_name">ProRes</property>
  <property name="meta.media.1.codec.bit_rate">176138616</property>
  <property name="meta.attr.1.stream.creation_time.markup">2017-11-25T08:47:46.000000Z</property>
  <property name="meta.attr.1.stream.language.markup">eng</property>
  <property name="meta.attr.1.stream.handler_name.markup">Apple Alias Data Handler</property>
  <property name="meta.attr.1.stream.encoder.markup">Apple ProRes 422 HQ</property>
  <property name="meta.attr.1.stream.timecode.markup">08:47:46:22</property>
  <property name="meta.media.2.stream.type">audio</property>
  <property name="meta.media.2.codec.sample_fmt">s32</property>
  <property name="meta.media.2.codec.sample_rate">48000</property>
  <property name="meta.media.2.codec.channels">2</property>
  <property name="meta.media.2.codec.name">pcm_s24le</property>
  <property name="meta.media.2.codec.long_name">PCM signed 24-bit little-endian</property>
  <property name="meta.media.2.codec.bit_rate">2304000</property>
  <property name="meta.attr.2.stream.creation_time.markup">2017-11-25T08:47:46.000000Z</property>
  <property name="meta.attr.2.stream.language.markup">eng</property>
  <property name="meta.attr.2.stream.handler_name.markup">Apple Alias Data Handler</property>
  <property name="meta.attr.2.stream.timecode.markup">08:47:46:22</property>
  <property name="meta.attr.com.apple.proapps.manufacturer.markup">Blackmagic Design</property>
  <property name="meta.attr.com.apple.proapps.cameraName.markup">CAM2</property>
  <property name="meta.attr.com.apple.proapps.isGood.markup">0</property>
  <property name="meta.attr.com.apple.proapps.customgamma.markup">com.blackmagic-design.cinemacamera.filmlog</property>
  <property name="meta.attr.com.blackmagic-design.cinemacamera.uuid.markup">18E5E00548F94923B646613A73C01B56</property>
  <property name="meta.attr.creation_time.markup">2017-11-25T08:47:46.000000Z</property>
  <property name="meta.attr.timecode.markup">08:47:46:22</property>
  <property name="meta.media.sample_aspect_num">1</property>
  <property name="meta.media.sample_aspect_den">1</property>
  <property name="meta.media.frame_rate_num">24</property>
  <property name="meta.media.frame_rate_den">1</property>
  <property name="meta.media.colorspace">709</property>
  <property name="meta.media.color_trc">1</property>
  <property name="meta.media.width">1920</property>
  <property name="meta.media.height">1080</property>
  <property name="meta.media.top_field_first">0</property>
  <property name="meta.media.progressive">1</property>
  <property name="meta.media.0.stream.type">video</property>
  <property name="meta.media.0.stream.frame_rate">24</property>
  <property name="meta.media.0.stream.sample_aspect_ratio">1</property>
  <property name="meta.media.0.codec.width">1920</property>
  <property name="meta.media.0.codec.height">1080</property>
  <property name="meta.media.0.codec.rotate">0</property>
  <property name="meta.media.0.codec.frame_rate">12288</property>
  <property name="meta.media.0.codec.pix_fmt">yuv422p10le</property>
  <property name="meta.media.0.codec.sample_aspect_ratio">0</property>
  <property name="meta.media.0.codec.colorspace">709</property>
  <property name="meta.media.0.codec.color_trc">1</property>
  <property name="meta.media.0.codec.name">dnxhd</property>
  <property name="meta.media.0.codec.long_name">VC3/DNxHD</property>
  <property name="meta.media.0.codec.bit_rate">176160768</property>
  <property name="meta.attr.0.stream.language.markup">eng</property>
  <property name="meta.attr.0.stream.handler_name.markup">Core Media Data Handler</property>
  <property name="meta.attr.0.stream.timecode.markup">08:47:46:22</property>
  <property name="meta.attr.major_brand.markup">qt  </property>
  <property name="meta.attr.minor_version.markup">512</property>
  <property name="meta.attr.compatible_brands.markup">qt  </property>
  <property name="meta.attr.encoder.markup">Lavf57.25.100</property>
  <property name="set.force_full_luma"/>
  <property name="force_colorspace"/>
 </producer>
 <playlist id="playlist4">
  <property name="kdenlive:track_name">Video 2</property>
  <blank length="1813"/>
  <entry producer="2_playlist4" in="874" out="874"/>
  <blank length="1"/>
  <entry producer="2_playlist4" in="874" out="874"/>
  <blank length="1"/>
  <entry producer="2_playlist4" in="876" out="876"/>
  <blank length="1"/>
  <entry producer="2_playlist4" in="876" out="876"/>
  <blank length="1"/>
  <entry producer="2_playlist4" in="876" out="876"/>
  <entry producer="slowmotion:5:1,5:1:0" in="711" out="760">
   <filter id="mirror">
    <property name="mirror">flip</property>
    <property name="mlt_service">mirror</property>
    <property name="kdenlive_id">mirror</property>
    <property name="tag">mirror</property>
    <property name="kdenlive_ix">1</property>
    <property name="kdenlive_info"/>
    <property name="disable">1</property>
    <property name="reverse">0</property>
   </filter>
  </entry>
  <blank length="78"/>
  <entry producer="4_playlist4" in="847" out="867"/>
  <blank length="128"/>
  <entry producer="3_playlist4" in="1173" out="1193">
   <filter id="filter5" in="1173" out="1193">
    <property name="background">colour:0x00000000</property>
    <property name="mlt_service">affine</property>
    <property name="kdenlive_id">pan_zoom</property>
    <property name="tag">affine</property>
    <property name="kdenlive_ix">1</property>
    <property name="transition.geometry">-288/0:2496x1404:100</property>
    <property name="transition.distort">0</property>
    <property name="kdenlive:sync_in_out">1</property>
    <property name="kdenlive_info"/>
   </filter>
  </entry>
  <blank length="61"/>
  <entry producer="3_playlist4" in="1254" out="1279">
   <filter id="filter6" in="1254" out="1279">
    <property name="background">colour:0x00000000</property>
    <property name="mlt_service">affine</property>
    <property name="kdenlive_id">pan_zoom</property>
    <property name="tag">affine</property>
    <property name="kdenlive_ix">1</property>
    <property name="transition.geometry">-372/-267:2880x1620:100</property>
    <property name="transition.distort">0</property>
    <property name="kdenlive:sync_in_out">1</property>
    <property name="kdenlive_info"/>
    <property name="disable">0</property>
   </filter>
  </entry>
 </playlist>
 <playlist id="playlist5">
  <property name="kdenlive:track_name">glitch + grain</property>
  <property name="kdenlive:locked_track">0</property>
  <blank length="1871"/>
  <entry producer="slowmotion:5:1,5:1:0" in="763" out="763">
   <filter id="filter11">
    <property name="mirror">flip</property>
    <property name="mlt_service">mirror</property>
    <property name="kdenlive_id">mirror</property>
    <property name="tag">mirror</property>
    <property name="kdenlive_ix">2</property>
    <property name="kdenlive_info"/>
    <property name="disable">1</property>
    <property name="reverse">0</property>
   </filter>
   <filter id="frei0r.glitch0r">
    <property name="version">0,1</property>
    <property name="mlt_service">frei0r.glitch0r</property>
    <property name="kdenlive_id">frei0r.glitch0r</property>
    <property name="tag">frei0r.glitch0r</property>
    <property name="kdenlive_ix">3</property>
    <property name="0">1</property>
    <property name="1">0</property>
    <property name="2">0,141</property>
    <property name="3">0</property>
    <property name="kdenlive_info"/>
    <property name="disable"/>
   </filter>
  </entry>
 </playlist>
 <producer id="slowmotion:8:0,5:1:0" in="0" out="5764">
  <property name="length">5765</property>
  <property name="eof">pause</property>
  <property name="resource">0,5:/media/bordun/Odile/SnapshatAuHarem/etalo/CAM2_2017-11-25_0941_C0001.mov</property>
  <property name="aspect_ratio">1</property>
  <property name="meta.media.nb_streams">2</property>
  <property name="meta.media.0.stream.type">video</property>
  <property name="meta.media.0.stream.frame_rate">60</property>
  <property name="meta.media.0.stream.sample_aspect_ratio">1</property>
  <property name="meta.media.0.codec.width">1920</property>
  <property name="meta.media.0.codec.height">1080</property>
  <property name="meta.media.0.codec.rotate">0</property>
  <property name="meta.media.0.codec.frame_rate">15360</property>
  <property name="meta.media.0.codec.pix_fmt">yuv422p10le</property>
  <property name="meta.media.0.codec.sample_aspect_ratio">0</property>
  <property name="meta.media.0.codec.colorspace">709</property>
  <property name="meta.media.0.codec.color_trc">1</property>
  <property name="meta.media.0.codec.name">dnxhd</property>
  <property name="meta.media.0.codec.long_name">VC3/DNxHD</property>
  <property name="meta.media.0.codec.bit_rate">440401920</property>
  <property name="meta.attr.0.stream.language.markup">eng</property>
  <property name="meta.attr.0.stream.handler_name.markup">Core Media Data Handler</property>
  <property name="meta.attr.0.stream.timecode.markup">09:41:37:09</property>
  <property name="meta.attr.major_brand.markup">qt  </property>
  <property name="meta.attr.minor_version.markup">512</property>
  <property name="meta.attr.compatible_brands.markup">qt  </property>
  <property name="meta.attr.encoder.markup">Lavf57.25.100</property>
  <property name="seekable">1</property>
  <property name="meta.media.sample_aspect_num">1</property>
  <property name="meta.media.sample_aspect_den">1</property>
  <property name="audio_index">-1</property>
  <property name="video_index">0</property>
  <property name="mute_on_pause">1</property>
  <property name="warp_speed">0,5</property>
  <property name="warp_resource">/media/bordun/Odile/SnapshatAuHarem/etalo/CAM2_2017-11-25_0941_C0001.mov</property>
  <property name="mlt_service">timewarp</property>
  <property name="meta.media.frame_rate_num">60</property>
  <property name="meta.media.frame_rate_den">1</property>
  <property name="meta.media.colorspace">709</property>
  <property name="meta.media.color_trc">1</property>
  <property name="meta.media.width">1920</property>
  <property name="meta.media.height">1080</property>
  <property name="meta.media.top_field_first">0</property>
  <property name="meta.media.progressive">1</property>
  <filter id="filter0">
   <property name="version">0,9</property>
   <property name="mlt_service">frei0r.sigmoidaltransfer</property>
   <property name="kdenlive_id">frei0r.sigmoidaltransfer</property>
   <property name="tag">frei0r.sigmoidaltransfer</property>
   <property name="kdenlive_ix">1</property>
   <property name="kdenlive_info"/>
   <property name="0">1</property>
   <property name="1">0,234</property>
   <property name="disable">0</property>
  </filter>
 </producer>
 <producer title="Anonymous Submission" id="8_playlist10" in="0" out="2881">
  <property name="length">00:02:00:02</property>
  <property name="eof">pause</property>
  <property name="resource">/media/bordun/Odile/SnapshatAuHarem/etalo/CAM2_2017-11-25_0941_C0001.mov</property>
  <property name="audio_index">-1</property>
  <property name="video_index">0</property>
  <property name="mute_on_pause">1</property>
  <property name="mlt_service">avformat-novalidate</property>
  <property name="seekable">1</property>
  <property name="aspect_ratio">1</property>
  <property name="kdenlive:file_size">6646002705</property>
  <property name="kdenlive:file_hash">f22de9cde004f4cdccd2392a6b8453e7</property>
  <property name="kdenlive:proxy">-</property>
  <property name="proxy_out">2881</property>
  <property name="kdenlive:originalurl">/media/bordun/Odile/SnapshatAuHarem/etalo/CAM2_2017-11-25_0941_C0001.mov</property>
  <property name="global_feed">1</property>
  <property name="kdenlive:clipname">sniffed-eaten-mixed-jerked</property>
  <property name="xml">was here</property>
  <property name="meta.media.nb_streams">2</property>
  <property name="meta.media.0.stream.type">video</property>
  <property name="meta.media.0.stream.frame_rate">60</property>
  <property name="meta.media.0.stream.sample_aspect_ratio">1</property>
  <property name="meta.media.0.codec.width">1920</property>
  <property name="meta.media.0.codec.height">1080</property>
  <property name="meta.media.0.codec.rotate">0</property>
  <property name="meta.media.0.codec.frame_rate">15360</property>
  <property name="meta.media.0.codec.pix_fmt">yuv422p10le</property>
  <property name="meta.media.0.codec.sample_aspect_ratio">0</property>
  <property name="meta.media.0.codec.colorspace">709</property>
  <property name="meta.media.0.codec.color_trc">1</property>
  <property name="meta.media.0.codec.name">dnxhd</property>
  <property name="meta.media.0.codec.long_name">VC3/DNxHD</property>
  <property name="meta.media.0.codec.bit_rate">440401920</property>
  <property name="meta.attr.0.stream.language.markup">eng</property>
  <property name="meta.attr.0.stream.handler_name.markup">Core Media Data Handler</property>
  <property name="meta.attr.0.stream.timecode.markup">09:41:37:09</property>
  <property name="meta.attr.major_brand.markup">qt  </property>
  <property name="meta.attr.minor_version.markup">512</property>
  <property name="meta.attr.compatible_brands.markup">qt  </property>
  <property name="meta.attr.encoder.markup">Lavf57.25.100</property>
  <property name="meta.media.sample_aspect_num">1</property>
  <property name="meta.media.sample_aspect_den">1</property>
  <property name="meta.media.frame_rate_num">60</property>
  <property name="meta.media.frame_rate_den">1</property>
  <property name="meta.media.colorspace">709</property>
  <property name="meta.media.color_trc">1</property>
  <property name="meta.media.width">1920</property>
  <property name="meta.media.height">1080</property>
  <property name="meta.media.top_field_first">0</property>
  <property name="meta.media.progressive">1</property>
  <filter id="filter1">
   <property name="version">0,9</property>
   <property name="mlt_service">frei0r.sigmoidaltransfer</property>
   <property name="kdenlive_id">frei0r.sigmoidaltransfer</property>
   <property name="tag">frei0r.sigmoidaltransfer</property>
   <property name="kdenlive_ix">1</property>
   <property name="kdenlive_info"/>
   <property name="0">1</property>
   <property name="1">0,234</property>
   <property name="disable">0</property>
  </filter>
 </producer>
 <producer id="slowmotion:8:1,2:1:0" in="0" out="2401">
  <property name="length">2402</property>
  <property name="eof">pause</property>
  <property name="resource">1,2:/media/bordun/Odile/SnapshatAuHarem/etalo/CAM2_2017-11-25_0941_C0001.mov</property>
  <property name="aspect_ratio">1</property>
  <property name="meta.media.nb_streams">2</property>
  <property name="meta.media.0.stream.type">video</property>
  <property name="meta.media.0.stream.frame_rate">60</property>
  <property name="meta.media.0.stream.sample_aspect_ratio">1</property>
  <property name="meta.media.0.codec.width">1920</property>
  <property name="meta.media.0.codec.height">1080</property>
  <property name="meta.media.0.codec.rotate">0</property>
  <property name="meta.media.0.codec.frame_rate">15360</property>
  <property name="meta.media.0.codec.pix_fmt">yuv422p10le</property>
  <property name="meta.media.0.codec.sample_aspect_ratio">0</property>
  <property name="meta.media.0.codec.colorspace">709</property>
  <property name="meta.media.0.codec.color_trc">1</property>
  <property name="meta.media.0.codec.name">dnxhd</property>
  <property name="meta.media.0.codec.long_name">VC3/DNxHD</property>
  <property name="meta.media.0.codec.bit_rate">440401920</property>
  <property name="meta.attr.0.stream.language.markup">eng</property>
  <property name="meta.attr.0.stream.handler_name.markup">Core Media Data Handler</property>
  <property name="meta.attr.0.stream.timecode.markup">09:41:37:09</property>
  <property name="meta.attr.major_brand.markup">qt  </property>
  <property name="meta.attr.minor_version.markup">512</property>
  <property name="meta.attr.compatible_brands.markup">qt  </property>
  <property name="meta.attr.encoder.markup">Lavf57.25.100</property>
  <property name="seekable">1</property>
  <property name="meta.media.sample_aspect_num">1</property>
  <property name="meta.media.sample_aspect_den">1</property>
  <property name="audio_index">-1</property>
  <property name="video_index">0</property>
  <property name="mute_on_pause">1</property>
  <property name="warp_speed">1,2</property>
  <property name="warp_resource">/media/bordun/Odile/SnapshatAuHarem/etalo/CAM2_2017-11-25_0941_C0001.mov</property>
  <property name="mlt_service">timewarp</property>
  <property name="meta.media.frame_rate_num">60</property>
  <property name="meta.media.frame_rate_den">1</property>
  <property name="meta.media.colorspace">709</property>
  <property name="meta.media.color_trc">1</property>
  <property name="meta.media.width">1920</property>
  <property name="meta.media.height">1080</property>
  <property name="meta.media.top_field_first">0</property>
  <property name="meta.media.progressive">1</property>
  <filter id="filter2">
   <property name="version">0,9</property>
   <property name="mlt_service">frei0r.sigmoidaltransfer</property>
   <property name="kdenlive_id">frei0r.sigmoidaltransfer</property>
   <property name="tag">frei0r.sigmoidaltransfer</property>
   <property name="kdenlive_ix">1</property>
   <property name="kdenlive_info"/>
   <property name="0">1</property>
   <property name="1">0,234</property>
   <property name="disable">0</property>
  </filter>
 </producer>
 <playlist id="playlist8">
  <property name="kdenlive:track_name">Video 6</property>
  <blank length="1915"/>
  <entry producer="slowmotion:8:0,5:1:0" in="3014" out="3048"/>
  <blank length="297"/>
  <entry producer="8_playlist10" in="1680" out="1682"/>
  <entry producer="8_playlist10" in="1680" out="1682"/>
  <entry producer="8_playlist10" in="1680" out="1682"/>
  <entry producer="slowmotion:8:0,5:1:0" in="3365" out="3375"/>
  <entry producer="slowmotion:8:1,2:1:0" in="1407" out="1412"/>
  <entry producer="8_playlist10" in="1695" out="1725"/>
 </playlist>
 <producer title="Anonymous Submission" id="8_playlist6" in="0" out="2881">
  <property name="length">00:02:00:02</property>
  <property name="eof">pause</property>
  <property name="resource">/media/bordun/Odile/SnapshatAuHarem/etalo/CAM2_2017-11-25_0941_C0001.mov</property>
  <property name="audio_index">-1</property>
  <property name="video_index">0</property>
  <property name="mute_on_pause">1</property>
  <property name="mlt_service">avformat-novalidate</property>
  <property name="seekable">1</property>
  <property name="aspect_ratio">1</property>
  <property name="kdenlive:file_size">6646002705</property>
  <property name="kdenlive:file_hash">f22de9cde004f4cdccd2392a6b8453e7</property>
  <property name="kdenlive:proxy">-</property>
  <property name="proxy_out">2881</property>
  <property name="kdenlive:originalurl">/media/bordun/Odile/SnapshatAuHarem/etalo/CAM2_2017-11-25_0941_C0001.mov</property>
  <property name="global_feed">1</property>
  <property name="kdenlive:clipname">sniffed-eaten-mixed-jerked</property>
  <property name="xml">was here</property>
  <property name="meta.media.nb_streams">2</property>
  <property name="meta.media.0.stream.type">video</property>
  <property name="meta.media.0.stream.frame_rate">60</property>
  <property name="meta.media.0.stream.sample_aspect_ratio">1</property>
  <property name="meta.media.0.codec.width">1920</property>
  <property name="meta.media.0.codec.height">1080</property>
  <property name="meta.media.0.codec.rotate">0</property>
  <property name="meta.media.0.codec.frame_rate">15360</property>
  <property name="meta.media.0.codec.pix_fmt">yuv422p10le</property>
  <property name="meta.media.0.codec.sample_aspect_ratio">0</property>
  <property name="meta.media.0.codec.colorspace">709</property>
  <property name="meta.media.0.codec.color_trc">1</property>
  <property name="meta.media.0.codec.name">dnxhd</property>
  <property name="meta.media.0.codec.long_name">VC3/DNxHD</property>
  <property name="meta.media.0.codec.bit_rate">440401920</property>
  <property name="meta.attr.0.stream.language.markup">eng</property>
  <property name="meta.attr.0.stream.handler_name.markup">Core Media Data Handler</property>
  <property name="meta.attr.0.stream.timecode.markup">09:41:37:09</property>
  <property name="meta.attr.major_brand.markup">qt  </property>
  <property name="meta.attr.minor_version.markup">512</property>
  <property name="meta.attr.compatible_brands.markup">qt  </property>
  <property name="meta.attr.encoder.markup">Lavf57.25.100</property>
  <property name="meta.media.sample_aspect_num">1</property>
  <property name="meta.media.sample_aspect_den">1</property>
  <property name="meta.media.frame_rate_num">60</property>
  <property name="meta.media.frame_rate_den">1</property>
  <property name="meta.media.colorspace">709</property>
  <property name="meta.media.color_trc">1</property>
  <property name="meta.media.width">1920</property>
  <property name="meta.media.height">1080</property>
  <property name="meta.media.top_field_first">0</property>
  <property name="meta.media.progressive">1</property>
  <filter id="filter3">
   <property name="version">0,9</property>
   <property name="mlt_service">frei0r.sigmoidaltransfer</property>
   <property name="kdenlive_id">frei0r.sigmoidaltransfer</property>
   <property name="tag">frei0r.sigmoidaltransfer</property>
   <property name="kdenlive_ix">1</property>
   <property name="kdenlive_info"/>
   <property name="0">1</property>
   <property name="1">0,234</property>
   <property name="disable">0</property>
  </filter>
 </producer>
 <playlist id="playlist6">
  <property name="kdenlive:track_name">Video 4</property>
  <blank length="1758"/>
  <entry producer="8_playlist6" in="945" out="976">
   <filter id="filter17">
    <property name="mirror">flip</property>
    <property name="mlt_service">mirror</property>
    <property name="kdenlive_id">mirror</property>
    <property name="tag">mirror</property>
    <property name="kdenlive_ix">1</property>
    <property name="kdenlive_info"/>
    <property name="disable">0</property>
    <property name="reverse">0</property>
   </filter>
  </entry>
  <blank length="116"/>
  <entry producer="slowmotion:8:0,5:1:0" in="3005" out="3037">
   <filter id="frei0r.vertigo">
    <property name="version">1,1</property>
    <property name="mlt_service">frei0r.vertigo</property>
    <property name="kdenlive_id">frei0r.vertigo</property>
    <property name="tag">frei0r.vertigo</property>
    <property name="kdenlive_ix">2</property>
    <property name="PhaseIncrement">3005=0,02</property>
    <property name="Zoomrate">3005=0,202</property>
    <property name="kdenlive_info"/>
    <property name="disable"/>
   </filter>
  </entry>
  <blank length="5"/>
  <entry producer="slowmotion:8:0,5:1:0" in="3043" out="3044">
   <filter id="frei0r.rgbsplit0r">
    <property name="version">0,1</property>
    <property name="mlt_service">frei0r.rgbsplit0r</property>
    <property name="kdenlive_id">frei0r.rgbsplit0r</property>
    <property name="tag">frei0r.rgbsplit0r</property>
    <property name="kdenlive_ix">2</property>
    <property name="0">0</property>
    <property name="1">0,123</property>
    <property name="kdenlive_info"/>
   </filter>
  </entry>
  <blank length="25"/>
  <entry producer="8_playlist6" in="539" out="546"/>
  <entry producer="8_playlist6" in="1102" out="1109">
   <filter id="filter19">
    <property name="mirror">flip</property>
    <property name="mlt_service">mirror</property>
    <property name="kdenlive_id">mirror</property>
    <property name="tag">mirror</property>
    <property name="kdenlive_ix">1</property>
    <property name="kdenlive_info"/>
    <property name="disable">0</property>
    <property name="reverse">0</property>
   </filter>
  </entry>
  <entry producer="8_playlist6" in="821" out="830"/>
  <entry producer="8_playlist6" in="1346" out="1358">
   <filter id="filter20">
    <property name="mirror">flip</property>
    <property name="mlt_service">mirror</property>
    <property name="kdenlive_id">mirror</property>
    <property name="tag">mirror</property>
    <property name="kdenlive_ix">1</property>
    <property name="kdenlive_info"/>
    <property name="disable"/>
    <property name="reverse">0</property>
   </filter>
  </entry>
  <entry producer="8_playlist6" in="1359" out="1359">
   <filter id="filter21">
    <property name="mirror">flip</property>
    <property name="mlt_service">mirror</property>
    <property name="kdenlive_id">mirror</property>
    <property name="tag">mirror</property>
    <property name="kdenlive_ix">1</property>
    <property name="kdenlive_info"/>
    <property name="disable"/>
    <property name="reverse">0</property>
   </filter>
   <filter id="filter22">
    <property name="version">0,1</property>
    <property name="mlt_service">frei0r.rgbsplit0r</property>
    <property name="kdenlive_id">frei0r.rgbsplit0r</property>
    <property name="tag">frei0r.rgbsplit0r</property>
    <property name="kdenlive_ix">2</property>
    <property name="0">0</property>
    <property name="1">0,053</property>
    <property name="kdenlive_info"/>
   </filter>
   <filter id="filter4">
    <property name="version">0,3</property>
    <property name="mlt_service">frei0r.saturat0r</property>
    <property name="kdenlive_id">frei0r.saturat0r</property>
    <property name="tag">frei0r.saturat0r</property>
    <property name="kdenlive_ix">3</property>
    <property name="Saturation">1359=0,06</property>
    <property name="kdenlive_info"/>
    <property name="disable"/>
   </filter>
  </entry>
  <entry producer="8_playlist6" in="1360" out="1360">
   <filter id="filter24">
    <property name="mirror">flip</property>
    <property name="mlt_service">mirror</property>
    <property name="kdenlive_id">mirror</property>
    <property name="tag">mirror</property>
    <property name="kdenlive_ix">1</property>
    <property name="kdenlive_info"/>
    <property name="disable"/>
    <property name="reverse">0</property>
   </filter>
   <filter id="filter7">
    <property name="version">0,1</property>
    <property name="mlt_service">frei0r.rgbsplit0r</property>
    <property name="kdenlive_id">frei0r.rgbsplit0r</property>
    <property name="tag">frei0r.rgbsplit0r</property>
    <property name="kdenlive_ix">2</property>
    <property name="0">0,074</property>
    <property name="1">0,029</property>
    <property name="kdenlive_info"/>
    <property name="disable"/>
   </filter>
   <filter id="filter8">
    <property name="version">0,1</property>
    <property name="mlt_service">frei0r.glitch0r</property>
    <property name="kdenlive_id">frei0r.glitch0r</property>
    <property name="tag">frei0r.glitch0r</property>
    <property name="kdenlive_info"/>
    <property name="kdenlive_ix">3</property>
    <property name="disable"/>
    <property name="0">0,289</property>
    <property name="1">0,052</property>
    <property name="2">0,035</property>
    <property name="3">0</property>
   </filter>
   <filter id="filter9">
    <property name="version">0,3</property>
    <property name="mlt_service">frei0r.saturat0r</property>
    <property name="kdenlive_id">frei0r.saturat0r</property>
    <property name="tag">frei0r.saturat0r</property>
    <property name="kdenlive_info"/>
    <property name="kdenlive_ix">4</property>
    <property name="disable"/>
    <property name="Saturation">1360=0,08</property>
   </filter>
  </entry>
  <entry producer="8_playlist6" in="1361" out="1361">
   <filter id="filter29">
    <property name="mirror">flip</property>
    <property name="mlt_service">mirror</property>
    <property name="kdenlive_id">mirror</property>
    <property name="tag">mirror</property>
    <property name="kdenlive_ix">1</property>
    <property name="kdenlive_info"/>
    <property name="disable"/>
    <property name="reverse">0</property>
   </filter>
   <filter id="filter30">
    <property name="version">0,1</property>
    <property name="mlt_service">frei0r.rgbsplit0r</property>
    <property name="kdenlive_id">frei0r.rgbsplit0r</property>
    <property name="tag">frei0r.rgbsplit0r</property>
    <property name="kdenlive_ix">2</property>
    <property name="0">0</property>
    <property name="1">0,051</property>
    <property name="kdenlive_info"/>
    <property name="disable"/>
   </filter>
   <filter id="filter31">
    <property name="version">0,3</property>
    <property name="mlt_service">frei0r.saturat0r</property>
    <property name="kdenlive_id">frei0r.saturat0r</property>
    <property name="tag">frei0r.saturat0r</property>
    <property name="kdenlive_ix">3</property>
    <property name="Saturation">1361=0,388</property>
    <property name="kdenlive_info"/>
    <property name="disable"/>
   </filter>
   <filter id="filter10">
    <property name="version">0,1</property>
    <property name="mlt_service">frei0r.glitch0r</property>
    <property name="kdenlive_id">frei0r.glitch0r</property>
    <property name="tag">frei0r.glitch0r</property>
    <property name="kdenlive_ix">4</property>
    <property name="0">0,466</property>
    <property name="1">0,164</property>
    <property name="2">0,035</property>
    <property name="3">0</property>
    <property name="kdenlive_info"/>
    <property name="disable"/>
   </filter>
   <filter id="filter12">
    <property name="version">0,3</property>
    <property name="mlt_service">frei0r.saturat0r</property>
    <property name="kdenlive_id">frei0r.saturat0r</property>
    <property name="tag">frei0r.saturat0r</property>
    <property name="kdenlive_info"/>
    <property name="kdenlive_ix">5</property>
    <property name="disable"/>
    <property name="Saturation">1361=0,115</property>
   </filter>
  </entry>
  <blank length="236"/>
  <entry producer="10" in="1" out="1"/>
  <blank length="2"/>
  <entry producer="10" in="0" out="0"/>
  <blank length="2"/>
  <entry producer="10" in="0" out="0"/>
 </playlist>
 <producer title="Anonymous Submission" id="4_playlist9" in="0" out="2260">
  <property name="length">00:01:34:05</property>
  <property name="eof">pause</property>
  <property name="resource">/media/bordun/Odile/SnapshatAuHarem/etalo/CAM2_2017-11-25_0850_C0014.mov</property>
  <property name="audio_index">2</property>
  <property name="video_index">0</property>
  <property name="mute_on_pause">1</property>
  <property name="mlt_service">avformat-novalidate</property>
  <property name="seekable">1</property>
  <property name="aspect_ratio">1</property>
  <property name="kdenlive:file_size">2101898049</property>
  <property name="kdenlive:file_hash">f9107726803d489f8ec240dffe5f2a08</property>
  <property name="kdenlive:proxy">-</property>
  <property name="proxy_out">2260</property>
  <property name="kdenlive:originalurl">/home/bordun/Clip01_SnapshatAuHarem_assets/DimancheAprem/CAM2201711250738C0005/CAM2_2017-11-25_0850_C0014.mov</property>
  <property name="global_feed">1</property>
  <property name="kdenlive:meta.media.nb_streams">3</property>
  <property name="kdenlive:meta.media.1.stream.type">video</property>
  <property name="kdenlive:meta.media.1.stream.frame_rate">24</property>
  <property name="kdenlive:meta.media.1.stream.sample_aspect_ratio">1</property>
  <property name="kdenlive:meta.media.1.codec.width">1920</property>
  <property name="kdenlive:meta.media.1.codec.height">1080</property>
  <property name="kdenlive:meta.media.1.codec.rotate">0</property>
  <property name="kdenlive:meta.media.1.codec.frame_rate">2400</property>
  <property name="kdenlive:meta.media.1.codec.pix_fmt">yuv422p10le</property>
  <property name="kdenlive:meta.media.1.codec.sample_aspect_ratio">0</property>
  <property name="kdenlive:meta.media.1.codec.colorspace">709</property>
  <property name="kdenlive:meta.media.1.codec.color_trc">1</property>
  <property name="kdenlive:meta.media.1.codec.name">prores</property>
  <property name="kdenlive:meta.media.1.codec.long_name">ProRes</property>
  <property name="kdenlive:meta.media.1.codec.bit_rate">176138333</property>
  <property name="kdenlive:meta.attr.1.stream.creation_time.markup">2017-11-25T08:50:03.000000Z</property>
  <property name="kdenlive:meta.attr.1.stream.language.markup">eng</property>
  <property name="kdenlive:meta.attr.1.stream.handler_name.markup">Apple Alias Data Handler</property>
  <property name="kdenlive:meta.attr.1.stream.encoder.markup">Apple ProRes 422 HQ</property>
  <property name="kdenlive:meta.attr.1.stream.timecode.markup">08:50:03:05</property>
  <property name="kdenlive:meta.media.2.stream.type">audio</property>
  <property name="kdenlive:meta.media.2.codec.sample_fmt">s32</property>
  <property name="kdenlive:meta.media.2.codec.sample_rate">48000</property>
  <property name="kdenlive:meta.media.2.codec.channels">2</property>
  <property name="kdenlive:meta.media.2.codec.name">pcm_s24le</property>
  <property name="kdenlive:meta.media.2.codec.long_name">PCM signed 24-bit little-endian</property>
  <property name="kdenlive:meta.media.2.codec.bit_rate">2304000</property>
  <property name="kdenlive:meta.attr.2.stream.creation_time.markup">2017-11-25T08:50:03.000000Z</property>
  <property name="kdenlive:meta.attr.2.stream.language.markup">eng</property>
  <property name="kdenlive:meta.attr.2.stream.handler_name.markup">Apple Alias Data Handler</property>
  <property name="kdenlive:meta.attr.2.stream.timecode.markup">08:50:03:05</property>
  <property name="kdenlive:meta.attr.com.apple.proapps.manufacturer.markup">Blackmagic Design</property>
  <property name="kdenlive:meta.attr.com.apple.proapps.cameraName.markup">CAM2</property>
  <property name="kdenlive:meta.attr.com.apple.proapps.isGood.markup">0</property>
  <property name="kdenlive:meta.attr.com.apple.proapps.customgamma.markup">com.blackmagic-design.cinemacamera.filmlog</property>
  <property name="kdenlive:meta.attr.com.blackmagic-design.cinemacamera.uuid.markup">18E5E00548F94923B646613A73C01B56</property>
  <property name="kdenlive:meta.attr.creation_time.markup">2017-11-25T08:50:03.000000Z</property>
  <property name="kdenlive:meta.attr.timecode.markup">08:50:03:05</property>
  <property name="kdenlive:meta.media.sample_aspect_num">1</property>
  <property name="kdenlive:meta.media.sample_aspect_den">1</property>
  <property name="kdenlive:meta.media.frame_rate_num">24</property>
  <property name="kdenlive:meta.media.frame_rate_den">1</property>
  <property name="kdenlive:meta.media.colorspace">709</property>
  <property name="kdenlive:meta.media.color_trc">1</property>
  <property name="kdenlive:meta.media.width">1920</property>
  <property name="kdenlive:meta.media.height">1080</property>
  <property name="kdenlive:meta.media.top_field_first">0</property>
  <property name="kdenlive:meta.media.progressive">1</property>
  <property name="kdenlive:clipname">plan seq 3</property>
  <property name="xml">was here</property>
  <property name="meta.media.nb_streams">2</property>
  <property name="meta.media.1.stream.type">video</property>
  <property name="meta.media.1.stream.frame_rate">24</property>
  <property name="meta.media.1.stream.sample_aspect_ratio">1</property>
  <property name="meta.media.1.codec.width">1920</property>
  <property name="meta.media.1.codec.height">1080</property>
  <property name="meta.media.1.codec.rotate">0</property>
  <property name="meta.media.1.codec.frame_rate">2400</property>
  <property name="meta.media.1.codec.pix_fmt">yuv422p10le</property>
  <property name="meta.media.1.codec.sample_aspect_ratio">0</property>
  <property name="meta.media.1.codec.colorspace">709</property>
  <property name="meta.media.1.codec.color_trc">1</property>
  <property name="meta.media.1.codec.name">prores</property>
  <property name="meta.media.1.codec.long_name">ProRes</property>
  <property name="meta.media.1.codec.bit_rate">176138333</property>
  <property name="meta.attr.1.stream.creation_time.markup">2017-11-25T08:50:03.000000Z</property>
  <property name="meta.attr.1.stream.language.markup">eng</property>
  <property name="meta.attr.1.stream.handler_name.markup">Apple Alias Data Handler</property>
  <property name="meta.attr.1.stream.encoder.markup">Apple ProRes 422 HQ</property>
  <property name="meta.attr.1.stream.timecode.markup">08:50:03:05</property>
  <property name="meta.media.2.stream.type">audio</property>
  <property name="meta.media.2.codec.sample_fmt">s32</property>
  <property name="meta.media.2.codec.sample_rate">48000</property>
  <property name="meta.media.2.codec.channels">2</property>
  <property name="meta.media.2.codec.name">pcm_s24le</property>
  <property name="meta.media.2.codec.long_name">PCM signed 24-bit little-endian</property>
  <property name="meta.media.2.codec.bit_rate">2304000</property>
  <property name="meta.attr.2.stream.creation_time.markup">2017-11-25T08:50:03.000000Z</property>
  <property name="meta.attr.2.stream.language.markup">eng</property>
  <property name="meta.attr.2.stream.handler_name.markup">Apple Alias Data Handler</property>
  <property name="meta.attr.2.stream.timecode.markup">08:50:03:05</property>
  <property name="meta.attr.com.apple.proapps.manufacturer.markup">Blackmagic Design</property>
  <property name="meta.attr.com.apple.proapps.cameraName.markup">CAM2</property>
  <property name="meta.attr.com.apple.proapps.isGood.markup">0</property>
  <property name="meta.attr.com.apple.proapps.customgamma.markup">com.blackmagic-design.cinemacamera.filmlog</property>
  <property name="meta.attr.com.blackmagic-design.cinemacamera.uuid.markup">18E5E00548F94923B646613A73C01B56</property>
  <property name="meta.attr.creation_time.markup">2017-11-25T08:50:03.000000Z</property>
  <property name="meta.attr.timecode.markup">08:50:03:05</property>
  <property name="meta.media.sample_aspect_num">1</property>
  <property name="meta.media.sample_aspect_den">1</property>
  <property name="meta.media.frame_rate_num">24</property>
  <property name="meta.media.frame_rate_den">1</property>
  <property name="meta.media.colorspace">709</property>
  <property name="meta.media.color_trc">1</property>
  <property name="meta.media.width">1920</property>
  <property name="meta.media.height">1080</property>
  <property name="meta.media.top_field_first">0</property>
  <property name="meta.media.progressive">1</property>
  <property name="meta.media.0.stream.type">video</property>
  <property name="meta.media.0.stream.frame_rate">24</property>
  <property name="meta.media.0.stream.sample_aspect_ratio">1</property>
  <property name="meta.media.0.codec.width">1920</property>
  <property name="meta.media.0.codec.height">1080</property>
  <property name="meta.media.0.codec.rotate">0</property>
  <property name="meta.media.0.codec.frame_rate">12288</property>
  <property name="meta.media.0.codec.pix_fmt">yuv422p10le</property>
  <property name="meta.media.0.codec.sample_aspect_ratio">0</property>
  <property name="meta.media.0.codec.colorspace">709</property>
  <property name="meta.media.0.codec.color_trc">1</property>
  <property name="meta.media.0.codec.name">dnxhd</property>
  <property name="meta.media.0.codec.long_name">VC3/DNxHD</property>
  <property name="meta.media.0.codec.bit_rate">176160768</property>
  <property name="meta.attr.0.stream.language.markup">eng</property>
  <property name="meta.attr.0.stream.handler_name.markup">Core Media Data Handler</property>
  <property name="meta.attr.0.stream.timecode.markup">08:50:03:05</property>
  <property name="meta.attr.major_brand.markup">qt  </property>
  <property name="meta.attr.minor_version.markup">512</property>
  <property name="meta.attr.compatible_brands.markup">qt  </property>
  <property name="meta.attr.encoder.markup">Lavf57.25.100</property>
  <property name="force_colorspace"/>
 </producer>
 <producer title="Anonymous Submission" id="9_playlist9" in="0" out="9283">
  <property name="length">00:06:26:20</property>
  <property name="eof">pause</property>
  <property name="resource">/media/bordun/Odile/SnapshatAuHarem/etalo/CAM2_2017-11-25_0738_C0005.mov</property>
  <property name="audio_index">2</property>
  <property name="video_index">0</property>
  <property name="mute_on_pause">1</property>
  <property name="mlt_service">avformat-novalidate</property>
  <property name="seekable">1</property>
  <property name="aspect_ratio">1</property>
  <property name="kdenlive:file_size">8630671969</property>
  <property name="kdenlive:file_hash">e2d172a49e06df1febf831b67d6dc430</property>
  <property name="kdenlive:proxy">-</property>
  <property name="proxy_out">9283</property>
  <property name="kdenlive:originalurl">/home/bordun/Clip01_SnapshatAuHarem_assets/DimancheAprem/CAM2201711250738C0005/CAM2_2017-11-25_0738_C0005.mov</property>
  <property name="global_feed">1</property>
  <property name="kdenlive:meta.media.nb_streams">3</property>
  <property name="kdenlive:meta.media.1.stream.type">video</property>
  <property name="kdenlive:meta.media.1.stream.frame_rate">24</property>
  <property name="kdenlive:meta.media.1.stream.sample_aspect_ratio">1</property>
  <property name="kdenlive:meta.media.1.codec.width">1920</property>
  <property name="kdenlive:meta.media.1.codec.height">1080</property>
  <property name="kdenlive:meta.media.1.codec.rotate">0</property>
  <property name="kdenlive:meta.media.1.codec.frame_rate">2400</property>
  <property name="kdenlive:meta.media.1.codec.pix_fmt">yuv422p10le</property>
  <property name="kdenlive:meta.media.1.codec.sample_aspect_ratio">0</property>
  <property name="kdenlive:meta.media.1.codec.colorspace">709</property>
  <property name="kdenlive:meta.media.1.codec.color_trc">1</property>
  <property name="kdenlive:meta.media.1.codec.name">prores</property>
  <property name="kdenlive:meta.media.1.codec.long_name">ProRes</property>
  <property name="kdenlive:meta.media.1.codec.bit_rate">176140748</property>
  <property name="kdenlive:meta.attr.1.stream.creation_time.markup">2017-11-25T07:38:16.000000Z</property>
  <property name="kdenlive:meta.attr.1.stream.language.markup">eng</property>
  <property name="kdenlive:meta.attr.1.stream.handler_name.markup">Apple Alias Data Handler</property>
  <property name="kdenlive:meta.attr.1.stream.encoder.markup">Apple ProRes 422 HQ</property>
  <property name="kdenlive:meta.attr.1.stream.timecode.markup">07:38:16:19</property>
  <property name="kdenlive:meta.media.2.stream.type">audio</property>
  <property name="kdenlive:meta.media.2.codec.sample_fmt">s32</property>
  <property name="kdenlive:meta.media.2.codec.sample_rate">48000</property>
  <property name="kdenlive:meta.media.2.codec.channels">2</property>
  <property name="kdenlive:meta.media.2.codec.name">pcm_s24le</property>
  <property name="kdenlive:meta.media.2.codec.long_name">PCM signed 24-bit little-endian</property>
  <property name="kdenlive:meta.media.2.codec.bit_rate">2304000</property>
  <property name="kdenlive:meta.attr.2.stream.creation_time.markup">2017-11-25T07:38:16.000000Z</property>
  <property name="kdenlive:meta.attr.2.stream.language.markup">eng</property>
  <property name="kdenlive:meta.attr.2.stream.handler_name.markup">Apple Alias Data Handler</property>
  <property name="kdenlive:meta.attr.2.stream.timecode.markup">07:38:16:19</property>
  <property name="kdenlive:meta.attr.com.apple.proapps.manufacturer.markup">Blackmagic Design</property>
  <property name="kdenlive:meta.attr.com.apple.proapps.cameraName.markup">CAM2</property>
  <property name="kdenlive:meta.attr.com.apple.proapps.isGood.markup">0</property>
  <property name="kdenlive:meta.attr.com.apple.proapps.customgamma.markup">com.blackmagic-design.cinemacamera.filmlog</property>
  <property name="kdenlive:meta.attr.com.blackmagic-design.cinemacamera.uuid.markup">18E5E00548F94923B646613A73C01B56</property>
  <property name="kdenlive:meta.attr.creation_time.markup">2017-11-25T07:38:16.000000Z</property>
  <property name="kdenlive:meta.attr.timecode.markup">07:38:16:19</property>
  <property name="kdenlive:meta.media.sample_aspect_num">1</property>
  <property name="kdenlive:meta.media.sample_aspect_den">1</property>
  <property name="kdenlive:meta.media.frame_rate_num">24</property>
  <property name="kdenlive:meta.media.frame_rate_den">1</property>
  <property name="kdenlive:meta.media.colorspace">709</property>
  <property name="kdenlive:meta.media.color_trc">1</property>
  <property name="kdenlive:meta.media.width">1920</property>
  <property name="kdenlive:meta.media.height">1080</property>
  <property name="kdenlive:meta.media.top_field_first">0</property>
  <property name="kdenlive:meta.media.progressive">1</property>
  <property name="kdenlive:clipname">yoga</property>
  <property name="xml">was here</property>
  <property name="force_colorspace"/>
  <property name="meta.media.nb_streams">2</property>
  <property name="meta.media.0.stream.type">video</property>
  <property name="meta.media.0.stream.frame_rate">24</property>
  <property name="meta.media.0.stream.sample_aspect_ratio">1</property>
  <property name="meta.media.0.codec.width">1920</property>
  <property name="meta.media.0.codec.height">1080</property>
  <property name="meta.media.0.codec.rotate">0</property>
  <property name="meta.media.0.codec.frame_rate">12288</property>
  <property name="meta.media.0.codec.pix_fmt">yuv422p10le</property>
  <property name="meta.media.0.codec.sample_aspect_ratio">0</property>
  <property name="meta.media.0.codec.colorspace">709</property>
  <property name="meta.media.0.codec.color_trc">1</property>
  <property name="meta.media.0.codec.name">dnxhd</property>
  <property name="meta.media.0.codec.long_name">VC3/DNxHD</property>
  <property name="meta.media.0.codec.bit_rate">176160768</property>
  <property name="meta.attr.0.stream.language.markup">eng</property>
  <property name="meta.attr.0.stream.handler_name.markup">Core Media Data Handler</property>
  <property name="meta.attr.0.stream.timecode.markup">07:38:16:19</property>
  <property name="meta.attr.major_brand.markup">qt  </property>
  <property name="meta.attr.minor_version.markup">512</property>
  <property name="meta.attr.compatible_brands.markup">qt  </property>
  <property name="meta.attr.encoder.markup">Lavf57.25.100</property>
  <property name="meta.media.sample_aspect_num">1</property>
  <property name="meta.media.sample_aspect_den">1</property>
  <property name="meta.media.frame_rate_num">24</property>
  <property name="meta.media.frame_rate_den">1</property>
  <property name="meta.media.colorspace">709</property>
  <property name="meta.media.color_trc">1</property>
  <property name="meta.media.width">1920</property>
  <property name="meta.media.height">1080</property>
  <property name="meta.media.top_field_first">0</property>
  <property name="meta.media.progressive">1</property>
  <filter id="filter13">
   <property name="version">0,2</property>
   <property name="mlt_service">frei0r.coloradj_RGB</property>
   <property name="kdenlive_id">frei0r.coloradj_RGB</property>
   <property name="tag">frei0r.coloradj_RGB</property>
   <property name="kdenlive_ix">1</property>
   <property name="kdenlive_info"/>
   <property name="R">0=0,5</property>
   <property name="G">0=0,475</property>
   <property name="B">0=0,5</property>
   <property name="Action">0,5</property>
   <property name="Keep luma">1</property>
   <property name="Alpha controlled">0</property>
   <property name="Luma formula">1,0</property>
   <property name="disable">0</property>
  </filter>
  <filter id="filter14">
   <property name="version">0,3</property>
   <property name="mlt_service">frei0r.saturat0r</property>
   <property name="kdenlive_id">frei0r.saturat0r</property>
   <property name="tag">frei0r.saturat0r</property>
   <property name="kdenlive_ix">2</property>
   <property name="kdenlive_info"/>
   <property name="Saturation">0=0,09</property>
   <property name="disable">0</property>
  </filter>
  <filter id="filter15">
   <property name="version">0,3</property>
   <property name="mlt_service">frei0r.levels</property>
   <property name="kdenlive_id">frei0r.levels</property>
   <property name="tag">frei0r.levels</property>
   <property name="kdenlive_ix">3</property>
   <property name="kdenlive_info"/>
   <property name="Channel">0,3</property>
   <property name="Input black level">0=0</property>
   <property name="Input white level">0=1</property>
   <property name="Gamma">0=0,25</property>
   <property name="Black output">0=0</property>
   <property name="White output">0=1</property>
   <property name="Show histogram">0</property>
   <property name="Histogram position">0,3</property>
   <property name="disable">0</property>
  </filter>
 </producer>
 <producer title="Anonymous Submission" id="3_playlist9" in="0" out="2299">
  <property name="length">00:01:35:20</property>
  <property name="eof">pause</property>
  <property name="resource">/media/bordun/Odile/SnapshatAuHarem/etalo/CAM2_2017-11-25_0847_C0013.mov</property>
  <property name="audio_index">2</property>
  <property name="video_index">0</property>
  <property name="mute_on_pause">1</property>
  <property name="mlt_service">avformat-novalidate</property>
  <property name="seekable">1</property>
  <property name="aspect_ratio">1</property>
  <property name="kdenlive:file_size">2138152777</property>
  <property name="kdenlive:file_hash">a0a40ba05c1c0c852ecb5506561dec13</property>
  <property name="kdenlive:proxy">-</property>
  <property name="proxy_out">2299</property>
  <property name="kdenlive:originalurl">/home/bordun/Clip01_SnapshatAuHarem_assets/DimancheAprem/CAM2201711250738C0005/CAM2_2017-11-25_0847_C0013.mov</property>
  <property name="global_feed">1</property>
  <property name="kdenlive:meta.media.nb_streams">3</property>
  <property name="kdenlive:meta.media.1.stream.type">video</property>
  <property name="kdenlive:meta.media.1.stream.frame_rate">24</property>
  <property name="kdenlive:meta.media.1.stream.sample_aspect_ratio">1</property>
  <property name="kdenlive:meta.media.1.codec.width">1920</property>
  <property name="kdenlive:meta.media.1.codec.height">1080</property>
  <property name="kdenlive:meta.media.1.codec.rotate">0</property>
  <property name="kdenlive:meta.media.1.codec.frame_rate">2400</property>
  <property name="kdenlive:meta.media.1.codec.pix_fmt">yuv422p10le</property>
  <property name="kdenlive:meta.media.1.codec.sample_aspect_ratio">0</property>
  <property name="kdenlive:meta.media.1.codec.colorspace">709</property>
  <property name="kdenlive:meta.media.1.codec.color_trc">1</property>
  <property name="kdenlive:meta.media.1.codec.name">prores</property>
  <property name="kdenlive:meta.media.1.codec.long_name">ProRes</property>
  <property name="kdenlive:meta.media.1.codec.bit_rate">176138616</property>
  <property name="kdenlive:meta.attr.1.stream.creation_time.markup">2017-11-25T08:47:46.000000Z</property>
  <property name="kdenlive:meta.attr.1.stream.language.markup">eng</property>
  <property name="kdenlive:meta.attr.1.stream.handler_name.markup">Apple Alias Data Handler</property>
  <property name="kdenlive:meta.attr.1.stream.encoder.markup">Apple ProRes 422 HQ</property>
  <property name="kdenlive:meta.attr.1.stream.timecode.markup">08:47:46:22</property>
  <property name="kdenlive:meta.media.2.stream.type">audio</property>
  <property name="kdenlive:meta.media.2.codec.sample_fmt">s32</property>
  <property name="kdenlive:meta.media.2.codec.sample_rate">48000</property>
  <property name="kdenlive:meta.media.2.codec.channels">2</property>
  <property name="kdenlive:meta.media.2.codec.name">pcm_s24le</property>
  <property name="kdenlive:meta.media.2.codec.long_name">PCM signed 24-bit little-endian</property>
  <property name="kdenlive:meta.media.2.codec.bit_rate">2304000</property>
  <property name="kdenlive:meta.attr.2.stream.creation_time.markup">2017-11-25T08:47:46.000000Z</property>
  <property name="kdenlive:meta.attr.2.stream.language.markup">eng</property>
  <property name="kdenlive:meta.attr.2.stream.handler_name.markup">Apple Alias Data Handler</property>
  <property name="kdenlive:meta.attr.2.stream.timecode.markup">08:47:46:22</property>
  <property name="kdenlive:meta.attr.com.apple.proapps.manufacturer.markup">Blackmagic Design</property>
  <property name="kdenlive:meta.attr.com.apple.proapps.cameraName.markup">CAM2</property>
  <property name="kdenlive:meta.attr.com.apple.proapps.isGood.markup">0</property>
  <property name="kdenlive:meta.attr.com.apple.proapps.customgamma.markup">com.blackmagic-design.cinemacamera.filmlog</property>
  <property name="kdenlive:meta.attr.com.blackmagic-design.cinemacamera.uuid.markup">18E5E00548F94923B646613A73C01B56</property>
  <property name="kdenlive:meta.attr.creation_time.markup">2017-11-25T08:47:46.000000Z</property>
  <property name="kdenlive:meta.attr.timecode.markup">08:47:46:22</property>
  <property name="kdenlive:meta.media.sample_aspect_num">1</property>
  <property name="kdenlive:meta.media.sample_aspect_den">1</property>
  <property name="kdenlive:meta.media.frame_rate_num">24</property>
  <property name="kdenlive:meta.media.frame_rate_den">1</property>
  <property name="kdenlive:meta.media.colorspace">709</property>
  <property name="kdenlive:meta.media.color_trc">1</property>
  <property name="kdenlive:meta.media.width">1920</property>
  <property name="kdenlive:meta.media.height">1080</property>
  <property name="kdenlive:meta.media.top_field_first">0</property>
  <property name="kdenlive:meta.media.progressive">1</property>
  <property name="kdenlive:clipname">plan seq 2</property>
  <property name="xml">was here</property>
  <property name="meta.media.nb_streams">3</property>
  <property name="meta.media.1.stream.type">video</property>
  <property name="meta.media.1.stream.frame_rate">24</property>
  <property name="meta.media.1.stream.sample_aspect_ratio">1</property>
  <property name="meta.media.1.codec.width">1920</property>
  <property name="meta.media.1.codec.height">1080</property>
  <property name="meta.media.1.codec.rotate">0</property>
  <property name="meta.media.1.codec.frame_rate">2400</property>
  <property name="meta.media.1.codec.pix_fmt">yuv422p10le</property>
  <property name="meta.media.1.codec.sample_aspect_ratio">0</property>
  <property name="meta.media.1.codec.colorspace">709</property>
  <property name="meta.media.1.codec.color_trc">1</property>
  <property name="meta.media.1.codec.name">prores</property>
  <property name="meta.media.1.codec.long_name">ProRes</property>
  <property name="meta.media.1.codec.bit_rate">176138616</property>
  <property name="meta.attr.1.stream.creation_time.markup">2017-11-25T08:47:46.000000Z</property>
  <property name="meta.attr.1.stream.language.markup">eng</property>
  <property name="meta.attr.1.stream.handler_name.markup">Apple Alias Data Handler</property>
  <property name="meta.attr.1.stream.encoder.markup">Apple ProRes 422 HQ</property>
  <property name="meta.attr.1.stream.timecode.markup">08:47:46:22</property>
  <property name="meta.media.2.stream.type">audio</property>
  <property name="meta.media.2.codec.sample_fmt">s32</property>
  <property name="meta.media.2.codec.sample_rate">48000</property>
  <property name="meta.media.2.codec.channels">2</property>
  <property name="meta.media.2.codec.name">pcm_s24le</property>
  <property name="meta.media.2.codec.long_name">PCM signed 24-bit little-endian</property>
  <property name="meta.media.2.codec.bit_rate">2304000</property>
  <property name="meta.attr.2.stream.creation_time.markup">2017-11-25T08:47:46.000000Z</property>
  <property name="meta.attr.2.stream.language.markup">eng</property>
  <property name="meta.attr.2.stream.handler_name.markup">Apple Alias Data Handler</property>
  <property name="meta.attr.2.stream.timecode.markup">08:47:46:22</property>
  <property name="meta.attr.com.apple.proapps.manufacturer.markup">Blackmagic Design</property>
  <property name="meta.attr.com.apple.proapps.cameraName.markup">CAM2</property>
  <property name="meta.attr.com.apple.proapps.isGood.markup">0</property>
  <property name="meta.attr.com.apple.proapps.customgamma.markup">com.blackmagic-design.cinemacamera.filmlog</property>
  <property name="meta.attr.com.blackmagic-design.cinemacamera.uuid.markup">18E5E00548F94923B646613A73C01B56</property>
  <property name="meta.attr.creation_time.markup">2017-11-25T08:47:46.000000Z</property>
  <property name="meta.attr.timecode.markup">08:47:46:22</property>
  <property name="meta.media.sample_aspect_num">1</property>
  <property name="meta.media.sample_aspect_den">1</property>
  <property name="meta.media.frame_rate_num">24</property>
  <property name="meta.media.frame_rate_den">1</property>
  <property name="meta.media.colorspace">709</property>
  <property name="meta.media.color_trc">1</property>
  <property name="meta.media.width">1920</property>
  <property name="meta.media.height">1080</property>
  <property name="meta.media.top_field_first">0</property>
  <property name="meta.media.progressive">1</property>
  <property name="set.force_full_luma"/>
  <property name="force_colorspace"/>
 </producer>
 <playlist id="playlist9">
  <property name="kdenlive:track_name">Video 7</property>
  <blank length="1519"/>
  <entry producer="4_playlist9" in="382" out="406"/>
  <blank length="23"/>
  <entry producer="4_playlist9" in="431" out="533"/>
  <blank length="1"/>
  <entry producer="9_playlist9" in="8793" out="8802"/>
  <entry producer="9_playlist9" in="8837" out="8852"/>
  <entry producer="4_playlist9" in="560" out="605"/>
  <entry producer="4_playlist9" in="607" out="609">
   <filter id="frei0r.IIRblur">
    <property name="version">0,1</property>
    <property name="mlt_service">frei0r.IIRblur</property>
    <property name="kdenlive_id">frei0r.IIRblur</property>
    <property name="tag">frei0r.IIRblur</property>
    <property name="kdenlive_ix">1</property>
    <property name="Amount">607=0;609=0,25</property>
    <property name="Type">0.5</property>
    <property name="Edge">1</property>
    <property name="kdenlive_info"/>
    <property name="disable"/>
   </filter>
  </entry>
  <blank length="155"/>
  <entry producer="4_playlist9" in="772" out="785"/>
  <blank length="14353"/>
  <entry producer="3_playlist9" in="0" out="647"/>
  <entry producer="3_playlist9" in="648" out="1022"/>
  <entry producer="3_playlist9" in="1023" out="2299"/>
 </playlist>
 <producer title="Anonymous Submission" id="3_playlist12" in="0" out="2299">
  <property name="length">00:01:35:20</property>
  <property name="eof">pause</property>
  <property name="resource">/media/bordun/Odile/SnapshatAuHarem/etalo/CAM2_2017-11-25_0847_C0013.mov</property>
  <property name="audio_index">2</property>
  <property name="video_index">0</property>
  <property name="mute_on_pause">1</property>
  <property name="mlt_service">avformat-novalidate</property>
  <property name="seekable">1</property>
  <property name="aspect_ratio">1</property>
  <property name="kdenlive:file_size">2138152777</property>
  <property name="kdenlive:file_hash">a0a40ba05c1c0c852ecb5506561dec13</property>
  <property name="kdenlive:proxy">-</property>
  <property name="proxy_out">2299</property>
  <property name="kdenlive:originalurl">/home/bordun/Clip01_SnapshatAuHarem_assets/DimancheAprem/CAM2201711250738C0005/CAM2_2017-11-25_0847_C0013.mov</property>
  <property name="global_feed">1</property>
  <property name="kdenlive:meta.media.nb_streams">3</property>
  <property name="kdenlive:meta.media.1.stream.type">video</property>
  <property name="kdenlive:meta.media.1.stream.frame_rate">24</property>
  <property name="kdenlive:meta.media.1.stream.sample_aspect_ratio">1</property>
  <property name="kdenlive:meta.media.1.codec.width">1920</property>
  <property name="kdenlive:meta.media.1.codec.height">1080</property>
  <property name="kdenlive:meta.media.1.codec.rotate">0</property>
  <property name="kdenlive:meta.media.1.codec.frame_rate">2400</property>
  <property name="kdenlive:meta.media.1.codec.pix_fmt">yuv422p10le</property>
  <property name="kdenlive:meta.media.1.codec.sample_aspect_ratio">0</property>
  <property name="kdenlive:meta.media.1.codec.colorspace">709</property>
  <property name="kdenlive:meta.media.1.codec.color_trc">1</property>
  <property name="kdenlive:meta.media.1.codec.name">prores</property>
  <property name="kdenlive:meta.media.1.codec.long_name">ProRes</property>
  <property name="kdenlive:meta.media.1.codec.bit_rate">176138616</property>
  <property name="kdenlive:meta.attr.1.stream.creation_time.markup">2017-11-25T08:47:46.000000Z</property>
  <property name="kdenlive:meta.attr.1.stream.language.markup">eng</property>
  <property name="kdenlive:meta.attr.1.stream.handler_name.markup">Apple Alias Data Handler</property>
  <property name="kdenlive:meta.attr.1.stream.encoder.markup">Apple ProRes 422 HQ</property>
  <property name="kdenlive:meta.attr.1.stream.timecode.markup">08:47:46:22</property>
  <property name="kdenlive:meta.media.2.stream.type">audio</property>
  <property name="kdenlive:meta.media.2.codec.sample_fmt">s32</property>
  <property name="kdenlive:meta.media.2.codec.sample_rate">48000</property>
  <property name="kdenlive:meta.media.2.codec.channels">2</property>
  <property name="kdenlive:meta.media.2.codec.name">pcm_s24le</property>
  <property name="kdenlive:meta.media.2.codec.long_name">PCM signed 24-bit little-endian</property>
  <property name="kdenlive:meta.media.2.codec.bit_rate">2304000</property>
  <property name="kdenlive:meta.attr.2.stream.creation_time.markup">2017-11-25T08:47:46.000000Z</property>
  <property name="kdenlive:meta.attr.2.stream.language.markup">eng</property>
  <property name="kdenlive:meta.attr.2.stream.handler_name.markup">Apple Alias Data Handler</property>
  <property name="kdenlive:meta.attr.2.stream.timecode.markup">08:47:46:22</property>
  <property name="kdenlive:meta.attr.com.apple.proapps.manufacturer.markup">Blackmagic Design</property>
  <property name="kdenlive:meta.attr.com.apple.proapps.cameraName.markup">CAM2</property>
  <property name="kdenlive:meta.attr.com.apple.proapps.isGood.markup">0</property>
  <property name="kdenlive:meta.attr.com.apple.proapps.customgamma.markup">com.blackmagic-design.cinemacamera.filmlog</property>
  <property name="kdenlive:meta.attr.com.blackmagic-design.cinemacamera.uuid.markup">18E5E00548F94923B646613A73C01B56</property>
  <property name="kdenlive:meta.attr.creation_time.markup">2017-11-25T08:47:46.000000Z</property>
  <property name="kdenlive:meta.attr.timecode.markup">08:47:46:22</property>
  <property name="kdenlive:meta.media.sample_aspect_num">1</property>
  <property name="kdenlive:meta.media.sample_aspect_den">1</property>
  <property name="kdenlive:meta.media.frame_rate_num">24</property>
  <property name="kdenlive:meta.media.frame_rate_den">1</property>
  <property name="kdenlive:meta.media.colorspace">709</property>
  <property name="kdenlive:meta.media.color_trc">1</property>
  <property name="kdenlive:meta.media.width">1920</property>
  <property name="kdenlive:meta.media.height">1080</property>
  <property name="kdenlive:meta.media.top_field_first">0</property>
  <property name="kdenlive:meta.media.progressive">1</property>
  <property name="kdenlive:clipname">plan seq 2</property>
  <property name="xml">was here</property>
  <property name="meta.media.nb_streams">2</property>
  <property name="meta.media.1.stream.type">video</property>
  <property name="meta.media.1.stream.frame_rate">24</property>
  <property name="meta.media.1.stream.sample_aspect_ratio">1</property>
  <property name="meta.media.1.codec.width">1920</property>
  <property name="meta.media.1.codec.height">1080</property>
  <property name="meta.media.1.codec.rotate">0</property>
  <property name="meta.media.1.codec.frame_rate">2400</property>
  <property name="meta.media.1.codec.pix_fmt">yuv422p10le</property>
  <property name="meta.media.1.codec.sample_aspect_ratio">0</property>
  <property name="meta.media.1.codec.colorspace">709</property>
  <property name="meta.media.1.codec.color_trc">1</property>
  <property name="meta.media.1.codec.name">prores</property>
  <property name="meta.media.1.codec.long_name">ProRes</property>
  <property name="meta.media.1.codec.bit_rate">176138616</property>
  <property name="meta.attr.1.stream.creation_time.markup">2017-11-25T08:47:46.000000Z</property>
  <property name="meta.attr.1.stream.language.markup">eng</property>
  <property name="meta.attr.1.stream.handler_name.markup">Apple Alias Data Handler</property>
  <property name="meta.attr.1.stream.encoder.markup">Apple ProRes 422 HQ</property>
  <property name="meta.attr.1.stream.timecode.markup">08:47:46:22</property>
  <property name="meta.media.2.stream.type">audio</property>
  <property name="meta.media.2.codec.sample_fmt">s32</property>
  <property name="meta.media.2.codec.sample_rate">48000</property>
  <property name="meta.media.2.codec.channels">2</property>
  <property name="meta.media.2.codec.name">pcm_s24le</property>
  <property name="meta.media.2.codec.long_name">PCM signed 24-bit little-endian</property>
  <property name="meta.media.2.codec.bit_rate">2304000</property>
  <property name="meta.attr.2.stream.creation_time.markup">2017-11-25T08:47:46.000000Z</property>
  <property name="meta.attr.2.stream.language.markup">eng</property>
  <property name="meta.attr.2.stream.handler_name.markup">Apple Alias Data Handler</property>
  <property name="meta.attr.2.stream.timecode.markup">08:47:46:22</property>
  <property name="meta.attr.com.apple.proapps.manufacturer.markup">Blackmagic Design</property>
  <property name="meta.attr.com.apple.proapps.cameraName.markup">CAM2</property>
  <property name="meta.attr.com.apple.proapps.isGood.markup">0</property>
  <property name="meta.attr.com.apple.proapps.customgamma.markup">com.blackmagic-design.cinemacamera.filmlog</property>
  <property name="meta.attr.com.blackmagic-design.cinemacamera.uuid.markup">18E5E00548F94923B646613A73C01B56</property>
  <property name="meta.attr.creation_time.markup">2017-11-25T08:47:46.000000Z</property>
  <property name="meta.attr.timecode.markup">08:47:46:22</property>
  <property name="meta.media.sample_aspect_num">1</property>
  <property name="meta.media.sample_aspect_den">1</property>
  <property name="meta.media.frame_rate_num">24</property>
  <property name="meta.media.frame_rate_den">1</property>
  <property name="meta.media.colorspace">709</property>
  <property name="meta.media.color_trc">1</property>
  <property name="meta.media.width">1920</property>
  <property name="meta.media.height">1080</property>
  <property name="meta.media.top_field_first">0</property>
  <property name="meta.media.progressive">1</property>
  <property name="meta.media.0.stream.type">video</property>
  <property name="meta.media.0.stream.frame_rate">24</property>
  <property name="meta.media.0.stream.sample_aspect_ratio">1</property>
  <property name="meta.media.0.codec.width">1920</property>
  <property name="meta.media.0.codec.height">1080</property>
  <property name="meta.media.0.codec.rotate">0</property>
  <property name="meta.media.0.codec.frame_rate">12288</property>
  <property name="meta.media.0.codec.pix_fmt">yuv422p10le</property>
  <property name="meta.media.0.codec.sample_aspect_ratio">0</property>
  <property name="meta.media.0.codec.colorspace">709</property>
  <property name="meta.media.0.codec.color_trc">1</property>
  <property name="meta.media.0.codec.name">dnxhd</property>
  <property name="meta.media.0.codec.long_name">VC3/DNxHD</property>
  <property name="meta.media.0.codec.bit_rate">176160768</property>
  <property name="meta.attr.0.stream.language.markup">eng</property>
  <property name="meta.attr.0.stream.handler_name.markup">Core Media Data Handler</property>
  <property name="meta.attr.0.stream.timecode.markup">08:47:46:22</property>
  <property name="meta.attr.major_brand.markup">qt  </property>
  <property name="meta.attr.minor_version.markup">512</property>
  <property name="meta.attr.compatible_brands.markup">qt  </property>
  <property name="meta.attr.encoder.markup">Lavf57.25.100</property>
  <property name="set.force_full_luma"/>
  <property name="force_colorspace"/>
 </producer>
 <producer id="slowmotion:4:1,9:1:0" in="0" out="1189">
  <property name="length">1190</property>
  <property name="eof">pause</property>
  <property name="resource">1,9:/media/bordun/Odile/SnapshatAuHarem/etalo/CAM2_2017-11-25_0850_C0014.mov</property>
  <property name="aspect_ratio">1</property>
  <property name="meta.media.nb_streams">2</property>
  <property name="meta.media.0.stream.type">video</property>
  <property name="meta.media.0.stream.frame_rate">24</property>
  <property name="meta.media.0.stream.sample_aspect_ratio">1</property>
  <property name="meta.media.0.codec.width">1920</property>
  <property name="meta.media.0.codec.height">1080</property>
  <property name="meta.media.0.codec.rotate">0</property>
  <property name="meta.media.0.codec.frame_rate">12288</property>
  <property name="meta.media.0.codec.pix_fmt">yuv422p10le</property>
  <property name="meta.media.0.codec.sample_aspect_ratio">0</property>
  <property name="meta.media.0.codec.colorspace">709</property>
  <property name="meta.media.0.codec.color_trc">1</property>
  <property name="meta.media.0.codec.name">dnxhd</property>
  <property name="meta.media.0.codec.long_name">VC3/DNxHD</property>
  <property name="meta.media.0.codec.bit_rate">176160768</property>
  <property name="meta.attr.0.stream.language.markup">eng</property>
  <property name="meta.attr.0.stream.handler_name.markup">Core Media Data Handler</property>
  <property name="meta.attr.0.stream.timecode.markup">08:50:03:05</property>
  <property name="meta.attr.major_brand.markup">qt  </property>
  <property name="meta.attr.minor_version.markup">512</property>
  <property name="meta.attr.compatible_brands.markup">qt  </property>
  <property name="meta.attr.encoder.markup">Lavf57.25.100</property>
  <property name="seekable">1</property>
  <property name="meta.media.sample_aspect_num">1</property>
  <property name="meta.media.sample_aspect_den">1</property>
  <property name="audio_index">2</property>
  <property name="video_index">0</property>
  <property name="mute_on_pause">1</property>
  <property name="warp_speed">1,9</property>
  <property name="warp_resource">/media/bordun/Odile/SnapshatAuHarem/etalo/CAM2_2017-11-25_0850_C0014.mov</property>
  <property name="mlt_service">timewarp</property>
  <property name="meta.media.1.stream.type">video</property>
  <property name="meta.media.1.stream.frame_rate">24</property>
  <property name="meta.media.1.stream.sample_aspect_ratio">1</property>
  <property name="meta.media.1.codec.width">1920</property>
  <property name="meta.media.1.codec.height">1080</property>
  <property name="meta.media.1.codec.rotate">0</property>
  <property name="meta.media.1.codec.frame_rate">2400</property>
  <property name="meta.media.1.codec.pix_fmt">yuv422p10le</property>
  <property name="meta.media.1.codec.sample_aspect_ratio">0</property>
  <property name="meta.media.1.codec.colorspace">709</property>
  <property name="meta.media.1.codec.color_trc">1</property>
  <property name="meta.media.1.codec.name">prores</property>
  <property name="meta.media.1.codec.long_name">ProRes</property>
  <property name="meta.media.1.codec.bit_rate">176138333</property>
  <property name="meta.attr.1.stream.creation_time.markup">2017-11-25T08:50:03.000000Z</property>
  <property name="meta.attr.1.stream.language.markup">eng</property>
  <property name="meta.attr.1.stream.handler_name.markup">Apple Alias Data Handler</property>
  <property name="meta.attr.1.stream.encoder.markup">Apple ProRes 422 HQ</property>
  <property name="meta.attr.1.stream.timecode.markup">08:50:03:05</property>
  <property name="meta.media.2.stream.type">audio</property>
  <property name="meta.media.2.codec.sample_fmt">s32</property>
  <property name="meta.media.2.codec.sample_rate">48000</property>
  <property name="meta.media.2.codec.channels">2</property>
  <property name="meta.media.2.codec.name">pcm_s24le</property>
  <property name="meta.media.2.codec.long_name">PCM signed 24-bit little-endian</property>
  <property name="meta.media.2.codec.bit_rate">2304000</property>
  <property name="meta.attr.2.stream.creation_time.markup">2017-11-25T08:50:03.000000Z</property>
  <property name="meta.attr.2.stream.language.markup">eng</property>
  <property name="meta.attr.2.stream.handler_name.markup">Apple Alias Data Handler</property>
  <property name="meta.attr.2.stream.timecode.markup">08:50:03:05</property>
  <property name="meta.attr.com.apple.proapps.manufacturer.markup">Blackmagic Design</property>
  <property name="meta.attr.com.apple.proapps.cameraName.markup">CAM2</property>
  <property name="meta.attr.com.apple.proapps.isGood.markup">0</property>
  <property name="meta.attr.com.apple.proapps.customgamma.markup">com.blackmagic-design.cinemacamera.filmlog</property>
  <property name="meta.attr.com.blackmagic-design.cinemacamera.uuid.markup">18E5E00548F94923B646613A73C01B56</property>
  <property name="meta.attr.creation_time.markup">2017-11-25T08:50:03.000000Z</property>
  <property name="meta.attr.timecode.markup">08:50:03:05</property>
  <property name="kdenlive:proxy">-</property>
  <property name="kdenlive:originalurl">/home/bordun/Clip01_SnapshatAuHarem_assets/DimancheAprem/CAM2201711250738C0005/CAM2_2017-11-25_0850_C0014.mov</property>
  <property name="meta.media.frame_rate_num">24</property>
  <property name="meta.media.frame_rate_den">1</property>
  <property name="meta.media.colorspace">709</property>
  <property name="meta.media.color_trc">1</property>
  <property name="meta.media.width">1920</property>
  <property name="meta.media.height">1080</property>
  <property name="meta.media.top_field_first">0</property>
  <property name="meta.media.progressive">1</property>
  <property name="force_colorspace"/>
 </producer>
 <producer id="slowmotion:4:0,7:1:0" in="0" out="3229">
  <property name="length">3230</property>
  <property name="eof">pause</property>
  <property name="resource">0,7:/media/bordun/Odile/SnapshatAuHarem/etalo/CAM2_2017-11-25_0850_C0014.mov</property>
  <property name="aspect_ratio">1</property>
  <property name="meta.media.nb_streams">2</property>
  <property name="meta.media.0.stream.type">video</property>
  <property name="meta.media.0.stream.frame_rate">24</property>
  <property name="meta.media.0.stream.sample_aspect_ratio">1</property>
  <property name="meta.media.0.codec.width">1920</property>
  <property name="meta.media.0.codec.height">1080</property>
  <property name="meta.media.0.codec.rotate">0</property>
  <property name="meta.media.0.codec.frame_rate">12288</property>
  <property name="meta.media.0.codec.pix_fmt">yuv422p10le</property>
  <property name="meta.media.0.codec.sample_aspect_ratio">0</property>
  <property name="meta.media.0.codec.colorspace">709</property>
  <property name="meta.media.0.codec.color_trc">1</property>
  <property name="meta.media.0.codec.name">dnxhd</property>
  <property name="meta.media.0.codec.long_name">VC3/DNxHD</property>
  <property name="meta.media.0.codec.bit_rate">176160768</property>
  <property name="meta.attr.0.stream.language.markup">eng</property>
  <property name="meta.attr.0.stream.handler_name.markup">Core Media Data Handler</property>
  <property name="meta.attr.0.stream.timecode.markup">08:50:03:05</property>
  <property name="meta.attr.major_brand.markup">qt  </property>
  <property name="meta.attr.minor_version.markup">512</property>
  <property name="meta.attr.compatible_brands.markup">qt  </property>
  <property name="meta.attr.encoder.markup">Lavf57.25.100</property>
  <property name="seekable">1</property>
  <property name="meta.media.sample_aspect_num">1</property>
  <property name="meta.media.sample_aspect_den">1</property>
  <property name="audio_index">2</property>
  <property name="video_index">0</property>
  <property name="mute_on_pause">1</property>
  <property name="warp_speed">0,7</property>
  <property name="warp_resource">/media/bordun/Odile/SnapshatAuHarem/etalo/CAM2_2017-11-25_0850_C0014.mov</property>
  <property name="mlt_service">timewarp</property>
  <property name="meta.media.1.stream.type">video</property>
  <property name="meta.media.1.stream.frame_rate">24</property>
  <property name="meta.media.1.stream.sample_aspect_ratio">1</property>
  <property name="meta.media.1.codec.width">1920</property>
  <property name="meta.media.1.codec.height">1080</property>
  <property name="meta.media.1.codec.rotate">0</property>
  <property name="meta.media.1.codec.frame_rate">2400</property>
  <property name="meta.media.1.codec.pix_fmt">yuv422p10le</property>
  <property name="meta.media.1.codec.sample_aspect_ratio">0</property>
  <property name="meta.media.1.codec.colorspace">709</property>
  <property name="meta.media.1.codec.color_trc">1</property>
  <property name="meta.media.1.codec.name">prores</property>
  <property name="meta.media.1.codec.long_name">ProRes</property>
  <property name="meta.media.1.codec.bit_rate">176138333</property>
  <property name="meta.attr.1.stream.creation_time.markup">2017-11-25T08:50:03.000000Z</property>
  <property name="meta.attr.1.stream.language.markup">eng</property>
  <property name="meta.attr.1.stream.handler_name.markup">Apple Alias Data Handler</property>
  <property name="meta.attr.1.stream.encoder.markup">Apple ProRes 422 HQ</property>
  <property name="meta.attr.1.stream.timecode.markup">08:50:03:05</property>
  <property name="meta.media.2.stream.type">audio</property>
  <property name="meta.media.2.codec.sample_fmt">s32</property>
  <property name="meta.media.2.codec.sample_rate">48000</property>
  <property name="meta.media.2.codec.channels">2</property>
  <property name="meta.media.2.codec.name">pcm_s24le</property>
  <property name="meta.media.2.codec.long_name">PCM signed 24-bit little-endian</property>
  <property name="meta.media.2.codec.bit_rate">2304000</property>
  <property name="meta.attr.2.stream.creation_time.markup">2017-11-25T08:50:03.000000Z</property>
  <property name="meta.attr.2.stream.language.markup">eng</property>
  <property name="meta.attr.2.stream.handler_name.markup">Apple Alias Data Handler</property>
  <property name="meta.attr.2.stream.timecode.markup">08:50:03:05</property>
  <property name="meta.attr.com.apple.proapps.manufacturer.markup">Blackmagic Design</property>
  <property name="meta.attr.com.apple.proapps.cameraName.markup">CAM2</property>
  <property name="meta.attr.com.apple.proapps.isGood.markup">0</property>
  <property name="meta.attr.com.apple.proapps.customgamma.markup">com.blackmagic-design.cinemacamera.filmlog</property>
  <property name="meta.attr.com.blackmagic-design.cinemacamera.uuid.markup">18E5E00548F94923B646613A73C01B56</property>
  <property name="meta.attr.creation_time.markup">2017-11-25T08:50:03.000000Z</property>
  <property name="meta.attr.timecode.markup">08:50:03:05</property>
  <property name="kdenlive:proxy">-</property>
  <property name="kdenlive:originalurl">/home/bordun/Clip01_SnapshatAuHarem_assets/DimancheAprem/CAM2201711250738C0005/CAM2_2017-11-25_0850_C0014.mov</property>
  <property name="meta.media.frame_rate_num">24</property>
  <property name="meta.media.frame_rate_den">1</property>
  <property name="meta.media.colorspace">709</property>
  <property name="meta.media.color_trc">1</property>
  <property name="meta.media.width">1920</property>
  <property name="meta.media.height">1080</property>
  <property name="meta.media.top_field_first">0</property>
  <property name="meta.media.progressive">1</property>
  <property name="force_colorspace"/>
 </producer>
 <producer title="Anonymous Submission" id="9_playlist12" in="0" out="9283">
  <property name="length">00:06:26:20</property>
  <property name="eof">pause</property>
  <property name="resource">/media/bordun/Odile/SnapshatAuHarem/etalo/CAM2_2017-11-25_0738_C0005.mov</property>
  <property name="audio_index">2</property>
  <property name="video_index">0</property>
  <property name="mute_on_pause">1</property>
  <property name="mlt_service">avformat-novalidate</property>
  <property name="seekable">1</property>
  <property name="aspect_ratio">1</property>
  <property name="kdenlive:file_size">8630671969</property>
  <property name="kdenlive:file_hash">e2d172a49e06df1febf831b67d6dc430</property>
  <property name="kdenlive:proxy">-</property>
  <property name="proxy_out">9283</property>
  <property name="kdenlive:originalurl">/home/bordun/Clip01_SnapshatAuHarem_assets/DimancheAprem/CAM2201711250738C0005/CAM2_2017-11-25_0738_C0005.mov</property>
  <property name="global_feed">1</property>
  <property name="kdenlive:meta.media.nb_streams">3</property>
  <property name="kdenlive:meta.media.1.stream.type">video</property>
  <property name="kdenlive:meta.media.1.stream.frame_rate">24</property>
  <property name="kdenlive:meta.media.1.stream.sample_aspect_ratio">1</property>
  <property name="kdenlive:meta.media.1.codec.width">1920</property>
  <property name="kdenlive:meta.media.1.codec.height">1080</property>
  <property name="kdenlive:meta.media.1.codec.rotate">0</property>
  <property name="kdenlive:meta.media.1.codec.frame_rate">2400</property>
  <property name="kdenlive:meta.media.1.codec.pix_fmt">yuv422p10le</property>
  <property name="kdenlive:meta.media.1.codec.sample_aspect_ratio">0</property>
  <property name="kdenlive:meta.media.1.codec.colorspace">709</property>
  <property name="kdenlive:meta.media.1.codec.color_trc">1</property>
  <property name="kdenlive:meta.media.1.codec.name">prores</property>
  <property name="kdenlive:meta.media.1.codec.long_name">ProRes</property>
  <property name="kdenlive:meta.media.1.codec.bit_rate">176140748</property>
  <property name="kdenlive:meta.attr.1.stream.creation_time.markup">2017-11-25T07:38:16.000000Z</property>
  <property name="kdenlive:meta.attr.1.stream.language.markup">eng</property>
  <property name="kdenlive:meta.attr.1.stream.handler_name.markup">Apple Alias Data Handler</property>
  <property name="kdenlive:meta.attr.1.stream.encoder.markup">Apple ProRes 422 HQ</property>
  <property name="kdenlive:meta.attr.1.stream.timecode.markup">07:38:16:19</property>
  <property name="kdenlive:meta.media.2.stream.type">audio</property>
  <property name="kdenlive:meta.media.2.codec.sample_fmt">s32</property>
  <property name="kdenlive:meta.media.2.codec.sample_rate">48000</property>
  <property name="kdenlive:meta.media.2.codec.channels">2</property>
  <property name="kdenlive:meta.media.2.codec.name">pcm_s24le</property>
  <property name="kdenlive:meta.media.2.codec.long_name">PCM signed 24-bit little-endian</property>
  <property name="kdenlive:meta.media.2.codec.bit_rate">2304000</property>
  <property name="kdenlive:meta.attr.2.stream.creation_time.markup">2017-11-25T07:38:16.000000Z</property>
  <property name="kdenlive:meta.attr.2.stream.language.markup">eng</property>
  <property name="kdenlive:meta.attr.2.stream.handler_name.markup">Apple Alias Data Handler</property>
  <property name="kdenlive:meta.attr.2.stream.timecode.markup">07:38:16:19</property>
  <property name="kdenlive:meta.attr.com.apple.proapps.manufacturer.markup">Blackmagic Design</property>
  <property name="kdenlive:meta.attr.com.apple.proapps.cameraName.markup">CAM2</property>
  <property name="kdenlive:meta.attr.com.apple.proapps.isGood.markup">0</property>
  <property name="kdenlive:meta.attr.com.apple.proapps.customgamma.markup">com.blackmagic-design.cinemacamera.filmlog</property>
  <property name="kdenlive:meta.attr.com.blackmagic-design.cinemacamera.uuid.markup">18E5E00548F94923B646613A73C01B56</property>
  <property name="kdenlive:meta.attr.creation_time.markup">2017-11-25T07:38:16.000000Z</property>
  <property name="kdenlive:meta.attr.timecode.markup">07:38:16:19</property>
  <property name="kdenlive:meta.media.sample_aspect_num">1</property>
  <property name="kdenlive:meta.media.sample_aspect_den">1</property>
  <property name="kdenlive:meta.media.frame_rate_num">24</property>
  <property name="kdenlive:meta.media.frame_rate_den">1</property>
  <property name="kdenlive:meta.media.colorspace">709</property>
  <property name="kdenlive:meta.media.color_trc">1</property>
  <property name="kdenlive:meta.media.width">1920</property>
  <property name="kdenlive:meta.media.height">1080</property>
  <property name="kdenlive:meta.media.top_field_first">0</property>
  <property name="kdenlive:meta.media.progressive">1</property>
  <property name="kdenlive:clipname">yoga</property>
  <property name="xml">was here</property>
  <property name="force_colorspace"/>
  <property name="meta.media.nb_streams">2</property>
  <property name="meta.media.0.stream.type">video</property>
  <property name="meta.media.0.stream.frame_rate">24</property>
  <property name="meta.media.0.stream.sample_aspect_ratio">1</property>
  <property name="meta.media.0.codec.width">1920</property>
  <property name="meta.media.0.codec.height">1080</property>
  <property name="meta.media.0.codec.rotate">0</property>
  <property name="meta.media.0.codec.frame_rate">12288</property>
  <property name="meta.media.0.codec.pix_fmt">yuv422p10le</property>
  <property name="meta.media.0.codec.sample_aspect_ratio">0</property>
  <property name="meta.media.0.codec.colorspace">709</property>
  <property name="meta.media.0.codec.color_trc">1</property>
  <property name="meta.media.0.codec.name">dnxhd</property>
  <property name="meta.media.0.codec.long_name">VC3/DNxHD</property>
  <property name="meta.media.0.codec.bit_rate">176160768</property>
  <property name="meta.attr.0.stream.language.markup">eng</property>
  <property name="meta.attr.0.stream.handler_name.markup">Core Media Data Handler</property>
  <property name="meta.attr.0.stream.timecode.markup">07:38:16:19</property>
  <property name="meta.attr.major_brand.markup">qt  </property>
  <property name="meta.attr.minor_version.markup">512</property>
  <property name="meta.attr.compatible_brands.markup">qt  </property>
  <property name="meta.attr.encoder.markup">Lavf57.25.100</property>
  <property name="meta.media.sample_aspect_num">1</property>
  <property name="meta.media.sample_aspect_den">1</property>
  <property name="meta.media.frame_rate_num">24</property>
  <property name="meta.media.frame_rate_den">1</property>
  <property name="meta.media.colorspace">709</property>
  <property name="meta.media.color_trc">1</property>
  <property name="meta.media.width">1920</property>
  <property name="meta.media.height">1080</property>
  <property name="meta.media.top_field_first">0</property>
  <property name="meta.media.progressive">1</property>
  <filter id="filter16">
   <property name="version">0,2</property>
   <property name="mlt_service">frei0r.coloradj_RGB</property>
   <property name="kdenlive_id">frei0r.coloradj_RGB</property>
   <property name="tag">frei0r.coloradj_RGB</property>
   <property name="kdenlive_ix">1</property>
   <property name="kdenlive_info"/>
   <property name="R">0=0,5</property>
   <property name="G">0=0,475</property>
   <property name="B">0=0,5</property>
   <property name="Action">0,5</property>
   <property name="Keep luma">1</property>
   <property name="Alpha controlled">0</property>
   <property name="Luma formula">1,0</property>
   <property name="disable">0</property>
  </filter>
  <filter id="filter18">
   <property name="version">0,3</property>
   <property name="mlt_service">frei0r.saturat0r</property>
   <property name="kdenlive_id">frei0r.saturat0r</property>
   <property name="tag">frei0r.saturat0r</property>
   <property name="kdenlive_ix">2</property>
   <property name="kdenlive_info"/>
   <property name="Saturation">0=0,09</property>
   <property name="disable">0</property>
  </filter>
  <filter id="filter23">
   <property name="version">0,3</property>
   <property name="mlt_service">frei0r.levels</property>
   <property name="kdenlive_id">frei0r.levels</property>
   <property name="tag">frei0r.levels</property>
   <property name="kdenlive_ix">3</property>
   <property name="kdenlive_info"/>
   <property name="Channel">0,3</property>
   <property name="Input black level">0=0</property>
   <property name="Input white level">0=1</property>
   <property name="Gamma">0=0,25</property>
   <property name="Black output">0=0</property>
   <property name="White output">0=1</property>
   <property name="Show histogram">0</property>
   <property name="Histogram position">0,3</property>
   <property name="disable">0</property>
  </filter>
 </producer>
 <playlist id="playlist12">
  <property name="kdenlive:track_name">Vidéo 1</property>
  <blank length="1436"/>
  <entry producer="3_playlist12" in="511" out="593">
   <filter id="filter42" in="511" out="593">
    <property name="background">colour:0x00000000</property>
    <property name="mlt_service">affine</property>
    <property name="kdenlive_id">pan_zoom</property>
    <property name="tag">affine</property>
    <property name="kdenlive_ix">1</property>
    <property name="transition.geometry">0=-144/-81:2208x1242:100;62=-144/-81:2208x1242:100;65=-144/-81:2208x1242:100;67=0/0:1920x1080:100;69=-144/-81:2208x1242:100;70=-144/-81:2208x1242:100;78=-48/-27:2016x1134:100</property>
    <property name="transition.distort">0</property>
    <property name="kdenlive:sync_in_out">1</property>
    <property name="kdenlive_info"/>
    <property name="disable"/>
   </filter>
  </entry>
  <blank length="25"/>
  <entry producer="slowmotion:4:1,9:1:0" in="215" out="220"/>
  <entry producer="slowmotion:4:0,7:1:0" in="597" out="613"/>
  <blank length="103"/>
  <entry producer="9_playlist12" in="8787" out="8787"/>
  <blank length="11"/>
  <entry producer="9_playlist12" in="8808" out="8808"/>
  <blank length="1"/>
  <entry producer="9_playlist12" in="8810" out="8810"/>
 </playlist>
 <playlist id="playlist0">
  <property name="kdenlive:track_name">noir</property>
  <blank length="1436"/>
  <entry producer="6" in="0" out="61"/>
 </playlist>
 <tractor title="Anonymous Submission" id="maintractor" global_feed="1" in="0" out="18568">
  <track producer="black_track"/>
  <track hide="video" producer="playlist1"/>
  <track hide="video" producer="playlist2"/>
  <track hide="audio" producer="playlist3"/>
  <track hide="audio" producer="playlist10"/>
  <track hide="audio" producer="playlist7"/>
  <track hide="audio" producer="playlist4"/>
  <track hide="audio" producer="playlist5"/>
  <track hide="audio" producer="playlist8"/>
  <track hide="audio" producer="playlist6"/>
  <track hide="audio" producer="playlist9"/>
  <track hide="audio" producer="playlist12"/>
  <track hide="audio" producer="playlist0"/>
  <transition id="transition0">
   <property name="a_track">0</property>
   <property name="b_track">1</property>
   <property name="mlt_service">mix</property>
   <property name="always_active">1</property>
   <property name="sum">1</property>
   <property name="internal_added">237</property>
  </transition>
  <transition id="transition1">
   <property name="a_track">0</property>
   <property name="b_track">2</property>
   <property name="mlt_service">mix</property>
   <property name="always_active">1</property>
   <property name="sum">1</property>
   <property name="internal_added">237</property>
  </transition>
  <transition id="transition2">
   <property name="a_track">0</property>
   <property name="b_track">3</property>
   <property name="mlt_service">mix</property>
   <property name="always_active">1</property>
   <property name="sum">1</property>
   <property name="internal_added">237</property>
  </transition>
  <transition id="transition3">
   <property name="a_track">0</property>
   <property name="b_track">4</property>
   <property name="mlt_service">mix</property>
   <property name="always_active">1</property>
   <property name="sum">1</property>
   <property name="internal_added">237</property>
  </transition>
  <transition id="transition4">
   <property name="a_track">0</property>
   <property name="b_track">5</property>
   <property name="mlt_service">mix</property>
   <property name="always_active">1</property>
   <property name="sum">1</property>
   <property name="internal_added">237</property>
  </transition>
  <transition id="transition5">
   <property name="a_track">0</property>
   <property name="b_track">6</property>
   <property name="mlt_service">mix</property>
   <property name="always_active">1</property>
   <property name="sum">1</property>
   <property name="internal_added">237</property>
  </transition>
  <transition id="transition6">
   <property name="a_track">0</property>
   <property name="b_track">7</property>
   <property name="mlt_service">mix</property>
   <property name="always_active">1</property>
   <property name="sum">1</property>
   <property name="internal_added">237</property>
  </transition>
  <transition id="transition7">
   <property name="a_track">0</property>
   <property name="b_track">8</property>
   <property name="mlt_service">mix</property>
   <property name="always_active">1</property>
   <property name="sum">1</property>
   <property name="internal_added">237</property>
  </transition>
  <transition id="transition8">
   <property name="a_track">0</property>
   <property name="b_track">9</property>
   <property name="mlt_service">mix</property>
   <property name="always_active">1</property>
   <property name="sum">1</property>
   <property name="internal_added">237</property>
  </transition>
  <transition id="transition9">
   <property name="a_track">0</property>
   <property name="b_track">10</property>
   <property name="mlt_service">mix</property>
   <property name="always_active">1</property>
   <property name="sum">1</property>
   <property name="internal_added">237</property>
  </transition>
  <transition id="transition10">
   <property name="a_track">0</property>
   <property name="b_track">11</property>
   <property name="mlt_service">mix</property>
   <property name="always_active">1</property>
   <property name="sum">1</property>
   <property name="internal_added">237</property>
  </transition>
  <transition id="transition11">
   <property name="a_track">0</property>
   <property name="b_track">12</property>
   <property name="mlt_service">mix</property>
   <property name="always_active">1</property>
   <property name="sum">1</property>
   <property name="internal_added">237</property>
  </transition>
  <transition id="transition12" in="1915" out="1938">
   <property name="a_track">8</property>
   <property name="b_track">9</property>
   <property name="start">0/0:100%x100%</property>
   <property name="factory">loader</property>
   <property name="aligned">1</property>
   <property name="progressive">1</property>
   <property name="mlt_service">composite</property>
   <property name="kdenlive_id">composite</property>
   <property name="force_track">0</property>
   <property name="deinterlace">0</property>
   <property name="distort">0</property>
   <property name="fill">1</property>
   <property name="geometry">0=0/0:1920x1080:100;23=0/0:1920x1080:0</property>
   <property name="halign">centre</property>
   <property name="luma_invert">0</property>
   <property name="operator">xor</property>
   <property name="softness">0</property>
   <property name="valign">middle</property>
   <property name="automatic">0</property>
   <property name="luma"/>
  </transition>
  <transition id="transition15" in="1871" out="1871">
   <property name="a_track">6</property>
   <property name="b_track">7</property>
   <property name="start">0/0:100%x100%</property>
   <property name="factory">loader</property>
   <property name="aligned">1</property>
   <property name="progressive">1</property>
   <property name="mlt_service">composite</property>
   <property name="kdenlive_id">composite</property>
   <property name="force_track">0</property>
   <property name="deinterlace">0</property>
   <property name="distort">0</property>
   <property name="fill">1</property>
   <property name="geometry">0/0:1920x1080:51</property>
   <property name="halign">centre</property>
   <property name="luma_invert">0</property>
   <property name="operator">over</property>
   <property name="softness">0</property>
   <property name="valign">middle</property>
   <property name="automatic">0</property>
   <property name="luma"/>
  </transition>
 </tractor>
</mlt>
