<?xml version='1.0' encoding='utf-8'?>
<mlt title="Anonymous Submission" version="6.4.1" root="/home/ukbaison/Clips/2017-2018_Plagiat/uk/Clip01_SnapshatAuHarem/Video" producer="main bin" LC_NUMERIC="fr_FR.UTF-8">
 <profile width="1920" frame_rate_den="1" height="1080" display_aspect_num="16" display_aspect_den="9" frame_rate_num="24" colorspace="709" sample_aspect_den="1" description="HD 1080p 24 fps" progressive="1" sample_aspect_num="1"/>
 <producer id="1" title="Anonymous Submission" out="4287" in="0">
  <property name="length">00:02:58:16</property>
  <property name="eof">pause</property>
  <property name="resource">/home/ukbaison/Clips/2017-2018_Plagiat/uk/Clip01_SnapshatAuHarem/Audio/Snapchat_au_Harem.flac</property>
  <property name="audio_index">0</property>
  <property name="video_index">-1</property>
  <property name="mute_on_pause">1</property>
  <property name="mlt_service">avformat-novalidate</property>
  <property name="meta.media.nb_streams">1</property>
  <property name="meta.media.0.stream.type">audio</property>
  <property name="meta.media.0.codec.sample_fmt">s16</property>
  <property name="meta.media.0.codec.sample_rate">48000</property>
  <property name="meta.media.0.codec.channels">2</property>
  <property name="meta.media.0.codec.name">flac</property>
  <property name="meta.media.0.codec.long_name">FLAC (Free Lossless Audio Codec)</property>
  <property name="meta.media.0.codec.bit_rate">0</property>
  <property name="seekable">1</property>
  <property name="kdenlive:folderid">-1</property>
  <property name="kdenlive:file_size">16614188</property>
  <property name="kdenlive:file_hash">115a31e39ebfe7c973cc2dc7b9f7cbf8</property>
  <property name="global_feed">1</property>
 </producer>
 <producer id="4" title="Anonymous Submission" out="3211" in="0">
  <property name="length">00:02:13:20</property>
  <property name="eof">pause</property>
  <property name="resource">src/04-06_Couplet2/CAM2_2017-11-25_0055_C0003.mov</property>
  <property name="audio_index">2</property>
  <property name="video_index">1</property>
  <property name="mute_on_pause">1</property>
  <property name="mlt_service">avformat-novalidate</property>
  <property name="meta.media.nb_streams">3</property>
  <property name="meta.media.1.stream.type">video</property>
  <property name="meta.media.1.stream.frame_rate">24</property>
  <property name="meta.media.1.stream.sample_aspect_ratio">1</property>
  <property name="meta.media.1.codec.width">1920</property>
  <property name="meta.media.1.codec.height">1080</property>
  <property name="meta.media.1.codec.rotate">0</property>
  <property name="meta.media.1.codec.frame_rate">2400</property>
  <property name="meta.media.1.codec.pix_fmt">yuv422p10le</property>
  <property name="meta.media.1.codec.sample_aspect_ratio">0</property>
  <property name="meta.media.1.codec.colorspace">709</property>
  <property name="meta.media.1.codec.color_trc">1</property>
  <property name="meta.media.1.codec.name">prores</property>
  <property name="meta.media.1.codec.long_name">ProRes</property>
  <property name="meta.media.1.codec.bit_rate">176139229</property>
  <property name="meta.attr.1.stream.creation_time.markup">2017-11-25T00:55:39.000000Z</property>
  <property name="meta.attr.1.stream.language.markup">eng</property>
  <property name="meta.attr.1.stream.handler_name.markup">Apple Alias Data Handler</property>
  <property name="meta.attr.1.stream.encoder.markup">Apple ProRes 422 HQ</property>
  <property name="meta.attr.1.stream.timecode.markup">00:55:39:04</property>
  <property name="meta.media.2.stream.type">audio</property>
  <property name="meta.media.2.codec.sample_fmt">s32</property>
  <property name="meta.media.2.codec.sample_rate">48000</property>
  <property name="meta.media.2.codec.channels">2</property>
  <property name="meta.media.2.codec.name">pcm_s24le</property>
  <property name="meta.media.2.codec.long_name">PCM signed 24-bit little-endian</property>
  <property name="meta.media.2.codec.bit_rate">2304000</property>
  <property name="meta.attr.2.stream.creation_time.markup">2017-11-25T00:55:39.000000Z</property>
  <property name="meta.attr.2.stream.language.markup">eng</property>
  <property name="meta.attr.2.stream.handler_name.markup">Apple Alias Data Handler</property>
  <property name="meta.attr.2.stream.timecode.markup">00:55:39:04</property>
  <property name="meta.attr.com.apple.proapps.manufacturer.markup">Blackmagic Design</property>
  <property name="meta.attr.com.apple.proapps.cameraName.markup">CAM2</property>
  <property name="meta.attr.com.apple.proapps.isGood.markup">0</property>
  <property name="meta.attr.com.apple.proapps.customgamma.markup">com.blackmagic-design.cinemacamera.filmlog</property>
  <property name="meta.attr.com.blackmagic-design.cinemacamera.uuid.markup">18E5E00548F94923B646613A73C01B56</property>
  <property name="meta.attr.creation_time.markup">2017-11-25T00:55:39.000000Z</property>
  <property name="meta.attr.timecode.markup">00:55:39:04</property>
  <property name="seekable">1</property>
  <property name="meta.media.sample_aspect_num">1</property>
  <property name="meta.media.sample_aspect_den">1</property>
  <property name="aspect_ratio">1</property>
  <property name="kdenlive:folderid">-1</property>
  <property name="kdenlive:file_size">2985972857</property>
  <property name="kdenlive:file_hash">74db02cfa5f4e00ec8cbf3778f7bf9ee</property>
  <property name="kdenlive:proxy">-</property>
  <property name="proxy_out">3211</property>
  <property name="kdenlive:originalurl">src/04-06_Couplet2/CAM2_2017-11-25_0055_C0003.mov</property>
  <property name="global_feed">1</property>
  <property name="kdenlive:meta.media.nb_streams">3</property>
  <property name="kdenlive:meta.media.1.stream.type">video</property>
  <property name="kdenlive:meta.media.1.stream.frame_rate">24</property>
  <property name="kdenlive:meta.media.1.stream.sample_aspect_ratio">1</property>
  <property name="kdenlive:meta.media.1.codec.width">1920</property>
  <property name="kdenlive:meta.media.1.codec.height">1080</property>
  <property name="kdenlive:meta.media.1.codec.rotate">0</property>
  <property name="kdenlive:meta.media.1.codec.frame_rate">2400</property>
  <property name="kdenlive:meta.media.1.codec.pix_fmt">yuv422p10le</property>
  <property name="kdenlive:meta.media.1.codec.sample_aspect_ratio">0</property>
  <property name="kdenlive:meta.media.1.codec.colorspace">709</property>
  <property name="kdenlive:meta.media.1.codec.color_trc">1</property>
  <property name="kdenlive:meta.media.1.codec.name">prores</property>
  <property name="kdenlive:meta.media.1.codec.long_name">ProRes</property>
  <property name="kdenlive:meta.media.1.codec.bit_rate">176139229</property>
  <property name="kdenlive:meta.attr.1.stream.creation_time.markup">2017-11-25T00:55:39.000000Z</property>
  <property name="kdenlive:meta.attr.1.stream.language.markup">eng</property>
  <property name="kdenlive:meta.attr.1.stream.handler_name.markup">Apple Alias Data Handler</property>
  <property name="kdenlive:meta.attr.1.stream.encoder.markup">Apple ProRes 422 HQ</property>
  <property name="kdenlive:meta.attr.1.stream.timecode.markup">00:55:39:04</property>
  <property name="kdenlive:meta.media.2.stream.type">audio</property>
  <property name="kdenlive:meta.media.2.codec.sample_fmt">s32</property>
  <property name="kdenlive:meta.media.2.codec.sample_rate">48000</property>
  <property name="kdenlive:meta.media.2.codec.channels">2</property>
  <property name="kdenlive:meta.media.2.codec.name">pcm_s24le</property>
  <property name="kdenlive:meta.media.2.codec.long_name">PCM signed 24-bit little-endian</property>
  <property name="kdenlive:meta.media.2.codec.bit_rate">2304000</property>
  <property name="kdenlive:meta.attr.2.stream.creation_time.markup">2017-11-25T00:55:39.000000Z</property>
  <property name="kdenlive:meta.attr.2.stream.language.markup">eng</property>
  <property name="kdenlive:meta.attr.2.stream.handler_name.markup">Apple Alias Data Handler</property>
  <property name="kdenlive:meta.attr.2.stream.timecode.markup">00:55:39:04</property>
  <property name="kdenlive:meta.attr.com.apple.proapps.manufacturer.markup">Blackmagic Design</property>
  <property name="kdenlive:meta.attr.com.apple.proapps.cameraName.markup">CAM2</property>
  <property name="kdenlive:meta.attr.com.apple.proapps.isGood.markup">0</property>
  <property name="kdenlive:meta.attr.com.apple.proapps.customgamma.markup">com.blackmagic-design.cinemacamera.filmlog</property>
  <property name="kdenlive:meta.attr.com.blackmagic-design.cinemacamera.uuid.markup">18E5E00548F94923B646613A73C01B56</property>
  <property name="kdenlive:meta.attr.creation_time.markup">2017-11-25T00:55:39.000000Z</property>
  <property name="kdenlive:meta.attr.timecode.markup">00:55:39:04</property>
  <property name="kdenlive:meta.media.sample_aspect_num">1</property>
  <property name="kdenlive:meta.media.sample_aspect_den">1</property>
  <property name="kdenlive:meta.media.frame_rate_num">24</property>
  <property name="kdenlive:meta.media.frame_rate_den">1</property>
  <property name="kdenlive:meta.media.colorspace">709</property>
  <property name="kdenlive:meta.media.color_trc">1</property>
  <property name="kdenlive:meta.media.width">1920</property>
  <property name="kdenlive:meta.media.height">1080</property>
  <property name="kdenlive:meta.media.top_field_first">0</property>
  <property name="kdenlive:meta.media.progressive">1</property>
  <property name="meta.media.frame_rate_num">24</property>
  <property name="meta.media.frame_rate_den">1</property>
  <property name="meta.media.colorspace">709</property>
  <property name="meta.media.color_trc">1</property>
  <property name="meta.media.width">1920</property>
  <property name="meta.media.height">1080</property>
  <property name="meta.media.top_field_first">0</property>
  <property name="meta.media.progressive">1</property>
 </producer>
 <producer id="3" title="Anonymous Submission" out="2486" in="0">
  <property name="length">00:01:43:15</property>
  <property name="eof">pause</property>
  <property name="resource">src/04-06_Couplet2/CAM2_2017-11-25_0053_C0002.mov</property>
  <property name="audio_index">2</property>
  <property name="video_index">1</property>
  <property name="mute_on_pause">1</property>
  <property name="mlt_service">avformat-novalidate</property>
  <property name="meta.media.nb_streams">3</property>
  <property name="meta.media.1.stream.type">video</property>
  <property name="meta.media.1.stream.frame_rate">24</property>
  <property name="meta.media.1.stream.sample_aspect_ratio">1</property>
  <property name="meta.media.1.codec.width">1920</property>
  <property name="meta.media.1.codec.height">1080</property>
  <property name="meta.media.1.codec.rotate">0</property>
  <property name="meta.media.1.codec.frame_rate">2400</property>
  <property name="meta.media.1.codec.pix_fmt">yuv422p10le</property>
  <property name="meta.media.1.codec.sample_aspect_ratio">0</property>
  <property name="meta.media.1.codec.colorspace">709</property>
  <property name="meta.media.1.codec.color_trc">1</property>
  <property name="meta.media.1.codec.name">prores</property>
  <property name="meta.media.1.codec.long_name">ProRes</property>
  <property name="meta.media.1.codec.bit_rate">176140925</property>
  <property name="meta.attr.1.stream.creation_time.markup">2017-11-25T00:53:25.000000Z</property>
  <property name="meta.attr.1.stream.language.markup">eng</property>
  <property name="meta.attr.1.stream.handler_name.markup">Apple Alias Data Handler</property>
  <property name="meta.attr.1.stream.encoder.markup">Apple ProRes 422 HQ</property>
  <property name="meta.attr.1.stream.timecode.markup">00:53:25:03</property>
  <property name="meta.media.2.stream.type">audio</property>
  <property name="meta.media.2.codec.sample_fmt">s32</property>
  <property name="meta.media.2.codec.sample_rate">48000</property>
  <property name="meta.media.2.codec.channels">2</property>
  <property name="meta.media.2.codec.name">pcm_s24le</property>
  <property name="meta.media.2.codec.long_name">PCM signed 24-bit little-endian</property>
  <property name="meta.media.2.codec.bit_rate">2304000</property>
  <property name="meta.attr.2.stream.creation_time.markup">2017-11-25T00:53:25.000000Z</property>
  <property name="meta.attr.2.stream.language.markup">eng</property>
  <property name="meta.attr.2.stream.handler_name.markup">Apple Alias Data Handler</property>
  <property name="meta.attr.2.stream.timecode.markup">00:53:25:03</property>
  <property name="meta.attr.com.apple.proapps.manufacturer.markup">Blackmagic Design</property>
  <property name="meta.attr.com.apple.proapps.cameraName.markup">CAM2</property>
  <property name="meta.attr.com.apple.proapps.isGood.markup">0</property>
  <property name="meta.attr.com.apple.proapps.customgamma.markup">com.blackmagic-design.cinemacamera.filmlog</property>
  <property name="meta.attr.com.blackmagic-design.cinemacamera.uuid.markup">18E5E00548F94923B646613A73C01B56</property>
  <property name="meta.attr.creation_time.markup">2017-11-25T00:53:25.000000Z</property>
  <property name="meta.attr.timecode.markup">00:53:25:03</property>
  <property name="seekable">1</property>
  <property name="meta.media.sample_aspect_num">1</property>
  <property name="meta.media.sample_aspect_den">1</property>
  <property name="aspect_ratio">1</property>
  <property name="kdenlive:folderid">-1</property>
  <property name="kdenlive:file_size">2311991689</property>
  <property name="kdenlive:file_hash">c5f1ea41def1623e65612b3f6ed4ed09</property>
  <property name="kdenlive:proxy">-</property>
  <property name="proxy_out">2486</property>
  <property name="kdenlive:originalurl">src/04-06_Couplet2/CAM2_2017-11-25_0053_C0002.mov</property>
  <property name="global_feed">1</property>
  <property name="kdenlive:meta.media.nb_streams">3</property>
  <property name="kdenlive:meta.media.1.stream.type">video</property>
  <property name="kdenlive:meta.media.1.stream.frame_rate">24</property>
  <property name="kdenlive:meta.media.1.stream.sample_aspect_ratio">1</property>
  <property name="kdenlive:meta.media.1.codec.width">1920</property>
  <property name="kdenlive:meta.media.1.codec.height">1080</property>
  <property name="kdenlive:meta.media.1.codec.rotate">0</property>
  <property name="kdenlive:meta.media.1.codec.frame_rate">2400</property>
  <property name="kdenlive:meta.media.1.codec.pix_fmt">yuv422p10le</property>
  <property name="kdenlive:meta.media.1.codec.sample_aspect_ratio">0</property>
  <property name="kdenlive:meta.media.1.codec.colorspace">709</property>
  <property name="kdenlive:meta.media.1.codec.color_trc">1</property>
  <property name="kdenlive:meta.media.1.codec.name">prores</property>
  <property name="kdenlive:meta.media.1.codec.long_name">ProRes</property>
  <property name="kdenlive:meta.media.1.codec.bit_rate">176140925</property>
  <property name="kdenlive:meta.attr.1.stream.creation_time.markup">2017-11-25T00:53:25.000000Z</property>
  <property name="kdenlive:meta.attr.1.stream.language.markup">eng</property>
  <property name="kdenlive:meta.attr.1.stream.handler_name.markup">Apple Alias Data Handler</property>
  <property name="kdenlive:meta.attr.1.stream.encoder.markup">Apple ProRes 422 HQ</property>
  <property name="kdenlive:meta.attr.1.stream.timecode.markup">00:53:25:03</property>
  <property name="kdenlive:meta.media.2.stream.type">audio</property>
  <property name="kdenlive:meta.media.2.codec.sample_fmt">s32</property>
  <property name="kdenlive:meta.media.2.codec.sample_rate">48000</property>
  <property name="kdenlive:meta.media.2.codec.channels">2</property>
  <property name="kdenlive:meta.media.2.codec.name">pcm_s24le</property>
  <property name="kdenlive:meta.media.2.codec.long_name">PCM signed 24-bit little-endian</property>
  <property name="kdenlive:meta.media.2.codec.bit_rate">2304000</property>
  <property name="kdenlive:meta.attr.2.stream.creation_time.markup">2017-11-25T00:53:25.000000Z</property>
  <property name="kdenlive:meta.attr.2.stream.language.markup">eng</property>
  <property name="kdenlive:meta.attr.2.stream.handler_name.markup">Apple Alias Data Handler</property>
  <property name="kdenlive:meta.attr.2.stream.timecode.markup">00:53:25:03</property>
  <property name="kdenlive:meta.attr.com.apple.proapps.manufacturer.markup">Blackmagic Design</property>
  <property name="kdenlive:meta.attr.com.apple.proapps.cameraName.markup">CAM2</property>
  <property name="kdenlive:meta.attr.com.apple.proapps.isGood.markup">0</property>
  <property name="kdenlive:meta.attr.com.apple.proapps.customgamma.markup">com.blackmagic-design.cinemacamera.filmlog</property>
  <property name="kdenlive:meta.attr.com.blackmagic-design.cinemacamera.uuid.markup">18E5E00548F94923B646613A73C01B56</property>
  <property name="kdenlive:meta.attr.creation_time.markup">2017-11-25T00:53:25.000000Z</property>
  <property name="kdenlive:meta.attr.timecode.markup">00:53:25:03</property>
  <property name="kdenlive:meta.media.sample_aspect_num">1</property>
  <property name="kdenlive:meta.media.sample_aspect_den">1</property>
  <property name="kdenlive:meta.media.frame_rate_num">24</property>
  <property name="kdenlive:meta.media.frame_rate_den">1</property>
  <property name="kdenlive:meta.media.colorspace">709</property>
  <property name="kdenlive:meta.media.color_trc">1</property>
  <property name="kdenlive:meta.media.width">1920</property>
  <property name="kdenlive:meta.media.height">1080</property>
  <property name="kdenlive:meta.media.top_field_first">0</property>
  <property name="kdenlive:meta.media.progressive">1</property>
  <property name="meta.media.frame_rate_num">24</property>
  <property name="meta.media.frame_rate_den">1</property>
  <property name="meta.media.colorspace">709</property>
  <property name="meta.media.color_trc">1</property>
  <property name="meta.media.width">1920</property>
  <property name="meta.media.height">1080</property>
  <property name="meta.media.top_field_first">0</property>
  <property name="meta.media.progressive">1</property>
 </producer>
 <producer id="2" title="Anonymous Submission" out="1833" in="0">
  <property name="length">00:01:16:10</property>
  <property name="eof">pause</property>
  <property name="resource">src/04-06_Couplet2/CAM2_2017-11-25_0049_C0001.mov</property>
  <property name="audio_index">2</property>
  <property name="video_index">1</property>
  <property name="mute_on_pause">1</property>
  <property name="mlt_service">avformat-novalidate</property>
  <property name="meta.media.nb_streams">3</property>
  <property name="meta.media.1.stream.type">video</property>
  <property name="meta.media.1.stream.frame_rate">24</property>
  <property name="meta.media.1.stream.sample_aspect_ratio">1</property>
  <property name="meta.media.1.codec.width">1920</property>
  <property name="meta.media.1.codec.height">1080</property>
  <property name="meta.media.1.codec.rotate">0</property>
  <property name="meta.media.1.codec.frame_rate">2400</property>
  <property name="meta.media.1.codec.pix_fmt">yuv422p10le</property>
  <property name="meta.media.1.codec.sample_aspect_ratio">0</property>
  <property name="meta.media.1.codec.colorspace">709</property>
  <property name="meta.media.1.codec.color_trc">1</property>
  <property name="meta.media.1.codec.name">prores</property>
  <property name="meta.media.1.codec.long_name">ProRes</property>
  <property name="meta.media.1.codec.bit_rate">176141422</property>
  <property name="meta.attr.1.stream.creation_time.markup">2017-11-25T00:49:37.000000Z</property>
  <property name="meta.attr.1.stream.language.markup">eng</property>
  <property name="meta.attr.1.stream.handler_name.markup">Apple Alias Data Handler</property>
  <property name="meta.attr.1.stream.encoder.markup">Apple ProRes 422 HQ</property>
  <property name="meta.attr.1.stream.timecode.markup">00:49:37:06</property>
  <property name="meta.media.2.stream.type">audio</property>
  <property name="meta.media.2.codec.sample_fmt">s32</property>
  <property name="meta.media.2.codec.sample_rate">48000</property>
  <property name="meta.media.2.codec.channels">2</property>
  <property name="meta.media.2.codec.name">pcm_s24le</property>
  <property name="meta.media.2.codec.long_name">PCM signed 24-bit little-endian</property>
  <property name="meta.media.2.codec.bit_rate">2304000</property>
  <property name="meta.attr.2.stream.creation_time.markup">2017-11-25T00:49:37.000000Z</property>
  <property name="meta.attr.2.stream.language.markup">eng</property>
  <property name="meta.attr.2.stream.handler_name.markup">Apple Alias Data Handler</property>
  <property name="meta.attr.2.stream.timecode.markup">00:49:37:06</property>
  <property name="meta.attr.com.apple.proapps.manufacturer.markup">Blackmagic Design</property>
  <property name="meta.attr.com.apple.proapps.cameraName.markup">CAM2</property>
  <property name="meta.attr.com.apple.proapps.isGood.markup">0</property>
  <property name="meta.attr.com.apple.proapps.customgamma.markup">com.blackmagic-design.cinemacamera.filmlog</property>
  <property name="meta.attr.com.blackmagic-design.cinemacamera.uuid.markup">18E5E00548F94923B646613A73C01B56</property>
  <property name="meta.attr.creation_time.markup">2017-11-25T00:49:37.000000Z</property>
  <property name="meta.attr.timecode.markup">00:49:37:06</property>
  <property name="seekable">1</property>
  <property name="meta.media.sample_aspect_num">1</property>
  <property name="meta.media.sample_aspect_den">1</property>
  <property name="aspect_ratio">1</property>
  <property name="kdenlive:folderid">-1</property>
  <property name="kdenlive:file_size">1704948401</property>
  <property name="kdenlive:file_hash">5d92b72a72e9fb2f855cb48e487e5833</property>
  <property name="kdenlive:proxy">-</property>
  <property name="proxy_out">1833</property>
  <property name="kdenlive:originalurl">src/04-06_Couplet2/CAM2_2017-11-25_0049_C0001.mov</property>
  <property name="global_feed">1</property>
  <property name="kdenlive:meta.media.nb_streams">3</property>
  <property name="kdenlive:meta.media.1.stream.type">video</property>
  <property name="kdenlive:meta.media.1.stream.frame_rate">24</property>
  <property name="kdenlive:meta.media.1.stream.sample_aspect_ratio">1</property>
  <property name="kdenlive:meta.media.1.codec.width">1920</property>
  <property name="kdenlive:meta.media.1.codec.height">1080</property>
  <property name="kdenlive:meta.media.1.codec.rotate">0</property>
  <property name="kdenlive:meta.media.1.codec.frame_rate">2400</property>
  <property name="kdenlive:meta.media.1.codec.pix_fmt">yuv422p10le</property>
  <property name="kdenlive:meta.media.1.codec.sample_aspect_ratio">0</property>
  <property name="kdenlive:meta.media.1.codec.colorspace">709</property>
  <property name="kdenlive:meta.media.1.codec.color_trc">1</property>
  <property name="kdenlive:meta.media.1.codec.name">prores</property>
  <property name="kdenlive:meta.media.1.codec.long_name">ProRes</property>
  <property name="kdenlive:meta.media.1.codec.bit_rate">176141422</property>
  <property name="kdenlive:meta.attr.1.stream.creation_time.markup">2017-11-25T00:49:37.000000Z</property>
  <property name="kdenlive:meta.attr.1.stream.language.markup">eng</property>
  <property name="kdenlive:meta.attr.1.stream.handler_name.markup">Apple Alias Data Handler</property>
  <property name="kdenlive:meta.attr.1.stream.encoder.markup">Apple ProRes 422 HQ</property>
  <property name="kdenlive:meta.attr.1.stream.timecode.markup">00:49:37:06</property>
  <property name="kdenlive:meta.media.2.stream.type">audio</property>
  <property name="kdenlive:meta.media.2.codec.sample_fmt">s32</property>
  <property name="kdenlive:meta.media.2.codec.sample_rate">48000</property>
  <property name="kdenlive:meta.media.2.codec.channels">2</property>
  <property name="kdenlive:meta.media.2.codec.name">pcm_s24le</property>
  <property name="kdenlive:meta.media.2.codec.long_name">PCM signed 24-bit little-endian</property>
  <property name="kdenlive:meta.media.2.codec.bit_rate">2304000</property>
  <property name="kdenlive:meta.attr.2.stream.creation_time.markup">2017-11-25T00:49:37.000000Z</property>
  <property name="kdenlive:meta.attr.2.stream.language.markup">eng</property>
  <property name="kdenlive:meta.attr.2.stream.handler_name.markup">Apple Alias Data Handler</property>
  <property name="kdenlive:meta.attr.2.stream.timecode.markup">00:49:37:06</property>
  <property name="kdenlive:meta.attr.com.apple.proapps.manufacturer.markup">Blackmagic Design</property>
  <property name="kdenlive:meta.attr.com.apple.proapps.cameraName.markup">CAM2</property>
  <property name="kdenlive:meta.attr.com.apple.proapps.isGood.markup">0</property>
  <property name="kdenlive:meta.attr.com.apple.proapps.customgamma.markup">com.blackmagic-design.cinemacamera.filmlog</property>
  <property name="kdenlive:meta.attr.com.blackmagic-design.cinemacamera.uuid.markup">18E5E00548F94923B646613A73C01B56</property>
  <property name="kdenlive:meta.attr.creation_time.markup">2017-11-25T00:49:37.000000Z</property>
  <property name="kdenlive:meta.attr.timecode.markup">00:49:37:06</property>
  <property name="kdenlive:meta.media.sample_aspect_num">1</property>
  <property name="kdenlive:meta.media.sample_aspect_den">1</property>
  <property name="kdenlive:meta.media.frame_rate_num">24</property>
  <property name="kdenlive:meta.media.frame_rate_den">1</property>
  <property name="kdenlive:meta.media.colorspace">709</property>
  <property name="kdenlive:meta.media.color_trc">1</property>
  <property name="kdenlive:meta.media.width">1920</property>
  <property name="kdenlive:meta.media.height">1080</property>
  <property name="kdenlive:meta.media.top_field_first">0</property>
  <property name="kdenlive:meta.media.progressive">1</property>
  <property name="meta.media.frame_rate_num">24</property>
  <property name="meta.media.frame_rate_den">1</property>
  <property name="meta.media.colorspace">709</property>
  <property name="meta.media.color_trc">1</property>
  <property name="meta.media.width">1920</property>
  <property name="meta.media.height">1080</property>
  <property name="meta.media.top_field_first">0</property>
  <property name="meta.media.progressive">1</property>
 </producer>
 <producer id="5" title="Anonymous Submission" out="3737" in="0">
  <property name="length">00:02:35:18</property>
  <property name="eof">pause</property>
  <property name="resource">src/04-06_Couplet2/CAM2_2017-11-25_0058_C0004.mov</property>
  <property name="audio_index">2</property>
  <property name="video_index">1</property>
  <property name="mute_on_pause">1</property>
  <property name="mlt_service">avformat-novalidate</property>
  <property name="meta.media.nb_streams">3</property>
  <property name="meta.media.1.stream.type">video</property>
  <property name="meta.media.1.stream.frame_rate">24</property>
  <property name="meta.media.1.stream.sample_aspect_ratio">1</property>
  <property name="meta.media.1.codec.width">1920</property>
  <property name="meta.media.1.codec.height">1080</property>
  <property name="meta.media.1.codec.rotate">0</property>
  <property name="meta.media.1.codec.frame_rate">2400</property>
  <property name="meta.media.1.codec.pix_fmt">yuv422p10le</property>
  <property name="meta.media.1.codec.sample_aspect_ratio">0</property>
  <property name="meta.media.1.codec.colorspace">709</property>
  <property name="meta.media.1.codec.color_trc">1</property>
  <property name="meta.media.1.codec.name">prores</property>
  <property name="meta.media.1.codec.long_name">ProRes</property>
  <property name="meta.media.1.codec.bit_rate">176138656</property>
  <property name="meta.attr.1.stream.creation_time.markup">2017-11-25T00:58:13.000000Z</property>
  <property name="meta.attr.1.stream.language.markup">eng</property>
  <property name="meta.attr.1.stream.handler_name.markup">Apple Alias Data Handler</property>
  <property name="meta.attr.1.stream.encoder.markup">Apple ProRes 422 HQ</property>
  <property name="meta.attr.1.stream.timecode.markup">00:58:13:00</property>
  <property name="meta.media.2.stream.type">audio</property>
  <property name="meta.media.2.codec.sample_fmt">s32</property>
  <property name="meta.media.2.codec.sample_rate">48000</property>
  <property name="meta.media.2.codec.channels">2</property>
  <property name="meta.media.2.codec.name">pcm_s24le</property>
  <property name="meta.media.2.codec.long_name">PCM signed 24-bit little-endian</property>
  <property name="meta.media.2.codec.bit_rate">2304000</property>
  <property name="meta.attr.2.stream.creation_time.markup">2017-11-25T00:58:13.000000Z</property>
  <property name="meta.attr.2.stream.language.markup">eng</property>
  <property name="meta.attr.2.stream.handler_name.markup">Apple Alias Data Handler</property>
  <property name="meta.attr.2.stream.timecode.markup">00:58:13:00</property>
  <property name="meta.attr.com.apple.proapps.manufacturer.markup">Blackmagic Design</property>
  <property name="meta.attr.com.apple.proapps.cameraName.markup">CAM2</property>
  <property name="meta.attr.com.apple.proapps.isGood.markup">0</property>
  <property name="meta.attr.com.apple.proapps.customgamma.markup">com.blackmagic-design.cinemacamera.filmlog</property>
  <property name="meta.attr.com.blackmagic-design.cinemacamera.uuid.markup">18E5E00548F94923B646613A73C01B56</property>
  <property name="meta.attr.creation_time.markup">2017-11-25T00:58:13.000000Z</property>
  <property name="meta.attr.timecode.markup">00:58:13:00</property>
  <property name="seekable">1</property>
  <property name="meta.media.sample_aspect_num">1</property>
  <property name="meta.media.sample_aspect_den">1</property>
  <property name="aspect_ratio">1</property>
  <property name="kdenlive:folderid">-1</property>
  <property name="kdenlive:file_size">3474956585</property>
  <property name="kdenlive:file_hash">ad22dd8a06e746adef0131909037660a</property>
  <property name="kdenlive:proxy">-</property>
  <property name="proxy_out">3737</property>
  <property name="kdenlive:originalurl">src/04-06_Couplet2/CAM2_2017-11-25_0058_C0004.mov</property>
  <property name="global_feed">1</property>
  <property name="kdenlive:meta.media.nb_streams">3</property>
  <property name="kdenlive:meta.media.1.stream.type">video</property>
  <property name="kdenlive:meta.media.1.stream.frame_rate">24</property>
  <property name="kdenlive:meta.media.1.stream.sample_aspect_ratio">1</property>
  <property name="kdenlive:meta.media.1.codec.width">1920</property>
  <property name="kdenlive:meta.media.1.codec.height">1080</property>
  <property name="kdenlive:meta.media.1.codec.rotate">0</property>
  <property name="kdenlive:meta.media.1.codec.frame_rate">2400</property>
  <property name="kdenlive:meta.media.1.codec.pix_fmt">yuv422p10le</property>
  <property name="kdenlive:meta.media.1.codec.sample_aspect_ratio">0</property>
  <property name="kdenlive:meta.media.1.codec.colorspace">709</property>
  <property name="kdenlive:meta.media.1.codec.color_trc">1</property>
  <property name="kdenlive:meta.media.1.codec.name">prores</property>
  <property name="kdenlive:meta.media.1.codec.long_name">ProRes</property>
  <property name="kdenlive:meta.media.1.codec.bit_rate">176138656</property>
  <property name="kdenlive:meta.attr.1.stream.creation_time.markup">2017-11-25T00:58:13.000000Z</property>
  <property name="kdenlive:meta.attr.1.stream.language.markup">eng</property>
  <property name="kdenlive:meta.attr.1.stream.handler_name.markup">Apple Alias Data Handler</property>
  <property name="kdenlive:meta.attr.1.stream.encoder.markup">Apple ProRes 422 HQ</property>
  <property name="kdenlive:meta.attr.1.stream.timecode.markup">00:58:13:00</property>
  <property name="kdenlive:meta.media.2.stream.type">audio</property>
  <property name="kdenlive:meta.media.2.codec.sample_fmt">s32</property>
  <property name="kdenlive:meta.media.2.codec.sample_rate">48000</property>
  <property name="kdenlive:meta.media.2.codec.channels">2</property>
  <property name="kdenlive:meta.media.2.codec.name">pcm_s24le</property>
  <property name="kdenlive:meta.media.2.codec.long_name">PCM signed 24-bit little-endian</property>
  <property name="kdenlive:meta.media.2.codec.bit_rate">2304000</property>
  <property name="kdenlive:meta.attr.2.stream.creation_time.markup">2017-11-25T00:58:13.000000Z</property>
  <property name="kdenlive:meta.attr.2.stream.language.markup">eng</property>
  <property name="kdenlive:meta.attr.2.stream.handler_name.markup">Apple Alias Data Handler</property>
  <property name="kdenlive:meta.attr.2.stream.timecode.markup">00:58:13:00</property>
  <property name="kdenlive:meta.attr.com.apple.proapps.manufacturer.markup">Blackmagic Design</property>
  <property name="kdenlive:meta.attr.com.apple.proapps.cameraName.markup">CAM2</property>
  <property name="kdenlive:meta.attr.com.apple.proapps.isGood.markup">0</property>
  <property name="kdenlive:meta.attr.com.apple.proapps.customgamma.markup">com.blackmagic-design.cinemacamera.filmlog</property>
  <property name="kdenlive:meta.attr.com.blackmagic-design.cinemacamera.uuid.markup">18E5E00548F94923B646613A73C01B56</property>
  <property name="kdenlive:meta.attr.creation_time.markup">2017-11-25T00:58:13.000000Z</property>
  <property name="kdenlive:meta.attr.timecode.markup">00:58:13:00</property>
  <property name="kdenlive:meta.media.sample_aspect_num">1</property>
  <property name="kdenlive:meta.media.sample_aspect_den">1</property>
  <property name="kdenlive:meta.media.frame_rate_num">24</property>
  <property name="kdenlive:meta.media.frame_rate_den">1</property>
  <property name="kdenlive:meta.media.colorspace">709</property>
  <property name="kdenlive:meta.media.color_trc">1</property>
  <property name="kdenlive:meta.media.width">1920</property>
  <property name="kdenlive:meta.media.height">1080</property>
  <property name="kdenlive:meta.media.top_field_first">0</property>
  <property name="kdenlive:meta.media.progressive">1</property>
  <property name="meta.media.frame_rate_num">24</property>
  <property name="meta.media.frame_rate_den">1</property>
  <property name="meta.media.colorspace">709</property>
  <property name="meta.media.color_trc">1</property>
  <property name="meta.media.width">1920</property>
  <property name="meta.media.height">1080</property>
  <property name="meta.media.top_field_first">0</property>
  <property name="meta.media.progressive">1</property>
 </producer>
 <producer id="6" title="Anonymous Submission" out="4335" in="0">
  <property name="length">00:03:00:16</property>
  <property name="eof">pause</property>
  <property name="resource">src/04-06_Couplet2/CAM2_2017-11-25_0103_C0005.mov</property>
  <property name="audio_index">2</property>
  <property name="video_index">1</property>
  <property name="mute_on_pause">1</property>
  <property name="mlt_service">avformat-novalidate</property>
  <property name="meta.media.nb_streams">3</property>
  <property name="meta.media.1.stream.type">video</property>
  <property name="meta.media.1.stream.frame_rate">24</property>
  <property name="meta.media.1.stream.sample_aspect_ratio">1</property>
  <property name="meta.media.1.codec.width">1920</property>
  <property name="meta.media.1.codec.height">1080</property>
  <property name="meta.media.1.codec.rotate">0</property>
  <property name="meta.media.1.codec.frame_rate">2400</property>
  <property name="meta.media.1.codec.pix_fmt">yuv422p10le</property>
  <property name="meta.media.1.codec.sample_aspect_ratio">0</property>
  <property name="meta.media.1.codec.colorspace">709</property>
  <property name="meta.media.1.codec.color_trc">1</property>
  <property name="meta.media.1.codec.name">prores</property>
  <property name="meta.media.1.codec.long_name">ProRes</property>
  <property name="meta.media.1.codec.bit_rate">176139010</property>
  <property name="meta.attr.1.stream.creation_time.markup">2017-11-25T01:03:56.000000Z</property>
  <property name="meta.attr.1.stream.language.markup">eng</property>
  <property name="meta.attr.1.stream.handler_name.markup">Apple Alias Data Handler</property>
  <property name="meta.attr.1.stream.encoder.markup">Apple ProRes 422 HQ</property>
  <property name="meta.attr.1.stream.timecode.markup">01:03:56:12</property>
  <property name="meta.media.2.stream.type">audio</property>
  <property name="meta.media.2.codec.sample_fmt">s32</property>
  <property name="meta.media.2.codec.sample_rate">48000</property>
  <property name="meta.media.2.codec.channels">2</property>
  <property name="meta.media.2.codec.name">pcm_s24le</property>
  <property name="meta.media.2.codec.long_name">PCM signed 24-bit little-endian</property>
  <property name="meta.media.2.codec.bit_rate">2304000</property>
  <property name="meta.attr.2.stream.creation_time.markup">2017-11-25T01:03:56.000000Z</property>
  <property name="meta.attr.2.stream.language.markup">eng</property>
  <property name="meta.attr.2.stream.handler_name.markup">Apple Alias Data Handler</property>
  <property name="meta.attr.2.stream.timecode.markup">01:03:56:12</property>
  <property name="meta.attr.com.apple.proapps.manufacturer.markup">Blackmagic Design</property>
  <property name="meta.attr.com.apple.proapps.cameraName.markup">CAM2</property>
  <property name="meta.attr.com.apple.proapps.isGood.markup">0</property>
  <property name="meta.attr.com.apple.proapps.customgamma.markup">com.blackmagic-design.cinemacamera.filmlog</property>
  <property name="meta.attr.com.blackmagic-design.cinemacamera.uuid.markup">18E5E00548F94923B646613A73C01B56</property>
  <property name="meta.attr.creation_time.markup">2017-11-25T01:03:56.000000Z</property>
  <property name="meta.attr.timecode.markup">01:03:56:12</property>
  <property name="seekable">1</property>
  <property name="meta.media.sample_aspect_num">1</property>
  <property name="meta.media.sample_aspect_den">1</property>
  <property name="aspect_ratio">1</property>
  <property name="kdenlive:folderid">-1</property>
  <property name="kdenlive:file_size">4030844401</property>
  <property name="kdenlive:file_hash">e757dcbca0f5d7fdb7d1af4658c00dfc</property>
  <property name="kdenlive:proxy">-</property>
  <property name="proxy_out">4335</property>
  <property name="kdenlive:originalurl">src/04-06_Couplet2/CAM2_2017-11-25_0103_C0005.mov</property>
  <property name="global_feed">1</property>
  <property name="kdenlive:meta.media.nb_streams">3</property>
  <property name="kdenlive:meta.media.1.stream.type">video</property>
  <property name="kdenlive:meta.media.1.stream.frame_rate">24</property>
  <property name="kdenlive:meta.media.1.stream.sample_aspect_ratio">1</property>
  <property name="kdenlive:meta.media.1.codec.width">1920</property>
  <property name="kdenlive:meta.media.1.codec.height">1080</property>
  <property name="kdenlive:meta.media.1.codec.rotate">0</property>
  <property name="kdenlive:meta.media.1.codec.frame_rate">2400</property>
  <property name="kdenlive:meta.media.1.codec.pix_fmt">yuv422p10le</property>
  <property name="kdenlive:meta.media.1.codec.sample_aspect_ratio">0</property>
  <property name="kdenlive:meta.media.1.codec.colorspace">709</property>
  <property name="kdenlive:meta.media.1.codec.color_trc">1</property>
  <property name="kdenlive:meta.media.1.codec.name">prores</property>
  <property name="kdenlive:meta.media.1.codec.long_name">ProRes</property>
  <property name="kdenlive:meta.media.1.codec.bit_rate">176139010</property>
  <property name="kdenlive:meta.attr.1.stream.creation_time.markup">2017-11-25T01:03:56.000000Z</property>
  <property name="kdenlive:meta.attr.1.stream.language.markup">eng</property>
  <property name="kdenlive:meta.attr.1.stream.handler_name.markup">Apple Alias Data Handler</property>
  <property name="kdenlive:meta.attr.1.stream.encoder.markup">Apple ProRes 422 HQ</property>
  <property name="kdenlive:meta.attr.1.stream.timecode.markup">01:03:56:12</property>
  <property name="kdenlive:meta.media.2.stream.type">audio</property>
  <property name="kdenlive:meta.media.2.codec.sample_fmt">s32</property>
  <property name="kdenlive:meta.media.2.codec.sample_rate">48000</property>
  <property name="kdenlive:meta.media.2.codec.channels">2</property>
  <property name="kdenlive:meta.media.2.codec.name">pcm_s24le</property>
  <property name="kdenlive:meta.media.2.codec.long_name">PCM signed 24-bit little-endian</property>
  <property name="kdenlive:meta.media.2.codec.bit_rate">2304000</property>
  <property name="kdenlive:meta.attr.2.stream.creation_time.markup">2017-11-25T01:03:56.000000Z</property>
  <property name="kdenlive:meta.attr.2.stream.language.markup">eng</property>
  <property name="kdenlive:meta.attr.2.stream.handler_name.markup">Apple Alias Data Handler</property>
  <property name="kdenlive:meta.attr.2.stream.timecode.markup">01:03:56:12</property>
  <property name="kdenlive:meta.attr.com.apple.proapps.manufacturer.markup">Blackmagic Design</property>
  <property name="kdenlive:meta.attr.com.apple.proapps.cameraName.markup">CAM2</property>
  <property name="kdenlive:meta.attr.com.apple.proapps.isGood.markup">0</property>
  <property name="kdenlive:meta.attr.com.apple.proapps.customgamma.markup">com.blackmagic-design.cinemacamera.filmlog</property>
  <property name="kdenlive:meta.attr.com.blackmagic-design.cinemacamera.uuid.markup">18E5E00548F94923B646613A73C01B56</property>
  <property name="kdenlive:meta.attr.creation_time.markup">2017-11-25T01:03:56.000000Z</property>
  <property name="kdenlive:meta.attr.timecode.markup">01:03:56:12</property>
  <property name="kdenlive:meta.media.sample_aspect_num">1</property>
  <property name="kdenlive:meta.media.sample_aspect_den">1</property>
  <property name="kdenlive:meta.media.frame_rate_num">24</property>
  <property name="kdenlive:meta.media.frame_rate_den">1</property>
  <property name="kdenlive:meta.media.colorspace">709</property>
  <property name="kdenlive:meta.media.color_trc">1</property>
  <property name="kdenlive:meta.media.width">1920</property>
  <property name="kdenlive:meta.media.height">1080</property>
  <property name="kdenlive:meta.media.top_field_first">0</property>
  <property name="kdenlive:meta.media.progressive">1</property>
  <property name="meta.media.frame_rate_num">24</property>
  <property name="meta.media.frame_rate_den">1</property>
  <property name="meta.media.colorspace">709</property>
  <property name="meta.media.color_trc">1</property>
  <property name="meta.media.width">1920</property>
  <property name="meta.media.height">1080</property>
  <property name="meta.media.top_field_first">0</property>
  <property name="meta.media.progressive">1</property>
 </producer>
 <producer id="7" title="Anonymous Submission" out="2664" in="0">
  <property name="length">00:01:51:01</property>
  <property name="eof">pause</property>
  <property name="resource">src/04-06_Couplet2/CAM2_2017-11-25_0108_C0006.mov</property>
  <property name="audio_index">2</property>
  <property name="video_index">1</property>
  <property name="mute_on_pause">1</property>
  <property name="mlt_service">avformat-novalidate</property>
  <property name="meta.media.nb_streams">3</property>
  <property name="meta.media.1.stream.type">video</property>
  <property name="meta.media.1.stream.frame_rate">24</property>
  <property name="meta.media.1.stream.sample_aspect_ratio">1</property>
  <property name="meta.media.1.codec.width">1920</property>
  <property name="meta.media.1.codec.height">1080</property>
  <property name="meta.media.1.codec.rotate">0</property>
  <property name="meta.media.1.codec.frame_rate">2400</property>
  <property name="meta.media.1.codec.pix_fmt">yuv422p10le</property>
  <property name="meta.media.1.codec.sample_aspect_ratio">0</property>
  <property name="meta.media.1.codec.colorspace">709</property>
  <property name="meta.media.1.codec.color_trc">1</property>
  <property name="meta.media.1.codec.name">prores</property>
  <property name="meta.media.1.codec.long_name">ProRes</property>
  <property name="meta.media.1.codec.bit_rate">176139009</property>
  <property name="meta.attr.1.stream.creation_time.markup">2017-11-25T01:08:39.000000Z</property>
  <property name="meta.attr.1.stream.language.markup">eng</property>
  <property name="meta.attr.1.stream.handler_name.markup">Apple Alias Data Handler</property>
  <property name="meta.attr.1.stream.encoder.markup">Apple ProRes 422 HQ</property>
  <property name="meta.attr.1.stream.timecode.markup">01:08:39:12</property>
  <property name="meta.media.2.stream.type">audio</property>
  <property name="meta.media.2.codec.sample_fmt">s32</property>
  <property name="meta.media.2.codec.sample_rate">48000</property>
  <property name="meta.media.2.codec.channels">2</property>
  <property name="meta.media.2.codec.name">pcm_s24le</property>
  <property name="meta.media.2.codec.long_name">PCM signed 24-bit little-endian</property>
  <property name="meta.media.2.codec.bit_rate">2304000</property>
  <property name="meta.attr.2.stream.creation_time.markup">2017-11-25T01:08:39.000000Z</property>
  <property name="meta.attr.2.stream.language.markup">eng</property>
  <property name="meta.attr.2.stream.handler_name.markup">Apple Alias Data Handler</property>
  <property name="meta.attr.2.stream.timecode.markup">01:08:39:12</property>
  <property name="meta.attr.com.apple.proapps.manufacturer.markup">Blackmagic Design</property>
  <property name="meta.attr.com.apple.proapps.cameraName.markup">CAM2</property>
  <property name="meta.attr.com.apple.proapps.isGood.markup">0</property>
  <property name="meta.attr.com.apple.proapps.customgamma.markup">com.blackmagic-design.cinemacamera.filmlog</property>
  <property name="meta.attr.com.blackmagic-design.cinemacamera.uuid.markup">18E5E00548F94923B646613A73C01B56</property>
  <property name="meta.attr.creation_time.markup">2017-11-25T01:08:39.000000Z</property>
  <property name="meta.attr.timecode.markup">01:08:39:12</property>
  <property name="seekable">1</property>
  <property name="meta.media.sample_aspect_num">1</property>
  <property name="meta.media.sample_aspect_den">1</property>
  <property name="aspect_ratio">1</property>
  <property name="kdenlive:folderid">-1</property>
  <property name="kdenlive:file_size">2477467081</property>
  <property name="kdenlive:file_hash">ab710307b950fc7c477f4663f45777fd</property>
  <property name="kdenlive:proxy">-</property>
  <property name="proxy_out">2664</property>
  <property name="kdenlive:originalurl">src/04-06_Couplet2/CAM2_2017-11-25_0108_C0006.mov</property>
  <property name="global_feed">1</property>
  <property name="kdenlive:meta.media.nb_streams">3</property>
  <property name="kdenlive:meta.media.1.stream.type">video</property>
  <property name="kdenlive:meta.media.1.stream.frame_rate">24</property>
  <property name="kdenlive:meta.media.1.stream.sample_aspect_ratio">1</property>
  <property name="kdenlive:meta.media.1.codec.width">1920</property>
  <property name="kdenlive:meta.media.1.codec.height">1080</property>
  <property name="kdenlive:meta.media.1.codec.rotate">0</property>
  <property name="kdenlive:meta.media.1.codec.frame_rate">2400</property>
  <property name="kdenlive:meta.media.1.codec.pix_fmt">yuv422p10le</property>
  <property name="kdenlive:meta.media.1.codec.sample_aspect_ratio">0</property>
  <property name="kdenlive:meta.media.1.codec.colorspace">709</property>
  <property name="kdenlive:meta.media.1.codec.color_trc">1</property>
  <property name="kdenlive:meta.media.1.codec.name">prores</property>
  <property name="kdenlive:meta.media.1.codec.long_name">ProRes</property>
  <property name="kdenlive:meta.media.1.codec.bit_rate">176139009</property>
  <property name="kdenlive:meta.attr.1.stream.creation_time.markup">2017-11-25T01:08:39.000000Z</property>
  <property name="kdenlive:meta.attr.1.stream.language.markup">eng</property>
  <property name="kdenlive:meta.attr.1.stream.handler_name.markup">Apple Alias Data Handler</property>
  <property name="kdenlive:meta.attr.1.stream.encoder.markup">Apple ProRes 422 HQ</property>
  <property name="kdenlive:meta.attr.1.stream.timecode.markup">01:08:39:12</property>
  <property name="kdenlive:meta.media.2.stream.type">audio</property>
  <property name="kdenlive:meta.media.2.codec.sample_fmt">s32</property>
  <property name="kdenlive:meta.media.2.codec.sample_rate">48000</property>
  <property name="kdenlive:meta.media.2.codec.channels">2</property>
  <property name="kdenlive:meta.media.2.codec.name">pcm_s24le</property>
  <property name="kdenlive:meta.media.2.codec.long_name">PCM signed 24-bit little-endian</property>
  <property name="kdenlive:meta.media.2.codec.bit_rate">2304000</property>
  <property name="kdenlive:meta.attr.2.stream.creation_time.markup">2017-11-25T01:08:39.000000Z</property>
  <property name="kdenlive:meta.attr.2.stream.language.markup">eng</property>
  <property name="kdenlive:meta.attr.2.stream.handler_name.markup">Apple Alias Data Handler</property>
  <property name="kdenlive:meta.attr.2.stream.timecode.markup">01:08:39:12</property>
  <property name="kdenlive:meta.attr.com.apple.proapps.manufacturer.markup">Blackmagic Design</property>
  <property name="kdenlive:meta.attr.com.apple.proapps.cameraName.markup">CAM2</property>
  <property name="kdenlive:meta.attr.com.apple.proapps.isGood.markup">0</property>
  <property name="kdenlive:meta.attr.com.apple.proapps.customgamma.markup">com.blackmagic-design.cinemacamera.filmlog</property>
  <property name="kdenlive:meta.attr.com.blackmagic-design.cinemacamera.uuid.markup">18E5E00548F94923B646613A73C01B56</property>
  <property name="kdenlive:meta.attr.creation_time.markup">2017-11-25T01:08:39.000000Z</property>
  <property name="kdenlive:meta.attr.timecode.markup">01:08:39:12</property>
  <property name="kdenlive:meta.media.sample_aspect_num">1</property>
  <property name="kdenlive:meta.media.sample_aspect_den">1</property>
  <property name="kdenlive:meta.media.frame_rate_num">24</property>
  <property name="kdenlive:meta.media.frame_rate_den">1</property>
  <property name="kdenlive:meta.media.colorspace">709</property>
  <property name="kdenlive:meta.media.color_trc">1</property>
  <property name="kdenlive:meta.media.width">1920</property>
  <property name="kdenlive:meta.media.height">1080</property>
  <property name="kdenlive:meta.media.top_field_first">0</property>
  <property name="kdenlive:meta.media.progressive">1</property>
  <property name="meta.media.frame_rate_num">24</property>
  <property name="meta.media.frame_rate_den">1</property>
  <property name="meta.media.colorspace">709</property>
  <property name="meta.media.color_trc">1</property>
  <property name="meta.media.width">1920</property>
  <property name="meta.media.height">1080</property>
  <property name="meta.media.top_field_first">0</property>
  <property name="meta.media.progressive">1</property>
 </producer>
 <producer id="8" title="Anonymous Submission" out="6028" in="0">
  <property name="length">00:04:11:05</property>
  <property name="eof">pause</property>
  <property name="resource">src/TheWholeRushes/Samedi_matin/CAM2_2017-11-24_0134_C0000.mov</property>
  <property name="audio_index">2</property>
  <property name="video_index">1</property>
  <property name="mute_on_pause">1</property>
  <property name="mlt_service">avformat-novalidate</property>
  <property name="meta.media.nb_streams">3</property>
  <property name="meta.media.1.stream.type">video</property>
  <property name="meta.media.1.stream.frame_rate">24</property>
  <property name="meta.media.1.stream.sample_aspect_ratio">1</property>
  <property name="meta.media.1.codec.width">1920</property>
  <property name="meta.media.1.codec.height">1080</property>
  <property name="meta.media.1.codec.rotate">0</property>
  <property name="meta.media.1.codec.frame_rate">2400</property>
  <property name="meta.media.1.codec.pix_fmt">yuv422p10le</property>
  <property name="meta.media.1.codec.sample_aspect_ratio">0</property>
  <property name="meta.media.1.codec.colorspace">709</property>
  <property name="meta.media.1.codec.color_trc">1</property>
  <property name="meta.media.1.codec.name">prores</property>
  <property name="meta.media.1.codec.long_name">ProRes</property>
  <property name="meta.media.1.codec.bit_rate">176141058</property>
  <property name="meta.attr.1.stream.creation_time.markup">2017-11-24T01:34:34.000000Z</property>
  <property name="meta.attr.1.stream.language.markup">eng</property>
  <property name="meta.attr.1.stream.handler_name.markup">Apple Alias Data Handler</property>
  <property name="meta.attr.1.stream.encoder.markup">Apple ProRes 422 HQ</property>
  <property name="meta.attr.1.stream.timecode.markup">01:34:34:10</property>
  <property name="meta.media.2.stream.type">audio</property>
  <property name="meta.media.2.codec.sample_fmt">s32</property>
  <property name="meta.media.2.codec.sample_rate">48000</property>
  <property name="meta.media.2.codec.channels">2</property>
  <property name="meta.media.2.codec.name">pcm_s24le</property>
  <property name="meta.media.2.codec.long_name">PCM signed 24-bit little-endian</property>
  <property name="meta.media.2.codec.bit_rate">2304000</property>
  <property name="meta.attr.2.stream.creation_time.markup">2017-11-24T01:34:34.000000Z</property>
  <property name="meta.attr.2.stream.language.markup">eng</property>
  <property name="meta.attr.2.stream.handler_name.markup">Apple Alias Data Handler</property>
  <property name="meta.attr.2.stream.timecode.markup">01:34:34:10</property>
  <property name="meta.attr.com.apple.proapps.manufacturer.markup">Blackmagic Design</property>
  <property name="meta.attr.com.apple.proapps.cameraName.markup">CAM2</property>
  <property name="meta.attr.com.apple.proapps.isGood.markup">0</property>
  <property name="meta.attr.com.apple.proapps.customgamma.markup">com.blackmagic-design.cinemacamera.filmlog</property>
  <property name="meta.attr.com.blackmagic-design.cinemacamera.uuid.markup">18E5E00548F94923B646613A73C01B56</property>
  <property name="meta.attr.creation_time.markup">2017-11-24T01:34:34.000000Z</property>
  <property name="meta.attr.timecode.markup">01:34:34:10</property>
  <property name="seekable">1</property>
  <property name="meta.media.sample_aspect_num">1</property>
  <property name="meta.media.sample_aspect_den">1</property>
  <property name="aspect_ratio">1</property>
  <property name="kdenlive:folderid">-1</property>
  <property name="kdenlive:file_size">5604735529</property>
  <property name="kdenlive:file_hash">f7c0adb0953aed98701c13058f2178f5</property>
  <property name="kdenlive:proxy">-</property>
  <property name="proxy_out">6028</property>
  <property name="kdenlive:originalurl">src/04-06_Couplet2/mao1.sshfs/CAM2_2017-11-24_0134_C0000.mov</property>
  <property name="global_feed">1</property>
  <property name="kdenlive:meta.media.nb_streams">3</property>
  <property name="kdenlive:meta.media.1.stream.type">video</property>
  <property name="kdenlive:meta.media.1.stream.frame_rate">24</property>
  <property name="kdenlive:meta.media.1.stream.sample_aspect_ratio">1</property>
  <property name="kdenlive:meta.media.1.codec.width">1920</property>
  <property name="kdenlive:meta.media.1.codec.height">1080</property>
  <property name="kdenlive:meta.media.1.codec.rotate">0</property>
  <property name="kdenlive:meta.media.1.codec.frame_rate">2400</property>
  <property name="kdenlive:meta.media.1.codec.pix_fmt">yuv422p10le</property>
  <property name="kdenlive:meta.media.1.codec.sample_aspect_ratio">0</property>
  <property name="kdenlive:meta.media.1.codec.colorspace">709</property>
  <property name="kdenlive:meta.media.1.codec.color_trc">1</property>
  <property name="kdenlive:meta.media.1.codec.name">prores</property>
  <property name="kdenlive:meta.media.1.codec.long_name">ProRes</property>
  <property name="kdenlive:meta.media.1.codec.bit_rate">176141058</property>
  <property name="kdenlive:meta.attr.1.stream.creation_time.markup">2017-11-24T01:34:34.000000Z</property>
  <property name="kdenlive:meta.attr.1.stream.language.markup">eng</property>
  <property name="kdenlive:meta.attr.1.stream.handler_name.markup">Apple Alias Data Handler</property>
  <property name="kdenlive:meta.attr.1.stream.encoder.markup">Apple ProRes 422 HQ</property>
  <property name="kdenlive:meta.attr.1.stream.timecode.markup">01:34:34:10</property>
  <property name="kdenlive:meta.media.2.stream.type">audio</property>
  <property name="kdenlive:meta.media.2.codec.sample_fmt">s32</property>
  <property name="kdenlive:meta.media.2.codec.sample_rate">48000</property>
  <property name="kdenlive:meta.media.2.codec.channels">2</property>
  <property name="kdenlive:meta.media.2.codec.name">pcm_s24le</property>
  <property name="kdenlive:meta.media.2.codec.long_name">PCM signed 24-bit little-endian</property>
  <property name="kdenlive:meta.media.2.codec.bit_rate">2304000</property>
  <property name="kdenlive:meta.attr.2.stream.creation_time.markup">2017-11-24T01:34:34.000000Z</property>
  <property name="kdenlive:meta.attr.2.stream.language.markup">eng</property>
  <property name="kdenlive:meta.attr.2.stream.handler_name.markup">Apple Alias Data Handler</property>
  <property name="kdenlive:meta.attr.2.stream.timecode.markup">01:34:34:10</property>
  <property name="kdenlive:meta.attr.com.apple.proapps.manufacturer.markup">Blackmagic Design</property>
  <property name="kdenlive:meta.attr.com.apple.proapps.cameraName.markup">CAM2</property>
  <property name="kdenlive:meta.attr.com.apple.proapps.isGood.markup">0</property>
  <property name="kdenlive:meta.attr.com.apple.proapps.customgamma.markup">com.blackmagic-design.cinemacamera.filmlog</property>
  <property name="kdenlive:meta.attr.com.blackmagic-design.cinemacamera.uuid.markup">18E5E00548F94923B646613A73C01B56</property>
  <property name="kdenlive:meta.attr.creation_time.markup">2017-11-24T01:34:34.000000Z</property>
  <property name="kdenlive:meta.attr.timecode.markup">01:34:34:10</property>
  <property name="kdenlive:meta.media.sample_aspect_num">1</property>
  <property name="kdenlive:meta.media.sample_aspect_den">1</property>
  <property name="kdenlive:meta.media.frame_rate_num">24</property>
  <property name="kdenlive:meta.media.frame_rate_den">1</property>
  <property name="kdenlive:meta.media.colorspace">709</property>
  <property name="kdenlive:meta.media.color_trc">1</property>
  <property name="kdenlive:meta.media.width">1920</property>
  <property name="kdenlive:meta.media.height">1080</property>
  <property name="kdenlive:meta.media.top_field_first">0</property>
  <property name="kdenlive:meta.media.progressive">1</property>
  <property name="meta.media.frame_rate_num">24</property>
  <property name="meta.media.frame_rate_den">1</property>
  <property name="meta.media.colorspace">709</property>
  <property name="meta.media.color_trc">1</property>
  <property name="meta.media.width">1920</property>
  <property name="meta.media.height">1080</property>
  <property name="meta.media.top_field_first">0</property>
  <property name="meta.media.progressive">1</property>
 </producer>
 <producer id="9" title="Anonymous Submission" out="5047" in="0">
  <property name="length">00:03:30:08</property>
  <property name="eof">pause</property>
  <property name="resource">src/TheWholeRushes/Samedi_matin/CAM2_2017-11-24_0143_C0001.mov</property>
  <property name="audio_index">2</property>
  <property name="video_index">1</property>
  <property name="mute_on_pause">1</property>
  <property name="mlt_service">avformat-novalidate</property>
  <property name="meta.media.nb_streams">3</property>
  <property name="meta.media.1.stream.type">video</property>
  <property name="meta.media.1.stream.frame_rate">24</property>
  <property name="meta.media.1.stream.sample_aspect_ratio">1</property>
  <property name="meta.media.1.codec.width">1920</property>
  <property name="meta.media.1.codec.height">1080</property>
  <property name="meta.media.1.codec.rotate">0</property>
  <property name="meta.media.1.codec.frame_rate">2400</property>
  <property name="meta.media.1.codec.pix_fmt">yuv422p10le</property>
  <property name="meta.media.1.codec.sample_aspect_ratio">0</property>
  <property name="meta.media.1.codec.colorspace">709</property>
  <property name="meta.media.1.codec.color_trc">1</property>
  <property name="meta.media.1.codec.name">prores</property>
  <property name="meta.media.1.codec.long_name">ProRes</property>
  <property name="meta.media.1.codec.bit_rate">176140696</property>
  <property name="meta.attr.1.stream.creation_time.markup">2017-11-24T01:43:03.000000Z</property>
  <property name="meta.attr.1.stream.language.markup">eng</property>
  <property name="meta.attr.1.stream.handler_name.markup">Apple Alias Data Handler</property>
  <property name="meta.attr.1.stream.encoder.markup">Apple ProRes 422 HQ</property>
  <property name="meta.attr.1.stream.timecode.markup">01:43:03:00</property>
  <property name="meta.media.2.stream.type">audio</property>
  <property name="meta.media.2.codec.sample_fmt">s32</property>
  <property name="meta.media.2.codec.sample_rate">48000</property>
  <property name="meta.media.2.codec.channels">2</property>
  <property name="meta.media.2.codec.name">pcm_s24le</property>
  <property name="meta.media.2.codec.long_name">PCM signed 24-bit little-endian</property>
  <property name="meta.media.2.codec.bit_rate">2304000</property>
  <property name="meta.attr.2.stream.creation_time.markup">2017-11-24T01:43:03.000000Z</property>
  <property name="meta.attr.2.stream.language.markup">eng</property>
  <property name="meta.attr.2.stream.handler_name.markup">Apple Alias Data Handler</property>
  <property name="meta.attr.2.stream.timecode.markup">01:43:03:00</property>
  <property name="meta.attr.com.apple.proapps.manufacturer.markup">Blackmagic Design</property>
  <property name="meta.attr.com.apple.proapps.cameraName.markup">CAM2</property>
  <property name="meta.attr.com.apple.proapps.isGood.markup">0</property>
  <property name="meta.attr.com.apple.proapps.customgamma.markup">com.blackmagic-design.cinemacamera.filmlog</property>
  <property name="meta.attr.com.blackmagic-design.cinemacamera.uuid.markup">18E5E00548F94923B646613A73C01B56</property>
  <property name="meta.attr.creation_time.markup">2017-11-24T01:43:03.000000Z</property>
  <property name="meta.attr.timecode.markup">01:43:03:00</property>
  <property name="seekable">1</property>
  <property name="meta.media.sample_aspect_num">1</property>
  <property name="meta.media.sample_aspect_den">1</property>
  <property name="aspect_ratio">1</property>
  <property name="kdenlive:folderid">-1</property>
  <property name="kdenlive:file_size">4692771041</property>
  <property name="kdenlive:file_hash">9f6e41c981f7658d7aa446ca21b52691</property>
  <property name="kdenlive:proxy">-</property>
  <property name="proxy_out">5047</property>
  <property name="kdenlive:originalurl">src/04-06_Couplet2/mao1.sshfs/CAM2_2017-11-24_0143_C0001.mov</property>
  <property name="global_feed">1</property>
  <property name="kdenlive:meta.media.nb_streams">3</property>
  <property name="kdenlive:meta.media.1.stream.type">video</property>
  <property name="kdenlive:meta.media.1.stream.frame_rate">24</property>
  <property name="kdenlive:meta.media.1.stream.sample_aspect_ratio">1</property>
  <property name="kdenlive:meta.media.1.codec.width">1920</property>
  <property name="kdenlive:meta.media.1.codec.height">1080</property>
  <property name="kdenlive:meta.media.1.codec.rotate">0</property>
  <property name="kdenlive:meta.media.1.codec.frame_rate">2400</property>
  <property name="kdenlive:meta.media.1.codec.pix_fmt">yuv422p10le</property>
  <property name="kdenlive:meta.media.1.codec.sample_aspect_ratio">0</property>
  <property name="kdenlive:meta.media.1.codec.colorspace">709</property>
  <property name="kdenlive:meta.media.1.codec.color_trc">1</property>
  <property name="kdenlive:meta.media.1.codec.name">prores</property>
  <property name="kdenlive:meta.media.1.codec.long_name">ProRes</property>
  <property name="kdenlive:meta.media.1.codec.bit_rate">176140696</property>
  <property name="kdenlive:meta.attr.1.stream.creation_time.markup">2017-11-24T01:43:03.000000Z</property>
  <property name="kdenlive:meta.attr.1.stream.language.markup">eng</property>
  <property name="kdenlive:meta.attr.1.stream.handler_name.markup">Apple Alias Data Handler</property>
  <property name="kdenlive:meta.attr.1.stream.encoder.markup">Apple ProRes 422 HQ</property>
  <property name="kdenlive:meta.attr.1.stream.timecode.markup">01:43:03:00</property>
  <property name="kdenlive:meta.media.2.stream.type">audio</property>
  <property name="kdenlive:meta.media.2.codec.sample_fmt">s32</property>
  <property name="kdenlive:meta.media.2.codec.sample_rate">48000</property>
  <property name="kdenlive:meta.media.2.codec.channels">2</property>
  <property name="kdenlive:meta.media.2.codec.name">pcm_s24le</property>
  <property name="kdenlive:meta.media.2.codec.long_name">PCM signed 24-bit little-endian</property>
  <property name="kdenlive:meta.media.2.codec.bit_rate">2304000</property>
  <property name="kdenlive:meta.attr.2.stream.creation_time.markup">2017-11-24T01:43:03.000000Z</property>
  <property name="kdenlive:meta.attr.2.stream.language.markup">eng</property>
  <property name="kdenlive:meta.attr.2.stream.handler_name.markup">Apple Alias Data Handler</property>
  <property name="kdenlive:meta.attr.2.stream.timecode.markup">01:43:03:00</property>
  <property name="kdenlive:meta.attr.com.apple.proapps.manufacturer.markup">Blackmagic Design</property>
  <property name="kdenlive:meta.attr.com.apple.proapps.cameraName.markup">CAM2</property>
  <property name="kdenlive:meta.attr.com.apple.proapps.isGood.markup">0</property>
  <property name="kdenlive:meta.attr.com.apple.proapps.customgamma.markup">com.blackmagic-design.cinemacamera.filmlog</property>
  <property name="kdenlive:meta.attr.com.blackmagic-design.cinemacamera.uuid.markup">18E5E00548F94923B646613A73C01B56</property>
  <property name="kdenlive:meta.attr.creation_time.markup">2017-11-24T01:43:03.000000Z</property>
  <property name="kdenlive:meta.attr.timecode.markup">01:43:03:00</property>
  <property name="kdenlive:meta.media.sample_aspect_num">1</property>
  <property name="kdenlive:meta.media.sample_aspect_den">1</property>
  <property name="kdenlive:meta.media.frame_rate_num">24</property>
  <property name="kdenlive:meta.media.frame_rate_den">1</property>
  <property name="kdenlive:meta.media.colorspace">709</property>
  <property name="kdenlive:meta.media.color_trc">1</property>
  <property name="kdenlive:meta.media.width">1920</property>
  <property name="kdenlive:meta.media.height">1080</property>
  <property name="kdenlive:meta.media.top_field_first">0</property>
  <property name="kdenlive:meta.media.progressive">1</property>
  <property name="meta.media.frame_rate_num">24</property>
  <property name="meta.media.frame_rate_den">1</property>
  <property name="meta.media.colorspace">709</property>
  <property name="meta.media.color_trc">1</property>
  <property name="meta.media.width">1920</property>
  <property name="meta.media.height">1080</property>
  <property name="meta.media.top_field_first">0</property>
  <property name="meta.media.progressive">1</property>
 </producer>
 <producer id="10" title="Anonymous Submission" out="2728" in="0">
  <property name="length">00:01:53:17</property>
  <property name="eof">pause</property>
  <property name="resource">src/TheWholeRushes/Samedi_matin/CAM2_2017-11-24_0148_C0002.mov</property>
  <property name="audio_index">2</property>
  <property name="video_index">1</property>
  <property name="mute_on_pause">1</property>
  <property name="mlt_service">avformat-novalidate</property>
  <property name="meta.media.nb_streams">3</property>
  <property name="meta.media.1.stream.type">video</property>
  <property name="meta.media.1.stream.frame_rate">24</property>
  <property name="meta.media.1.stream.sample_aspect_ratio">1</property>
  <property name="meta.media.1.codec.width">1920</property>
  <property name="meta.media.1.codec.height">1080</property>
  <property name="meta.media.1.codec.rotate">0</property>
  <property name="meta.media.1.codec.frame_rate">2400</property>
  <property name="meta.media.1.codec.pix_fmt">yuv422p10le</property>
  <property name="meta.media.1.codec.sample_aspect_ratio">0</property>
  <property name="meta.media.1.codec.colorspace">709</property>
  <property name="meta.media.1.codec.color_trc">1</property>
  <property name="meta.media.1.codec.name">prores</property>
  <property name="meta.media.1.codec.long_name">ProRes</property>
  <property name="meta.media.1.codec.bit_rate">176141156</property>
  <property name="meta.attr.1.stream.creation_time.markup">2017-11-24T01:48:50.000000Z</property>
  <property name="meta.attr.1.stream.language.markup">eng</property>
  <property name="meta.attr.1.stream.handler_name.markup">Apple Alias Data Handler</property>
  <property name="meta.attr.1.stream.encoder.markup">Apple ProRes 422 HQ</property>
  <property name="meta.attr.1.stream.timecode.markup">01:48:50:12</property>
  <property name="meta.media.2.stream.type">audio</property>
  <property name="meta.media.2.codec.sample_fmt">s32</property>
  <property name="meta.media.2.codec.sample_rate">48000</property>
  <property name="meta.media.2.codec.channels">2</property>
  <property name="meta.media.2.codec.name">pcm_s24le</property>
  <property name="meta.media.2.codec.long_name">PCM signed 24-bit little-endian</property>
  <property name="meta.media.2.codec.bit_rate">2304000</property>
  <property name="meta.attr.2.stream.creation_time.markup">2017-11-24T01:48:50.000000Z</property>
  <property name="meta.attr.2.stream.language.markup">eng</property>
  <property name="meta.attr.2.stream.handler_name.markup">Apple Alias Data Handler</property>
  <property name="meta.attr.2.stream.timecode.markup">01:48:50:12</property>
  <property name="meta.attr.com.apple.proapps.manufacturer.markup">Blackmagic Design</property>
  <property name="meta.attr.com.apple.proapps.cameraName.markup">CAM2</property>
  <property name="meta.attr.com.apple.proapps.isGood.markup">0</property>
  <property name="meta.attr.com.apple.proapps.customgamma.markup">com.blackmagic-design.cinemacamera.filmlog</property>
  <property name="meta.attr.com.blackmagic-design.cinemacamera.uuid.markup">18E5E00548F94923B646613A73C01B56</property>
  <property name="meta.attr.creation_time.markup">2017-11-24T01:48:50.000000Z</property>
  <property name="meta.attr.timecode.markup">01:48:50:12</property>
  <property name="seekable">1</property>
  <property name="meta.media.sample_aspect_num">1</property>
  <property name="meta.media.sample_aspect_den">1</property>
  <property name="aspect_ratio">1</property>
  <property name="kdenlive:folderid">-1</property>
  <property name="kdenlive:file_size">2536962009</property>
  <property name="kdenlive:file_hash">302d091637657ca34b70898f916f892b</property>
  <property name="kdenlive:proxy">-</property>
  <property name="proxy_out">2728</property>
  <property name="kdenlive:originalurl">src/04-06_Couplet2/mao1.sshfs/CAM2_2017-11-24_0148_C0002.mov</property>
  <property name="global_feed">1</property>
  <property name="kdenlive:meta.media.nb_streams">3</property>
  <property name="kdenlive:meta.media.1.stream.type">video</property>
  <property name="kdenlive:meta.media.1.stream.frame_rate">24</property>
  <property name="kdenlive:meta.media.1.stream.sample_aspect_ratio">1</property>
  <property name="kdenlive:meta.media.1.codec.width">1920</property>
  <property name="kdenlive:meta.media.1.codec.height">1080</property>
  <property name="kdenlive:meta.media.1.codec.rotate">0</property>
  <property name="kdenlive:meta.media.1.codec.frame_rate">2400</property>
  <property name="kdenlive:meta.media.1.codec.pix_fmt">yuv422p10le</property>
  <property name="kdenlive:meta.media.1.codec.sample_aspect_ratio">0</property>
  <property name="kdenlive:meta.media.1.codec.colorspace">709</property>
  <property name="kdenlive:meta.media.1.codec.color_trc">1</property>
  <property name="kdenlive:meta.media.1.codec.name">prores</property>
  <property name="kdenlive:meta.media.1.codec.long_name">ProRes</property>
  <property name="kdenlive:meta.media.1.codec.bit_rate">176141156</property>
  <property name="kdenlive:meta.attr.1.stream.creation_time.markup">2017-11-24T01:48:50.000000Z</property>
  <property name="kdenlive:meta.attr.1.stream.language.markup">eng</property>
  <property name="kdenlive:meta.attr.1.stream.handler_name.markup">Apple Alias Data Handler</property>
  <property name="kdenlive:meta.attr.1.stream.encoder.markup">Apple ProRes 422 HQ</property>
  <property name="kdenlive:meta.attr.1.stream.timecode.markup">01:48:50:12</property>
  <property name="kdenlive:meta.media.2.stream.type">audio</property>
  <property name="kdenlive:meta.media.2.codec.sample_fmt">s32</property>
  <property name="kdenlive:meta.media.2.codec.sample_rate">48000</property>
  <property name="kdenlive:meta.media.2.codec.channels">2</property>
  <property name="kdenlive:meta.media.2.codec.name">pcm_s24le</property>
  <property name="kdenlive:meta.media.2.codec.long_name">PCM signed 24-bit little-endian</property>
  <property name="kdenlive:meta.media.2.codec.bit_rate">2304000</property>
  <property name="kdenlive:meta.attr.2.stream.creation_time.markup">2017-11-24T01:48:50.000000Z</property>
  <property name="kdenlive:meta.attr.2.stream.language.markup">eng</property>
  <property name="kdenlive:meta.attr.2.stream.handler_name.markup">Apple Alias Data Handler</property>
  <property name="kdenlive:meta.attr.2.stream.timecode.markup">01:48:50:12</property>
  <property name="kdenlive:meta.attr.com.apple.proapps.manufacturer.markup">Blackmagic Design</property>
  <property name="kdenlive:meta.attr.com.apple.proapps.cameraName.markup">CAM2</property>
  <property name="kdenlive:meta.attr.com.apple.proapps.isGood.markup">0</property>
  <property name="kdenlive:meta.attr.com.apple.proapps.customgamma.markup">com.blackmagic-design.cinemacamera.filmlog</property>
  <property name="kdenlive:meta.attr.com.blackmagic-design.cinemacamera.uuid.markup">18E5E00548F94923B646613A73C01B56</property>
  <property name="kdenlive:meta.attr.creation_time.markup">2017-11-24T01:48:50.000000Z</property>
  <property name="kdenlive:meta.attr.timecode.markup">01:48:50:12</property>
  <property name="kdenlive:meta.media.sample_aspect_num">1</property>
  <property name="kdenlive:meta.media.sample_aspect_den">1</property>
  <property name="kdenlive:meta.media.frame_rate_num">24</property>
  <property name="kdenlive:meta.media.frame_rate_den">1</property>
  <property name="kdenlive:meta.media.colorspace">709</property>
  <property name="kdenlive:meta.media.color_trc">1</property>
  <property name="kdenlive:meta.media.width">1920</property>
  <property name="kdenlive:meta.media.height">1080</property>
  <property name="kdenlive:meta.media.top_field_first">0</property>
  <property name="kdenlive:meta.media.progressive">1</property>
  <property name="meta.media.frame_rate_num">24</property>
  <property name="meta.media.frame_rate_den">1</property>
  <property name="meta.media.colorspace">709</property>
  <property name="meta.media.color_trc">1</property>
  <property name="meta.media.width">1920</property>
  <property name="meta.media.height">1080</property>
  <property name="meta.media.top_field_first">0</property>
  <property name="meta.media.progressive">1</property>
 </producer>
 <producer id="11" title="Anonymous Submission" out="1866" in="0">
  <property name="length">00:01:17:19</property>
  <property name="eof">pause</property>
  <property name="resource">src/TheWholeRushes/Samedi_matin/CAM2_2017-11-24_0152_C0003.mov</property>
  <property name="audio_index">2</property>
  <property name="video_index">1</property>
  <property name="mute_on_pause">1</property>
  <property name="mlt_service">avformat-novalidate</property>
  <property name="meta.media.nb_streams">3</property>
  <property name="meta.media.1.stream.type">video</property>
  <property name="meta.media.1.stream.frame_rate">24</property>
  <property name="meta.media.1.stream.sample_aspect_ratio">1</property>
  <property name="meta.media.1.codec.width">1920</property>
  <property name="meta.media.1.codec.height">1080</property>
  <property name="meta.media.1.codec.rotate">0</property>
  <property name="meta.media.1.codec.frame_rate">2400</property>
  <property name="meta.media.1.codec.pix_fmt">yuv422p10le</property>
  <property name="meta.media.1.codec.sample_aspect_ratio">0</property>
  <property name="meta.media.1.codec.colorspace">709</property>
  <property name="meta.media.1.codec.color_trc">1</property>
  <property name="meta.media.1.codec.name">prores</property>
  <property name="meta.media.1.codec.long_name">ProRes</property>
  <property name="meta.media.1.codec.bit_rate">176140680</property>
  <property name="meta.attr.1.stream.creation_time.markup">2017-11-24T01:52:33.000000Z</property>
  <property name="meta.attr.1.stream.language.markup">eng</property>
  <property name="meta.attr.1.stream.handler_name.markup">Apple Alias Data Handler</property>
  <property name="meta.attr.1.stream.encoder.markup">Apple ProRes 422 HQ</property>
  <property name="meta.attr.1.stream.timecode.markup">01:52:33:01</property>
  <property name="meta.media.2.stream.type">audio</property>
  <property name="meta.media.2.codec.sample_fmt">s32</property>
  <property name="meta.media.2.codec.sample_rate">48000</property>
  <property name="meta.media.2.codec.channels">2</property>
  <property name="meta.media.2.codec.name">pcm_s24le</property>
  <property name="meta.media.2.codec.long_name">PCM signed 24-bit little-endian</property>
  <property name="meta.media.2.codec.bit_rate">2304000</property>
  <property name="meta.attr.2.stream.creation_time.markup">2017-11-24T01:52:33.000000Z</property>
  <property name="meta.attr.2.stream.language.markup">eng</property>
  <property name="meta.attr.2.stream.handler_name.markup">Apple Alias Data Handler</property>
  <property name="meta.attr.2.stream.timecode.markup">01:52:33:01</property>
  <property name="meta.attr.com.apple.proapps.manufacturer.markup">Blackmagic Design</property>
  <property name="meta.attr.com.apple.proapps.cameraName.markup">CAM2</property>
  <property name="meta.attr.com.apple.proapps.isGood.markup">0</property>
  <property name="meta.attr.com.apple.proapps.customgamma.markup">com.blackmagic-design.cinemacamera.filmlog</property>
  <property name="meta.attr.com.blackmagic-design.cinemacamera.uuid.markup">18E5E00548F94923B646613A73C01B56</property>
  <property name="meta.attr.creation_time.markup">2017-11-24T01:52:33.000000Z</property>
  <property name="meta.attr.timecode.markup">01:52:33:01</property>
  <property name="seekable">1</property>
  <property name="meta.media.sample_aspect_num">1</property>
  <property name="meta.media.sample_aspect_den">1</property>
  <property name="aspect_ratio">1</property>
  <property name="kdenlive:folderid">-1</property>
  <property name="kdenlive:file_size">1735623353</property>
  <property name="kdenlive:file_hash">135377d0fb800f4c0227e31eacc02d7f</property>
  <property name="kdenlive:proxy">-</property>
  <property name="proxy_out">1866</property>
  <property name="kdenlive:originalurl">src/04-06_Couplet2/mao1.sshfs/CAM2_2017-11-24_0152_C0003.mov</property>
  <property name="global_feed">1</property>
  <property name="kdenlive:meta.media.nb_streams">3</property>
  <property name="kdenlive:meta.media.1.stream.type">video</property>
  <property name="kdenlive:meta.media.1.stream.frame_rate">24</property>
  <property name="kdenlive:meta.media.1.stream.sample_aspect_ratio">1</property>
  <property name="kdenlive:meta.media.1.codec.width">1920</property>
  <property name="kdenlive:meta.media.1.codec.height">1080</property>
  <property name="kdenlive:meta.media.1.codec.rotate">0</property>
  <property name="kdenlive:meta.media.1.codec.frame_rate">2400</property>
  <property name="kdenlive:meta.media.1.codec.pix_fmt">yuv422p10le</property>
  <property name="kdenlive:meta.media.1.codec.sample_aspect_ratio">0</property>
  <property name="kdenlive:meta.media.1.codec.colorspace">709</property>
  <property name="kdenlive:meta.media.1.codec.color_trc">1</property>
  <property name="kdenlive:meta.media.1.codec.name">prores</property>
  <property name="kdenlive:meta.media.1.codec.long_name">ProRes</property>
  <property name="kdenlive:meta.media.1.codec.bit_rate">176140680</property>
  <property name="kdenlive:meta.attr.1.stream.creation_time.markup">2017-11-24T01:52:33.000000Z</property>
  <property name="kdenlive:meta.attr.1.stream.language.markup">eng</property>
  <property name="kdenlive:meta.attr.1.stream.handler_name.markup">Apple Alias Data Handler</property>
  <property name="kdenlive:meta.attr.1.stream.encoder.markup">Apple ProRes 422 HQ</property>
  <property name="kdenlive:meta.attr.1.stream.timecode.markup">01:52:33:01</property>
  <property name="kdenlive:meta.media.2.stream.type">audio</property>
  <property name="kdenlive:meta.media.2.codec.sample_fmt">s32</property>
  <property name="kdenlive:meta.media.2.codec.sample_rate">48000</property>
  <property name="kdenlive:meta.media.2.codec.channels">2</property>
  <property name="kdenlive:meta.media.2.codec.name">pcm_s24le</property>
  <property name="kdenlive:meta.media.2.codec.long_name">PCM signed 24-bit little-endian</property>
  <property name="kdenlive:meta.media.2.codec.bit_rate">2304000</property>
  <property name="kdenlive:meta.attr.2.stream.creation_time.markup">2017-11-24T01:52:33.000000Z</property>
  <property name="kdenlive:meta.attr.2.stream.language.markup">eng</property>
  <property name="kdenlive:meta.attr.2.stream.handler_name.markup">Apple Alias Data Handler</property>
  <property name="kdenlive:meta.attr.2.stream.timecode.markup">01:52:33:01</property>
  <property name="kdenlive:meta.attr.com.apple.proapps.manufacturer.markup">Blackmagic Design</property>
  <property name="kdenlive:meta.attr.com.apple.proapps.cameraName.markup">CAM2</property>
  <property name="kdenlive:meta.attr.com.apple.proapps.isGood.markup">0</property>
  <property name="kdenlive:meta.attr.com.apple.proapps.customgamma.markup">com.blackmagic-design.cinemacamera.filmlog</property>
  <property name="kdenlive:meta.attr.com.blackmagic-design.cinemacamera.uuid.markup">18E5E00548F94923B646613A73C01B56</property>
  <property name="kdenlive:meta.attr.creation_time.markup">2017-11-24T01:52:33.000000Z</property>
  <property name="kdenlive:meta.attr.timecode.markup">01:52:33:01</property>
  <property name="kdenlive:meta.media.sample_aspect_num">1</property>
  <property name="kdenlive:meta.media.sample_aspect_den">1</property>
  <property name="kdenlive:meta.media.frame_rate_num">24</property>
  <property name="kdenlive:meta.media.frame_rate_den">1</property>
  <property name="kdenlive:meta.media.colorspace">709</property>
  <property name="kdenlive:meta.media.color_trc">1</property>
  <property name="kdenlive:meta.media.width">1920</property>
  <property name="kdenlive:meta.media.height">1080</property>
  <property name="kdenlive:meta.media.top_field_first">0</property>
  <property name="kdenlive:meta.media.progressive">1</property>
  <property name="meta.media.frame_rate_num">24</property>
  <property name="meta.media.frame_rate_den">1</property>
  <property name="meta.media.colorspace">709</property>
  <property name="meta.media.color_trc">1</property>
  <property name="meta.media.width">1920</property>
  <property name="meta.media.height">1080</property>
  <property name="meta.media.top_field_first">0</property>
  <property name="meta.media.progressive">1</property>
 </producer>
 <producer id="12" title="Anonymous Submission" out="16944" in="0">
  <property name="length">00:11:46:01</property>
  <property name="eof">pause</property>
  <property name="resource">src/TheWholeRushes/Samedi_matin/CAM2_2017-11-24_0212_C0004.mov</property>
  <property name="audio_index">2</property>
  <property name="video_index">1</property>
  <property name="mute_on_pause">1</property>
  <property name="mlt_service">avformat-novalidate</property>
  <property name="meta.media.nb_streams">3</property>
  <property name="meta.media.1.stream.type">video</property>
  <property name="meta.media.1.stream.frame_rate">24</property>
  <property name="meta.media.1.stream.sample_aspect_ratio">1</property>
  <property name="meta.media.1.codec.width">1920</property>
  <property name="meta.media.1.codec.height">1080</property>
  <property name="meta.media.1.codec.rotate">0</property>
  <property name="meta.media.1.codec.frame_rate">2400</property>
  <property name="meta.media.1.codec.pix_fmt">yuv422p10le</property>
  <property name="meta.media.1.codec.sample_aspect_ratio">0</property>
  <property name="meta.media.1.codec.colorspace">709</property>
  <property name="meta.media.1.codec.color_trc">1</property>
  <property name="meta.media.1.codec.name">prores</property>
  <property name="meta.media.1.codec.long_name">ProRes</property>
  <property name="meta.media.1.codec.bit_rate">176140201</property>
  <property name="meta.attr.1.stream.creation_time.markup">2017-11-24T02:12:00.000000Z</property>
  <property name="meta.attr.1.stream.language.markup">eng</property>
  <property name="meta.attr.1.stream.handler_name.markup">Apple Alias Data Handler</property>
  <property name="meta.attr.1.stream.encoder.markup">Apple ProRes 422 HQ</property>
  <property name="meta.attr.1.stream.timecode.markup">02:12:00:10</property>
  <property name="meta.media.2.stream.type">audio</property>
  <property name="meta.media.2.codec.sample_fmt">s32</property>
  <property name="meta.media.2.codec.sample_rate">48000</property>
  <property name="meta.media.2.codec.channels">2</property>
  <property name="meta.media.2.codec.name">pcm_s24le</property>
  <property name="meta.media.2.codec.long_name">PCM signed 24-bit little-endian</property>
  <property name="meta.media.2.codec.bit_rate">2304000</property>
  <property name="meta.attr.2.stream.creation_time.markup">2017-11-24T02:12:00.000000Z</property>
  <property name="meta.attr.2.stream.language.markup">eng</property>
  <property name="meta.attr.2.stream.handler_name.markup">Apple Alias Data Handler</property>
  <property name="meta.attr.2.stream.timecode.markup">02:12:00:10</property>
  <property name="meta.attr.com.apple.proapps.manufacturer.markup">Blackmagic Design</property>
  <property name="meta.attr.com.apple.proapps.cameraName.markup">CAM2</property>
  <property name="meta.attr.com.apple.proapps.isGood.markup">0</property>
  <property name="meta.attr.com.apple.proapps.customgamma.markup">com.blackmagic-design.cinemacamera.filmlog</property>
  <property name="meta.attr.com.blackmagic-design.cinemacamera.uuid.markup">18E5E00548F94923B646613A73C01B56</property>
  <property name="meta.attr.creation_time.markup">2017-11-24T02:12:00.000000Z</property>
  <property name="meta.attr.timecode.markup">02:12:00:10</property>
  <property name="seekable">1</property>
  <property name="meta.media.sample_aspect_num">1</property>
  <property name="meta.media.sample_aspect_den">1</property>
  <property name="aspect_ratio">1</property>
  <property name="kdenlive:folderid">-1</property>
  <property name="kdenlive:file_size">15752546401</property>
  <property name="kdenlive:file_hash">66fdce4b25a5795b28b8edb5cd4585a3</property>
  <property name="kdenlive:proxy">-</property>
  <property name="proxy_out">16944</property>
  <property name="kdenlive:originalurl">src/04-06_Couplet2/mao1.sshfs/CAM2_2017-11-24_0212_C0004.mov</property>
  <property name="global_feed">1</property>
  <property name="kdenlive:meta.media.nb_streams">3</property>
  <property name="kdenlive:meta.media.1.stream.type">video</property>
  <property name="kdenlive:meta.media.1.stream.frame_rate">24</property>
  <property name="kdenlive:meta.media.1.stream.sample_aspect_ratio">1</property>
  <property name="kdenlive:meta.media.1.codec.width">1920</property>
  <property name="kdenlive:meta.media.1.codec.height">1080</property>
  <property name="kdenlive:meta.media.1.codec.rotate">0</property>
  <property name="kdenlive:meta.media.1.codec.frame_rate">2400</property>
  <property name="kdenlive:meta.media.1.codec.pix_fmt">yuv422p10le</property>
  <property name="kdenlive:meta.media.1.codec.sample_aspect_ratio">0</property>
  <property name="kdenlive:meta.media.1.codec.colorspace">709</property>
  <property name="kdenlive:meta.media.1.codec.color_trc">1</property>
  <property name="kdenlive:meta.media.1.codec.name">prores</property>
  <property name="kdenlive:meta.media.1.codec.long_name">ProRes</property>
  <property name="kdenlive:meta.media.1.codec.bit_rate">176140201</property>
  <property name="kdenlive:meta.attr.1.stream.creation_time.markup">2017-11-24T02:12:00.000000Z</property>
  <property name="kdenlive:meta.attr.1.stream.language.markup">eng</property>
  <property name="kdenlive:meta.attr.1.stream.handler_name.markup">Apple Alias Data Handler</property>
  <property name="kdenlive:meta.attr.1.stream.encoder.markup">Apple ProRes 422 HQ</property>
  <property name="kdenlive:meta.attr.1.stream.timecode.markup">02:12:00:10</property>
  <property name="kdenlive:meta.media.2.stream.type">audio</property>
  <property name="kdenlive:meta.media.2.codec.sample_fmt">s32</property>
  <property name="kdenlive:meta.media.2.codec.sample_rate">48000</property>
  <property name="kdenlive:meta.media.2.codec.channels">2</property>
  <property name="kdenlive:meta.media.2.codec.name">pcm_s24le</property>
  <property name="kdenlive:meta.media.2.codec.long_name">PCM signed 24-bit little-endian</property>
  <property name="kdenlive:meta.media.2.codec.bit_rate">2304000</property>
  <property name="kdenlive:meta.attr.2.stream.creation_time.markup">2017-11-24T02:12:00.000000Z</property>
  <property name="kdenlive:meta.attr.2.stream.language.markup">eng</property>
  <property name="kdenlive:meta.attr.2.stream.handler_name.markup">Apple Alias Data Handler</property>
  <property name="kdenlive:meta.attr.2.stream.timecode.markup">02:12:00:10</property>
  <property name="kdenlive:meta.attr.com.apple.proapps.manufacturer.markup">Blackmagic Design</property>
  <property name="kdenlive:meta.attr.com.apple.proapps.cameraName.markup">CAM2</property>
  <property name="kdenlive:meta.attr.com.apple.proapps.isGood.markup">0</property>
  <property name="kdenlive:meta.attr.com.apple.proapps.customgamma.markup">com.blackmagic-design.cinemacamera.filmlog</property>
  <property name="kdenlive:meta.attr.com.blackmagic-design.cinemacamera.uuid.markup">18E5E00548F94923B646613A73C01B56</property>
  <property name="kdenlive:meta.attr.creation_time.markup">2017-11-24T02:12:00.000000Z</property>
  <property name="kdenlive:meta.attr.timecode.markup">02:12:00:10</property>
  <property name="kdenlive:meta.media.sample_aspect_num">1</property>
  <property name="kdenlive:meta.media.sample_aspect_den">1</property>
  <property name="kdenlive:meta.media.frame_rate_num">24</property>
  <property name="kdenlive:meta.media.frame_rate_den">1</property>
  <property name="kdenlive:meta.media.colorspace">709</property>
  <property name="kdenlive:meta.media.color_trc">1</property>
  <property name="kdenlive:meta.media.width">1920</property>
  <property name="kdenlive:meta.media.height">1080</property>
  <property name="kdenlive:meta.media.top_field_first">0</property>
  <property name="kdenlive:meta.media.progressive">1</property>
  <property name="meta.media.frame_rate_num">24</property>
  <property name="meta.media.frame_rate_den">1</property>
  <property name="meta.media.colorspace">709</property>
  <property name="meta.media.color_trc">1</property>
  <property name="meta.media.width">1920</property>
  <property name="meta.media.height">1080</property>
  <property name="meta.media.top_field_first">0</property>
  <property name="meta.media.progressive">1</property>
 </producer>
 <producer id="13" title="Anonymous Submission" out="4885" in="0">
  <property name="length">00:03:23:14</property>
  <property name="eof">pause</property>
  <property name="resource">src/TheWholeRushes/Samedi_matin/CAM2_2017-11-24_0236_C0005.mov</property>
  <property name="audio_index">2</property>
  <property name="video_index">1</property>
  <property name="mute_on_pause">1</property>
  <property name="mlt_service">avformat-novalidate</property>
  <property name="meta.media.nb_streams">3</property>
  <property name="meta.media.1.stream.type">video</property>
  <property name="meta.media.1.stream.frame_rate">24</property>
  <property name="meta.media.1.stream.sample_aspect_ratio">1</property>
  <property name="meta.media.1.codec.width">1920</property>
  <property name="meta.media.1.codec.height">1080</property>
  <property name="meta.media.1.codec.rotate">0</property>
  <property name="meta.media.1.codec.frame_rate">2400</property>
  <property name="meta.media.1.codec.pix_fmt">yuv422p10le</property>
  <property name="meta.media.1.codec.sample_aspect_ratio">0</property>
  <property name="meta.media.1.codec.colorspace">709</property>
  <property name="meta.media.1.codec.color_trc">1</property>
  <property name="meta.media.1.codec.name">prores</property>
  <property name="meta.media.1.codec.long_name">ProRes</property>
  <property name="meta.media.1.codec.bit_rate">176139589</property>
  <property name="meta.attr.1.stream.creation_time.markup">2017-11-24T02:36:10.000000Z</property>
  <property name="meta.attr.1.stream.language.markup">eng</property>
  <property name="meta.attr.1.stream.handler_name.markup">Apple Alias Data Handler</property>
  <property name="meta.attr.1.stream.encoder.markup">Apple ProRes 422 HQ</property>
  <property name="meta.attr.1.stream.timecode.markup">02:36:10:06</property>
  <property name="meta.media.2.stream.type">audio</property>
  <property name="meta.media.2.codec.sample_fmt">s32</property>
  <property name="meta.media.2.codec.sample_rate">48000</property>
  <property name="meta.media.2.codec.channels">2</property>
  <property name="meta.media.2.codec.name">pcm_s24le</property>
  <property name="meta.media.2.codec.long_name">PCM signed 24-bit little-endian</property>
  <property name="meta.media.2.codec.bit_rate">2304000</property>
  <property name="meta.attr.2.stream.creation_time.markup">2017-11-24T02:36:10.000000Z</property>
  <property name="meta.attr.2.stream.language.markup">eng</property>
  <property name="meta.attr.2.stream.handler_name.markup">Apple Alias Data Handler</property>
  <property name="meta.attr.2.stream.timecode.markup">02:36:10:06</property>
  <property name="meta.attr.com.apple.proapps.manufacturer.markup">Blackmagic Design</property>
  <property name="meta.attr.com.apple.proapps.cameraName.markup">CAM2</property>
  <property name="meta.attr.com.apple.proapps.isGood.markup">0</property>
  <property name="meta.attr.com.apple.proapps.customgamma.markup">com.blackmagic-design.cinemacamera.filmlog</property>
  <property name="meta.attr.com.blackmagic-design.cinemacamera.uuid.markup">18E5E00548F94923B646613A73C01B56</property>
  <property name="meta.attr.creation_time.markup">2017-11-24T02:36:10.000000Z</property>
  <property name="meta.attr.timecode.markup">02:36:10:06</property>
  <property name="seekable">1</property>
  <property name="meta.media.sample_aspect_num">1</property>
  <property name="meta.media.sample_aspect_den">1</property>
  <property name="aspect_ratio">1</property>
  <property name="kdenlive:folderid">-1</property>
  <property name="kdenlive:file_size">4542172841</property>
  <property name="kdenlive:file_hash">91feebd31e13c0397d7c7f4aa158eeea</property>
  <property name="kdenlive:proxy">-</property>
  <property name="proxy_out">4885</property>
  <property name="kdenlive:originalurl">src/04-06_Couplet2/mao1.sshfs/CAM2_2017-11-24_0236_C0005.mov</property>
  <property name="global_feed">1</property>
  <property name="kdenlive:meta.media.nb_streams">3</property>
  <property name="kdenlive:meta.media.1.stream.type">video</property>
  <property name="kdenlive:meta.media.1.stream.frame_rate">24</property>
  <property name="kdenlive:meta.media.1.stream.sample_aspect_ratio">1</property>
  <property name="kdenlive:meta.media.1.codec.width">1920</property>
  <property name="kdenlive:meta.media.1.codec.height">1080</property>
  <property name="kdenlive:meta.media.1.codec.rotate">0</property>
  <property name="kdenlive:meta.media.1.codec.frame_rate">2400</property>
  <property name="kdenlive:meta.media.1.codec.pix_fmt">yuv422p10le</property>
  <property name="kdenlive:meta.media.1.codec.sample_aspect_ratio">0</property>
  <property name="kdenlive:meta.media.1.codec.colorspace">709</property>
  <property name="kdenlive:meta.media.1.codec.color_trc">1</property>
  <property name="kdenlive:meta.media.1.codec.name">prores</property>
  <property name="kdenlive:meta.media.1.codec.long_name">ProRes</property>
  <property name="kdenlive:meta.media.1.codec.bit_rate">176139589</property>
  <property name="kdenlive:meta.attr.1.stream.creation_time.markup">2017-11-24T02:36:10.000000Z</property>
  <property name="kdenlive:meta.attr.1.stream.language.markup">eng</property>
  <property name="kdenlive:meta.attr.1.stream.handler_name.markup">Apple Alias Data Handler</property>
  <property name="kdenlive:meta.attr.1.stream.encoder.markup">Apple ProRes 422 HQ</property>
  <property name="kdenlive:meta.attr.1.stream.timecode.markup">02:36:10:06</property>
  <property name="kdenlive:meta.media.2.stream.type">audio</property>
  <property name="kdenlive:meta.media.2.codec.sample_fmt">s32</property>
  <property name="kdenlive:meta.media.2.codec.sample_rate">48000</property>
  <property name="kdenlive:meta.media.2.codec.channels">2</property>
  <property name="kdenlive:meta.media.2.codec.name">pcm_s24le</property>
  <property name="kdenlive:meta.media.2.codec.long_name">PCM signed 24-bit little-endian</property>
  <property name="kdenlive:meta.media.2.codec.bit_rate">2304000</property>
  <property name="kdenlive:meta.attr.2.stream.creation_time.markup">2017-11-24T02:36:10.000000Z</property>
  <property name="kdenlive:meta.attr.2.stream.language.markup">eng</property>
  <property name="kdenlive:meta.attr.2.stream.handler_name.markup">Apple Alias Data Handler</property>
  <property name="kdenlive:meta.attr.2.stream.timecode.markup">02:36:10:06</property>
  <property name="kdenlive:meta.attr.com.apple.proapps.manufacturer.markup">Blackmagic Design</property>
  <property name="kdenlive:meta.attr.com.apple.proapps.cameraName.markup">CAM2</property>
  <property name="kdenlive:meta.attr.com.apple.proapps.isGood.markup">0</property>
  <property name="kdenlive:meta.attr.com.apple.proapps.customgamma.markup">com.blackmagic-design.cinemacamera.filmlog</property>
  <property name="kdenlive:meta.attr.com.blackmagic-design.cinemacamera.uuid.markup">18E5E00548F94923B646613A73C01B56</property>
  <property name="kdenlive:meta.attr.creation_time.markup">2017-11-24T02:36:10.000000Z</property>
  <property name="kdenlive:meta.attr.timecode.markup">02:36:10:06</property>
  <property name="kdenlive:meta.media.sample_aspect_num">1</property>
  <property name="kdenlive:meta.media.sample_aspect_den">1</property>
  <property name="kdenlive:meta.media.frame_rate_num">24</property>
  <property name="kdenlive:meta.media.frame_rate_den">1</property>
  <property name="kdenlive:meta.media.colorspace">709</property>
  <property name="kdenlive:meta.media.color_trc">1</property>
  <property name="kdenlive:meta.media.width">1920</property>
  <property name="kdenlive:meta.media.height">1080</property>
  <property name="kdenlive:meta.media.top_field_first">0</property>
  <property name="kdenlive:meta.media.progressive">1</property>
  <property name="meta.media.frame_rate_num">24</property>
  <property name="meta.media.frame_rate_den">1</property>
  <property name="meta.media.colorspace">709</property>
  <property name="meta.media.color_trc">1</property>
  <property name="meta.media.width">1920</property>
  <property name="meta.media.height">1080</property>
  <property name="meta.media.top_field_first">0</property>
  <property name="meta.media.progressive">1</property>
 </producer>
 <producer id="14" title="Anonymous Submission" out="6121" in="0">
  <property name="length">00:04:15:02</property>
  <property name="eof">pause</property>
  <property name="resource">src/TheWholeRushes/Samedi_matin/CAM2_2017-11-24_0243_C0006.mov</property>
  <property name="audio_index">2</property>
  <property name="video_index">1</property>
  <property name="mute_on_pause">1</property>
  <property name="mlt_service">avformat-novalidate</property>
  <property name="meta.media.nb_streams">3</property>
  <property name="meta.media.1.stream.type">video</property>
  <property name="meta.media.1.stream.frame_rate">24</property>
  <property name="meta.media.1.stream.sample_aspect_ratio">1</property>
  <property name="meta.media.1.codec.width">1920</property>
  <property name="meta.media.1.codec.height">1080</property>
  <property name="meta.media.1.codec.rotate">0</property>
  <property name="meta.media.1.codec.frame_rate">2400</property>
  <property name="meta.media.1.codec.pix_fmt">yuv422p10le</property>
  <property name="meta.media.1.codec.sample_aspect_ratio">0</property>
  <property name="meta.media.1.codec.colorspace">709</property>
  <property name="meta.media.1.codec.color_trc">1</property>
  <property name="meta.media.1.codec.name">prores</property>
  <property name="meta.media.1.codec.long_name">ProRes</property>
  <property name="meta.media.1.codec.bit_rate">176139611</property>
  <property name="meta.attr.1.stream.creation_time.markup">2017-11-24T02:43:43.000000Z</property>
  <property name="meta.attr.1.stream.language.markup">eng</property>
  <property name="meta.attr.1.stream.handler_name.markup">Apple Alias Data Handler</property>
  <property name="meta.attr.1.stream.encoder.markup">Apple ProRes 422 HQ</property>
  <property name="meta.attr.1.stream.timecode.markup">02:43:43:06</property>
  <property name="meta.media.2.stream.type">audio</property>
  <property name="meta.media.2.codec.sample_fmt">s32</property>
  <property name="meta.media.2.codec.sample_rate">48000</property>
  <property name="meta.media.2.codec.channels">2</property>
  <property name="meta.media.2.codec.name">pcm_s24le</property>
  <property name="meta.media.2.codec.long_name">PCM signed 24-bit little-endian</property>
  <property name="meta.media.2.codec.bit_rate">2304000</property>
  <property name="meta.attr.2.stream.creation_time.markup">2017-11-24T02:43:43.000000Z</property>
  <property name="meta.attr.2.stream.language.markup">eng</property>
  <property name="meta.attr.2.stream.handler_name.markup">Apple Alias Data Handler</property>
  <property name="meta.attr.2.stream.timecode.markup">02:43:43:06</property>
  <property name="meta.attr.com.apple.proapps.manufacturer.markup">Blackmagic Design</property>
  <property name="meta.attr.com.apple.proapps.cameraName.markup">CAM2</property>
  <property name="meta.attr.com.apple.proapps.isGood.markup">0</property>
  <property name="meta.attr.com.apple.proapps.customgamma.markup">com.blackmagic-design.cinemacamera.filmlog</property>
  <property name="meta.attr.com.blackmagic-design.cinemacamera.uuid.markup">18E5E00548F94923B646613A73C01B56</property>
  <property name="meta.attr.creation_time.markup">2017-11-24T02:43:43.000000Z</property>
  <property name="meta.attr.timecode.markup">02:43:43:06</property>
  <property name="seekable">1</property>
  <property name="meta.media.sample_aspect_num">1</property>
  <property name="meta.media.sample_aspect_den">1</property>
  <property name="aspect_ratio">1</property>
  <property name="kdenlive:folderid">-1</property>
  <property name="kdenlive:file_size">5691189833</property>
  <property name="kdenlive:file_hash">138855e87eadd367db96162201652602</property>
  <property name="kdenlive:proxy">-</property>
  <property name="proxy_out">6121</property>
  <property name="kdenlive:originalurl">src/04-06_Couplet2/mao1.sshfs/CAM2_2017-11-24_0243_C0006.mov</property>
  <property name="global_feed">1</property>
  <property name="kdenlive:meta.media.nb_streams">3</property>
  <property name="kdenlive:meta.media.1.stream.type">video</property>
  <property name="kdenlive:meta.media.1.stream.frame_rate">24</property>
  <property name="kdenlive:meta.media.1.stream.sample_aspect_ratio">1</property>
  <property name="kdenlive:meta.media.1.codec.width">1920</property>
  <property name="kdenlive:meta.media.1.codec.height">1080</property>
  <property name="kdenlive:meta.media.1.codec.rotate">0</property>
  <property name="kdenlive:meta.media.1.codec.frame_rate">2400</property>
  <property name="kdenlive:meta.media.1.codec.pix_fmt">yuv422p10le</property>
  <property name="kdenlive:meta.media.1.codec.sample_aspect_ratio">0</property>
  <property name="kdenlive:meta.media.1.codec.colorspace">709</property>
  <property name="kdenlive:meta.media.1.codec.color_trc">1</property>
  <property name="kdenlive:meta.media.1.codec.name">prores</property>
  <property name="kdenlive:meta.media.1.codec.long_name">ProRes</property>
  <property name="kdenlive:meta.media.1.codec.bit_rate">176139611</property>
  <property name="kdenlive:meta.attr.1.stream.creation_time.markup">2017-11-24T02:43:43.000000Z</property>
  <property name="kdenlive:meta.attr.1.stream.language.markup">eng</property>
  <property name="kdenlive:meta.attr.1.stream.handler_name.markup">Apple Alias Data Handler</property>
  <property name="kdenlive:meta.attr.1.stream.encoder.markup">Apple ProRes 422 HQ</property>
  <property name="kdenlive:meta.attr.1.stream.timecode.markup">02:43:43:06</property>
  <property name="kdenlive:meta.media.2.stream.type">audio</property>
  <property name="kdenlive:meta.media.2.codec.sample_fmt">s32</property>
  <property name="kdenlive:meta.media.2.codec.sample_rate">48000</property>
  <property name="kdenlive:meta.media.2.codec.channels">2</property>
  <property name="kdenlive:meta.media.2.codec.name">pcm_s24le</property>
  <property name="kdenlive:meta.media.2.codec.long_name">PCM signed 24-bit little-endian</property>
  <property name="kdenlive:meta.media.2.codec.bit_rate">2304000</property>
  <property name="kdenlive:meta.attr.2.stream.creation_time.markup">2017-11-24T02:43:43.000000Z</property>
  <property name="kdenlive:meta.attr.2.stream.language.markup">eng</property>
  <property name="kdenlive:meta.attr.2.stream.handler_name.markup">Apple Alias Data Handler</property>
  <property name="kdenlive:meta.attr.2.stream.timecode.markup">02:43:43:06</property>
  <property name="kdenlive:meta.attr.com.apple.proapps.manufacturer.markup">Blackmagic Design</property>
  <property name="kdenlive:meta.attr.com.apple.proapps.cameraName.markup">CAM2</property>
  <property name="kdenlive:meta.attr.com.apple.proapps.isGood.markup">0</property>
  <property name="kdenlive:meta.attr.com.apple.proapps.customgamma.markup">com.blackmagic-design.cinemacamera.filmlog</property>
  <property name="kdenlive:meta.attr.com.blackmagic-design.cinemacamera.uuid.markup">18E5E00548F94923B646613A73C01B56</property>
  <property name="kdenlive:meta.attr.creation_time.markup">2017-11-24T02:43:43.000000Z</property>
  <property name="kdenlive:meta.attr.timecode.markup">02:43:43:06</property>
  <property name="kdenlive:meta.media.sample_aspect_num">1</property>
  <property name="kdenlive:meta.media.sample_aspect_den">1</property>
  <property name="kdenlive:meta.media.frame_rate_num">24</property>
  <property name="kdenlive:meta.media.frame_rate_den">1</property>
  <property name="kdenlive:meta.media.colorspace">709</property>
  <property name="kdenlive:meta.media.color_trc">1</property>
  <property name="kdenlive:meta.media.width">1920</property>
  <property name="kdenlive:meta.media.height">1080</property>
  <property name="kdenlive:meta.media.top_field_first">0</property>
  <property name="kdenlive:meta.media.progressive">1</property>
  <property name="meta.media.frame_rate_num">24</property>
  <property name="meta.media.frame_rate_den">1</property>
  <property name="meta.media.colorspace">709</property>
  <property name="meta.media.color_trc">1</property>
  <property name="meta.media.width">1920</property>
  <property name="meta.media.height">1080</property>
  <property name="meta.media.top_field_first">0</property>
  <property name="meta.media.progressive">1</property>
 </producer>
 <producer id="15" title="Anonymous Submission" out="4106" in="0">
  <property name="length">00:02:51:03</property>
  <property name="eof">pause</property>
  <property name="resource">src/TheWholeRushes/Samedi_soir/CAM2_2017-11-24_1117_C0001.mov</property>
  <property name="audio_index">2</property>
  <property name="video_index">1</property>
  <property name="mute_on_pause">1</property>
  <property name="mlt_service">avformat-novalidate</property>
  <property name="meta.media.nb_streams">3</property>
  <property name="meta.media.1.stream.type">video</property>
  <property name="meta.media.1.stream.frame_rate">24</property>
  <property name="meta.media.1.stream.sample_aspect_ratio">1</property>
  <property name="meta.media.1.codec.width">1920</property>
  <property name="meta.media.1.codec.height">1080</property>
  <property name="meta.media.1.codec.rotate">0</property>
  <property name="meta.media.1.codec.frame_rate">2400</property>
  <property name="meta.media.1.codec.pix_fmt">yuv422p10le</property>
  <property name="meta.media.1.codec.sample_aspect_ratio">0</property>
  <property name="meta.media.1.codec.colorspace">709</property>
  <property name="meta.media.1.codec.color_trc">1</property>
  <property name="meta.media.1.codec.name">prores</property>
  <property name="meta.media.1.codec.long_name">ProRes</property>
  <property name="meta.media.1.codec.bit_rate">176139791</property>
  <property name="meta.attr.1.stream.creation_time.markup">2017-11-24T11:17:56.000000Z</property>
  <property name="meta.attr.1.stream.language.markup">eng</property>
  <property name="meta.attr.1.stream.handler_name.markup">Apple Alias Data Handler</property>
  <property name="meta.attr.1.stream.encoder.markup">Apple ProRes 422 HQ</property>
  <property name="meta.attr.1.stream.timecode.markup">11:17:56:09</property>
  <property name="meta.media.2.stream.type">audio</property>
  <property name="meta.media.2.codec.sample_fmt">s32</property>
  <property name="meta.media.2.codec.sample_rate">48000</property>
  <property name="meta.media.2.codec.channels">2</property>
  <property name="meta.media.2.codec.name">pcm_s24le</property>
  <property name="meta.media.2.codec.long_name">PCM signed 24-bit little-endian</property>
  <property name="meta.media.2.codec.bit_rate">2304000</property>
  <property name="meta.attr.2.stream.creation_time.markup">2017-11-24T11:17:56.000000Z</property>
  <property name="meta.attr.2.stream.language.markup">eng</property>
  <property name="meta.attr.2.stream.handler_name.markup">Apple Alias Data Handler</property>
  <property name="meta.attr.2.stream.timecode.markup">11:17:56:09</property>
  <property name="meta.attr.com.apple.proapps.manufacturer.markup">Blackmagic Design</property>
  <property name="meta.attr.com.apple.proapps.cameraName.markup">CAM2</property>
  <property name="meta.attr.com.apple.proapps.isGood.markup">0</property>
  <property name="meta.attr.com.apple.proapps.customgamma.markup">com.blackmagic-design.cinemacamera.filmlog</property>
  <property name="meta.attr.com.blackmagic-design.cinemacamera.uuid.markup">18E5E00548F94923B646613A73C01B56</property>
  <property name="meta.attr.creation_time.markup">2017-11-24T11:17:56.000000Z</property>
  <property name="meta.attr.timecode.markup">11:17:56:09</property>
  <property name="seekable">1</property>
  <property name="meta.media.sample_aspect_num">1</property>
  <property name="meta.media.sample_aspect_den">1</property>
  <property name="aspect_ratio">1</property>
  <property name="kdenlive:folderid">-1</property>
  <property name="kdenlive:file_size">3817991081</property>
  <property name="kdenlive:file_hash">e89f437a6cab322b45877ac37506466d</property>
  <property name="kdenlive:proxy">-</property>
  <property name="proxy_out">4106</property>
  <property name="kdenlive:originalurl">src/04-06_Couplet2/mao1.sshfs/CAM2_2017-11-24_1117_C0001.mov</property>
  <property name="global_feed">1</property>
  <property name="kdenlive:meta.media.nb_streams">3</property>
  <property name="kdenlive:meta.media.1.stream.type">video</property>
  <property name="kdenlive:meta.media.1.stream.frame_rate">24</property>
  <property name="kdenlive:meta.media.1.stream.sample_aspect_ratio">1</property>
  <property name="kdenlive:meta.media.1.codec.width">1920</property>
  <property name="kdenlive:meta.media.1.codec.height">1080</property>
  <property name="kdenlive:meta.media.1.codec.rotate">0</property>
  <property name="kdenlive:meta.media.1.codec.frame_rate">2400</property>
  <property name="kdenlive:meta.media.1.codec.pix_fmt">yuv422p10le</property>
  <property name="kdenlive:meta.media.1.codec.sample_aspect_ratio">0</property>
  <property name="kdenlive:meta.media.1.codec.colorspace">709</property>
  <property name="kdenlive:meta.media.1.codec.color_trc">1</property>
  <property name="kdenlive:meta.media.1.codec.name">prores</property>
  <property name="kdenlive:meta.media.1.codec.long_name">ProRes</property>
  <property name="kdenlive:meta.media.1.codec.bit_rate">176139791</property>
  <property name="kdenlive:meta.attr.1.stream.creation_time.markup">2017-11-24T11:17:56.000000Z</property>
  <property name="kdenlive:meta.attr.1.stream.language.markup">eng</property>
  <property name="kdenlive:meta.attr.1.stream.handler_name.markup">Apple Alias Data Handler</property>
  <property name="kdenlive:meta.attr.1.stream.encoder.markup">Apple ProRes 422 HQ</property>
  <property name="kdenlive:meta.attr.1.stream.timecode.markup">11:17:56:09</property>
  <property name="kdenlive:meta.media.2.stream.type">audio</property>
  <property name="kdenlive:meta.media.2.codec.sample_fmt">s32</property>
  <property name="kdenlive:meta.media.2.codec.sample_rate">48000</property>
  <property name="kdenlive:meta.media.2.codec.channels">2</property>
  <property name="kdenlive:meta.media.2.codec.name">pcm_s24le</property>
  <property name="kdenlive:meta.media.2.codec.long_name">PCM signed 24-bit little-endian</property>
  <property name="kdenlive:meta.media.2.codec.bit_rate">2304000</property>
  <property name="kdenlive:meta.attr.2.stream.creation_time.markup">2017-11-24T11:17:56.000000Z</property>
  <property name="kdenlive:meta.attr.2.stream.language.markup">eng</property>
  <property name="kdenlive:meta.attr.2.stream.handler_name.markup">Apple Alias Data Handler</property>
  <property name="kdenlive:meta.attr.2.stream.timecode.markup">11:17:56:09</property>
  <property name="kdenlive:meta.attr.com.apple.proapps.manufacturer.markup">Blackmagic Design</property>
  <property name="kdenlive:meta.attr.com.apple.proapps.cameraName.markup">CAM2</property>
  <property name="kdenlive:meta.attr.com.apple.proapps.isGood.markup">0</property>
  <property name="kdenlive:meta.attr.com.apple.proapps.customgamma.markup">com.blackmagic-design.cinemacamera.filmlog</property>
  <property name="kdenlive:meta.attr.com.blackmagic-design.cinemacamera.uuid.markup">18E5E00548F94923B646613A73C01B56</property>
  <property name="kdenlive:meta.attr.creation_time.markup">2017-11-24T11:17:56.000000Z</property>
  <property name="kdenlive:meta.attr.timecode.markup">11:17:56:09</property>
  <property name="kdenlive:meta.media.sample_aspect_num">1</property>
  <property name="kdenlive:meta.media.sample_aspect_den">1</property>
  <property name="kdenlive:meta.media.frame_rate_num">24</property>
  <property name="kdenlive:meta.media.frame_rate_den">1</property>
  <property name="kdenlive:meta.media.colorspace">709</property>
  <property name="kdenlive:meta.media.color_trc">1</property>
  <property name="kdenlive:meta.media.width">1920</property>
  <property name="kdenlive:meta.media.height">1080</property>
  <property name="kdenlive:meta.media.top_field_first">0</property>
  <property name="kdenlive:meta.media.progressive">1</property>
  <property name="meta.media.frame_rate_num">24</property>
  <property name="meta.media.frame_rate_den">1</property>
  <property name="meta.media.colorspace">709</property>
  <property name="meta.media.color_trc">1</property>
  <property name="meta.media.width">1920</property>
  <property name="meta.media.height">1080</property>
  <property name="meta.media.top_field_first">0</property>
  <property name="meta.media.progressive">1</property>
 </producer>
 <producer id="16" title="Anonymous Submission" out="1815" in="0">
  <property name="length">00:01:15:16</property>
  <property name="eof">pause</property>
  <property name="resource">src/TheWholeRushes/Samedi_soir/CAM2_2017-11-24_1130_C0003.mov</property>
  <property name="audio_index">2</property>
  <property name="video_index">1</property>
  <property name="mute_on_pause">1</property>
  <property name="mlt_service">avformat-novalidate</property>
  <property name="meta.media.nb_streams">3</property>
  <property name="meta.media.1.stream.type">video</property>
  <property name="meta.media.1.stream.frame_rate">24</property>
  <property name="meta.media.1.stream.sample_aspect_ratio">1</property>
  <property name="meta.media.1.codec.width">1920</property>
  <property name="meta.media.1.codec.height">1080</property>
  <property name="meta.media.1.codec.rotate">0</property>
  <property name="meta.media.1.codec.frame_rate">2400</property>
  <property name="meta.media.1.codec.pix_fmt">yuv422p10le</property>
  <property name="meta.media.1.codec.sample_aspect_ratio">0</property>
  <property name="meta.media.1.codec.colorspace">709</property>
  <property name="meta.media.1.codec.color_trc">1</property>
  <property name="meta.media.1.codec.name">prores</property>
  <property name="meta.media.1.codec.long_name">ProRes</property>
  <property name="meta.media.1.codec.bit_rate">176140125</property>
  <property name="meta.attr.1.stream.creation_time.markup">2017-11-24T11:30:24.000000Z</property>
  <property name="meta.attr.1.stream.language.markup">eng</property>
  <property name="meta.attr.1.stream.handler_name.markup">Apple Alias Data Handler</property>
  <property name="meta.attr.1.stream.encoder.markup">Apple ProRes 422 HQ</property>
  <property name="meta.attr.1.stream.timecode.markup">11:30:24:23</property>
  <property name="meta.media.2.stream.type">audio</property>
  <property name="meta.media.2.codec.sample_fmt">s32</property>
  <property name="meta.media.2.codec.sample_rate">48000</property>
  <property name="meta.media.2.codec.channels">2</property>
  <property name="meta.media.2.codec.name">pcm_s24le</property>
  <property name="meta.media.2.codec.long_name">PCM signed 24-bit little-endian</property>
  <property name="meta.media.2.codec.bit_rate">2304000</property>
  <property name="meta.attr.2.stream.creation_time.markup">2017-11-24T11:30:24.000000Z</property>
  <property name="meta.attr.2.stream.language.markup">eng</property>
  <property name="meta.attr.2.stream.handler_name.markup">Apple Alias Data Handler</property>
  <property name="meta.attr.2.stream.timecode.markup">11:30:24:23</property>
  <property name="meta.attr.com.apple.proapps.manufacturer.markup">Blackmagic Design</property>
  <property name="meta.attr.com.apple.proapps.cameraName.markup">CAM2</property>
  <property name="meta.attr.com.apple.proapps.isGood.markup">0</property>
  <property name="meta.attr.com.apple.proapps.customgamma.markup">com.blackmagic-design.cinemacamera.filmlog</property>
  <property name="meta.attr.com.blackmagic-design.cinemacamera.uuid.markup">18E5E00548F94923B646613A73C01B56</property>
  <property name="meta.attr.creation_time.markup">2017-11-24T11:30:24.000000Z</property>
  <property name="meta.attr.timecode.markup">11:30:24:23</property>
  <property name="seekable">1</property>
  <property name="meta.media.sample_aspect_num">1</property>
  <property name="meta.media.sample_aspect_den">1</property>
  <property name="aspect_ratio">1</property>
  <property name="kdenlive:folderid">-1</property>
  <property name="kdenlive:file_size">1688212137</property>
  <property name="kdenlive:file_hash">9e3b238311cbd7c98462643bd5208d2f</property>
  <property name="kdenlive:proxy">-</property>
  <property name="proxy_out">1815</property>
  <property name="kdenlive:originalurl">src/04-06_Couplet2/mao1.sshfs/CAM2_2017-11-24_1130_C0003.mov</property>
  <property name="global_feed">1</property>
  <property name="kdenlive:meta.media.nb_streams">3</property>
  <property name="kdenlive:meta.media.1.stream.type">video</property>
  <property name="kdenlive:meta.media.1.stream.frame_rate">24</property>
  <property name="kdenlive:meta.media.1.stream.sample_aspect_ratio">1</property>
  <property name="kdenlive:meta.media.1.codec.width">1920</property>
  <property name="kdenlive:meta.media.1.codec.height">1080</property>
  <property name="kdenlive:meta.media.1.codec.rotate">0</property>
  <property name="kdenlive:meta.media.1.codec.frame_rate">2400</property>
  <property name="kdenlive:meta.media.1.codec.pix_fmt">yuv422p10le</property>
  <property name="kdenlive:meta.media.1.codec.sample_aspect_ratio">0</property>
  <property name="kdenlive:meta.media.1.codec.colorspace">709</property>
  <property name="kdenlive:meta.media.1.codec.color_trc">1</property>
  <property name="kdenlive:meta.media.1.codec.name">prores</property>
  <property name="kdenlive:meta.media.1.codec.long_name">ProRes</property>
  <property name="kdenlive:meta.media.1.codec.bit_rate">176140125</property>
  <property name="kdenlive:meta.attr.1.stream.creation_time.markup">2017-11-24T11:30:24.000000Z</property>
  <property name="kdenlive:meta.attr.1.stream.language.markup">eng</property>
  <property name="kdenlive:meta.attr.1.stream.handler_name.markup">Apple Alias Data Handler</property>
  <property name="kdenlive:meta.attr.1.stream.encoder.markup">Apple ProRes 422 HQ</property>
  <property name="kdenlive:meta.attr.1.stream.timecode.markup">11:30:24:23</property>
  <property name="kdenlive:meta.media.2.stream.type">audio</property>
  <property name="kdenlive:meta.media.2.codec.sample_fmt">s32</property>
  <property name="kdenlive:meta.media.2.codec.sample_rate">48000</property>
  <property name="kdenlive:meta.media.2.codec.channels">2</property>
  <property name="kdenlive:meta.media.2.codec.name">pcm_s24le</property>
  <property name="kdenlive:meta.media.2.codec.long_name">PCM signed 24-bit little-endian</property>
  <property name="kdenlive:meta.media.2.codec.bit_rate">2304000</property>
  <property name="kdenlive:meta.attr.2.stream.creation_time.markup">2017-11-24T11:30:24.000000Z</property>
  <property name="kdenlive:meta.attr.2.stream.language.markup">eng</property>
  <property name="kdenlive:meta.attr.2.stream.handler_name.markup">Apple Alias Data Handler</property>
  <property name="kdenlive:meta.attr.2.stream.timecode.markup">11:30:24:23</property>
  <property name="kdenlive:meta.attr.com.apple.proapps.manufacturer.markup">Blackmagic Design</property>
  <property name="kdenlive:meta.attr.com.apple.proapps.cameraName.markup">CAM2</property>
  <property name="kdenlive:meta.attr.com.apple.proapps.isGood.markup">0</property>
  <property name="kdenlive:meta.attr.com.apple.proapps.customgamma.markup">com.blackmagic-design.cinemacamera.filmlog</property>
  <property name="kdenlive:meta.attr.com.blackmagic-design.cinemacamera.uuid.markup">18E5E00548F94923B646613A73C01B56</property>
  <property name="kdenlive:meta.attr.creation_time.markup">2017-11-24T11:30:24.000000Z</property>
  <property name="kdenlive:meta.attr.timecode.markup">11:30:24:23</property>
  <property name="kdenlive:meta.media.sample_aspect_num">1</property>
  <property name="kdenlive:meta.media.sample_aspect_den">1</property>
  <property name="kdenlive:meta.media.frame_rate_num">24</property>
  <property name="kdenlive:meta.media.frame_rate_den">1</property>
  <property name="kdenlive:meta.media.colorspace">709</property>
  <property name="kdenlive:meta.media.color_trc">1</property>
  <property name="kdenlive:meta.media.width">1920</property>
  <property name="kdenlive:meta.media.height">1080</property>
  <property name="kdenlive:meta.media.top_field_first">0</property>
  <property name="kdenlive:meta.media.progressive">1</property>
  <property name="meta.media.frame_rate_num">24</property>
  <property name="meta.media.frame_rate_den">1</property>
  <property name="meta.media.colorspace">709</property>
  <property name="meta.media.color_trc">1</property>
  <property name="meta.media.width">1920</property>
  <property name="meta.media.height">1080</property>
  <property name="meta.media.top_field_first">0</property>
  <property name="meta.media.progressive">1</property>
 </producer>
 <playlist id="main bin">
  <property name="kdenlive:docproperties.audiotargettrack">2</property>
  <property name="kdenlive:docproperties.decimalPoint">,</property>
  <property name="kdenlive:docproperties.dirtypreviewchunks"/>
  <property name="kdenlive:docproperties.disablepreview">0</property>
  <property name="kdenlive:docproperties.documentid">1516638450852</property>
  <property name="kdenlive:docproperties.enableproxy">1</property>
  <property name="kdenlive:docproperties.generateimageproxy">1</property>
  <property name="kdenlive:docproperties.generateproxy">1</property>
  <property name="kdenlive:docproperties.kdenliveversion">16.12.2</property>
  <property name="kdenlive:docproperties.position">3392</property>
  <property name="kdenlive:docproperties.previewchunks"/>
  <property name="kdenlive:docproperties.previewextension"/>
  <property name="kdenlive:docproperties.previewparameters"/>
  <property name="kdenlive:docproperties.profile">atsc_1080p_24</property>
  <property name="kdenlive:docproperties.proxyextension">mpg</property>
  <property name="kdenlive:docproperties.proxyimageminsize">2000</property>
  <property name="kdenlive:docproperties.proxyminsize">1000</property>
  <property name="kdenlive:docproperties.proxyparams">-vf scale=640:-1 -g 5 -qscale 6 -ab 128k -vcodec mpeg2video -acodec mp2</property>
  <property name="kdenlive:docproperties.version">0.95</property>
  <property name="kdenlive:docproperties.verticalzoom">1</property>
  <property name="kdenlive:docproperties.videotargettrack">3</property>
  <property name="kdenlive:docproperties.zonein">3093</property>
  <property name="kdenlive:docproperties.zoneout">3143</property>
  <property name="kdenlive:docproperties.zoom">8</property>
  <property name="kdenlive:docmetadata.meta.attr.author.markup">Plagiat &amp; Joris Le Guidart</property>
  <property name="kdenlive:docmetadata.meta.attr.copyright.markup">Copyleft - Licence Art Libre 1.3</property>
  <property name="kdenlive:docmetadata.meta.attr.title.markup">Snapchat au Harem (part of)</property>
  <property name="kdenlive:docmetadata.meta.attr.year.markup">2018</property>
  <property name="kdenlive:documentnotes"/>
  <property name="kdenlive:clipgroups"/>
  <property name="kdenlive:guide.137,583">DebutTrap</property>
  <property name="kdenlive:guide.137">Snare</property>
  <property name="kdenlive:guide.142,625">Fuck</property>
  <property name="kdenlive:docproperties.renderaudioquality">192</property>
  <property name="kdenlive:docproperties.rendercategory">Generic (HD for web, mobile devices...)</property>
  <property name="kdenlive:docproperties.renderendguide">0</property>
  <property name="kdenlive:docproperties.renderexportaudio">0</property>
  <property name="kdenlive:docproperties.renderguide">0</property>
  <property name="kdenlive:docproperties.renderplay">0</property>
  <property name="kdenlive:docproperties.renderprofile">MP4 - the dominating format (H264/AAC)</property>
  <property name="kdenlive:docproperties.renderquality">15</property>
  <property name="kdenlive:docproperties.renderratio">1</property>
  <property name="kdenlive:docproperties.renderrescale">0</property>
  <property name="kdenlive:docproperties.renderrescaleheight">180</property>
  <property name="kdenlive:docproperties.renderrescalewidth">320</property>
  <property name="kdenlive:docproperties.renderscanning">0</property>
  <property name="kdenlive:docproperties.renderspeed">2</property>
  <property name="kdenlive:docproperties.renderstartguide">0</property>
  <property name="kdenlive:docproperties.rendertcoverlay">0</property>
  <property name="kdenlive:docproperties.rendertctype">0</property>
  <property name="kdenlive:docproperties.rendertwopass">0</property>
  <property name="kdenlive:docproperties.renderurl">/home/ukbaison/Clips/2017-2018_Plagiat/uk/Clip01_SnapshatAuHarem/Rendus/TestChutePQ.mp4</property>
  <property name="kdenlive:docproperties.renderzone">1</property>
  <property name="xml_retain">1</property>
  <entry out="4287" producer="1" in="0"/>
  <entry out="3211" producer="4" in="0"/>
  <entry out="2486" producer="3" in="0"/>
  <entry out="1833" producer="2" in="0"/>
  <entry out="3737" producer="5" in="0"/>
  <entry out="4335" producer="6" in="0"/>
  <entry out="2664" producer="7" in="0"/>
  <entry out="6028" producer="8" in="0"/>
  <entry out="5047" producer="9" in="0"/>
  <entry out="2728" producer="10" in="0"/>
  <entry out="1866" producer="11" in="0"/>
  <entry out="16944" producer="12" in="0"/>
  <entry out="4885" producer="13" in="0"/>
  <entry out="6121" producer="14" in="0"/>
  <entry out="4106" producer="15" in="0"/>
  <entry out="1815" producer="16" in="0"/>
 </playlist>
 <producer id="black" out="18725" in="0">
  <property name="length">18726</property>
  <property name="eof">pause</property>
  <property name="resource">black</property>
  <property name="aspect_ratio">0</property>
  <property name="mlt_service">colour</property>
  <property name="set.test_audio">0</property>
 </producer>
 <playlist id="black_track">
  <entry out="6187" producer="black" in="0"/>
 </playlist>
 <playlist id="playlist1">
  <property name="kdenlive:track_name">Audio 2</property>
  <property name="kdenlive:audio_track">1</property>
  <property name="kdenlive:locked_track">0</property>
 </playlist>
 <producer id="1_playlist2" title="Anonymous Submission" out="4287" in="0">
  <property name="length">00:02:58:16</property>
  <property name="eof">pause</property>
  <property name="resource">/home/ukbaison/Clips/2017-2018_Plagiat/uk/Clip01_SnapshatAuHarem/Audio/Snapchat_au_Harem.flac</property>
  <property name="audio_index">0</property>
  <property name="video_index">-1</property>
  <property name="mute_on_pause">1</property>
  <property name="mlt_service">avformat-novalidate</property>
  <property name="seekable">1</property>
  <property name="kdenlive:folderid">-1</property>
  <property name="kdenlive:file_size">16614188</property>
  <property name="kdenlive:file_hash">115a31e39ebfe7c973cc2dc7b9f7cbf8</property>
  <property name="global_feed">1</property>
  <property name="xml">was here</property>
  <property name="meta.media.nb_streams">1</property>
  <property name="meta.media.0.stream.type">audio</property>
  <property name="meta.media.0.codec.sample_fmt">s16</property>
  <property name="meta.media.0.codec.sample_rate">48000</property>
  <property name="meta.media.0.codec.channels">2</property>
  <property name="meta.media.0.codec.name">flac</property>
  <property name="meta.media.0.codec.long_name">FLAC (Free Lossless Audio Codec)</property>
  <property name="meta.media.0.codec.bit_rate">0</property>
 </producer>
 <playlist id="playlist2">
  <property name="kdenlive:track_name">Audio 1</property>
  <property name="kdenlive:audio_track">1</property>
  <property name="kdenlive:locked_track">1</property>
  <blank length="1440"/>
  <entry out="4287" producer="1_playlist2" in="0"/>
  <filter id="audiopan">
   <property name="channel">1</property>
   <property name="mlt_service">panner</property>
   <property name="kdenlive_id">audiopan</property>
   <property name="tag">panner</property>
   <property name="kdenlive_ix">1</property>
   <property name="kdenlive_info"/>
   <property name="start">0</property>
   <property name="disable">1</property>
  </filter>
 </playlist>
 <producer id="2_playlist3" title="Anonymous Submission" out="1833" in="0">
  <property name="length">00:01:16:10</property>
  <property name="eof">pause</property>
  <property name="resource">src/04-06_Couplet2/CAM2_2017-11-25_0049_C0001.mov</property>
  <property name="audio_index">2</property>
  <property name="video_index">1</property>
  <property name="mute_on_pause">1</property>
  <property name="mlt_service">avformat-novalidate</property>
  <property name="seekable">1</property>
  <property name="aspect_ratio">1</property>
  <property name="kdenlive:folderid">-1</property>
  <property name="kdenlive:file_size">1704948401</property>
  <property name="kdenlive:file_hash">5d92b72a72e9fb2f855cb48e487e5833</property>
  <property name="kdenlive:proxy">-</property>
  <property name="proxy_out">1833</property>
  <property name="kdenlive:originalurl">src/04-06_Couplet2/CAM2_2017-11-25_0049_C0001.mov</property>
  <property name="global_feed">1</property>
  <property name="kdenlive:meta.media.nb_streams">3</property>
  <property name="kdenlive:meta.media.1.stream.type">video</property>
  <property name="kdenlive:meta.media.1.stream.frame_rate">24</property>
  <property name="kdenlive:meta.media.1.stream.sample_aspect_ratio">1</property>
  <property name="kdenlive:meta.media.1.codec.width">1920</property>
  <property name="kdenlive:meta.media.1.codec.height">1080</property>
  <property name="kdenlive:meta.media.1.codec.rotate">0</property>
  <property name="kdenlive:meta.media.1.codec.frame_rate">2400</property>
  <property name="kdenlive:meta.media.1.codec.pix_fmt">yuv422p10le</property>
  <property name="kdenlive:meta.media.1.codec.sample_aspect_ratio">0</property>
  <property name="kdenlive:meta.media.1.codec.colorspace">709</property>
  <property name="kdenlive:meta.media.1.codec.color_trc">1</property>
  <property name="kdenlive:meta.media.1.codec.name">prores</property>
  <property name="kdenlive:meta.media.1.codec.long_name">ProRes</property>
  <property name="kdenlive:meta.media.1.codec.bit_rate">176141422</property>
  <property name="kdenlive:meta.attr.1.stream.creation_time.markup">2017-11-25T00:49:37.000000Z</property>
  <property name="kdenlive:meta.attr.1.stream.language.markup">eng</property>
  <property name="kdenlive:meta.attr.1.stream.handler_name.markup">Apple Alias Data Handler</property>
  <property name="kdenlive:meta.attr.1.stream.encoder.markup">Apple ProRes 422 HQ</property>
  <property name="kdenlive:meta.attr.1.stream.timecode.markup">00:49:37:06</property>
  <property name="kdenlive:meta.media.2.stream.type">audio</property>
  <property name="kdenlive:meta.media.2.codec.sample_fmt">s32</property>
  <property name="kdenlive:meta.media.2.codec.sample_rate">48000</property>
  <property name="kdenlive:meta.media.2.codec.channels">2</property>
  <property name="kdenlive:meta.media.2.codec.name">pcm_s24le</property>
  <property name="kdenlive:meta.media.2.codec.long_name">PCM signed 24-bit little-endian</property>
  <property name="kdenlive:meta.media.2.codec.bit_rate">2304000</property>
  <property name="kdenlive:meta.attr.2.stream.creation_time.markup">2017-11-25T00:49:37.000000Z</property>
  <property name="kdenlive:meta.attr.2.stream.language.markup">eng</property>
  <property name="kdenlive:meta.attr.2.stream.handler_name.markup">Apple Alias Data Handler</property>
  <property name="kdenlive:meta.attr.2.stream.timecode.markup">00:49:37:06</property>
  <property name="kdenlive:meta.attr.com.apple.proapps.manufacturer.markup">Blackmagic Design</property>
  <property name="kdenlive:meta.attr.com.apple.proapps.cameraName.markup">CAM2</property>
  <property name="kdenlive:meta.attr.com.apple.proapps.isGood.markup">0</property>
  <property name="kdenlive:meta.attr.com.apple.proapps.customgamma.markup">com.blackmagic-design.cinemacamera.filmlog</property>
  <property name="kdenlive:meta.attr.com.blackmagic-design.cinemacamera.uuid.markup">18E5E00548F94923B646613A73C01B56</property>
  <property name="kdenlive:meta.attr.creation_time.markup">2017-11-25T00:49:37.000000Z</property>
  <property name="kdenlive:meta.attr.timecode.markup">00:49:37:06</property>
  <property name="kdenlive:meta.media.sample_aspect_num">1</property>
  <property name="kdenlive:meta.media.sample_aspect_den">1</property>
  <property name="kdenlive:meta.media.frame_rate_num">24</property>
  <property name="kdenlive:meta.media.frame_rate_den">1</property>
  <property name="kdenlive:meta.media.colorspace">709</property>
  <property name="kdenlive:meta.media.color_trc">1</property>
  <property name="kdenlive:meta.media.width">1920</property>
  <property name="kdenlive:meta.media.height">1080</property>
  <property name="kdenlive:meta.media.top_field_first">0</property>
  <property name="kdenlive:meta.media.progressive">1</property>
  <property name="xml">was here</property>
  <property name="meta.media.nb_streams">3</property>
  <property name="meta.media.1.stream.type">video</property>
  <property name="meta.media.1.stream.frame_rate">24</property>
  <property name="meta.media.1.stream.sample_aspect_ratio">1</property>
  <property name="meta.media.1.codec.width">1920</property>
  <property name="meta.media.1.codec.height">1080</property>
  <property name="meta.media.1.codec.rotate">0</property>
  <property name="meta.media.1.codec.frame_rate">2400</property>
  <property name="meta.media.1.codec.pix_fmt">yuv422p10le</property>
  <property name="meta.media.1.codec.sample_aspect_ratio">0</property>
  <property name="meta.media.1.codec.colorspace">709</property>
  <property name="meta.media.1.codec.color_trc">1</property>
  <property name="meta.media.1.codec.name">prores</property>
  <property name="meta.media.1.codec.long_name">ProRes</property>
  <property name="meta.media.1.codec.bit_rate">176141422</property>
  <property name="meta.attr.1.stream.creation_time.markup">2017-11-25T00:49:37.000000Z</property>
  <property name="meta.attr.1.stream.language.markup">eng</property>
  <property name="meta.attr.1.stream.handler_name.markup">Apple Alias Data Handler</property>
  <property name="meta.attr.1.stream.encoder.markup">Apple ProRes 422 HQ</property>
  <property name="meta.attr.1.stream.timecode.markup">00:49:37:06</property>
  <property name="meta.media.2.stream.type">audio</property>
  <property name="meta.media.2.codec.sample_fmt">s32</property>
  <property name="meta.media.2.codec.sample_rate">48000</property>
  <property name="meta.media.2.codec.channels">2</property>
  <property name="meta.media.2.codec.name">pcm_s24le</property>
  <property name="meta.media.2.codec.long_name">PCM signed 24-bit little-endian</property>
  <property name="meta.media.2.codec.bit_rate">2304000</property>
  <property name="meta.attr.2.stream.creation_time.markup">2017-11-25T00:49:37.000000Z</property>
  <property name="meta.attr.2.stream.language.markup">eng</property>
  <property name="meta.attr.2.stream.handler_name.markup">Apple Alias Data Handler</property>
  <property name="meta.attr.2.stream.timecode.markup">00:49:37:06</property>
  <property name="meta.attr.com.apple.proapps.manufacturer.markup">Blackmagic Design</property>
  <property name="meta.attr.com.apple.proapps.cameraName.markup">CAM2</property>
  <property name="meta.attr.com.apple.proapps.isGood.markup">0</property>
  <property name="meta.attr.com.apple.proapps.customgamma.markup">com.blackmagic-design.cinemacamera.filmlog</property>
  <property name="meta.attr.com.blackmagic-design.cinemacamera.uuid.markup">18E5E00548F94923B646613A73C01B56</property>
  <property name="meta.attr.creation_time.markup">2017-11-25T00:49:37.000000Z</property>
  <property name="meta.attr.timecode.markup">00:49:37:06</property>
  <property name="meta.media.sample_aspect_num">1</property>
  <property name="meta.media.sample_aspect_den">1</property>
  <property name="meta.media.frame_rate_num">24</property>
  <property name="meta.media.frame_rate_den">1</property>
  <property name="meta.media.colorspace">709</property>
  <property name="meta.media.color_trc">1</property>
  <property name="meta.media.width">1920</property>
  <property name="meta.media.height">1080</property>
  <property name="meta.media.top_field_first">0</property>
  <property name="meta.media.progressive">1</property>
 </producer>
 <playlist id="playlist3">
  <property name="kdenlive:track_name">Video 1</property>
  <property name="kdenlive:locked_track">1</property>
  <blank length="2594"/>
  <entry out="1833" producer="2_playlist3" in="87"/>
  <filter id="filter0">
   <property name="channel">0</property>
   <property name="mlt_service">panner</property>
   <property name="kdenlive_id">audiopan</property>
   <property name="tag">panner</property>
   <property name="kdenlive_ix">1</property>
   <property name="kdenlive_info"/>
   <property name="start">1</property>
  </filter>
 </playlist>
 <producer id="3_playlist4" title="Anonymous Submission" out="2486" in="0">
  <property name="length">00:01:43:15</property>
  <property name="eof">pause</property>
  <property name="resource">src/04-06_Couplet2/CAM2_2017-11-25_0053_C0002.mov</property>
  <property name="audio_index">2</property>
  <property name="video_index">1</property>
  <property name="mute_on_pause">1</property>
  <property name="mlt_service">avformat-novalidate</property>
  <property name="seekable">1</property>
  <property name="aspect_ratio">1</property>
  <property name="kdenlive:folderid">-1</property>
  <property name="kdenlive:file_size">2311991689</property>
  <property name="kdenlive:file_hash">c5f1ea41def1623e65612b3f6ed4ed09</property>
  <property name="kdenlive:proxy">-</property>
  <property name="proxy_out">2486</property>
  <property name="kdenlive:originalurl">src/04-06_Couplet2/CAM2_2017-11-25_0053_C0002.mov</property>
  <property name="global_feed">1</property>
  <property name="kdenlive:meta.media.nb_streams">3</property>
  <property name="kdenlive:meta.media.1.stream.type">video</property>
  <property name="kdenlive:meta.media.1.stream.frame_rate">24</property>
  <property name="kdenlive:meta.media.1.stream.sample_aspect_ratio">1</property>
  <property name="kdenlive:meta.media.1.codec.width">1920</property>
  <property name="kdenlive:meta.media.1.codec.height">1080</property>
  <property name="kdenlive:meta.media.1.codec.rotate">0</property>
  <property name="kdenlive:meta.media.1.codec.frame_rate">2400</property>
  <property name="kdenlive:meta.media.1.codec.pix_fmt">yuv422p10le</property>
  <property name="kdenlive:meta.media.1.codec.sample_aspect_ratio">0</property>
  <property name="kdenlive:meta.media.1.codec.colorspace">709</property>
  <property name="kdenlive:meta.media.1.codec.color_trc">1</property>
  <property name="kdenlive:meta.media.1.codec.name">prores</property>
  <property name="kdenlive:meta.media.1.codec.long_name">ProRes</property>
  <property name="kdenlive:meta.media.1.codec.bit_rate">176140925</property>
  <property name="kdenlive:meta.attr.1.stream.creation_time.markup">2017-11-25T00:53:25.000000Z</property>
  <property name="kdenlive:meta.attr.1.stream.language.markup">eng</property>
  <property name="kdenlive:meta.attr.1.stream.handler_name.markup">Apple Alias Data Handler</property>
  <property name="kdenlive:meta.attr.1.stream.encoder.markup">Apple ProRes 422 HQ</property>
  <property name="kdenlive:meta.attr.1.stream.timecode.markup">00:53:25:03</property>
  <property name="kdenlive:meta.media.2.stream.type">audio</property>
  <property name="kdenlive:meta.media.2.codec.sample_fmt">s32</property>
  <property name="kdenlive:meta.media.2.codec.sample_rate">48000</property>
  <property name="kdenlive:meta.media.2.codec.channels">2</property>
  <property name="kdenlive:meta.media.2.codec.name">pcm_s24le</property>
  <property name="kdenlive:meta.media.2.codec.long_name">PCM signed 24-bit little-endian</property>
  <property name="kdenlive:meta.media.2.codec.bit_rate">2304000</property>
  <property name="kdenlive:meta.attr.2.stream.creation_time.markup">2017-11-25T00:53:25.000000Z</property>
  <property name="kdenlive:meta.attr.2.stream.language.markup">eng</property>
  <property name="kdenlive:meta.attr.2.stream.handler_name.markup">Apple Alias Data Handler</property>
  <property name="kdenlive:meta.attr.2.stream.timecode.markup">00:53:25:03</property>
  <property name="kdenlive:meta.attr.com.apple.proapps.manufacturer.markup">Blackmagic Design</property>
  <property name="kdenlive:meta.attr.com.apple.proapps.cameraName.markup">CAM2</property>
  <property name="kdenlive:meta.attr.com.apple.proapps.isGood.markup">0</property>
  <property name="kdenlive:meta.attr.com.apple.proapps.customgamma.markup">com.blackmagic-design.cinemacamera.filmlog</property>
  <property name="kdenlive:meta.attr.com.blackmagic-design.cinemacamera.uuid.markup">18E5E00548F94923B646613A73C01B56</property>
  <property name="kdenlive:meta.attr.creation_time.markup">2017-11-25T00:53:25.000000Z</property>
  <property name="kdenlive:meta.attr.timecode.markup">00:53:25:03</property>
  <property name="kdenlive:meta.media.sample_aspect_num">1</property>
  <property name="kdenlive:meta.media.sample_aspect_den">1</property>
  <property name="kdenlive:meta.media.frame_rate_num">24</property>
  <property name="kdenlive:meta.media.frame_rate_den">1</property>
  <property name="kdenlive:meta.media.colorspace">709</property>
  <property name="kdenlive:meta.media.color_trc">1</property>
  <property name="kdenlive:meta.media.width">1920</property>
  <property name="kdenlive:meta.media.height">1080</property>
  <property name="kdenlive:meta.media.top_field_first">0</property>
  <property name="kdenlive:meta.media.progressive">1</property>
  <property name="xml">was here</property>
  <property name="meta.media.nb_streams">3</property>
  <property name="meta.media.1.stream.type">video</property>
  <property name="meta.media.1.stream.frame_rate">24</property>
  <property name="meta.media.1.stream.sample_aspect_ratio">1</property>
  <property name="meta.media.1.codec.width">1920</property>
  <property name="meta.media.1.codec.height">1080</property>
  <property name="meta.media.1.codec.rotate">0</property>
  <property name="meta.media.1.codec.frame_rate">2400</property>
  <property name="meta.media.1.codec.pix_fmt">yuv422p10le</property>
  <property name="meta.media.1.codec.sample_aspect_ratio">0</property>
  <property name="meta.media.1.codec.colorspace">709</property>
  <property name="meta.media.1.codec.color_trc">1</property>
  <property name="meta.media.1.codec.name">prores</property>
  <property name="meta.media.1.codec.long_name">ProRes</property>
  <property name="meta.media.1.codec.bit_rate">176140925</property>
  <property name="meta.attr.1.stream.creation_time.markup">2017-11-25T00:53:25.000000Z</property>
  <property name="meta.attr.1.stream.language.markup">eng</property>
  <property name="meta.attr.1.stream.handler_name.markup">Apple Alias Data Handler</property>
  <property name="meta.attr.1.stream.encoder.markup">Apple ProRes 422 HQ</property>
  <property name="meta.attr.1.stream.timecode.markup">00:53:25:03</property>
  <property name="meta.media.2.stream.type">audio</property>
  <property name="meta.media.2.codec.sample_fmt">s32</property>
  <property name="meta.media.2.codec.sample_rate">48000</property>
  <property name="meta.media.2.codec.channels">2</property>
  <property name="meta.media.2.codec.name">pcm_s24le</property>
  <property name="meta.media.2.codec.long_name">PCM signed 24-bit little-endian</property>
  <property name="meta.media.2.codec.bit_rate">2304000</property>
  <property name="meta.attr.2.stream.creation_time.markup">2017-11-25T00:53:25.000000Z</property>
  <property name="meta.attr.2.stream.language.markup">eng</property>
  <property name="meta.attr.2.stream.handler_name.markup">Apple Alias Data Handler</property>
  <property name="meta.attr.2.stream.timecode.markup">00:53:25:03</property>
  <property name="meta.attr.com.apple.proapps.manufacturer.markup">Blackmagic Design</property>
  <property name="meta.attr.com.apple.proapps.cameraName.markup">CAM2</property>
  <property name="meta.attr.com.apple.proapps.isGood.markup">0</property>
  <property name="meta.attr.com.apple.proapps.customgamma.markup">com.blackmagic-design.cinemacamera.filmlog</property>
  <property name="meta.attr.com.blackmagic-design.cinemacamera.uuid.markup">18E5E00548F94923B646613A73C01B56</property>
  <property name="meta.attr.creation_time.markup">2017-11-25T00:53:25.000000Z</property>
  <property name="meta.attr.timecode.markup">00:53:25:03</property>
  <property name="meta.media.sample_aspect_num">1</property>
  <property name="meta.media.sample_aspect_den">1</property>
  <property name="meta.media.frame_rate_num">24</property>
  <property name="meta.media.frame_rate_den">1</property>
  <property name="meta.media.colorspace">709</property>
  <property name="meta.media.color_trc">1</property>
  <property name="meta.media.width">1920</property>
  <property name="meta.media.height">1080</property>
  <property name="meta.media.top_field_first">0</property>
  <property name="meta.media.progressive">1</property>
 </producer>
 <playlist id="playlist4">
  <property name="kdenlive:track_name">Video 2</property>
  <property name="kdenlive:locked_track">1</property>
  <blank length="2866"/>
  <entry out="2486" producer="3_playlist4" in="402"/>
  <filter id="filter1">
   <property name="channel">0</property>
   <property name="mlt_service">panner</property>
   <property name="kdenlive_id">audiopan</property>
   <property name="tag">panner</property>
   <property name="kdenlive_ix">1</property>
   <property name="kdenlive_info"/>
   <property name="start">1</property>
  </filter>
 </playlist>
 <producer id="4_playlist5" title="Anonymous Submission" out="3211" in="0">
  <property name="length">00:02:13:20</property>
  <property name="eof">pause</property>
  <property name="resource">src/04-06_Couplet2/CAM2_2017-11-25_0055_C0003.mov</property>
  <property name="audio_index">2</property>
  <property name="video_index">1</property>
  <property name="mute_on_pause">1</property>
  <property name="mlt_service">avformat-novalidate</property>
  <property name="seekable">1</property>
  <property name="aspect_ratio">1</property>
  <property name="kdenlive:folderid">-1</property>
  <property name="kdenlive:file_size">2985972857</property>
  <property name="kdenlive:file_hash">74db02cfa5f4e00ec8cbf3778f7bf9ee</property>
  <property name="kdenlive:proxy">-</property>
  <property name="proxy_out">3211</property>
  <property name="kdenlive:originalurl">src/04-06_Couplet2/CAM2_2017-11-25_0055_C0003.mov</property>
  <property name="global_feed">1</property>
  <property name="kdenlive:meta.media.nb_streams">3</property>
  <property name="kdenlive:meta.media.1.stream.type">video</property>
  <property name="kdenlive:meta.media.1.stream.frame_rate">24</property>
  <property name="kdenlive:meta.media.1.stream.sample_aspect_ratio">1</property>
  <property name="kdenlive:meta.media.1.codec.width">1920</property>
  <property name="kdenlive:meta.media.1.codec.height">1080</property>
  <property name="kdenlive:meta.media.1.codec.rotate">0</property>
  <property name="kdenlive:meta.media.1.codec.frame_rate">2400</property>
  <property name="kdenlive:meta.media.1.codec.pix_fmt">yuv422p10le</property>
  <property name="kdenlive:meta.media.1.codec.sample_aspect_ratio">0</property>
  <property name="kdenlive:meta.media.1.codec.colorspace">709</property>
  <property name="kdenlive:meta.media.1.codec.color_trc">1</property>
  <property name="kdenlive:meta.media.1.codec.name">prores</property>
  <property name="kdenlive:meta.media.1.codec.long_name">ProRes</property>
  <property name="kdenlive:meta.media.1.codec.bit_rate">176139229</property>
  <property name="kdenlive:meta.attr.1.stream.creation_time.markup">2017-11-25T00:55:39.000000Z</property>
  <property name="kdenlive:meta.attr.1.stream.language.markup">eng</property>
  <property name="kdenlive:meta.attr.1.stream.handler_name.markup">Apple Alias Data Handler</property>
  <property name="kdenlive:meta.attr.1.stream.encoder.markup">Apple ProRes 422 HQ</property>
  <property name="kdenlive:meta.attr.1.stream.timecode.markup">00:55:39:04</property>
  <property name="kdenlive:meta.media.2.stream.type">audio</property>
  <property name="kdenlive:meta.media.2.codec.sample_fmt">s32</property>
  <property name="kdenlive:meta.media.2.codec.sample_rate">48000</property>
  <property name="kdenlive:meta.media.2.codec.channels">2</property>
  <property name="kdenlive:meta.media.2.codec.name">pcm_s24le</property>
  <property name="kdenlive:meta.media.2.codec.long_name">PCM signed 24-bit little-endian</property>
  <property name="kdenlive:meta.media.2.codec.bit_rate">2304000</property>
  <property name="kdenlive:meta.attr.2.stream.creation_time.markup">2017-11-25T00:55:39.000000Z</property>
  <property name="kdenlive:meta.attr.2.stream.language.markup">eng</property>
  <property name="kdenlive:meta.attr.2.stream.handler_name.markup">Apple Alias Data Handler</property>
  <property name="kdenlive:meta.attr.2.stream.timecode.markup">00:55:39:04</property>
  <property name="kdenlive:meta.attr.com.apple.proapps.manufacturer.markup">Blackmagic Design</property>
  <property name="kdenlive:meta.attr.com.apple.proapps.cameraName.markup">CAM2</property>
  <property name="kdenlive:meta.attr.com.apple.proapps.isGood.markup">0</property>
  <property name="kdenlive:meta.attr.com.apple.proapps.customgamma.markup">com.blackmagic-design.cinemacamera.filmlog</property>
  <property name="kdenlive:meta.attr.com.blackmagic-design.cinemacamera.uuid.markup">18E5E00548F94923B646613A73C01B56</property>
  <property name="kdenlive:meta.attr.creation_time.markup">2017-11-25T00:55:39.000000Z</property>
  <property name="kdenlive:meta.attr.timecode.markup">00:55:39:04</property>
  <property name="kdenlive:meta.media.sample_aspect_num">1</property>
  <property name="kdenlive:meta.media.sample_aspect_den">1</property>
  <property name="kdenlive:meta.media.frame_rate_num">24</property>
  <property name="kdenlive:meta.media.frame_rate_den">1</property>
  <property name="kdenlive:meta.media.colorspace">709</property>
  <property name="kdenlive:meta.media.color_trc">1</property>
  <property name="kdenlive:meta.media.width">1920</property>
  <property name="kdenlive:meta.media.height">1080</property>
  <property name="kdenlive:meta.media.top_field_first">0</property>
  <property name="kdenlive:meta.media.progressive">1</property>
  <property name="xml">was here</property>
  <property name="meta.media.nb_streams">3</property>
  <property name="meta.media.1.stream.type">video</property>
  <property name="meta.media.1.stream.frame_rate">24</property>
  <property name="meta.media.1.stream.sample_aspect_ratio">1</property>
  <property name="meta.media.1.codec.width">1920</property>
  <property name="meta.media.1.codec.height">1080</property>
  <property name="meta.media.1.codec.rotate">0</property>
  <property name="meta.media.1.codec.frame_rate">2400</property>
  <property name="meta.media.1.codec.pix_fmt">yuv422p10le</property>
  <property name="meta.media.1.codec.sample_aspect_ratio">0</property>
  <property name="meta.media.1.codec.colorspace">709</property>
  <property name="meta.media.1.codec.color_trc">1</property>
  <property name="meta.media.1.codec.name">prores</property>
  <property name="meta.media.1.codec.long_name">ProRes</property>
  <property name="meta.media.1.codec.bit_rate">176139229</property>
  <property name="meta.attr.1.stream.creation_time.markup">2017-11-25T00:55:39.000000Z</property>
  <property name="meta.attr.1.stream.language.markup">eng</property>
  <property name="meta.attr.1.stream.handler_name.markup">Apple Alias Data Handler</property>
  <property name="meta.attr.1.stream.encoder.markup">Apple ProRes 422 HQ</property>
  <property name="meta.attr.1.stream.timecode.markup">00:55:39:04</property>
  <property name="meta.media.2.stream.type">audio</property>
  <property name="meta.media.2.codec.sample_fmt">s32</property>
  <property name="meta.media.2.codec.sample_rate">48000</property>
  <property name="meta.media.2.codec.channels">2</property>
  <property name="meta.media.2.codec.name">pcm_s24le</property>
  <property name="meta.media.2.codec.long_name">PCM signed 24-bit little-endian</property>
  <property name="meta.media.2.codec.bit_rate">2304000</property>
  <property name="meta.attr.2.stream.creation_time.markup">2017-11-25T00:55:39.000000Z</property>
  <property name="meta.attr.2.stream.language.markup">eng</property>
  <property name="meta.attr.2.stream.handler_name.markup">Apple Alias Data Handler</property>
  <property name="meta.attr.2.stream.timecode.markup">00:55:39:04</property>
  <property name="meta.attr.com.apple.proapps.manufacturer.markup">Blackmagic Design</property>
  <property name="meta.attr.com.apple.proapps.cameraName.markup">CAM2</property>
  <property name="meta.attr.com.apple.proapps.isGood.markup">0</property>
  <property name="meta.attr.com.apple.proapps.customgamma.markup">com.blackmagic-design.cinemacamera.filmlog</property>
  <property name="meta.attr.com.blackmagic-design.cinemacamera.uuid.markup">18E5E00548F94923B646613A73C01B56</property>
  <property name="meta.attr.creation_time.markup">2017-11-25T00:55:39.000000Z</property>
  <property name="meta.attr.timecode.markup">00:55:39:04</property>
  <property name="meta.media.sample_aspect_num">1</property>
  <property name="meta.media.sample_aspect_den">1</property>
  <property name="meta.media.frame_rate_num">24</property>
  <property name="meta.media.frame_rate_den">1</property>
  <property name="meta.media.colorspace">709</property>
  <property name="meta.media.color_trc">1</property>
  <property name="meta.media.width">1920</property>
  <property name="meta.media.height">1080</property>
  <property name="meta.media.top_field_first">0</property>
  <property name="meta.media.progressive">1</property>
 </producer>
 <playlist id="playlist5">
  <property name="kdenlive:track_name">Video 3</property>
  <property name="kdenlive:locked_track">1</property>
  <blank length="2866"/>
  <entry out="3211" producer="4_playlist5" in="1145"/>
  <filter id="gain">
   <property name="window">75</property>
   <property name="max_gain">20dB</property>
   <property name="mlt_service">volume</property>
   <property name="kdenlive_id">gain</property>
   <property name="tag">volume</property>
   <property name="kdenlive_ix">1</property>
   <property name="kdenlive_info"/>
   <property name="gain">2,75</property>
  </filter>
  <filter id="filter2">
   <property name="channel">0</property>
   <property name="mlt_service">panner</property>
   <property name="kdenlive_id">audiopan</property>
   <property name="tag">panner</property>
   <property name="kdenlive_ix">2</property>
   <property name="kdenlive_info"/>
   <property name="start">1</property>
  </filter>
 </playlist>
 <producer id="5_playlist0" title="Anonymous Submission" out="3737" in="0">
  <property name="length">00:02:35:18</property>
  <property name="eof">pause</property>
  <property name="resource">src/04-06_Couplet2/CAM2_2017-11-25_0058_C0004.mov</property>
  <property name="audio_index">2</property>
  <property name="video_index">1</property>
  <property name="mute_on_pause">1</property>
  <property name="mlt_service">avformat-novalidate</property>
  <property name="seekable">1</property>
  <property name="aspect_ratio">1</property>
  <property name="kdenlive:folderid">-1</property>
  <property name="kdenlive:file_size">3474956585</property>
  <property name="kdenlive:file_hash">ad22dd8a06e746adef0131909037660a</property>
  <property name="kdenlive:proxy">-</property>
  <property name="proxy_out">3737</property>
  <property name="kdenlive:originalurl">src/04-06_Couplet2/CAM2_2017-11-25_0058_C0004.mov</property>
  <property name="global_feed">1</property>
  <property name="kdenlive:meta.media.nb_streams">3</property>
  <property name="kdenlive:meta.media.1.stream.type">video</property>
  <property name="kdenlive:meta.media.1.stream.frame_rate">24</property>
  <property name="kdenlive:meta.media.1.stream.sample_aspect_ratio">1</property>
  <property name="kdenlive:meta.media.1.codec.width">1920</property>
  <property name="kdenlive:meta.media.1.codec.height">1080</property>
  <property name="kdenlive:meta.media.1.codec.rotate">0</property>
  <property name="kdenlive:meta.media.1.codec.frame_rate">2400</property>
  <property name="kdenlive:meta.media.1.codec.pix_fmt">yuv422p10le</property>
  <property name="kdenlive:meta.media.1.codec.sample_aspect_ratio">0</property>
  <property name="kdenlive:meta.media.1.codec.colorspace">709</property>
  <property name="kdenlive:meta.media.1.codec.color_trc">1</property>
  <property name="kdenlive:meta.media.1.codec.name">prores</property>
  <property name="kdenlive:meta.media.1.codec.long_name">ProRes</property>
  <property name="kdenlive:meta.media.1.codec.bit_rate">176138656</property>
  <property name="kdenlive:meta.attr.1.stream.creation_time.markup">2017-11-25T00:58:13.000000Z</property>
  <property name="kdenlive:meta.attr.1.stream.language.markup">eng</property>
  <property name="kdenlive:meta.attr.1.stream.handler_name.markup">Apple Alias Data Handler</property>
  <property name="kdenlive:meta.attr.1.stream.encoder.markup">Apple ProRes 422 HQ</property>
  <property name="kdenlive:meta.attr.1.stream.timecode.markup">00:58:13:00</property>
  <property name="kdenlive:meta.media.2.stream.type">audio</property>
  <property name="kdenlive:meta.media.2.codec.sample_fmt">s32</property>
  <property name="kdenlive:meta.media.2.codec.sample_rate">48000</property>
  <property name="kdenlive:meta.media.2.codec.channels">2</property>
  <property name="kdenlive:meta.media.2.codec.name">pcm_s24le</property>
  <property name="kdenlive:meta.media.2.codec.long_name">PCM signed 24-bit little-endian</property>
  <property name="kdenlive:meta.media.2.codec.bit_rate">2304000</property>
  <property name="kdenlive:meta.attr.2.stream.creation_time.markup">2017-11-25T00:58:13.000000Z</property>
  <property name="kdenlive:meta.attr.2.stream.language.markup">eng</property>
  <property name="kdenlive:meta.attr.2.stream.handler_name.markup">Apple Alias Data Handler</property>
  <property name="kdenlive:meta.attr.2.stream.timecode.markup">00:58:13:00</property>
  <property name="kdenlive:meta.attr.com.apple.proapps.manufacturer.markup">Blackmagic Design</property>
  <property name="kdenlive:meta.attr.com.apple.proapps.cameraName.markup">CAM2</property>
  <property name="kdenlive:meta.attr.com.apple.proapps.isGood.markup">0</property>
  <property name="kdenlive:meta.attr.com.apple.proapps.customgamma.markup">com.blackmagic-design.cinemacamera.filmlog</property>
  <property name="kdenlive:meta.attr.com.blackmagic-design.cinemacamera.uuid.markup">18E5E00548F94923B646613A73C01B56</property>
  <property name="kdenlive:meta.attr.creation_time.markup">2017-11-25T00:58:13.000000Z</property>
  <property name="kdenlive:meta.attr.timecode.markup">00:58:13:00</property>
  <property name="kdenlive:meta.media.sample_aspect_num">1</property>
  <property name="kdenlive:meta.media.sample_aspect_den">1</property>
  <property name="kdenlive:meta.media.frame_rate_num">24</property>
  <property name="kdenlive:meta.media.frame_rate_den">1</property>
  <property name="kdenlive:meta.media.colorspace">709</property>
  <property name="kdenlive:meta.media.color_trc">1</property>
  <property name="kdenlive:meta.media.width">1920</property>
  <property name="kdenlive:meta.media.height">1080</property>
  <property name="kdenlive:meta.media.top_field_first">0</property>
  <property name="kdenlive:meta.media.progressive">1</property>
  <property name="xml">was here</property>
  <property name="meta.media.nb_streams">3</property>
  <property name="meta.media.1.stream.type">video</property>
  <property name="meta.media.1.stream.frame_rate">24</property>
  <property name="meta.media.1.stream.sample_aspect_ratio">1</property>
  <property name="meta.media.1.codec.width">1920</property>
  <property name="meta.media.1.codec.height">1080</property>
  <property name="meta.media.1.codec.rotate">0</property>
  <property name="meta.media.1.codec.frame_rate">2400</property>
  <property name="meta.media.1.codec.pix_fmt">yuv422p10le</property>
  <property name="meta.media.1.codec.sample_aspect_ratio">0</property>
  <property name="meta.media.1.codec.colorspace">709</property>
  <property name="meta.media.1.codec.color_trc">1</property>
  <property name="meta.media.1.codec.name">prores</property>
  <property name="meta.media.1.codec.long_name">ProRes</property>
  <property name="meta.media.1.codec.bit_rate">176138656</property>
  <property name="meta.attr.1.stream.creation_time.markup">2017-11-25T00:58:13.000000Z</property>
  <property name="meta.attr.1.stream.language.markup">eng</property>
  <property name="meta.attr.1.stream.handler_name.markup">Apple Alias Data Handler</property>
  <property name="meta.attr.1.stream.encoder.markup">Apple ProRes 422 HQ</property>
  <property name="meta.attr.1.stream.timecode.markup">00:58:13:00</property>
  <property name="meta.media.2.stream.type">audio</property>
  <property name="meta.media.2.codec.sample_fmt">s32</property>
  <property name="meta.media.2.codec.sample_rate">48000</property>
  <property name="meta.media.2.codec.channels">2</property>
  <property name="meta.media.2.codec.name">pcm_s24le</property>
  <property name="meta.media.2.codec.long_name">PCM signed 24-bit little-endian</property>
  <property name="meta.media.2.codec.bit_rate">2304000</property>
  <property name="meta.attr.2.stream.creation_time.markup">2017-11-25T00:58:13.000000Z</property>
  <property name="meta.attr.2.stream.language.markup">eng</property>
  <property name="meta.attr.2.stream.handler_name.markup">Apple Alias Data Handler</property>
  <property name="meta.attr.2.stream.timecode.markup">00:58:13:00</property>
  <property name="meta.attr.com.apple.proapps.manufacturer.markup">Blackmagic Design</property>
  <property name="meta.attr.com.apple.proapps.cameraName.markup">CAM2</property>
  <property name="meta.attr.com.apple.proapps.isGood.markup">0</property>
  <property name="meta.attr.com.apple.proapps.customgamma.markup">com.blackmagic-design.cinemacamera.filmlog</property>
  <property name="meta.attr.com.blackmagic-design.cinemacamera.uuid.markup">18E5E00548F94923B646613A73C01B56</property>
  <property name="meta.attr.creation_time.markup">2017-11-25T00:58:13.000000Z</property>
  <property name="meta.attr.timecode.markup">00:58:13:00</property>
  <property name="meta.media.sample_aspect_num">1</property>
  <property name="meta.media.sample_aspect_den">1</property>
  <property name="meta.media.frame_rate_num">24</property>
  <property name="meta.media.frame_rate_den">1</property>
  <property name="meta.media.colorspace">709</property>
  <property name="meta.media.color_trc">1</property>
  <property name="meta.media.width">1920</property>
  <property name="meta.media.height">1080</property>
  <property name="meta.media.top_field_first">0</property>
  <property name="meta.media.progressive">1</property>
 </producer>
 <playlist id="playlist0">
  <property name="kdenlive:track_name">Video 4</property>
  <property name="kdenlive:locked_track">1</property>
  <blank length="2866"/>
  <entry out="3737" producer="5_playlist0" in="1897"/>
  <filter id="filter3">
   <property name="channel">0</property>
   <property name="mlt_service">panner</property>
   <property name="kdenlive_id">audiopan</property>
   <property name="tag">panner</property>
   <property name="kdenlive_ix">1</property>
   <property name="kdenlive_info"/>
   <property name="disable"/>
   <property name="start">1</property>
  </filter>
 </playlist>
 <producer id="6_playlist6" title="Anonymous Submission" out="4335" in="0">
  <property name="length">00:03:00:16</property>
  <property name="eof">pause</property>
  <property name="resource">src/04-06_Couplet2/CAM2_2017-11-25_0103_C0005.mov</property>
  <property name="audio_index">2</property>
  <property name="video_index">1</property>
  <property name="mute_on_pause">1</property>
  <property name="mlt_service">avformat-novalidate</property>
  <property name="seekable">1</property>
  <property name="aspect_ratio">1</property>
  <property name="kdenlive:folderid">-1</property>
  <property name="kdenlive:file_size">4030844401</property>
  <property name="kdenlive:file_hash">e757dcbca0f5d7fdb7d1af4658c00dfc</property>
  <property name="kdenlive:proxy">-</property>
  <property name="proxy_out">4335</property>
  <property name="kdenlive:originalurl">src/04-06_Couplet2/CAM2_2017-11-25_0103_C0005.mov</property>
  <property name="global_feed">1</property>
  <property name="kdenlive:meta.media.nb_streams">3</property>
  <property name="kdenlive:meta.media.1.stream.type">video</property>
  <property name="kdenlive:meta.media.1.stream.frame_rate">24</property>
  <property name="kdenlive:meta.media.1.stream.sample_aspect_ratio">1</property>
  <property name="kdenlive:meta.media.1.codec.width">1920</property>
  <property name="kdenlive:meta.media.1.codec.height">1080</property>
  <property name="kdenlive:meta.media.1.codec.rotate">0</property>
  <property name="kdenlive:meta.media.1.codec.frame_rate">2400</property>
  <property name="kdenlive:meta.media.1.codec.pix_fmt">yuv422p10le</property>
  <property name="kdenlive:meta.media.1.codec.sample_aspect_ratio">0</property>
  <property name="kdenlive:meta.media.1.codec.colorspace">709</property>
  <property name="kdenlive:meta.media.1.codec.color_trc">1</property>
  <property name="kdenlive:meta.media.1.codec.name">prores</property>
  <property name="kdenlive:meta.media.1.codec.long_name">ProRes</property>
  <property name="kdenlive:meta.media.1.codec.bit_rate">176139010</property>
  <property name="kdenlive:meta.attr.1.stream.creation_time.markup">2017-11-25T01:03:56.000000Z</property>
  <property name="kdenlive:meta.attr.1.stream.language.markup">eng</property>
  <property name="kdenlive:meta.attr.1.stream.handler_name.markup">Apple Alias Data Handler</property>
  <property name="kdenlive:meta.attr.1.stream.encoder.markup">Apple ProRes 422 HQ</property>
  <property name="kdenlive:meta.attr.1.stream.timecode.markup">01:03:56:12</property>
  <property name="kdenlive:meta.media.2.stream.type">audio</property>
  <property name="kdenlive:meta.media.2.codec.sample_fmt">s32</property>
  <property name="kdenlive:meta.media.2.codec.sample_rate">48000</property>
  <property name="kdenlive:meta.media.2.codec.channels">2</property>
  <property name="kdenlive:meta.media.2.codec.name">pcm_s24le</property>
  <property name="kdenlive:meta.media.2.codec.long_name">PCM signed 24-bit little-endian</property>
  <property name="kdenlive:meta.media.2.codec.bit_rate">2304000</property>
  <property name="kdenlive:meta.attr.2.stream.creation_time.markup">2017-11-25T01:03:56.000000Z</property>
  <property name="kdenlive:meta.attr.2.stream.language.markup">eng</property>
  <property name="kdenlive:meta.attr.2.stream.handler_name.markup">Apple Alias Data Handler</property>
  <property name="kdenlive:meta.attr.2.stream.timecode.markup">01:03:56:12</property>
  <property name="kdenlive:meta.attr.com.apple.proapps.manufacturer.markup">Blackmagic Design</property>
  <property name="kdenlive:meta.attr.com.apple.proapps.cameraName.markup">CAM2</property>
  <property name="kdenlive:meta.attr.com.apple.proapps.isGood.markup">0</property>
  <property name="kdenlive:meta.attr.com.apple.proapps.customgamma.markup">com.blackmagic-design.cinemacamera.filmlog</property>
  <property name="kdenlive:meta.attr.com.blackmagic-design.cinemacamera.uuid.markup">18E5E00548F94923B646613A73C01B56</property>
  <property name="kdenlive:meta.attr.creation_time.markup">2017-11-25T01:03:56.000000Z</property>
  <property name="kdenlive:meta.attr.timecode.markup">01:03:56:12</property>
  <property name="kdenlive:meta.media.sample_aspect_num">1</property>
  <property name="kdenlive:meta.media.sample_aspect_den">1</property>
  <property name="kdenlive:meta.media.frame_rate_num">24</property>
  <property name="kdenlive:meta.media.frame_rate_den">1</property>
  <property name="kdenlive:meta.media.colorspace">709</property>
  <property name="kdenlive:meta.media.color_trc">1</property>
  <property name="kdenlive:meta.media.width">1920</property>
  <property name="kdenlive:meta.media.height">1080</property>
  <property name="kdenlive:meta.media.top_field_first">0</property>
  <property name="kdenlive:meta.media.progressive">1</property>
  <property name="xml">was here</property>
  <property name="meta.media.nb_streams">3</property>
  <property name="meta.media.1.stream.type">video</property>
  <property name="meta.media.1.stream.frame_rate">24</property>
  <property name="meta.media.1.stream.sample_aspect_ratio">1</property>
  <property name="meta.media.1.codec.width">1920</property>
  <property name="meta.media.1.codec.height">1080</property>
  <property name="meta.media.1.codec.rotate">0</property>
  <property name="meta.media.1.codec.frame_rate">2400</property>
  <property name="meta.media.1.codec.pix_fmt">yuv422p10le</property>
  <property name="meta.media.1.codec.sample_aspect_ratio">0</property>
  <property name="meta.media.1.codec.colorspace">709</property>
  <property name="meta.media.1.codec.color_trc">1</property>
  <property name="meta.media.1.codec.name">prores</property>
  <property name="meta.media.1.codec.long_name">ProRes</property>
  <property name="meta.media.1.codec.bit_rate">176139010</property>
  <property name="meta.attr.1.stream.creation_time.markup">2017-11-25T01:03:56.000000Z</property>
  <property name="meta.attr.1.stream.language.markup">eng</property>
  <property name="meta.attr.1.stream.handler_name.markup">Apple Alias Data Handler</property>
  <property name="meta.attr.1.stream.encoder.markup">Apple ProRes 422 HQ</property>
  <property name="meta.attr.1.stream.timecode.markup">01:03:56:12</property>
  <property name="meta.media.2.stream.type">audio</property>
  <property name="meta.media.2.codec.sample_fmt">s32</property>
  <property name="meta.media.2.codec.sample_rate">48000</property>
  <property name="meta.media.2.codec.channels">2</property>
  <property name="meta.media.2.codec.name">pcm_s24le</property>
  <property name="meta.media.2.codec.long_name">PCM signed 24-bit little-endian</property>
  <property name="meta.media.2.codec.bit_rate">2304000</property>
  <property name="meta.attr.2.stream.creation_time.markup">2017-11-25T01:03:56.000000Z</property>
  <property name="meta.attr.2.stream.language.markup">eng</property>
  <property name="meta.attr.2.stream.handler_name.markup">Apple Alias Data Handler</property>
  <property name="meta.attr.2.stream.timecode.markup">01:03:56:12</property>
  <property name="meta.attr.com.apple.proapps.manufacturer.markup">Blackmagic Design</property>
  <property name="meta.attr.com.apple.proapps.cameraName.markup">CAM2</property>
  <property name="meta.attr.com.apple.proapps.isGood.markup">0</property>
  <property name="meta.attr.com.apple.proapps.customgamma.markup">com.blackmagic-design.cinemacamera.filmlog</property>
  <property name="meta.attr.com.blackmagic-design.cinemacamera.uuid.markup">18E5E00548F94923B646613A73C01B56</property>
  <property name="meta.attr.creation_time.markup">2017-11-25T01:03:56.000000Z</property>
  <property name="meta.attr.timecode.markup">01:03:56:12</property>
  <property name="meta.media.sample_aspect_num">1</property>
  <property name="meta.media.sample_aspect_den">1</property>
  <property name="meta.media.frame_rate_num">24</property>
  <property name="meta.media.frame_rate_den">1</property>
  <property name="meta.media.colorspace">709</property>
  <property name="meta.media.color_trc">1</property>
  <property name="meta.media.width">1920</property>
  <property name="meta.media.height">1080</property>
  <property name="meta.media.top_field_first">0</property>
  <property name="meta.media.progressive">1</property>
 </producer>
 <playlist id="playlist6">
  <property name="kdenlive:track_name">Video 5</property>
  <property name="kdenlive:locked_track">1</property>
  <blank length="2866"/>
  <entry out="4335" producer="6_playlist6" in="2179"/>
  <filter id="filter4">
   <property name="channel">0</property>
   <property name="mlt_service">panner</property>
   <property name="kdenlive_id">audiopan</property>
   <property name="tag">panner</property>
   <property name="kdenlive_ix">1</property>
   <property name="kdenlive_info"/>
   <property name="disable"/>
   <property name="start">1</property>
  </filter>
 </playlist>
 <producer id="7_playlist7" title="Anonymous Submission" out="2664" in="0">
  <property name="length">00:01:51:01</property>
  <property name="eof">pause</property>
  <property name="resource">src/04-06_Couplet2/CAM2_2017-11-25_0108_C0006.mov</property>
  <property name="audio_index">2</property>
  <property name="video_index">1</property>
  <property name="mute_on_pause">1</property>
  <property name="mlt_service">avformat-novalidate</property>
  <property name="seekable">1</property>
  <property name="aspect_ratio">1</property>
  <property name="kdenlive:folderid">-1</property>
  <property name="kdenlive:file_size">2477467081</property>
  <property name="kdenlive:file_hash">ab710307b950fc7c477f4663f45777fd</property>
  <property name="kdenlive:proxy">-</property>
  <property name="proxy_out">2664</property>
  <property name="kdenlive:originalurl">src/04-06_Couplet2/CAM2_2017-11-25_0108_C0006.mov</property>
  <property name="global_feed">1</property>
  <property name="kdenlive:meta.media.nb_streams">3</property>
  <property name="kdenlive:meta.media.1.stream.type">video</property>
  <property name="kdenlive:meta.media.1.stream.frame_rate">24</property>
  <property name="kdenlive:meta.media.1.stream.sample_aspect_ratio">1</property>
  <property name="kdenlive:meta.media.1.codec.width">1920</property>
  <property name="kdenlive:meta.media.1.codec.height">1080</property>
  <property name="kdenlive:meta.media.1.codec.rotate">0</property>
  <property name="kdenlive:meta.media.1.codec.frame_rate">2400</property>
  <property name="kdenlive:meta.media.1.codec.pix_fmt">yuv422p10le</property>
  <property name="kdenlive:meta.media.1.codec.sample_aspect_ratio">0</property>
  <property name="kdenlive:meta.media.1.codec.colorspace">709</property>
  <property name="kdenlive:meta.media.1.codec.color_trc">1</property>
  <property name="kdenlive:meta.media.1.codec.name">prores</property>
  <property name="kdenlive:meta.media.1.codec.long_name">ProRes</property>
  <property name="kdenlive:meta.media.1.codec.bit_rate">176139009</property>
  <property name="kdenlive:meta.attr.1.stream.creation_time.markup">2017-11-25T01:08:39.000000Z</property>
  <property name="kdenlive:meta.attr.1.stream.language.markup">eng</property>
  <property name="kdenlive:meta.attr.1.stream.handler_name.markup">Apple Alias Data Handler</property>
  <property name="kdenlive:meta.attr.1.stream.encoder.markup">Apple ProRes 422 HQ</property>
  <property name="kdenlive:meta.attr.1.stream.timecode.markup">01:08:39:12</property>
  <property name="kdenlive:meta.media.2.stream.type">audio</property>
  <property name="kdenlive:meta.media.2.codec.sample_fmt">s32</property>
  <property name="kdenlive:meta.media.2.codec.sample_rate">48000</property>
  <property name="kdenlive:meta.media.2.codec.channels">2</property>
  <property name="kdenlive:meta.media.2.codec.name">pcm_s24le</property>
  <property name="kdenlive:meta.media.2.codec.long_name">PCM signed 24-bit little-endian</property>
  <property name="kdenlive:meta.media.2.codec.bit_rate">2304000</property>
  <property name="kdenlive:meta.attr.2.stream.creation_time.markup">2017-11-25T01:08:39.000000Z</property>
  <property name="kdenlive:meta.attr.2.stream.language.markup">eng</property>
  <property name="kdenlive:meta.attr.2.stream.handler_name.markup">Apple Alias Data Handler</property>
  <property name="kdenlive:meta.attr.2.stream.timecode.markup">01:08:39:12</property>
  <property name="kdenlive:meta.attr.com.apple.proapps.manufacturer.markup">Blackmagic Design</property>
  <property name="kdenlive:meta.attr.com.apple.proapps.cameraName.markup">CAM2</property>
  <property name="kdenlive:meta.attr.com.apple.proapps.isGood.markup">0</property>
  <property name="kdenlive:meta.attr.com.apple.proapps.customgamma.markup">com.blackmagic-design.cinemacamera.filmlog</property>
  <property name="kdenlive:meta.attr.com.blackmagic-design.cinemacamera.uuid.markup">18E5E00548F94923B646613A73C01B56</property>
  <property name="kdenlive:meta.attr.creation_time.markup">2017-11-25T01:08:39.000000Z</property>
  <property name="kdenlive:meta.attr.timecode.markup">01:08:39:12</property>
  <property name="kdenlive:meta.media.sample_aspect_num">1</property>
  <property name="kdenlive:meta.media.sample_aspect_den">1</property>
  <property name="kdenlive:meta.media.frame_rate_num">24</property>
  <property name="kdenlive:meta.media.frame_rate_den">1</property>
  <property name="kdenlive:meta.media.colorspace">709</property>
  <property name="kdenlive:meta.media.color_trc">1</property>
  <property name="kdenlive:meta.media.width">1920</property>
  <property name="kdenlive:meta.media.height">1080</property>
  <property name="kdenlive:meta.media.top_field_first">0</property>
  <property name="kdenlive:meta.media.progressive">1</property>
  <property name="xml">was here</property>
  <property name="meta.media.nb_streams">3</property>
  <property name="meta.media.1.stream.type">video</property>
  <property name="meta.media.1.stream.frame_rate">24</property>
  <property name="meta.media.1.stream.sample_aspect_ratio">1</property>
  <property name="meta.media.1.codec.width">1920</property>
  <property name="meta.media.1.codec.height">1080</property>
  <property name="meta.media.1.codec.rotate">0</property>
  <property name="meta.media.1.codec.frame_rate">2400</property>
  <property name="meta.media.1.codec.pix_fmt">yuv422p10le</property>
  <property name="meta.media.1.codec.sample_aspect_ratio">0</property>
  <property name="meta.media.1.codec.colorspace">709</property>
  <property name="meta.media.1.codec.color_trc">1</property>
  <property name="meta.media.1.codec.name">prores</property>
  <property name="meta.media.1.codec.long_name">ProRes</property>
  <property name="meta.media.1.codec.bit_rate">176139009</property>
  <property name="meta.attr.1.stream.creation_time.markup">2017-11-25T01:08:39.000000Z</property>
  <property name="meta.attr.1.stream.language.markup">eng</property>
  <property name="meta.attr.1.stream.handler_name.markup">Apple Alias Data Handler</property>
  <property name="meta.attr.1.stream.encoder.markup">Apple ProRes 422 HQ</property>
  <property name="meta.attr.1.stream.timecode.markup">01:08:39:12</property>
  <property name="meta.media.2.stream.type">audio</property>
  <property name="meta.media.2.codec.sample_fmt">s32</property>
  <property name="meta.media.2.codec.sample_rate">48000</property>
  <property name="meta.media.2.codec.channels">2</property>
  <property name="meta.media.2.codec.name">pcm_s24le</property>
  <property name="meta.media.2.codec.long_name">PCM signed 24-bit little-endian</property>
  <property name="meta.media.2.codec.bit_rate">2304000</property>
  <property name="meta.attr.2.stream.creation_time.markup">2017-11-25T01:08:39.000000Z</property>
  <property name="meta.attr.2.stream.language.markup">eng</property>
  <property name="meta.attr.2.stream.handler_name.markup">Apple Alias Data Handler</property>
  <property name="meta.attr.2.stream.timecode.markup">01:08:39:12</property>
  <property name="meta.attr.com.apple.proapps.manufacturer.markup">Blackmagic Design</property>
  <property name="meta.attr.com.apple.proapps.cameraName.markup">CAM2</property>
  <property name="meta.attr.com.apple.proapps.isGood.markup">0</property>
  <property name="meta.attr.com.apple.proapps.customgamma.markup">com.blackmagic-design.cinemacamera.filmlog</property>
  <property name="meta.attr.com.blackmagic-design.cinemacamera.uuid.markup">18E5E00548F94923B646613A73C01B56</property>
  <property name="meta.attr.creation_time.markup">2017-11-25T01:08:39.000000Z</property>
  <property name="meta.attr.timecode.markup">01:08:39:12</property>
  <property name="meta.media.sample_aspect_num">1</property>
  <property name="meta.media.sample_aspect_den">1</property>
  <property name="meta.media.frame_rate_num">24</property>
  <property name="meta.media.frame_rate_den">1</property>
  <property name="meta.media.colorspace">709</property>
  <property name="meta.media.color_trc">1</property>
  <property name="meta.media.width">1920</property>
  <property name="meta.media.height">1080</property>
  <property name="meta.media.top_field_first">0</property>
  <property name="meta.media.progressive">1</property>
 </producer>
 <playlist id="playlist7">
  <property name="kdenlive:track_name">Video 6</property>
  <property name="kdenlive:locked_track">0</property>
  <blank length="2167"/>
  <entry out="958" producer="7_playlist7" in="793"/>
  <blank length="249"/>
  <entry out="555" producer="7_playlist7" in="415"/>
  <blank length="143"/>
  <entry out="2664" producer="7_playlist7" in="699"/>
  <filter id="filter5">
   <property name="channel">0</property>
   <property name="mlt_service">panner</property>
   <property name="kdenlive_id">audiopan</property>
   <property name="tag">panner</property>
   <property name="kdenlive_ix">1</property>
   <property name="kdenlive_info"/>
   <property name="disable"/>
   <property name="start">1</property>
  </filter>
 </playlist>
 <producer id="8_playlist8" title="Anonymous Submission" out="6028" in="0">
  <property name="length">00:04:11:05</property>
  <property name="eof">pause</property>
  <property name="resource">src/TheWholeRushes/Samedi_matin/CAM2_2017-11-24_0134_C0000.mov</property>
  <property name="audio_index">2</property>
  <property name="video_index">1</property>
  <property name="mute_on_pause">1</property>
  <property name="mlt_service">avformat-novalidate</property>
  <property name="seekable">1</property>
  <property name="aspect_ratio">1</property>
  <property name="kdenlive:folderid">-1</property>
  <property name="kdenlive:file_size">5604735529</property>
  <property name="kdenlive:file_hash">f7c0adb0953aed98701c13058f2178f5</property>
  <property name="kdenlive:proxy">-</property>
  <property name="proxy_out">6028</property>
  <property name="kdenlive:originalurl">src/04-06_Couplet2/mao1.sshfs/CAM2_2017-11-24_0134_C0000.mov</property>
  <property name="global_feed">1</property>
  <property name="kdenlive:meta.media.nb_streams">3</property>
  <property name="kdenlive:meta.media.1.stream.type">video</property>
  <property name="kdenlive:meta.media.1.stream.frame_rate">24</property>
  <property name="kdenlive:meta.media.1.stream.sample_aspect_ratio">1</property>
  <property name="kdenlive:meta.media.1.codec.width">1920</property>
  <property name="kdenlive:meta.media.1.codec.height">1080</property>
  <property name="kdenlive:meta.media.1.codec.rotate">0</property>
  <property name="kdenlive:meta.media.1.codec.frame_rate">2400</property>
  <property name="kdenlive:meta.media.1.codec.pix_fmt">yuv422p10le</property>
  <property name="kdenlive:meta.media.1.codec.sample_aspect_ratio">0</property>
  <property name="kdenlive:meta.media.1.codec.colorspace">709</property>
  <property name="kdenlive:meta.media.1.codec.color_trc">1</property>
  <property name="kdenlive:meta.media.1.codec.name">prores</property>
  <property name="kdenlive:meta.media.1.codec.long_name">ProRes</property>
  <property name="kdenlive:meta.media.1.codec.bit_rate">176141058</property>
  <property name="kdenlive:meta.attr.1.stream.creation_time.markup">2017-11-24T01:34:34.000000Z</property>
  <property name="kdenlive:meta.attr.1.stream.language.markup">eng</property>
  <property name="kdenlive:meta.attr.1.stream.handler_name.markup">Apple Alias Data Handler</property>
  <property name="kdenlive:meta.attr.1.stream.encoder.markup">Apple ProRes 422 HQ</property>
  <property name="kdenlive:meta.attr.1.stream.timecode.markup">01:34:34:10</property>
  <property name="kdenlive:meta.media.2.stream.type">audio</property>
  <property name="kdenlive:meta.media.2.codec.sample_fmt">s32</property>
  <property name="kdenlive:meta.media.2.codec.sample_rate">48000</property>
  <property name="kdenlive:meta.media.2.codec.channels">2</property>
  <property name="kdenlive:meta.media.2.codec.name">pcm_s24le</property>
  <property name="kdenlive:meta.media.2.codec.long_name">PCM signed 24-bit little-endian</property>
  <property name="kdenlive:meta.media.2.codec.bit_rate">2304000</property>
  <property name="kdenlive:meta.attr.2.stream.creation_time.markup">2017-11-24T01:34:34.000000Z</property>
  <property name="kdenlive:meta.attr.2.stream.language.markup">eng</property>
  <property name="kdenlive:meta.attr.2.stream.handler_name.markup">Apple Alias Data Handler</property>
  <property name="kdenlive:meta.attr.2.stream.timecode.markup">01:34:34:10</property>
  <property name="kdenlive:meta.attr.com.apple.proapps.manufacturer.markup">Blackmagic Design</property>
  <property name="kdenlive:meta.attr.com.apple.proapps.cameraName.markup">CAM2</property>
  <property name="kdenlive:meta.attr.com.apple.proapps.isGood.markup">0</property>
  <property name="kdenlive:meta.attr.com.apple.proapps.customgamma.markup">com.blackmagic-design.cinemacamera.filmlog</property>
  <property name="kdenlive:meta.attr.com.blackmagic-design.cinemacamera.uuid.markup">18E5E00548F94923B646613A73C01B56</property>
  <property name="kdenlive:meta.attr.creation_time.markup">2017-11-24T01:34:34.000000Z</property>
  <property name="kdenlive:meta.attr.timecode.markup">01:34:34:10</property>
  <property name="kdenlive:meta.media.sample_aspect_num">1</property>
  <property name="kdenlive:meta.media.sample_aspect_den">1</property>
  <property name="kdenlive:meta.media.frame_rate_num">24</property>
  <property name="kdenlive:meta.media.frame_rate_den">1</property>
  <property name="kdenlive:meta.media.colorspace">709</property>
  <property name="kdenlive:meta.media.color_trc">1</property>
  <property name="kdenlive:meta.media.width">1920</property>
  <property name="kdenlive:meta.media.height">1080</property>
  <property name="kdenlive:meta.media.top_field_first">0</property>
  <property name="kdenlive:meta.media.progressive">1</property>
  <property name="xml">was here</property>
  <property name="meta.media.nb_streams">3</property>
  <property name="meta.media.1.stream.type">video</property>
  <property name="meta.media.1.stream.frame_rate">24</property>
  <property name="meta.media.1.stream.sample_aspect_ratio">1</property>
  <property name="meta.media.1.codec.width">1920</property>
  <property name="meta.media.1.codec.height">1080</property>
  <property name="meta.media.1.codec.rotate">0</property>
  <property name="meta.media.1.codec.frame_rate">2400</property>
  <property name="meta.media.1.codec.pix_fmt">yuv422p10le</property>
  <property name="meta.media.1.codec.sample_aspect_ratio">0</property>
  <property name="meta.media.1.codec.colorspace">709</property>
  <property name="meta.media.1.codec.color_trc">1</property>
  <property name="meta.media.1.codec.name">prores</property>
  <property name="meta.media.1.codec.long_name">ProRes</property>
  <property name="meta.media.1.codec.bit_rate">176141058</property>
  <property name="meta.attr.1.stream.creation_time.markup">2017-11-24T01:34:34.000000Z</property>
  <property name="meta.attr.1.stream.language.markup">eng</property>
  <property name="meta.attr.1.stream.handler_name.markup">Apple Alias Data Handler</property>
  <property name="meta.attr.1.stream.encoder.markup">Apple ProRes 422 HQ</property>
  <property name="meta.attr.1.stream.timecode.markup">01:34:34:10</property>
  <property name="meta.media.2.stream.type">audio</property>
  <property name="meta.media.2.codec.sample_fmt">s32</property>
  <property name="meta.media.2.codec.sample_rate">48000</property>
  <property name="meta.media.2.codec.channels">2</property>
  <property name="meta.media.2.codec.name">pcm_s24le</property>
  <property name="meta.media.2.codec.long_name">PCM signed 24-bit little-endian</property>
  <property name="meta.media.2.codec.bit_rate">2304000</property>
  <property name="meta.attr.2.stream.creation_time.markup">2017-11-24T01:34:34.000000Z</property>
  <property name="meta.attr.2.stream.language.markup">eng</property>
  <property name="meta.attr.2.stream.handler_name.markup">Apple Alias Data Handler</property>
  <property name="meta.attr.2.stream.timecode.markup">01:34:34:10</property>
  <property name="meta.attr.com.apple.proapps.manufacturer.markup">Blackmagic Design</property>
  <property name="meta.attr.com.apple.proapps.cameraName.markup">CAM2</property>
  <property name="meta.attr.com.apple.proapps.isGood.markup">0</property>
  <property name="meta.attr.com.apple.proapps.customgamma.markup">com.blackmagic-design.cinemacamera.filmlog</property>
  <property name="meta.attr.com.blackmagic-design.cinemacamera.uuid.markup">18E5E00548F94923B646613A73C01B56</property>
  <property name="meta.attr.creation_time.markup">2017-11-24T01:34:34.000000Z</property>
  <property name="meta.attr.timecode.markup">01:34:34:10</property>
  <property name="meta.media.sample_aspect_num">1</property>
  <property name="meta.media.sample_aspect_den">1</property>
  <property name="meta.media.frame_rate_num">24</property>
  <property name="meta.media.frame_rate_den">1</property>
  <property name="meta.media.colorspace">709</property>
  <property name="meta.media.color_trc">1</property>
  <property name="meta.media.width">1920</property>
  <property name="meta.media.height">1080</property>
  <property name="meta.media.top_field_first">0</property>
  <property name="meta.media.progressive">1</property>
 </producer>
 <playlist id="playlist8">
  <property name="kdenlive:track_name">TravellingBof</property>
  <property name="kdenlive:locked_track">0</property>
  <blank length="2873"/>
  <entry out="3922" producer="8_playlist8" in="2173"/>
  <filter id="filter6">
   <property name="channel">0</property>
   <property name="mlt_service">panner</property>
   <property name="kdenlive_id">audiopan</property>
   <property name="tag">panner</property>
   <property name="kdenlive_ix">1</property>
   <property name="kdenlive_info"/>
   <property name="disable"/>
   <property name="start">1</property>
  </filter>
 </playlist>
 <producer id="8_playlist23" title="Anonymous Submission" out="6028" in="0">
  <property name="length">00:04:11:05</property>
  <property name="eof">pause</property>
  <property name="resource">src/TheWholeRushes/Samedi_matin/CAM2_2017-11-24_0134_C0000.mov</property>
  <property name="audio_index">2</property>
  <property name="video_index">1</property>
  <property name="mute_on_pause">1</property>
  <property name="mlt_service">avformat-novalidate</property>
  <property name="seekable">1</property>
  <property name="aspect_ratio">1</property>
  <property name="kdenlive:folderid">-1</property>
  <property name="kdenlive:file_size">5604735529</property>
  <property name="kdenlive:file_hash">f7c0adb0953aed98701c13058f2178f5</property>
  <property name="kdenlive:proxy">-</property>
  <property name="proxy_out">6028</property>
  <property name="kdenlive:originalurl">src/04-06_Couplet2/mao1.sshfs/CAM2_2017-11-24_0134_C0000.mov</property>
  <property name="global_feed">1</property>
  <property name="kdenlive:meta.media.nb_streams">3</property>
  <property name="kdenlive:meta.media.1.stream.type">video</property>
  <property name="kdenlive:meta.media.1.stream.frame_rate">24</property>
  <property name="kdenlive:meta.media.1.stream.sample_aspect_ratio">1</property>
  <property name="kdenlive:meta.media.1.codec.width">1920</property>
  <property name="kdenlive:meta.media.1.codec.height">1080</property>
  <property name="kdenlive:meta.media.1.codec.rotate">0</property>
  <property name="kdenlive:meta.media.1.codec.frame_rate">2400</property>
  <property name="kdenlive:meta.media.1.codec.pix_fmt">yuv422p10le</property>
  <property name="kdenlive:meta.media.1.codec.sample_aspect_ratio">0</property>
  <property name="kdenlive:meta.media.1.codec.colorspace">709</property>
  <property name="kdenlive:meta.media.1.codec.color_trc">1</property>
  <property name="kdenlive:meta.media.1.codec.name">prores</property>
  <property name="kdenlive:meta.media.1.codec.long_name">ProRes</property>
  <property name="kdenlive:meta.media.1.codec.bit_rate">176141058</property>
  <property name="kdenlive:meta.attr.1.stream.creation_time.markup">2017-11-24T01:34:34.000000Z</property>
  <property name="kdenlive:meta.attr.1.stream.language.markup">eng</property>
  <property name="kdenlive:meta.attr.1.stream.handler_name.markup">Apple Alias Data Handler</property>
  <property name="kdenlive:meta.attr.1.stream.encoder.markup">Apple ProRes 422 HQ</property>
  <property name="kdenlive:meta.attr.1.stream.timecode.markup">01:34:34:10</property>
  <property name="kdenlive:meta.media.2.stream.type">audio</property>
  <property name="kdenlive:meta.media.2.codec.sample_fmt">s32</property>
  <property name="kdenlive:meta.media.2.codec.sample_rate">48000</property>
  <property name="kdenlive:meta.media.2.codec.channels">2</property>
  <property name="kdenlive:meta.media.2.codec.name">pcm_s24le</property>
  <property name="kdenlive:meta.media.2.codec.long_name">PCM signed 24-bit little-endian</property>
  <property name="kdenlive:meta.media.2.codec.bit_rate">2304000</property>
  <property name="kdenlive:meta.attr.2.stream.creation_time.markup">2017-11-24T01:34:34.000000Z</property>
  <property name="kdenlive:meta.attr.2.stream.language.markup">eng</property>
  <property name="kdenlive:meta.attr.2.stream.handler_name.markup">Apple Alias Data Handler</property>
  <property name="kdenlive:meta.attr.2.stream.timecode.markup">01:34:34:10</property>
  <property name="kdenlive:meta.attr.com.apple.proapps.manufacturer.markup">Blackmagic Design</property>
  <property name="kdenlive:meta.attr.com.apple.proapps.cameraName.markup">CAM2</property>
  <property name="kdenlive:meta.attr.com.apple.proapps.isGood.markup">0</property>
  <property name="kdenlive:meta.attr.com.apple.proapps.customgamma.markup">com.blackmagic-design.cinemacamera.filmlog</property>
  <property name="kdenlive:meta.attr.com.blackmagic-design.cinemacamera.uuid.markup">18E5E00548F94923B646613A73C01B56</property>
  <property name="kdenlive:meta.attr.creation_time.markup">2017-11-24T01:34:34.000000Z</property>
  <property name="kdenlive:meta.attr.timecode.markup">01:34:34:10</property>
  <property name="kdenlive:meta.media.sample_aspect_num">1</property>
  <property name="kdenlive:meta.media.sample_aspect_den">1</property>
  <property name="kdenlive:meta.media.frame_rate_num">24</property>
  <property name="kdenlive:meta.media.frame_rate_den">1</property>
  <property name="kdenlive:meta.media.colorspace">709</property>
  <property name="kdenlive:meta.media.color_trc">1</property>
  <property name="kdenlive:meta.media.width">1920</property>
  <property name="kdenlive:meta.media.height">1080</property>
  <property name="kdenlive:meta.media.top_field_first">0</property>
  <property name="kdenlive:meta.media.progressive">1</property>
  <property name="xml">was here</property>
  <property name="meta.media.nb_streams">3</property>
  <property name="meta.media.1.stream.type">video</property>
  <property name="meta.media.1.stream.frame_rate">24</property>
  <property name="meta.media.1.stream.sample_aspect_ratio">1</property>
  <property name="meta.media.1.codec.width">1920</property>
  <property name="meta.media.1.codec.height">1080</property>
  <property name="meta.media.1.codec.rotate">0</property>
  <property name="meta.media.1.codec.frame_rate">2400</property>
  <property name="meta.media.1.codec.pix_fmt">yuv422p10le</property>
  <property name="meta.media.1.codec.sample_aspect_ratio">0</property>
  <property name="meta.media.1.codec.colorspace">709</property>
  <property name="meta.media.1.codec.color_trc">1</property>
  <property name="meta.media.1.codec.name">prores</property>
  <property name="meta.media.1.codec.long_name">ProRes</property>
  <property name="meta.media.1.codec.bit_rate">176141058</property>
  <property name="meta.attr.1.stream.creation_time.markup">2017-11-24T01:34:34.000000Z</property>
  <property name="meta.attr.1.stream.language.markup">eng</property>
  <property name="meta.attr.1.stream.handler_name.markup">Apple Alias Data Handler</property>
  <property name="meta.attr.1.stream.encoder.markup">Apple ProRes 422 HQ</property>
  <property name="meta.attr.1.stream.timecode.markup">01:34:34:10</property>
  <property name="meta.media.2.stream.type">audio</property>
  <property name="meta.media.2.codec.sample_fmt">s32</property>
  <property name="meta.media.2.codec.sample_rate">48000</property>
  <property name="meta.media.2.codec.channels">2</property>
  <property name="meta.media.2.codec.name">pcm_s24le</property>
  <property name="meta.media.2.codec.long_name">PCM signed 24-bit little-endian</property>
  <property name="meta.media.2.codec.bit_rate">2304000</property>
  <property name="meta.attr.2.stream.creation_time.markup">2017-11-24T01:34:34.000000Z</property>
  <property name="meta.attr.2.stream.language.markup">eng</property>
  <property name="meta.attr.2.stream.handler_name.markup">Apple Alias Data Handler</property>
  <property name="meta.attr.2.stream.timecode.markup">01:34:34:10</property>
  <property name="meta.attr.com.apple.proapps.manufacturer.markup">Blackmagic Design</property>
  <property name="meta.attr.com.apple.proapps.cameraName.markup">CAM2</property>
  <property name="meta.attr.com.apple.proapps.isGood.markup">0</property>
  <property name="meta.attr.com.apple.proapps.customgamma.markup">com.blackmagic-design.cinemacamera.filmlog</property>
  <property name="meta.attr.com.blackmagic-design.cinemacamera.uuid.markup">18E5E00548F94923B646613A73C01B56</property>
  <property name="meta.attr.creation_time.markup">2017-11-24T01:34:34.000000Z</property>
  <property name="meta.attr.timecode.markup">01:34:34:10</property>
  <property name="meta.media.sample_aspect_num">1</property>
  <property name="meta.media.sample_aspect_den">1</property>
  <property name="meta.media.frame_rate_num">24</property>
  <property name="meta.media.frame_rate_den">1</property>
  <property name="meta.media.colorspace">709</property>
  <property name="meta.media.color_trc">1</property>
  <property name="meta.media.width">1920</property>
  <property name="meta.media.height">1080</property>
  <property name="meta.media.top_field_first">0</property>
  <property name="meta.media.progressive">1</property>
 </producer>
 <playlist id="playlist23">
  <property name="kdenlive:track_name">TravellingMoyen</property>
  <property name="kdenlive:locked_track">0</property>
  <blank length="2721"/>
  <entry out="4393" producer="8_playlist23" in="4326"/>
  <blank length="84"/>
  <entry out="4534" producer="8_playlist23" in="4478"/>
  <blank length="136"/>
  <entry out="5092" producer="8_playlist23" in="4671"/>
 </playlist>
 <producer id="9_playlist9" title="Anonymous Submission" out="5047" in="0">
  <property name="length">00:03:30:08</property>
  <property name="eof">pause</property>
  <property name="resource">src/TheWholeRushes/Samedi_matin/CAM2_2017-11-24_0143_C0001.mov</property>
  <property name="audio_index">2</property>
  <property name="video_index">1</property>
  <property name="mute_on_pause">1</property>
  <property name="mlt_service">avformat-novalidate</property>
  <property name="seekable">1</property>
  <property name="aspect_ratio">1</property>
  <property name="kdenlive:folderid">-1</property>
  <property name="kdenlive:file_size">4692771041</property>
  <property name="kdenlive:file_hash">9f6e41c981f7658d7aa446ca21b52691</property>
  <property name="kdenlive:proxy">-</property>
  <property name="proxy_out">5047</property>
  <property name="kdenlive:originalurl">src/04-06_Couplet2/mao1.sshfs/CAM2_2017-11-24_0143_C0001.mov</property>
  <property name="global_feed">1</property>
  <property name="kdenlive:meta.media.nb_streams">3</property>
  <property name="kdenlive:meta.media.1.stream.type">video</property>
  <property name="kdenlive:meta.media.1.stream.frame_rate">24</property>
  <property name="kdenlive:meta.media.1.stream.sample_aspect_ratio">1</property>
  <property name="kdenlive:meta.media.1.codec.width">1920</property>
  <property name="kdenlive:meta.media.1.codec.height">1080</property>
  <property name="kdenlive:meta.media.1.codec.rotate">0</property>
  <property name="kdenlive:meta.media.1.codec.frame_rate">2400</property>
  <property name="kdenlive:meta.media.1.codec.pix_fmt">yuv422p10le</property>
  <property name="kdenlive:meta.media.1.codec.sample_aspect_ratio">0</property>
  <property name="kdenlive:meta.media.1.codec.colorspace">709</property>
  <property name="kdenlive:meta.media.1.codec.color_trc">1</property>
  <property name="kdenlive:meta.media.1.codec.name">prores</property>
  <property name="kdenlive:meta.media.1.codec.long_name">ProRes</property>
  <property name="kdenlive:meta.media.1.codec.bit_rate">176140696</property>
  <property name="kdenlive:meta.attr.1.stream.creation_time.markup">2017-11-24T01:43:03.000000Z</property>
  <property name="kdenlive:meta.attr.1.stream.language.markup">eng</property>
  <property name="kdenlive:meta.attr.1.stream.handler_name.markup">Apple Alias Data Handler</property>
  <property name="kdenlive:meta.attr.1.stream.encoder.markup">Apple ProRes 422 HQ</property>
  <property name="kdenlive:meta.attr.1.stream.timecode.markup">01:43:03:00</property>
  <property name="kdenlive:meta.media.2.stream.type">audio</property>
  <property name="kdenlive:meta.media.2.codec.sample_fmt">s32</property>
  <property name="kdenlive:meta.media.2.codec.sample_rate">48000</property>
  <property name="kdenlive:meta.media.2.codec.channels">2</property>
  <property name="kdenlive:meta.media.2.codec.name">pcm_s24le</property>
  <property name="kdenlive:meta.media.2.codec.long_name">PCM signed 24-bit little-endian</property>
  <property name="kdenlive:meta.media.2.codec.bit_rate">2304000</property>
  <property name="kdenlive:meta.attr.2.stream.creation_time.markup">2017-11-24T01:43:03.000000Z</property>
  <property name="kdenlive:meta.attr.2.stream.language.markup">eng</property>
  <property name="kdenlive:meta.attr.2.stream.handler_name.markup">Apple Alias Data Handler</property>
  <property name="kdenlive:meta.attr.2.stream.timecode.markup">01:43:03:00</property>
  <property name="kdenlive:meta.attr.com.apple.proapps.manufacturer.markup">Blackmagic Design</property>
  <property name="kdenlive:meta.attr.com.apple.proapps.cameraName.markup">CAM2</property>
  <property name="kdenlive:meta.attr.com.apple.proapps.isGood.markup">0</property>
  <property name="kdenlive:meta.attr.com.apple.proapps.customgamma.markup">com.blackmagic-design.cinemacamera.filmlog</property>
  <property name="kdenlive:meta.attr.com.blackmagic-design.cinemacamera.uuid.markup">18E5E00548F94923B646613A73C01B56</property>
  <property name="kdenlive:meta.attr.creation_time.markup">2017-11-24T01:43:03.000000Z</property>
  <property name="kdenlive:meta.attr.timecode.markup">01:43:03:00</property>
  <property name="kdenlive:meta.media.sample_aspect_num">1</property>
  <property name="kdenlive:meta.media.sample_aspect_den">1</property>
  <property name="kdenlive:meta.media.frame_rate_num">24</property>
  <property name="kdenlive:meta.media.frame_rate_den">1</property>
  <property name="kdenlive:meta.media.colorspace">709</property>
  <property name="kdenlive:meta.media.color_trc">1</property>
  <property name="kdenlive:meta.media.width">1920</property>
  <property name="kdenlive:meta.media.height">1080</property>
  <property name="kdenlive:meta.media.top_field_first">0</property>
  <property name="kdenlive:meta.media.progressive">1</property>
  <property name="xml">was here</property>
  <property name="meta.media.nb_streams">3</property>
  <property name="meta.media.1.stream.type">video</property>
  <property name="meta.media.1.stream.frame_rate">24</property>
  <property name="meta.media.1.stream.sample_aspect_ratio">1</property>
  <property name="meta.media.1.codec.width">1920</property>
  <property name="meta.media.1.codec.height">1080</property>
  <property name="meta.media.1.codec.rotate">0</property>
  <property name="meta.media.1.codec.frame_rate">2400</property>
  <property name="meta.media.1.codec.pix_fmt">yuv422p10le</property>
  <property name="meta.media.1.codec.sample_aspect_ratio">0</property>
  <property name="meta.media.1.codec.colorspace">709</property>
  <property name="meta.media.1.codec.color_trc">1</property>
  <property name="meta.media.1.codec.name">prores</property>
  <property name="meta.media.1.codec.long_name">ProRes</property>
  <property name="meta.media.1.codec.bit_rate">176140696</property>
  <property name="meta.attr.1.stream.creation_time.markup">2017-11-24T01:43:03.000000Z</property>
  <property name="meta.attr.1.stream.language.markup">eng</property>
  <property name="meta.attr.1.stream.handler_name.markup">Apple Alias Data Handler</property>
  <property name="meta.attr.1.stream.encoder.markup">Apple ProRes 422 HQ</property>
  <property name="meta.attr.1.stream.timecode.markup">01:43:03:00</property>
  <property name="meta.media.2.stream.type">audio</property>
  <property name="meta.media.2.codec.sample_fmt">s32</property>
  <property name="meta.media.2.codec.sample_rate">48000</property>
  <property name="meta.media.2.codec.channels">2</property>
  <property name="meta.media.2.codec.name">pcm_s24le</property>
  <property name="meta.media.2.codec.long_name">PCM signed 24-bit little-endian</property>
  <property name="meta.media.2.codec.bit_rate">2304000</property>
  <property name="meta.attr.2.stream.creation_time.markup">2017-11-24T01:43:03.000000Z</property>
  <property name="meta.attr.2.stream.language.markup">eng</property>
  <property name="meta.attr.2.stream.handler_name.markup">Apple Alias Data Handler</property>
  <property name="meta.attr.2.stream.timecode.markup">01:43:03:00</property>
  <property name="meta.attr.com.apple.proapps.manufacturer.markup">Blackmagic Design</property>
  <property name="meta.attr.com.apple.proapps.cameraName.markup">CAM2</property>
  <property name="meta.attr.com.apple.proapps.isGood.markup">0</property>
  <property name="meta.attr.com.apple.proapps.customgamma.markup">com.blackmagic-design.cinemacamera.filmlog</property>
  <property name="meta.attr.com.blackmagic-design.cinemacamera.uuid.markup">18E5E00548F94923B646613A73C01B56</property>
  <property name="meta.attr.creation_time.markup">2017-11-24T01:43:03.000000Z</property>
  <property name="meta.attr.timecode.markup">01:43:03:00</property>
  <property name="meta.media.sample_aspect_num">1</property>
  <property name="meta.media.sample_aspect_den">1</property>
  <property name="meta.media.frame_rate_num">24</property>
  <property name="meta.media.frame_rate_den">1</property>
  <property name="meta.media.colorspace">709</property>
  <property name="meta.media.color_trc">1</property>
  <property name="meta.media.width">1920</property>
  <property name="meta.media.height">1080</property>
  <property name="meta.media.top_field_first">0</property>
  <property name="meta.media.progressive">1</property>
 </producer>
 <playlist id="playlist9">
  <property name="kdenlive:track_name">TravellingProcheCalme</property>
  <property name="kdenlive:locked_track">0</property>
  <blank length="1168"/>
  <entry out="4340" producer="9_playlist9" in="4101"/>
  <blank length="759"/>
  <entry out="2026" producer="9_playlist9" in="1885"/>
  <blank length="480"/>
  <entry out="2566" producer="9_playlist9" in="2507"/>
  <blank length="24"/>
  <entry out="2676" producer="9_playlist9" in="2591"/>
  <blank length="107"/>
  <entry out="4100" producer="9_playlist9" in="2784"/>
  <filter id="filter7">
   <property name="channel">0</property>
   <property name="mlt_service">panner</property>
   <property name="kdenlive_id">audiopan</property>
   <property name="tag">panner</property>
   <property name="kdenlive_ix">1</property>
   <property name="kdenlive_info"/>
   <property name="disable"/>
   <property name="start">1</property>
  </filter>
 </playlist>
 <producer id="10_playlist10" title="Anonymous Submission" out="2728" in="0">
  <property name="length">00:01:53:17</property>
  <property name="eof">pause</property>
  <property name="resource">src/TheWholeRushes/Samedi_matin/CAM2_2017-11-24_0148_C0002.mov</property>
  <property name="audio_index">2</property>
  <property name="video_index">1</property>
  <property name="mute_on_pause">1</property>
  <property name="mlt_service">avformat-novalidate</property>
  <property name="seekable">1</property>
  <property name="aspect_ratio">1</property>
  <property name="kdenlive:folderid">-1</property>
  <property name="kdenlive:file_size">2536962009</property>
  <property name="kdenlive:file_hash">302d091637657ca34b70898f916f892b</property>
  <property name="kdenlive:proxy">-</property>
  <property name="proxy_out">2728</property>
  <property name="kdenlive:originalurl">src/04-06_Couplet2/mao1.sshfs/CAM2_2017-11-24_0148_C0002.mov</property>
  <property name="global_feed">1</property>
  <property name="kdenlive:meta.media.nb_streams">3</property>
  <property name="kdenlive:meta.media.1.stream.type">video</property>
  <property name="kdenlive:meta.media.1.stream.frame_rate">24</property>
  <property name="kdenlive:meta.media.1.stream.sample_aspect_ratio">1</property>
  <property name="kdenlive:meta.media.1.codec.width">1920</property>
  <property name="kdenlive:meta.media.1.codec.height">1080</property>
  <property name="kdenlive:meta.media.1.codec.rotate">0</property>
  <property name="kdenlive:meta.media.1.codec.frame_rate">2400</property>
  <property name="kdenlive:meta.media.1.codec.pix_fmt">yuv422p10le</property>
  <property name="kdenlive:meta.media.1.codec.sample_aspect_ratio">0</property>
  <property name="kdenlive:meta.media.1.codec.colorspace">709</property>
  <property name="kdenlive:meta.media.1.codec.color_trc">1</property>
  <property name="kdenlive:meta.media.1.codec.name">prores</property>
  <property name="kdenlive:meta.media.1.codec.long_name">ProRes</property>
  <property name="kdenlive:meta.media.1.codec.bit_rate">176141156</property>
  <property name="kdenlive:meta.attr.1.stream.creation_time.markup">2017-11-24T01:48:50.000000Z</property>
  <property name="kdenlive:meta.attr.1.stream.language.markup">eng</property>
  <property name="kdenlive:meta.attr.1.stream.handler_name.markup">Apple Alias Data Handler</property>
  <property name="kdenlive:meta.attr.1.stream.encoder.markup">Apple ProRes 422 HQ</property>
  <property name="kdenlive:meta.attr.1.stream.timecode.markup">01:48:50:12</property>
  <property name="kdenlive:meta.media.2.stream.type">audio</property>
  <property name="kdenlive:meta.media.2.codec.sample_fmt">s32</property>
  <property name="kdenlive:meta.media.2.codec.sample_rate">48000</property>
  <property name="kdenlive:meta.media.2.codec.channels">2</property>
  <property name="kdenlive:meta.media.2.codec.name">pcm_s24le</property>
  <property name="kdenlive:meta.media.2.codec.long_name">PCM signed 24-bit little-endian</property>
  <property name="kdenlive:meta.media.2.codec.bit_rate">2304000</property>
  <property name="kdenlive:meta.attr.2.stream.creation_time.markup">2017-11-24T01:48:50.000000Z</property>
  <property name="kdenlive:meta.attr.2.stream.language.markup">eng</property>
  <property name="kdenlive:meta.attr.2.stream.handler_name.markup">Apple Alias Data Handler</property>
  <property name="kdenlive:meta.attr.2.stream.timecode.markup">01:48:50:12</property>
  <property name="kdenlive:meta.attr.com.apple.proapps.manufacturer.markup">Blackmagic Design</property>
  <property name="kdenlive:meta.attr.com.apple.proapps.cameraName.markup">CAM2</property>
  <property name="kdenlive:meta.attr.com.apple.proapps.isGood.markup">0</property>
  <property name="kdenlive:meta.attr.com.apple.proapps.customgamma.markup">com.blackmagic-design.cinemacamera.filmlog</property>
  <property name="kdenlive:meta.attr.com.blackmagic-design.cinemacamera.uuid.markup">18E5E00548F94923B646613A73C01B56</property>
  <property name="kdenlive:meta.attr.creation_time.markup">2017-11-24T01:48:50.000000Z</property>
  <property name="kdenlive:meta.attr.timecode.markup">01:48:50:12</property>
  <property name="kdenlive:meta.media.sample_aspect_num">1</property>
  <property name="kdenlive:meta.media.sample_aspect_den">1</property>
  <property name="kdenlive:meta.media.frame_rate_num">24</property>
  <property name="kdenlive:meta.media.frame_rate_den">1</property>
  <property name="kdenlive:meta.media.colorspace">709</property>
  <property name="kdenlive:meta.media.color_trc">1</property>
  <property name="kdenlive:meta.media.width">1920</property>
  <property name="kdenlive:meta.media.height">1080</property>
  <property name="kdenlive:meta.media.top_field_first">0</property>
  <property name="kdenlive:meta.media.progressive">1</property>
  <property name="xml">was here</property>
  <property name="meta.media.nb_streams">3</property>
  <property name="meta.media.1.stream.type">video</property>
  <property name="meta.media.1.stream.frame_rate">24</property>
  <property name="meta.media.1.stream.sample_aspect_ratio">1</property>
  <property name="meta.media.1.codec.width">1920</property>
  <property name="meta.media.1.codec.height">1080</property>
  <property name="meta.media.1.codec.rotate">0</property>
  <property name="meta.media.1.codec.frame_rate">2400</property>
  <property name="meta.media.1.codec.pix_fmt">yuv422p10le</property>
  <property name="meta.media.1.codec.sample_aspect_ratio">0</property>
  <property name="meta.media.1.codec.colorspace">709</property>
  <property name="meta.media.1.codec.color_trc">1</property>
  <property name="meta.media.1.codec.name">prores</property>
  <property name="meta.media.1.codec.long_name">ProRes</property>
  <property name="meta.media.1.codec.bit_rate">176141156</property>
  <property name="meta.attr.1.stream.creation_time.markup">2017-11-24T01:48:50.000000Z</property>
  <property name="meta.attr.1.stream.language.markup">eng</property>
  <property name="meta.attr.1.stream.handler_name.markup">Apple Alias Data Handler</property>
  <property name="meta.attr.1.stream.encoder.markup">Apple ProRes 422 HQ</property>
  <property name="meta.attr.1.stream.timecode.markup">01:48:50:12</property>
  <property name="meta.media.2.stream.type">audio</property>
  <property name="meta.media.2.codec.sample_fmt">s32</property>
  <property name="meta.media.2.codec.sample_rate">48000</property>
  <property name="meta.media.2.codec.channels">2</property>
  <property name="meta.media.2.codec.name">pcm_s24le</property>
  <property name="meta.media.2.codec.long_name">PCM signed 24-bit little-endian</property>
  <property name="meta.media.2.codec.bit_rate">2304000</property>
  <property name="meta.attr.2.stream.creation_time.markup">2017-11-24T01:48:50.000000Z</property>
  <property name="meta.attr.2.stream.language.markup">eng</property>
  <property name="meta.attr.2.stream.handler_name.markup">Apple Alias Data Handler</property>
  <property name="meta.attr.2.stream.timecode.markup">01:48:50:12</property>
  <property name="meta.attr.com.apple.proapps.manufacturer.markup">Blackmagic Design</property>
  <property name="meta.attr.com.apple.proapps.cameraName.markup">CAM2</property>
  <property name="meta.attr.com.apple.proapps.isGood.markup">0</property>
  <property name="meta.attr.com.apple.proapps.customgamma.markup">com.blackmagic-design.cinemacamera.filmlog</property>
  <property name="meta.attr.com.blackmagic-design.cinemacamera.uuid.markup">18E5E00548F94923B646613A73C01B56</property>
  <property name="meta.attr.creation_time.markup">2017-11-24T01:48:50.000000Z</property>
  <property name="meta.attr.timecode.markup">01:48:50:12</property>
  <property name="meta.media.sample_aspect_num">1</property>
  <property name="meta.media.sample_aspect_den">1</property>
  <property name="meta.media.frame_rate_num">24</property>
  <property name="meta.media.frame_rate_den">1</property>
  <property name="meta.media.colorspace">709</property>
  <property name="meta.media.color_trc">1</property>
  <property name="meta.media.width">1920</property>
  <property name="meta.media.height">1080</property>
  <property name="meta.media.top_field_first">0</property>
  <property name="meta.media.progressive">1</property>
 </producer>
 <playlist id="playlist10">
  <property name="kdenlive:track_name">TrallingProchePasMal</property>
  <property name="kdenlive:locked_track">0</property>
  <blank length="1659"/>
  <entry out="594" producer="10_playlist10" in="0"/>
  <blank length="585"/>
  <entry out="1213" producer="10_playlist10" in="1180"/>
  <blank length="27"/>
  <entry out="1270" producer="10_playlist10" in="1241"/>
  <blank length="17"/>
  <entry out="1304" producer="10_playlist10" in="1288"/>
  <blank length="102"/>
  <entry out="1480" producer="10_playlist10" in="1407"/>
  <blank length="32"/>
  <entry out="1682" producer="10_playlist10" in="1513"/>
  <blank length="296"/>
  <entry out="2728" producer="10_playlist10" in="1979"/>
  <filter id="filter8">
   <property name="channel">0</property>
   <property name="mlt_service">panner</property>
   <property name="kdenlive_id">audiopan</property>
   <property name="tag">panner</property>
   <property name="kdenlive_ix">1</property>
   <property name="kdenlive_info"/>
   <property name="disable"/>
   <property name="start">1</property>
  </filter>
 </playlist>
 <producer id="11_playlist11" title="Anonymous Submission" out="1866" in="0">
  <property name="length">00:01:17:19</property>
  <property name="eof">pause</property>
  <property name="resource">src/TheWholeRushes/Samedi_matin/CAM2_2017-11-24_0152_C0003.mov</property>
  <property name="audio_index">2</property>
  <property name="video_index">1</property>
  <property name="mute_on_pause">1</property>
  <property name="mlt_service">avformat-novalidate</property>
  <property name="seekable">1</property>
  <property name="aspect_ratio">1</property>
  <property name="kdenlive:folderid">-1</property>
  <property name="kdenlive:file_size">1735623353</property>
  <property name="kdenlive:file_hash">135377d0fb800f4c0227e31eacc02d7f</property>
  <property name="kdenlive:proxy">-</property>
  <property name="proxy_out">1866</property>
  <property name="kdenlive:originalurl">src/04-06_Couplet2/mao1.sshfs/CAM2_2017-11-24_0152_C0003.mov</property>
  <property name="global_feed">1</property>
  <property name="kdenlive:meta.media.nb_streams">3</property>
  <property name="kdenlive:meta.media.1.stream.type">video</property>
  <property name="kdenlive:meta.media.1.stream.frame_rate">24</property>
  <property name="kdenlive:meta.media.1.stream.sample_aspect_ratio">1</property>
  <property name="kdenlive:meta.media.1.codec.width">1920</property>
  <property name="kdenlive:meta.media.1.codec.height">1080</property>
  <property name="kdenlive:meta.media.1.codec.rotate">0</property>
  <property name="kdenlive:meta.media.1.codec.frame_rate">2400</property>
  <property name="kdenlive:meta.media.1.codec.pix_fmt">yuv422p10le</property>
  <property name="kdenlive:meta.media.1.codec.sample_aspect_ratio">0</property>
  <property name="kdenlive:meta.media.1.codec.colorspace">709</property>
  <property name="kdenlive:meta.media.1.codec.color_trc">1</property>
  <property name="kdenlive:meta.media.1.codec.name">prores</property>
  <property name="kdenlive:meta.media.1.codec.long_name">ProRes</property>
  <property name="kdenlive:meta.media.1.codec.bit_rate">176140680</property>
  <property name="kdenlive:meta.attr.1.stream.creation_time.markup">2017-11-24T01:52:33.000000Z</property>
  <property name="kdenlive:meta.attr.1.stream.language.markup">eng</property>
  <property name="kdenlive:meta.attr.1.stream.handler_name.markup">Apple Alias Data Handler</property>
  <property name="kdenlive:meta.attr.1.stream.encoder.markup">Apple ProRes 422 HQ</property>
  <property name="kdenlive:meta.attr.1.stream.timecode.markup">01:52:33:01</property>
  <property name="kdenlive:meta.media.2.stream.type">audio</property>
  <property name="kdenlive:meta.media.2.codec.sample_fmt">s32</property>
  <property name="kdenlive:meta.media.2.codec.sample_rate">48000</property>
  <property name="kdenlive:meta.media.2.codec.channels">2</property>
  <property name="kdenlive:meta.media.2.codec.name">pcm_s24le</property>
  <property name="kdenlive:meta.media.2.codec.long_name">PCM signed 24-bit little-endian</property>
  <property name="kdenlive:meta.media.2.codec.bit_rate">2304000</property>
  <property name="kdenlive:meta.attr.2.stream.creation_time.markup">2017-11-24T01:52:33.000000Z</property>
  <property name="kdenlive:meta.attr.2.stream.language.markup">eng</property>
  <property name="kdenlive:meta.attr.2.stream.handler_name.markup">Apple Alias Data Handler</property>
  <property name="kdenlive:meta.attr.2.stream.timecode.markup">01:52:33:01</property>
  <property name="kdenlive:meta.attr.com.apple.proapps.manufacturer.markup">Blackmagic Design</property>
  <property name="kdenlive:meta.attr.com.apple.proapps.cameraName.markup">CAM2</property>
  <property name="kdenlive:meta.attr.com.apple.proapps.isGood.markup">0</property>
  <property name="kdenlive:meta.attr.com.apple.proapps.customgamma.markup">com.blackmagic-design.cinemacamera.filmlog</property>
  <property name="kdenlive:meta.attr.com.blackmagic-design.cinemacamera.uuid.markup">18E5E00548F94923B646613A73C01B56</property>
  <property name="kdenlive:meta.attr.creation_time.markup">2017-11-24T01:52:33.000000Z</property>
  <property name="kdenlive:meta.attr.timecode.markup">01:52:33:01</property>
  <property name="kdenlive:meta.media.sample_aspect_num">1</property>
  <property name="kdenlive:meta.media.sample_aspect_den">1</property>
  <property name="kdenlive:meta.media.frame_rate_num">24</property>
  <property name="kdenlive:meta.media.frame_rate_den">1</property>
  <property name="kdenlive:meta.media.colorspace">709</property>
  <property name="kdenlive:meta.media.color_trc">1</property>
  <property name="kdenlive:meta.media.width">1920</property>
  <property name="kdenlive:meta.media.height">1080</property>
  <property name="kdenlive:meta.media.top_field_first">0</property>
  <property name="kdenlive:meta.media.progressive">1</property>
  <property name="xml">was here</property>
  <property name="meta.media.nb_streams">3</property>
  <property name="meta.media.1.stream.type">video</property>
  <property name="meta.media.1.stream.frame_rate">24</property>
  <property name="meta.media.1.stream.sample_aspect_ratio">1</property>
  <property name="meta.media.1.codec.width">1920</property>
  <property name="meta.media.1.codec.height">1080</property>
  <property name="meta.media.1.codec.rotate">0</property>
  <property name="meta.media.1.codec.frame_rate">2400</property>
  <property name="meta.media.1.codec.pix_fmt">yuv422p10le</property>
  <property name="meta.media.1.codec.sample_aspect_ratio">0</property>
  <property name="meta.media.1.codec.colorspace">709</property>
  <property name="meta.media.1.codec.color_trc">1</property>
  <property name="meta.media.1.codec.name">prores</property>
  <property name="meta.media.1.codec.long_name">ProRes</property>
  <property name="meta.media.1.codec.bit_rate">176140680</property>
  <property name="meta.attr.1.stream.creation_time.markup">2017-11-24T01:52:33.000000Z</property>
  <property name="meta.attr.1.stream.language.markup">eng</property>
  <property name="meta.attr.1.stream.handler_name.markup">Apple Alias Data Handler</property>
  <property name="meta.attr.1.stream.encoder.markup">Apple ProRes 422 HQ</property>
  <property name="meta.attr.1.stream.timecode.markup">01:52:33:01</property>
  <property name="meta.media.2.stream.type">audio</property>
  <property name="meta.media.2.codec.sample_fmt">s32</property>
  <property name="meta.media.2.codec.sample_rate">48000</property>
  <property name="meta.media.2.codec.channels">2</property>
  <property name="meta.media.2.codec.name">pcm_s24le</property>
  <property name="meta.media.2.codec.long_name">PCM signed 24-bit little-endian</property>
  <property name="meta.media.2.codec.bit_rate">2304000</property>
  <property name="meta.attr.2.stream.creation_time.markup">2017-11-24T01:52:33.000000Z</property>
  <property name="meta.attr.2.stream.language.markup">eng</property>
  <property name="meta.attr.2.stream.handler_name.markup">Apple Alias Data Handler</property>
  <property name="meta.attr.2.stream.timecode.markup">01:52:33:01</property>
  <property name="meta.attr.com.apple.proapps.manufacturer.markup">Blackmagic Design</property>
  <property name="meta.attr.com.apple.proapps.cameraName.markup">CAM2</property>
  <property name="meta.attr.com.apple.proapps.isGood.markup">0</property>
  <property name="meta.attr.com.apple.proapps.customgamma.markup">com.blackmagic-design.cinemacamera.filmlog</property>
  <property name="meta.attr.com.blackmagic-design.cinemacamera.uuid.markup">18E5E00548F94923B646613A73C01B56</property>
  <property name="meta.attr.creation_time.markup">2017-11-24T01:52:33.000000Z</property>
  <property name="meta.attr.timecode.markup">01:52:33:01</property>
  <property name="meta.media.sample_aspect_num">1</property>
  <property name="meta.media.sample_aspect_den">1</property>
  <property name="meta.media.frame_rate_num">24</property>
  <property name="meta.media.frame_rate_den">1</property>
  <property name="meta.media.colorspace">709</property>
  <property name="meta.media.color_trc">1</property>
  <property name="meta.media.width">1920</property>
  <property name="meta.media.height">1080</property>
  <property name="meta.media.top_field_first">0</property>
  <property name="meta.media.progressive">1</property>
 </producer>
 <playlist id="playlist11">
  <property name="kdenlive:track_name">Video 10</property>
  <property name="kdenlive:locked_track">0</property>
  <blank length="3155"/>
  <entry out="1001" producer="11_playlist11" in="979"/>
  <blank length="9"/>
  <entry out="801" producer="11_playlist11" in="785"/>
  <blank length="15"/>
  <entry out="1126" producer="11_playlist11" in="1086"/>
  <blank length="79"/>
  <entry out="1866" producer="11_playlist11" in="940"/>
  <filter id="filter9">
   <property name="channel">0</property>
   <property name="mlt_service">panner</property>
   <property name="kdenlive_id">audiopan</property>
   <property name="tag">panner</property>
   <property name="kdenlive_ix">1</property>
   <property name="kdenlive_info"/>
   <property name="disable"/>
   <property name="start">1</property>
  </filter>
 </playlist>
 <producer id="12_playlist12" title="Anonymous Submission" out="16944" in="0">
  <property name="length">00:11:46:01</property>
  <property name="eof">pause</property>
  <property name="resource">src/TheWholeRushes/Samedi_matin/CAM2_2017-11-24_0212_C0004.mov</property>
  <property name="audio_index">2</property>
  <property name="video_index">1</property>
  <property name="mute_on_pause">1</property>
  <property name="mlt_service">avformat-novalidate</property>
  <property name="seekable">1</property>
  <property name="aspect_ratio">1</property>
  <property name="kdenlive:folderid">-1</property>
  <property name="kdenlive:file_size">15752546401</property>
  <property name="kdenlive:file_hash">66fdce4b25a5795b28b8edb5cd4585a3</property>
  <property name="kdenlive:proxy">-</property>
  <property name="proxy_out">16944</property>
  <property name="kdenlive:originalurl">src/04-06_Couplet2/mao1.sshfs/CAM2_2017-11-24_0212_C0004.mov</property>
  <property name="global_feed">1</property>
  <property name="kdenlive:meta.media.nb_streams">3</property>
  <property name="kdenlive:meta.media.1.stream.type">video</property>
  <property name="kdenlive:meta.media.1.stream.frame_rate">24</property>
  <property name="kdenlive:meta.media.1.stream.sample_aspect_ratio">1</property>
  <property name="kdenlive:meta.media.1.codec.width">1920</property>
  <property name="kdenlive:meta.media.1.codec.height">1080</property>
  <property name="kdenlive:meta.media.1.codec.rotate">0</property>
  <property name="kdenlive:meta.media.1.codec.frame_rate">2400</property>
  <property name="kdenlive:meta.media.1.codec.pix_fmt">yuv422p10le</property>
  <property name="kdenlive:meta.media.1.codec.sample_aspect_ratio">0</property>
  <property name="kdenlive:meta.media.1.codec.colorspace">709</property>
  <property name="kdenlive:meta.media.1.codec.color_trc">1</property>
  <property name="kdenlive:meta.media.1.codec.name">prores</property>
  <property name="kdenlive:meta.media.1.codec.long_name">ProRes</property>
  <property name="kdenlive:meta.media.1.codec.bit_rate">176140201</property>
  <property name="kdenlive:meta.attr.1.stream.creation_time.markup">2017-11-24T02:12:00.000000Z</property>
  <property name="kdenlive:meta.attr.1.stream.language.markup">eng</property>
  <property name="kdenlive:meta.attr.1.stream.handler_name.markup">Apple Alias Data Handler</property>
  <property name="kdenlive:meta.attr.1.stream.encoder.markup">Apple ProRes 422 HQ</property>
  <property name="kdenlive:meta.attr.1.stream.timecode.markup">02:12:00:10</property>
  <property name="kdenlive:meta.media.2.stream.type">audio</property>
  <property name="kdenlive:meta.media.2.codec.sample_fmt">s32</property>
  <property name="kdenlive:meta.media.2.codec.sample_rate">48000</property>
  <property name="kdenlive:meta.media.2.codec.channels">2</property>
  <property name="kdenlive:meta.media.2.codec.name">pcm_s24le</property>
  <property name="kdenlive:meta.media.2.codec.long_name">PCM signed 24-bit little-endian</property>
  <property name="kdenlive:meta.media.2.codec.bit_rate">2304000</property>
  <property name="kdenlive:meta.attr.2.stream.creation_time.markup">2017-11-24T02:12:00.000000Z</property>
  <property name="kdenlive:meta.attr.2.stream.language.markup">eng</property>
  <property name="kdenlive:meta.attr.2.stream.handler_name.markup">Apple Alias Data Handler</property>
  <property name="kdenlive:meta.attr.2.stream.timecode.markup">02:12:00:10</property>
  <property name="kdenlive:meta.attr.com.apple.proapps.manufacturer.markup">Blackmagic Design</property>
  <property name="kdenlive:meta.attr.com.apple.proapps.cameraName.markup">CAM2</property>
  <property name="kdenlive:meta.attr.com.apple.proapps.isGood.markup">0</property>
  <property name="kdenlive:meta.attr.com.apple.proapps.customgamma.markup">com.blackmagic-design.cinemacamera.filmlog</property>
  <property name="kdenlive:meta.attr.com.blackmagic-design.cinemacamera.uuid.markup">18E5E00548F94923B646613A73C01B56</property>
  <property name="kdenlive:meta.attr.creation_time.markup">2017-11-24T02:12:00.000000Z</property>
  <property name="kdenlive:meta.attr.timecode.markup">02:12:00:10</property>
  <property name="kdenlive:meta.media.sample_aspect_num">1</property>
  <property name="kdenlive:meta.media.sample_aspect_den">1</property>
  <property name="kdenlive:meta.media.frame_rate_num">24</property>
  <property name="kdenlive:meta.media.frame_rate_den">1</property>
  <property name="kdenlive:meta.media.colorspace">709</property>
  <property name="kdenlive:meta.media.color_trc">1</property>
  <property name="kdenlive:meta.media.width">1920</property>
  <property name="kdenlive:meta.media.height">1080</property>
  <property name="kdenlive:meta.media.top_field_first">0</property>
  <property name="kdenlive:meta.media.progressive">1</property>
  <property name="xml">was here</property>
  <property name="meta.media.nb_streams">3</property>
  <property name="meta.media.1.stream.type">video</property>
  <property name="meta.media.1.stream.frame_rate">24</property>
  <property name="meta.media.1.stream.sample_aspect_ratio">1</property>
  <property name="meta.media.1.codec.width">1920</property>
  <property name="meta.media.1.codec.height">1080</property>
  <property name="meta.media.1.codec.rotate">0</property>
  <property name="meta.media.1.codec.frame_rate">2400</property>
  <property name="meta.media.1.codec.pix_fmt">yuv422p10le</property>
  <property name="meta.media.1.codec.sample_aspect_ratio">0</property>
  <property name="meta.media.1.codec.colorspace">709</property>
  <property name="meta.media.1.codec.color_trc">1</property>
  <property name="meta.media.1.codec.name">prores</property>
  <property name="meta.media.1.codec.long_name">ProRes</property>
  <property name="meta.media.1.codec.bit_rate">176140201</property>
  <property name="meta.attr.1.stream.creation_time.markup">2017-11-24T02:12:00.000000Z</property>
  <property name="meta.attr.1.stream.language.markup">eng</property>
  <property name="meta.attr.1.stream.handler_name.markup">Apple Alias Data Handler</property>
  <property name="meta.attr.1.stream.encoder.markup">Apple ProRes 422 HQ</property>
  <property name="meta.attr.1.stream.timecode.markup">02:12:00:10</property>
  <property name="meta.media.2.stream.type">audio</property>
  <property name="meta.media.2.codec.sample_fmt">s32</property>
  <property name="meta.media.2.codec.sample_rate">48000</property>
  <property name="meta.media.2.codec.channels">2</property>
  <property name="meta.media.2.codec.name">pcm_s24le</property>
  <property name="meta.media.2.codec.long_name">PCM signed 24-bit little-endian</property>
  <property name="meta.media.2.codec.bit_rate">2304000</property>
  <property name="meta.attr.2.stream.creation_time.markup">2017-11-24T02:12:00.000000Z</property>
  <property name="meta.attr.2.stream.language.markup">eng</property>
  <property name="meta.attr.2.stream.handler_name.markup">Apple Alias Data Handler</property>
  <property name="meta.attr.2.stream.timecode.markup">02:12:00:10</property>
  <property name="meta.attr.com.apple.proapps.manufacturer.markup">Blackmagic Design</property>
  <property name="meta.attr.com.apple.proapps.cameraName.markup">CAM2</property>
  <property name="meta.attr.com.apple.proapps.isGood.markup">0</property>
  <property name="meta.attr.com.apple.proapps.customgamma.markup">com.blackmagic-design.cinemacamera.filmlog</property>
  <property name="meta.attr.com.blackmagic-design.cinemacamera.uuid.markup">18E5E00548F94923B646613A73C01B56</property>
  <property name="meta.attr.creation_time.markup">2017-11-24T02:12:00.000000Z</property>
  <property name="meta.attr.timecode.markup">02:12:00:10</property>
  <property name="meta.media.sample_aspect_num">1</property>
  <property name="meta.media.sample_aspect_den">1</property>
  <property name="meta.media.frame_rate_num">24</property>
  <property name="meta.media.frame_rate_den">1</property>
  <property name="meta.media.colorspace">709</property>
  <property name="meta.media.color_trc">1</property>
  <property name="meta.media.width">1920</property>
  <property name="meta.media.height">1080</property>
  <property name="meta.media.top_field_first">0</property>
  <property name="meta.media.progressive">1</property>
 </producer>
 <playlist id="playlist12">
  <property name="kdenlive:track_name">Video 11</property>
  <property name="kdenlive:locked_track">0</property>
  <blank length="1205"/>
  <entry out="3457" producer="12_playlist12" in="3223"/>
  <blank length="1728"/>
  <entry out="4053" producer="12_playlist12" in="4030"/>
  <blank length="91"/>
  <entry out="4304" producer="12_playlist12" in="4145"/>
  <entry out="7053" producer="12_playlist12" in="4310"/>
  <filter id="filter10">
   <property name="channel">0</property>
   <property name="mlt_service">panner</property>
   <property name="kdenlive_id">audiopan</property>
   <property name="tag">panner</property>
   <property name="kdenlive_ix">1</property>
   <property name="kdenlive_info"/>
   <property name="disable"/>
   <property name="start">1</property>
  </filter>
 </playlist>
 <producer id="12_playlist13" title="Anonymous Submission" out="16944" in="0">
  <property name="length">00:11:46:01</property>
  <property name="eof">pause</property>
  <property name="resource">src/TheWholeRushes/Samedi_matin/CAM2_2017-11-24_0212_C0004.mov</property>
  <property name="audio_index">2</property>
  <property name="video_index">1</property>
  <property name="mute_on_pause">1</property>
  <property name="mlt_service">avformat-novalidate</property>
  <property name="seekable">1</property>
  <property name="aspect_ratio">1</property>
  <property name="kdenlive:folderid">-1</property>
  <property name="kdenlive:file_size">15752546401</property>
  <property name="kdenlive:file_hash">66fdce4b25a5795b28b8edb5cd4585a3</property>
  <property name="kdenlive:proxy">-</property>
  <property name="proxy_out">16944</property>
  <property name="kdenlive:originalurl">src/04-06_Couplet2/mao1.sshfs/CAM2_2017-11-24_0212_C0004.mov</property>
  <property name="global_feed">1</property>
  <property name="kdenlive:meta.media.nb_streams">3</property>
  <property name="kdenlive:meta.media.1.stream.type">video</property>
  <property name="kdenlive:meta.media.1.stream.frame_rate">24</property>
  <property name="kdenlive:meta.media.1.stream.sample_aspect_ratio">1</property>
  <property name="kdenlive:meta.media.1.codec.width">1920</property>
  <property name="kdenlive:meta.media.1.codec.height">1080</property>
  <property name="kdenlive:meta.media.1.codec.rotate">0</property>
  <property name="kdenlive:meta.media.1.codec.frame_rate">2400</property>
  <property name="kdenlive:meta.media.1.codec.pix_fmt">yuv422p10le</property>
  <property name="kdenlive:meta.media.1.codec.sample_aspect_ratio">0</property>
  <property name="kdenlive:meta.media.1.codec.colorspace">709</property>
  <property name="kdenlive:meta.media.1.codec.color_trc">1</property>
  <property name="kdenlive:meta.media.1.codec.name">prores</property>
  <property name="kdenlive:meta.media.1.codec.long_name">ProRes</property>
  <property name="kdenlive:meta.media.1.codec.bit_rate">176140201</property>
  <property name="kdenlive:meta.attr.1.stream.creation_time.markup">2017-11-24T02:12:00.000000Z</property>
  <property name="kdenlive:meta.attr.1.stream.language.markup">eng</property>
  <property name="kdenlive:meta.attr.1.stream.handler_name.markup">Apple Alias Data Handler</property>
  <property name="kdenlive:meta.attr.1.stream.encoder.markup">Apple ProRes 422 HQ</property>
  <property name="kdenlive:meta.attr.1.stream.timecode.markup">02:12:00:10</property>
  <property name="kdenlive:meta.media.2.stream.type">audio</property>
  <property name="kdenlive:meta.media.2.codec.sample_fmt">s32</property>
  <property name="kdenlive:meta.media.2.codec.sample_rate">48000</property>
  <property name="kdenlive:meta.media.2.codec.channels">2</property>
  <property name="kdenlive:meta.media.2.codec.name">pcm_s24le</property>
  <property name="kdenlive:meta.media.2.codec.long_name">PCM signed 24-bit little-endian</property>
  <property name="kdenlive:meta.media.2.codec.bit_rate">2304000</property>
  <property name="kdenlive:meta.attr.2.stream.creation_time.markup">2017-11-24T02:12:00.000000Z</property>
  <property name="kdenlive:meta.attr.2.stream.language.markup">eng</property>
  <property name="kdenlive:meta.attr.2.stream.handler_name.markup">Apple Alias Data Handler</property>
  <property name="kdenlive:meta.attr.2.stream.timecode.markup">02:12:00:10</property>
  <property name="kdenlive:meta.attr.com.apple.proapps.manufacturer.markup">Blackmagic Design</property>
  <property name="kdenlive:meta.attr.com.apple.proapps.cameraName.markup">CAM2</property>
  <property name="kdenlive:meta.attr.com.apple.proapps.isGood.markup">0</property>
  <property name="kdenlive:meta.attr.com.apple.proapps.customgamma.markup">com.blackmagic-design.cinemacamera.filmlog</property>
  <property name="kdenlive:meta.attr.com.blackmagic-design.cinemacamera.uuid.markup">18E5E00548F94923B646613A73C01B56</property>
  <property name="kdenlive:meta.attr.creation_time.markup">2017-11-24T02:12:00.000000Z</property>
  <property name="kdenlive:meta.attr.timecode.markup">02:12:00:10</property>
  <property name="kdenlive:meta.media.sample_aspect_num">1</property>
  <property name="kdenlive:meta.media.sample_aspect_den">1</property>
  <property name="kdenlive:meta.media.frame_rate_num">24</property>
  <property name="kdenlive:meta.media.frame_rate_den">1</property>
  <property name="kdenlive:meta.media.colorspace">709</property>
  <property name="kdenlive:meta.media.color_trc">1</property>
  <property name="kdenlive:meta.media.width">1920</property>
  <property name="kdenlive:meta.media.height">1080</property>
  <property name="kdenlive:meta.media.top_field_first">0</property>
  <property name="kdenlive:meta.media.progressive">1</property>
  <property name="xml">was here</property>
  <property name="meta.media.nb_streams">3</property>
  <property name="meta.media.1.stream.type">video</property>
  <property name="meta.media.1.stream.frame_rate">24</property>
  <property name="meta.media.1.stream.sample_aspect_ratio">1</property>
  <property name="meta.media.1.codec.width">1920</property>
  <property name="meta.media.1.codec.height">1080</property>
  <property name="meta.media.1.codec.rotate">0</property>
  <property name="meta.media.1.codec.frame_rate">2400</property>
  <property name="meta.media.1.codec.pix_fmt">yuv422p10le</property>
  <property name="meta.media.1.codec.sample_aspect_ratio">0</property>
  <property name="meta.media.1.codec.colorspace">709</property>
  <property name="meta.media.1.codec.color_trc">1</property>
  <property name="meta.media.1.codec.name">prores</property>
  <property name="meta.media.1.codec.long_name">ProRes</property>
  <property name="meta.media.1.codec.bit_rate">176140201</property>
  <property name="meta.attr.1.stream.creation_time.markup">2017-11-24T02:12:00.000000Z</property>
  <property name="meta.attr.1.stream.language.markup">eng</property>
  <property name="meta.attr.1.stream.handler_name.markup">Apple Alias Data Handler</property>
  <property name="meta.attr.1.stream.encoder.markup">Apple ProRes 422 HQ</property>
  <property name="meta.attr.1.stream.timecode.markup">02:12:00:10</property>
  <property name="meta.media.2.stream.type">audio</property>
  <property name="meta.media.2.codec.sample_fmt">s32</property>
  <property name="meta.media.2.codec.sample_rate">48000</property>
  <property name="meta.media.2.codec.channels">2</property>
  <property name="meta.media.2.codec.name">pcm_s24le</property>
  <property name="meta.media.2.codec.long_name">PCM signed 24-bit little-endian</property>
  <property name="meta.media.2.codec.bit_rate">2304000</property>
  <property name="meta.attr.2.stream.creation_time.markup">2017-11-24T02:12:00.000000Z</property>
  <property name="meta.attr.2.stream.language.markup">eng</property>
  <property name="meta.attr.2.stream.handler_name.markup">Apple Alias Data Handler</property>
  <property name="meta.attr.2.stream.timecode.markup">02:12:00:10</property>
  <property name="meta.attr.com.apple.proapps.manufacturer.markup">Blackmagic Design</property>
  <property name="meta.attr.com.apple.proapps.cameraName.markup">CAM2</property>
  <property name="meta.attr.com.apple.proapps.isGood.markup">0</property>
  <property name="meta.attr.com.apple.proapps.customgamma.markup">com.blackmagic-design.cinemacamera.filmlog</property>
  <property name="meta.attr.com.blackmagic-design.cinemacamera.uuid.markup">18E5E00548F94923B646613A73C01B56</property>
  <property name="meta.attr.creation_time.markup">2017-11-24T02:12:00.000000Z</property>
  <property name="meta.attr.timecode.markup">02:12:00:10</property>
  <property name="meta.media.sample_aspect_num">1</property>
  <property name="meta.media.sample_aspect_den">1</property>
  <property name="meta.media.frame_rate_num">24</property>
  <property name="meta.media.frame_rate_den">1</property>
  <property name="meta.media.colorspace">709</property>
  <property name="meta.media.color_trc">1</property>
  <property name="meta.media.width">1920</property>
  <property name="meta.media.height">1080</property>
  <property name="meta.media.top_field_first">0</property>
  <property name="meta.media.progressive">1</property>
 </producer>
 <playlist id="playlist13">
  <property name="kdenlive:track_name">Video 12</property>
  <property name="kdenlive:locked_track">0</property>
  <blank length="3302"/>
  <entry out="9314" producer="12_playlist13" in="7754"/>
  <filter id="filter11">
   <property name="channel">0</property>
   <property name="mlt_service">panner</property>
   <property name="kdenlive_id">audiopan</property>
   <property name="tag">panner</property>
   <property name="kdenlive_ix">1</property>
   <property name="kdenlive_info"/>
   <property name="disable"/>
   <property name="start">1</property>
  </filter>
 </playlist>
 <producer id="12_playlist14" title="Anonymous Submission" out="16944" in="0">
  <property name="length">00:11:46:01</property>
  <property name="eof">pause</property>
  <property name="resource">src/TheWholeRushes/Samedi_matin/CAM2_2017-11-24_0212_C0004.mov</property>
  <property name="audio_index">2</property>
  <property name="video_index">1</property>
  <property name="mute_on_pause">1</property>
  <property name="mlt_service">avformat-novalidate</property>
  <property name="seekable">1</property>
  <property name="aspect_ratio">1</property>
  <property name="kdenlive:folderid">-1</property>
  <property name="kdenlive:file_size">15752546401</property>
  <property name="kdenlive:file_hash">66fdce4b25a5795b28b8edb5cd4585a3</property>
  <property name="kdenlive:proxy">-</property>
  <property name="proxy_out">16944</property>
  <property name="kdenlive:originalurl">src/04-06_Couplet2/mao1.sshfs/CAM2_2017-11-24_0212_C0004.mov</property>
  <property name="global_feed">1</property>
  <property name="kdenlive:meta.media.nb_streams">3</property>
  <property name="kdenlive:meta.media.1.stream.type">video</property>
  <property name="kdenlive:meta.media.1.stream.frame_rate">24</property>
  <property name="kdenlive:meta.media.1.stream.sample_aspect_ratio">1</property>
  <property name="kdenlive:meta.media.1.codec.width">1920</property>
  <property name="kdenlive:meta.media.1.codec.height">1080</property>
  <property name="kdenlive:meta.media.1.codec.rotate">0</property>
  <property name="kdenlive:meta.media.1.codec.frame_rate">2400</property>
  <property name="kdenlive:meta.media.1.codec.pix_fmt">yuv422p10le</property>
  <property name="kdenlive:meta.media.1.codec.sample_aspect_ratio">0</property>
  <property name="kdenlive:meta.media.1.codec.colorspace">709</property>
  <property name="kdenlive:meta.media.1.codec.color_trc">1</property>
  <property name="kdenlive:meta.media.1.codec.name">prores</property>
  <property name="kdenlive:meta.media.1.codec.long_name">ProRes</property>
  <property name="kdenlive:meta.media.1.codec.bit_rate">176140201</property>
  <property name="kdenlive:meta.attr.1.stream.creation_time.markup">2017-11-24T02:12:00.000000Z</property>
  <property name="kdenlive:meta.attr.1.stream.language.markup">eng</property>
  <property name="kdenlive:meta.attr.1.stream.handler_name.markup">Apple Alias Data Handler</property>
  <property name="kdenlive:meta.attr.1.stream.encoder.markup">Apple ProRes 422 HQ</property>
  <property name="kdenlive:meta.attr.1.stream.timecode.markup">02:12:00:10</property>
  <property name="kdenlive:meta.media.2.stream.type">audio</property>
  <property name="kdenlive:meta.media.2.codec.sample_fmt">s32</property>
  <property name="kdenlive:meta.media.2.codec.sample_rate">48000</property>
  <property name="kdenlive:meta.media.2.codec.channels">2</property>
  <property name="kdenlive:meta.media.2.codec.name">pcm_s24le</property>
  <property name="kdenlive:meta.media.2.codec.long_name">PCM signed 24-bit little-endian</property>
  <property name="kdenlive:meta.media.2.codec.bit_rate">2304000</property>
  <property name="kdenlive:meta.attr.2.stream.creation_time.markup">2017-11-24T02:12:00.000000Z</property>
  <property name="kdenlive:meta.attr.2.stream.language.markup">eng</property>
  <property name="kdenlive:meta.attr.2.stream.handler_name.markup">Apple Alias Data Handler</property>
  <property name="kdenlive:meta.attr.2.stream.timecode.markup">02:12:00:10</property>
  <property name="kdenlive:meta.attr.com.apple.proapps.manufacturer.markup">Blackmagic Design</property>
  <property name="kdenlive:meta.attr.com.apple.proapps.cameraName.markup">CAM2</property>
  <property name="kdenlive:meta.attr.com.apple.proapps.isGood.markup">0</property>
  <property name="kdenlive:meta.attr.com.apple.proapps.customgamma.markup">com.blackmagic-design.cinemacamera.filmlog</property>
  <property name="kdenlive:meta.attr.com.blackmagic-design.cinemacamera.uuid.markup">18E5E00548F94923B646613A73C01B56</property>
  <property name="kdenlive:meta.attr.creation_time.markup">2017-11-24T02:12:00.000000Z</property>
  <property name="kdenlive:meta.attr.timecode.markup">02:12:00:10</property>
  <property name="kdenlive:meta.media.sample_aspect_num">1</property>
  <property name="kdenlive:meta.media.sample_aspect_den">1</property>
  <property name="kdenlive:meta.media.frame_rate_num">24</property>
  <property name="kdenlive:meta.media.frame_rate_den">1</property>
  <property name="kdenlive:meta.media.colorspace">709</property>
  <property name="kdenlive:meta.media.color_trc">1</property>
  <property name="kdenlive:meta.media.width">1920</property>
  <property name="kdenlive:meta.media.height">1080</property>
  <property name="kdenlive:meta.media.top_field_first">0</property>
  <property name="kdenlive:meta.media.progressive">1</property>
  <property name="xml">was here</property>
  <property name="meta.media.nb_streams">3</property>
  <property name="meta.media.1.stream.type">video</property>
  <property name="meta.media.1.stream.frame_rate">24</property>
  <property name="meta.media.1.stream.sample_aspect_ratio">1</property>
  <property name="meta.media.1.codec.width">1920</property>
  <property name="meta.media.1.codec.height">1080</property>
  <property name="meta.media.1.codec.rotate">0</property>
  <property name="meta.media.1.codec.frame_rate">2400</property>
  <property name="meta.media.1.codec.pix_fmt">yuv422p10le</property>
  <property name="meta.media.1.codec.sample_aspect_ratio">0</property>
  <property name="meta.media.1.codec.colorspace">709</property>
  <property name="meta.media.1.codec.color_trc">1</property>
  <property name="meta.media.1.codec.name">prores</property>
  <property name="meta.media.1.codec.long_name">ProRes</property>
  <property name="meta.media.1.codec.bit_rate">176140201</property>
  <property name="meta.attr.1.stream.creation_time.markup">2017-11-24T02:12:00.000000Z</property>
  <property name="meta.attr.1.stream.language.markup">eng</property>
  <property name="meta.attr.1.stream.handler_name.markup">Apple Alias Data Handler</property>
  <property name="meta.attr.1.stream.encoder.markup">Apple ProRes 422 HQ</property>
  <property name="meta.attr.1.stream.timecode.markup">02:12:00:10</property>
  <property name="meta.media.2.stream.type">audio</property>
  <property name="meta.media.2.codec.sample_fmt">s32</property>
  <property name="meta.media.2.codec.sample_rate">48000</property>
  <property name="meta.media.2.codec.channels">2</property>
  <property name="meta.media.2.codec.name">pcm_s24le</property>
  <property name="meta.media.2.codec.long_name">PCM signed 24-bit little-endian</property>
  <property name="meta.media.2.codec.bit_rate">2304000</property>
  <property name="meta.attr.2.stream.creation_time.markup">2017-11-24T02:12:00.000000Z</property>
  <property name="meta.attr.2.stream.language.markup">eng</property>
  <property name="meta.attr.2.stream.handler_name.markup">Apple Alias Data Handler</property>
  <property name="meta.attr.2.stream.timecode.markup">02:12:00:10</property>
  <property name="meta.attr.com.apple.proapps.manufacturer.markup">Blackmagic Design</property>
  <property name="meta.attr.com.apple.proapps.cameraName.markup">CAM2</property>
  <property name="meta.attr.com.apple.proapps.isGood.markup">0</property>
  <property name="meta.attr.com.apple.proapps.customgamma.markup">com.blackmagic-design.cinemacamera.filmlog</property>
  <property name="meta.attr.com.blackmagic-design.cinemacamera.uuid.markup">18E5E00548F94923B646613A73C01B56</property>
  <property name="meta.attr.creation_time.markup">2017-11-24T02:12:00.000000Z</property>
  <property name="meta.attr.timecode.markup">02:12:00:10</property>
  <property name="meta.media.sample_aspect_num">1</property>
  <property name="meta.media.sample_aspect_den">1</property>
  <property name="meta.media.frame_rate_num">24</property>
  <property name="meta.media.frame_rate_den">1</property>
  <property name="meta.media.colorspace">709</property>
  <property name="meta.media.color_trc">1</property>
  <property name="meta.media.width">1920</property>
  <property name="meta.media.height">1080</property>
  <property name="meta.media.top_field_first">0</property>
  <property name="meta.media.progressive">1</property>
 </producer>
 <playlist id="playlist14">
  <property name="kdenlive:track_name">Video 13</property>
  <property name="kdenlive:locked_track">0</property>
  <blank length="2754"/>
  <entry out="10884" producer="12_playlist14" in="10869"/>
  <blank length="532"/>
  <entry out="13493" producer="12_playlist14" in="11307"/>
  <filter id="filter12">
   <property name="channel">0</property>
   <property name="mlt_service">panner</property>
   <property name="kdenlive_id">audiopan</property>
   <property name="tag">panner</property>
   <property name="kdenlive_ix">1</property>
   <property name="kdenlive_info"/>
   <property name="disable"/>
   <property name="start">1</property>
  </filter>
 </playlist>
 <producer id="12_playlist15" title="Anonymous Submission" out="16944" in="0">
  <property name="length">00:11:46:01</property>
  <property name="eof">pause</property>
  <property name="resource">src/TheWholeRushes/Samedi_matin/CAM2_2017-11-24_0212_C0004.mov</property>
  <property name="audio_index">2</property>
  <property name="video_index">1</property>
  <property name="mute_on_pause">1</property>
  <property name="mlt_service">avformat-novalidate</property>
  <property name="seekable">1</property>
  <property name="aspect_ratio">1</property>
  <property name="kdenlive:folderid">-1</property>
  <property name="kdenlive:file_size">15752546401</property>
  <property name="kdenlive:file_hash">66fdce4b25a5795b28b8edb5cd4585a3</property>
  <property name="kdenlive:proxy">-</property>
  <property name="proxy_out">16944</property>
  <property name="kdenlive:originalurl">src/04-06_Couplet2/mao1.sshfs/CAM2_2017-11-24_0212_C0004.mov</property>
  <property name="global_feed">1</property>
  <property name="kdenlive:meta.media.nb_streams">3</property>
  <property name="kdenlive:meta.media.1.stream.type">video</property>
  <property name="kdenlive:meta.media.1.stream.frame_rate">24</property>
  <property name="kdenlive:meta.media.1.stream.sample_aspect_ratio">1</property>
  <property name="kdenlive:meta.media.1.codec.width">1920</property>
  <property name="kdenlive:meta.media.1.codec.height">1080</property>
  <property name="kdenlive:meta.media.1.codec.rotate">0</property>
  <property name="kdenlive:meta.media.1.codec.frame_rate">2400</property>
  <property name="kdenlive:meta.media.1.codec.pix_fmt">yuv422p10le</property>
  <property name="kdenlive:meta.media.1.codec.sample_aspect_ratio">0</property>
  <property name="kdenlive:meta.media.1.codec.colorspace">709</property>
  <property name="kdenlive:meta.media.1.codec.color_trc">1</property>
  <property name="kdenlive:meta.media.1.codec.name">prores</property>
  <property name="kdenlive:meta.media.1.codec.long_name">ProRes</property>
  <property name="kdenlive:meta.media.1.codec.bit_rate">176140201</property>
  <property name="kdenlive:meta.attr.1.stream.creation_time.markup">2017-11-24T02:12:00.000000Z</property>
  <property name="kdenlive:meta.attr.1.stream.language.markup">eng</property>
  <property name="kdenlive:meta.attr.1.stream.handler_name.markup">Apple Alias Data Handler</property>
  <property name="kdenlive:meta.attr.1.stream.encoder.markup">Apple ProRes 422 HQ</property>
  <property name="kdenlive:meta.attr.1.stream.timecode.markup">02:12:00:10</property>
  <property name="kdenlive:meta.media.2.stream.type">audio</property>
  <property name="kdenlive:meta.media.2.codec.sample_fmt">s32</property>
  <property name="kdenlive:meta.media.2.codec.sample_rate">48000</property>
  <property name="kdenlive:meta.media.2.codec.channels">2</property>
  <property name="kdenlive:meta.media.2.codec.name">pcm_s24le</property>
  <property name="kdenlive:meta.media.2.codec.long_name">PCM signed 24-bit little-endian</property>
  <property name="kdenlive:meta.media.2.codec.bit_rate">2304000</property>
  <property name="kdenlive:meta.attr.2.stream.creation_time.markup">2017-11-24T02:12:00.000000Z</property>
  <property name="kdenlive:meta.attr.2.stream.language.markup">eng</property>
  <property name="kdenlive:meta.attr.2.stream.handler_name.markup">Apple Alias Data Handler</property>
  <property name="kdenlive:meta.attr.2.stream.timecode.markup">02:12:00:10</property>
  <property name="kdenlive:meta.attr.com.apple.proapps.manufacturer.markup">Blackmagic Design</property>
  <property name="kdenlive:meta.attr.com.apple.proapps.cameraName.markup">CAM2</property>
  <property name="kdenlive:meta.attr.com.apple.proapps.isGood.markup">0</property>
  <property name="kdenlive:meta.attr.com.apple.proapps.customgamma.markup">com.blackmagic-design.cinemacamera.filmlog</property>
  <property name="kdenlive:meta.attr.com.blackmagic-design.cinemacamera.uuid.markup">18E5E00548F94923B646613A73C01B56</property>
  <property name="kdenlive:meta.attr.creation_time.markup">2017-11-24T02:12:00.000000Z</property>
  <property name="kdenlive:meta.attr.timecode.markup">02:12:00:10</property>
  <property name="kdenlive:meta.media.sample_aspect_num">1</property>
  <property name="kdenlive:meta.media.sample_aspect_den">1</property>
  <property name="kdenlive:meta.media.frame_rate_num">24</property>
  <property name="kdenlive:meta.media.frame_rate_den">1</property>
  <property name="kdenlive:meta.media.colorspace">709</property>
  <property name="kdenlive:meta.media.color_trc">1</property>
  <property name="kdenlive:meta.media.width">1920</property>
  <property name="kdenlive:meta.media.height">1080</property>
  <property name="kdenlive:meta.media.top_field_first">0</property>
  <property name="kdenlive:meta.media.progressive">1</property>
  <property name="xml">was here</property>
  <property name="meta.media.nb_streams">3</property>
  <property name="meta.media.1.stream.type">video</property>
  <property name="meta.media.1.stream.frame_rate">24</property>
  <property name="meta.media.1.stream.sample_aspect_ratio">1</property>
  <property name="meta.media.1.codec.width">1920</property>
  <property name="meta.media.1.codec.height">1080</property>
  <property name="meta.media.1.codec.rotate">0</property>
  <property name="meta.media.1.codec.frame_rate">2400</property>
  <property name="meta.media.1.codec.pix_fmt">yuv422p10le</property>
  <property name="meta.media.1.codec.sample_aspect_ratio">0</property>
  <property name="meta.media.1.codec.colorspace">709</property>
  <property name="meta.media.1.codec.color_trc">1</property>
  <property name="meta.media.1.codec.name">prores</property>
  <property name="meta.media.1.codec.long_name">ProRes</property>
  <property name="meta.media.1.codec.bit_rate">176140201</property>
  <property name="meta.attr.1.stream.creation_time.markup">2017-11-24T02:12:00.000000Z</property>
  <property name="meta.attr.1.stream.language.markup">eng</property>
  <property name="meta.attr.1.stream.handler_name.markup">Apple Alias Data Handler</property>
  <property name="meta.attr.1.stream.encoder.markup">Apple ProRes 422 HQ</property>
  <property name="meta.attr.1.stream.timecode.markup">02:12:00:10</property>
  <property name="meta.media.2.stream.type">audio</property>
  <property name="meta.media.2.codec.sample_fmt">s32</property>
  <property name="meta.media.2.codec.sample_rate">48000</property>
  <property name="meta.media.2.codec.channels">2</property>
  <property name="meta.media.2.codec.name">pcm_s24le</property>
  <property name="meta.media.2.codec.long_name">PCM signed 24-bit little-endian</property>
  <property name="meta.media.2.codec.bit_rate">2304000</property>
  <property name="meta.attr.2.stream.creation_time.markup">2017-11-24T02:12:00.000000Z</property>
  <property name="meta.attr.2.stream.language.markup">eng</property>
  <property name="meta.attr.2.stream.handler_name.markup">Apple Alias Data Handler</property>
  <property name="meta.attr.2.stream.timecode.markup">02:12:00:10</property>
  <property name="meta.attr.com.apple.proapps.manufacturer.markup">Blackmagic Design</property>
  <property name="meta.attr.com.apple.proapps.cameraName.markup">CAM2</property>
  <property name="meta.attr.com.apple.proapps.isGood.markup">0</property>
  <property name="meta.attr.com.apple.proapps.customgamma.markup">com.blackmagic-design.cinemacamera.filmlog</property>
  <property name="meta.attr.com.blackmagic-design.cinemacamera.uuid.markup">18E5E00548F94923B646613A73C01B56</property>
  <property name="meta.attr.creation_time.markup">2017-11-24T02:12:00.000000Z</property>
  <property name="meta.attr.timecode.markup">02:12:00:10</property>
  <property name="meta.media.sample_aspect_num">1</property>
  <property name="meta.media.sample_aspect_den">1</property>
  <property name="meta.media.frame_rate_num">24</property>
  <property name="meta.media.frame_rate_den">1</property>
  <property name="meta.media.colorspace">709</property>
  <property name="meta.media.color_trc">1</property>
  <property name="meta.media.width">1920</property>
  <property name="meta.media.height">1080</property>
  <property name="meta.media.top_field_first">0</property>
  <property name="meta.media.progressive">1</property>
 </producer>
 <playlist id="playlist15">
  <property name="kdenlive:track_name">Video 14</property>
  <property name="kdenlive:locked_track">0</property>
  <blank length="2721"/>
  <entry out="14815" producer="12_playlist15" in="14798"/>
  <blank length="453"/>
  <entry out="15218" producer="12_playlist15" in="15182"/>
  <blank length="54"/>
  <entry out="16944" producer="12_playlist15" in="15273"/>
 </playlist>
 <producer id="13_playlist16" title="Anonymous Submission" out="4885" in="0">
  <property name="length">00:03:23:14</property>
  <property name="eof">pause</property>
  <property name="resource">src/TheWholeRushes/Samedi_matin/CAM2_2017-11-24_0236_C0005.mov</property>
  <property name="audio_index">2</property>
  <property name="video_index">1</property>
  <property name="mute_on_pause">1</property>
  <property name="mlt_service">avformat-novalidate</property>
  <property name="seekable">1</property>
  <property name="aspect_ratio">1</property>
  <property name="kdenlive:folderid">-1</property>
  <property name="kdenlive:file_size">4542172841</property>
  <property name="kdenlive:file_hash">91feebd31e13c0397d7c7f4aa158eeea</property>
  <property name="kdenlive:proxy">-</property>
  <property name="proxy_out">4885</property>
  <property name="kdenlive:originalurl">src/04-06_Couplet2/mao1.sshfs/CAM2_2017-11-24_0236_C0005.mov</property>
  <property name="global_feed">1</property>
  <property name="kdenlive:meta.media.nb_streams">3</property>
  <property name="kdenlive:meta.media.1.stream.type">video</property>
  <property name="kdenlive:meta.media.1.stream.frame_rate">24</property>
  <property name="kdenlive:meta.media.1.stream.sample_aspect_ratio">1</property>
  <property name="kdenlive:meta.media.1.codec.width">1920</property>
  <property name="kdenlive:meta.media.1.codec.height">1080</property>
  <property name="kdenlive:meta.media.1.codec.rotate">0</property>
  <property name="kdenlive:meta.media.1.codec.frame_rate">2400</property>
  <property name="kdenlive:meta.media.1.codec.pix_fmt">yuv422p10le</property>
  <property name="kdenlive:meta.media.1.codec.sample_aspect_ratio">0</property>
  <property name="kdenlive:meta.media.1.codec.colorspace">709</property>
  <property name="kdenlive:meta.media.1.codec.color_trc">1</property>
  <property name="kdenlive:meta.media.1.codec.name">prores</property>
  <property name="kdenlive:meta.media.1.codec.long_name">ProRes</property>
  <property name="kdenlive:meta.media.1.codec.bit_rate">176139589</property>
  <property name="kdenlive:meta.attr.1.stream.creation_time.markup">2017-11-24T02:36:10.000000Z</property>
  <property name="kdenlive:meta.attr.1.stream.language.markup">eng</property>
  <property name="kdenlive:meta.attr.1.stream.handler_name.markup">Apple Alias Data Handler</property>
  <property name="kdenlive:meta.attr.1.stream.encoder.markup">Apple ProRes 422 HQ</property>
  <property name="kdenlive:meta.attr.1.stream.timecode.markup">02:36:10:06</property>
  <property name="kdenlive:meta.media.2.stream.type">audio</property>
  <property name="kdenlive:meta.media.2.codec.sample_fmt">s32</property>
  <property name="kdenlive:meta.media.2.codec.sample_rate">48000</property>
  <property name="kdenlive:meta.media.2.codec.channels">2</property>
  <property name="kdenlive:meta.media.2.codec.name">pcm_s24le</property>
  <property name="kdenlive:meta.media.2.codec.long_name">PCM signed 24-bit little-endian</property>
  <property name="kdenlive:meta.media.2.codec.bit_rate">2304000</property>
  <property name="kdenlive:meta.attr.2.stream.creation_time.markup">2017-11-24T02:36:10.000000Z</property>
  <property name="kdenlive:meta.attr.2.stream.language.markup">eng</property>
  <property name="kdenlive:meta.attr.2.stream.handler_name.markup">Apple Alias Data Handler</property>
  <property name="kdenlive:meta.attr.2.stream.timecode.markup">02:36:10:06</property>
  <property name="kdenlive:meta.attr.com.apple.proapps.manufacturer.markup">Blackmagic Design</property>
  <property name="kdenlive:meta.attr.com.apple.proapps.cameraName.markup">CAM2</property>
  <property name="kdenlive:meta.attr.com.apple.proapps.isGood.markup">0</property>
  <property name="kdenlive:meta.attr.com.apple.proapps.customgamma.markup">com.blackmagic-design.cinemacamera.filmlog</property>
  <property name="kdenlive:meta.attr.com.blackmagic-design.cinemacamera.uuid.markup">18E5E00548F94923B646613A73C01B56</property>
  <property name="kdenlive:meta.attr.creation_time.markup">2017-11-24T02:36:10.000000Z</property>
  <property name="kdenlive:meta.attr.timecode.markup">02:36:10:06</property>
  <property name="kdenlive:meta.media.sample_aspect_num">1</property>
  <property name="kdenlive:meta.media.sample_aspect_den">1</property>
  <property name="kdenlive:meta.media.frame_rate_num">24</property>
  <property name="kdenlive:meta.media.frame_rate_den">1</property>
  <property name="kdenlive:meta.media.colorspace">709</property>
  <property name="kdenlive:meta.media.color_trc">1</property>
  <property name="kdenlive:meta.media.width">1920</property>
  <property name="kdenlive:meta.media.height">1080</property>
  <property name="kdenlive:meta.media.top_field_first">0</property>
  <property name="kdenlive:meta.media.progressive">1</property>
  <property name="xml">was here</property>
  <property name="meta.media.nb_streams">3</property>
  <property name="meta.media.1.stream.type">video</property>
  <property name="meta.media.1.stream.frame_rate">24</property>
  <property name="meta.media.1.stream.sample_aspect_ratio">1</property>
  <property name="meta.media.1.codec.width">1920</property>
  <property name="meta.media.1.codec.height">1080</property>
  <property name="meta.media.1.codec.rotate">0</property>
  <property name="meta.media.1.codec.frame_rate">2400</property>
  <property name="meta.media.1.codec.pix_fmt">yuv422p10le</property>
  <property name="meta.media.1.codec.sample_aspect_ratio">0</property>
  <property name="meta.media.1.codec.colorspace">709</property>
  <property name="meta.media.1.codec.color_trc">1</property>
  <property name="meta.media.1.codec.name">prores</property>
  <property name="meta.media.1.codec.long_name">ProRes</property>
  <property name="meta.media.1.codec.bit_rate">176139589</property>
  <property name="meta.attr.1.stream.creation_time.markup">2017-11-24T02:36:10.000000Z</property>
  <property name="meta.attr.1.stream.language.markup">eng</property>
  <property name="meta.attr.1.stream.handler_name.markup">Apple Alias Data Handler</property>
  <property name="meta.attr.1.stream.encoder.markup">Apple ProRes 422 HQ</property>
  <property name="meta.attr.1.stream.timecode.markup">02:36:10:06</property>
  <property name="meta.media.2.stream.type">audio</property>
  <property name="meta.media.2.codec.sample_fmt">s32</property>
  <property name="meta.media.2.codec.sample_rate">48000</property>
  <property name="meta.media.2.codec.channels">2</property>
  <property name="meta.media.2.codec.name">pcm_s24le</property>
  <property name="meta.media.2.codec.long_name">PCM signed 24-bit little-endian</property>
  <property name="meta.media.2.codec.bit_rate">2304000</property>
  <property name="meta.attr.2.stream.creation_time.markup">2017-11-24T02:36:10.000000Z</property>
  <property name="meta.attr.2.stream.language.markup">eng</property>
  <property name="meta.attr.2.stream.handler_name.markup">Apple Alias Data Handler</property>
  <property name="meta.attr.2.stream.timecode.markup">02:36:10:06</property>
  <property name="meta.attr.com.apple.proapps.manufacturer.markup">Blackmagic Design</property>
  <property name="meta.attr.com.apple.proapps.cameraName.markup">CAM2</property>
  <property name="meta.attr.com.apple.proapps.isGood.markup">0</property>
  <property name="meta.attr.com.apple.proapps.customgamma.markup">com.blackmagic-design.cinemacamera.filmlog</property>
  <property name="meta.attr.com.blackmagic-design.cinemacamera.uuid.markup">18E5E00548F94923B646613A73C01B56</property>
  <property name="meta.attr.creation_time.markup">2017-11-24T02:36:10.000000Z</property>
  <property name="meta.attr.timecode.markup">02:36:10:06</property>
  <property name="meta.media.sample_aspect_num">1</property>
  <property name="meta.media.sample_aspect_den">1</property>
  <property name="meta.media.frame_rate_num">24</property>
  <property name="meta.media.frame_rate_den">1</property>
  <property name="meta.media.colorspace">709</property>
  <property name="meta.media.color_trc">1</property>
  <property name="meta.media.width">1920</property>
  <property name="meta.media.height">1080</property>
  <property name="meta.media.top_field_first">0</property>
  <property name="meta.media.progressive">1</property>
 </producer>
 <playlist id="playlist16">
  <property name="kdenlive:track_name">Video 15</property>
  <property name="kdenlive:locked_track">0</property>
  <blank length="2978"/>
  <entry out="1302" producer="13_playlist16" in="1295"/>
  <blank length="18"/>
  <entry out="1330" producer="13_playlist16" in="1321"/>
  <blank length="47"/>
  <entry out="1393" producer="13_playlist16" in="1378"/>
 </playlist>
 <producer id="13_playlist17" title="Anonymous Submission" out="4885" in="0">
  <property name="length">00:03:23:14</property>
  <property name="eof">pause</property>
  <property name="resource">src/TheWholeRushes/Samedi_matin/CAM2_2017-11-24_0236_C0005.mov</property>
  <property name="audio_index">2</property>
  <property name="video_index">1</property>
  <property name="mute_on_pause">1</property>
  <property name="mlt_service">avformat-novalidate</property>
  <property name="seekable">1</property>
  <property name="aspect_ratio">1</property>
  <property name="kdenlive:folderid">-1</property>
  <property name="kdenlive:file_size">4542172841</property>
  <property name="kdenlive:file_hash">91feebd31e13c0397d7c7f4aa158eeea</property>
  <property name="kdenlive:proxy">-</property>
  <property name="proxy_out">4885</property>
  <property name="kdenlive:originalurl">src/04-06_Couplet2/mao1.sshfs/CAM2_2017-11-24_0236_C0005.mov</property>
  <property name="global_feed">1</property>
  <property name="kdenlive:meta.media.nb_streams">3</property>
  <property name="kdenlive:meta.media.1.stream.type">video</property>
  <property name="kdenlive:meta.media.1.stream.frame_rate">24</property>
  <property name="kdenlive:meta.media.1.stream.sample_aspect_ratio">1</property>
  <property name="kdenlive:meta.media.1.codec.width">1920</property>
  <property name="kdenlive:meta.media.1.codec.height">1080</property>
  <property name="kdenlive:meta.media.1.codec.rotate">0</property>
  <property name="kdenlive:meta.media.1.codec.frame_rate">2400</property>
  <property name="kdenlive:meta.media.1.codec.pix_fmt">yuv422p10le</property>
  <property name="kdenlive:meta.media.1.codec.sample_aspect_ratio">0</property>
  <property name="kdenlive:meta.media.1.codec.colorspace">709</property>
  <property name="kdenlive:meta.media.1.codec.color_trc">1</property>
  <property name="kdenlive:meta.media.1.codec.name">prores</property>
  <property name="kdenlive:meta.media.1.codec.long_name">ProRes</property>
  <property name="kdenlive:meta.media.1.codec.bit_rate">176139589</property>
  <property name="kdenlive:meta.attr.1.stream.creation_time.markup">2017-11-24T02:36:10.000000Z</property>
  <property name="kdenlive:meta.attr.1.stream.language.markup">eng</property>
  <property name="kdenlive:meta.attr.1.stream.handler_name.markup">Apple Alias Data Handler</property>
  <property name="kdenlive:meta.attr.1.stream.encoder.markup">Apple ProRes 422 HQ</property>
  <property name="kdenlive:meta.attr.1.stream.timecode.markup">02:36:10:06</property>
  <property name="kdenlive:meta.media.2.stream.type">audio</property>
  <property name="kdenlive:meta.media.2.codec.sample_fmt">s32</property>
  <property name="kdenlive:meta.media.2.codec.sample_rate">48000</property>
  <property name="kdenlive:meta.media.2.codec.channels">2</property>
  <property name="kdenlive:meta.media.2.codec.name">pcm_s24le</property>
  <property name="kdenlive:meta.media.2.codec.long_name">PCM signed 24-bit little-endian</property>
  <property name="kdenlive:meta.media.2.codec.bit_rate">2304000</property>
  <property name="kdenlive:meta.attr.2.stream.creation_time.markup">2017-11-24T02:36:10.000000Z</property>
  <property name="kdenlive:meta.attr.2.stream.language.markup">eng</property>
  <property name="kdenlive:meta.attr.2.stream.handler_name.markup">Apple Alias Data Handler</property>
  <property name="kdenlive:meta.attr.2.stream.timecode.markup">02:36:10:06</property>
  <property name="kdenlive:meta.attr.com.apple.proapps.manufacturer.markup">Blackmagic Design</property>
  <property name="kdenlive:meta.attr.com.apple.proapps.cameraName.markup">CAM2</property>
  <property name="kdenlive:meta.attr.com.apple.proapps.isGood.markup">0</property>
  <property name="kdenlive:meta.attr.com.apple.proapps.customgamma.markup">com.blackmagic-design.cinemacamera.filmlog</property>
  <property name="kdenlive:meta.attr.com.blackmagic-design.cinemacamera.uuid.markup">18E5E00548F94923B646613A73C01B56</property>
  <property name="kdenlive:meta.attr.creation_time.markup">2017-11-24T02:36:10.000000Z</property>
  <property name="kdenlive:meta.attr.timecode.markup">02:36:10:06</property>
  <property name="kdenlive:meta.media.sample_aspect_num">1</property>
  <property name="kdenlive:meta.media.sample_aspect_den">1</property>
  <property name="kdenlive:meta.media.frame_rate_num">24</property>
  <property name="kdenlive:meta.media.frame_rate_den">1</property>
  <property name="kdenlive:meta.media.colorspace">709</property>
  <property name="kdenlive:meta.media.color_trc">1</property>
  <property name="kdenlive:meta.media.width">1920</property>
  <property name="kdenlive:meta.media.height">1080</property>
  <property name="kdenlive:meta.media.top_field_first">0</property>
  <property name="kdenlive:meta.media.progressive">1</property>
  <property name="xml">was here</property>
  <property name="meta.media.nb_streams">3</property>
  <property name="meta.media.1.stream.type">video</property>
  <property name="meta.media.1.stream.frame_rate">24</property>
  <property name="meta.media.1.stream.sample_aspect_ratio">1</property>
  <property name="meta.media.1.codec.width">1920</property>
  <property name="meta.media.1.codec.height">1080</property>
  <property name="meta.media.1.codec.rotate">0</property>
  <property name="meta.media.1.codec.frame_rate">2400</property>
  <property name="meta.media.1.codec.pix_fmt">yuv422p10le</property>
  <property name="meta.media.1.codec.sample_aspect_ratio">0</property>
  <property name="meta.media.1.codec.colorspace">709</property>
  <property name="meta.media.1.codec.color_trc">1</property>
  <property name="meta.media.1.codec.name">prores</property>
  <property name="meta.media.1.codec.long_name">ProRes</property>
  <property name="meta.media.1.codec.bit_rate">176139589</property>
  <property name="meta.attr.1.stream.creation_time.markup">2017-11-24T02:36:10.000000Z</property>
  <property name="meta.attr.1.stream.language.markup">eng</property>
  <property name="meta.attr.1.stream.handler_name.markup">Apple Alias Data Handler</property>
  <property name="meta.attr.1.stream.encoder.markup">Apple ProRes 422 HQ</property>
  <property name="meta.attr.1.stream.timecode.markup">02:36:10:06</property>
  <property name="meta.media.2.stream.type">audio</property>
  <property name="meta.media.2.codec.sample_fmt">s32</property>
  <property name="meta.media.2.codec.sample_rate">48000</property>
  <property name="meta.media.2.codec.channels">2</property>
  <property name="meta.media.2.codec.name">pcm_s24le</property>
  <property name="meta.media.2.codec.long_name">PCM signed 24-bit little-endian</property>
  <property name="meta.media.2.codec.bit_rate">2304000</property>
  <property name="meta.attr.2.stream.creation_time.markup">2017-11-24T02:36:10.000000Z</property>
  <property name="meta.attr.2.stream.language.markup">eng</property>
  <property name="meta.attr.2.stream.handler_name.markup">Apple Alias Data Handler</property>
  <property name="meta.attr.2.stream.timecode.markup">02:36:10:06</property>
  <property name="meta.attr.com.apple.proapps.manufacturer.markup">Blackmagic Design</property>
  <property name="meta.attr.com.apple.proapps.cameraName.markup">CAM2</property>
  <property name="meta.attr.com.apple.proapps.isGood.markup">0</property>
  <property name="meta.attr.com.apple.proapps.customgamma.markup">com.blackmagic-design.cinemacamera.filmlog</property>
  <property name="meta.attr.com.blackmagic-design.cinemacamera.uuid.markup">18E5E00548F94923B646613A73C01B56</property>
  <property name="meta.attr.creation_time.markup">2017-11-24T02:36:10.000000Z</property>
  <property name="meta.attr.timecode.markup">02:36:10:06</property>
  <property name="meta.media.sample_aspect_num">1</property>
  <property name="meta.media.sample_aspect_den">1</property>
  <property name="meta.media.frame_rate_num">24</property>
  <property name="meta.media.frame_rate_den">1</property>
  <property name="meta.media.colorspace">709</property>
  <property name="meta.media.color_trc">1</property>
  <property name="meta.media.width">1920</property>
  <property name="meta.media.height">1080</property>
  <property name="meta.media.top_field_first">0</property>
  <property name="meta.media.progressive">1</property>
 </producer>
 <playlist id="playlist17">
  <property name="kdenlive:track_name">Video 16</property>
  <property name="kdenlive:locked_track">0</property>
  <blank length="2993"/>
  <entry out="2559" producer="13_playlist17" in="2549"/>
  <blank length="10"/>
  <entry out="2616" producer="13_playlist17" in="2570"/>
 </playlist>
 <producer id="13_playlist18" title="Anonymous Submission" out="4885" in="0">
  <property name="length">00:03:23:14</property>
  <property name="eof">pause</property>
  <property name="resource">src/TheWholeRushes/Samedi_matin/CAM2_2017-11-24_0236_C0005.mov</property>
  <property name="audio_index">2</property>
  <property name="video_index">1</property>
  <property name="mute_on_pause">1</property>
  <property name="mlt_service">avformat-novalidate</property>
  <property name="seekable">1</property>
  <property name="aspect_ratio">1</property>
  <property name="kdenlive:folderid">-1</property>
  <property name="kdenlive:file_size">4542172841</property>
  <property name="kdenlive:file_hash">91feebd31e13c0397d7c7f4aa158eeea</property>
  <property name="kdenlive:proxy">-</property>
  <property name="proxy_out">4885</property>
  <property name="kdenlive:originalurl">src/04-06_Couplet2/mao1.sshfs/CAM2_2017-11-24_0236_C0005.mov</property>
  <property name="global_feed">1</property>
  <property name="kdenlive:meta.media.nb_streams">3</property>
  <property name="kdenlive:meta.media.1.stream.type">video</property>
  <property name="kdenlive:meta.media.1.stream.frame_rate">24</property>
  <property name="kdenlive:meta.media.1.stream.sample_aspect_ratio">1</property>
  <property name="kdenlive:meta.media.1.codec.width">1920</property>
  <property name="kdenlive:meta.media.1.codec.height">1080</property>
  <property name="kdenlive:meta.media.1.codec.rotate">0</property>
  <property name="kdenlive:meta.media.1.codec.frame_rate">2400</property>
  <property name="kdenlive:meta.media.1.codec.pix_fmt">yuv422p10le</property>
  <property name="kdenlive:meta.media.1.codec.sample_aspect_ratio">0</property>
  <property name="kdenlive:meta.media.1.codec.colorspace">709</property>
  <property name="kdenlive:meta.media.1.codec.color_trc">1</property>
  <property name="kdenlive:meta.media.1.codec.name">prores</property>
  <property name="kdenlive:meta.media.1.codec.long_name">ProRes</property>
  <property name="kdenlive:meta.media.1.codec.bit_rate">176139589</property>
  <property name="kdenlive:meta.attr.1.stream.creation_time.markup">2017-11-24T02:36:10.000000Z</property>
  <property name="kdenlive:meta.attr.1.stream.language.markup">eng</property>
  <property name="kdenlive:meta.attr.1.stream.handler_name.markup">Apple Alias Data Handler</property>
  <property name="kdenlive:meta.attr.1.stream.encoder.markup">Apple ProRes 422 HQ</property>
  <property name="kdenlive:meta.attr.1.stream.timecode.markup">02:36:10:06</property>
  <property name="kdenlive:meta.media.2.stream.type">audio</property>
  <property name="kdenlive:meta.media.2.codec.sample_fmt">s32</property>
  <property name="kdenlive:meta.media.2.codec.sample_rate">48000</property>
  <property name="kdenlive:meta.media.2.codec.channels">2</property>
  <property name="kdenlive:meta.media.2.codec.name">pcm_s24le</property>
  <property name="kdenlive:meta.media.2.codec.long_name">PCM signed 24-bit little-endian</property>
  <property name="kdenlive:meta.media.2.codec.bit_rate">2304000</property>
  <property name="kdenlive:meta.attr.2.stream.creation_time.markup">2017-11-24T02:36:10.000000Z</property>
  <property name="kdenlive:meta.attr.2.stream.language.markup">eng</property>
  <property name="kdenlive:meta.attr.2.stream.handler_name.markup">Apple Alias Data Handler</property>
  <property name="kdenlive:meta.attr.2.stream.timecode.markup">02:36:10:06</property>
  <property name="kdenlive:meta.attr.com.apple.proapps.manufacturer.markup">Blackmagic Design</property>
  <property name="kdenlive:meta.attr.com.apple.proapps.cameraName.markup">CAM2</property>
  <property name="kdenlive:meta.attr.com.apple.proapps.isGood.markup">0</property>
  <property name="kdenlive:meta.attr.com.apple.proapps.customgamma.markup">com.blackmagic-design.cinemacamera.filmlog</property>
  <property name="kdenlive:meta.attr.com.blackmagic-design.cinemacamera.uuid.markup">18E5E00548F94923B646613A73C01B56</property>
  <property name="kdenlive:meta.attr.creation_time.markup">2017-11-24T02:36:10.000000Z</property>
  <property name="kdenlive:meta.attr.timecode.markup">02:36:10:06</property>
  <property name="kdenlive:meta.media.sample_aspect_num">1</property>
  <property name="kdenlive:meta.media.sample_aspect_den">1</property>
  <property name="kdenlive:meta.media.frame_rate_num">24</property>
  <property name="kdenlive:meta.media.frame_rate_den">1</property>
  <property name="kdenlive:meta.media.colorspace">709</property>
  <property name="kdenlive:meta.media.color_trc">1</property>
  <property name="kdenlive:meta.media.width">1920</property>
  <property name="kdenlive:meta.media.height">1080</property>
  <property name="kdenlive:meta.media.top_field_first">0</property>
  <property name="kdenlive:meta.media.progressive">1</property>
  <property name="xml">was here</property>
  <property name="meta.media.nb_streams">3</property>
  <property name="meta.media.1.stream.type">video</property>
  <property name="meta.media.1.stream.frame_rate">24</property>
  <property name="meta.media.1.stream.sample_aspect_ratio">1</property>
  <property name="meta.media.1.codec.width">1920</property>
  <property name="meta.media.1.codec.height">1080</property>
  <property name="meta.media.1.codec.rotate">0</property>
  <property name="meta.media.1.codec.frame_rate">2400</property>
  <property name="meta.media.1.codec.pix_fmt">yuv422p10le</property>
  <property name="meta.media.1.codec.sample_aspect_ratio">0</property>
  <property name="meta.media.1.codec.colorspace">709</property>
  <property name="meta.media.1.codec.color_trc">1</property>
  <property name="meta.media.1.codec.name">prores</property>
  <property name="meta.media.1.codec.long_name">ProRes</property>
  <property name="meta.media.1.codec.bit_rate">176139589</property>
  <property name="meta.attr.1.stream.creation_time.markup">2017-11-24T02:36:10.000000Z</property>
  <property name="meta.attr.1.stream.language.markup">eng</property>
  <property name="meta.attr.1.stream.handler_name.markup">Apple Alias Data Handler</property>
  <property name="meta.attr.1.stream.encoder.markup">Apple ProRes 422 HQ</property>
  <property name="meta.attr.1.stream.timecode.markup">02:36:10:06</property>
  <property name="meta.media.2.stream.type">audio</property>
  <property name="meta.media.2.codec.sample_fmt">s32</property>
  <property name="meta.media.2.codec.sample_rate">48000</property>
  <property name="meta.media.2.codec.channels">2</property>
  <property name="meta.media.2.codec.name">pcm_s24le</property>
  <property name="meta.media.2.codec.long_name">PCM signed 24-bit little-endian</property>
  <property name="meta.media.2.codec.bit_rate">2304000</property>
  <property name="meta.attr.2.stream.creation_time.markup">2017-11-24T02:36:10.000000Z</property>
  <property name="meta.attr.2.stream.language.markup">eng</property>
  <property name="meta.attr.2.stream.handler_name.markup">Apple Alias Data Handler</property>
  <property name="meta.attr.2.stream.timecode.markup">02:36:10:06</property>
  <property name="meta.attr.com.apple.proapps.manufacturer.markup">Blackmagic Design</property>
  <property name="meta.attr.com.apple.proapps.cameraName.markup">CAM2</property>
  <property name="meta.attr.com.apple.proapps.isGood.markup">0</property>
  <property name="meta.attr.com.apple.proapps.customgamma.markup">com.blackmagic-design.cinemacamera.filmlog</property>
  <property name="meta.attr.com.blackmagic-design.cinemacamera.uuid.markup">18E5E00548F94923B646613A73C01B56</property>
  <property name="meta.attr.creation_time.markup">2017-11-24T02:36:10.000000Z</property>
  <property name="meta.attr.timecode.markup">02:36:10:06</property>
  <property name="meta.media.sample_aspect_num">1</property>
  <property name="meta.media.sample_aspect_den">1</property>
  <property name="meta.media.frame_rate_num">24</property>
  <property name="meta.media.frame_rate_den">1</property>
  <property name="meta.media.colorspace">709</property>
  <property name="meta.media.color_trc">1</property>
  <property name="meta.media.width">1920</property>
  <property name="meta.media.height">1080</property>
  <property name="meta.media.top_field_first">0</property>
  <property name="meta.media.progressive">1</property>
 </producer>
 <playlist id="playlist18">
  <property name="kdenlive:track_name">Video 17</property>
  <property name="kdenlive:locked_track">0</property>
  <blank length="2986"/>
  <entry out="4119" producer="13_playlist18" in="4111"/>
  <blank length="19"/>
  <entry out="4167" producer="13_playlist18" in="4139"/>
  <blank length="34"/>
  <entry out="4230" producer="13_playlist18" in="4202"/>
 </playlist>
 <producer id="14_playlist19" title="Anonymous Submission" out="6121" in="0">
  <property name="length">00:04:15:02</property>
  <property name="eof">pause</property>
  <property name="resource">src/TheWholeRushes/Samedi_matin/CAM2_2017-11-24_0243_C0006.mov</property>
  <property name="audio_index">2</property>
  <property name="video_index">1</property>
  <property name="mute_on_pause">1</property>
  <property name="mlt_service">avformat-novalidate</property>
  <property name="seekable">1</property>
  <property name="aspect_ratio">1</property>
  <property name="kdenlive:folderid">-1</property>
  <property name="kdenlive:file_size">5691189833</property>
  <property name="kdenlive:file_hash">138855e87eadd367db96162201652602</property>
  <property name="kdenlive:proxy">-</property>
  <property name="proxy_out">6121</property>
  <property name="kdenlive:originalurl">src/04-06_Couplet2/mao1.sshfs/CAM2_2017-11-24_0243_C0006.mov</property>
  <property name="global_feed">1</property>
  <property name="kdenlive:meta.media.nb_streams">3</property>
  <property name="kdenlive:meta.media.1.stream.type">video</property>
  <property name="kdenlive:meta.media.1.stream.frame_rate">24</property>
  <property name="kdenlive:meta.media.1.stream.sample_aspect_ratio">1</property>
  <property name="kdenlive:meta.media.1.codec.width">1920</property>
  <property name="kdenlive:meta.media.1.codec.height">1080</property>
  <property name="kdenlive:meta.media.1.codec.rotate">0</property>
  <property name="kdenlive:meta.media.1.codec.frame_rate">2400</property>
  <property name="kdenlive:meta.media.1.codec.pix_fmt">yuv422p10le</property>
  <property name="kdenlive:meta.media.1.codec.sample_aspect_ratio">0</property>
  <property name="kdenlive:meta.media.1.codec.colorspace">709</property>
  <property name="kdenlive:meta.media.1.codec.color_trc">1</property>
  <property name="kdenlive:meta.media.1.codec.name">prores</property>
  <property name="kdenlive:meta.media.1.codec.long_name">ProRes</property>
  <property name="kdenlive:meta.media.1.codec.bit_rate">176139611</property>
  <property name="kdenlive:meta.attr.1.stream.creation_time.markup">2017-11-24T02:43:43.000000Z</property>
  <property name="kdenlive:meta.attr.1.stream.language.markup">eng</property>
  <property name="kdenlive:meta.attr.1.stream.handler_name.markup">Apple Alias Data Handler</property>
  <property name="kdenlive:meta.attr.1.stream.encoder.markup">Apple ProRes 422 HQ</property>
  <property name="kdenlive:meta.attr.1.stream.timecode.markup">02:43:43:06</property>
  <property name="kdenlive:meta.media.2.stream.type">audio</property>
  <property name="kdenlive:meta.media.2.codec.sample_fmt">s32</property>
  <property name="kdenlive:meta.media.2.codec.sample_rate">48000</property>
  <property name="kdenlive:meta.media.2.codec.channels">2</property>
  <property name="kdenlive:meta.media.2.codec.name">pcm_s24le</property>
  <property name="kdenlive:meta.media.2.codec.long_name">PCM signed 24-bit little-endian</property>
  <property name="kdenlive:meta.media.2.codec.bit_rate">2304000</property>
  <property name="kdenlive:meta.attr.2.stream.creation_time.markup">2017-11-24T02:43:43.000000Z</property>
  <property name="kdenlive:meta.attr.2.stream.language.markup">eng</property>
  <property name="kdenlive:meta.attr.2.stream.handler_name.markup">Apple Alias Data Handler</property>
  <property name="kdenlive:meta.attr.2.stream.timecode.markup">02:43:43:06</property>
  <property name="kdenlive:meta.attr.com.apple.proapps.manufacturer.markup">Blackmagic Design</property>
  <property name="kdenlive:meta.attr.com.apple.proapps.cameraName.markup">CAM2</property>
  <property name="kdenlive:meta.attr.com.apple.proapps.isGood.markup">0</property>
  <property name="kdenlive:meta.attr.com.apple.proapps.customgamma.markup">com.blackmagic-design.cinemacamera.filmlog</property>
  <property name="kdenlive:meta.attr.com.blackmagic-design.cinemacamera.uuid.markup">18E5E00548F94923B646613A73C01B56</property>
  <property name="kdenlive:meta.attr.creation_time.markup">2017-11-24T02:43:43.000000Z</property>
  <property name="kdenlive:meta.attr.timecode.markup">02:43:43:06</property>
  <property name="kdenlive:meta.media.sample_aspect_num">1</property>
  <property name="kdenlive:meta.media.sample_aspect_den">1</property>
  <property name="kdenlive:meta.media.frame_rate_num">24</property>
  <property name="kdenlive:meta.media.frame_rate_den">1</property>
  <property name="kdenlive:meta.media.colorspace">709</property>
  <property name="kdenlive:meta.media.color_trc">1</property>
  <property name="kdenlive:meta.media.width">1920</property>
  <property name="kdenlive:meta.media.height">1080</property>
  <property name="kdenlive:meta.media.top_field_first">0</property>
  <property name="kdenlive:meta.media.progressive">1</property>
  <property name="xml">was here</property>
  <property name="meta.media.nb_streams">3</property>
  <property name="meta.media.1.stream.type">video</property>
  <property name="meta.media.1.stream.frame_rate">24</property>
  <property name="meta.media.1.stream.sample_aspect_ratio">1</property>
  <property name="meta.media.1.codec.width">1920</property>
  <property name="meta.media.1.codec.height">1080</property>
  <property name="meta.media.1.codec.rotate">0</property>
  <property name="meta.media.1.codec.frame_rate">2400</property>
  <property name="meta.media.1.codec.pix_fmt">yuv422p10le</property>
  <property name="meta.media.1.codec.sample_aspect_ratio">0</property>
  <property name="meta.media.1.codec.colorspace">709</property>
  <property name="meta.media.1.codec.color_trc">1</property>
  <property name="meta.media.1.codec.name">prores</property>
  <property name="meta.media.1.codec.long_name">ProRes</property>
  <property name="meta.media.1.codec.bit_rate">176139611</property>
  <property name="meta.attr.1.stream.creation_time.markup">2017-11-24T02:43:43.000000Z</property>
  <property name="meta.attr.1.stream.language.markup">eng</property>
  <property name="meta.attr.1.stream.handler_name.markup">Apple Alias Data Handler</property>
  <property name="meta.attr.1.stream.encoder.markup">Apple ProRes 422 HQ</property>
  <property name="meta.attr.1.stream.timecode.markup">02:43:43:06</property>
  <property name="meta.media.2.stream.type">audio</property>
  <property name="meta.media.2.codec.sample_fmt">s32</property>
  <property name="meta.media.2.codec.sample_rate">48000</property>
  <property name="meta.media.2.codec.channels">2</property>
  <property name="meta.media.2.codec.name">pcm_s24le</property>
  <property name="meta.media.2.codec.long_name">PCM signed 24-bit little-endian</property>
  <property name="meta.media.2.codec.bit_rate">2304000</property>
  <property name="meta.attr.2.stream.creation_time.markup">2017-11-24T02:43:43.000000Z</property>
  <property name="meta.attr.2.stream.language.markup">eng</property>
  <property name="meta.attr.2.stream.handler_name.markup">Apple Alias Data Handler</property>
  <property name="meta.attr.2.stream.timecode.markup">02:43:43:06</property>
  <property name="meta.attr.com.apple.proapps.manufacturer.markup">Blackmagic Design</property>
  <property name="meta.attr.com.apple.proapps.cameraName.markup">CAM2</property>
  <property name="meta.attr.com.apple.proapps.isGood.markup">0</property>
  <property name="meta.attr.com.apple.proapps.customgamma.markup">com.blackmagic-design.cinemacamera.filmlog</property>
  <property name="meta.attr.com.blackmagic-design.cinemacamera.uuid.markup">18E5E00548F94923B646613A73C01B56</property>
  <property name="meta.attr.creation_time.markup">2017-11-24T02:43:43.000000Z</property>
  <property name="meta.attr.timecode.markup">02:43:43:06</property>
  <property name="meta.media.sample_aspect_num">1</property>
  <property name="meta.media.sample_aspect_den">1</property>
  <property name="meta.media.frame_rate_num">24</property>
  <property name="meta.media.frame_rate_den">1</property>
  <property name="meta.media.colorspace">709</property>
  <property name="meta.media.color_trc">1</property>
  <property name="meta.media.width">1920</property>
  <property name="meta.media.height">1080</property>
  <property name="meta.media.top_field_first">0</property>
  <property name="meta.media.progressive">1</property>
 </producer>
 <playlist id="playlist19">
  <property name="kdenlive:track_name">Video 18</property>
  <property name="kdenlive:locked_track">1</property>
  <blank length="3521"/>
  <entry out="3006" producer="14_playlist19" in="1731"/>
 </playlist>
 <producer id="14_playlist20" title="Anonymous Submission" out="6121" in="0">
  <property name="length">00:04:15:02</property>
  <property name="eof">pause</property>
  <property name="resource">src/TheWholeRushes/Samedi_matin/CAM2_2017-11-24_0243_C0006.mov</property>
  <property name="audio_index">2</property>
  <property name="video_index">1</property>
  <property name="mute_on_pause">1</property>
  <property name="mlt_service">avformat-novalidate</property>
  <property name="seekable">1</property>
  <property name="aspect_ratio">1</property>
  <property name="kdenlive:folderid">-1</property>
  <property name="kdenlive:file_size">5691189833</property>
  <property name="kdenlive:file_hash">138855e87eadd367db96162201652602</property>
  <property name="kdenlive:proxy">-</property>
  <property name="proxy_out">6121</property>
  <property name="kdenlive:originalurl">src/04-06_Couplet2/mao1.sshfs/CAM2_2017-11-24_0243_C0006.mov</property>
  <property name="global_feed">1</property>
  <property name="kdenlive:meta.media.nb_streams">3</property>
  <property name="kdenlive:meta.media.1.stream.type">video</property>
  <property name="kdenlive:meta.media.1.stream.frame_rate">24</property>
  <property name="kdenlive:meta.media.1.stream.sample_aspect_ratio">1</property>
  <property name="kdenlive:meta.media.1.codec.width">1920</property>
  <property name="kdenlive:meta.media.1.codec.height">1080</property>
  <property name="kdenlive:meta.media.1.codec.rotate">0</property>
  <property name="kdenlive:meta.media.1.codec.frame_rate">2400</property>
  <property name="kdenlive:meta.media.1.codec.pix_fmt">yuv422p10le</property>
  <property name="kdenlive:meta.media.1.codec.sample_aspect_ratio">0</property>
  <property name="kdenlive:meta.media.1.codec.colorspace">709</property>
  <property name="kdenlive:meta.media.1.codec.color_trc">1</property>
  <property name="kdenlive:meta.media.1.codec.name">prores</property>
  <property name="kdenlive:meta.media.1.codec.long_name">ProRes</property>
  <property name="kdenlive:meta.media.1.codec.bit_rate">176139611</property>
  <property name="kdenlive:meta.attr.1.stream.creation_time.markup">2017-11-24T02:43:43.000000Z</property>
  <property name="kdenlive:meta.attr.1.stream.language.markup">eng</property>
  <property name="kdenlive:meta.attr.1.stream.handler_name.markup">Apple Alias Data Handler</property>
  <property name="kdenlive:meta.attr.1.stream.encoder.markup">Apple ProRes 422 HQ</property>
  <property name="kdenlive:meta.attr.1.stream.timecode.markup">02:43:43:06</property>
  <property name="kdenlive:meta.media.2.stream.type">audio</property>
  <property name="kdenlive:meta.media.2.codec.sample_fmt">s32</property>
  <property name="kdenlive:meta.media.2.codec.sample_rate">48000</property>
  <property name="kdenlive:meta.media.2.codec.channels">2</property>
  <property name="kdenlive:meta.media.2.codec.name">pcm_s24le</property>
  <property name="kdenlive:meta.media.2.codec.long_name">PCM signed 24-bit little-endian</property>
  <property name="kdenlive:meta.media.2.codec.bit_rate">2304000</property>
  <property name="kdenlive:meta.attr.2.stream.creation_time.markup">2017-11-24T02:43:43.000000Z</property>
  <property name="kdenlive:meta.attr.2.stream.language.markup">eng</property>
  <property name="kdenlive:meta.attr.2.stream.handler_name.markup">Apple Alias Data Handler</property>
  <property name="kdenlive:meta.attr.2.stream.timecode.markup">02:43:43:06</property>
  <property name="kdenlive:meta.attr.com.apple.proapps.manufacturer.markup">Blackmagic Design</property>
  <property name="kdenlive:meta.attr.com.apple.proapps.cameraName.markup">CAM2</property>
  <property name="kdenlive:meta.attr.com.apple.proapps.isGood.markup">0</property>
  <property name="kdenlive:meta.attr.com.apple.proapps.customgamma.markup">com.blackmagic-design.cinemacamera.filmlog</property>
  <property name="kdenlive:meta.attr.com.blackmagic-design.cinemacamera.uuid.markup">18E5E00548F94923B646613A73C01B56</property>
  <property name="kdenlive:meta.attr.creation_time.markup">2017-11-24T02:43:43.000000Z</property>
  <property name="kdenlive:meta.attr.timecode.markup">02:43:43:06</property>
  <property name="kdenlive:meta.media.sample_aspect_num">1</property>
  <property name="kdenlive:meta.media.sample_aspect_den">1</property>
  <property name="kdenlive:meta.media.frame_rate_num">24</property>
  <property name="kdenlive:meta.media.frame_rate_den">1</property>
  <property name="kdenlive:meta.media.colorspace">709</property>
  <property name="kdenlive:meta.media.color_trc">1</property>
  <property name="kdenlive:meta.media.width">1920</property>
  <property name="kdenlive:meta.media.height">1080</property>
  <property name="kdenlive:meta.media.top_field_first">0</property>
  <property name="kdenlive:meta.media.progressive">1</property>
  <property name="xml">was here</property>
  <property name="meta.media.nb_streams">3</property>
  <property name="meta.media.1.stream.type">video</property>
  <property name="meta.media.1.stream.frame_rate">24</property>
  <property name="meta.media.1.stream.sample_aspect_ratio">1</property>
  <property name="meta.media.1.codec.width">1920</property>
  <property name="meta.media.1.codec.height">1080</property>
  <property name="meta.media.1.codec.rotate">0</property>
  <property name="meta.media.1.codec.frame_rate">2400</property>
  <property name="meta.media.1.codec.pix_fmt">yuv422p10le</property>
  <property name="meta.media.1.codec.sample_aspect_ratio">0</property>
  <property name="meta.media.1.codec.colorspace">709</property>
  <property name="meta.media.1.codec.color_trc">1</property>
  <property name="meta.media.1.codec.name">prores</property>
  <property name="meta.media.1.codec.long_name">ProRes</property>
  <property name="meta.media.1.codec.bit_rate">176139611</property>
  <property name="meta.attr.1.stream.creation_time.markup">2017-11-24T02:43:43.000000Z</property>
  <property name="meta.attr.1.stream.language.markup">eng</property>
  <property name="meta.attr.1.stream.handler_name.markup">Apple Alias Data Handler</property>
  <property name="meta.attr.1.stream.encoder.markup">Apple ProRes 422 HQ</property>
  <property name="meta.attr.1.stream.timecode.markup">02:43:43:06</property>
  <property name="meta.media.2.stream.type">audio</property>
  <property name="meta.media.2.codec.sample_fmt">s32</property>
  <property name="meta.media.2.codec.sample_rate">48000</property>
  <property name="meta.media.2.codec.channels">2</property>
  <property name="meta.media.2.codec.name">pcm_s24le</property>
  <property name="meta.media.2.codec.long_name">PCM signed 24-bit little-endian</property>
  <property name="meta.media.2.codec.bit_rate">2304000</property>
  <property name="meta.attr.2.stream.creation_time.markup">2017-11-24T02:43:43.000000Z</property>
  <property name="meta.attr.2.stream.language.markup">eng</property>
  <property name="meta.attr.2.stream.handler_name.markup">Apple Alias Data Handler</property>
  <property name="meta.attr.2.stream.timecode.markup">02:43:43:06</property>
  <property name="meta.attr.com.apple.proapps.manufacturer.markup">Blackmagic Design</property>
  <property name="meta.attr.com.apple.proapps.cameraName.markup">CAM2</property>
  <property name="meta.attr.com.apple.proapps.isGood.markup">0</property>
  <property name="meta.attr.com.apple.proapps.customgamma.markup">com.blackmagic-design.cinemacamera.filmlog</property>
  <property name="meta.attr.com.blackmagic-design.cinemacamera.uuid.markup">18E5E00548F94923B646613A73C01B56</property>
  <property name="meta.attr.creation_time.markup">2017-11-24T02:43:43.000000Z</property>
  <property name="meta.attr.timecode.markup">02:43:43:06</property>
  <property name="meta.media.sample_aspect_num">1</property>
  <property name="meta.media.sample_aspect_den">1</property>
  <property name="meta.media.frame_rate_num">24</property>
  <property name="meta.media.frame_rate_den">1</property>
  <property name="meta.media.colorspace">709</property>
  <property name="meta.media.color_trc">1</property>
  <property name="meta.media.width">1920</property>
  <property name="meta.media.height">1080</property>
  <property name="meta.media.top_field_first">0</property>
  <property name="meta.media.progressive">1</property>
 </producer>
 <playlist id="playlist20">
  <property name="kdenlive:track_name">Video 19</property>
  <property name="kdenlive:locked_track">1</property>
  <blank length="3521"/>
  <entry out="6121" producer="14_playlist20" in="4483"/>
 </playlist>
 <producer id="slowmotion:15:4:1:0" out="1026" in="0">
  <property name="length">1027</property>
  <property name="eof">pause</property>
  <property name="resource">4:src/TheWholeRushes/Samedi_soir/CAM2_2017-11-24_1117_C0001.mov</property>
  <property name="aspect_ratio">1</property>
  <property name="meta.media.nb_streams">3</property>
  <property name="meta.media.1.stream.type">video</property>
  <property name="meta.media.1.stream.frame_rate">24</property>
  <property name="meta.media.1.stream.sample_aspect_ratio">1</property>
  <property name="meta.media.1.codec.width">1920</property>
  <property name="meta.media.1.codec.height">1080</property>
  <property name="meta.media.1.codec.rotate">0</property>
  <property name="meta.media.1.codec.frame_rate">2400</property>
  <property name="meta.media.1.codec.pix_fmt">yuv422p10le</property>
  <property name="meta.media.1.codec.sample_aspect_ratio">0</property>
  <property name="meta.media.1.codec.colorspace">709</property>
  <property name="meta.media.1.codec.color_trc">1</property>
  <property name="meta.media.1.codec.name">prores</property>
  <property name="meta.media.1.codec.long_name">ProRes</property>
  <property name="meta.media.1.codec.bit_rate">176139791</property>
  <property name="meta.attr.1.stream.creation_time.markup">2017-11-24T11:17:56.000000Z</property>
  <property name="meta.attr.1.stream.language.markup">eng</property>
  <property name="meta.attr.1.stream.handler_name.markup">Apple Alias Data Handler</property>
  <property name="meta.attr.1.stream.encoder.markup">Apple ProRes 422 HQ</property>
  <property name="meta.attr.1.stream.timecode.markup">11:17:56:09</property>
  <property name="meta.media.2.stream.type">audio</property>
  <property name="meta.media.2.codec.sample_fmt">s32</property>
  <property name="meta.media.2.codec.sample_rate">48000</property>
  <property name="meta.media.2.codec.channels">2</property>
  <property name="meta.media.2.codec.name">pcm_s24le</property>
  <property name="meta.media.2.codec.long_name">PCM signed 24-bit little-endian</property>
  <property name="meta.media.2.codec.bit_rate">2304000</property>
  <property name="meta.attr.2.stream.creation_time.markup">2017-11-24T11:17:56.000000Z</property>
  <property name="meta.attr.2.stream.language.markup">eng</property>
  <property name="meta.attr.2.stream.handler_name.markup">Apple Alias Data Handler</property>
  <property name="meta.attr.2.stream.timecode.markup">11:17:56:09</property>
  <property name="meta.attr.com.apple.proapps.manufacturer.markup">Blackmagic Design</property>
  <property name="meta.attr.com.apple.proapps.cameraName.markup">CAM2</property>
  <property name="meta.attr.com.apple.proapps.isGood.markup">0</property>
  <property name="meta.attr.com.apple.proapps.customgamma.markup">com.blackmagic-design.cinemacamera.filmlog</property>
  <property name="meta.attr.com.blackmagic-design.cinemacamera.uuid.markup">18E5E00548F94923B646613A73C01B56</property>
  <property name="meta.attr.creation_time.markup">2017-11-24T11:17:56.000000Z</property>
  <property name="meta.attr.timecode.markup">11:17:56:09</property>
  <property name="seekable">1</property>
  <property name="meta.media.sample_aspect_num">1</property>
  <property name="meta.media.sample_aspect_den">1</property>
  <property name="audio_index">2</property>
  <property name="video_index">1</property>
  <property name="mute_on_pause">1</property>
  <property name="warp_speed">4</property>
  <property name="warp_resource">src/TheWholeRushes/Samedi_soir/CAM2_2017-11-24_1117_C0001.mov</property>
  <property name="mlt_service">timewarp</property>
  <property name="kdenlive:proxy">-</property>
  <property name="kdenlive:originalurl">src/04-06_Couplet2/mao1.sshfs/CAM2_2017-11-24_1117_C0001.mov</property>
  <property name="meta.media.frame_rate_num">24</property>
  <property name="meta.media.frame_rate_den">1</property>
  <property name="meta.media.colorspace">709</property>
  <property name="meta.media.color_trc">1</property>
  <property name="meta.media.width">1920</property>
  <property name="meta.media.height">1080</property>
  <property name="meta.media.top_field_first">0</property>
  <property name="meta.media.progressive">1</property>
 </producer>
 <producer id="15_playlist21" title="Anonymous Submission" out="4106" in="0">
  <property name="length">00:02:51:03</property>
  <property name="eof">pause</property>
  <property name="resource">src/TheWholeRushes/Samedi_soir/CAM2_2017-11-24_1117_C0001.mov</property>
  <property name="audio_index">2</property>
  <property name="video_index">1</property>
  <property name="mute_on_pause">1</property>
  <property name="mlt_service">avformat-novalidate</property>
  <property name="seekable">1</property>
  <property name="aspect_ratio">1</property>
  <property name="kdenlive:folderid">-1</property>
  <property name="kdenlive:file_size">3817991081</property>
  <property name="kdenlive:file_hash">e89f437a6cab322b45877ac37506466d</property>
  <property name="kdenlive:proxy">-</property>
  <property name="proxy_out">4106</property>
  <property name="kdenlive:originalurl">src/04-06_Couplet2/mao1.sshfs/CAM2_2017-11-24_1117_C0001.mov</property>
  <property name="global_feed">1</property>
  <property name="kdenlive:meta.media.nb_streams">3</property>
  <property name="kdenlive:meta.media.1.stream.type">video</property>
  <property name="kdenlive:meta.media.1.stream.frame_rate">24</property>
  <property name="kdenlive:meta.media.1.stream.sample_aspect_ratio">1</property>
  <property name="kdenlive:meta.media.1.codec.width">1920</property>
  <property name="kdenlive:meta.media.1.codec.height">1080</property>
  <property name="kdenlive:meta.media.1.codec.rotate">0</property>
  <property name="kdenlive:meta.media.1.codec.frame_rate">2400</property>
  <property name="kdenlive:meta.media.1.codec.pix_fmt">yuv422p10le</property>
  <property name="kdenlive:meta.media.1.codec.sample_aspect_ratio">0</property>
  <property name="kdenlive:meta.media.1.codec.colorspace">709</property>
  <property name="kdenlive:meta.media.1.codec.color_trc">1</property>
  <property name="kdenlive:meta.media.1.codec.name">prores</property>
  <property name="kdenlive:meta.media.1.codec.long_name">ProRes</property>
  <property name="kdenlive:meta.media.1.codec.bit_rate">176139791</property>
  <property name="kdenlive:meta.attr.1.stream.creation_time.markup">2017-11-24T11:17:56.000000Z</property>
  <property name="kdenlive:meta.attr.1.stream.language.markup">eng</property>
  <property name="kdenlive:meta.attr.1.stream.handler_name.markup">Apple Alias Data Handler</property>
  <property name="kdenlive:meta.attr.1.stream.encoder.markup">Apple ProRes 422 HQ</property>
  <property name="kdenlive:meta.attr.1.stream.timecode.markup">11:17:56:09</property>
  <property name="kdenlive:meta.media.2.stream.type">audio</property>
  <property name="kdenlive:meta.media.2.codec.sample_fmt">s32</property>
  <property name="kdenlive:meta.media.2.codec.sample_rate">48000</property>
  <property name="kdenlive:meta.media.2.codec.channels">2</property>
  <property name="kdenlive:meta.media.2.codec.name">pcm_s24le</property>
  <property name="kdenlive:meta.media.2.codec.long_name">PCM signed 24-bit little-endian</property>
  <property name="kdenlive:meta.media.2.codec.bit_rate">2304000</property>
  <property name="kdenlive:meta.attr.2.stream.creation_time.markup">2017-11-24T11:17:56.000000Z</property>
  <property name="kdenlive:meta.attr.2.stream.language.markup">eng</property>
  <property name="kdenlive:meta.attr.2.stream.handler_name.markup">Apple Alias Data Handler</property>
  <property name="kdenlive:meta.attr.2.stream.timecode.markup">11:17:56:09</property>
  <property name="kdenlive:meta.attr.com.apple.proapps.manufacturer.markup">Blackmagic Design</property>
  <property name="kdenlive:meta.attr.com.apple.proapps.cameraName.markup">CAM2</property>
  <property name="kdenlive:meta.attr.com.apple.proapps.isGood.markup">0</property>
  <property name="kdenlive:meta.attr.com.apple.proapps.customgamma.markup">com.blackmagic-design.cinemacamera.filmlog</property>
  <property name="kdenlive:meta.attr.com.blackmagic-design.cinemacamera.uuid.markup">18E5E00548F94923B646613A73C01B56</property>
  <property name="kdenlive:meta.attr.creation_time.markup">2017-11-24T11:17:56.000000Z</property>
  <property name="kdenlive:meta.attr.timecode.markup">11:17:56:09</property>
  <property name="kdenlive:meta.media.sample_aspect_num">1</property>
  <property name="kdenlive:meta.media.sample_aspect_den">1</property>
  <property name="kdenlive:meta.media.frame_rate_num">24</property>
  <property name="kdenlive:meta.media.frame_rate_den">1</property>
  <property name="kdenlive:meta.media.colorspace">709</property>
  <property name="kdenlive:meta.media.color_trc">1</property>
  <property name="kdenlive:meta.media.width">1920</property>
  <property name="kdenlive:meta.media.height">1080</property>
  <property name="kdenlive:meta.media.top_field_first">0</property>
  <property name="kdenlive:meta.media.progressive">1</property>
  <property name="xml">was here</property>
  <property name="meta.media.nb_streams">3</property>
  <property name="meta.media.1.stream.type">video</property>
  <property name="meta.media.1.stream.frame_rate">24</property>
  <property name="meta.media.1.stream.sample_aspect_ratio">1</property>
  <property name="meta.media.1.codec.width">1920</property>
  <property name="meta.media.1.codec.height">1080</property>
  <property name="meta.media.1.codec.rotate">0</property>
  <property name="meta.media.1.codec.frame_rate">2400</property>
  <property name="meta.media.1.codec.pix_fmt">yuv422p10le</property>
  <property name="meta.media.1.codec.sample_aspect_ratio">0</property>
  <property name="meta.media.1.codec.colorspace">709</property>
  <property name="meta.media.1.codec.color_trc">1</property>
  <property name="meta.media.1.codec.name">prores</property>
  <property name="meta.media.1.codec.long_name">ProRes</property>
  <property name="meta.media.1.codec.bit_rate">176139791</property>
  <property name="meta.attr.1.stream.creation_time.markup">2017-11-24T11:17:56.000000Z</property>
  <property name="meta.attr.1.stream.language.markup">eng</property>
  <property name="meta.attr.1.stream.handler_name.markup">Apple Alias Data Handler</property>
  <property name="meta.attr.1.stream.encoder.markup">Apple ProRes 422 HQ</property>
  <property name="meta.attr.1.stream.timecode.markup">11:17:56:09</property>
  <property name="meta.media.2.stream.type">audio</property>
  <property name="meta.media.2.codec.sample_fmt">s32</property>
  <property name="meta.media.2.codec.sample_rate">48000</property>
  <property name="meta.media.2.codec.channels">2</property>
  <property name="meta.media.2.codec.name">pcm_s24le</property>
  <property name="meta.media.2.codec.long_name">PCM signed 24-bit little-endian</property>
  <property name="meta.media.2.codec.bit_rate">2304000</property>
  <property name="meta.attr.2.stream.creation_time.markup">2017-11-24T11:17:56.000000Z</property>
  <property name="meta.attr.2.stream.language.markup">eng</property>
  <property name="meta.attr.2.stream.handler_name.markup">Apple Alias Data Handler</property>
  <property name="meta.attr.2.stream.timecode.markup">11:17:56:09</property>
  <property name="meta.attr.com.apple.proapps.manufacturer.markup">Blackmagic Design</property>
  <property name="meta.attr.com.apple.proapps.cameraName.markup">CAM2</property>
  <property name="meta.attr.com.apple.proapps.isGood.markup">0</property>
  <property name="meta.attr.com.apple.proapps.customgamma.markup">com.blackmagic-design.cinemacamera.filmlog</property>
  <property name="meta.attr.com.blackmagic-design.cinemacamera.uuid.markup">18E5E00548F94923B646613A73C01B56</property>
  <property name="meta.attr.creation_time.markup">2017-11-24T11:17:56.000000Z</property>
  <property name="meta.attr.timecode.markup">11:17:56:09</property>
  <property name="meta.media.sample_aspect_num">1</property>
  <property name="meta.media.sample_aspect_den">1</property>
  <property name="meta.media.frame_rate_num">24</property>
  <property name="meta.media.frame_rate_den">1</property>
  <property name="meta.media.colorspace">709</property>
  <property name="meta.media.color_trc">1</property>
  <property name="meta.media.width">1920</property>
  <property name="meta.media.height">1080</property>
  <property name="meta.media.top_field_first">0</property>
  <property name="meta.media.progressive">1</property>
 </producer>
 <playlist id="playlist21">
  <property name="kdenlive:track_name">Video 20</property>
  <property name="kdenlive:locked_track">1</property>
  <blank length="3102"/>
  <entry out="227" producer="slowmotion:15:4:1:0" in="224"/>
  <entry out="929" producer="15_playlist21" in="912"/>
 </playlist>
 <producer id="16_playlist22" title="Anonymous Submission" out="1815" in="0">
  <property name="length">00:01:15:16</property>
  <property name="eof">pause</property>
  <property name="resource">src/TheWholeRushes/Samedi_soir/CAM2_2017-11-24_1130_C0003.mov</property>
  <property name="audio_index">2</property>
  <property name="video_index">1</property>
  <property name="mute_on_pause">1</property>
  <property name="mlt_service">avformat-novalidate</property>
  <property name="seekable">1</property>
  <property name="aspect_ratio">1</property>
  <property name="kdenlive:folderid">-1</property>
  <property name="kdenlive:file_size">1688212137</property>
  <property name="kdenlive:file_hash">9e3b238311cbd7c98462643bd5208d2f</property>
  <property name="kdenlive:proxy">-</property>
  <property name="proxy_out">1815</property>
  <property name="kdenlive:originalurl">src/04-06_Couplet2/mao1.sshfs/CAM2_2017-11-24_1130_C0003.mov</property>
  <property name="global_feed">1</property>
  <property name="kdenlive:meta.media.nb_streams">3</property>
  <property name="kdenlive:meta.media.1.stream.type">video</property>
  <property name="kdenlive:meta.media.1.stream.frame_rate">24</property>
  <property name="kdenlive:meta.media.1.stream.sample_aspect_ratio">1</property>
  <property name="kdenlive:meta.media.1.codec.width">1920</property>
  <property name="kdenlive:meta.media.1.codec.height">1080</property>
  <property name="kdenlive:meta.media.1.codec.rotate">0</property>
  <property name="kdenlive:meta.media.1.codec.frame_rate">2400</property>
  <property name="kdenlive:meta.media.1.codec.pix_fmt">yuv422p10le</property>
  <property name="kdenlive:meta.media.1.codec.sample_aspect_ratio">0</property>
  <property name="kdenlive:meta.media.1.codec.colorspace">709</property>
  <property name="kdenlive:meta.media.1.codec.color_trc">1</property>
  <property name="kdenlive:meta.media.1.codec.name">prores</property>
  <property name="kdenlive:meta.media.1.codec.long_name">ProRes</property>
  <property name="kdenlive:meta.media.1.codec.bit_rate">176140125</property>
  <property name="kdenlive:meta.attr.1.stream.creation_time.markup">2017-11-24T11:30:24.000000Z</property>
  <property name="kdenlive:meta.attr.1.stream.language.markup">eng</property>
  <property name="kdenlive:meta.attr.1.stream.handler_name.markup">Apple Alias Data Handler</property>
  <property name="kdenlive:meta.attr.1.stream.encoder.markup">Apple ProRes 422 HQ</property>
  <property name="kdenlive:meta.attr.1.stream.timecode.markup">11:30:24:23</property>
  <property name="kdenlive:meta.media.2.stream.type">audio</property>
  <property name="kdenlive:meta.media.2.codec.sample_fmt">s32</property>
  <property name="kdenlive:meta.media.2.codec.sample_rate">48000</property>
  <property name="kdenlive:meta.media.2.codec.channels">2</property>
  <property name="kdenlive:meta.media.2.codec.name">pcm_s24le</property>
  <property name="kdenlive:meta.media.2.codec.long_name">PCM signed 24-bit little-endian</property>
  <property name="kdenlive:meta.media.2.codec.bit_rate">2304000</property>
  <property name="kdenlive:meta.attr.2.stream.creation_time.markup">2017-11-24T11:30:24.000000Z</property>
  <property name="kdenlive:meta.attr.2.stream.language.markup">eng</property>
  <property name="kdenlive:meta.attr.2.stream.handler_name.markup">Apple Alias Data Handler</property>
  <property name="kdenlive:meta.attr.2.stream.timecode.markup">11:30:24:23</property>
  <property name="kdenlive:meta.attr.com.apple.proapps.manufacturer.markup">Blackmagic Design</property>
  <property name="kdenlive:meta.attr.com.apple.proapps.cameraName.markup">CAM2</property>
  <property name="kdenlive:meta.attr.com.apple.proapps.isGood.markup">0</property>
  <property name="kdenlive:meta.attr.com.apple.proapps.customgamma.markup">com.blackmagic-design.cinemacamera.filmlog</property>
  <property name="kdenlive:meta.attr.com.blackmagic-design.cinemacamera.uuid.markup">18E5E00548F94923B646613A73C01B56</property>
  <property name="kdenlive:meta.attr.creation_time.markup">2017-11-24T11:30:24.000000Z</property>
  <property name="kdenlive:meta.attr.timecode.markup">11:30:24:23</property>
  <property name="kdenlive:meta.media.sample_aspect_num">1</property>
  <property name="kdenlive:meta.media.sample_aspect_den">1</property>
  <property name="kdenlive:meta.media.frame_rate_num">24</property>
  <property name="kdenlive:meta.media.frame_rate_den">1</property>
  <property name="kdenlive:meta.media.colorspace">709</property>
  <property name="kdenlive:meta.media.color_trc">1</property>
  <property name="kdenlive:meta.media.width">1920</property>
  <property name="kdenlive:meta.media.height">1080</property>
  <property name="kdenlive:meta.media.top_field_first">0</property>
  <property name="kdenlive:meta.media.progressive">1</property>
  <property name="xml">was here</property>
  <property name="meta.media.nb_streams">3</property>
  <property name="meta.media.1.stream.type">video</property>
  <property name="meta.media.1.stream.frame_rate">24</property>
  <property name="meta.media.1.stream.sample_aspect_ratio">1</property>
  <property name="meta.media.1.codec.width">1920</property>
  <property name="meta.media.1.codec.height">1080</property>
  <property name="meta.media.1.codec.rotate">0</property>
  <property name="meta.media.1.codec.frame_rate">2400</property>
  <property name="meta.media.1.codec.pix_fmt">yuv422p10le</property>
  <property name="meta.media.1.codec.sample_aspect_ratio">0</property>
  <property name="meta.media.1.codec.colorspace">709</property>
  <property name="meta.media.1.codec.color_trc">1</property>
  <property name="meta.media.1.codec.name">prores</property>
  <property name="meta.media.1.codec.long_name">ProRes</property>
  <property name="meta.media.1.codec.bit_rate">176140125</property>
  <property name="meta.attr.1.stream.creation_time.markup">2017-11-24T11:30:24.000000Z</property>
  <property name="meta.attr.1.stream.language.markup">eng</property>
  <property name="meta.attr.1.stream.handler_name.markup">Apple Alias Data Handler</property>
  <property name="meta.attr.1.stream.encoder.markup">Apple ProRes 422 HQ</property>
  <property name="meta.attr.1.stream.timecode.markup">11:30:24:23</property>
  <property name="meta.media.2.stream.type">audio</property>
  <property name="meta.media.2.codec.sample_fmt">s32</property>
  <property name="meta.media.2.codec.sample_rate">48000</property>
  <property name="meta.media.2.codec.channels">2</property>
  <property name="meta.media.2.codec.name">pcm_s24le</property>
  <property name="meta.media.2.codec.long_name">PCM signed 24-bit little-endian</property>
  <property name="meta.media.2.codec.bit_rate">2304000</property>
  <property name="meta.attr.2.stream.creation_time.markup">2017-11-24T11:30:24.000000Z</property>
  <property name="meta.attr.2.stream.language.markup">eng</property>
  <property name="meta.attr.2.stream.handler_name.markup">Apple Alias Data Handler</property>
  <property name="meta.attr.2.stream.timecode.markup">11:30:24:23</property>
  <property name="meta.attr.com.apple.proapps.manufacturer.markup">Blackmagic Design</property>
  <property name="meta.attr.com.apple.proapps.cameraName.markup">CAM2</property>
  <property name="meta.attr.com.apple.proapps.isGood.markup">0</property>
  <property name="meta.attr.com.apple.proapps.customgamma.markup">com.blackmagic-design.cinemacamera.filmlog</property>
  <property name="meta.attr.com.blackmagic-design.cinemacamera.uuid.markup">18E5E00548F94923B646613A73C01B56</property>
  <property name="meta.attr.creation_time.markup">2017-11-24T11:30:24.000000Z</property>
  <property name="meta.attr.timecode.markup">11:30:24:23</property>
  <property name="meta.media.sample_aspect_num">1</property>
  <property name="meta.media.sample_aspect_den">1</property>
  <property name="meta.media.frame_rate_num">24</property>
  <property name="meta.media.frame_rate_den">1</property>
  <property name="meta.media.colorspace">709</property>
  <property name="meta.media.color_trc">1</property>
  <property name="meta.media.width">1920</property>
  <property name="meta.media.height">1080</property>
  <property name="meta.media.top_field_first">0</property>
  <property name="meta.media.progressive">1</property>
 </producer>
 <playlist id="playlist22">
  <property name="kdenlive:track_name">Video 21</property>
  <property name="kdenlive:locked_track">1</property>
  <blank length="2450"/>
  <entry out="1815" producer="16_playlist22" in="0"/>
 </playlist>
 <tractor id="maintractor" title="Anonymous Submission" global_feed="1" out="6187" in="0">
  <track producer="black_track"/>
  <track producer="playlist1" hide="video"/>
  <track producer="playlist2" hide="video"/>
  <track producer="playlist3" hide="audio"/>
  <track producer="playlist4" hide="audio"/>
  <track producer="playlist5" hide="audio"/>
  <track producer="playlist0" hide="audio"/>
  <track producer="playlist6" hide="audio"/>
  <track producer="playlist7" hide="audio"/>
  <track producer="playlist8" hide="audio"/>
  <track producer="playlist23" hide="audio"/>
  <track producer="playlist9" hide="audio"/>
  <track producer="playlist10" hide="audio"/>
  <track producer="playlist11" hide="audio"/>
  <track producer="playlist12" hide="audio"/>
  <track producer="playlist13" hide="audio"/>
  <track producer="playlist14" hide="audio"/>
  <track producer="playlist15" hide="audio"/>
  <track producer="playlist16" hide="audio"/>
  <track producer="playlist17" hide="audio"/>
  <track producer="playlist18" hide="audio"/>
  <track producer="playlist19" hide="audio"/>
  <track producer="playlist20" hide="audio"/>
  <track producer="playlist21" hide="audio"/>
  <track producer="playlist22" hide="both"/>
  <transition id="transition0">
   <property name="a_track">0</property>
   <property name="b_track">1</property>
   <property name="mlt_service">mix</property>
   <property name="always_active">1</property>
   <property name="combine">1</property>
   <property name="internal_added">237</property>
  </transition>
  <transition id="transition1">
   <property name="a_track">0</property>
   <property name="b_track">2</property>
   <property name="mlt_service">mix</property>
   <property name="always_active">1</property>
   <property name="combine">1</property>
   <property name="internal_added">237</property>
  </transition>
  <transition id="transition2">
   <property name="a_track">0</property>
   <property name="b_track">3</property>
   <property name="mlt_service">mix</property>
   <property name="always_active">1</property>
   <property name="combine">1</property>
   <property name="internal_added">237</property>
  </transition>
  <transition id="transition3">
   <property name="a_track">0</property>
   <property name="b_track">4</property>
   <property name="mlt_service">mix</property>
   <property name="always_active">1</property>
   <property name="combine">1</property>
   <property name="internal_added">237</property>
  </transition>
  <transition id="transition4">
   <property name="a_track">0</property>
   <property name="b_track">5</property>
   <property name="mlt_service">mix</property>
   <property name="always_active">1</property>
   <property name="combine">1</property>
   <property name="internal_added">237</property>
  </transition>
  <transition id="transition5">
   <property name="a_track">0</property>
   <property name="b_track">6</property>
   <property name="mlt_service">mix</property>
   <property name="always_active">1</property>
   <property name="combine">1</property>
   <property name="internal_added">237</property>
  </transition>
  <transition id="transition6">
   <property name="a_track">0</property>
   <property name="b_track">7</property>
   <property name="mlt_service">mix</property>
   <property name="always_active">1</property>
   <property name="combine">1</property>
   <property name="internal_added">237</property>
  </transition>
  <transition id="transition7">
   <property name="a_track">0</property>
   <property name="b_track">8</property>
   <property name="mlt_service">mix</property>
   <property name="always_active">1</property>
   <property name="combine">1</property>
   <property name="internal_added">237</property>
  </transition>
  <transition id="transition8">
   <property name="a_track">0</property>
   <property name="b_track">9</property>
   <property name="mlt_service">mix</property>
   <property name="always_active">1</property>
   <property name="combine">1</property>
   <property name="internal_added">237</property>
  </transition>
  <transition id="transition9">
   <property name="a_track">0</property>
   <property name="b_track">10</property>
   <property name="mlt_service">mix</property>
   <property name="always_active">1</property>
   <property name="combine">1</property>
   <property name="internal_added">237</property>
  </transition>
  <transition id="transition10">
   <property name="a_track">0</property>
   <property name="b_track">11</property>
   <property name="mlt_service">mix</property>
   <property name="always_active">1</property>
   <property name="combine">1</property>
   <property name="internal_added">237</property>
  </transition>
  <transition id="transition11">
   <property name="a_track">0</property>
   <property name="b_track">12</property>
   <property name="mlt_service">mix</property>
   <property name="always_active">1</property>
   <property name="combine">1</property>
   <property name="internal_added">237</property>
  </transition>
  <transition id="transition12">
   <property name="a_track">0</property>
   <property name="b_track">13</property>
   <property name="mlt_service">mix</property>
   <property name="always_active">1</property>
   <property name="combine">1</property>
   <property name="internal_added">237</property>
  </transition>
  <transition id="transition13">
   <property name="a_track">0</property>
   <property name="b_track">14</property>
   <property name="mlt_service">mix</property>
   <property name="always_active">1</property>
   <property name="combine">1</property>
   <property name="internal_added">237</property>
  </transition>
  <transition id="transition14">
   <property name="a_track">0</property>
   <property name="b_track">15</property>
   <property name="mlt_service">mix</property>
   <property name="always_active">1</property>
   <property name="combine">1</property>
   <property name="internal_added">237</property>
  </transition>
  <transition id="transition15">
   <property name="a_track">0</property>
   <property name="b_track">16</property>
   <property name="mlt_service">mix</property>
   <property name="always_active">1</property>
   <property name="combine">1</property>
   <property name="internal_added">237</property>
  </transition>
  <transition id="transition16">
   <property name="a_track">0</property>
   <property name="b_track">17</property>
   <property name="mlt_service">mix</property>
   <property name="always_active">1</property>
   <property name="combine">1</property>
   <property name="internal_added">237</property>
  </transition>
  <transition id="transition17">
   <property name="a_track">0</property>
   <property name="b_track">18</property>
   <property name="mlt_service">mix</property>
   <property name="always_active">1</property>
   <property name="combine">1</property>
   <property name="internal_added">237</property>
  </transition>
  <transition id="transition18">
   <property name="a_track">0</property>
   <property name="b_track">19</property>
   <property name="mlt_service">mix</property>
   <property name="always_active">1</property>
   <property name="combine">1</property>
   <property name="internal_added">237</property>
  </transition>
  <transition id="transition19">
   <property name="a_track">0</property>
   <property name="b_track">20</property>
   <property name="mlt_service">mix</property>
   <property name="always_active">1</property>
   <property name="combine">1</property>
   <property name="internal_added">237</property>
  </transition>
  <transition id="transition20">
   <property name="a_track">0</property>
   <property name="b_track">21</property>
   <property name="mlt_service">mix</property>
   <property name="always_active">1</property>
   <property name="combine">1</property>
   <property name="internal_added">237</property>
  </transition>
  <transition id="transition21">
   <property name="a_track">0</property>
   <property name="b_track">22</property>
   <property name="mlt_service">mix</property>
   <property name="always_active">1</property>
   <property name="combine">1</property>
   <property name="internal_added">237</property>
  </transition>
  <transition id="transition22">
   <property name="a_track">0</property>
   <property name="b_track">23</property>
   <property name="mlt_service">mix</property>
   <property name="always_active">1</property>
   <property name="combine">1</property>
   <property name="internal_added">237</property>
  </transition>
  <transition id="transition23">
   <property name="a_track">0</property>
   <property name="b_track">24</property>
   <property name="mlt_service">mix</property>
   <property name="always_active">1</property>
   <property name="combine">1</property>
   <property name="internal_added">237</property>
  </transition>
  <transition id="transition25">
   <property name="a_track">0</property>
   <property name="b_track">3</property>
   <property name="compositing">0</property>
   <property name="distort">0</property>
   <property name="mlt_service">qtblend</property>
   <property name="always_active">1</property>
   <property name="internal_added">237</property>
  </transition>
  <transition id="transition26">
   <property name="a_track">0</property>
   <property name="b_track">4</property>
   <property name="compositing">0</property>
   <property name="distort">0</property>
   <property name="mlt_service">qtblend</property>
   <property name="always_active">1</property>
   <property name="internal_added">237</property>
  </transition>
  <transition id="transition27">
   <property name="a_track">0</property>
   <property name="b_track">5</property>
   <property name="compositing">0</property>
   <property name="distort">0</property>
   <property name="mlt_service">qtblend</property>
   <property name="always_active">1</property>
   <property name="internal_added">237</property>
  </transition>
  <transition id="transition28">
   <property name="a_track">0</property>
   <property name="b_track">6</property>
   <property name="compositing">0</property>
   <property name="distort">0</property>
   <property name="mlt_service">qtblend</property>
   <property name="always_active">1</property>
   <property name="internal_added">237</property>
  </transition>
  <transition id="transition29">
   <property name="a_track">0</property>
   <property name="b_track">7</property>
   <property name="compositing">0</property>
   <property name="distort">0</property>
   <property name="mlt_service">qtblend</property>
   <property name="always_active">1</property>
   <property name="internal_added">237</property>
  </transition>
  <transition id="transition30">
   <property name="a_track">0</property>
   <property name="b_track">8</property>
   <property name="compositing">0</property>
   <property name="distort">0</property>
   <property name="mlt_service">qtblend</property>
   <property name="always_active">1</property>
   <property name="internal_added">237</property>
  </transition>
  <transition id="transition31">
   <property name="a_track">0</property>
   <property name="b_track">9</property>
   <property name="compositing">0</property>
   <property name="distort">0</property>
   <property name="mlt_service">qtblend</property>
   <property name="always_active">1</property>
   <property name="internal_added">237</property>
  </transition>
  <transition id="transition32">
   <property name="a_track">0</property>
   <property name="b_track">10</property>
   <property name="compositing">0</property>
   <property name="distort">0</property>
   <property name="mlt_service">qtblend</property>
   <property name="always_active">1</property>
   <property name="internal_added">237</property>
  </transition>
  <transition id="transition33">
   <property name="a_track">0</property>
   <property name="b_track">11</property>
   <property name="compositing">0</property>
   <property name="distort">0</property>
   <property name="mlt_service">qtblend</property>
   <property name="always_active">1</property>
   <property name="internal_added">237</property>
  </transition>
  <transition id="transition34">
   <property name="a_track">0</property>
   <property name="b_track">12</property>
   <property name="compositing">0</property>
   <property name="distort">0</property>
   <property name="mlt_service">qtblend</property>
   <property name="always_active">1</property>
   <property name="internal_added">237</property>
  </transition>
  <transition id="transition35">
   <property name="a_track">0</property>
   <property name="b_track">13</property>
   <property name="compositing">0</property>
   <property name="distort">0</property>
   <property name="mlt_service">qtblend</property>
   <property name="always_active">1</property>
   <property name="internal_added">237</property>
  </transition>
  <transition id="transition36">
   <property name="a_track">0</property>
   <property name="b_track">14</property>
   <property name="compositing">0</property>
   <property name="distort">0</property>
   <property name="mlt_service">qtblend</property>
   <property name="always_active">1</property>
   <property name="internal_added">237</property>
  </transition>
  <transition id="transition37">
   <property name="a_track">0</property>
   <property name="b_track">15</property>
   <property name="compositing">0</property>
   <property name="distort">0</property>
   <property name="mlt_service">qtblend</property>
   <property name="always_active">1</property>
   <property name="internal_added">237</property>
  </transition>
  <transition id="transition38">
   <property name="a_track">0</property>
   <property name="b_track">16</property>
   <property name="compositing">0</property>
   <property name="distort">0</property>
   <property name="mlt_service">qtblend</property>
   <property name="always_active">1</property>
   <property name="internal_added">237</property>
  </transition>
  <transition id="transition39">
   <property name="a_track">0</property>
   <property name="b_track">17</property>
   <property name="compositing">0</property>
   <property name="distort">0</property>
   <property name="mlt_service">qtblend</property>
   <property name="always_active">1</property>
   <property name="internal_added">237</property>
  </transition>
  <transition id="transition40">
   <property name="a_track">0</property>
   <property name="b_track">18</property>
   <property name="compositing">0</property>
   <property name="distort">0</property>
   <property name="mlt_service">qtblend</property>
   <property name="always_active">1</property>
   <property name="internal_added">237</property>
  </transition>
  <transition id="transition41">
   <property name="a_track">0</property>
   <property name="b_track">19</property>
   <property name="compositing">0</property>
   <property name="distort">0</property>
   <property name="mlt_service">qtblend</property>
   <property name="always_active">1</property>
   <property name="internal_added">237</property>
  </transition>
  <transition id="transition42">
   <property name="a_track">0</property>
   <property name="b_track">20</property>
   <property name="compositing">0</property>
   <property name="distort">0</property>
   <property name="mlt_service">qtblend</property>
   <property name="always_active">1</property>
   <property name="internal_added">237</property>
  </transition>
  <transition id="transition43">
   <property name="a_track">0</property>
   <property name="b_track">21</property>
   <property name="compositing">0</property>
   <property name="distort">0</property>
   <property name="mlt_service">qtblend</property>
   <property name="always_active">1</property>
   <property name="internal_added">237</property>
  </transition>
  <transition id="transition44">
   <property name="a_track">0</property>
   <property name="b_track">22</property>
   <property name="compositing">0</property>
   <property name="distort">0</property>
   <property name="mlt_service">qtblend</property>
   <property name="always_active">1</property>
   <property name="internal_added">237</property>
  </transition>
  <transition id="transition45">
   <property name="a_track">0</property>
   <property name="b_track">23</property>
   <property name="compositing">0</property>
   <property name="distort">0</property>
   <property name="mlt_service">qtblend</property>
   <property name="always_active">1</property>
   <property name="internal_added">237</property>
  </transition>
  <transition id="transition46">
   <property name="a_track">0</property>
   <property name="b_track">24</property>
   <property name="compositing">0</property>
   <property name="distort">0</property>
   <property name="mlt_service">qtblend</property>
   <property name="always_active">1</property>
   <property name="internal_added">237</property>
  </transition>
 </tractor>
</mlt>
