<?xml version='1.0' encoding='utf-8'?>
<mlt title="Anonymous Submission" LC_NUMERIC="fr_FR.UTF-8" producer="main bin" version="6.12.0" root="/home/bordun/Clip01_SnapshatAuHarem/Video">
 <profile frame_rate_num="24" sample_aspect_num="1" display_aspect_den="9" colorspace="709" progressive="1" description="HD 1080p 24 fps" display_aspect_num="16" frame_rate_den="1" width="1920" height="1080" sample_aspect_den="1"/>
 <producer title="Anonymous Submission" id="1" in="0" out="4287">
  <property name="length">00:02:58:16</property>
  <property name="eof">pause</property>
  <property name="resource">/home/bordun/Clip01_SnapshatAuHarem/Audio/Snapchat_au_Harem.flac</property>
  <property name="audio_index">0</property>
  <property name="video_index">-1</property>
  <property name="mute_on_pause">1</property>
  <property name="mlt_service">avformat-novalidate</property>
  <property name="meta.media.nb_streams">1</property>
  <property name="meta.media.0.stream.type">audio</property>
  <property name="meta.media.0.codec.sample_fmt">s16</property>
  <property name="meta.media.0.codec.sample_rate">48000</property>
  <property name="meta.media.0.codec.channels">2</property>
  <property name="meta.media.0.codec.name">flac</property>
  <property name="meta.media.0.codec.long_name">FLAC (Free Lossless Audio Codec)</property>
  <property name="meta.media.0.codec.bit_rate">0</property>
  <property name="seekable">1</property>
  <property name="kdenlive:folderid">-1</property>
  <property name="kdenlive:file_size">16614188</property>
  <property name="kdenlive:file_hash">115a31e39ebfe7c973cc2dc7b9f7cbf8</property>
  <property name="global_feed">1</property>
 </producer>
 <producer title="Anonymous Submission" id="4" in="0" out="3211">
  <property name="length">00:02:13:20</property>
  <property name="eof">pause</property>
  <property name="resource">/media/bordun/Odile/SnapshatAuHarem/etalo/CAM2_2017-11-25_0055_C0003.mov</property>
  <property name="audio_index">2</property>
  <property name="video_index">0</property>
  <property name="mute_on_pause">1</property>
  <property name="mlt_service">avformat-novalidate</property>
  <property name="meta.media.nb_streams">2</property>
  <property name="meta.media.1.stream.type">video</property>
  <property name="meta.media.1.stream.frame_rate">24</property>
  <property name="meta.media.1.stream.sample_aspect_ratio">1</property>
  <property name="meta.media.1.codec.width">1920</property>
  <property name="meta.media.1.codec.height">1080</property>
  <property name="meta.media.1.codec.rotate">0</property>
  <property name="meta.media.1.codec.frame_rate">2400</property>
  <property name="meta.media.1.codec.pix_fmt">yuv422p10le</property>
  <property name="meta.media.1.codec.sample_aspect_ratio">0</property>
  <property name="meta.media.1.codec.colorspace">709</property>
  <property name="meta.media.1.codec.color_trc">1</property>
  <property name="meta.media.1.codec.name">prores</property>
  <property name="meta.media.1.codec.long_name">ProRes</property>
  <property name="meta.media.1.codec.bit_rate">176139229</property>
  <property name="meta.attr.1.stream.creation_time.markup">2017-11-25T00:55:39.000000Z</property>
  <property name="meta.attr.1.stream.language.markup">eng</property>
  <property name="meta.attr.1.stream.handler_name.markup">Apple Alias Data Handler</property>
  <property name="meta.attr.1.stream.encoder.markup">Apple ProRes 422 HQ</property>
  <property name="meta.attr.1.stream.timecode.markup">00:55:39:04</property>
  <property name="meta.media.2.stream.type">audio</property>
  <property name="meta.media.2.codec.sample_fmt">s32</property>
  <property name="meta.media.2.codec.sample_rate">48000</property>
  <property name="meta.media.2.codec.channels">2</property>
  <property name="meta.media.2.codec.name">pcm_s24le</property>
  <property name="meta.media.2.codec.long_name">PCM signed 24-bit little-endian</property>
  <property name="meta.media.2.codec.bit_rate">2304000</property>
  <property name="meta.attr.2.stream.creation_time.markup">2017-11-25T00:55:39.000000Z</property>
  <property name="meta.attr.2.stream.language.markup">eng</property>
  <property name="meta.attr.2.stream.handler_name.markup">Apple Alias Data Handler</property>
  <property name="meta.attr.2.stream.timecode.markup">00:55:39:04</property>
  <property name="meta.attr.com.apple.proapps.manufacturer.markup">Blackmagic Design</property>
  <property name="meta.attr.com.apple.proapps.cameraName.markup">CAM2</property>
  <property name="meta.attr.com.apple.proapps.isGood.markup">0</property>
  <property name="meta.attr.com.apple.proapps.customgamma.markup">com.blackmagic-design.cinemacamera.filmlog</property>
  <property name="meta.attr.com.blackmagic-design.cinemacamera.uuid.markup">18E5E00548F94923B646613A73C01B56</property>
  <property name="meta.attr.creation_time.markup">2017-11-25T00:55:39.000000Z</property>
  <property name="meta.attr.timecode.markup">00:55:39:04</property>
  <property name="seekable">1</property>
  <property name="meta.media.sample_aspect_num">1</property>
  <property name="meta.media.sample_aspect_den">1</property>
  <property name="aspect_ratio">1</property>
  <property name="kdenlive:folderid">-1</property>
  <property name="kdenlive:file_size">2985972857</property>
  <property name="kdenlive:file_hash">74db02cfa5f4e00ec8cbf3778f7bf9ee</property>
  <property name="kdenlive:proxy">-</property>
  <property name="proxy_out">3211</property>
  <property name="kdenlive:originalurl">src/04-06_Couplet2/CAM2_2017-11-25_0055_C0003.mov</property>
  <property name="global_feed">1</property>
  <property name="kdenlive:meta.media.nb_streams">3</property>
  <property name="kdenlive:meta.media.1.stream.type">video</property>
  <property name="kdenlive:meta.media.1.stream.frame_rate">24</property>
  <property name="kdenlive:meta.media.1.stream.sample_aspect_ratio">1</property>
  <property name="kdenlive:meta.media.1.codec.width">1920</property>
  <property name="kdenlive:meta.media.1.codec.height">1080</property>
  <property name="kdenlive:meta.media.1.codec.rotate">0</property>
  <property name="kdenlive:meta.media.1.codec.frame_rate">2400</property>
  <property name="kdenlive:meta.media.1.codec.pix_fmt">yuv422p10le</property>
  <property name="kdenlive:meta.media.1.codec.sample_aspect_ratio">0</property>
  <property name="kdenlive:meta.media.1.codec.colorspace">709</property>
  <property name="kdenlive:meta.media.1.codec.color_trc">1</property>
  <property name="kdenlive:meta.media.1.codec.name">prores</property>
  <property name="kdenlive:meta.media.1.codec.long_name">ProRes</property>
  <property name="kdenlive:meta.media.1.codec.bit_rate">176139229</property>
  <property name="kdenlive:meta.attr.1.stream.creation_time.markup">2017-11-25T00:55:39.000000Z</property>
  <property name="kdenlive:meta.attr.1.stream.language.markup">eng</property>
  <property name="kdenlive:meta.attr.1.stream.handler_name.markup">Apple Alias Data Handler</property>
  <property name="kdenlive:meta.attr.1.stream.encoder.markup">Apple ProRes 422 HQ</property>
  <property name="kdenlive:meta.attr.1.stream.timecode.markup">00:55:39:04</property>
  <property name="kdenlive:meta.media.2.stream.type">audio</property>
  <property name="kdenlive:meta.media.2.codec.sample_fmt">s32</property>
  <property name="kdenlive:meta.media.2.codec.sample_rate">48000</property>
  <property name="kdenlive:meta.media.2.codec.channels">2</property>
  <property name="kdenlive:meta.media.2.codec.name">pcm_s24le</property>
  <property name="kdenlive:meta.media.2.codec.long_name">PCM signed 24-bit little-endian</property>
  <property name="kdenlive:meta.media.2.codec.bit_rate">2304000</property>
  <property name="kdenlive:meta.attr.2.stream.creation_time.markup">2017-11-25T00:55:39.000000Z</property>
  <property name="kdenlive:meta.attr.2.stream.language.markup">eng</property>
  <property name="kdenlive:meta.attr.2.stream.handler_name.markup">Apple Alias Data Handler</property>
  <property name="kdenlive:meta.attr.2.stream.timecode.markup">00:55:39:04</property>
  <property name="kdenlive:meta.attr.com.apple.proapps.manufacturer.markup">Blackmagic Design</property>
  <property name="kdenlive:meta.attr.com.apple.proapps.cameraName.markup">CAM2</property>
  <property name="kdenlive:meta.attr.com.apple.proapps.isGood.markup">0</property>
  <property name="kdenlive:meta.attr.com.apple.proapps.customgamma.markup">com.blackmagic-design.cinemacamera.filmlog</property>
  <property name="kdenlive:meta.attr.com.blackmagic-design.cinemacamera.uuid.markup">18E5E00548F94923B646613A73C01B56</property>
  <property name="kdenlive:meta.attr.creation_time.markup">2017-11-25T00:55:39.000000Z</property>
  <property name="kdenlive:meta.attr.timecode.markup">00:55:39:04</property>
  <property name="kdenlive:meta.media.sample_aspect_num">1</property>
  <property name="kdenlive:meta.media.sample_aspect_den">1</property>
  <property name="kdenlive:meta.media.frame_rate_num">24</property>
  <property name="kdenlive:meta.media.frame_rate_den">1</property>
  <property name="kdenlive:meta.media.colorspace">709</property>
  <property name="kdenlive:meta.media.color_trc">1</property>
  <property name="kdenlive:meta.media.width">1920</property>
  <property name="kdenlive:meta.media.height">1080</property>
  <property name="kdenlive:meta.media.top_field_first">0</property>
  <property name="kdenlive:meta.media.progressive">1</property>
  <property name="meta.media.frame_rate_num">24</property>
  <property name="meta.media.frame_rate_den">1</property>
  <property name="meta.media.colorspace">709</property>
  <property name="meta.media.color_trc">1</property>
  <property name="meta.media.width">1920</property>
  <property name="meta.media.height">1080</property>
  <property name="meta.media.top_field_first">0</property>
  <property name="meta.media.progressive">1</property>
  <property name="meta.media.0.stream.type">video</property>
  <property name="meta.media.0.stream.frame_rate">24</property>
  <property name="meta.media.0.stream.sample_aspect_ratio">1</property>
  <property name="meta.media.0.codec.width">1920</property>
  <property name="meta.media.0.codec.height">1080</property>
  <property name="meta.media.0.codec.rotate">0</property>
  <property name="meta.media.0.codec.frame_rate">12288</property>
  <property name="meta.media.0.codec.pix_fmt">yuv422p10le</property>
  <property name="meta.media.0.codec.sample_aspect_ratio">0</property>
  <property name="meta.media.0.codec.colorspace">709</property>
  <property name="meta.media.0.codec.color_trc">1</property>
  <property name="meta.media.0.codec.name">dnxhd</property>
  <property name="meta.media.0.codec.long_name">VC3/DNxHD</property>
  <property name="meta.media.0.codec.bit_rate">176160768</property>
  <property name="meta.attr.0.stream.language.markup">eng</property>
  <property name="meta.attr.0.stream.handler_name.markup">Core Media Data Handler</property>
  <property name="meta.attr.0.stream.timecode.markup">00:55:39:04</property>
  <property name="meta.attr.major_brand.markup">qt  </property>
  <property name="meta.attr.minor_version.markup">512</property>
  <property name="meta.attr.compatible_brands.markup">qt  </property>
  <property name="meta.attr.encoder.markup">Lavf57.25.100</property>
 </producer>
 <producer title="Anonymous Submission" id="3" in="0" out="2486">
  <property name="length">00:01:43:15</property>
  <property name="eof">pause</property>
  <property name="resource">/media/bordun/Odile/SnapshatAuHarem/etalo/CAM2_2017-11-25_0053_C0002.mov</property>
  <property name="audio_index">2</property>
  <property name="video_index">0</property>
  <property name="mute_on_pause">1</property>
  <property name="mlt_service">avformat-novalidate</property>
  <property name="meta.media.nb_streams">2</property>
  <property name="meta.media.1.stream.type">video</property>
  <property name="meta.media.1.stream.frame_rate">24</property>
  <property name="meta.media.1.stream.sample_aspect_ratio">1</property>
  <property name="meta.media.1.codec.width">1920</property>
  <property name="meta.media.1.codec.height">1080</property>
  <property name="meta.media.1.codec.rotate">0</property>
  <property name="meta.media.1.codec.frame_rate">2400</property>
  <property name="meta.media.1.codec.pix_fmt">yuv422p10le</property>
  <property name="meta.media.1.codec.sample_aspect_ratio">0</property>
  <property name="meta.media.1.codec.colorspace">709</property>
  <property name="meta.media.1.codec.color_trc">1</property>
  <property name="meta.media.1.codec.name">prores</property>
  <property name="meta.media.1.codec.long_name">ProRes</property>
  <property name="meta.media.1.codec.bit_rate">176140925</property>
  <property name="meta.attr.1.stream.creation_time.markup">2017-11-25T00:53:25.000000Z</property>
  <property name="meta.attr.1.stream.language.markup">eng</property>
  <property name="meta.attr.1.stream.handler_name.markup">Apple Alias Data Handler</property>
  <property name="meta.attr.1.stream.encoder.markup">Apple ProRes 422 HQ</property>
  <property name="meta.attr.1.stream.timecode.markup">00:53:25:03</property>
  <property name="meta.media.2.stream.type">audio</property>
  <property name="meta.media.2.codec.sample_fmt">s32</property>
  <property name="meta.media.2.codec.sample_rate">48000</property>
  <property name="meta.media.2.codec.channels">2</property>
  <property name="meta.media.2.codec.name">pcm_s24le</property>
  <property name="meta.media.2.codec.long_name">PCM signed 24-bit little-endian</property>
  <property name="meta.media.2.codec.bit_rate">2304000</property>
  <property name="meta.attr.2.stream.creation_time.markup">2017-11-25T00:53:25.000000Z</property>
  <property name="meta.attr.2.stream.language.markup">eng</property>
  <property name="meta.attr.2.stream.handler_name.markup">Apple Alias Data Handler</property>
  <property name="meta.attr.2.stream.timecode.markup">00:53:25:03</property>
  <property name="meta.attr.com.apple.proapps.manufacturer.markup">Blackmagic Design</property>
  <property name="meta.attr.com.apple.proapps.cameraName.markup">CAM2</property>
  <property name="meta.attr.com.apple.proapps.isGood.markup">0</property>
  <property name="meta.attr.com.apple.proapps.customgamma.markup">com.blackmagic-design.cinemacamera.filmlog</property>
  <property name="meta.attr.com.blackmagic-design.cinemacamera.uuid.markup">18E5E00548F94923B646613A73C01B56</property>
  <property name="meta.attr.creation_time.markup">2017-11-25T00:53:25.000000Z</property>
  <property name="meta.attr.timecode.markup">00:53:25:03</property>
  <property name="seekable">1</property>
  <property name="meta.media.sample_aspect_num">1</property>
  <property name="meta.media.sample_aspect_den">1</property>
  <property name="aspect_ratio">1</property>
  <property name="kdenlive:folderid">-1</property>
  <property name="kdenlive:file_size">2311991689</property>
  <property name="kdenlive:file_hash">c5f1ea41def1623e65612b3f6ed4ed09</property>
  <property name="kdenlive:proxy">-</property>
  <property name="proxy_out">2486</property>
  <property name="kdenlive:originalurl">src/04-06_Couplet2/CAM2_2017-11-25_0053_C0002.mov</property>
  <property name="global_feed">1</property>
  <property name="kdenlive:meta.media.nb_streams">3</property>
  <property name="kdenlive:meta.media.1.stream.type">video</property>
  <property name="kdenlive:meta.media.1.stream.frame_rate">24</property>
  <property name="kdenlive:meta.media.1.stream.sample_aspect_ratio">1</property>
  <property name="kdenlive:meta.media.1.codec.width">1920</property>
  <property name="kdenlive:meta.media.1.codec.height">1080</property>
  <property name="kdenlive:meta.media.1.codec.rotate">0</property>
  <property name="kdenlive:meta.media.1.codec.frame_rate">2400</property>
  <property name="kdenlive:meta.media.1.codec.pix_fmt">yuv422p10le</property>
  <property name="kdenlive:meta.media.1.codec.sample_aspect_ratio">0</property>
  <property name="kdenlive:meta.media.1.codec.colorspace">709</property>
  <property name="kdenlive:meta.media.1.codec.color_trc">1</property>
  <property name="kdenlive:meta.media.1.codec.name">prores</property>
  <property name="kdenlive:meta.media.1.codec.long_name">ProRes</property>
  <property name="kdenlive:meta.media.1.codec.bit_rate">176140925</property>
  <property name="kdenlive:meta.attr.1.stream.creation_time.markup">2017-11-25T00:53:25.000000Z</property>
  <property name="kdenlive:meta.attr.1.stream.language.markup">eng</property>
  <property name="kdenlive:meta.attr.1.stream.handler_name.markup">Apple Alias Data Handler</property>
  <property name="kdenlive:meta.attr.1.stream.encoder.markup">Apple ProRes 422 HQ</property>
  <property name="kdenlive:meta.attr.1.stream.timecode.markup">00:53:25:03</property>
  <property name="kdenlive:meta.media.2.stream.type">audio</property>
  <property name="kdenlive:meta.media.2.codec.sample_fmt">s32</property>
  <property name="kdenlive:meta.media.2.codec.sample_rate">48000</property>
  <property name="kdenlive:meta.media.2.codec.channels">2</property>
  <property name="kdenlive:meta.media.2.codec.name">pcm_s24le</property>
  <property name="kdenlive:meta.media.2.codec.long_name">PCM signed 24-bit little-endian</property>
  <property name="kdenlive:meta.media.2.codec.bit_rate">2304000</property>
  <property name="kdenlive:meta.attr.2.stream.creation_time.markup">2017-11-25T00:53:25.000000Z</property>
  <property name="kdenlive:meta.attr.2.stream.language.markup">eng</property>
  <property name="kdenlive:meta.attr.2.stream.handler_name.markup">Apple Alias Data Handler</property>
  <property name="kdenlive:meta.attr.2.stream.timecode.markup">00:53:25:03</property>
  <property name="kdenlive:meta.attr.com.apple.proapps.manufacturer.markup">Blackmagic Design</property>
  <property name="kdenlive:meta.attr.com.apple.proapps.cameraName.markup">CAM2</property>
  <property name="kdenlive:meta.attr.com.apple.proapps.isGood.markup">0</property>
  <property name="kdenlive:meta.attr.com.apple.proapps.customgamma.markup">com.blackmagic-design.cinemacamera.filmlog</property>
  <property name="kdenlive:meta.attr.com.blackmagic-design.cinemacamera.uuid.markup">18E5E00548F94923B646613A73C01B56</property>
  <property name="kdenlive:meta.attr.creation_time.markup">2017-11-25T00:53:25.000000Z</property>
  <property name="kdenlive:meta.attr.timecode.markup">00:53:25:03</property>
  <property name="kdenlive:meta.media.sample_aspect_num">1</property>
  <property name="kdenlive:meta.media.sample_aspect_den">1</property>
  <property name="kdenlive:meta.media.frame_rate_num">24</property>
  <property name="kdenlive:meta.media.frame_rate_den">1</property>
  <property name="kdenlive:meta.media.colorspace">709</property>
  <property name="kdenlive:meta.media.color_trc">1</property>
  <property name="kdenlive:meta.media.width">1920</property>
  <property name="kdenlive:meta.media.height">1080</property>
  <property name="kdenlive:meta.media.top_field_first">0</property>
  <property name="kdenlive:meta.media.progressive">1</property>
  <property name="meta.media.frame_rate_num">24</property>
  <property name="meta.media.frame_rate_den">1</property>
  <property name="meta.media.colorspace">709</property>
  <property name="meta.media.color_trc">1</property>
  <property name="meta.media.width">1920</property>
  <property name="meta.media.height">1080</property>
  <property name="meta.media.top_field_first">0</property>
  <property name="meta.media.progressive">1</property>
  <property name="meta.media.0.stream.type">video</property>
  <property name="meta.media.0.stream.frame_rate">24</property>
  <property name="meta.media.0.stream.sample_aspect_ratio">1</property>
  <property name="meta.media.0.codec.width">1920</property>
  <property name="meta.media.0.codec.height">1080</property>
  <property name="meta.media.0.codec.rotate">0</property>
  <property name="meta.media.0.codec.frame_rate">12288</property>
  <property name="meta.media.0.codec.pix_fmt">yuv422p10le</property>
  <property name="meta.media.0.codec.sample_aspect_ratio">0</property>
  <property name="meta.media.0.codec.colorspace">709</property>
  <property name="meta.media.0.codec.color_trc">1</property>
  <property name="meta.media.0.codec.name">dnxhd</property>
  <property name="meta.media.0.codec.long_name">VC3/DNxHD</property>
  <property name="meta.media.0.codec.bit_rate">176160768</property>
  <property name="meta.attr.0.stream.language.markup">eng</property>
  <property name="meta.attr.0.stream.handler_name.markup">Core Media Data Handler</property>
  <property name="meta.attr.0.stream.timecode.markup">00:53:25:03</property>
  <property name="meta.attr.major_brand.markup">qt  </property>
  <property name="meta.attr.minor_version.markup">512</property>
  <property name="meta.attr.compatible_brands.markup">qt  </property>
  <property name="meta.attr.encoder.markup">Lavf57.25.100</property>
 </producer>
 <producer title="Anonymous Submission" id="2" in="0" out="1833">
  <property name="length">00:01:16:10</property>
  <property name="eof">pause</property>
  <property name="resource">/media/bordun/Odile/SnapshatAuHarem/etalo/CAM2_2017-11-25_0049_C0001.mov</property>
  <property name="audio_index">2</property>
  <property name="video_index">0</property>
  <property name="mute_on_pause">1</property>
  <property name="mlt_service">avformat-novalidate</property>
  <property name="meta.media.nb_streams">2</property>
  <property name="meta.media.1.stream.type">video</property>
  <property name="meta.media.1.stream.frame_rate">24</property>
  <property name="meta.media.1.stream.sample_aspect_ratio">1</property>
  <property name="meta.media.1.codec.width">1920</property>
  <property name="meta.media.1.codec.height">1080</property>
  <property name="meta.media.1.codec.rotate">0</property>
  <property name="meta.media.1.codec.frame_rate">2400</property>
  <property name="meta.media.1.codec.pix_fmt">yuv422p10le</property>
  <property name="meta.media.1.codec.sample_aspect_ratio">0</property>
  <property name="meta.media.1.codec.colorspace">709</property>
  <property name="meta.media.1.codec.color_trc">1</property>
  <property name="meta.media.1.codec.name">prores</property>
  <property name="meta.media.1.codec.long_name">ProRes</property>
  <property name="meta.media.1.codec.bit_rate">176141422</property>
  <property name="meta.attr.1.stream.creation_time.markup">2017-11-25T00:49:37.000000Z</property>
  <property name="meta.attr.1.stream.language.markup">eng</property>
  <property name="meta.attr.1.stream.handler_name.markup">Apple Alias Data Handler</property>
  <property name="meta.attr.1.stream.encoder.markup">Apple ProRes 422 HQ</property>
  <property name="meta.attr.1.stream.timecode.markup">00:49:37:06</property>
  <property name="meta.media.2.stream.type">audio</property>
  <property name="meta.media.2.codec.sample_fmt">s32</property>
  <property name="meta.media.2.codec.sample_rate">48000</property>
  <property name="meta.media.2.codec.channels">2</property>
  <property name="meta.media.2.codec.name">pcm_s24le</property>
  <property name="meta.media.2.codec.long_name">PCM signed 24-bit little-endian</property>
  <property name="meta.media.2.codec.bit_rate">2304000</property>
  <property name="meta.attr.2.stream.creation_time.markup">2017-11-25T00:49:37.000000Z</property>
  <property name="meta.attr.2.stream.language.markup">eng</property>
  <property name="meta.attr.2.stream.handler_name.markup">Apple Alias Data Handler</property>
  <property name="meta.attr.2.stream.timecode.markup">00:49:37:06</property>
  <property name="meta.attr.com.apple.proapps.manufacturer.markup">Blackmagic Design</property>
  <property name="meta.attr.com.apple.proapps.cameraName.markup">CAM2</property>
  <property name="meta.attr.com.apple.proapps.isGood.markup">0</property>
  <property name="meta.attr.com.apple.proapps.customgamma.markup">com.blackmagic-design.cinemacamera.filmlog</property>
  <property name="meta.attr.com.blackmagic-design.cinemacamera.uuid.markup">18E5E00548F94923B646613A73C01B56</property>
  <property name="meta.attr.creation_time.markup">2017-11-25T00:49:37.000000Z</property>
  <property name="meta.attr.timecode.markup">00:49:37:06</property>
  <property name="seekable">1</property>
  <property name="meta.media.sample_aspect_num">1</property>
  <property name="meta.media.sample_aspect_den">1</property>
  <property name="aspect_ratio">1</property>
  <property name="kdenlive:folderid">-1</property>
  <property name="kdenlive:file_size">1704948401</property>
  <property name="kdenlive:file_hash">5d92b72a72e9fb2f855cb48e487e5833</property>
  <property name="kdenlive:proxy">-</property>
  <property name="proxy_out">1833</property>
  <property name="kdenlive:originalurl">src/04-06_Couplet2/CAM2_2017-11-25_0049_C0001.mov</property>
  <property name="global_feed">1</property>
  <property name="kdenlive:meta.media.nb_streams">3</property>
  <property name="kdenlive:meta.media.1.stream.type">video</property>
  <property name="kdenlive:meta.media.1.stream.frame_rate">24</property>
  <property name="kdenlive:meta.media.1.stream.sample_aspect_ratio">1</property>
  <property name="kdenlive:meta.media.1.codec.width">1920</property>
  <property name="kdenlive:meta.media.1.codec.height">1080</property>
  <property name="kdenlive:meta.media.1.codec.rotate">0</property>
  <property name="kdenlive:meta.media.1.codec.frame_rate">2400</property>
  <property name="kdenlive:meta.media.1.codec.pix_fmt">yuv422p10le</property>
  <property name="kdenlive:meta.media.1.codec.sample_aspect_ratio">0</property>
  <property name="kdenlive:meta.media.1.codec.colorspace">709</property>
  <property name="kdenlive:meta.media.1.codec.color_trc">1</property>
  <property name="kdenlive:meta.media.1.codec.name">prores</property>
  <property name="kdenlive:meta.media.1.codec.long_name">ProRes</property>
  <property name="kdenlive:meta.media.1.codec.bit_rate">176141422</property>
  <property name="kdenlive:meta.attr.1.stream.creation_time.markup">2017-11-25T00:49:37.000000Z</property>
  <property name="kdenlive:meta.attr.1.stream.language.markup">eng</property>
  <property name="kdenlive:meta.attr.1.stream.handler_name.markup">Apple Alias Data Handler</property>
  <property name="kdenlive:meta.attr.1.stream.encoder.markup">Apple ProRes 422 HQ</property>
  <property name="kdenlive:meta.attr.1.stream.timecode.markup">00:49:37:06</property>
  <property name="kdenlive:meta.media.2.stream.type">audio</property>
  <property name="kdenlive:meta.media.2.codec.sample_fmt">s32</property>
  <property name="kdenlive:meta.media.2.codec.sample_rate">48000</property>
  <property name="kdenlive:meta.media.2.codec.channels">2</property>
  <property name="kdenlive:meta.media.2.codec.name">pcm_s24le</property>
  <property name="kdenlive:meta.media.2.codec.long_name">PCM signed 24-bit little-endian</property>
  <property name="kdenlive:meta.media.2.codec.bit_rate">2304000</property>
  <property name="kdenlive:meta.attr.2.stream.creation_time.markup">2017-11-25T00:49:37.000000Z</property>
  <property name="kdenlive:meta.attr.2.stream.language.markup">eng</property>
  <property name="kdenlive:meta.attr.2.stream.handler_name.markup">Apple Alias Data Handler</property>
  <property name="kdenlive:meta.attr.2.stream.timecode.markup">00:49:37:06</property>
  <property name="kdenlive:meta.attr.com.apple.proapps.manufacturer.markup">Blackmagic Design</property>
  <property name="kdenlive:meta.attr.com.apple.proapps.cameraName.markup">CAM2</property>
  <property name="kdenlive:meta.attr.com.apple.proapps.isGood.markup">0</property>
  <property name="kdenlive:meta.attr.com.apple.proapps.customgamma.markup">com.blackmagic-design.cinemacamera.filmlog</property>
  <property name="kdenlive:meta.attr.com.blackmagic-design.cinemacamera.uuid.markup">18E5E00548F94923B646613A73C01B56</property>
  <property name="kdenlive:meta.attr.creation_time.markup">2017-11-25T00:49:37.000000Z</property>
  <property name="kdenlive:meta.attr.timecode.markup">00:49:37:06</property>
  <property name="kdenlive:meta.media.sample_aspect_num">1</property>
  <property name="kdenlive:meta.media.sample_aspect_den">1</property>
  <property name="kdenlive:meta.media.frame_rate_num">24</property>
  <property name="kdenlive:meta.media.frame_rate_den">1</property>
  <property name="kdenlive:meta.media.colorspace">709</property>
  <property name="kdenlive:meta.media.color_trc">1</property>
  <property name="kdenlive:meta.media.width">1920</property>
  <property name="kdenlive:meta.media.height">1080</property>
  <property name="kdenlive:meta.media.top_field_first">0</property>
  <property name="kdenlive:meta.media.progressive">1</property>
  <property name="meta.media.frame_rate_num">24</property>
  <property name="meta.media.frame_rate_den">1</property>
  <property name="meta.media.colorspace">709</property>
  <property name="meta.media.color_trc">1</property>
  <property name="meta.media.width">1920</property>
  <property name="meta.media.height">1080</property>
  <property name="meta.media.top_field_first">0</property>
  <property name="meta.media.progressive">1</property>
  <property name="meta.media.0.stream.type">video</property>
  <property name="meta.media.0.stream.frame_rate">24</property>
  <property name="meta.media.0.stream.sample_aspect_ratio">1</property>
  <property name="meta.media.0.codec.width">1920</property>
  <property name="meta.media.0.codec.height">1080</property>
  <property name="meta.media.0.codec.rotate">0</property>
  <property name="meta.media.0.codec.frame_rate">12288</property>
  <property name="meta.media.0.codec.pix_fmt">yuv422p10le</property>
  <property name="meta.media.0.codec.sample_aspect_ratio">0</property>
  <property name="meta.media.0.codec.colorspace">709</property>
  <property name="meta.media.0.codec.color_trc">1</property>
  <property name="meta.media.0.codec.name">dnxhd</property>
  <property name="meta.media.0.codec.long_name">VC3/DNxHD</property>
  <property name="meta.media.0.codec.bit_rate">176160768</property>
  <property name="meta.attr.0.stream.language.markup">eng</property>
  <property name="meta.attr.0.stream.handler_name.markup">Core Media Data Handler</property>
  <property name="meta.attr.0.stream.timecode.markup">00:49:37:06</property>
  <property name="meta.attr.major_brand.markup">qt  </property>
  <property name="meta.attr.minor_version.markup">512</property>
  <property name="meta.attr.compatible_brands.markup">qt  </property>
  <property name="meta.attr.encoder.markup">Lavf57.25.100</property>
 </producer>
 <producer title="Anonymous Submission" id="5" in="0" out="3737">
  <property name="length">00:02:35:18</property>
  <property name="eof">pause</property>
  <property name="resource">/media/bordun/Odile/SnapshatAuHarem/etalo/CAM2_2017-11-25_0058_C0004.mov</property>
  <property name="audio_index">2</property>
  <property name="video_index">0</property>
  <property name="mute_on_pause">1</property>
  <property name="mlt_service">avformat-novalidate</property>
  <property name="meta.media.nb_streams">2</property>
  <property name="meta.media.1.stream.type">video</property>
  <property name="meta.media.1.stream.frame_rate">24</property>
  <property name="meta.media.1.stream.sample_aspect_ratio">1</property>
  <property name="meta.media.1.codec.width">1920</property>
  <property name="meta.media.1.codec.height">1080</property>
  <property name="meta.media.1.codec.rotate">0</property>
  <property name="meta.media.1.codec.frame_rate">2400</property>
  <property name="meta.media.1.codec.pix_fmt">yuv422p10le</property>
  <property name="meta.media.1.codec.sample_aspect_ratio">0</property>
  <property name="meta.media.1.codec.colorspace">709</property>
  <property name="meta.media.1.codec.color_trc">1</property>
  <property name="meta.media.1.codec.name">prores</property>
  <property name="meta.media.1.codec.long_name">ProRes</property>
  <property name="meta.media.1.codec.bit_rate">176138656</property>
  <property name="meta.attr.1.stream.creation_time.markup">2017-11-25T00:58:13.000000Z</property>
  <property name="meta.attr.1.stream.language.markup">eng</property>
  <property name="meta.attr.1.stream.handler_name.markup">Apple Alias Data Handler</property>
  <property name="meta.attr.1.stream.encoder.markup">Apple ProRes 422 HQ</property>
  <property name="meta.attr.1.stream.timecode.markup">00:58:13:00</property>
  <property name="meta.media.2.stream.type">audio</property>
  <property name="meta.media.2.codec.sample_fmt">s32</property>
  <property name="meta.media.2.codec.sample_rate">48000</property>
  <property name="meta.media.2.codec.channels">2</property>
  <property name="meta.media.2.codec.name">pcm_s24le</property>
  <property name="meta.media.2.codec.long_name">PCM signed 24-bit little-endian</property>
  <property name="meta.media.2.codec.bit_rate">2304000</property>
  <property name="meta.attr.2.stream.creation_time.markup">2017-11-25T00:58:13.000000Z</property>
  <property name="meta.attr.2.stream.language.markup">eng</property>
  <property name="meta.attr.2.stream.handler_name.markup">Apple Alias Data Handler</property>
  <property name="meta.attr.2.stream.timecode.markup">00:58:13:00</property>
  <property name="meta.attr.com.apple.proapps.manufacturer.markup">Blackmagic Design</property>
  <property name="meta.attr.com.apple.proapps.cameraName.markup">CAM2</property>
  <property name="meta.attr.com.apple.proapps.isGood.markup">0</property>
  <property name="meta.attr.com.apple.proapps.customgamma.markup">com.blackmagic-design.cinemacamera.filmlog</property>
  <property name="meta.attr.com.blackmagic-design.cinemacamera.uuid.markup">18E5E00548F94923B646613A73C01B56</property>
  <property name="meta.attr.creation_time.markup">2017-11-25T00:58:13.000000Z</property>
  <property name="meta.attr.timecode.markup">00:58:13:00</property>
  <property name="seekable">1</property>
  <property name="meta.media.sample_aspect_num">1</property>
  <property name="meta.media.sample_aspect_den">1</property>
  <property name="aspect_ratio">1</property>
  <property name="kdenlive:folderid">-1</property>
  <property name="kdenlive:file_size">3474956585</property>
  <property name="kdenlive:file_hash">ad22dd8a06e746adef0131909037660a</property>
  <property name="kdenlive:proxy">-</property>
  <property name="proxy_out">3737</property>
  <property name="kdenlive:originalurl">src/04-06_Couplet2/CAM2_2017-11-25_0058_C0004.mov</property>
  <property name="global_feed">1</property>
  <property name="kdenlive:meta.media.nb_streams">3</property>
  <property name="kdenlive:meta.media.1.stream.type">video</property>
  <property name="kdenlive:meta.media.1.stream.frame_rate">24</property>
  <property name="kdenlive:meta.media.1.stream.sample_aspect_ratio">1</property>
  <property name="kdenlive:meta.media.1.codec.width">1920</property>
  <property name="kdenlive:meta.media.1.codec.height">1080</property>
  <property name="kdenlive:meta.media.1.codec.rotate">0</property>
  <property name="kdenlive:meta.media.1.codec.frame_rate">2400</property>
  <property name="kdenlive:meta.media.1.codec.pix_fmt">yuv422p10le</property>
  <property name="kdenlive:meta.media.1.codec.sample_aspect_ratio">0</property>
  <property name="kdenlive:meta.media.1.codec.colorspace">709</property>
  <property name="kdenlive:meta.media.1.codec.color_trc">1</property>
  <property name="kdenlive:meta.media.1.codec.name">prores</property>
  <property name="kdenlive:meta.media.1.codec.long_name">ProRes</property>
  <property name="kdenlive:meta.media.1.codec.bit_rate">176138656</property>
  <property name="kdenlive:meta.attr.1.stream.creation_time.markup">2017-11-25T00:58:13.000000Z</property>
  <property name="kdenlive:meta.attr.1.stream.language.markup">eng</property>
  <property name="kdenlive:meta.attr.1.stream.handler_name.markup">Apple Alias Data Handler</property>
  <property name="kdenlive:meta.attr.1.stream.encoder.markup">Apple ProRes 422 HQ</property>
  <property name="kdenlive:meta.attr.1.stream.timecode.markup">00:58:13:00</property>
  <property name="kdenlive:meta.media.2.stream.type">audio</property>
  <property name="kdenlive:meta.media.2.codec.sample_fmt">s32</property>
  <property name="kdenlive:meta.media.2.codec.sample_rate">48000</property>
  <property name="kdenlive:meta.media.2.codec.channels">2</property>
  <property name="kdenlive:meta.media.2.codec.name">pcm_s24le</property>
  <property name="kdenlive:meta.media.2.codec.long_name">PCM signed 24-bit little-endian</property>
  <property name="kdenlive:meta.media.2.codec.bit_rate">2304000</property>
  <property name="kdenlive:meta.attr.2.stream.creation_time.markup">2017-11-25T00:58:13.000000Z</property>
  <property name="kdenlive:meta.attr.2.stream.language.markup">eng</property>
  <property name="kdenlive:meta.attr.2.stream.handler_name.markup">Apple Alias Data Handler</property>
  <property name="kdenlive:meta.attr.2.stream.timecode.markup">00:58:13:00</property>
  <property name="kdenlive:meta.attr.com.apple.proapps.manufacturer.markup">Blackmagic Design</property>
  <property name="kdenlive:meta.attr.com.apple.proapps.cameraName.markup">CAM2</property>
  <property name="kdenlive:meta.attr.com.apple.proapps.isGood.markup">0</property>
  <property name="kdenlive:meta.attr.com.apple.proapps.customgamma.markup">com.blackmagic-design.cinemacamera.filmlog</property>
  <property name="kdenlive:meta.attr.com.blackmagic-design.cinemacamera.uuid.markup">18E5E00548F94923B646613A73C01B56</property>
  <property name="kdenlive:meta.attr.creation_time.markup">2017-11-25T00:58:13.000000Z</property>
  <property name="kdenlive:meta.attr.timecode.markup">00:58:13:00</property>
  <property name="kdenlive:meta.media.sample_aspect_num">1</property>
  <property name="kdenlive:meta.media.sample_aspect_den">1</property>
  <property name="kdenlive:meta.media.frame_rate_num">24</property>
  <property name="kdenlive:meta.media.frame_rate_den">1</property>
  <property name="kdenlive:meta.media.colorspace">709</property>
  <property name="kdenlive:meta.media.color_trc">1</property>
  <property name="kdenlive:meta.media.width">1920</property>
  <property name="kdenlive:meta.media.height">1080</property>
  <property name="kdenlive:meta.media.top_field_first">0</property>
  <property name="kdenlive:meta.media.progressive">1</property>
  <property name="meta.media.frame_rate_num">24</property>
  <property name="meta.media.frame_rate_den">1</property>
  <property name="meta.media.colorspace">709</property>
  <property name="meta.media.color_trc">1</property>
  <property name="meta.media.width">1920</property>
  <property name="meta.media.height">1080</property>
  <property name="meta.media.top_field_first">0</property>
  <property name="meta.media.progressive">1</property>
  <property name="meta.media.0.stream.type">video</property>
  <property name="meta.media.0.stream.frame_rate">24</property>
  <property name="meta.media.0.stream.sample_aspect_ratio">1</property>
  <property name="meta.media.0.codec.width">1920</property>
  <property name="meta.media.0.codec.height">1080</property>
  <property name="meta.media.0.codec.rotate">0</property>
  <property name="meta.media.0.codec.frame_rate">12288</property>
  <property name="meta.media.0.codec.pix_fmt">yuv422p10le</property>
  <property name="meta.media.0.codec.sample_aspect_ratio">0</property>
  <property name="meta.media.0.codec.colorspace">709</property>
  <property name="meta.media.0.codec.color_trc">1</property>
  <property name="meta.media.0.codec.name">dnxhd</property>
  <property name="meta.media.0.codec.long_name">VC3/DNxHD</property>
  <property name="meta.media.0.codec.bit_rate">176160768</property>
  <property name="meta.attr.0.stream.language.markup">eng</property>
  <property name="meta.attr.0.stream.handler_name.markup">Core Media Data Handler</property>
  <property name="meta.attr.0.stream.timecode.markup">00:58:13:00</property>
  <property name="meta.attr.major_brand.markup">qt  </property>
  <property name="meta.attr.minor_version.markup">512</property>
  <property name="meta.attr.compatible_brands.markup">qt  </property>
  <property name="meta.attr.encoder.markup">Lavf57.25.100</property>
 </producer>
 <producer title="Anonymous Submission" id="6" in="0" out="4335">
  <property name="length">00:03:00:16</property>
  <property name="eof">pause</property>
  <property name="resource">/media/bordun/Odile/SnapshatAuHarem/etalo/CAM2_2017-11-25_0103_C0005.mov</property>
  <property name="audio_index">2</property>
  <property name="video_index">0</property>
  <property name="mute_on_pause">1</property>
  <property name="mlt_service">avformat-novalidate</property>
  <property name="meta.media.nb_streams">2</property>
  <property name="meta.media.1.stream.type">video</property>
  <property name="meta.media.1.stream.frame_rate">24</property>
  <property name="meta.media.1.stream.sample_aspect_ratio">1</property>
  <property name="meta.media.1.codec.width">1920</property>
  <property name="meta.media.1.codec.height">1080</property>
  <property name="meta.media.1.codec.rotate">0</property>
  <property name="meta.media.1.codec.frame_rate">2400</property>
  <property name="meta.media.1.codec.pix_fmt">yuv422p10le</property>
  <property name="meta.media.1.codec.sample_aspect_ratio">0</property>
  <property name="meta.media.1.codec.colorspace">709</property>
  <property name="meta.media.1.codec.color_trc">1</property>
  <property name="meta.media.1.codec.name">prores</property>
  <property name="meta.media.1.codec.long_name">ProRes</property>
  <property name="meta.media.1.codec.bit_rate">176139010</property>
  <property name="meta.attr.1.stream.creation_time.markup">2017-11-25T01:03:56.000000Z</property>
  <property name="meta.attr.1.stream.language.markup">eng</property>
  <property name="meta.attr.1.stream.handler_name.markup">Apple Alias Data Handler</property>
  <property name="meta.attr.1.stream.encoder.markup">Apple ProRes 422 HQ</property>
  <property name="meta.attr.1.stream.timecode.markup">01:03:56:12</property>
  <property name="meta.media.2.stream.type">audio</property>
  <property name="meta.media.2.codec.sample_fmt">s32</property>
  <property name="meta.media.2.codec.sample_rate">48000</property>
  <property name="meta.media.2.codec.channels">2</property>
  <property name="meta.media.2.codec.name">pcm_s24le</property>
  <property name="meta.media.2.codec.long_name">PCM signed 24-bit little-endian</property>
  <property name="meta.media.2.codec.bit_rate">2304000</property>
  <property name="meta.attr.2.stream.creation_time.markup">2017-11-25T01:03:56.000000Z</property>
  <property name="meta.attr.2.stream.language.markup">eng</property>
  <property name="meta.attr.2.stream.handler_name.markup">Apple Alias Data Handler</property>
  <property name="meta.attr.2.stream.timecode.markup">01:03:56:12</property>
  <property name="meta.attr.com.apple.proapps.manufacturer.markup">Blackmagic Design</property>
  <property name="meta.attr.com.apple.proapps.cameraName.markup">CAM2</property>
  <property name="meta.attr.com.apple.proapps.isGood.markup">0</property>
  <property name="meta.attr.com.apple.proapps.customgamma.markup">com.blackmagic-design.cinemacamera.filmlog</property>
  <property name="meta.attr.com.blackmagic-design.cinemacamera.uuid.markup">18E5E00548F94923B646613A73C01B56</property>
  <property name="meta.attr.creation_time.markup">2017-11-25T01:03:56.000000Z</property>
  <property name="meta.attr.timecode.markup">01:03:56:12</property>
  <property name="seekable">1</property>
  <property name="meta.media.sample_aspect_num">1</property>
  <property name="meta.media.sample_aspect_den">1</property>
  <property name="aspect_ratio">1</property>
  <property name="kdenlive:folderid">-1</property>
  <property name="kdenlive:file_size">4030844401</property>
  <property name="kdenlive:file_hash">e757dcbca0f5d7fdb7d1af4658c00dfc</property>
  <property name="kdenlive:proxy">-</property>
  <property name="proxy_out">4335</property>
  <property name="kdenlive:originalurl">src/04-06_Couplet2/CAM2_2017-11-25_0103_C0005.mov</property>
  <property name="global_feed">1</property>
  <property name="kdenlive:meta.media.nb_streams">3</property>
  <property name="kdenlive:meta.media.1.stream.type">video</property>
  <property name="kdenlive:meta.media.1.stream.frame_rate">24</property>
  <property name="kdenlive:meta.media.1.stream.sample_aspect_ratio">1</property>
  <property name="kdenlive:meta.media.1.codec.width">1920</property>
  <property name="kdenlive:meta.media.1.codec.height">1080</property>
  <property name="kdenlive:meta.media.1.codec.rotate">0</property>
  <property name="kdenlive:meta.media.1.codec.frame_rate">2400</property>
  <property name="kdenlive:meta.media.1.codec.pix_fmt">yuv422p10le</property>
  <property name="kdenlive:meta.media.1.codec.sample_aspect_ratio">0</property>
  <property name="kdenlive:meta.media.1.codec.colorspace">709</property>
  <property name="kdenlive:meta.media.1.codec.color_trc">1</property>
  <property name="kdenlive:meta.media.1.codec.name">prores</property>
  <property name="kdenlive:meta.media.1.codec.long_name">ProRes</property>
  <property name="kdenlive:meta.media.1.codec.bit_rate">176139010</property>
  <property name="kdenlive:meta.attr.1.stream.creation_time.markup">2017-11-25T01:03:56.000000Z</property>
  <property name="kdenlive:meta.attr.1.stream.language.markup">eng</property>
  <property name="kdenlive:meta.attr.1.stream.handler_name.markup">Apple Alias Data Handler</property>
  <property name="kdenlive:meta.attr.1.stream.encoder.markup">Apple ProRes 422 HQ</property>
  <property name="kdenlive:meta.attr.1.stream.timecode.markup">01:03:56:12</property>
  <property name="kdenlive:meta.media.2.stream.type">audio</property>
  <property name="kdenlive:meta.media.2.codec.sample_fmt">s32</property>
  <property name="kdenlive:meta.media.2.codec.sample_rate">48000</property>
  <property name="kdenlive:meta.media.2.codec.channels">2</property>
  <property name="kdenlive:meta.media.2.codec.name">pcm_s24le</property>
  <property name="kdenlive:meta.media.2.codec.long_name">PCM signed 24-bit little-endian</property>
  <property name="kdenlive:meta.media.2.codec.bit_rate">2304000</property>
  <property name="kdenlive:meta.attr.2.stream.creation_time.markup">2017-11-25T01:03:56.000000Z</property>
  <property name="kdenlive:meta.attr.2.stream.language.markup">eng</property>
  <property name="kdenlive:meta.attr.2.stream.handler_name.markup">Apple Alias Data Handler</property>
  <property name="kdenlive:meta.attr.2.stream.timecode.markup">01:03:56:12</property>
  <property name="kdenlive:meta.attr.com.apple.proapps.manufacturer.markup">Blackmagic Design</property>
  <property name="kdenlive:meta.attr.com.apple.proapps.cameraName.markup">CAM2</property>
  <property name="kdenlive:meta.attr.com.apple.proapps.isGood.markup">0</property>
  <property name="kdenlive:meta.attr.com.apple.proapps.customgamma.markup">com.blackmagic-design.cinemacamera.filmlog</property>
  <property name="kdenlive:meta.attr.com.blackmagic-design.cinemacamera.uuid.markup">18E5E00548F94923B646613A73C01B56</property>
  <property name="kdenlive:meta.attr.creation_time.markup">2017-11-25T01:03:56.000000Z</property>
  <property name="kdenlive:meta.attr.timecode.markup">01:03:56:12</property>
  <property name="kdenlive:meta.media.sample_aspect_num">1</property>
  <property name="kdenlive:meta.media.sample_aspect_den">1</property>
  <property name="kdenlive:meta.media.frame_rate_num">24</property>
  <property name="kdenlive:meta.media.frame_rate_den">1</property>
  <property name="kdenlive:meta.media.colorspace">709</property>
  <property name="kdenlive:meta.media.color_trc">1</property>
  <property name="kdenlive:meta.media.width">1920</property>
  <property name="kdenlive:meta.media.height">1080</property>
  <property name="kdenlive:meta.media.top_field_first">0</property>
  <property name="kdenlive:meta.media.progressive">1</property>
  <property name="meta.media.frame_rate_num">24</property>
  <property name="meta.media.frame_rate_den">1</property>
  <property name="meta.media.colorspace">709</property>
  <property name="meta.media.color_trc">1</property>
  <property name="meta.media.width">1920</property>
  <property name="meta.media.height">1080</property>
  <property name="meta.media.top_field_first">0</property>
  <property name="meta.media.progressive">1</property>
  <property name="meta.media.0.stream.type">video</property>
  <property name="meta.media.0.stream.frame_rate">24</property>
  <property name="meta.media.0.stream.sample_aspect_ratio">1</property>
  <property name="meta.media.0.codec.width">1920</property>
  <property name="meta.media.0.codec.height">1080</property>
  <property name="meta.media.0.codec.rotate">0</property>
  <property name="meta.media.0.codec.frame_rate">12288</property>
  <property name="meta.media.0.codec.pix_fmt">yuv422p10le</property>
  <property name="meta.media.0.codec.sample_aspect_ratio">0</property>
  <property name="meta.media.0.codec.colorspace">709</property>
  <property name="meta.media.0.codec.color_trc">1</property>
  <property name="meta.media.0.codec.name">dnxhd</property>
  <property name="meta.media.0.codec.long_name">VC3/DNxHD</property>
  <property name="meta.media.0.codec.bit_rate">176160768</property>
  <property name="meta.attr.0.stream.language.markup">eng</property>
  <property name="meta.attr.0.stream.handler_name.markup">Core Media Data Handler</property>
  <property name="meta.attr.0.stream.timecode.markup">01:03:56:12</property>
  <property name="meta.attr.major_brand.markup">qt  </property>
  <property name="meta.attr.minor_version.markup">512</property>
  <property name="meta.attr.compatible_brands.markup">qt  </property>
  <property name="meta.attr.encoder.markup">Lavf57.25.100</property>
 </producer>
 <producer title="Anonymous Submission" id="7" in="0" out="2664">
  <property name="length">00:01:51:01</property>
  <property name="eof">pause</property>
  <property name="resource">/media/bordun/Odile/SnapshatAuHarem/etalo/CAM2_2017-11-25_0108_C0006.mov</property>
  <property name="audio_index">2</property>
  <property name="video_index">0</property>
  <property name="mute_on_pause">1</property>
  <property name="mlt_service">avformat-novalidate</property>
  <property name="meta.media.nb_streams">2</property>
  <property name="meta.media.1.stream.type">video</property>
  <property name="meta.media.1.stream.frame_rate">24</property>
  <property name="meta.media.1.stream.sample_aspect_ratio">1</property>
  <property name="meta.media.1.codec.width">1920</property>
  <property name="meta.media.1.codec.height">1080</property>
  <property name="meta.media.1.codec.rotate">0</property>
  <property name="meta.media.1.codec.frame_rate">2400</property>
  <property name="meta.media.1.codec.pix_fmt">yuv422p10le</property>
  <property name="meta.media.1.codec.sample_aspect_ratio">0</property>
  <property name="meta.media.1.codec.colorspace">709</property>
  <property name="meta.media.1.codec.color_trc">1</property>
  <property name="meta.media.1.codec.name">prores</property>
  <property name="meta.media.1.codec.long_name">ProRes</property>
  <property name="meta.media.1.codec.bit_rate">176139009</property>
  <property name="meta.attr.1.stream.creation_time.markup">2017-11-25T01:08:39.000000Z</property>
  <property name="meta.attr.1.stream.language.markup">eng</property>
  <property name="meta.attr.1.stream.handler_name.markup">Apple Alias Data Handler</property>
  <property name="meta.attr.1.stream.encoder.markup">Apple ProRes 422 HQ</property>
  <property name="meta.attr.1.stream.timecode.markup">01:08:39:12</property>
  <property name="meta.media.2.stream.type">audio</property>
  <property name="meta.media.2.codec.sample_fmt">s32</property>
  <property name="meta.media.2.codec.sample_rate">48000</property>
  <property name="meta.media.2.codec.channels">2</property>
  <property name="meta.media.2.codec.name">pcm_s24le</property>
  <property name="meta.media.2.codec.long_name">PCM signed 24-bit little-endian</property>
  <property name="meta.media.2.codec.bit_rate">2304000</property>
  <property name="meta.attr.2.stream.creation_time.markup">2017-11-25T01:08:39.000000Z</property>
  <property name="meta.attr.2.stream.language.markup">eng</property>
  <property name="meta.attr.2.stream.handler_name.markup">Apple Alias Data Handler</property>
  <property name="meta.attr.2.stream.timecode.markup">01:08:39:12</property>
  <property name="meta.attr.com.apple.proapps.manufacturer.markup">Blackmagic Design</property>
  <property name="meta.attr.com.apple.proapps.cameraName.markup">CAM2</property>
  <property name="meta.attr.com.apple.proapps.isGood.markup">0</property>
  <property name="meta.attr.com.apple.proapps.customgamma.markup">com.blackmagic-design.cinemacamera.filmlog</property>
  <property name="meta.attr.com.blackmagic-design.cinemacamera.uuid.markup">18E5E00548F94923B646613A73C01B56</property>
  <property name="meta.attr.creation_time.markup">2017-11-25T01:08:39.000000Z</property>
  <property name="meta.attr.timecode.markup">01:08:39:12</property>
  <property name="seekable">1</property>
  <property name="meta.media.sample_aspect_num">1</property>
  <property name="meta.media.sample_aspect_den">1</property>
  <property name="aspect_ratio">1</property>
  <property name="kdenlive:folderid">-1</property>
  <property name="kdenlive:file_size">2477467081</property>
  <property name="kdenlive:file_hash">ab710307b950fc7c477f4663f45777fd</property>
  <property name="kdenlive:proxy">-</property>
  <property name="proxy_out">2664</property>
  <property name="kdenlive:originalurl">src/04-06_Couplet2/CAM2_2017-11-25_0108_C0006.mov</property>
  <property name="global_feed">1</property>
  <property name="kdenlive:meta.media.nb_streams">3</property>
  <property name="kdenlive:meta.media.1.stream.type">video</property>
  <property name="kdenlive:meta.media.1.stream.frame_rate">24</property>
  <property name="kdenlive:meta.media.1.stream.sample_aspect_ratio">1</property>
  <property name="kdenlive:meta.media.1.codec.width">1920</property>
  <property name="kdenlive:meta.media.1.codec.height">1080</property>
  <property name="kdenlive:meta.media.1.codec.rotate">0</property>
  <property name="kdenlive:meta.media.1.codec.frame_rate">2400</property>
  <property name="kdenlive:meta.media.1.codec.pix_fmt">yuv422p10le</property>
  <property name="kdenlive:meta.media.1.codec.sample_aspect_ratio">0</property>
  <property name="kdenlive:meta.media.1.codec.colorspace">709</property>
  <property name="kdenlive:meta.media.1.codec.color_trc">1</property>
  <property name="kdenlive:meta.media.1.codec.name">prores</property>
  <property name="kdenlive:meta.media.1.codec.long_name">ProRes</property>
  <property name="kdenlive:meta.media.1.codec.bit_rate">176139009</property>
  <property name="kdenlive:meta.attr.1.stream.creation_time.markup">2017-11-25T01:08:39.000000Z</property>
  <property name="kdenlive:meta.attr.1.stream.language.markup">eng</property>
  <property name="kdenlive:meta.attr.1.stream.handler_name.markup">Apple Alias Data Handler</property>
  <property name="kdenlive:meta.attr.1.stream.encoder.markup">Apple ProRes 422 HQ</property>
  <property name="kdenlive:meta.attr.1.stream.timecode.markup">01:08:39:12</property>
  <property name="kdenlive:meta.media.2.stream.type">audio</property>
  <property name="kdenlive:meta.media.2.codec.sample_fmt">s32</property>
  <property name="kdenlive:meta.media.2.codec.sample_rate">48000</property>
  <property name="kdenlive:meta.media.2.codec.channels">2</property>
  <property name="kdenlive:meta.media.2.codec.name">pcm_s24le</property>
  <property name="kdenlive:meta.media.2.codec.long_name">PCM signed 24-bit little-endian</property>
  <property name="kdenlive:meta.media.2.codec.bit_rate">2304000</property>
  <property name="kdenlive:meta.attr.2.stream.creation_time.markup">2017-11-25T01:08:39.000000Z</property>
  <property name="kdenlive:meta.attr.2.stream.language.markup">eng</property>
  <property name="kdenlive:meta.attr.2.stream.handler_name.markup">Apple Alias Data Handler</property>
  <property name="kdenlive:meta.attr.2.stream.timecode.markup">01:08:39:12</property>
  <property name="kdenlive:meta.attr.com.apple.proapps.manufacturer.markup">Blackmagic Design</property>
  <property name="kdenlive:meta.attr.com.apple.proapps.cameraName.markup">CAM2</property>
  <property name="kdenlive:meta.attr.com.apple.proapps.isGood.markup">0</property>
  <property name="kdenlive:meta.attr.com.apple.proapps.customgamma.markup">com.blackmagic-design.cinemacamera.filmlog</property>
  <property name="kdenlive:meta.attr.com.blackmagic-design.cinemacamera.uuid.markup">18E5E00548F94923B646613A73C01B56</property>
  <property name="kdenlive:meta.attr.creation_time.markup">2017-11-25T01:08:39.000000Z</property>
  <property name="kdenlive:meta.attr.timecode.markup">01:08:39:12</property>
  <property name="kdenlive:meta.media.sample_aspect_num">1</property>
  <property name="kdenlive:meta.media.sample_aspect_den">1</property>
  <property name="kdenlive:meta.media.frame_rate_num">24</property>
  <property name="kdenlive:meta.media.frame_rate_den">1</property>
  <property name="kdenlive:meta.media.colorspace">709</property>
  <property name="kdenlive:meta.media.color_trc">1</property>
  <property name="kdenlive:meta.media.width">1920</property>
  <property name="kdenlive:meta.media.height">1080</property>
  <property name="kdenlive:meta.media.top_field_first">0</property>
  <property name="kdenlive:meta.media.progressive">1</property>
  <property name="meta.media.frame_rate_num">24</property>
  <property name="meta.media.frame_rate_den">1</property>
  <property name="meta.media.colorspace">709</property>
  <property name="meta.media.color_trc">1</property>
  <property name="meta.media.width">1920</property>
  <property name="meta.media.height">1080</property>
  <property name="meta.media.top_field_first">0</property>
  <property name="meta.media.progressive">1</property>
  <property name="meta.media.0.stream.type">video</property>
  <property name="meta.media.0.stream.frame_rate">24</property>
  <property name="meta.media.0.stream.sample_aspect_ratio">1</property>
  <property name="meta.media.0.codec.width">1920</property>
  <property name="meta.media.0.codec.height">1080</property>
  <property name="meta.media.0.codec.rotate">0</property>
  <property name="meta.media.0.codec.frame_rate">12288</property>
  <property name="meta.media.0.codec.pix_fmt">yuv422p10le</property>
  <property name="meta.media.0.codec.sample_aspect_ratio">0</property>
  <property name="meta.media.0.codec.colorspace">709</property>
  <property name="meta.media.0.codec.color_trc">1</property>
  <property name="meta.media.0.codec.name">dnxhd</property>
  <property name="meta.media.0.codec.long_name">VC3/DNxHD</property>
  <property name="meta.media.0.codec.bit_rate">176160768</property>
  <property name="meta.attr.0.stream.language.markup">eng</property>
  <property name="meta.attr.0.stream.handler_name.markup">Core Media Data Handler</property>
  <property name="meta.attr.0.stream.timecode.markup">01:08:39:12</property>
  <property name="meta.attr.major_brand.markup">qt  </property>
  <property name="meta.attr.minor_version.markup">512</property>
  <property name="meta.attr.compatible_brands.markup">qt  </property>
  <property name="meta.attr.encoder.markup">Lavf57.25.100</property>
 </producer>
 <producer title="Anonymous Submission" id="8" in="0" out="6028">
  <property name="length">00:04:11:05</property>
  <property name="eof">pause</property>
  <property name="resource">/media/bordun/Odile/SnapshatAuHarem/etalo/CAM2_2017-11-24_0134_C0000.mov</property>
  <property name="audio_index">2</property>
  <property name="video_index">0</property>
  <property name="mute_on_pause">1</property>
  <property name="mlt_service">avformat-novalidate</property>
  <property name="meta.media.nb_streams">2</property>
  <property name="meta.media.1.stream.type">video</property>
  <property name="meta.media.1.stream.frame_rate">24</property>
  <property name="meta.media.1.stream.sample_aspect_ratio">1</property>
  <property name="meta.media.1.codec.width">1920</property>
  <property name="meta.media.1.codec.height">1080</property>
  <property name="meta.media.1.codec.rotate">0</property>
  <property name="meta.media.1.codec.frame_rate">2400</property>
  <property name="meta.media.1.codec.pix_fmt">yuv422p10le</property>
  <property name="meta.media.1.codec.sample_aspect_ratio">0</property>
  <property name="meta.media.1.codec.colorspace">709</property>
  <property name="meta.media.1.codec.color_trc">1</property>
  <property name="meta.media.1.codec.name">prores</property>
  <property name="meta.media.1.codec.long_name">ProRes</property>
  <property name="meta.media.1.codec.bit_rate">176141058</property>
  <property name="meta.attr.1.stream.creation_time.markup">2017-11-24T01:34:34.000000Z</property>
  <property name="meta.attr.1.stream.language.markup">eng</property>
  <property name="meta.attr.1.stream.handler_name.markup">Apple Alias Data Handler</property>
  <property name="meta.attr.1.stream.encoder.markup">Apple ProRes 422 HQ</property>
  <property name="meta.attr.1.stream.timecode.markup">01:34:34:10</property>
  <property name="meta.media.2.stream.type">audio</property>
  <property name="meta.media.2.codec.sample_fmt">s32</property>
  <property name="meta.media.2.codec.sample_rate">48000</property>
  <property name="meta.media.2.codec.channels">2</property>
  <property name="meta.media.2.codec.name">pcm_s24le</property>
  <property name="meta.media.2.codec.long_name">PCM signed 24-bit little-endian</property>
  <property name="meta.media.2.codec.bit_rate">2304000</property>
  <property name="meta.attr.2.stream.creation_time.markup">2017-11-24T01:34:34.000000Z</property>
  <property name="meta.attr.2.stream.language.markup">eng</property>
  <property name="meta.attr.2.stream.handler_name.markup">Apple Alias Data Handler</property>
  <property name="meta.attr.2.stream.timecode.markup">01:34:34:10</property>
  <property name="meta.attr.com.apple.proapps.manufacturer.markup">Blackmagic Design</property>
  <property name="meta.attr.com.apple.proapps.cameraName.markup">CAM2</property>
  <property name="meta.attr.com.apple.proapps.isGood.markup">0</property>
  <property name="meta.attr.com.apple.proapps.customgamma.markup">com.blackmagic-design.cinemacamera.filmlog</property>
  <property name="meta.attr.com.blackmagic-design.cinemacamera.uuid.markup">18E5E00548F94923B646613A73C01B56</property>
  <property name="meta.attr.creation_time.markup">2017-11-24T01:34:34.000000Z</property>
  <property name="meta.attr.timecode.markup">01:34:34:10</property>
  <property name="seekable">1</property>
  <property name="meta.media.sample_aspect_num">1</property>
  <property name="meta.media.sample_aspect_den">1</property>
  <property name="aspect_ratio">1</property>
  <property name="kdenlive:folderid">-1</property>
  <property name="kdenlive:file_size">5604735529</property>
  <property name="kdenlive:file_hash">f7c0adb0953aed98701c13058f2178f5</property>
  <property name="kdenlive:proxy">-</property>
  <property name="proxy_out">6028</property>
  <property name="kdenlive:originalurl">src/04-06_Couplet2/mao1.sshfs/CAM2_2017-11-24_0134_C0000.mov</property>
  <property name="global_feed">1</property>
  <property name="kdenlive:meta.media.nb_streams">3</property>
  <property name="kdenlive:meta.media.1.stream.type">video</property>
  <property name="kdenlive:meta.media.1.stream.frame_rate">24</property>
  <property name="kdenlive:meta.media.1.stream.sample_aspect_ratio">1</property>
  <property name="kdenlive:meta.media.1.codec.width">1920</property>
  <property name="kdenlive:meta.media.1.codec.height">1080</property>
  <property name="kdenlive:meta.media.1.codec.rotate">0</property>
  <property name="kdenlive:meta.media.1.codec.frame_rate">2400</property>
  <property name="kdenlive:meta.media.1.codec.pix_fmt">yuv422p10le</property>
  <property name="kdenlive:meta.media.1.codec.sample_aspect_ratio">0</property>
  <property name="kdenlive:meta.media.1.codec.colorspace">709</property>
  <property name="kdenlive:meta.media.1.codec.color_trc">1</property>
  <property name="kdenlive:meta.media.1.codec.name">prores</property>
  <property name="kdenlive:meta.media.1.codec.long_name">ProRes</property>
  <property name="kdenlive:meta.media.1.codec.bit_rate">176141058</property>
  <property name="kdenlive:meta.attr.1.stream.creation_time.markup">2017-11-24T01:34:34.000000Z</property>
  <property name="kdenlive:meta.attr.1.stream.language.markup">eng</property>
  <property name="kdenlive:meta.attr.1.stream.handler_name.markup">Apple Alias Data Handler</property>
  <property name="kdenlive:meta.attr.1.stream.encoder.markup">Apple ProRes 422 HQ</property>
  <property name="kdenlive:meta.attr.1.stream.timecode.markup">01:34:34:10</property>
  <property name="kdenlive:meta.media.2.stream.type">audio</property>
  <property name="kdenlive:meta.media.2.codec.sample_fmt">s32</property>
  <property name="kdenlive:meta.media.2.codec.sample_rate">48000</property>
  <property name="kdenlive:meta.media.2.codec.channels">2</property>
  <property name="kdenlive:meta.media.2.codec.name">pcm_s24le</property>
  <property name="kdenlive:meta.media.2.codec.long_name">PCM signed 24-bit little-endian</property>
  <property name="kdenlive:meta.media.2.codec.bit_rate">2304000</property>
  <property name="kdenlive:meta.attr.2.stream.creation_time.markup">2017-11-24T01:34:34.000000Z</property>
  <property name="kdenlive:meta.attr.2.stream.language.markup">eng</property>
  <property name="kdenlive:meta.attr.2.stream.handler_name.markup">Apple Alias Data Handler</property>
  <property name="kdenlive:meta.attr.2.stream.timecode.markup">01:34:34:10</property>
  <property name="kdenlive:meta.attr.com.apple.proapps.manufacturer.markup">Blackmagic Design</property>
  <property name="kdenlive:meta.attr.com.apple.proapps.cameraName.markup">CAM2</property>
  <property name="kdenlive:meta.attr.com.apple.proapps.isGood.markup">0</property>
  <property name="kdenlive:meta.attr.com.apple.proapps.customgamma.markup">com.blackmagic-design.cinemacamera.filmlog</property>
  <property name="kdenlive:meta.attr.com.blackmagic-design.cinemacamera.uuid.markup">18E5E00548F94923B646613A73C01B56</property>
  <property name="kdenlive:meta.attr.creation_time.markup">2017-11-24T01:34:34.000000Z</property>
  <property name="kdenlive:meta.attr.timecode.markup">01:34:34:10</property>
  <property name="kdenlive:meta.media.sample_aspect_num">1</property>
  <property name="kdenlive:meta.media.sample_aspect_den">1</property>
  <property name="kdenlive:meta.media.frame_rate_num">24</property>
  <property name="kdenlive:meta.media.frame_rate_den">1</property>
  <property name="kdenlive:meta.media.colorspace">709</property>
  <property name="kdenlive:meta.media.color_trc">1</property>
  <property name="kdenlive:meta.media.width">1920</property>
  <property name="kdenlive:meta.media.height">1080</property>
  <property name="kdenlive:meta.media.top_field_first">0</property>
  <property name="kdenlive:meta.media.progressive">1</property>
  <property name="meta.media.frame_rate_num">24</property>
  <property name="meta.media.frame_rate_den">1</property>
  <property name="meta.media.colorspace">709</property>
  <property name="meta.media.color_trc">1</property>
  <property name="meta.media.width">1920</property>
  <property name="meta.media.height">1080</property>
  <property name="meta.media.top_field_first">0</property>
  <property name="meta.media.progressive">1</property>
  <property name="meta.media.0.stream.type">video</property>
  <property name="meta.media.0.stream.frame_rate">24</property>
  <property name="meta.media.0.stream.sample_aspect_ratio">1</property>
  <property name="meta.media.0.codec.width">1920</property>
  <property name="meta.media.0.codec.height">1080</property>
  <property name="meta.media.0.codec.rotate">0</property>
  <property name="meta.media.0.codec.frame_rate">12288</property>
  <property name="meta.media.0.codec.pix_fmt">yuv422p10le</property>
  <property name="meta.media.0.codec.sample_aspect_ratio">0</property>
  <property name="meta.media.0.codec.colorspace">709</property>
  <property name="meta.media.0.codec.color_trc">1</property>
  <property name="meta.media.0.codec.name">dnxhd</property>
  <property name="meta.media.0.codec.long_name">VC3/DNxHD</property>
  <property name="meta.media.0.codec.bit_rate">176160768</property>
  <property name="meta.attr.0.stream.language.markup">eng</property>
  <property name="meta.attr.0.stream.handler_name.markup">Core Media Data Handler</property>
  <property name="meta.attr.0.stream.timecode.markup">01:34:34:10</property>
  <property name="meta.attr.major_brand.markup">qt  </property>
  <property name="meta.attr.minor_version.markup">512</property>
  <property name="meta.attr.compatible_brands.markup">qt  </property>
  <property name="meta.attr.encoder.markup">Lavf57.25.100</property>
 </producer>
 <producer title="Anonymous Submission" id="9" in="0" out="5047">
  <property name="length">00:03:30:08</property>
  <property name="eof">pause</property>
  <property name="resource">/media/bordun/Odile/SnapshatAuHarem/etalo/CAM2_2017-11-24_0143_C0001.mov</property>
  <property name="audio_index">2</property>
  <property name="video_index">0</property>
  <property name="mute_on_pause">1</property>
  <property name="mlt_service">avformat-novalidate</property>
  <property name="meta.media.nb_streams">2</property>
  <property name="meta.media.1.stream.type">video</property>
  <property name="meta.media.1.stream.frame_rate">24</property>
  <property name="meta.media.1.stream.sample_aspect_ratio">1</property>
  <property name="meta.media.1.codec.width">1920</property>
  <property name="meta.media.1.codec.height">1080</property>
  <property name="meta.media.1.codec.rotate">0</property>
  <property name="meta.media.1.codec.frame_rate">2400</property>
  <property name="meta.media.1.codec.pix_fmt">yuv422p10le</property>
  <property name="meta.media.1.codec.sample_aspect_ratio">0</property>
  <property name="meta.media.1.codec.colorspace">709</property>
  <property name="meta.media.1.codec.color_trc">1</property>
  <property name="meta.media.1.codec.name">prores</property>
  <property name="meta.media.1.codec.long_name">ProRes</property>
  <property name="meta.media.1.codec.bit_rate">176140696</property>
  <property name="meta.attr.1.stream.creation_time.markup">2017-11-24T01:43:03.000000Z</property>
  <property name="meta.attr.1.stream.language.markup">eng</property>
  <property name="meta.attr.1.stream.handler_name.markup">Apple Alias Data Handler</property>
  <property name="meta.attr.1.stream.encoder.markup">Apple ProRes 422 HQ</property>
  <property name="meta.attr.1.stream.timecode.markup">01:43:03:00</property>
  <property name="meta.media.2.stream.type">audio</property>
  <property name="meta.media.2.codec.sample_fmt">s32</property>
  <property name="meta.media.2.codec.sample_rate">48000</property>
  <property name="meta.media.2.codec.channels">2</property>
  <property name="meta.media.2.codec.name">pcm_s24le</property>
  <property name="meta.media.2.codec.long_name">PCM signed 24-bit little-endian</property>
  <property name="meta.media.2.codec.bit_rate">2304000</property>
  <property name="meta.attr.2.stream.creation_time.markup">2017-11-24T01:43:03.000000Z</property>
  <property name="meta.attr.2.stream.language.markup">eng</property>
  <property name="meta.attr.2.stream.handler_name.markup">Apple Alias Data Handler</property>
  <property name="meta.attr.2.stream.timecode.markup">01:43:03:00</property>
  <property name="meta.attr.com.apple.proapps.manufacturer.markup">Blackmagic Design</property>
  <property name="meta.attr.com.apple.proapps.cameraName.markup">CAM2</property>
  <property name="meta.attr.com.apple.proapps.isGood.markup">0</property>
  <property name="meta.attr.com.apple.proapps.customgamma.markup">com.blackmagic-design.cinemacamera.filmlog</property>
  <property name="meta.attr.com.blackmagic-design.cinemacamera.uuid.markup">18E5E00548F94923B646613A73C01B56</property>
  <property name="meta.attr.creation_time.markup">2017-11-24T01:43:03.000000Z</property>
  <property name="meta.attr.timecode.markup">01:43:03:00</property>
  <property name="seekable">1</property>
  <property name="meta.media.sample_aspect_num">1</property>
  <property name="meta.media.sample_aspect_den">1</property>
  <property name="aspect_ratio">1</property>
  <property name="kdenlive:folderid">-1</property>
  <property name="kdenlive:file_size">4692771041</property>
  <property name="kdenlive:file_hash">9f6e41c981f7658d7aa446ca21b52691</property>
  <property name="kdenlive:proxy">-</property>
  <property name="proxy_out">5047</property>
  <property name="kdenlive:originalurl">src/04-06_Couplet2/mao1.sshfs/CAM2_2017-11-24_0143_C0001.mov</property>
  <property name="global_feed">1</property>
  <property name="kdenlive:meta.media.nb_streams">3</property>
  <property name="kdenlive:meta.media.1.stream.type">video</property>
  <property name="kdenlive:meta.media.1.stream.frame_rate">24</property>
  <property name="kdenlive:meta.media.1.stream.sample_aspect_ratio">1</property>
  <property name="kdenlive:meta.media.1.codec.width">1920</property>
  <property name="kdenlive:meta.media.1.codec.height">1080</property>
  <property name="kdenlive:meta.media.1.codec.rotate">0</property>
  <property name="kdenlive:meta.media.1.codec.frame_rate">2400</property>
  <property name="kdenlive:meta.media.1.codec.pix_fmt">yuv422p10le</property>
  <property name="kdenlive:meta.media.1.codec.sample_aspect_ratio">0</property>
  <property name="kdenlive:meta.media.1.codec.colorspace">709</property>
  <property name="kdenlive:meta.media.1.codec.color_trc">1</property>
  <property name="kdenlive:meta.media.1.codec.name">prores</property>
  <property name="kdenlive:meta.media.1.codec.long_name">ProRes</property>
  <property name="kdenlive:meta.media.1.codec.bit_rate">176140696</property>
  <property name="kdenlive:meta.attr.1.stream.creation_time.markup">2017-11-24T01:43:03.000000Z</property>
  <property name="kdenlive:meta.attr.1.stream.language.markup">eng</property>
  <property name="kdenlive:meta.attr.1.stream.handler_name.markup">Apple Alias Data Handler</property>
  <property name="kdenlive:meta.attr.1.stream.encoder.markup">Apple ProRes 422 HQ</property>
  <property name="kdenlive:meta.attr.1.stream.timecode.markup">01:43:03:00</property>
  <property name="kdenlive:meta.media.2.stream.type">audio</property>
  <property name="kdenlive:meta.media.2.codec.sample_fmt">s32</property>
  <property name="kdenlive:meta.media.2.codec.sample_rate">48000</property>
  <property name="kdenlive:meta.media.2.codec.channels">2</property>
  <property name="kdenlive:meta.media.2.codec.name">pcm_s24le</property>
  <property name="kdenlive:meta.media.2.codec.long_name">PCM signed 24-bit little-endian</property>
  <property name="kdenlive:meta.media.2.codec.bit_rate">2304000</property>
  <property name="kdenlive:meta.attr.2.stream.creation_time.markup">2017-11-24T01:43:03.000000Z</property>
  <property name="kdenlive:meta.attr.2.stream.language.markup">eng</property>
  <property name="kdenlive:meta.attr.2.stream.handler_name.markup">Apple Alias Data Handler</property>
  <property name="kdenlive:meta.attr.2.stream.timecode.markup">01:43:03:00</property>
  <property name="kdenlive:meta.attr.com.apple.proapps.manufacturer.markup">Blackmagic Design</property>
  <property name="kdenlive:meta.attr.com.apple.proapps.cameraName.markup">CAM2</property>
  <property name="kdenlive:meta.attr.com.apple.proapps.isGood.markup">0</property>
  <property name="kdenlive:meta.attr.com.apple.proapps.customgamma.markup">com.blackmagic-design.cinemacamera.filmlog</property>
  <property name="kdenlive:meta.attr.com.blackmagic-design.cinemacamera.uuid.markup">18E5E00548F94923B646613A73C01B56</property>
  <property name="kdenlive:meta.attr.creation_time.markup">2017-11-24T01:43:03.000000Z</property>
  <property name="kdenlive:meta.attr.timecode.markup">01:43:03:00</property>
  <property name="kdenlive:meta.media.sample_aspect_num">1</property>
  <property name="kdenlive:meta.media.sample_aspect_den">1</property>
  <property name="kdenlive:meta.media.frame_rate_num">24</property>
  <property name="kdenlive:meta.media.frame_rate_den">1</property>
  <property name="kdenlive:meta.media.colorspace">709</property>
  <property name="kdenlive:meta.media.color_trc">1</property>
  <property name="kdenlive:meta.media.width">1920</property>
  <property name="kdenlive:meta.media.height">1080</property>
  <property name="kdenlive:meta.media.top_field_first">0</property>
  <property name="kdenlive:meta.media.progressive">1</property>
  <property name="meta.media.frame_rate_num">24</property>
  <property name="meta.media.frame_rate_den">1</property>
  <property name="meta.media.colorspace">709</property>
  <property name="meta.media.color_trc">1</property>
  <property name="meta.media.width">1920</property>
  <property name="meta.media.height">1080</property>
  <property name="meta.media.top_field_first">0</property>
  <property name="meta.media.progressive">1</property>
  <property name="meta.media.0.stream.type">video</property>
  <property name="meta.media.0.stream.frame_rate">24</property>
  <property name="meta.media.0.stream.sample_aspect_ratio">1</property>
  <property name="meta.media.0.codec.width">1920</property>
  <property name="meta.media.0.codec.height">1080</property>
  <property name="meta.media.0.codec.rotate">0</property>
  <property name="meta.media.0.codec.frame_rate">12288</property>
  <property name="meta.media.0.codec.pix_fmt">yuv422p10le</property>
  <property name="meta.media.0.codec.sample_aspect_ratio">0</property>
  <property name="meta.media.0.codec.colorspace">709</property>
  <property name="meta.media.0.codec.color_trc">1</property>
  <property name="meta.media.0.codec.name">dnxhd</property>
  <property name="meta.media.0.codec.long_name">VC3/DNxHD</property>
  <property name="meta.media.0.codec.bit_rate">176160768</property>
  <property name="meta.attr.0.stream.language.markup">eng</property>
  <property name="meta.attr.0.stream.handler_name.markup">Core Media Data Handler</property>
  <property name="meta.attr.0.stream.timecode.markup">01:43:03:00</property>
  <property name="meta.attr.major_brand.markup">qt  </property>
  <property name="meta.attr.minor_version.markup">512</property>
  <property name="meta.attr.compatible_brands.markup">qt  </property>
  <property name="meta.attr.encoder.markup">Lavf57.25.100</property>
 </producer>
 <producer title="Anonymous Submission" id="10" in="0" out="2728">
  <property name="length">00:01:53:17</property>
  <property name="eof">pause</property>
  <property name="resource">/media/bordun/Odile/SnapshatAuHarem/etalo/CAM2_2017-11-24_0148_C0002.mov</property>
  <property name="audio_index">2</property>
  <property name="video_index">0</property>
  <property name="mute_on_pause">1</property>
  <property name="mlt_service">avformat-novalidate</property>
  <property name="meta.media.nb_streams">2</property>
  <property name="meta.media.1.stream.type">video</property>
  <property name="meta.media.1.stream.frame_rate">24</property>
  <property name="meta.media.1.stream.sample_aspect_ratio">1</property>
  <property name="meta.media.1.codec.width">1920</property>
  <property name="meta.media.1.codec.height">1080</property>
  <property name="meta.media.1.codec.rotate">0</property>
  <property name="meta.media.1.codec.frame_rate">2400</property>
  <property name="meta.media.1.codec.pix_fmt">yuv422p10le</property>
  <property name="meta.media.1.codec.sample_aspect_ratio">0</property>
  <property name="meta.media.1.codec.colorspace">709</property>
  <property name="meta.media.1.codec.color_trc">1</property>
  <property name="meta.media.1.codec.name">prores</property>
  <property name="meta.media.1.codec.long_name">ProRes</property>
  <property name="meta.media.1.codec.bit_rate">176141156</property>
  <property name="meta.attr.1.stream.creation_time.markup">2017-11-24T01:48:50.000000Z</property>
  <property name="meta.attr.1.stream.language.markup">eng</property>
  <property name="meta.attr.1.stream.handler_name.markup">Apple Alias Data Handler</property>
  <property name="meta.attr.1.stream.encoder.markup">Apple ProRes 422 HQ</property>
  <property name="meta.attr.1.stream.timecode.markup">01:48:50:12</property>
  <property name="meta.media.2.stream.type">audio</property>
  <property name="meta.media.2.codec.sample_fmt">s32</property>
  <property name="meta.media.2.codec.sample_rate">48000</property>
  <property name="meta.media.2.codec.channels">2</property>
  <property name="meta.media.2.codec.name">pcm_s24le</property>
  <property name="meta.media.2.codec.long_name">PCM signed 24-bit little-endian</property>
  <property name="meta.media.2.codec.bit_rate">2304000</property>
  <property name="meta.attr.2.stream.creation_time.markup">2017-11-24T01:48:50.000000Z</property>
  <property name="meta.attr.2.stream.language.markup">eng</property>
  <property name="meta.attr.2.stream.handler_name.markup">Apple Alias Data Handler</property>
  <property name="meta.attr.2.stream.timecode.markup">01:48:50:12</property>
  <property name="meta.attr.com.apple.proapps.manufacturer.markup">Blackmagic Design</property>
  <property name="meta.attr.com.apple.proapps.cameraName.markup">CAM2</property>
  <property name="meta.attr.com.apple.proapps.isGood.markup">0</property>
  <property name="meta.attr.com.apple.proapps.customgamma.markup">com.blackmagic-design.cinemacamera.filmlog</property>
  <property name="meta.attr.com.blackmagic-design.cinemacamera.uuid.markup">18E5E00548F94923B646613A73C01B56</property>
  <property name="meta.attr.creation_time.markup">2017-11-24T01:48:50.000000Z</property>
  <property name="meta.attr.timecode.markup">01:48:50:12</property>
  <property name="seekable">1</property>
  <property name="meta.media.sample_aspect_num">1</property>
  <property name="meta.media.sample_aspect_den">1</property>
  <property name="aspect_ratio">1</property>
  <property name="kdenlive:folderid">-1</property>
  <property name="kdenlive:file_size">2536962009</property>
  <property name="kdenlive:file_hash">302d091637657ca34b70898f916f892b</property>
  <property name="kdenlive:proxy">-</property>
  <property name="proxy_out">2728</property>
  <property name="kdenlive:originalurl">src/04-06_Couplet2/mao1.sshfs/CAM2_2017-11-24_0148_C0002.mov</property>
  <property name="global_feed">1</property>
  <property name="kdenlive:meta.media.nb_streams">3</property>
  <property name="kdenlive:meta.media.1.stream.type">video</property>
  <property name="kdenlive:meta.media.1.stream.frame_rate">24</property>
  <property name="kdenlive:meta.media.1.stream.sample_aspect_ratio">1</property>
  <property name="kdenlive:meta.media.1.codec.width">1920</property>
  <property name="kdenlive:meta.media.1.codec.height">1080</property>
  <property name="kdenlive:meta.media.1.codec.rotate">0</property>
  <property name="kdenlive:meta.media.1.codec.frame_rate">2400</property>
  <property name="kdenlive:meta.media.1.codec.pix_fmt">yuv422p10le</property>
  <property name="kdenlive:meta.media.1.codec.sample_aspect_ratio">0</property>
  <property name="kdenlive:meta.media.1.codec.colorspace">709</property>
  <property name="kdenlive:meta.media.1.codec.color_trc">1</property>
  <property name="kdenlive:meta.media.1.codec.name">prores</property>
  <property name="kdenlive:meta.media.1.codec.long_name">ProRes</property>
  <property name="kdenlive:meta.media.1.codec.bit_rate">176141156</property>
  <property name="kdenlive:meta.attr.1.stream.creation_time.markup">2017-11-24T01:48:50.000000Z</property>
  <property name="kdenlive:meta.attr.1.stream.language.markup">eng</property>
  <property name="kdenlive:meta.attr.1.stream.handler_name.markup">Apple Alias Data Handler</property>
  <property name="kdenlive:meta.attr.1.stream.encoder.markup">Apple ProRes 422 HQ</property>
  <property name="kdenlive:meta.attr.1.stream.timecode.markup">01:48:50:12</property>
  <property name="kdenlive:meta.media.2.stream.type">audio</property>
  <property name="kdenlive:meta.media.2.codec.sample_fmt">s32</property>
  <property name="kdenlive:meta.media.2.codec.sample_rate">48000</property>
  <property name="kdenlive:meta.media.2.codec.channels">2</property>
  <property name="kdenlive:meta.media.2.codec.name">pcm_s24le</property>
  <property name="kdenlive:meta.media.2.codec.long_name">PCM signed 24-bit little-endian</property>
  <property name="kdenlive:meta.media.2.codec.bit_rate">2304000</property>
  <property name="kdenlive:meta.attr.2.stream.creation_time.markup">2017-11-24T01:48:50.000000Z</property>
  <property name="kdenlive:meta.attr.2.stream.language.markup">eng</property>
  <property name="kdenlive:meta.attr.2.stream.handler_name.markup">Apple Alias Data Handler</property>
  <property name="kdenlive:meta.attr.2.stream.timecode.markup">01:48:50:12</property>
  <property name="kdenlive:meta.attr.com.apple.proapps.manufacturer.markup">Blackmagic Design</property>
  <property name="kdenlive:meta.attr.com.apple.proapps.cameraName.markup">CAM2</property>
  <property name="kdenlive:meta.attr.com.apple.proapps.isGood.markup">0</property>
  <property name="kdenlive:meta.attr.com.apple.proapps.customgamma.markup">com.blackmagic-design.cinemacamera.filmlog</property>
  <property name="kdenlive:meta.attr.com.blackmagic-design.cinemacamera.uuid.markup">18E5E00548F94923B646613A73C01B56</property>
  <property name="kdenlive:meta.attr.creation_time.markup">2017-11-24T01:48:50.000000Z</property>
  <property name="kdenlive:meta.attr.timecode.markup">01:48:50:12</property>
  <property name="kdenlive:meta.media.sample_aspect_num">1</property>
  <property name="kdenlive:meta.media.sample_aspect_den">1</property>
  <property name="kdenlive:meta.media.frame_rate_num">24</property>
  <property name="kdenlive:meta.media.frame_rate_den">1</property>
  <property name="kdenlive:meta.media.colorspace">709</property>
  <property name="kdenlive:meta.media.color_trc">1</property>
  <property name="kdenlive:meta.media.width">1920</property>
  <property name="kdenlive:meta.media.height">1080</property>
  <property name="kdenlive:meta.media.top_field_first">0</property>
  <property name="kdenlive:meta.media.progressive">1</property>
  <property name="meta.media.frame_rate_num">24</property>
  <property name="meta.media.frame_rate_den">1</property>
  <property name="meta.media.colorspace">709</property>
  <property name="meta.media.color_trc">1</property>
  <property name="meta.media.width">1920</property>
  <property name="meta.media.height">1080</property>
  <property name="meta.media.top_field_first">0</property>
  <property name="meta.media.progressive">1</property>
  <property name="meta.media.0.stream.type">video</property>
  <property name="meta.media.0.stream.frame_rate">24</property>
  <property name="meta.media.0.stream.sample_aspect_ratio">1</property>
  <property name="meta.media.0.codec.width">1920</property>
  <property name="meta.media.0.codec.height">1080</property>
  <property name="meta.media.0.codec.rotate">0</property>
  <property name="meta.media.0.codec.frame_rate">12288</property>
  <property name="meta.media.0.codec.pix_fmt">yuv422p10le</property>
  <property name="meta.media.0.codec.sample_aspect_ratio">0</property>
  <property name="meta.media.0.codec.colorspace">709</property>
  <property name="meta.media.0.codec.color_trc">1</property>
  <property name="meta.media.0.codec.name">dnxhd</property>
  <property name="meta.media.0.codec.long_name">VC3/DNxHD</property>
  <property name="meta.media.0.codec.bit_rate">176160768</property>
  <property name="meta.attr.0.stream.language.markup">eng</property>
  <property name="meta.attr.0.stream.handler_name.markup">Core Media Data Handler</property>
  <property name="meta.attr.0.stream.timecode.markup">01:48:50:12</property>
  <property name="meta.attr.major_brand.markup">qt  </property>
  <property name="meta.attr.minor_version.markup">512</property>
  <property name="meta.attr.compatible_brands.markup">qt  </property>
  <property name="meta.attr.encoder.markup">Lavf57.25.100</property>
 </producer>
 <producer title="Anonymous Submission" id="11" in="0" out="1866">
  <property name="length">00:01:17:19</property>
  <property name="eof">pause</property>
  <property name="resource">/media/bordun/Odile/SnapshatAuHarem/etalo/CAM2_2017-11-24_0152_C0003.mov</property>
  <property name="audio_index">2</property>
  <property name="video_index">0</property>
  <property name="mute_on_pause">1</property>
  <property name="mlt_service">avformat-novalidate</property>
  <property name="meta.media.nb_streams">2</property>
  <property name="meta.media.1.stream.type">video</property>
  <property name="meta.media.1.stream.frame_rate">24</property>
  <property name="meta.media.1.stream.sample_aspect_ratio">1</property>
  <property name="meta.media.1.codec.width">1920</property>
  <property name="meta.media.1.codec.height">1080</property>
  <property name="meta.media.1.codec.rotate">0</property>
  <property name="meta.media.1.codec.frame_rate">2400</property>
  <property name="meta.media.1.codec.pix_fmt">yuv422p10le</property>
  <property name="meta.media.1.codec.sample_aspect_ratio">0</property>
  <property name="meta.media.1.codec.colorspace">709</property>
  <property name="meta.media.1.codec.color_trc">1</property>
  <property name="meta.media.1.codec.name">prores</property>
  <property name="meta.media.1.codec.long_name">ProRes</property>
  <property name="meta.media.1.codec.bit_rate">176140680</property>
  <property name="meta.attr.1.stream.creation_time.markup">2017-11-24T01:52:33.000000Z</property>
  <property name="meta.attr.1.stream.language.markup">eng</property>
  <property name="meta.attr.1.stream.handler_name.markup">Apple Alias Data Handler</property>
  <property name="meta.attr.1.stream.encoder.markup">Apple ProRes 422 HQ</property>
  <property name="meta.attr.1.stream.timecode.markup">01:52:33:01</property>
  <property name="meta.media.2.stream.type">audio</property>
  <property name="meta.media.2.codec.sample_fmt">s32</property>
  <property name="meta.media.2.codec.sample_rate">48000</property>
  <property name="meta.media.2.codec.channels">2</property>
  <property name="meta.media.2.codec.name">pcm_s24le</property>
  <property name="meta.media.2.codec.long_name">PCM signed 24-bit little-endian</property>
  <property name="meta.media.2.codec.bit_rate">2304000</property>
  <property name="meta.attr.2.stream.creation_time.markup">2017-11-24T01:52:33.000000Z</property>
  <property name="meta.attr.2.stream.language.markup">eng</property>
  <property name="meta.attr.2.stream.handler_name.markup">Apple Alias Data Handler</property>
  <property name="meta.attr.2.stream.timecode.markup">01:52:33:01</property>
  <property name="meta.attr.com.apple.proapps.manufacturer.markup">Blackmagic Design</property>
  <property name="meta.attr.com.apple.proapps.cameraName.markup">CAM2</property>
  <property name="meta.attr.com.apple.proapps.isGood.markup">0</property>
  <property name="meta.attr.com.apple.proapps.customgamma.markup">com.blackmagic-design.cinemacamera.filmlog</property>
  <property name="meta.attr.com.blackmagic-design.cinemacamera.uuid.markup">18E5E00548F94923B646613A73C01B56</property>
  <property name="meta.attr.creation_time.markup">2017-11-24T01:52:33.000000Z</property>
  <property name="meta.attr.timecode.markup">01:52:33:01</property>
  <property name="seekable">1</property>
  <property name="meta.media.sample_aspect_num">1</property>
  <property name="meta.media.sample_aspect_den">1</property>
  <property name="aspect_ratio">1</property>
  <property name="kdenlive:folderid">-1</property>
  <property name="kdenlive:file_size">1735623353</property>
  <property name="kdenlive:file_hash">135377d0fb800f4c0227e31eacc02d7f</property>
  <property name="kdenlive:proxy">-</property>
  <property name="proxy_out">1866</property>
  <property name="kdenlive:originalurl">src/04-06_Couplet2/mao1.sshfs/CAM2_2017-11-24_0152_C0003.mov</property>
  <property name="global_feed">1</property>
  <property name="kdenlive:meta.media.nb_streams">3</property>
  <property name="kdenlive:meta.media.1.stream.type">video</property>
  <property name="kdenlive:meta.media.1.stream.frame_rate">24</property>
  <property name="kdenlive:meta.media.1.stream.sample_aspect_ratio">1</property>
  <property name="kdenlive:meta.media.1.codec.width">1920</property>
  <property name="kdenlive:meta.media.1.codec.height">1080</property>
  <property name="kdenlive:meta.media.1.codec.rotate">0</property>
  <property name="kdenlive:meta.media.1.codec.frame_rate">2400</property>
  <property name="kdenlive:meta.media.1.codec.pix_fmt">yuv422p10le</property>
  <property name="kdenlive:meta.media.1.codec.sample_aspect_ratio">0</property>
  <property name="kdenlive:meta.media.1.codec.colorspace">709</property>
  <property name="kdenlive:meta.media.1.codec.color_trc">1</property>
  <property name="kdenlive:meta.media.1.codec.name">prores</property>
  <property name="kdenlive:meta.media.1.codec.long_name">ProRes</property>
  <property name="kdenlive:meta.media.1.codec.bit_rate">176140680</property>
  <property name="kdenlive:meta.attr.1.stream.creation_time.markup">2017-11-24T01:52:33.000000Z</property>
  <property name="kdenlive:meta.attr.1.stream.language.markup">eng</property>
  <property name="kdenlive:meta.attr.1.stream.handler_name.markup">Apple Alias Data Handler</property>
  <property name="kdenlive:meta.attr.1.stream.encoder.markup">Apple ProRes 422 HQ</property>
  <property name="kdenlive:meta.attr.1.stream.timecode.markup">01:52:33:01</property>
  <property name="kdenlive:meta.media.2.stream.type">audio</property>
  <property name="kdenlive:meta.media.2.codec.sample_fmt">s32</property>
  <property name="kdenlive:meta.media.2.codec.sample_rate">48000</property>
  <property name="kdenlive:meta.media.2.codec.channels">2</property>
  <property name="kdenlive:meta.media.2.codec.name">pcm_s24le</property>
  <property name="kdenlive:meta.media.2.codec.long_name">PCM signed 24-bit little-endian</property>
  <property name="kdenlive:meta.media.2.codec.bit_rate">2304000</property>
  <property name="kdenlive:meta.attr.2.stream.creation_time.markup">2017-11-24T01:52:33.000000Z</property>
  <property name="kdenlive:meta.attr.2.stream.language.markup">eng</property>
  <property name="kdenlive:meta.attr.2.stream.handler_name.markup">Apple Alias Data Handler</property>
  <property name="kdenlive:meta.attr.2.stream.timecode.markup">01:52:33:01</property>
  <property name="kdenlive:meta.attr.com.apple.proapps.manufacturer.markup">Blackmagic Design</property>
  <property name="kdenlive:meta.attr.com.apple.proapps.cameraName.markup">CAM2</property>
  <property name="kdenlive:meta.attr.com.apple.proapps.isGood.markup">0</property>
  <property name="kdenlive:meta.attr.com.apple.proapps.customgamma.markup">com.blackmagic-design.cinemacamera.filmlog</property>
  <property name="kdenlive:meta.attr.com.blackmagic-design.cinemacamera.uuid.markup">18E5E00548F94923B646613A73C01B56</property>
  <property name="kdenlive:meta.attr.creation_time.markup">2017-11-24T01:52:33.000000Z</property>
  <property name="kdenlive:meta.attr.timecode.markup">01:52:33:01</property>
  <property name="kdenlive:meta.media.sample_aspect_num">1</property>
  <property name="kdenlive:meta.media.sample_aspect_den">1</property>
  <property name="kdenlive:meta.media.frame_rate_num">24</property>
  <property name="kdenlive:meta.media.frame_rate_den">1</property>
  <property name="kdenlive:meta.media.colorspace">709</property>
  <property name="kdenlive:meta.media.color_trc">1</property>
  <property name="kdenlive:meta.media.width">1920</property>
  <property name="kdenlive:meta.media.height">1080</property>
  <property name="kdenlive:meta.media.top_field_first">0</property>
  <property name="kdenlive:meta.media.progressive">1</property>
  <property name="meta.media.frame_rate_num">24</property>
  <property name="meta.media.frame_rate_den">1</property>
  <property name="meta.media.colorspace">709</property>
  <property name="meta.media.color_trc">1</property>
  <property name="meta.media.width">1920</property>
  <property name="meta.media.height">1080</property>
  <property name="meta.media.top_field_first">0</property>
  <property name="meta.media.progressive">1</property>
  <property name="meta.media.0.stream.type">video</property>
  <property name="meta.media.0.stream.frame_rate">24</property>
  <property name="meta.media.0.stream.sample_aspect_ratio">1</property>
  <property name="meta.media.0.codec.width">1920</property>
  <property name="meta.media.0.codec.height">1080</property>
  <property name="meta.media.0.codec.rotate">0</property>
  <property name="meta.media.0.codec.frame_rate">12288</property>
  <property name="meta.media.0.codec.pix_fmt">yuv422p10le</property>
  <property name="meta.media.0.codec.sample_aspect_ratio">0</property>
  <property name="meta.media.0.codec.colorspace">709</property>
  <property name="meta.media.0.codec.color_trc">1</property>
  <property name="meta.media.0.codec.name">dnxhd</property>
  <property name="meta.media.0.codec.long_name">VC3/DNxHD</property>
  <property name="meta.media.0.codec.bit_rate">176160768</property>
  <property name="meta.attr.0.stream.language.markup">eng</property>
  <property name="meta.attr.0.stream.handler_name.markup">Core Media Data Handler</property>
  <property name="meta.attr.0.stream.timecode.markup">01:52:33:01</property>
  <property name="meta.attr.major_brand.markup">qt  </property>
  <property name="meta.attr.minor_version.markup">512</property>
  <property name="meta.attr.compatible_brands.markup">qt  </property>
  <property name="meta.attr.encoder.markup">Lavf57.25.100</property>
 </producer>
 <producer title="Anonymous Submission" id="12" in="0" out="16944">
  <property name="length">00:11:46:01</property>
  <property name="eof">pause</property>
  <property name="resource">/media/bordun/Odile/SnapshatAuHarem/etalo/CAM2_2017-11-24_0212_C0004.mov</property>
  <property name="audio_index">2</property>
  <property name="video_index">0</property>
  <property name="mute_on_pause">1</property>
  <property name="mlt_service">avformat-novalidate</property>
  <property name="meta.media.nb_streams">2</property>
  <property name="meta.media.1.stream.type">video</property>
  <property name="meta.media.1.stream.frame_rate">24</property>
  <property name="meta.media.1.stream.sample_aspect_ratio">1</property>
  <property name="meta.media.1.codec.width">1920</property>
  <property name="meta.media.1.codec.height">1080</property>
  <property name="meta.media.1.codec.rotate">0</property>
  <property name="meta.media.1.codec.frame_rate">2400</property>
  <property name="meta.media.1.codec.pix_fmt">yuv422p10le</property>
  <property name="meta.media.1.codec.sample_aspect_ratio">0</property>
  <property name="meta.media.1.codec.colorspace">709</property>
  <property name="meta.media.1.codec.color_trc">1</property>
  <property name="meta.media.1.codec.name">prores</property>
  <property name="meta.media.1.codec.long_name">ProRes</property>
  <property name="meta.media.1.codec.bit_rate">176140201</property>
  <property name="meta.attr.1.stream.creation_time.markup">2017-11-24T02:12:00.000000Z</property>
  <property name="meta.attr.1.stream.language.markup">eng</property>
  <property name="meta.attr.1.stream.handler_name.markup">Apple Alias Data Handler</property>
  <property name="meta.attr.1.stream.encoder.markup">Apple ProRes 422 HQ</property>
  <property name="meta.attr.1.stream.timecode.markup">02:12:00:10</property>
  <property name="meta.media.2.stream.type">audio</property>
  <property name="meta.media.2.codec.sample_fmt">s32</property>
  <property name="meta.media.2.codec.sample_rate">48000</property>
  <property name="meta.media.2.codec.channels">2</property>
  <property name="meta.media.2.codec.name">pcm_s24le</property>
  <property name="meta.media.2.codec.long_name">PCM signed 24-bit little-endian</property>
  <property name="meta.media.2.codec.bit_rate">2304000</property>
  <property name="meta.attr.2.stream.creation_time.markup">2017-11-24T02:12:00.000000Z</property>
  <property name="meta.attr.2.stream.language.markup">eng</property>
  <property name="meta.attr.2.stream.handler_name.markup">Apple Alias Data Handler</property>
  <property name="meta.attr.2.stream.timecode.markup">02:12:00:10</property>
  <property name="meta.attr.com.apple.proapps.manufacturer.markup">Blackmagic Design</property>
  <property name="meta.attr.com.apple.proapps.cameraName.markup">CAM2</property>
  <property name="meta.attr.com.apple.proapps.isGood.markup">0</property>
  <property name="meta.attr.com.apple.proapps.customgamma.markup">com.blackmagic-design.cinemacamera.filmlog</property>
  <property name="meta.attr.com.blackmagic-design.cinemacamera.uuid.markup">18E5E00548F94923B646613A73C01B56</property>
  <property name="meta.attr.creation_time.markup">2017-11-24T02:12:00.000000Z</property>
  <property name="meta.attr.timecode.markup">02:12:00:10</property>
  <property name="seekable">1</property>
  <property name="meta.media.sample_aspect_num">1</property>
  <property name="meta.media.sample_aspect_den">1</property>
  <property name="aspect_ratio">1</property>
  <property name="kdenlive:folderid">-1</property>
  <property name="kdenlive:file_size">15752546401</property>
  <property name="kdenlive:file_hash">66fdce4b25a5795b28b8edb5cd4585a3</property>
  <property name="kdenlive:proxy">-</property>
  <property name="proxy_out">16944</property>
  <property name="kdenlive:originalurl">src/04-06_Couplet2/mao1.sshfs/CAM2_2017-11-24_0212_C0004.mov</property>
  <property name="global_feed">1</property>
  <property name="kdenlive:meta.media.nb_streams">3</property>
  <property name="kdenlive:meta.media.1.stream.type">video</property>
  <property name="kdenlive:meta.media.1.stream.frame_rate">24</property>
  <property name="kdenlive:meta.media.1.stream.sample_aspect_ratio">1</property>
  <property name="kdenlive:meta.media.1.codec.width">1920</property>
  <property name="kdenlive:meta.media.1.codec.height">1080</property>
  <property name="kdenlive:meta.media.1.codec.rotate">0</property>
  <property name="kdenlive:meta.media.1.codec.frame_rate">2400</property>
  <property name="kdenlive:meta.media.1.codec.pix_fmt">yuv422p10le</property>
  <property name="kdenlive:meta.media.1.codec.sample_aspect_ratio">0</property>
  <property name="kdenlive:meta.media.1.codec.colorspace">709</property>
  <property name="kdenlive:meta.media.1.codec.color_trc">1</property>
  <property name="kdenlive:meta.media.1.codec.name">prores</property>
  <property name="kdenlive:meta.media.1.codec.long_name">ProRes</property>
  <property name="kdenlive:meta.media.1.codec.bit_rate">176140201</property>
  <property name="kdenlive:meta.attr.1.stream.creation_time.markup">2017-11-24T02:12:00.000000Z</property>
  <property name="kdenlive:meta.attr.1.stream.language.markup">eng</property>
  <property name="kdenlive:meta.attr.1.stream.handler_name.markup">Apple Alias Data Handler</property>
  <property name="kdenlive:meta.attr.1.stream.encoder.markup">Apple ProRes 422 HQ</property>
  <property name="kdenlive:meta.attr.1.stream.timecode.markup">02:12:00:10</property>
  <property name="kdenlive:meta.media.2.stream.type">audio</property>
  <property name="kdenlive:meta.media.2.codec.sample_fmt">s32</property>
  <property name="kdenlive:meta.media.2.codec.sample_rate">48000</property>
  <property name="kdenlive:meta.media.2.codec.channels">2</property>
  <property name="kdenlive:meta.media.2.codec.name">pcm_s24le</property>
  <property name="kdenlive:meta.media.2.codec.long_name">PCM signed 24-bit little-endian</property>
  <property name="kdenlive:meta.media.2.codec.bit_rate">2304000</property>
  <property name="kdenlive:meta.attr.2.stream.creation_time.markup">2017-11-24T02:12:00.000000Z</property>
  <property name="kdenlive:meta.attr.2.stream.language.markup">eng</property>
  <property name="kdenlive:meta.attr.2.stream.handler_name.markup">Apple Alias Data Handler</property>
  <property name="kdenlive:meta.attr.2.stream.timecode.markup">02:12:00:10</property>
  <property name="kdenlive:meta.attr.com.apple.proapps.manufacturer.markup">Blackmagic Design</property>
  <property name="kdenlive:meta.attr.com.apple.proapps.cameraName.markup">CAM2</property>
  <property name="kdenlive:meta.attr.com.apple.proapps.isGood.markup">0</property>
  <property name="kdenlive:meta.attr.com.apple.proapps.customgamma.markup">com.blackmagic-design.cinemacamera.filmlog</property>
  <property name="kdenlive:meta.attr.com.blackmagic-design.cinemacamera.uuid.markup">18E5E00548F94923B646613A73C01B56</property>
  <property name="kdenlive:meta.attr.creation_time.markup">2017-11-24T02:12:00.000000Z</property>
  <property name="kdenlive:meta.attr.timecode.markup">02:12:00:10</property>
  <property name="kdenlive:meta.media.sample_aspect_num">1</property>
  <property name="kdenlive:meta.media.sample_aspect_den">1</property>
  <property name="kdenlive:meta.media.frame_rate_num">24</property>
  <property name="kdenlive:meta.media.frame_rate_den">1</property>
  <property name="kdenlive:meta.media.colorspace">709</property>
  <property name="kdenlive:meta.media.color_trc">1</property>
  <property name="kdenlive:meta.media.width">1920</property>
  <property name="kdenlive:meta.media.height">1080</property>
  <property name="kdenlive:meta.media.top_field_first">0</property>
  <property name="kdenlive:meta.media.progressive">1</property>
  <property name="meta.media.frame_rate_num">24</property>
  <property name="meta.media.frame_rate_den">1</property>
  <property name="meta.media.colorspace">709</property>
  <property name="meta.media.color_trc">1</property>
  <property name="meta.media.width">1920</property>
  <property name="meta.media.height">1080</property>
  <property name="meta.media.top_field_first">0</property>
  <property name="meta.media.progressive">1</property>
  <property name="meta.media.0.stream.type">video</property>
  <property name="meta.media.0.stream.frame_rate">24</property>
  <property name="meta.media.0.stream.sample_aspect_ratio">1</property>
  <property name="meta.media.0.codec.width">1920</property>
  <property name="meta.media.0.codec.height">1080</property>
  <property name="meta.media.0.codec.rotate">0</property>
  <property name="meta.media.0.codec.frame_rate">12288</property>
  <property name="meta.media.0.codec.pix_fmt">yuv422p10le</property>
  <property name="meta.media.0.codec.sample_aspect_ratio">0</property>
  <property name="meta.media.0.codec.colorspace">709</property>
  <property name="meta.media.0.codec.color_trc">1</property>
  <property name="meta.media.0.codec.name">dnxhd</property>
  <property name="meta.media.0.codec.long_name">VC3/DNxHD</property>
  <property name="meta.media.0.codec.bit_rate">176160768</property>
  <property name="meta.attr.0.stream.language.markup">eng</property>
  <property name="meta.attr.0.stream.handler_name.markup">Core Media Data Handler</property>
  <property name="meta.attr.0.stream.timecode.markup">02:12:00:10</property>
  <property name="meta.attr.major_brand.markup">qt  </property>
  <property name="meta.attr.minor_version.markup">512</property>
  <property name="meta.attr.compatible_brands.markup">qt  </property>
  <property name="meta.attr.encoder.markup">Lavf57.25.100</property>
 </producer>
 <producer title="Anonymous Submission" id="13" in="0" out="4885">
  <property name="length">00:03:23:14</property>
  <property name="eof">pause</property>
  <property name="resource">/media/bordun/Odile/SnapshatAuHarem/etalo/CAM2_2017-11-24_0236_C0005.mov</property>
  <property name="audio_index">2</property>
  <property name="video_index">0</property>
  <property name="mute_on_pause">1</property>
  <property name="mlt_service">avformat-novalidate</property>
  <property name="meta.media.nb_streams">2</property>
  <property name="meta.media.1.stream.type">video</property>
  <property name="meta.media.1.stream.frame_rate">24</property>
  <property name="meta.media.1.stream.sample_aspect_ratio">1</property>
  <property name="meta.media.1.codec.width">1920</property>
  <property name="meta.media.1.codec.height">1080</property>
  <property name="meta.media.1.codec.rotate">0</property>
  <property name="meta.media.1.codec.frame_rate">2400</property>
  <property name="meta.media.1.codec.pix_fmt">yuv422p10le</property>
  <property name="meta.media.1.codec.sample_aspect_ratio">0</property>
  <property name="meta.media.1.codec.colorspace">709</property>
  <property name="meta.media.1.codec.color_trc">1</property>
  <property name="meta.media.1.codec.name">prores</property>
  <property name="meta.media.1.codec.long_name">ProRes</property>
  <property name="meta.media.1.codec.bit_rate">176139589</property>
  <property name="meta.attr.1.stream.creation_time.markup">2017-11-24T02:36:10.000000Z</property>
  <property name="meta.attr.1.stream.language.markup">eng</property>
  <property name="meta.attr.1.stream.handler_name.markup">Apple Alias Data Handler</property>
  <property name="meta.attr.1.stream.encoder.markup">Apple ProRes 422 HQ</property>
  <property name="meta.attr.1.stream.timecode.markup">02:36:10:06</property>
  <property name="meta.media.2.stream.type">audio</property>
  <property name="meta.media.2.codec.sample_fmt">s32</property>
  <property name="meta.media.2.codec.sample_rate">48000</property>
  <property name="meta.media.2.codec.channels">2</property>
  <property name="meta.media.2.codec.name">pcm_s24le</property>
  <property name="meta.media.2.codec.long_name">PCM signed 24-bit little-endian</property>
  <property name="meta.media.2.codec.bit_rate">2304000</property>
  <property name="meta.attr.2.stream.creation_time.markup">2017-11-24T02:36:10.000000Z</property>
  <property name="meta.attr.2.stream.language.markup">eng</property>
  <property name="meta.attr.2.stream.handler_name.markup">Apple Alias Data Handler</property>
  <property name="meta.attr.2.stream.timecode.markup">02:36:10:06</property>
  <property name="meta.attr.com.apple.proapps.manufacturer.markup">Blackmagic Design</property>
  <property name="meta.attr.com.apple.proapps.cameraName.markup">CAM2</property>
  <property name="meta.attr.com.apple.proapps.isGood.markup">0</property>
  <property name="meta.attr.com.apple.proapps.customgamma.markup">com.blackmagic-design.cinemacamera.filmlog</property>
  <property name="meta.attr.com.blackmagic-design.cinemacamera.uuid.markup">18E5E00548F94923B646613A73C01B56</property>
  <property name="meta.attr.creation_time.markup">2017-11-24T02:36:10.000000Z</property>
  <property name="meta.attr.timecode.markup">02:36:10:06</property>
  <property name="seekable">1</property>
  <property name="meta.media.sample_aspect_num">1</property>
  <property name="meta.media.sample_aspect_den">1</property>
  <property name="aspect_ratio">1</property>
  <property name="kdenlive:folderid">-1</property>
  <property name="kdenlive:file_size">4542172841</property>
  <property name="kdenlive:file_hash">91feebd31e13c0397d7c7f4aa158eeea</property>
  <property name="kdenlive:proxy">-</property>
  <property name="proxy_out">4885</property>
  <property name="kdenlive:originalurl">src/04-06_Couplet2/mao1.sshfs/CAM2_2017-11-24_0236_C0005.mov</property>
  <property name="global_feed">1</property>
  <property name="kdenlive:meta.media.nb_streams">3</property>
  <property name="kdenlive:meta.media.1.stream.type">video</property>
  <property name="kdenlive:meta.media.1.stream.frame_rate">24</property>
  <property name="kdenlive:meta.media.1.stream.sample_aspect_ratio">1</property>
  <property name="kdenlive:meta.media.1.codec.width">1920</property>
  <property name="kdenlive:meta.media.1.codec.height">1080</property>
  <property name="kdenlive:meta.media.1.codec.rotate">0</property>
  <property name="kdenlive:meta.media.1.codec.frame_rate">2400</property>
  <property name="kdenlive:meta.media.1.codec.pix_fmt">yuv422p10le</property>
  <property name="kdenlive:meta.media.1.codec.sample_aspect_ratio">0</property>
  <property name="kdenlive:meta.media.1.codec.colorspace">709</property>
  <property name="kdenlive:meta.media.1.codec.color_trc">1</property>
  <property name="kdenlive:meta.media.1.codec.name">prores</property>
  <property name="kdenlive:meta.media.1.codec.long_name">ProRes</property>
  <property name="kdenlive:meta.media.1.codec.bit_rate">176139589</property>
  <property name="kdenlive:meta.attr.1.stream.creation_time.markup">2017-11-24T02:36:10.000000Z</property>
  <property name="kdenlive:meta.attr.1.stream.language.markup">eng</property>
  <property name="kdenlive:meta.attr.1.stream.handler_name.markup">Apple Alias Data Handler</property>
  <property name="kdenlive:meta.attr.1.stream.encoder.markup">Apple ProRes 422 HQ</property>
  <property name="kdenlive:meta.attr.1.stream.timecode.markup">02:36:10:06</property>
  <property name="kdenlive:meta.media.2.stream.type">audio</property>
  <property name="kdenlive:meta.media.2.codec.sample_fmt">s32</property>
  <property name="kdenlive:meta.media.2.codec.sample_rate">48000</property>
  <property name="kdenlive:meta.media.2.codec.channels">2</property>
  <property name="kdenlive:meta.media.2.codec.name">pcm_s24le</property>
  <property name="kdenlive:meta.media.2.codec.long_name">PCM signed 24-bit little-endian</property>
  <property name="kdenlive:meta.media.2.codec.bit_rate">2304000</property>
  <property name="kdenlive:meta.attr.2.stream.creation_time.markup">2017-11-24T02:36:10.000000Z</property>
  <property name="kdenlive:meta.attr.2.stream.language.markup">eng</property>
  <property name="kdenlive:meta.attr.2.stream.handler_name.markup">Apple Alias Data Handler</property>
  <property name="kdenlive:meta.attr.2.stream.timecode.markup">02:36:10:06</property>
  <property name="kdenlive:meta.attr.com.apple.proapps.manufacturer.markup">Blackmagic Design</property>
  <property name="kdenlive:meta.attr.com.apple.proapps.cameraName.markup">CAM2</property>
  <property name="kdenlive:meta.attr.com.apple.proapps.isGood.markup">0</property>
  <property name="kdenlive:meta.attr.com.apple.proapps.customgamma.markup">com.blackmagic-design.cinemacamera.filmlog</property>
  <property name="kdenlive:meta.attr.com.blackmagic-design.cinemacamera.uuid.markup">18E5E00548F94923B646613A73C01B56</property>
  <property name="kdenlive:meta.attr.creation_time.markup">2017-11-24T02:36:10.000000Z</property>
  <property name="kdenlive:meta.attr.timecode.markup">02:36:10:06</property>
  <property name="kdenlive:meta.media.sample_aspect_num">1</property>
  <property name="kdenlive:meta.media.sample_aspect_den">1</property>
  <property name="kdenlive:meta.media.frame_rate_num">24</property>
  <property name="kdenlive:meta.media.frame_rate_den">1</property>
  <property name="kdenlive:meta.media.colorspace">709</property>
  <property name="kdenlive:meta.media.color_trc">1</property>
  <property name="kdenlive:meta.media.width">1920</property>
  <property name="kdenlive:meta.media.height">1080</property>
  <property name="kdenlive:meta.media.top_field_first">0</property>
  <property name="kdenlive:meta.media.progressive">1</property>
  <property name="meta.media.frame_rate_num">24</property>
  <property name="meta.media.frame_rate_den">1</property>
  <property name="meta.media.colorspace">709</property>
  <property name="meta.media.color_trc">1</property>
  <property name="meta.media.width">1920</property>
  <property name="meta.media.height">1080</property>
  <property name="meta.media.top_field_first">0</property>
  <property name="meta.media.progressive">1</property>
  <property name="meta.media.0.stream.type">video</property>
  <property name="meta.media.0.stream.frame_rate">24</property>
  <property name="meta.media.0.stream.sample_aspect_ratio">1</property>
  <property name="meta.media.0.codec.width">1920</property>
  <property name="meta.media.0.codec.height">1080</property>
  <property name="meta.media.0.codec.rotate">0</property>
  <property name="meta.media.0.codec.frame_rate">12288</property>
  <property name="meta.media.0.codec.pix_fmt">yuv422p10le</property>
  <property name="meta.media.0.codec.sample_aspect_ratio">0</property>
  <property name="meta.media.0.codec.colorspace">709</property>
  <property name="meta.media.0.codec.color_trc">1</property>
  <property name="meta.media.0.codec.name">dnxhd</property>
  <property name="meta.media.0.codec.long_name">VC3/DNxHD</property>
  <property name="meta.media.0.codec.bit_rate">176160768</property>
  <property name="meta.attr.0.stream.language.markup">eng</property>
  <property name="meta.attr.0.stream.handler_name.markup">Core Media Data Handler</property>
  <property name="meta.attr.0.stream.timecode.markup">02:36:10:06</property>
  <property name="meta.attr.major_brand.markup">qt  </property>
  <property name="meta.attr.minor_version.markup">512</property>
  <property name="meta.attr.compatible_brands.markup">qt  </property>
  <property name="meta.attr.encoder.markup">Lavf57.25.100</property>
 </producer>
 <producer title="Anonymous Submission" id="14" in="0" out="6121">
  <property name="length">00:04:15:02</property>
  <property name="eof">pause</property>
  <property name="resource">/media/bordun/Odile/SnapshatAuHarem/etalo/CAM2_2017-11-24_0243_C0006.mov</property>
  <property name="audio_index">2</property>
  <property name="video_index">0</property>
  <property name="mute_on_pause">1</property>
  <property name="mlt_service">avformat-novalidate</property>
  <property name="meta.media.nb_streams">2</property>
  <property name="meta.media.1.stream.type">video</property>
  <property name="meta.media.1.stream.frame_rate">24</property>
  <property name="meta.media.1.stream.sample_aspect_ratio">1</property>
  <property name="meta.media.1.codec.width">1920</property>
  <property name="meta.media.1.codec.height">1080</property>
  <property name="meta.media.1.codec.rotate">0</property>
  <property name="meta.media.1.codec.frame_rate">2400</property>
  <property name="meta.media.1.codec.pix_fmt">yuv422p10le</property>
  <property name="meta.media.1.codec.sample_aspect_ratio">0</property>
  <property name="meta.media.1.codec.colorspace">709</property>
  <property name="meta.media.1.codec.color_trc">1</property>
  <property name="meta.media.1.codec.name">prores</property>
  <property name="meta.media.1.codec.long_name">ProRes</property>
  <property name="meta.media.1.codec.bit_rate">176139611</property>
  <property name="meta.attr.1.stream.creation_time.markup">2017-11-24T02:43:43.000000Z</property>
  <property name="meta.attr.1.stream.language.markup">eng</property>
  <property name="meta.attr.1.stream.handler_name.markup">Apple Alias Data Handler</property>
  <property name="meta.attr.1.stream.encoder.markup">Apple ProRes 422 HQ</property>
  <property name="meta.attr.1.stream.timecode.markup">02:43:43:06</property>
  <property name="meta.media.2.stream.type">audio</property>
  <property name="meta.media.2.codec.sample_fmt">s32</property>
  <property name="meta.media.2.codec.sample_rate">48000</property>
  <property name="meta.media.2.codec.channels">2</property>
  <property name="meta.media.2.codec.name">pcm_s24le</property>
  <property name="meta.media.2.codec.long_name">PCM signed 24-bit little-endian</property>
  <property name="meta.media.2.codec.bit_rate">2304000</property>
  <property name="meta.attr.2.stream.creation_time.markup">2017-11-24T02:43:43.000000Z</property>
  <property name="meta.attr.2.stream.language.markup">eng</property>
  <property name="meta.attr.2.stream.handler_name.markup">Apple Alias Data Handler</property>
  <property name="meta.attr.2.stream.timecode.markup">02:43:43:06</property>
  <property name="meta.attr.com.apple.proapps.manufacturer.markup">Blackmagic Design</property>
  <property name="meta.attr.com.apple.proapps.cameraName.markup">CAM2</property>
  <property name="meta.attr.com.apple.proapps.isGood.markup">0</property>
  <property name="meta.attr.com.apple.proapps.customgamma.markup">com.blackmagic-design.cinemacamera.filmlog</property>
  <property name="meta.attr.com.blackmagic-design.cinemacamera.uuid.markup">18E5E00548F94923B646613A73C01B56</property>
  <property name="meta.attr.creation_time.markup">2017-11-24T02:43:43.000000Z</property>
  <property name="meta.attr.timecode.markup">02:43:43:06</property>
  <property name="seekable">1</property>
  <property name="meta.media.sample_aspect_num">1</property>
  <property name="meta.media.sample_aspect_den">1</property>
  <property name="aspect_ratio">1</property>
  <property name="kdenlive:folderid">-1</property>
  <property name="kdenlive:file_size">5691189833</property>
  <property name="kdenlive:file_hash">138855e87eadd367db96162201652602</property>
  <property name="kdenlive:proxy">-</property>
  <property name="proxy_out">6121</property>
  <property name="kdenlive:originalurl">src/04-06_Couplet2/mao1.sshfs/CAM2_2017-11-24_0243_C0006.mov</property>
  <property name="global_feed">1</property>
  <property name="kdenlive:meta.media.nb_streams">3</property>
  <property name="kdenlive:meta.media.1.stream.type">video</property>
  <property name="kdenlive:meta.media.1.stream.frame_rate">24</property>
  <property name="kdenlive:meta.media.1.stream.sample_aspect_ratio">1</property>
  <property name="kdenlive:meta.media.1.codec.width">1920</property>
  <property name="kdenlive:meta.media.1.codec.height">1080</property>
  <property name="kdenlive:meta.media.1.codec.rotate">0</property>
  <property name="kdenlive:meta.media.1.codec.frame_rate">2400</property>
  <property name="kdenlive:meta.media.1.codec.pix_fmt">yuv422p10le</property>
  <property name="kdenlive:meta.media.1.codec.sample_aspect_ratio">0</property>
  <property name="kdenlive:meta.media.1.codec.colorspace">709</property>
  <property name="kdenlive:meta.media.1.codec.color_trc">1</property>
  <property name="kdenlive:meta.media.1.codec.name">prores</property>
  <property name="kdenlive:meta.media.1.codec.long_name">ProRes</property>
  <property name="kdenlive:meta.media.1.codec.bit_rate">176139611</property>
  <property name="kdenlive:meta.attr.1.stream.creation_time.markup">2017-11-24T02:43:43.000000Z</property>
  <property name="kdenlive:meta.attr.1.stream.language.markup">eng</property>
  <property name="kdenlive:meta.attr.1.stream.handler_name.markup">Apple Alias Data Handler</property>
  <property name="kdenlive:meta.attr.1.stream.encoder.markup">Apple ProRes 422 HQ</property>
  <property name="kdenlive:meta.attr.1.stream.timecode.markup">02:43:43:06</property>
  <property name="kdenlive:meta.media.2.stream.type">audio</property>
  <property name="kdenlive:meta.media.2.codec.sample_fmt">s32</property>
  <property name="kdenlive:meta.media.2.codec.sample_rate">48000</property>
  <property name="kdenlive:meta.media.2.codec.channels">2</property>
  <property name="kdenlive:meta.media.2.codec.name">pcm_s24le</property>
  <property name="kdenlive:meta.media.2.codec.long_name">PCM signed 24-bit little-endian</property>
  <property name="kdenlive:meta.media.2.codec.bit_rate">2304000</property>
  <property name="kdenlive:meta.attr.2.stream.creation_time.markup">2017-11-24T02:43:43.000000Z</property>
  <property name="kdenlive:meta.attr.2.stream.language.markup">eng</property>
  <property name="kdenlive:meta.attr.2.stream.handler_name.markup">Apple Alias Data Handler</property>
  <property name="kdenlive:meta.attr.2.stream.timecode.markup">02:43:43:06</property>
  <property name="kdenlive:meta.attr.com.apple.proapps.manufacturer.markup">Blackmagic Design</property>
  <property name="kdenlive:meta.attr.com.apple.proapps.cameraName.markup">CAM2</property>
  <property name="kdenlive:meta.attr.com.apple.proapps.isGood.markup">0</property>
  <property name="kdenlive:meta.attr.com.apple.proapps.customgamma.markup">com.blackmagic-design.cinemacamera.filmlog</property>
  <property name="kdenlive:meta.attr.com.blackmagic-design.cinemacamera.uuid.markup">18E5E00548F94923B646613A73C01B56</property>
  <property name="kdenlive:meta.attr.creation_time.markup">2017-11-24T02:43:43.000000Z</property>
  <property name="kdenlive:meta.attr.timecode.markup">02:43:43:06</property>
  <property name="kdenlive:meta.media.sample_aspect_num">1</property>
  <property name="kdenlive:meta.media.sample_aspect_den">1</property>
  <property name="kdenlive:meta.media.frame_rate_num">24</property>
  <property name="kdenlive:meta.media.frame_rate_den">1</property>
  <property name="kdenlive:meta.media.colorspace">709</property>
  <property name="kdenlive:meta.media.color_trc">1</property>
  <property name="kdenlive:meta.media.width">1920</property>
  <property name="kdenlive:meta.media.height">1080</property>
  <property name="kdenlive:meta.media.top_field_first">0</property>
  <property name="kdenlive:meta.media.progressive">1</property>
  <property name="meta.media.frame_rate_num">24</property>
  <property name="meta.media.frame_rate_den">1</property>
  <property name="meta.media.colorspace">709</property>
  <property name="meta.media.color_trc">1</property>
  <property name="meta.media.width">1920</property>
  <property name="meta.media.height">1080</property>
  <property name="meta.media.top_field_first">0</property>
  <property name="meta.media.progressive">1</property>
  <property name="meta.media.0.stream.type">video</property>
  <property name="meta.media.0.stream.frame_rate">24</property>
  <property name="meta.media.0.stream.sample_aspect_ratio">1</property>
  <property name="meta.media.0.codec.width">1920</property>
  <property name="meta.media.0.codec.height">1080</property>
  <property name="meta.media.0.codec.rotate">0</property>
  <property name="meta.media.0.codec.frame_rate">12288</property>
  <property name="meta.media.0.codec.pix_fmt">yuv422p10le</property>
  <property name="meta.media.0.codec.sample_aspect_ratio">0</property>
  <property name="meta.media.0.codec.colorspace">709</property>
  <property name="meta.media.0.codec.color_trc">1</property>
  <property name="meta.media.0.codec.name">dnxhd</property>
  <property name="meta.media.0.codec.long_name">VC3/DNxHD</property>
  <property name="meta.media.0.codec.bit_rate">176160768</property>
  <property name="meta.attr.0.stream.language.markup">eng</property>
  <property name="meta.attr.0.stream.handler_name.markup">Core Media Data Handler</property>
  <property name="meta.attr.0.stream.timecode.markup">02:43:43:06</property>
  <property name="meta.attr.major_brand.markup">qt  </property>
  <property name="meta.attr.minor_version.markup">512</property>
  <property name="meta.attr.compatible_brands.markup">qt  </property>
  <property name="meta.attr.encoder.markup">Lavf57.25.100</property>
 </producer>
 <producer title="Anonymous Submission" id="15" in="0" out="4106">
  <property name="length">00:02:51:03</property>
  <property name="eof">pause</property>
  <property name="resource">/media/bordun/Odile/SnapshatAuHarem/etalo/CAM2_2017-11-24_1117_C0001.mov</property>
  <property name="audio_index">2</property>
  <property name="video_index">0</property>
  <property name="mute_on_pause">1</property>
  <property name="mlt_service">avformat-novalidate</property>
  <property name="meta.media.nb_streams">2</property>
  <property name="meta.media.1.stream.type">video</property>
  <property name="meta.media.1.stream.frame_rate">24</property>
  <property name="meta.media.1.stream.sample_aspect_ratio">1</property>
  <property name="meta.media.1.codec.width">1920</property>
  <property name="meta.media.1.codec.height">1080</property>
  <property name="meta.media.1.codec.rotate">0</property>
  <property name="meta.media.1.codec.frame_rate">2400</property>
  <property name="meta.media.1.codec.pix_fmt">yuv422p10le</property>
  <property name="meta.media.1.codec.sample_aspect_ratio">0</property>
  <property name="meta.media.1.codec.colorspace">709</property>
  <property name="meta.media.1.codec.color_trc">1</property>
  <property name="meta.media.1.codec.name">prores</property>
  <property name="meta.media.1.codec.long_name">ProRes</property>
  <property name="meta.media.1.codec.bit_rate">176139791</property>
  <property name="meta.attr.1.stream.creation_time.markup">2017-11-24T11:17:56.000000Z</property>
  <property name="meta.attr.1.stream.language.markup">eng</property>
  <property name="meta.attr.1.stream.handler_name.markup">Apple Alias Data Handler</property>
  <property name="meta.attr.1.stream.encoder.markup">Apple ProRes 422 HQ</property>
  <property name="meta.attr.1.stream.timecode.markup">11:17:56:09</property>
  <property name="meta.media.2.stream.type">audio</property>
  <property name="meta.media.2.codec.sample_fmt">s32</property>
  <property name="meta.media.2.codec.sample_rate">48000</property>
  <property name="meta.media.2.codec.channels">2</property>
  <property name="meta.media.2.codec.name">pcm_s24le</property>
  <property name="meta.media.2.codec.long_name">PCM signed 24-bit little-endian</property>
  <property name="meta.media.2.codec.bit_rate">2304000</property>
  <property name="meta.attr.2.stream.creation_time.markup">2017-11-24T11:17:56.000000Z</property>
  <property name="meta.attr.2.stream.language.markup">eng</property>
  <property name="meta.attr.2.stream.handler_name.markup">Apple Alias Data Handler</property>
  <property name="meta.attr.2.stream.timecode.markup">11:17:56:09</property>
  <property name="meta.attr.com.apple.proapps.manufacturer.markup">Blackmagic Design</property>
  <property name="meta.attr.com.apple.proapps.cameraName.markup">CAM2</property>
  <property name="meta.attr.com.apple.proapps.isGood.markup">0</property>
  <property name="meta.attr.com.apple.proapps.customgamma.markup">com.blackmagic-design.cinemacamera.filmlog</property>
  <property name="meta.attr.com.blackmagic-design.cinemacamera.uuid.markup">18E5E00548F94923B646613A73C01B56</property>
  <property name="meta.attr.creation_time.markup">2017-11-24T11:17:56.000000Z</property>
  <property name="meta.attr.timecode.markup">11:17:56:09</property>
  <property name="seekable">1</property>
  <property name="meta.media.sample_aspect_num">1</property>
  <property name="meta.media.sample_aspect_den">1</property>
  <property name="aspect_ratio">1</property>
  <property name="kdenlive:folderid">-1</property>
  <property name="kdenlive:file_size">3817991081</property>
  <property name="kdenlive:file_hash">e89f437a6cab322b45877ac37506466d</property>
  <property name="kdenlive:proxy">-</property>
  <property name="proxy_out">4106</property>
  <property name="kdenlive:originalurl">src/04-06_Couplet2/mao1.sshfs/CAM2_2017-11-24_1117_C0001.mov</property>
  <property name="global_feed">1</property>
  <property name="kdenlive:meta.media.nb_streams">3</property>
  <property name="kdenlive:meta.media.1.stream.type">video</property>
  <property name="kdenlive:meta.media.1.stream.frame_rate">24</property>
  <property name="kdenlive:meta.media.1.stream.sample_aspect_ratio">1</property>
  <property name="kdenlive:meta.media.1.codec.width">1920</property>
  <property name="kdenlive:meta.media.1.codec.height">1080</property>
  <property name="kdenlive:meta.media.1.codec.rotate">0</property>
  <property name="kdenlive:meta.media.1.codec.frame_rate">2400</property>
  <property name="kdenlive:meta.media.1.codec.pix_fmt">yuv422p10le</property>
  <property name="kdenlive:meta.media.1.codec.sample_aspect_ratio">0</property>
  <property name="kdenlive:meta.media.1.codec.colorspace">709</property>
  <property name="kdenlive:meta.media.1.codec.color_trc">1</property>
  <property name="kdenlive:meta.media.1.codec.name">prores</property>
  <property name="kdenlive:meta.media.1.codec.long_name">ProRes</property>
  <property name="kdenlive:meta.media.1.codec.bit_rate">176139791</property>
  <property name="kdenlive:meta.attr.1.stream.creation_time.markup">2017-11-24T11:17:56.000000Z</property>
  <property name="kdenlive:meta.attr.1.stream.language.markup">eng</property>
  <property name="kdenlive:meta.attr.1.stream.handler_name.markup">Apple Alias Data Handler</property>
  <property name="kdenlive:meta.attr.1.stream.encoder.markup">Apple ProRes 422 HQ</property>
  <property name="kdenlive:meta.attr.1.stream.timecode.markup">11:17:56:09</property>
  <property name="kdenlive:meta.media.2.stream.type">audio</property>
  <property name="kdenlive:meta.media.2.codec.sample_fmt">s32</property>
  <property name="kdenlive:meta.media.2.codec.sample_rate">48000</property>
  <property name="kdenlive:meta.media.2.codec.channels">2</property>
  <property name="kdenlive:meta.media.2.codec.name">pcm_s24le</property>
  <property name="kdenlive:meta.media.2.codec.long_name">PCM signed 24-bit little-endian</property>
  <property name="kdenlive:meta.media.2.codec.bit_rate">2304000</property>
  <property name="kdenlive:meta.attr.2.stream.creation_time.markup">2017-11-24T11:17:56.000000Z</property>
  <property name="kdenlive:meta.attr.2.stream.language.markup">eng</property>
  <property name="kdenlive:meta.attr.2.stream.handler_name.markup">Apple Alias Data Handler</property>
  <property name="kdenlive:meta.attr.2.stream.timecode.markup">11:17:56:09</property>
  <property name="kdenlive:meta.attr.com.apple.proapps.manufacturer.markup">Blackmagic Design</property>
  <property name="kdenlive:meta.attr.com.apple.proapps.cameraName.markup">CAM2</property>
  <property name="kdenlive:meta.attr.com.apple.proapps.isGood.markup">0</property>
  <property name="kdenlive:meta.attr.com.apple.proapps.customgamma.markup">com.blackmagic-design.cinemacamera.filmlog</property>
  <property name="kdenlive:meta.attr.com.blackmagic-design.cinemacamera.uuid.markup">18E5E00548F94923B646613A73C01B56</property>
  <property name="kdenlive:meta.attr.creation_time.markup">2017-11-24T11:17:56.000000Z</property>
  <property name="kdenlive:meta.attr.timecode.markup">11:17:56:09</property>
  <property name="kdenlive:meta.media.sample_aspect_num">1</property>
  <property name="kdenlive:meta.media.sample_aspect_den">1</property>
  <property name="kdenlive:meta.media.frame_rate_num">24</property>
  <property name="kdenlive:meta.media.frame_rate_den">1</property>
  <property name="kdenlive:meta.media.colorspace">709</property>
  <property name="kdenlive:meta.media.color_trc">1</property>
  <property name="kdenlive:meta.media.width">1920</property>
  <property name="kdenlive:meta.media.height">1080</property>
  <property name="kdenlive:meta.media.top_field_first">0</property>
  <property name="kdenlive:meta.media.progressive">1</property>
  <property name="meta.media.frame_rate_num">24</property>
  <property name="meta.media.frame_rate_den">1</property>
  <property name="meta.media.colorspace">709</property>
  <property name="meta.media.color_trc">1</property>
  <property name="meta.media.width">1920</property>
  <property name="meta.media.height">1080</property>
  <property name="meta.media.top_field_first">0</property>
  <property name="meta.media.progressive">1</property>
  <property name="meta.media.0.stream.type">video</property>
  <property name="meta.media.0.stream.frame_rate">24</property>
  <property name="meta.media.0.stream.sample_aspect_ratio">1</property>
  <property name="meta.media.0.codec.width">1920</property>
  <property name="meta.media.0.codec.height">1080</property>
  <property name="meta.media.0.codec.rotate">0</property>
  <property name="meta.media.0.codec.frame_rate">12288</property>
  <property name="meta.media.0.codec.pix_fmt">yuv422p10le</property>
  <property name="meta.media.0.codec.sample_aspect_ratio">0</property>
  <property name="meta.media.0.codec.colorspace">709</property>
  <property name="meta.media.0.codec.color_trc">1</property>
  <property name="meta.media.0.codec.name">dnxhd</property>
  <property name="meta.media.0.codec.long_name">VC3/DNxHD</property>
  <property name="meta.media.0.codec.bit_rate">176160768</property>
  <property name="meta.attr.0.stream.language.markup">eng</property>
  <property name="meta.attr.0.stream.handler_name.markup">Core Media Data Handler</property>
  <property name="meta.attr.0.stream.timecode.markup">11:17:56:09</property>
  <property name="meta.attr.major_brand.markup">qt  </property>
  <property name="meta.attr.minor_version.markup">512</property>
  <property name="meta.attr.compatible_brands.markup">qt  </property>
  <property name="meta.attr.encoder.markup">Lavf57.25.100</property>
 </producer>
 <producer title="Anonymous Submission" id="16" in="0" out="1815">
  <property name="length">00:01:15:16</property>
  <property name="eof">pause</property>
  <property name="resource">/media/bordun/Odile/SnapshatAuHarem/etalo/CAM2_2017-11-24_1130_C0003.mov</property>
  <property name="audio_index">2</property>
  <property name="video_index">0</property>
  <property name="mute_on_pause">1</property>
  <property name="mlt_service">avformat-novalidate</property>
  <property name="meta.media.nb_streams">2</property>
  <property name="meta.media.1.stream.type">video</property>
  <property name="meta.media.1.stream.frame_rate">24</property>
  <property name="meta.media.1.stream.sample_aspect_ratio">1</property>
  <property name="meta.media.1.codec.width">1920</property>
  <property name="meta.media.1.codec.height">1080</property>
  <property name="meta.media.1.codec.rotate">0</property>
  <property name="meta.media.1.codec.frame_rate">2400</property>
  <property name="meta.media.1.codec.pix_fmt">yuv422p10le</property>
  <property name="meta.media.1.codec.sample_aspect_ratio">0</property>
  <property name="meta.media.1.codec.colorspace">709</property>
  <property name="meta.media.1.codec.color_trc">1</property>
  <property name="meta.media.1.codec.name">prores</property>
  <property name="meta.media.1.codec.long_name">ProRes</property>
  <property name="meta.media.1.codec.bit_rate">176140125</property>
  <property name="meta.attr.1.stream.creation_time.markup">2017-11-24T11:30:24.000000Z</property>
  <property name="meta.attr.1.stream.language.markup">eng</property>
  <property name="meta.attr.1.stream.handler_name.markup">Apple Alias Data Handler</property>
  <property name="meta.attr.1.stream.encoder.markup">Apple ProRes 422 HQ</property>
  <property name="meta.attr.1.stream.timecode.markup">11:30:24:23</property>
  <property name="meta.media.2.stream.type">audio</property>
  <property name="meta.media.2.codec.sample_fmt">s32</property>
  <property name="meta.media.2.codec.sample_rate">48000</property>
  <property name="meta.media.2.codec.channels">2</property>
  <property name="meta.media.2.codec.name">pcm_s24le</property>
  <property name="meta.media.2.codec.long_name">PCM signed 24-bit little-endian</property>
  <property name="meta.media.2.codec.bit_rate">2304000</property>
  <property name="meta.attr.2.stream.creation_time.markup">2017-11-24T11:30:24.000000Z</property>
  <property name="meta.attr.2.stream.language.markup">eng</property>
  <property name="meta.attr.2.stream.handler_name.markup">Apple Alias Data Handler</property>
  <property name="meta.attr.2.stream.timecode.markup">11:30:24:23</property>
  <property name="meta.attr.com.apple.proapps.manufacturer.markup">Blackmagic Design</property>
  <property name="meta.attr.com.apple.proapps.cameraName.markup">CAM2</property>
  <property name="meta.attr.com.apple.proapps.isGood.markup">0</property>
  <property name="meta.attr.com.apple.proapps.customgamma.markup">com.blackmagic-design.cinemacamera.filmlog</property>
  <property name="meta.attr.com.blackmagic-design.cinemacamera.uuid.markup">18E5E00548F94923B646613A73C01B56</property>
  <property name="meta.attr.creation_time.markup">2017-11-24T11:30:24.000000Z</property>
  <property name="meta.attr.timecode.markup">11:30:24:23</property>
  <property name="seekable">1</property>
  <property name="meta.media.sample_aspect_num">1</property>
  <property name="meta.media.sample_aspect_den">1</property>
  <property name="aspect_ratio">1</property>
  <property name="kdenlive:folderid">-1</property>
  <property name="kdenlive:file_size">1688212137</property>
  <property name="kdenlive:file_hash">9e3b238311cbd7c98462643bd5208d2f</property>
  <property name="kdenlive:proxy">-</property>
  <property name="proxy_out">1815</property>
  <property name="kdenlive:originalurl">src/04-06_Couplet2/mao1.sshfs/CAM2_2017-11-24_1130_C0003.mov</property>
  <property name="global_feed">1</property>
  <property name="kdenlive:meta.media.nb_streams">3</property>
  <property name="kdenlive:meta.media.1.stream.type">video</property>
  <property name="kdenlive:meta.media.1.stream.frame_rate">24</property>
  <property name="kdenlive:meta.media.1.stream.sample_aspect_ratio">1</property>
  <property name="kdenlive:meta.media.1.codec.width">1920</property>
  <property name="kdenlive:meta.media.1.codec.height">1080</property>
  <property name="kdenlive:meta.media.1.codec.rotate">0</property>
  <property name="kdenlive:meta.media.1.codec.frame_rate">2400</property>
  <property name="kdenlive:meta.media.1.codec.pix_fmt">yuv422p10le</property>
  <property name="kdenlive:meta.media.1.codec.sample_aspect_ratio">0</property>
  <property name="kdenlive:meta.media.1.codec.colorspace">709</property>
  <property name="kdenlive:meta.media.1.codec.color_trc">1</property>
  <property name="kdenlive:meta.media.1.codec.name">prores</property>
  <property name="kdenlive:meta.media.1.codec.long_name">ProRes</property>
  <property name="kdenlive:meta.media.1.codec.bit_rate">176140125</property>
  <property name="kdenlive:meta.attr.1.stream.creation_time.markup">2017-11-24T11:30:24.000000Z</property>
  <property name="kdenlive:meta.attr.1.stream.language.markup">eng</property>
  <property name="kdenlive:meta.attr.1.stream.handler_name.markup">Apple Alias Data Handler</property>
  <property name="kdenlive:meta.attr.1.stream.encoder.markup">Apple ProRes 422 HQ</property>
  <property name="kdenlive:meta.attr.1.stream.timecode.markup">11:30:24:23</property>
  <property name="kdenlive:meta.media.2.stream.type">audio</property>
  <property name="kdenlive:meta.media.2.codec.sample_fmt">s32</property>
  <property name="kdenlive:meta.media.2.codec.sample_rate">48000</property>
  <property name="kdenlive:meta.media.2.codec.channels">2</property>
  <property name="kdenlive:meta.media.2.codec.name">pcm_s24le</property>
  <property name="kdenlive:meta.media.2.codec.long_name">PCM signed 24-bit little-endian</property>
  <property name="kdenlive:meta.media.2.codec.bit_rate">2304000</property>
  <property name="kdenlive:meta.attr.2.stream.creation_time.markup">2017-11-24T11:30:24.000000Z</property>
  <property name="kdenlive:meta.attr.2.stream.language.markup">eng</property>
  <property name="kdenlive:meta.attr.2.stream.handler_name.markup">Apple Alias Data Handler</property>
  <property name="kdenlive:meta.attr.2.stream.timecode.markup">11:30:24:23</property>
  <property name="kdenlive:meta.attr.com.apple.proapps.manufacturer.markup">Blackmagic Design</property>
  <property name="kdenlive:meta.attr.com.apple.proapps.cameraName.markup">CAM2</property>
  <property name="kdenlive:meta.attr.com.apple.proapps.isGood.markup">0</property>
  <property name="kdenlive:meta.attr.com.apple.proapps.customgamma.markup">com.blackmagic-design.cinemacamera.filmlog</property>
  <property name="kdenlive:meta.attr.com.blackmagic-design.cinemacamera.uuid.markup">18E5E00548F94923B646613A73C01B56</property>
  <property name="kdenlive:meta.attr.creation_time.markup">2017-11-24T11:30:24.000000Z</property>
  <property name="kdenlive:meta.attr.timecode.markup">11:30:24:23</property>
  <property name="kdenlive:meta.media.sample_aspect_num">1</property>
  <property name="kdenlive:meta.media.sample_aspect_den">1</property>
  <property name="kdenlive:meta.media.frame_rate_num">24</property>
  <property name="kdenlive:meta.media.frame_rate_den">1</property>
  <property name="kdenlive:meta.media.colorspace">709</property>
  <property name="kdenlive:meta.media.color_trc">1</property>
  <property name="kdenlive:meta.media.width">1920</property>
  <property name="kdenlive:meta.media.height">1080</property>
  <property name="kdenlive:meta.media.top_field_first">0</property>
  <property name="kdenlive:meta.media.progressive">1</property>
  <property name="meta.media.frame_rate_num">24</property>
  <property name="meta.media.frame_rate_den">1</property>
  <property name="meta.media.colorspace">709</property>
  <property name="meta.media.color_trc">1</property>
  <property name="meta.media.width">1920</property>
  <property name="meta.media.height">1080</property>
  <property name="meta.media.top_field_first">0</property>
  <property name="meta.media.progressive">1</property>
  <property name="meta.media.0.stream.type">video</property>
  <property name="meta.media.0.stream.frame_rate">24</property>
  <property name="meta.media.0.stream.sample_aspect_ratio">1</property>
  <property name="meta.media.0.codec.width">1920</property>
  <property name="meta.media.0.codec.height">1080</property>
  <property name="meta.media.0.codec.rotate">0</property>
  <property name="meta.media.0.codec.frame_rate">12288</property>
  <property name="meta.media.0.codec.pix_fmt">yuv422p10le</property>
  <property name="meta.media.0.codec.sample_aspect_ratio">0</property>
  <property name="meta.media.0.codec.colorspace">709</property>
  <property name="meta.media.0.codec.color_trc">1</property>
  <property name="meta.media.0.codec.name">dnxhd</property>
  <property name="meta.media.0.codec.long_name">VC3/DNxHD</property>
  <property name="meta.media.0.codec.bit_rate">176160768</property>
  <property name="meta.attr.0.stream.language.markup">eng</property>
  <property name="meta.attr.0.stream.handler_name.markup">Core Media Data Handler</property>
  <property name="meta.attr.0.stream.timecode.markup">11:30:24:23</property>
  <property name="meta.attr.major_brand.markup">qt  </property>
  <property name="meta.attr.minor_version.markup">512</property>
  <property name="meta.attr.compatible_brands.markup">qt  </property>
  <property name="meta.attr.encoder.markup">Lavf57.25.100</property>
 </producer>
 <producer title="Anonymous Submission" id="17" in="0" out="8136">
  <property name="length">00:05:39:01</property>
  <property name="eof">pause</property>
  <property name="resource">/media/bordun/Odile/SnapshatAuHarem/etalo/CAM2_2017-11-25_0904_C0015.mov</property>
  <property name="audio_index">2</property>
  <property name="video_index">0</property>
  <property name="mute_on_pause">1</property>
  <property name="mlt_service">avformat-novalidate</property>
  <property name="meta.media.nb_streams">2</property>
  <property name="meta.media.1.stream.type">video</property>
  <property name="meta.media.1.stream.frame_rate">24</property>
  <property name="meta.media.1.stream.sample_aspect_ratio">1</property>
  <property name="meta.media.1.codec.width">1920</property>
  <property name="meta.media.1.codec.height">1080</property>
  <property name="meta.media.1.codec.rotate">0</property>
  <property name="meta.media.1.codec.frame_rate">2400</property>
  <property name="meta.media.1.codec.pix_fmt">yuv422p10le</property>
  <property name="meta.media.1.codec.sample_aspect_ratio">0</property>
  <property name="meta.media.1.codec.colorspace">709</property>
  <property name="meta.media.1.codec.color_trc">1</property>
  <property name="meta.media.1.codec.name">prores</property>
  <property name="meta.media.1.codec.long_name">ProRes</property>
  <property name="meta.media.1.codec.bit_rate">176138876</property>
  <property name="meta.attr.1.stream.creation_time.markup">2017-11-25T09:04:57.000000Z</property>
  <property name="meta.attr.1.stream.language.markup">eng</property>
  <property name="meta.attr.1.stream.handler_name.markup">Apple Alias Data Handler</property>
  <property name="meta.attr.1.stream.encoder.markup">Apple ProRes 422 HQ</property>
  <property name="meta.attr.1.stream.timecode.markup">09:04:57:06</property>
  <property name="meta.media.2.stream.type">audio</property>
  <property name="meta.media.2.codec.sample_fmt">s32</property>
  <property name="meta.media.2.codec.sample_rate">48000</property>
  <property name="meta.media.2.codec.channels">2</property>
  <property name="meta.media.2.codec.name">pcm_s24le</property>
  <property name="meta.media.2.codec.long_name">PCM signed 24-bit little-endian</property>
  <property name="meta.media.2.codec.bit_rate">2304000</property>
  <property name="meta.attr.2.stream.creation_time.markup">2017-11-25T09:04:57.000000Z</property>
  <property name="meta.attr.2.stream.language.markup">eng</property>
  <property name="meta.attr.2.stream.handler_name.markup">Apple Alias Data Handler</property>
  <property name="meta.attr.2.stream.timecode.markup">09:04:57:06</property>
  <property name="meta.attr.com.apple.proapps.manufacturer.markup">Blackmagic Design</property>
  <property name="meta.attr.com.apple.proapps.cameraName.markup">CAM2</property>
  <property name="meta.attr.com.apple.proapps.isGood.markup">0</property>
  <property name="meta.attr.com.apple.proapps.customgamma.markup">com.blackmagic-design.cinemacamera.filmlog</property>
  <property name="meta.attr.com.blackmagic-design.cinemacamera.uuid.markup">18E5E00548F94923B646613A73C01B56</property>
  <property name="meta.attr.creation_time.markup">2017-11-25T09:04:57.000000Z</property>
  <property name="meta.attr.timecode.markup">09:04:57:06</property>
  <property name="seekable">1</property>
  <property name="meta.media.sample_aspect_num">1</property>
  <property name="meta.media.sample_aspect_den">1</property>
  <property name="aspect_ratio">1</property>
  <property name="kdenlive:folderid">-1</property>
  <property name="kdenlive:file_size">7564389609</property>
  <property name="kdenlive:file_hash">260f4d967ff432f80e7391eb6465c3fd</property>
  <property name="kdenlive:proxy">-</property>
  <property name="proxy_out">8136</property>
  <property name="kdenlive:originalurl">src/04-06_Couplet2/mao1.sshfs/CAM2_2017-11-25_0904_C0015.mov</property>
  <property name="global_feed">1</property>
  <property name="kdenlive:meta.media.nb_streams">3</property>
  <property name="kdenlive:meta.media.1.stream.type">video</property>
  <property name="kdenlive:meta.media.1.stream.frame_rate">24</property>
  <property name="kdenlive:meta.media.1.stream.sample_aspect_ratio">1</property>
  <property name="kdenlive:meta.media.1.codec.width">1920</property>
  <property name="kdenlive:meta.media.1.codec.height">1080</property>
  <property name="kdenlive:meta.media.1.codec.rotate">0</property>
  <property name="kdenlive:meta.media.1.codec.frame_rate">2400</property>
  <property name="kdenlive:meta.media.1.codec.pix_fmt">yuv422p10le</property>
  <property name="kdenlive:meta.media.1.codec.sample_aspect_ratio">0</property>
  <property name="kdenlive:meta.media.1.codec.colorspace">709</property>
  <property name="kdenlive:meta.media.1.codec.color_trc">1</property>
  <property name="kdenlive:meta.media.1.codec.name">prores</property>
  <property name="kdenlive:meta.media.1.codec.long_name">ProRes</property>
  <property name="kdenlive:meta.media.1.codec.bit_rate">176138876</property>
  <property name="kdenlive:meta.attr.1.stream.creation_time.markup">2017-11-25T09:04:57.000000Z</property>
  <property name="kdenlive:meta.attr.1.stream.language.markup">eng</property>
  <property name="kdenlive:meta.attr.1.stream.handler_name.markup">Apple Alias Data Handler</property>
  <property name="kdenlive:meta.attr.1.stream.encoder.markup">Apple ProRes 422 HQ</property>
  <property name="kdenlive:meta.attr.1.stream.timecode.markup">09:04:57:06</property>
  <property name="kdenlive:meta.media.2.stream.type">audio</property>
  <property name="kdenlive:meta.media.2.codec.sample_fmt">s32</property>
  <property name="kdenlive:meta.media.2.codec.sample_rate">48000</property>
  <property name="kdenlive:meta.media.2.codec.channels">2</property>
  <property name="kdenlive:meta.media.2.codec.name">pcm_s24le</property>
  <property name="kdenlive:meta.media.2.codec.long_name">PCM signed 24-bit little-endian</property>
  <property name="kdenlive:meta.media.2.codec.bit_rate">2304000</property>
  <property name="kdenlive:meta.attr.2.stream.creation_time.markup">2017-11-25T09:04:57.000000Z</property>
  <property name="kdenlive:meta.attr.2.stream.language.markup">eng</property>
  <property name="kdenlive:meta.attr.2.stream.handler_name.markup">Apple Alias Data Handler</property>
  <property name="kdenlive:meta.attr.2.stream.timecode.markup">09:04:57:06</property>
  <property name="kdenlive:meta.attr.com.apple.proapps.manufacturer.markup">Blackmagic Design</property>
  <property name="kdenlive:meta.attr.com.apple.proapps.cameraName.markup">CAM2</property>
  <property name="kdenlive:meta.attr.com.apple.proapps.isGood.markup">0</property>
  <property name="kdenlive:meta.attr.com.apple.proapps.customgamma.markup">com.blackmagic-design.cinemacamera.filmlog</property>
  <property name="kdenlive:meta.attr.com.blackmagic-design.cinemacamera.uuid.markup">18E5E00548F94923B646613A73C01B56</property>
  <property name="kdenlive:meta.attr.creation_time.markup">2017-11-25T09:04:57.000000Z</property>
  <property name="kdenlive:meta.attr.timecode.markup">09:04:57:06</property>
  <property name="kdenlive:meta.media.sample_aspect_num">1</property>
  <property name="kdenlive:meta.media.sample_aspect_den">1</property>
  <property name="kdenlive:meta.media.frame_rate_num">24</property>
  <property name="kdenlive:meta.media.frame_rate_den">1</property>
  <property name="kdenlive:meta.media.colorspace">709</property>
  <property name="kdenlive:meta.media.color_trc">1</property>
  <property name="kdenlive:meta.media.width">1920</property>
  <property name="kdenlive:meta.media.height">1080</property>
  <property name="kdenlive:meta.media.top_field_first">0</property>
  <property name="kdenlive:meta.media.progressive">1</property>
  <property name="meta.media.frame_rate_num">24</property>
  <property name="meta.media.frame_rate_den">1</property>
  <property name="meta.media.colorspace">709</property>
  <property name="meta.media.color_trc">1</property>
  <property name="meta.media.width">1920</property>
  <property name="meta.media.height">1080</property>
  <property name="meta.media.top_field_first">0</property>
  <property name="meta.media.progressive">1</property>
  <property name="meta.media.0.stream.type">video</property>
  <property name="meta.media.0.stream.frame_rate">24</property>
  <property name="meta.media.0.stream.sample_aspect_ratio">1</property>
  <property name="meta.media.0.codec.width">1920</property>
  <property name="meta.media.0.codec.height">1080</property>
  <property name="meta.media.0.codec.rotate">0</property>
  <property name="meta.media.0.codec.frame_rate">12288</property>
  <property name="meta.media.0.codec.pix_fmt">yuv422p10le</property>
  <property name="meta.media.0.codec.sample_aspect_ratio">0</property>
  <property name="meta.media.0.codec.colorspace">709</property>
  <property name="meta.media.0.codec.color_trc">1</property>
  <property name="meta.media.0.codec.name">dnxhd</property>
  <property name="meta.media.0.codec.long_name">VC3/DNxHD</property>
  <property name="meta.media.0.codec.bit_rate">176160768</property>
  <property name="meta.attr.0.stream.language.markup">eng</property>
  <property name="meta.attr.0.stream.handler_name.markup">Core Media Data Handler</property>
  <property name="meta.attr.0.stream.timecode.markup">09:04:57:06</property>
  <property name="meta.attr.major_brand.markup">qt  </property>
  <property name="meta.attr.minor_version.markup">512</property>
  <property name="meta.attr.compatible_brands.markup">qt  </property>
  <property name="meta.attr.encoder.markup">Lavf57.25.100</property>
 </producer>
 <producer title="Anonymous Submission" id="18" in="0" out="4770">
  <property name="length">00:03:18:19</property>
  <property name="eof">pause</property>
  <property name="resource">/media/bordun/Odile/SnapshatAuHarem/etalo/CAM2_2017-11-25_0314_C0000.mov</property>
  <property name="audio_index">2</property>
  <property name="video_index">0</property>
  <property name="mute_on_pause">1</property>
  <property name="mlt_service">avformat-novalidate</property>
  <property name="meta.media.nb_streams">2</property>
  <property name="meta.media.1.stream.type">video</property>
  <property name="meta.media.1.stream.frame_rate">24</property>
  <property name="meta.media.1.stream.sample_aspect_ratio">1</property>
  <property name="meta.media.1.codec.width">1920</property>
  <property name="meta.media.1.codec.height">1080</property>
  <property name="meta.media.1.codec.rotate">0</property>
  <property name="meta.media.1.codec.frame_rate">2400</property>
  <property name="meta.media.1.codec.pix_fmt">yuv422p10le</property>
  <property name="meta.media.1.codec.sample_aspect_ratio">0</property>
  <property name="meta.media.1.codec.colorspace">709</property>
  <property name="meta.media.1.codec.color_trc">1</property>
  <property name="meta.media.1.codec.name">prores</property>
  <property name="meta.media.1.codec.long_name">ProRes</property>
  <property name="meta.media.1.codec.bit_rate">176139916</property>
  <property name="meta.attr.1.stream.creation_time.markup">2017-11-25T03:14:02.000000Z</property>
  <property name="meta.attr.1.stream.language.markup">eng</property>
  <property name="meta.attr.1.stream.handler_name.markup">Apple Alias Data Handler</property>
  <property name="meta.attr.1.stream.encoder.markup">Apple ProRes 422 HQ</property>
  <property name="meta.attr.1.stream.timecode.markup">03:14:02:23</property>
  <property name="meta.media.2.stream.type">audio</property>
  <property name="meta.media.2.codec.sample_fmt">s32</property>
  <property name="meta.media.2.codec.sample_rate">48000</property>
  <property name="meta.media.2.codec.channels">2</property>
  <property name="meta.media.2.codec.name">pcm_s24le</property>
  <property name="meta.media.2.codec.long_name">PCM signed 24-bit little-endian</property>
  <property name="meta.media.2.codec.bit_rate">2304000</property>
  <property name="meta.attr.2.stream.creation_time.markup">2017-11-25T03:14:02.000000Z</property>
  <property name="meta.attr.2.stream.language.markup">eng</property>
  <property name="meta.attr.2.stream.handler_name.markup">Apple Alias Data Handler</property>
  <property name="meta.attr.2.stream.timecode.markup">03:14:02:23</property>
  <property name="meta.attr.com.apple.proapps.manufacturer.markup">Blackmagic Design</property>
  <property name="meta.attr.com.apple.proapps.cameraName.markup">CAM2</property>
  <property name="meta.attr.com.apple.proapps.isGood.markup">0</property>
  <property name="meta.attr.com.apple.proapps.customgamma.markup">com.blackmagic-design.cinemacamera.filmlog</property>
  <property name="meta.attr.com.blackmagic-design.cinemacamera.uuid.markup">18E5E00548F94923B646613A73C01B56</property>
  <property name="meta.attr.creation_time.markup">2017-11-25T03:14:02.000000Z</property>
  <property name="meta.attr.timecode.markup">03:14:02:23</property>
  <property name="seekable">1</property>
  <property name="meta.media.sample_aspect_num">1</property>
  <property name="meta.media.sample_aspect_den">1</property>
  <property name="aspect_ratio">1</property>
  <property name="kdenlive:folderid">-1</property>
  <property name="kdenlive:file_size">4435262081</property>
  <property name="kdenlive:file_hash">b8760f3be8f075de8abd8e49fdd57d02</property>
  <property name="kdenlive:proxy">-</property>
  <property name="proxy_out">4770</property>
  <property name="kdenlive:originalurl">src/TheWholeRushes/Dimanche_matin/CAM2_2017-11-25_0314_C0000.mov</property>
  <property name="global_feed">1</property>
  <property name="kdenlive:meta.media.nb_streams">3</property>
  <property name="kdenlive:meta.media.1.stream.type">video</property>
  <property name="kdenlive:meta.media.1.stream.frame_rate">24</property>
  <property name="kdenlive:meta.media.1.stream.sample_aspect_ratio">1</property>
  <property name="kdenlive:meta.media.1.codec.width">1920</property>
  <property name="kdenlive:meta.media.1.codec.height">1080</property>
  <property name="kdenlive:meta.media.1.codec.rotate">0</property>
  <property name="kdenlive:meta.media.1.codec.frame_rate">2400</property>
  <property name="kdenlive:meta.media.1.codec.pix_fmt">yuv422p10le</property>
  <property name="kdenlive:meta.media.1.codec.sample_aspect_ratio">0</property>
  <property name="kdenlive:meta.media.1.codec.colorspace">709</property>
  <property name="kdenlive:meta.media.1.codec.color_trc">1</property>
  <property name="kdenlive:meta.media.1.codec.name">prores</property>
  <property name="kdenlive:meta.media.1.codec.long_name">ProRes</property>
  <property name="kdenlive:meta.media.1.codec.bit_rate">176139916</property>
  <property name="kdenlive:meta.attr.1.stream.creation_time.markup">2017-11-25T03:14:02.000000Z</property>
  <property name="kdenlive:meta.attr.1.stream.language.markup">eng</property>
  <property name="kdenlive:meta.attr.1.stream.handler_name.markup">Apple Alias Data Handler</property>
  <property name="kdenlive:meta.attr.1.stream.encoder.markup">Apple ProRes 422 HQ</property>
  <property name="kdenlive:meta.attr.1.stream.timecode.markup">03:14:02:23</property>
  <property name="kdenlive:meta.media.2.stream.type">audio</property>
  <property name="kdenlive:meta.media.2.codec.sample_fmt">s32</property>
  <property name="kdenlive:meta.media.2.codec.sample_rate">48000</property>
  <property name="kdenlive:meta.media.2.codec.channels">2</property>
  <property name="kdenlive:meta.media.2.codec.name">pcm_s24le</property>
  <property name="kdenlive:meta.media.2.codec.long_name">PCM signed 24-bit little-endian</property>
  <property name="kdenlive:meta.media.2.codec.bit_rate">2304000</property>
  <property name="kdenlive:meta.attr.2.stream.creation_time.markup">2017-11-25T03:14:02.000000Z</property>
  <property name="kdenlive:meta.attr.2.stream.language.markup">eng</property>
  <property name="kdenlive:meta.attr.2.stream.handler_name.markup">Apple Alias Data Handler</property>
  <property name="kdenlive:meta.attr.2.stream.timecode.markup">03:14:02:23</property>
  <property name="kdenlive:meta.attr.com.apple.proapps.manufacturer.markup">Blackmagic Design</property>
  <property name="kdenlive:meta.attr.com.apple.proapps.cameraName.markup">CAM2</property>
  <property name="kdenlive:meta.attr.com.apple.proapps.isGood.markup">0</property>
  <property name="kdenlive:meta.attr.com.apple.proapps.customgamma.markup">com.blackmagic-design.cinemacamera.filmlog</property>
  <property name="kdenlive:meta.attr.com.blackmagic-design.cinemacamera.uuid.markup">18E5E00548F94923B646613A73C01B56</property>
  <property name="kdenlive:meta.attr.creation_time.markup">2017-11-25T03:14:02.000000Z</property>
  <property name="kdenlive:meta.attr.timecode.markup">03:14:02:23</property>
  <property name="kdenlive:meta.media.sample_aspect_num">1</property>
  <property name="kdenlive:meta.media.sample_aspect_den">1</property>
  <property name="kdenlive:meta.media.frame_rate_num">24</property>
  <property name="kdenlive:meta.media.frame_rate_den">1</property>
  <property name="kdenlive:meta.media.colorspace">709</property>
  <property name="kdenlive:meta.media.color_trc">1</property>
  <property name="kdenlive:meta.media.width">1920</property>
  <property name="kdenlive:meta.media.height">1080</property>
  <property name="kdenlive:meta.media.top_field_first">0</property>
  <property name="kdenlive:meta.media.progressive">1</property>
  <property name="meta.media.frame_rate_num">24</property>
  <property name="meta.media.frame_rate_den">1</property>
  <property name="meta.media.colorspace">709</property>
  <property name="meta.media.color_trc">1</property>
  <property name="meta.media.width">1920</property>
  <property name="meta.media.height">1080</property>
  <property name="meta.media.top_field_first">0</property>
  <property name="meta.media.progressive">1</property>
  <property name="meta.media.0.stream.type">video</property>
  <property name="meta.media.0.stream.frame_rate">24</property>
  <property name="meta.media.0.stream.sample_aspect_ratio">1</property>
  <property name="meta.media.0.codec.width">1920</property>
  <property name="meta.media.0.codec.height">1080</property>
  <property name="meta.media.0.codec.rotate">0</property>
  <property name="meta.media.0.codec.frame_rate">12288</property>
  <property name="meta.media.0.codec.pix_fmt">yuv422p10le</property>
  <property name="meta.media.0.codec.sample_aspect_ratio">0</property>
  <property name="meta.media.0.codec.colorspace">709</property>
  <property name="meta.media.0.codec.color_trc">1</property>
  <property name="meta.media.0.codec.name">dnxhd</property>
  <property name="meta.media.0.codec.long_name">VC3/DNxHD</property>
  <property name="meta.media.0.codec.bit_rate">176160768</property>
  <property name="meta.attr.0.stream.language.markup">eng</property>
  <property name="meta.attr.0.stream.handler_name.markup">Core Media Data Handler</property>
  <property name="meta.attr.0.stream.timecode.markup">03:14:02:23</property>
  <property name="meta.attr.major_brand.markup">qt  </property>
  <property name="meta.attr.minor_version.markup">512</property>
  <property name="meta.attr.compatible_brands.markup">qt  </property>
  <property name="meta.attr.encoder.markup">Lavf57.25.100</property>
  <property name="kdenlive:zone_in">1284</property>
  <property name="kdenlive:zone_out">1548</property>
 </producer>
 <producer title="Anonymous Submission" id="19" in="0" out="3263">
  <property name="length">00:02:16:00</property>
  <property name="eof">pause</property>
  <property name="resource">/home/bordun/Clip01_SnapshatAuHarem/Audio/SnapshatAuHarem_Master_PartieCentrale_r16_2019-01-12.flac</property>
  <property name="audio_index">0</property>
  <property name="video_index">-1</property>
  <property name="mute_on_pause">1</property>
  <property name="mlt_service">avformat-novalidate</property>
  <property name="meta.media.nb_streams">1</property>
  <property name="meta.media.0.stream.type">audio</property>
  <property name="meta.media.0.codec.sample_fmt">s32</property>
  <property name="meta.media.0.codec.sample_rate">48000</property>
  <property name="meta.media.0.codec.channels">2</property>
  <property name="meta.media.0.codec.name">flac</property>
  <property name="meta.media.0.codec.long_name">FLAC (Free Lossless Audio Codec)</property>
  <property name="meta.media.0.codec.bit_rate">0</property>
  <property name="seekable">1</property>
  <property name="kdenlive:file_size">28450515</property>
  <property name="kdenlive:file_hash">671af14bd0538e48f507c2e0eb454cfa</property>
  <property name="global_feed">1</property>
 </producer>
 <playlist id="main bin">
  <property name="kdenlive:docproperties.audiotargettrack">2</property>
  <property name="kdenlive:docproperties.decimalPoint">,</property>
  <property name="kdenlive:docproperties.dirtypreviewchunks"/>
  <property name="kdenlive:docproperties.disablepreview">0</property>
  <property name="kdenlive:docproperties.documentid">1516638450852</property>
  <property name="kdenlive:docproperties.enableproxy">0</property>
  <property name="kdenlive:docproperties.generateimageproxy">1</property>
  <property name="kdenlive:docproperties.generateproxy">1</property>
  <property name="kdenlive:docproperties.kdenliveversion">18.12.0</property>
  <property name="kdenlive:docproperties.position">4096</property>
  <property name="kdenlive:docproperties.previewchunks"/>
  <property name="kdenlive:docproperties.previewextension"/>
  <property name="kdenlive:docproperties.previewparameters"/>
  <property name="kdenlive:docproperties.profile">atsc_1080p_24</property>
  <property name="kdenlive:docproperties.proxyextension">mpg</property>
  <property name="kdenlive:docproperties.proxyimageminsize">2000</property>
  <property name="kdenlive:docproperties.proxyminsize">1000</property>
  <property name="kdenlive:docproperties.proxyparams">-vf scale=640:-1 -g 5 -qscale 6 -ab 128k -vcodec mpeg2video -acodec mp2</property>
  <property name="kdenlive:docproperties.version">0.96</property>
  <property name="kdenlive:docproperties.verticalzoom">1</property>
  <property name="kdenlive:docproperties.videotargettrack">-1</property>
  <property name="kdenlive:docproperties.zonein">3947</property>
  <property name="kdenlive:docproperties.zoneout">4010</property>
  <property name="kdenlive:docproperties.zoom">4</property>
  <property name="kdenlive:docmetadata.meta.attr.author.markup">Plagiat &amp; Joris Le Guidart</property>
  <property name="kdenlive:docmetadata.meta.attr.copyright.markup">Copyleft - Licence Art Libre 1.3</property>
  <property name="kdenlive:docmetadata.meta.attr.title.markup">Snapchat au Harem (part of)</property>
  <property name="kdenlive:docmetadata.meta.attr.year.markup">2018</property>
  <property name="kdenlive:documentnotes"/>
  <property name="kdenlive:clipgroups"/>
  <property name="kdenlive:guide.137,583">DebutTrap</property>
  <property name="kdenlive:guide.137">Snare</property>
  <property name="kdenlive:guide.142,625">Fuck</property>
  <property name="kdenlive:docproperties.renderaudioquality">160</property>
  <property name="kdenlive:docproperties.rendercategory">Generic (HD for web, mobile devices...)</property>
  <property name="kdenlive:docproperties.renderendguide">0</property>
  <property name="kdenlive:docproperties.renderexportaudio">0</property>
  <property name="kdenlive:docproperties.renderguide">0</property>
  <property name="kdenlive:docproperties.renderplay">0</property>
  <property name="kdenlive:docproperties.renderprofile">MP4 - the dominating format (H264/AAC)</property>
  <property name="kdenlive:docproperties.renderquality">23</property>
  <property name="kdenlive:docproperties.renderratio">0</property>
  <property name="kdenlive:docproperties.renderrescale">0</property>
  <property name="kdenlive:docproperties.renderrescaleheight">180</property>
  <property name="kdenlive:docproperties.renderrescalewidth">320</property>
  <property name="kdenlive:docproperties.renderscanning">0</property>
  <property name="kdenlive:docproperties.renderspeed">2</property>
  <property name="kdenlive:docproperties.renderstartguide">0</property>
  <property name="kdenlive:docproperties.rendertcoverlay">0</property>
  <property name="kdenlive:docproperties.rendertctype">0</property>
  <property name="kdenlive:docproperties.rendertwopass">0</property>
  <property name="kdenlive:docproperties.renderurl">/home/bordun/Clip01_SnapshatAuHarem/Rendus/sync.mp4</property>
  <property name="kdenlive:docproperties.renderzone">1</property>
  <property name="xml_retain">1</property>
  <entry producer="1" in="0" out="4287"/>
  <entry producer="4" in="0" out="3211"/>
  <entry producer="3" in="0" out="2486"/>
  <entry producer="2" in="0" out="1833"/>
  <entry producer="5" in="0" out="3737"/>
  <entry producer="6" in="0" out="4335"/>
  <entry producer="7" in="0" out="2664"/>
  <entry producer="8" in="0" out="6028"/>
  <entry producer="9" in="0" out="5047"/>
  <entry producer="10" in="0" out="2728"/>
  <entry producer="11" in="0" out="1866"/>
  <entry producer="12" in="0" out="16944"/>
  <entry producer="13" in="0" out="4885"/>
  <entry producer="14" in="0" out="6121"/>
  <entry producer="15" in="0" out="4106"/>
  <entry producer="16" in="0" out="1815"/>
  <entry producer="17" in="0" out="8136"/>
  <entry producer="18" in="0" out="4770"/>
  <entry producer="19" in="0" out="3263"/>
 </playlist>
 <producer id="black" in="0" out="18725">
  <property name="length">18726</property>
  <property name="eof">pause</property>
  <property name="resource">black</property>
  <property name="aspect_ratio">0</property>
  <property name="mlt_service">colour</property>
  <property name="set.test_audio">0</property>
 </producer>
 <playlist id="black_track">
  <entry producer="black" in="0" out="12182"/>
 </playlist>
 <producer title="Anonymous Submission" id="19_playlist1" in="0" out="3263">
  <property name="length">00:02:16:00</property>
  <property name="eof">pause</property>
  <property name="resource">/home/bordun/Clip01_SnapshatAuHarem/Audio/SnapshatAuHarem_Master_PartieCentrale_r16_2019-01-12.flac</property>
  <property name="audio_index">0</property>
  <property name="video_index">-1</property>
  <property name="mute_on_pause">1</property>
  <property name="mlt_service">avformat-novalidate</property>
  <property name="seekable">1</property>
  <property name="kdenlive:file_size">28450515</property>
  <property name="kdenlive:file_hash">671af14bd0538e48f507c2e0eb454cfa</property>
  <property name="global_feed">1</property>
  <property name="xml">was here</property>
  <property name="meta.media.nb_streams">1</property>
  <property name="meta.media.0.stream.type">audio</property>
  <property name="meta.media.0.codec.sample_fmt">s32</property>
  <property name="meta.media.0.codec.sample_rate">48000</property>
  <property name="meta.media.0.codec.channels">2</property>
  <property name="meta.media.0.codec.name">flac</property>
  <property name="meta.media.0.codec.long_name">FLAC (Free Lossless Audio Codec)</property>
  <property name="meta.media.0.codec.bit_rate">0</property>
 </producer>
 <playlist id="playlist1">
  <property name="kdenlive:track_name">Audio 2</property>
  <property name="kdenlive:audio_track">1</property>
  <property name="kdenlive:locked_track">0</property>
  <blank length="1440"/>
  <entry producer="19_playlist1" in="0" out="3263"/>
 </playlist>
 <producer title="Anonymous Submission" id="1_playlist2" in="0" out="4287">
  <property name="length">00:02:58:16</property>
  <property name="eof">pause</property>
  <property name="resource">/home/bordun/Clip01_SnapshatAuHarem/Audio/Snapchat_au_Harem.flac</property>
  <property name="audio_index">0</property>
  <property name="video_index">-1</property>
  <property name="mute_on_pause">1</property>
  <property name="mlt_service">avformat-novalidate</property>
  <property name="seekable">1</property>
  <property name="kdenlive:folderid">-1</property>
  <property name="kdenlive:file_size">16614188</property>
  <property name="kdenlive:file_hash">115a31e39ebfe7c973cc2dc7b9f7cbf8</property>
  <property name="global_feed">1</property>
  <property name="xml">was here</property>
  <property name="meta.media.nb_streams">1</property>
  <property name="meta.media.0.stream.type">audio</property>
  <property name="meta.media.0.codec.sample_fmt">s16</property>
  <property name="meta.media.0.codec.sample_rate">48000</property>
  <property name="meta.media.0.codec.channels">2</property>
  <property name="meta.media.0.codec.name">flac</property>
  <property name="meta.media.0.codec.long_name">FLAC (Free Lossless Audio Codec)</property>
  <property name="meta.media.0.codec.bit_rate">0</property>
 </producer>
 <playlist id="playlist2">
  <property name="kdenlive:track_name">Audio 1</property>
  <property name="kdenlive:audio_track">1</property>
  <property name="kdenlive:locked_track">1</property>
  <blank length="1440"/>
  <entry producer="1_playlist2" in="0" out="4287"/>
  <filter id="audiopan">
   <property name="channel">1</property>
   <property name="mlt_service">panner</property>
   <property name="kdenlive_id">audiopan</property>
   <property name="tag">panner</property>
   <property name="kdenlive_ix">1</property>
   <property name="kdenlive_info"/>
   <property name="start">0</property>
   <property name="disable">1</property>
  </filter>
 </playlist>
 <producer title="Anonymous Submission" id="6_playlist6" in="0" out="4335">
  <property name="length">00:03:00:16</property>
  <property name="eof">pause</property>
  <property name="resource">/media/bordun/Odile/SnapshatAuHarem/etalo/CAM2_2017-11-25_0103_C0005.mov</property>
  <property name="audio_index">2</property>
  <property name="video_index">0</property>
  <property name="mute_on_pause">1</property>
  <property name="mlt_service">avformat-novalidate</property>
  <property name="seekable">1</property>
  <property name="aspect_ratio">1</property>
  <property name="kdenlive:folderid">-1</property>
  <property name="kdenlive:file_size">4030844401</property>
  <property name="kdenlive:file_hash">e757dcbca0f5d7fdb7d1af4658c00dfc</property>
  <property name="kdenlive:proxy">-</property>
  <property name="proxy_out">4335</property>
  <property name="kdenlive:originalurl">src/04-06_Couplet2/CAM2_2017-11-25_0103_C0005.mov</property>
  <property name="global_feed">1</property>
  <property name="kdenlive:meta.media.nb_streams">3</property>
  <property name="kdenlive:meta.media.1.stream.type">video</property>
  <property name="kdenlive:meta.media.1.stream.frame_rate">24</property>
  <property name="kdenlive:meta.media.1.stream.sample_aspect_ratio">1</property>
  <property name="kdenlive:meta.media.1.codec.width">1920</property>
  <property name="kdenlive:meta.media.1.codec.height">1080</property>
  <property name="kdenlive:meta.media.1.codec.rotate">0</property>
  <property name="kdenlive:meta.media.1.codec.frame_rate">2400</property>
  <property name="kdenlive:meta.media.1.codec.pix_fmt">yuv422p10le</property>
  <property name="kdenlive:meta.media.1.codec.sample_aspect_ratio">0</property>
  <property name="kdenlive:meta.media.1.codec.colorspace">709</property>
  <property name="kdenlive:meta.media.1.codec.color_trc">1</property>
  <property name="kdenlive:meta.media.1.codec.name">prores</property>
  <property name="kdenlive:meta.media.1.codec.long_name">ProRes</property>
  <property name="kdenlive:meta.media.1.codec.bit_rate">176139010</property>
  <property name="kdenlive:meta.attr.1.stream.creation_time.markup">2017-11-25T01:03:56.000000Z</property>
  <property name="kdenlive:meta.attr.1.stream.language.markup">eng</property>
  <property name="kdenlive:meta.attr.1.stream.handler_name.markup">Apple Alias Data Handler</property>
  <property name="kdenlive:meta.attr.1.stream.encoder.markup">Apple ProRes 422 HQ</property>
  <property name="kdenlive:meta.attr.1.stream.timecode.markup">01:03:56:12</property>
  <property name="kdenlive:meta.media.2.stream.type">audio</property>
  <property name="kdenlive:meta.media.2.codec.sample_fmt">s32</property>
  <property name="kdenlive:meta.media.2.codec.sample_rate">48000</property>
  <property name="kdenlive:meta.media.2.codec.channels">2</property>
  <property name="kdenlive:meta.media.2.codec.name">pcm_s24le</property>
  <property name="kdenlive:meta.media.2.codec.long_name">PCM signed 24-bit little-endian</property>
  <property name="kdenlive:meta.media.2.codec.bit_rate">2304000</property>
  <property name="kdenlive:meta.attr.2.stream.creation_time.markup">2017-11-25T01:03:56.000000Z</property>
  <property name="kdenlive:meta.attr.2.stream.language.markup">eng</property>
  <property name="kdenlive:meta.attr.2.stream.handler_name.markup">Apple Alias Data Handler</property>
  <property name="kdenlive:meta.attr.2.stream.timecode.markup">01:03:56:12</property>
  <property name="kdenlive:meta.attr.com.apple.proapps.manufacturer.markup">Blackmagic Design</property>
  <property name="kdenlive:meta.attr.com.apple.proapps.cameraName.markup">CAM2</property>
  <property name="kdenlive:meta.attr.com.apple.proapps.isGood.markup">0</property>
  <property name="kdenlive:meta.attr.com.apple.proapps.customgamma.markup">com.blackmagic-design.cinemacamera.filmlog</property>
  <property name="kdenlive:meta.attr.com.blackmagic-design.cinemacamera.uuid.markup">18E5E00548F94923B646613A73C01B56</property>
  <property name="kdenlive:meta.attr.creation_time.markup">2017-11-25T01:03:56.000000Z</property>
  <property name="kdenlive:meta.attr.timecode.markup">01:03:56:12</property>
  <property name="kdenlive:meta.media.sample_aspect_num">1</property>
  <property name="kdenlive:meta.media.sample_aspect_den">1</property>
  <property name="kdenlive:meta.media.frame_rate_num">24</property>
  <property name="kdenlive:meta.media.frame_rate_den">1</property>
  <property name="kdenlive:meta.media.colorspace">709</property>
  <property name="kdenlive:meta.media.color_trc">1</property>
  <property name="kdenlive:meta.media.width">1920</property>
  <property name="kdenlive:meta.media.height">1080</property>
  <property name="kdenlive:meta.media.top_field_first">0</property>
  <property name="kdenlive:meta.media.progressive">1</property>
  <property name="xml">was here</property>
  <property name="meta.media.nb_streams">2</property>
  <property name="meta.media.1.stream.type">video</property>
  <property name="meta.media.1.stream.frame_rate">24</property>
  <property name="meta.media.1.stream.sample_aspect_ratio">1</property>
  <property name="meta.media.1.codec.width">1920</property>
  <property name="meta.media.1.codec.height">1080</property>
  <property name="meta.media.1.codec.rotate">0</property>
  <property name="meta.media.1.codec.frame_rate">2400</property>
  <property name="meta.media.1.codec.pix_fmt">yuv422p10le</property>
  <property name="meta.media.1.codec.sample_aspect_ratio">0</property>
  <property name="meta.media.1.codec.colorspace">709</property>
  <property name="meta.media.1.codec.color_trc">1</property>
  <property name="meta.media.1.codec.name">prores</property>
  <property name="meta.media.1.codec.long_name">ProRes</property>
  <property name="meta.media.1.codec.bit_rate">176139010</property>
  <property name="meta.attr.1.stream.creation_time.markup">2017-11-25T01:03:56.000000Z</property>
  <property name="meta.attr.1.stream.language.markup">eng</property>
  <property name="meta.attr.1.stream.handler_name.markup">Apple Alias Data Handler</property>
  <property name="meta.attr.1.stream.encoder.markup">Apple ProRes 422 HQ</property>
  <property name="meta.attr.1.stream.timecode.markup">01:03:56:12</property>
  <property name="meta.media.2.stream.type">audio</property>
  <property name="meta.media.2.codec.sample_fmt">s32</property>
  <property name="meta.media.2.codec.sample_rate">48000</property>
  <property name="meta.media.2.codec.channels">2</property>
  <property name="meta.media.2.codec.name">pcm_s24le</property>
  <property name="meta.media.2.codec.long_name">PCM signed 24-bit little-endian</property>
  <property name="meta.media.2.codec.bit_rate">2304000</property>
  <property name="meta.attr.2.stream.creation_time.markup">2017-11-25T01:03:56.000000Z</property>
  <property name="meta.attr.2.stream.language.markup">eng</property>
  <property name="meta.attr.2.stream.handler_name.markup">Apple Alias Data Handler</property>
  <property name="meta.attr.2.stream.timecode.markup">01:03:56:12</property>
  <property name="meta.attr.com.apple.proapps.manufacturer.markup">Blackmagic Design</property>
  <property name="meta.attr.com.apple.proapps.cameraName.markup">CAM2</property>
  <property name="meta.attr.com.apple.proapps.isGood.markup">0</property>
  <property name="meta.attr.com.apple.proapps.customgamma.markup">com.blackmagic-design.cinemacamera.filmlog</property>
  <property name="meta.attr.com.blackmagic-design.cinemacamera.uuid.markup">18E5E00548F94923B646613A73C01B56</property>
  <property name="meta.attr.creation_time.markup">2017-11-25T01:03:56.000000Z</property>
  <property name="meta.attr.timecode.markup">01:03:56:12</property>
  <property name="meta.media.sample_aspect_num">1</property>
  <property name="meta.media.sample_aspect_den">1</property>
  <property name="meta.media.frame_rate_num">24</property>
  <property name="meta.media.frame_rate_den">1</property>
  <property name="meta.media.colorspace">709</property>
  <property name="meta.media.color_trc">1</property>
  <property name="meta.media.width">1920</property>
  <property name="meta.media.height">1080</property>
  <property name="meta.media.top_field_first">0</property>
  <property name="meta.media.progressive">1</property>
  <property name="meta.media.0.stream.type">video</property>
  <property name="meta.media.0.stream.frame_rate">24</property>
  <property name="meta.media.0.stream.sample_aspect_ratio">1</property>
  <property name="meta.media.0.codec.width">1920</property>
  <property name="meta.media.0.codec.height">1080</property>
  <property name="meta.media.0.codec.rotate">0</property>
  <property name="meta.media.0.codec.frame_rate">12288</property>
  <property name="meta.media.0.codec.pix_fmt">yuv422p10le</property>
  <property name="meta.media.0.codec.sample_aspect_ratio">0</property>
  <property name="meta.media.0.codec.colorspace">709</property>
  <property name="meta.media.0.codec.color_trc">1</property>
  <property name="meta.media.0.codec.name">dnxhd</property>
  <property name="meta.media.0.codec.long_name">VC3/DNxHD</property>
  <property name="meta.media.0.codec.bit_rate">176160768</property>
  <property name="meta.attr.0.stream.language.markup">eng</property>
  <property name="meta.attr.0.stream.handler_name.markup">VideoHandler</property>
  <property name="meta.attr.0.stream.timecode.markup">01:03:56:12</property>
  <property name="meta.attr.major_brand.markup">qt  </property>
  <property name="meta.attr.minor_version.markup">512</property>
  <property name="meta.attr.compatible_brands.markup">qt  </property>
  <property name="meta.attr.encoder.markup">Lavf57.25.100</property>
 </producer>
 <producer title="Anonymous Submission" id="7_playlist6" in="0" out="2664">
  <property name="length">00:01:51:01</property>
  <property name="eof">pause</property>
  <property name="resource">/media/bordun/Odile/SnapshatAuHarem/etalo/CAM2_2017-11-25_0108_C0006.mov</property>
  <property name="audio_index">2</property>
  <property name="video_index">0</property>
  <property name="mute_on_pause">1</property>
  <property name="mlt_service">avformat-novalidate</property>
  <property name="seekable">1</property>
  <property name="aspect_ratio">1</property>
  <property name="kdenlive:folderid">-1</property>
  <property name="kdenlive:file_size">2477467081</property>
  <property name="kdenlive:file_hash">ab710307b950fc7c477f4663f45777fd</property>
  <property name="kdenlive:proxy">-</property>
  <property name="proxy_out">2664</property>
  <property name="kdenlive:originalurl">src/04-06_Couplet2/CAM2_2017-11-25_0108_C0006.mov</property>
  <property name="global_feed">1</property>
  <property name="kdenlive:meta.media.nb_streams">3</property>
  <property name="kdenlive:meta.media.1.stream.type">video</property>
  <property name="kdenlive:meta.media.1.stream.frame_rate">24</property>
  <property name="kdenlive:meta.media.1.stream.sample_aspect_ratio">1</property>
  <property name="kdenlive:meta.media.1.codec.width">1920</property>
  <property name="kdenlive:meta.media.1.codec.height">1080</property>
  <property name="kdenlive:meta.media.1.codec.rotate">0</property>
  <property name="kdenlive:meta.media.1.codec.frame_rate">2400</property>
  <property name="kdenlive:meta.media.1.codec.pix_fmt">yuv422p10le</property>
  <property name="kdenlive:meta.media.1.codec.sample_aspect_ratio">0</property>
  <property name="kdenlive:meta.media.1.codec.colorspace">709</property>
  <property name="kdenlive:meta.media.1.codec.color_trc">1</property>
  <property name="kdenlive:meta.media.1.codec.name">prores</property>
  <property name="kdenlive:meta.media.1.codec.long_name">ProRes</property>
  <property name="kdenlive:meta.media.1.codec.bit_rate">176139009</property>
  <property name="kdenlive:meta.attr.1.stream.creation_time.markup">2017-11-25T01:08:39.000000Z</property>
  <property name="kdenlive:meta.attr.1.stream.language.markup">eng</property>
  <property name="kdenlive:meta.attr.1.stream.handler_name.markup">Apple Alias Data Handler</property>
  <property name="kdenlive:meta.attr.1.stream.encoder.markup">Apple ProRes 422 HQ</property>
  <property name="kdenlive:meta.attr.1.stream.timecode.markup">01:08:39:12</property>
  <property name="kdenlive:meta.media.2.stream.type">audio</property>
  <property name="kdenlive:meta.media.2.codec.sample_fmt">s32</property>
  <property name="kdenlive:meta.media.2.codec.sample_rate">48000</property>
  <property name="kdenlive:meta.media.2.codec.channels">2</property>
  <property name="kdenlive:meta.media.2.codec.name">pcm_s24le</property>
  <property name="kdenlive:meta.media.2.codec.long_name">PCM signed 24-bit little-endian</property>
  <property name="kdenlive:meta.media.2.codec.bit_rate">2304000</property>
  <property name="kdenlive:meta.attr.2.stream.creation_time.markup">2017-11-25T01:08:39.000000Z</property>
  <property name="kdenlive:meta.attr.2.stream.language.markup">eng</property>
  <property name="kdenlive:meta.attr.2.stream.handler_name.markup">Apple Alias Data Handler</property>
  <property name="kdenlive:meta.attr.2.stream.timecode.markup">01:08:39:12</property>
  <property name="kdenlive:meta.attr.com.apple.proapps.manufacturer.markup">Blackmagic Design</property>
  <property name="kdenlive:meta.attr.com.apple.proapps.cameraName.markup">CAM2</property>
  <property name="kdenlive:meta.attr.com.apple.proapps.isGood.markup">0</property>
  <property name="kdenlive:meta.attr.com.apple.proapps.customgamma.markup">com.blackmagic-design.cinemacamera.filmlog</property>
  <property name="kdenlive:meta.attr.com.blackmagic-design.cinemacamera.uuid.markup">18E5E00548F94923B646613A73C01B56</property>
  <property name="kdenlive:meta.attr.creation_time.markup">2017-11-25T01:08:39.000000Z</property>
  <property name="kdenlive:meta.attr.timecode.markup">01:08:39:12</property>
  <property name="kdenlive:meta.media.sample_aspect_num">1</property>
  <property name="kdenlive:meta.media.sample_aspect_den">1</property>
  <property name="kdenlive:meta.media.frame_rate_num">24</property>
  <property name="kdenlive:meta.media.frame_rate_den">1</property>
  <property name="kdenlive:meta.media.colorspace">709</property>
  <property name="kdenlive:meta.media.color_trc">1</property>
  <property name="kdenlive:meta.media.width">1920</property>
  <property name="kdenlive:meta.media.height">1080</property>
  <property name="kdenlive:meta.media.top_field_first">0</property>
  <property name="kdenlive:meta.media.progressive">1</property>
  <property name="xml">was here</property>
  <property name="meta.media.nb_streams">2</property>
  <property name="meta.media.1.stream.type">video</property>
  <property name="meta.media.1.stream.frame_rate">24</property>
  <property name="meta.media.1.stream.sample_aspect_ratio">1</property>
  <property name="meta.media.1.codec.width">1920</property>
  <property name="meta.media.1.codec.height">1080</property>
  <property name="meta.media.1.codec.rotate">0</property>
  <property name="meta.media.1.codec.frame_rate">2400</property>
  <property name="meta.media.1.codec.pix_fmt">yuv422p10le</property>
  <property name="meta.media.1.codec.sample_aspect_ratio">0</property>
  <property name="meta.media.1.codec.colorspace">709</property>
  <property name="meta.media.1.codec.color_trc">1</property>
  <property name="meta.media.1.codec.name">prores</property>
  <property name="meta.media.1.codec.long_name">ProRes</property>
  <property name="meta.media.1.codec.bit_rate">176139009</property>
  <property name="meta.attr.1.stream.creation_time.markup">2017-11-25T01:08:39.000000Z</property>
  <property name="meta.attr.1.stream.language.markup">eng</property>
  <property name="meta.attr.1.stream.handler_name.markup">Apple Alias Data Handler</property>
  <property name="meta.attr.1.stream.encoder.markup">Apple ProRes 422 HQ</property>
  <property name="meta.attr.1.stream.timecode.markup">01:08:39:12</property>
  <property name="meta.media.2.stream.type">audio</property>
  <property name="meta.media.2.codec.sample_fmt">s32</property>
  <property name="meta.media.2.codec.sample_rate">48000</property>
  <property name="meta.media.2.codec.channels">2</property>
  <property name="meta.media.2.codec.name">pcm_s24le</property>
  <property name="meta.media.2.codec.long_name">PCM signed 24-bit little-endian</property>
  <property name="meta.media.2.codec.bit_rate">2304000</property>
  <property name="meta.attr.2.stream.creation_time.markup">2017-11-25T01:08:39.000000Z</property>
  <property name="meta.attr.2.stream.language.markup">eng</property>
  <property name="meta.attr.2.stream.handler_name.markup">Apple Alias Data Handler</property>
  <property name="meta.attr.2.stream.timecode.markup">01:08:39:12</property>
  <property name="meta.attr.com.apple.proapps.manufacturer.markup">Blackmagic Design</property>
  <property name="meta.attr.com.apple.proapps.cameraName.markup">CAM2</property>
  <property name="meta.attr.com.apple.proapps.isGood.markup">0</property>
  <property name="meta.attr.com.apple.proapps.customgamma.markup">com.blackmagic-design.cinemacamera.filmlog</property>
  <property name="meta.attr.com.blackmagic-design.cinemacamera.uuid.markup">18E5E00548F94923B646613A73C01B56</property>
  <property name="meta.attr.creation_time.markup">2017-11-25T01:08:39.000000Z</property>
  <property name="meta.attr.timecode.markup">01:08:39:12</property>
  <property name="meta.media.sample_aspect_num">1</property>
  <property name="meta.media.sample_aspect_den">1</property>
  <property name="meta.media.frame_rate_num">24</property>
  <property name="meta.media.frame_rate_den">1</property>
  <property name="meta.media.colorspace">709</property>
  <property name="meta.media.color_trc">1</property>
  <property name="meta.media.width">1920</property>
  <property name="meta.media.height">1080</property>
  <property name="meta.media.top_field_first">0</property>
  <property name="meta.media.progressive">1</property>
  <property name="meta.media.0.stream.type">video</property>
  <property name="meta.media.0.stream.frame_rate">24</property>
  <property name="meta.media.0.stream.sample_aspect_ratio">1</property>
  <property name="meta.media.0.codec.width">1920</property>
  <property name="meta.media.0.codec.height">1080</property>
  <property name="meta.media.0.codec.rotate">0</property>
  <property name="meta.media.0.codec.frame_rate">12288</property>
  <property name="meta.media.0.codec.pix_fmt">yuv422p10le</property>
  <property name="meta.media.0.codec.sample_aspect_ratio">0</property>
  <property name="meta.media.0.codec.colorspace">709</property>
  <property name="meta.media.0.codec.color_trc">1</property>
  <property name="meta.media.0.codec.name">dnxhd</property>
  <property name="meta.media.0.codec.long_name">VC3/DNxHD</property>
  <property name="meta.media.0.codec.bit_rate">176160768</property>
  <property name="meta.attr.0.stream.language.markup">eng</property>
  <property name="meta.attr.0.stream.handler_name.markup">VideoHandler</property>
  <property name="meta.attr.0.stream.timecode.markup">01:08:39:12</property>
  <property name="meta.attr.major_brand.markup">qt  </property>
  <property name="meta.attr.minor_version.markup">512</property>
  <property name="meta.attr.compatible_brands.markup">qt  </property>
  <property name="meta.attr.encoder.markup">Lavf57.25.100</property>
 </producer>
 <playlist id="playlist6">
  <property name="kdenlive:track_name">Video 5</property>
  <property name="kdenlive:locked_track">0</property>
  <blank length="687"/>
  <entry producer="6_playlist6" in="0" out="2600"/>
  <blank length="238"/>
  <entry producer="6_playlist6" in="2839" out="2861"/>
  <entry producer="6_playlist6" in="2862" out="2899"/>
  <blank length="24"/>
  <entry producer="6_playlist6" in="2924" out="2959"/>
  <blank length="38"/>
  <entry producer="7_playlist6" in="2180" out="2256"/>
  <blank length="65"/>
  <entry producer="6_playlist6" in="3140" out="4235"/>
 </playlist>
 <producer title="Anonymous Submission" id="7_playlist7" in="0" out="2664">
  <property name="length">00:01:51:01</property>
  <property name="eof">pause</property>
  <property name="resource">/media/bordun/Odile/SnapshatAuHarem/etalo/CAM2_2017-11-25_0108_C0006.mov</property>
  <property name="audio_index">2</property>
  <property name="video_index">0</property>
  <property name="mute_on_pause">1</property>
  <property name="mlt_service">avformat-novalidate</property>
  <property name="seekable">1</property>
  <property name="aspect_ratio">1</property>
  <property name="kdenlive:folderid">-1</property>
  <property name="kdenlive:file_size">2477467081</property>
  <property name="kdenlive:file_hash">ab710307b950fc7c477f4663f45777fd</property>
  <property name="kdenlive:proxy">-</property>
  <property name="proxy_out">2664</property>
  <property name="kdenlive:originalurl">src/04-06_Couplet2/CAM2_2017-11-25_0108_C0006.mov</property>
  <property name="global_feed">1</property>
  <property name="kdenlive:meta.media.nb_streams">3</property>
  <property name="kdenlive:meta.media.1.stream.type">video</property>
  <property name="kdenlive:meta.media.1.stream.frame_rate">24</property>
  <property name="kdenlive:meta.media.1.stream.sample_aspect_ratio">1</property>
  <property name="kdenlive:meta.media.1.codec.width">1920</property>
  <property name="kdenlive:meta.media.1.codec.height">1080</property>
  <property name="kdenlive:meta.media.1.codec.rotate">0</property>
  <property name="kdenlive:meta.media.1.codec.frame_rate">2400</property>
  <property name="kdenlive:meta.media.1.codec.pix_fmt">yuv422p10le</property>
  <property name="kdenlive:meta.media.1.codec.sample_aspect_ratio">0</property>
  <property name="kdenlive:meta.media.1.codec.colorspace">709</property>
  <property name="kdenlive:meta.media.1.codec.color_trc">1</property>
  <property name="kdenlive:meta.media.1.codec.name">prores</property>
  <property name="kdenlive:meta.media.1.codec.long_name">ProRes</property>
  <property name="kdenlive:meta.media.1.codec.bit_rate">176139009</property>
  <property name="kdenlive:meta.attr.1.stream.creation_time.markup">2017-11-25T01:08:39.000000Z</property>
  <property name="kdenlive:meta.attr.1.stream.language.markup">eng</property>
  <property name="kdenlive:meta.attr.1.stream.handler_name.markup">Apple Alias Data Handler</property>
  <property name="kdenlive:meta.attr.1.stream.encoder.markup">Apple ProRes 422 HQ</property>
  <property name="kdenlive:meta.attr.1.stream.timecode.markup">01:08:39:12</property>
  <property name="kdenlive:meta.media.2.stream.type">audio</property>
  <property name="kdenlive:meta.media.2.codec.sample_fmt">s32</property>
  <property name="kdenlive:meta.media.2.codec.sample_rate">48000</property>
  <property name="kdenlive:meta.media.2.codec.channels">2</property>
  <property name="kdenlive:meta.media.2.codec.name">pcm_s24le</property>
  <property name="kdenlive:meta.media.2.codec.long_name">PCM signed 24-bit little-endian</property>
  <property name="kdenlive:meta.media.2.codec.bit_rate">2304000</property>
  <property name="kdenlive:meta.attr.2.stream.creation_time.markup">2017-11-25T01:08:39.000000Z</property>
  <property name="kdenlive:meta.attr.2.stream.language.markup">eng</property>
  <property name="kdenlive:meta.attr.2.stream.handler_name.markup">Apple Alias Data Handler</property>
  <property name="kdenlive:meta.attr.2.stream.timecode.markup">01:08:39:12</property>
  <property name="kdenlive:meta.attr.com.apple.proapps.manufacturer.markup">Blackmagic Design</property>
  <property name="kdenlive:meta.attr.com.apple.proapps.cameraName.markup">CAM2</property>
  <property name="kdenlive:meta.attr.com.apple.proapps.isGood.markup">0</property>
  <property name="kdenlive:meta.attr.com.apple.proapps.customgamma.markup">com.blackmagic-design.cinemacamera.filmlog</property>
  <property name="kdenlive:meta.attr.com.blackmagic-design.cinemacamera.uuid.markup">18E5E00548F94923B646613A73C01B56</property>
  <property name="kdenlive:meta.attr.creation_time.markup">2017-11-25T01:08:39.000000Z</property>
  <property name="kdenlive:meta.attr.timecode.markup">01:08:39:12</property>
  <property name="kdenlive:meta.media.sample_aspect_num">1</property>
  <property name="kdenlive:meta.media.sample_aspect_den">1</property>
  <property name="kdenlive:meta.media.frame_rate_num">24</property>
  <property name="kdenlive:meta.media.frame_rate_den">1</property>
  <property name="kdenlive:meta.media.colorspace">709</property>
  <property name="kdenlive:meta.media.color_trc">1</property>
  <property name="kdenlive:meta.media.width">1920</property>
  <property name="kdenlive:meta.media.height">1080</property>
  <property name="kdenlive:meta.media.top_field_first">0</property>
  <property name="kdenlive:meta.media.progressive">1</property>
  <property name="xml">was here</property>
  <property name="meta.media.nb_streams">2</property>
  <property name="meta.media.1.stream.type">video</property>
  <property name="meta.media.1.stream.frame_rate">24</property>
  <property name="meta.media.1.stream.sample_aspect_ratio">1</property>
  <property name="meta.media.1.codec.width">1920</property>
  <property name="meta.media.1.codec.height">1080</property>
  <property name="meta.media.1.codec.rotate">0</property>
  <property name="meta.media.1.codec.frame_rate">2400</property>
  <property name="meta.media.1.codec.pix_fmt">yuv422p10le</property>
  <property name="meta.media.1.codec.sample_aspect_ratio">0</property>
  <property name="meta.media.1.codec.colorspace">709</property>
  <property name="meta.media.1.codec.color_trc">1</property>
  <property name="meta.media.1.codec.name">prores</property>
  <property name="meta.media.1.codec.long_name">ProRes</property>
  <property name="meta.media.1.codec.bit_rate">176139009</property>
  <property name="meta.attr.1.stream.creation_time.markup">2017-11-25T01:08:39.000000Z</property>
  <property name="meta.attr.1.stream.language.markup">eng</property>
  <property name="meta.attr.1.stream.handler_name.markup">Apple Alias Data Handler</property>
  <property name="meta.attr.1.stream.encoder.markup">Apple ProRes 422 HQ</property>
  <property name="meta.attr.1.stream.timecode.markup">01:08:39:12</property>
  <property name="meta.media.2.stream.type">audio</property>
  <property name="meta.media.2.codec.sample_fmt">s32</property>
  <property name="meta.media.2.codec.sample_rate">48000</property>
  <property name="meta.media.2.codec.channels">2</property>
  <property name="meta.media.2.codec.name">pcm_s24le</property>
  <property name="meta.media.2.codec.long_name">PCM signed 24-bit little-endian</property>
  <property name="meta.media.2.codec.bit_rate">2304000</property>
  <property name="meta.attr.2.stream.creation_time.markup">2017-11-25T01:08:39.000000Z</property>
  <property name="meta.attr.2.stream.language.markup">eng</property>
  <property name="meta.attr.2.stream.handler_name.markup">Apple Alias Data Handler</property>
  <property name="meta.attr.2.stream.timecode.markup">01:08:39:12</property>
  <property name="meta.attr.com.apple.proapps.manufacturer.markup">Blackmagic Design</property>
  <property name="meta.attr.com.apple.proapps.cameraName.markup">CAM2</property>
  <property name="meta.attr.com.apple.proapps.isGood.markup">0</property>
  <property name="meta.attr.com.apple.proapps.customgamma.markup">com.blackmagic-design.cinemacamera.filmlog</property>
  <property name="meta.attr.com.blackmagic-design.cinemacamera.uuid.markup">18E5E00548F94923B646613A73C01B56</property>
  <property name="meta.attr.creation_time.markup">2017-11-25T01:08:39.000000Z</property>
  <property name="meta.attr.timecode.markup">01:08:39:12</property>
  <property name="meta.media.sample_aspect_num">1</property>
  <property name="meta.media.sample_aspect_den">1</property>
  <property name="meta.media.frame_rate_num">24</property>
  <property name="meta.media.frame_rate_den">1</property>
  <property name="meta.media.colorspace">709</property>
  <property name="meta.media.color_trc">1</property>
  <property name="meta.media.width">1920</property>
  <property name="meta.media.height">1080</property>
  <property name="meta.media.top_field_first">0</property>
  <property name="meta.media.progressive">1</property>
  <property name="meta.media.0.stream.type">video</property>
  <property name="meta.media.0.stream.frame_rate">24</property>
  <property name="meta.media.0.stream.sample_aspect_ratio">1</property>
  <property name="meta.media.0.codec.width">1920</property>
  <property name="meta.media.0.codec.height">1080</property>
  <property name="meta.media.0.codec.rotate">0</property>
  <property name="meta.media.0.codec.frame_rate">12288</property>
  <property name="meta.media.0.codec.pix_fmt">yuv422p10le</property>
  <property name="meta.media.0.codec.sample_aspect_ratio">0</property>
  <property name="meta.media.0.codec.colorspace">709</property>
  <property name="meta.media.0.codec.color_trc">1</property>
  <property name="meta.media.0.codec.name">dnxhd</property>
  <property name="meta.media.0.codec.long_name">VC3/DNxHD</property>
  <property name="meta.media.0.codec.bit_rate">176160768</property>
  <property name="meta.attr.0.stream.language.markup">eng</property>
  <property name="meta.attr.0.stream.handler_name.markup">VideoHandler</property>
  <property name="meta.attr.0.stream.timecode.markup">01:08:39:12</property>
  <property name="meta.attr.major_brand.markup">qt  </property>
  <property name="meta.attr.minor_version.markup">512</property>
  <property name="meta.attr.compatible_brands.markup">qt  </property>
  <property name="meta.attr.encoder.markup">Lavf57.25.100</property>
 </producer>
 <producer title="Anonymous Submission" id="6_playlist7" in="0" out="4335">
  <property name="length">00:03:00:16</property>
  <property name="eof">pause</property>
  <property name="resource">/media/bordun/Odile/SnapshatAuHarem/etalo/CAM2_2017-11-25_0103_C0005.mov</property>
  <property name="audio_index">2</property>
  <property name="video_index">0</property>
  <property name="mute_on_pause">1</property>
  <property name="mlt_service">avformat-novalidate</property>
  <property name="seekable">1</property>
  <property name="aspect_ratio">1</property>
  <property name="kdenlive:folderid">-1</property>
  <property name="kdenlive:file_size">4030844401</property>
  <property name="kdenlive:file_hash">e757dcbca0f5d7fdb7d1af4658c00dfc</property>
  <property name="kdenlive:proxy">-</property>
  <property name="proxy_out">4335</property>
  <property name="kdenlive:originalurl">src/04-06_Couplet2/CAM2_2017-11-25_0103_C0005.mov</property>
  <property name="global_feed">1</property>
  <property name="kdenlive:meta.media.nb_streams">3</property>
  <property name="kdenlive:meta.media.1.stream.type">video</property>
  <property name="kdenlive:meta.media.1.stream.frame_rate">24</property>
  <property name="kdenlive:meta.media.1.stream.sample_aspect_ratio">1</property>
  <property name="kdenlive:meta.media.1.codec.width">1920</property>
  <property name="kdenlive:meta.media.1.codec.height">1080</property>
  <property name="kdenlive:meta.media.1.codec.rotate">0</property>
  <property name="kdenlive:meta.media.1.codec.frame_rate">2400</property>
  <property name="kdenlive:meta.media.1.codec.pix_fmt">yuv422p10le</property>
  <property name="kdenlive:meta.media.1.codec.sample_aspect_ratio">0</property>
  <property name="kdenlive:meta.media.1.codec.colorspace">709</property>
  <property name="kdenlive:meta.media.1.codec.color_trc">1</property>
  <property name="kdenlive:meta.media.1.codec.name">prores</property>
  <property name="kdenlive:meta.media.1.codec.long_name">ProRes</property>
  <property name="kdenlive:meta.media.1.codec.bit_rate">176139010</property>
  <property name="kdenlive:meta.attr.1.stream.creation_time.markup">2017-11-25T01:03:56.000000Z</property>
  <property name="kdenlive:meta.attr.1.stream.language.markup">eng</property>
  <property name="kdenlive:meta.attr.1.stream.handler_name.markup">Apple Alias Data Handler</property>
  <property name="kdenlive:meta.attr.1.stream.encoder.markup">Apple ProRes 422 HQ</property>
  <property name="kdenlive:meta.attr.1.stream.timecode.markup">01:03:56:12</property>
  <property name="kdenlive:meta.media.2.stream.type">audio</property>
  <property name="kdenlive:meta.media.2.codec.sample_fmt">s32</property>
  <property name="kdenlive:meta.media.2.codec.sample_rate">48000</property>
  <property name="kdenlive:meta.media.2.codec.channels">2</property>
  <property name="kdenlive:meta.media.2.codec.name">pcm_s24le</property>
  <property name="kdenlive:meta.media.2.codec.long_name">PCM signed 24-bit little-endian</property>
  <property name="kdenlive:meta.media.2.codec.bit_rate">2304000</property>
  <property name="kdenlive:meta.attr.2.stream.creation_time.markup">2017-11-25T01:03:56.000000Z</property>
  <property name="kdenlive:meta.attr.2.stream.language.markup">eng</property>
  <property name="kdenlive:meta.attr.2.stream.handler_name.markup">Apple Alias Data Handler</property>
  <property name="kdenlive:meta.attr.2.stream.timecode.markup">01:03:56:12</property>
  <property name="kdenlive:meta.attr.com.apple.proapps.manufacturer.markup">Blackmagic Design</property>
  <property name="kdenlive:meta.attr.com.apple.proapps.cameraName.markup">CAM2</property>
  <property name="kdenlive:meta.attr.com.apple.proapps.isGood.markup">0</property>
  <property name="kdenlive:meta.attr.com.apple.proapps.customgamma.markup">com.blackmagic-design.cinemacamera.filmlog</property>
  <property name="kdenlive:meta.attr.com.blackmagic-design.cinemacamera.uuid.markup">18E5E00548F94923B646613A73C01B56</property>
  <property name="kdenlive:meta.attr.creation_time.markup">2017-11-25T01:03:56.000000Z</property>
  <property name="kdenlive:meta.attr.timecode.markup">01:03:56:12</property>
  <property name="kdenlive:meta.media.sample_aspect_num">1</property>
  <property name="kdenlive:meta.media.sample_aspect_den">1</property>
  <property name="kdenlive:meta.media.frame_rate_num">24</property>
  <property name="kdenlive:meta.media.frame_rate_den">1</property>
  <property name="kdenlive:meta.media.colorspace">709</property>
  <property name="kdenlive:meta.media.color_trc">1</property>
  <property name="kdenlive:meta.media.width">1920</property>
  <property name="kdenlive:meta.media.height">1080</property>
  <property name="kdenlive:meta.media.top_field_first">0</property>
  <property name="kdenlive:meta.media.progressive">1</property>
  <property name="xml">was here</property>
  <property name="meta.media.nb_streams">2</property>
  <property name="meta.media.0.stream.type">video</property>
  <property name="meta.media.0.stream.frame_rate">24</property>
  <property name="meta.media.0.stream.sample_aspect_ratio">1</property>
  <property name="meta.media.0.codec.width">1920</property>
  <property name="meta.media.0.codec.height">1080</property>
  <property name="meta.media.0.codec.rotate">0</property>
  <property name="meta.media.0.codec.frame_rate">12288</property>
  <property name="meta.media.0.codec.pix_fmt">yuv422p10le</property>
  <property name="meta.media.0.codec.sample_aspect_ratio">0</property>
  <property name="meta.media.0.codec.colorspace">709</property>
  <property name="meta.media.0.codec.color_trc">1</property>
  <property name="meta.media.0.codec.name">dnxhd</property>
  <property name="meta.media.0.codec.long_name">VC3/DNxHD</property>
  <property name="meta.media.0.codec.bit_rate">176160768</property>
  <property name="meta.attr.0.stream.language.markup">eng</property>
  <property name="meta.attr.0.stream.handler_name.markup">VideoHandler</property>
  <property name="meta.attr.0.stream.timecode.markup">01:03:56:12</property>
  <property name="meta.attr.major_brand.markup">qt  </property>
  <property name="meta.attr.minor_version.markup">512</property>
  <property name="meta.attr.compatible_brands.markup">qt  </property>
  <property name="meta.attr.encoder.markup">Lavf57.25.100</property>
  <property name="meta.media.sample_aspect_num">1</property>
  <property name="meta.media.sample_aspect_den">1</property>
  <property name="meta.media.frame_rate_num">24</property>
  <property name="meta.media.frame_rate_den">1</property>
  <property name="meta.media.colorspace">709</property>
  <property name="meta.media.color_trc">1</property>
  <property name="meta.media.width">1920</property>
  <property name="meta.media.height">1080</property>
  <property name="meta.media.top_field_first">0</property>
  <property name="meta.media.progressive">1</property>
 </producer>
 <producer title="Anonymous Submission" id="5_playlist7" in="0" out="3737">
  <property name="length">00:02:35:18</property>
  <property name="eof">pause</property>
  <property name="resource">/media/bordun/Odile/SnapshatAuHarem/etalo/CAM2_2017-11-25_0058_C0004.mov</property>
  <property name="audio_index">2</property>
  <property name="video_index">0</property>
  <property name="mute_on_pause">1</property>
  <property name="mlt_service">avformat-novalidate</property>
  <property name="seekable">1</property>
  <property name="aspect_ratio">1</property>
  <property name="kdenlive:folderid">-1</property>
  <property name="kdenlive:file_size">3474956585</property>
  <property name="kdenlive:file_hash">ad22dd8a06e746adef0131909037660a</property>
  <property name="kdenlive:proxy">-</property>
  <property name="proxy_out">3737</property>
  <property name="kdenlive:originalurl">src/04-06_Couplet2/CAM2_2017-11-25_0058_C0004.mov</property>
  <property name="global_feed">1</property>
  <property name="kdenlive:meta.media.nb_streams">3</property>
  <property name="kdenlive:meta.media.1.stream.type">video</property>
  <property name="kdenlive:meta.media.1.stream.frame_rate">24</property>
  <property name="kdenlive:meta.media.1.stream.sample_aspect_ratio">1</property>
  <property name="kdenlive:meta.media.1.codec.width">1920</property>
  <property name="kdenlive:meta.media.1.codec.height">1080</property>
  <property name="kdenlive:meta.media.1.codec.rotate">0</property>
  <property name="kdenlive:meta.media.1.codec.frame_rate">2400</property>
  <property name="kdenlive:meta.media.1.codec.pix_fmt">yuv422p10le</property>
  <property name="kdenlive:meta.media.1.codec.sample_aspect_ratio">0</property>
  <property name="kdenlive:meta.media.1.codec.colorspace">709</property>
  <property name="kdenlive:meta.media.1.codec.color_trc">1</property>
  <property name="kdenlive:meta.media.1.codec.name">prores</property>
  <property name="kdenlive:meta.media.1.codec.long_name">ProRes</property>
  <property name="kdenlive:meta.media.1.codec.bit_rate">176138656</property>
  <property name="kdenlive:meta.attr.1.stream.creation_time.markup">2017-11-25T00:58:13.000000Z</property>
  <property name="kdenlive:meta.attr.1.stream.language.markup">eng</property>
  <property name="kdenlive:meta.attr.1.stream.handler_name.markup">Apple Alias Data Handler</property>
  <property name="kdenlive:meta.attr.1.stream.encoder.markup">Apple ProRes 422 HQ</property>
  <property name="kdenlive:meta.attr.1.stream.timecode.markup">00:58:13:00</property>
  <property name="kdenlive:meta.media.2.stream.type">audio</property>
  <property name="kdenlive:meta.media.2.codec.sample_fmt">s32</property>
  <property name="kdenlive:meta.media.2.codec.sample_rate">48000</property>
  <property name="kdenlive:meta.media.2.codec.channels">2</property>
  <property name="kdenlive:meta.media.2.codec.name">pcm_s24le</property>
  <property name="kdenlive:meta.media.2.codec.long_name">PCM signed 24-bit little-endian</property>
  <property name="kdenlive:meta.media.2.codec.bit_rate">2304000</property>
  <property name="kdenlive:meta.attr.2.stream.creation_time.markup">2017-11-25T00:58:13.000000Z</property>
  <property name="kdenlive:meta.attr.2.stream.language.markup">eng</property>
  <property name="kdenlive:meta.attr.2.stream.handler_name.markup">Apple Alias Data Handler</property>
  <property name="kdenlive:meta.attr.2.stream.timecode.markup">00:58:13:00</property>
  <property name="kdenlive:meta.attr.com.apple.proapps.manufacturer.markup">Blackmagic Design</property>
  <property name="kdenlive:meta.attr.com.apple.proapps.cameraName.markup">CAM2</property>
  <property name="kdenlive:meta.attr.com.apple.proapps.isGood.markup">0</property>
  <property name="kdenlive:meta.attr.com.apple.proapps.customgamma.markup">com.blackmagic-design.cinemacamera.filmlog</property>
  <property name="kdenlive:meta.attr.com.blackmagic-design.cinemacamera.uuid.markup">18E5E00548F94923B646613A73C01B56</property>
  <property name="kdenlive:meta.attr.creation_time.markup">2017-11-25T00:58:13.000000Z</property>
  <property name="kdenlive:meta.attr.timecode.markup">00:58:13:00</property>
  <property name="kdenlive:meta.media.sample_aspect_num">1</property>
  <property name="kdenlive:meta.media.sample_aspect_den">1</property>
  <property name="kdenlive:meta.media.frame_rate_num">24</property>
  <property name="kdenlive:meta.media.frame_rate_den">1</property>
  <property name="kdenlive:meta.media.colorspace">709</property>
  <property name="kdenlive:meta.media.color_trc">1</property>
  <property name="kdenlive:meta.media.width">1920</property>
  <property name="kdenlive:meta.media.height">1080</property>
  <property name="kdenlive:meta.media.top_field_first">0</property>
  <property name="kdenlive:meta.media.progressive">1</property>
  <property name="xml">was here</property>
  <property name="meta.media.nb_streams">2</property>
  <property name="meta.media.0.stream.type">video</property>
  <property name="meta.media.0.stream.frame_rate">24</property>
  <property name="meta.media.0.stream.sample_aspect_ratio">1</property>
  <property name="meta.media.0.codec.width">1920</property>
  <property name="meta.media.0.codec.height">1080</property>
  <property name="meta.media.0.codec.rotate">0</property>
  <property name="meta.media.0.codec.frame_rate">12288</property>
  <property name="meta.media.0.codec.pix_fmt">yuv422p10le</property>
  <property name="meta.media.0.codec.sample_aspect_ratio">0</property>
  <property name="meta.media.0.codec.colorspace">709</property>
  <property name="meta.media.0.codec.color_trc">1</property>
  <property name="meta.media.0.codec.name">dnxhd</property>
  <property name="meta.media.0.codec.long_name">VC3/DNxHD</property>
  <property name="meta.media.0.codec.bit_rate">176160768</property>
  <property name="meta.attr.0.stream.language.markup">eng</property>
  <property name="meta.attr.0.stream.handler_name.markup">VideoHandler</property>
  <property name="meta.attr.0.stream.timecode.markup">00:58:13:00</property>
  <property name="meta.attr.major_brand.markup">qt  </property>
  <property name="meta.attr.minor_version.markup">512</property>
  <property name="meta.attr.compatible_brands.markup">qt  </property>
  <property name="meta.attr.encoder.markup">Lavf57.25.100</property>
  <property name="meta.media.sample_aspect_num">1</property>
  <property name="meta.media.sample_aspect_den">1</property>
  <property name="meta.media.frame_rate_num">24</property>
  <property name="meta.media.frame_rate_den">1</property>
  <property name="meta.media.colorspace">709</property>
  <property name="meta.media.color_trc">1</property>
  <property name="meta.media.width">1920</property>
  <property name="meta.media.height">1080</property>
  <property name="meta.media.top_field_first">0</property>
  <property name="meta.media.progressive">1</property>
 </producer>
 <producer title="Anonymous Submission" id="4_playlist7" in="0" out="3211">
  <property name="length">00:02:13:20</property>
  <property name="eof">pause</property>
  <property name="resource">/media/bordun/Odile/SnapshatAuHarem/etalo/CAM2_2017-11-25_0055_C0003.mov</property>
  <property name="audio_index">2</property>
  <property name="video_index">0</property>
  <property name="mute_on_pause">1</property>
  <property name="mlt_service">avformat-novalidate</property>
  <property name="seekable">1</property>
  <property name="aspect_ratio">1</property>
  <property name="kdenlive:folderid">-1</property>
  <property name="kdenlive:file_size">2985972857</property>
  <property name="kdenlive:file_hash">74db02cfa5f4e00ec8cbf3778f7bf9ee</property>
  <property name="kdenlive:proxy">-</property>
  <property name="proxy_out">3211</property>
  <property name="kdenlive:originalurl">src/04-06_Couplet2/CAM2_2017-11-25_0055_C0003.mov</property>
  <property name="global_feed">1</property>
  <property name="kdenlive:meta.media.nb_streams">3</property>
  <property name="kdenlive:meta.media.1.stream.type">video</property>
  <property name="kdenlive:meta.media.1.stream.frame_rate">24</property>
  <property name="kdenlive:meta.media.1.stream.sample_aspect_ratio">1</property>
  <property name="kdenlive:meta.media.1.codec.width">1920</property>
  <property name="kdenlive:meta.media.1.codec.height">1080</property>
  <property name="kdenlive:meta.media.1.codec.rotate">0</property>
  <property name="kdenlive:meta.media.1.codec.frame_rate">2400</property>
  <property name="kdenlive:meta.media.1.codec.pix_fmt">yuv422p10le</property>
  <property name="kdenlive:meta.media.1.codec.sample_aspect_ratio">0</property>
  <property name="kdenlive:meta.media.1.codec.colorspace">709</property>
  <property name="kdenlive:meta.media.1.codec.color_trc">1</property>
  <property name="kdenlive:meta.media.1.codec.name">prores</property>
  <property name="kdenlive:meta.media.1.codec.long_name">ProRes</property>
  <property name="kdenlive:meta.media.1.codec.bit_rate">176139229</property>
  <property name="kdenlive:meta.attr.1.stream.creation_time.markup">2017-11-25T00:55:39.000000Z</property>
  <property name="kdenlive:meta.attr.1.stream.language.markup">eng</property>
  <property name="kdenlive:meta.attr.1.stream.handler_name.markup">Apple Alias Data Handler</property>
  <property name="kdenlive:meta.attr.1.stream.encoder.markup">Apple ProRes 422 HQ</property>
  <property name="kdenlive:meta.attr.1.stream.timecode.markup">00:55:39:04</property>
  <property name="kdenlive:meta.media.2.stream.type">audio</property>
  <property name="kdenlive:meta.media.2.codec.sample_fmt">s32</property>
  <property name="kdenlive:meta.media.2.codec.sample_rate">48000</property>
  <property name="kdenlive:meta.media.2.codec.channels">2</property>
  <property name="kdenlive:meta.media.2.codec.name">pcm_s24le</property>
  <property name="kdenlive:meta.media.2.codec.long_name">PCM signed 24-bit little-endian</property>
  <property name="kdenlive:meta.media.2.codec.bit_rate">2304000</property>
  <property name="kdenlive:meta.attr.2.stream.creation_time.markup">2017-11-25T00:55:39.000000Z</property>
  <property name="kdenlive:meta.attr.2.stream.language.markup">eng</property>
  <property name="kdenlive:meta.attr.2.stream.handler_name.markup">Apple Alias Data Handler</property>
  <property name="kdenlive:meta.attr.2.stream.timecode.markup">00:55:39:04</property>
  <property name="kdenlive:meta.attr.com.apple.proapps.manufacturer.markup">Blackmagic Design</property>
  <property name="kdenlive:meta.attr.com.apple.proapps.cameraName.markup">CAM2</property>
  <property name="kdenlive:meta.attr.com.apple.proapps.isGood.markup">0</property>
  <property name="kdenlive:meta.attr.com.apple.proapps.customgamma.markup">com.blackmagic-design.cinemacamera.filmlog</property>
  <property name="kdenlive:meta.attr.com.blackmagic-design.cinemacamera.uuid.markup">18E5E00548F94923B646613A73C01B56</property>
  <property name="kdenlive:meta.attr.creation_time.markup">2017-11-25T00:55:39.000000Z</property>
  <property name="kdenlive:meta.attr.timecode.markup">00:55:39:04</property>
  <property name="kdenlive:meta.media.sample_aspect_num">1</property>
  <property name="kdenlive:meta.media.sample_aspect_den">1</property>
  <property name="kdenlive:meta.media.frame_rate_num">24</property>
  <property name="kdenlive:meta.media.frame_rate_den">1</property>
  <property name="kdenlive:meta.media.colorspace">709</property>
  <property name="kdenlive:meta.media.color_trc">1</property>
  <property name="kdenlive:meta.media.width">1920</property>
  <property name="kdenlive:meta.media.height">1080</property>
  <property name="kdenlive:meta.media.top_field_first">0</property>
  <property name="kdenlive:meta.media.progressive">1</property>
  <property name="xml">was here</property>
  <property name="meta.media.nb_streams">2</property>
  <property name="meta.media.0.stream.type">video</property>
  <property name="meta.media.0.stream.frame_rate">24</property>
  <property name="meta.media.0.stream.sample_aspect_ratio">1</property>
  <property name="meta.media.0.codec.width">1920</property>
  <property name="meta.media.0.codec.height">1080</property>
  <property name="meta.media.0.codec.rotate">0</property>
  <property name="meta.media.0.codec.frame_rate">12288</property>
  <property name="meta.media.0.codec.pix_fmt">yuv422p10le</property>
  <property name="meta.media.0.codec.sample_aspect_ratio">0</property>
  <property name="meta.media.0.codec.colorspace">709</property>
  <property name="meta.media.0.codec.color_trc">1</property>
  <property name="meta.media.0.codec.name">dnxhd</property>
  <property name="meta.media.0.codec.long_name">VC3/DNxHD</property>
  <property name="meta.media.0.codec.bit_rate">176160768</property>
  <property name="meta.attr.0.stream.language.markup">eng</property>
  <property name="meta.attr.0.stream.handler_name.markup">VideoHandler</property>
  <property name="meta.attr.0.stream.timecode.markup">00:55:39:04</property>
  <property name="meta.attr.major_brand.markup">qt  </property>
  <property name="meta.attr.minor_version.markup">512</property>
  <property name="meta.attr.compatible_brands.markup">qt  </property>
  <property name="meta.attr.encoder.markup">Lavf57.25.100</property>
  <property name="meta.media.sample_aspect_num">1</property>
  <property name="meta.media.sample_aspect_den">1</property>
  <property name="meta.media.frame_rate_num">24</property>
  <property name="meta.media.frame_rate_den">1</property>
  <property name="meta.media.colorspace">709</property>
  <property name="meta.media.color_trc">1</property>
  <property name="meta.media.width">1920</property>
  <property name="meta.media.height">1080</property>
  <property name="meta.media.top_field_first">0</property>
  <property name="meta.media.progressive">1</property>
 </producer>
 <producer title="Anonymous Submission" id="3_playlist7" in="0" out="2486">
  <property name="length">00:01:43:15</property>
  <property name="eof">pause</property>
  <property name="resource">/media/bordun/Odile/SnapshatAuHarem/etalo/CAM2_2017-11-25_0053_C0002.mov</property>
  <property name="audio_index">2</property>
  <property name="video_index">0</property>
  <property name="mute_on_pause">1</property>
  <property name="mlt_service">avformat-novalidate</property>
  <property name="seekable">1</property>
  <property name="aspect_ratio">1</property>
  <property name="kdenlive:folderid">-1</property>
  <property name="kdenlive:file_size">2311991689</property>
  <property name="kdenlive:file_hash">c5f1ea41def1623e65612b3f6ed4ed09</property>
  <property name="kdenlive:proxy">-</property>
  <property name="proxy_out">2486</property>
  <property name="kdenlive:originalurl">src/04-06_Couplet2/CAM2_2017-11-25_0053_C0002.mov</property>
  <property name="global_feed">1</property>
  <property name="kdenlive:meta.media.nb_streams">3</property>
  <property name="kdenlive:meta.media.1.stream.type">video</property>
  <property name="kdenlive:meta.media.1.stream.frame_rate">24</property>
  <property name="kdenlive:meta.media.1.stream.sample_aspect_ratio">1</property>
  <property name="kdenlive:meta.media.1.codec.width">1920</property>
  <property name="kdenlive:meta.media.1.codec.height">1080</property>
  <property name="kdenlive:meta.media.1.codec.rotate">0</property>
  <property name="kdenlive:meta.media.1.codec.frame_rate">2400</property>
  <property name="kdenlive:meta.media.1.codec.pix_fmt">yuv422p10le</property>
  <property name="kdenlive:meta.media.1.codec.sample_aspect_ratio">0</property>
  <property name="kdenlive:meta.media.1.codec.colorspace">709</property>
  <property name="kdenlive:meta.media.1.codec.color_trc">1</property>
  <property name="kdenlive:meta.media.1.codec.name">prores</property>
  <property name="kdenlive:meta.media.1.codec.long_name">ProRes</property>
  <property name="kdenlive:meta.media.1.codec.bit_rate">176140925</property>
  <property name="kdenlive:meta.attr.1.stream.creation_time.markup">2017-11-25T00:53:25.000000Z</property>
  <property name="kdenlive:meta.attr.1.stream.language.markup">eng</property>
  <property name="kdenlive:meta.attr.1.stream.handler_name.markup">Apple Alias Data Handler</property>
  <property name="kdenlive:meta.attr.1.stream.encoder.markup">Apple ProRes 422 HQ</property>
  <property name="kdenlive:meta.attr.1.stream.timecode.markup">00:53:25:03</property>
  <property name="kdenlive:meta.media.2.stream.type">audio</property>
  <property name="kdenlive:meta.media.2.codec.sample_fmt">s32</property>
  <property name="kdenlive:meta.media.2.codec.sample_rate">48000</property>
  <property name="kdenlive:meta.media.2.codec.channels">2</property>
  <property name="kdenlive:meta.media.2.codec.name">pcm_s24le</property>
  <property name="kdenlive:meta.media.2.codec.long_name">PCM signed 24-bit little-endian</property>
  <property name="kdenlive:meta.media.2.codec.bit_rate">2304000</property>
  <property name="kdenlive:meta.attr.2.stream.creation_time.markup">2017-11-25T00:53:25.000000Z</property>
  <property name="kdenlive:meta.attr.2.stream.language.markup">eng</property>
  <property name="kdenlive:meta.attr.2.stream.handler_name.markup">Apple Alias Data Handler</property>
  <property name="kdenlive:meta.attr.2.stream.timecode.markup">00:53:25:03</property>
  <property name="kdenlive:meta.attr.com.apple.proapps.manufacturer.markup">Blackmagic Design</property>
  <property name="kdenlive:meta.attr.com.apple.proapps.cameraName.markup">CAM2</property>
  <property name="kdenlive:meta.attr.com.apple.proapps.isGood.markup">0</property>
  <property name="kdenlive:meta.attr.com.apple.proapps.customgamma.markup">com.blackmagic-design.cinemacamera.filmlog</property>
  <property name="kdenlive:meta.attr.com.blackmagic-design.cinemacamera.uuid.markup">18E5E00548F94923B646613A73C01B56</property>
  <property name="kdenlive:meta.attr.creation_time.markup">2017-11-25T00:53:25.000000Z</property>
  <property name="kdenlive:meta.attr.timecode.markup">00:53:25:03</property>
  <property name="kdenlive:meta.media.sample_aspect_num">1</property>
  <property name="kdenlive:meta.media.sample_aspect_den">1</property>
  <property name="kdenlive:meta.media.frame_rate_num">24</property>
  <property name="kdenlive:meta.media.frame_rate_den">1</property>
  <property name="kdenlive:meta.media.colorspace">709</property>
  <property name="kdenlive:meta.media.color_trc">1</property>
  <property name="kdenlive:meta.media.width">1920</property>
  <property name="kdenlive:meta.media.height">1080</property>
  <property name="kdenlive:meta.media.top_field_first">0</property>
  <property name="kdenlive:meta.media.progressive">1</property>
  <property name="xml">was here</property>
  <property name="meta.media.nb_streams">2</property>
  <property name="meta.media.0.stream.type">video</property>
  <property name="meta.media.0.stream.frame_rate">24</property>
  <property name="meta.media.0.stream.sample_aspect_ratio">1</property>
  <property name="meta.media.0.codec.width">1920</property>
  <property name="meta.media.0.codec.height">1080</property>
  <property name="meta.media.0.codec.rotate">0</property>
  <property name="meta.media.0.codec.frame_rate">12288</property>
  <property name="meta.media.0.codec.pix_fmt">yuv422p10le</property>
  <property name="meta.media.0.codec.sample_aspect_ratio">0</property>
  <property name="meta.media.0.codec.colorspace">709</property>
  <property name="meta.media.0.codec.color_trc">1</property>
  <property name="meta.media.0.codec.name">dnxhd</property>
  <property name="meta.media.0.codec.long_name">VC3/DNxHD</property>
  <property name="meta.media.0.codec.bit_rate">176160768</property>
  <property name="meta.attr.0.stream.language.markup">eng</property>
  <property name="meta.attr.0.stream.handler_name.markup">VideoHandler</property>
  <property name="meta.attr.0.stream.timecode.markup">00:53:25:03</property>
  <property name="meta.attr.major_brand.markup">qt  </property>
  <property name="meta.attr.minor_version.markup">512</property>
  <property name="meta.attr.compatible_brands.markup">qt  </property>
  <property name="meta.attr.encoder.markup">Lavf57.25.100</property>
  <property name="meta.media.sample_aspect_num">1</property>
  <property name="meta.media.sample_aspect_den">1</property>
  <property name="meta.media.frame_rate_num">24</property>
  <property name="meta.media.frame_rate_den">1</property>
  <property name="meta.media.colorspace">709</property>
  <property name="meta.media.color_trc">1</property>
  <property name="meta.media.width">1920</property>
  <property name="meta.media.height">1080</property>
  <property name="meta.media.top_field_first">0</property>
  <property name="meta.media.progressive">1</property>
 </producer>
 <playlist id="playlist7">
  <property name="kdenlive:track_name">Video 6</property>
  <property name="kdenlive:locked_track">0</property>
  <blank length="2167"/>
  <entry producer="7_playlist7" in="0" out="1174"/>
  <blank length="184"/>
  <entry producer="6_playlist7" in="2839" out="2861">
   <filter id="frei0r.sigmoidaltransfer">
    <property name="version">0,9</property>
    <property name="mlt_service">frei0r.sigmoidaltransfer</property>
    <property name="kdenlive_id">frei0r.sigmoidaltransfer</property>
    <property name="tag">frei0r.sigmoidaltransfer</property>
    <property name="kdenlive_ix">1</property>
    <property name="0">0,874</property>
    <property name="1">0,556</property>
    <property name="kdenlive_info"/>
   </filter>
  </entry>
  <blank length="38"/>
  <entry producer="5_playlist7" in="2618" out="2641"/>
  <blank length="36"/>
  <entry producer="4_playlist7" in="1926" out="1942"/>
  <entry producer="3_playlist7" in="1200" out="1206"/>
  <blank length="42"/>
  <entry producer="7_playlist7" in="1544" out="1601"/>
  <blank length="115"/>
  <entry producer="7_playlist7" in="1719" out="2664"/>
 </playlist>
 <producer title="Anonymous Submission" id="8_playlist23" in="0" out="6028">
  <property name="length">00:04:11:05</property>
  <property name="eof">pause</property>
  <property name="resource">/media/bordun/Odile/SnapshatAuHarem/etalo/CAM2_2017-11-24_0134_C0000.mov</property>
  <property name="audio_index">2</property>
  <property name="video_index">0</property>
  <property name="mute_on_pause">1</property>
  <property name="mlt_service">avformat-novalidate</property>
  <property name="seekable">1</property>
  <property name="aspect_ratio">1</property>
  <property name="kdenlive:folderid">-1</property>
  <property name="kdenlive:file_size">5604735529</property>
  <property name="kdenlive:file_hash">f7c0adb0953aed98701c13058f2178f5</property>
  <property name="kdenlive:proxy">-</property>
  <property name="proxy_out">6028</property>
  <property name="kdenlive:originalurl">src/04-06_Couplet2/mao1.sshfs/CAM2_2017-11-24_0134_C0000.mov</property>
  <property name="global_feed">1</property>
  <property name="kdenlive:meta.media.nb_streams">3</property>
  <property name="kdenlive:meta.media.1.stream.type">video</property>
  <property name="kdenlive:meta.media.1.stream.frame_rate">24</property>
  <property name="kdenlive:meta.media.1.stream.sample_aspect_ratio">1</property>
  <property name="kdenlive:meta.media.1.codec.width">1920</property>
  <property name="kdenlive:meta.media.1.codec.height">1080</property>
  <property name="kdenlive:meta.media.1.codec.rotate">0</property>
  <property name="kdenlive:meta.media.1.codec.frame_rate">2400</property>
  <property name="kdenlive:meta.media.1.codec.pix_fmt">yuv422p10le</property>
  <property name="kdenlive:meta.media.1.codec.sample_aspect_ratio">0</property>
  <property name="kdenlive:meta.media.1.codec.colorspace">709</property>
  <property name="kdenlive:meta.media.1.codec.color_trc">1</property>
  <property name="kdenlive:meta.media.1.codec.name">prores</property>
  <property name="kdenlive:meta.media.1.codec.long_name">ProRes</property>
  <property name="kdenlive:meta.media.1.codec.bit_rate">176141058</property>
  <property name="kdenlive:meta.attr.1.stream.creation_time.markup">2017-11-24T01:34:34.000000Z</property>
  <property name="kdenlive:meta.attr.1.stream.language.markup">eng</property>
  <property name="kdenlive:meta.attr.1.stream.handler_name.markup">Apple Alias Data Handler</property>
  <property name="kdenlive:meta.attr.1.stream.encoder.markup">Apple ProRes 422 HQ</property>
  <property name="kdenlive:meta.attr.1.stream.timecode.markup">01:34:34:10</property>
  <property name="kdenlive:meta.media.2.stream.type">audio</property>
  <property name="kdenlive:meta.media.2.codec.sample_fmt">s32</property>
  <property name="kdenlive:meta.media.2.codec.sample_rate">48000</property>
  <property name="kdenlive:meta.media.2.codec.channels">2</property>
  <property name="kdenlive:meta.media.2.codec.name">pcm_s24le</property>
  <property name="kdenlive:meta.media.2.codec.long_name">PCM signed 24-bit little-endian</property>
  <property name="kdenlive:meta.media.2.codec.bit_rate">2304000</property>
  <property name="kdenlive:meta.attr.2.stream.creation_time.markup">2017-11-24T01:34:34.000000Z</property>
  <property name="kdenlive:meta.attr.2.stream.language.markup">eng</property>
  <property name="kdenlive:meta.attr.2.stream.handler_name.markup">Apple Alias Data Handler</property>
  <property name="kdenlive:meta.attr.2.stream.timecode.markup">01:34:34:10</property>
  <property name="kdenlive:meta.attr.com.apple.proapps.manufacturer.markup">Blackmagic Design</property>
  <property name="kdenlive:meta.attr.com.apple.proapps.cameraName.markup">CAM2</property>
  <property name="kdenlive:meta.attr.com.apple.proapps.isGood.markup">0</property>
  <property name="kdenlive:meta.attr.com.apple.proapps.customgamma.markup">com.blackmagic-design.cinemacamera.filmlog</property>
  <property name="kdenlive:meta.attr.com.blackmagic-design.cinemacamera.uuid.markup">18E5E00548F94923B646613A73C01B56</property>
  <property name="kdenlive:meta.attr.creation_time.markup">2017-11-24T01:34:34.000000Z</property>
  <property name="kdenlive:meta.attr.timecode.markup">01:34:34:10</property>
  <property name="kdenlive:meta.media.sample_aspect_num">1</property>
  <property name="kdenlive:meta.media.sample_aspect_den">1</property>
  <property name="kdenlive:meta.media.frame_rate_num">24</property>
  <property name="kdenlive:meta.media.frame_rate_den">1</property>
  <property name="kdenlive:meta.media.colorspace">709</property>
  <property name="kdenlive:meta.media.color_trc">1</property>
  <property name="kdenlive:meta.media.width">1920</property>
  <property name="kdenlive:meta.media.height">1080</property>
  <property name="kdenlive:meta.media.top_field_first">0</property>
  <property name="kdenlive:meta.media.progressive">1</property>
  <property name="xml">was here</property>
  <property name="meta.media.nb_streams">2</property>
  <property name="meta.media.1.stream.type">video</property>
  <property name="meta.media.1.stream.frame_rate">24</property>
  <property name="meta.media.1.stream.sample_aspect_ratio">1</property>
  <property name="meta.media.1.codec.width">1920</property>
  <property name="meta.media.1.codec.height">1080</property>
  <property name="meta.media.1.codec.rotate">0</property>
  <property name="meta.media.1.codec.frame_rate">2400</property>
  <property name="meta.media.1.codec.pix_fmt">yuv422p10le</property>
  <property name="meta.media.1.codec.sample_aspect_ratio">0</property>
  <property name="meta.media.1.codec.colorspace">709</property>
  <property name="meta.media.1.codec.color_trc">1</property>
  <property name="meta.media.1.codec.name">prores</property>
  <property name="meta.media.1.codec.long_name">ProRes</property>
  <property name="meta.media.1.codec.bit_rate">176141058</property>
  <property name="meta.attr.1.stream.creation_time.markup">2017-11-24T01:34:34.000000Z</property>
  <property name="meta.attr.1.stream.language.markup">eng</property>
  <property name="meta.attr.1.stream.handler_name.markup">Apple Alias Data Handler</property>
  <property name="meta.attr.1.stream.encoder.markup">Apple ProRes 422 HQ</property>
  <property name="meta.attr.1.stream.timecode.markup">01:34:34:10</property>
  <property name="meta.media.2.stream.type">audio</property>
  <property name="meta.media.2.codec.sample_fmt">s32</property>
  <property name="meta.media.2.codec.sample_rate">48000</property>
  <property name="meta.media.2.codec.channels">2</property>
  <property name="meta.media.2.codec.name">pcm_s24le</property>
  <property name="meta.media.2.codec.long_name">PCM signed 24-bit little-endian</property>
  <property name="meta.media.2.codec.bit_rate">2304000</property>
  <property name="meta.attr.2.stream.creation_time.markup">2017-11-24T01:34:34.000000Z</property>
  <property name="meta.attr.2.stream.language.markup">eng</property>
  <property name="meta.attr.2.stream.handler_name.markup">Apple Alias Data Handler</property>
  <property name="meta.attr.2.stream.timecode.markup">01:34:34:10</property>
  <property name="meta.attr.com.apple.proapps.manufacturer.markup">Blackmagic Design</property>
  <property name="meta.attr.com.apple.proapps.cameraName.markup">CAM2</property>
  <property name="meta.attr.com.apple.proapps.isGood.markup">0</property>
  <property name="meta.attr.com.apple.proapps.customgamma.markup">com.blackmagic-design.cinemacamera.filmlog</property>
  <property name="meta.attr.com.blackmagic-design.cinemacamera.uuid.markup">18E5E00548F94923B646613A73C01B56</property>
  <property name="meta.attr.creation_time.markup">2017-11-24T01:34:34.000000Z</property>
  <property name="meta.attr.timecode.markup">01:34:34:10</property>
  <property name="meta.media.sample_aspect_num">1</property>
  <property name="meta.media.sample_aspect_den">1</property>
  <property name="meta.media.frame_rate_num">24</property>
  <property name="meta.media.frame_rate_den">1</property>
  <property name="meta.media.colorspace">709</property>
  <property name="meta.media.color_trc">1</property>
  <property name="meta.media.width">1920</property>
  <property name="meta.media.height">1080</property>
  <property name="meta.media.top_field_first">0</property>
  <property name="meta.media.progressive">1</property>
  <property name="meta.media.0.stream.type">video</property>
  <property name="meta.media.0.stream.frame_rate">24</property>
  <property name="meta.media.0.stream.sample_aspect_ratio">1</property>
  <property name="meta.media.0.codec.width">1920</property>
  <property name="meta.media.0.codec.height">1080</property>
  <property name="meta.media.0.codec.rotate">0</property>
  <property name="meta.media.0.codec.frame_rate">12288</property>
  <property name="meta.media.0.codec.pix_fmt">yuv422p10le</property>
  <property name="meta.media.0.codec.sample_aspect_ratio">0</property>
  <property name="meta.media.0.codec.colorspace">709</property>
  <property name="meta.media.0.codec.color_trc">1</property>
  <property name="meta.media.0.codec.name">dnxhd</property>
  <property name="meta.media.0.codec.long_name">VC3/DNxHD</property>
  <property name="meta.media.0.codec.bit_rate">176160768</property>
  <property name="meta.attr.0.stream.language.markup">eng</property>
  <property name="meta.attr.0.stream.handler_name.markup">Core Media Data Handler</property>
  <property name="meta.attr.0.stream.timecode.markup">01:34:34:10</property>
  <property name="meta.attr.major_brand.markup">qt  </property>
  <property name="meta.attr.minor_version.markup">512</property>
  <property name="meta.attr.compatible_brands.markup">qt  </property>
  <property name="meta.attr.encoder.markup">Lavf57.25.100</property>
 </producer>
 <playlist id="playlist23">
  <property name="kdenlive:track_name">TravellingMoyen</property>
  <property name="kdenlive:locked_track">1</property>
  <blank length="2596"/>
  <entry producer="8_playlist23" in="4201" out="5018"/>
 </playlist>
 <producer title="Anonymous Submission" id="9_playlist9" in="0" out="5047">
  <property name="length">00:03:30:08</property>
  <property name="eof">pause</property>
  <property name="resource">/media/bordun/Odile/SnapshatAuHarem/etalo/CAM2_2017-11-24_0143_C0001.mov</property>
  <property name="audio_index">2</property>
  <property name="video_index">0</property>
  <property name="mute_on_pause">1</property>
  <property name="mlt_service">avformat-novalidate</property>
  <property name="seekable">1</property>
  <property name="aspect_ratio">1</property>
  <property name="kdenlive:folderid">-1</property>
  <property name="kdenlive:file_size">4692771041</property>
  <property name="kdenlive:file_hash">9f6e41c981f7658d7aa446ca21b52691</property>
  <property name="kdenlive:proxy">-</property>
  <property name="proxy_out">5047</property>
  <property name="kdenlive:originalurl">src/04-06_Couplet2/mao1.sshfs/CAM2_2017-11-24_0143_C0001.mov</property>
  <property name="global_feed">1</property>
  <property name="kdenlive:meta.media.nb_streams">3</property>
  <property name="kdenlive:meta.media.1.stream.type">video</property>
  <property name="kdenlive:meta.media.1.stream.frame_rate">24</property>
  <property name="kdenlive:meta.media.1.stream.sample_aspect_ratio">1</property>
  <property name="kdenlive:meta.media.1.codec.width">1920</property>
  <property name="kdenlive:meta.media.1.codec.height">1080</property>
  <property name="kdenlive:meta.media.1.codec.rotate">0</property>
  <property name="kdenlive:meta.media.1.codec.frame_rate">2400</property>
  <property name="kdenlive:meta.media.1.codec.pix_fmt">yuv422p10le</property>
  <property name="kdenlive:meta.media.1.codec.sample_aspect_ratio">0</property>
  <property name="kdenlive:meta.media.1.codec.colorspace">709</property>
  <property name="kdenlive:meta.media.1.codec.color_trc">1</property>
  <property name="kdenlive:meta.media.1.codec.name">prores</property>
  <property name="kdenlive:meta.media.1.codec.long_name">ProRes</property>
  <property name="kdenlive:meta.media.1.codec.bit_rate">176140696</property>
  <property name="kdenlive:meta.attr.1.stream.creation_time.markup">2017-11-24T01:43:03.000000Z</property>
  <property name="kdenlive:meta.attr.1.stream.language.markup">eng</property>
  <property name="kdenlive:meta.attr.1.stream.handler_name.markup">Apple Alias Data Handler</property>
  <property name="kdenlive:meta.attr.1.stream.encoder.markup">Apple ProRes 422 HQ</property>
  <property name="kdenlive:meta.attr.1.stream.timecode.markup">01:43:03:00</property>
  <property name="kdenlive:meta.media.2.stream.type">audio</property>
  <property name="kdenlive:meta.media.2.codec.sample_fmt">s32</property>
  <property name="kdenlive:meta.media.2.codec.sample_rate">48000</property>
  <property name="kdenlive:meta.media.2.codec.channels">2</property>
  <property name="kdenlive:meta.media.2.codec.name">pcm_s24le</property>
  <property name="kdenlive:meta.media.2.codec.long_name">PCM signed 24-bit little-endian</property>
  <property name="kdenlive:meta.media.2.codec.bit_rate">2304000</property>
  <property name="kdenlive:meta.attr.2.stream.creation_time.markup">2017-11-24T01:43:03.000000Z</property>
  <property name="kdenlive:meta.attr.2.stream.language.markup">eng</property>
  <property name="kdenlive:meta.attr.2.stream.handler_name.markup">Apple Alias Data Handler</property>
  <property name="kdenlive:meta.attr.2.stream.timecode.markup">01:43:03:00</property>
  <property name="kdenlive:meta.attr.com.apple.proapps.manufacturer.markup">Blackmagic Design</property>
  <property name="kdenlive:meta.attr.com.apple.proapps.cameraName.markup">CAM2</property>
  <property name="kdenlive:meta.attr.com.apple.proapps.isGood.markup">0</property>
  <property name="kdenlive:meta.attr.com.apple.proapps.customgamma.markup">com.blackmagic-design.cinemacamera.filmlog</property>
  <property name="kdenlive:meta.attr.com.blackmagic-design.cinemacamera.uuid.markup">18E5E00548F94923B646613A73C01B56</property>
  <property name="kdenlive:meta.attr.creation_time.markup">2017-11-24T01:43:03.000000Z</property>
  <property name="kdenlive:meta.attr.timecode.markup">01:43:03:00</property>
  <property name="kdenlive:meta.media.sample_aspect_num">1</property>
  <property name="kdenlive:meta.media.sample_aspect_den">1</property>
  <property name="kdenlive:meta.media.frame_rate_num">24</property>
  <property name="kdenlive:meta.media.frame_rate_den">1</property>
  <property name="kdenlive:meta.media.colorspace">709</property>
  <property name="kdenlive:meta.media.color_trc">1</property>
  <property name="kdenlive:meta.media.width">1920</property>
  <property name="kdenlive:meta.media.height">1080</property>
  <property name="kdenlive:meta.media.top_field_first">0</property>
  <property name="kdenlive:meta.media.progressive">1</property>
  <property name="xml">was here</property>
  <property name="meta.media.nb_streams">2</property>
  <property name="meta.media.1.stream.type">video</property>
  <property name="meta.media.1.stream.frame_rate">24</property>
  <property name="meta.media.1.stream.sample_aspect_ratio">1</property>
  <property name="meta.media.1.codec.width">1920</property>
  <property name="meta.media.1.codec.height">1080</property>
  <property name="meta.media.1.codec.rotate">0</property>
  <property name="meta.media.1.codec.frame_rate">2400</property>
  <property name="meta.media.1.codec.pix_fmt">yuv422p10le</property>
  <property name="meta.media.1.codec.sample_aspect_ratio">0</property>
  <property name="meta.media.1.codec.colorspace">709</property>
  <property name="meta.media.1.codec.color_trc">1</property>
  <property name="meta.media.1.codec.name">prores</property>
  <property name="meta.media.1.codec.long_name">ProRes</property>
  <property name="meta.media.1.codec.bit_rate">176140696</property>
  <property name="meta.attr.1.stream.creation_time.markup">2017-11-24T01:43:03.000000Z</property>
  <property name="meta.attr.1.stream.language.markup">eng</property>
  <property name="meta.attr.1.stream.handler_name.markup">Apple Alias Data Handler</property>
  <property name="meta.attr.1.stream.encoder.markup">Apple ProRes 422 HQ</property>
  <property name="meta.attr.1.stream.timecode.markup">01:43:03:00</property>
  <property name="meta.media.2.stream.type">audio</property>
  <property name="meta.media.2.codec.sample_fmt">s32</property>
  <property name="meta.media.2.codec.sample_rate">48000</property>
  <property name="meta.media.2.codec.channels">2</property>
  <property name="meta.media.2.codec.name">pcm_s24le</property>
  <property name="meta.media.2.codec.long_name">PCM signed 24-bit little-endian</property>
  <property name="meta.media.2.codec.bit_rate">2304000</property>
  <property name="meta.attr.2.stream.creation_time.markup">2017-11-24T01:43:03.000000Z</property>
  <property name="meta.attr.2.stream.language.markup">eng</property>
  <property name="meta.attr.2.stream.handler_name.markup">Apple Alias Data Handler</property>
  <property name="meta.attr.2.stream.timecode.markup">01:43:03:00</property>
  <property name="meta.attr.com.apple.proapps.manufacturer.markup">Blackmagic Design</property>
  <property name="meta.attr.com.apple.proapps.cameraName.markup">CAM2</property>
  <property name="meta.attr.com.apple.proapps.isGood.markup">0</property>
  <property name="meta.attr.com.apple.proapps.customgamma.markup">com.blackmagic-design.cinemacamera.filmlog</property>
  <property name="meta.attr.com.blackmagic-design.cinemacamera.uuid.markup">18E5E00548F94923B646613A73C01B56</property>
  <property name="meta.attr.creation_time.markup">2017-11-24T01:43:03.000000Z</property>
  <property name="meta.attr.timecode.markup">01:43:03:00</property>
  <property name="meta.media.sample_aspect_num">1</property>
  <property name="meta.media.sample_aspect_den">1</property>
  <property name="meta.media.frame_rate_num">24</property>
  <property name="meta.media.frame_rate_den">1</property>
  <property name="meta.media.colorspace">709</property>
  <property name="meta.media.color_trc">1</property>
  <property name="meta.media.width">1920</property>
  <property name="meta.media.height">1080</property>
  <property name="meta.media.top_field_first">0</property>
  <property name="meta.media.progressive">1</property>
  <property name="meta.media.0.stream.type">video</property>
  <property name="meta.media.0.stream.frame_rate">24</property>
  <property name="meta.media.0.stream.sample_aspect_ratio">1</property>
  <property name="meta.media.0.codec.width">1920</property>
  <property name="meta.media.0.codec.height">1080</property>
  <property name="meta.media.0.codec.rotate">0</property>
  <property name="meta.media.0.codec.frame_rate">12288</property>
  <property name="meta.media.0.codec.pix_fmt">yuv422p10le</property>
  <property name="meta.media.0.codec.sample_aspect_ratio">0</property>
  <property name="meta.media.0.codec.colorspace">709</property>
  <property name="meta.media.0.codec.color_trc">1</property>
  <property name="meta.media.0.codec.name">dnxhd</property>
  <property name="meta.media.0.codec.long_name">VC3/DNxHD</property>
  <property name="meta.media.0.codec.bit_rate">176160768</property>
  <property name="meta.attr.0.stream.language.markup">eng</property>
  <property name="meta.attr.0.stream.handler_name.markup">VideoHandler</property>
  <property name="meta.attr.0.stream.timecode.markup">01:43:03:00</property>
  <property name="meta.attr.major_brand.markup">qt  </property>
  <property name="meta.attr.minor_version.markup">512</property>
  <property name="meta.attr.compatible_brands.markup">qt  </property>
  <property name="meta.attr.encoder.markup">Lavf57.25.100</property>
 </producer>
 <playlist id="playlist9">
  <property name="kdenlive:track_name">TravellingProcheCalme</property>
  <property name="kdenlive:locked_track">0</property>
  <blank length="1168"/>
  <entry producer="9_playlist9" in="4101" out="4340"/>
  <blank length="759"/>
  <entry producer="9_playlist9" in="1885" out="3059"/>
  <blank length="692"/>
  <entry producer="9_playlist9" in="3752" out="4100"/>
  <filter id="filter7">
   <property name="channel">0</property>
   <property name="mlt_service">panner</property>
   <property name="kdenlive_id">audiopan</property>
   <property name="tag">panner</property>
   <property name="kdenlive_ix">1</property>
   <property name="kdenlive_info"/>
   <property name="disable"/>
   <property name="start">1</property>
  </filter>
 </playlist>
 <producer title="Anonymous Submission" id="10_playlist10" in="0" out="2728">
  <property name="length">00:01:53:17</property>
  <property name="eof">pause</property>
  <property name="resource">/media/bordun/Odile/SnapshatAuHarem/etalo/CAM2_2017-11-24_0148_C0002.mov</property>
  <property name="audio_index">2</property>
  <property name="video_index">0</property>
  <property name="mute_on_pause">1</property>
  <property name="mlt_service">avformat-novalidate</property>
  <property name="seekable">1</property>
  <property name="aspect_ratio">1</property>
  <property name="kdenlive:folderid">-1</property>
  <property name="kdenlive:file_size">2536962009</property>
  <property name="kdenlive:file_hash">302d091637657ca34b70898f916f892b</property>
  <property name="kdenlive:proxy">-</property>
  <property name="proxy_out">2728</property>
  <property name="kdenlive:originalurl">src/04-06_Couplet2/mao1.sshfs/CAM2_2017-11-24_0148_C0002.mov</property>
  <property name="global_feed">1</property>
  <property name="kdenlive:meta.media.nb_streams">3</property>
  <property name="kdenlive:meta.media.1.stream.type">video</property>
  <property name="kdenlive:meta.media.1.stream.frame_rate">24</property>
  <property name="kdenlive:meta.media.1.stream.sample_aspect_ratio">1</property>
  <property name="kdenlive:meta.media.1.codec.width">1920</property>
  <property name="kdenlive:meta.media.1.codec.height">1080</property>
  <property name="kdenlive:meta.media.1.codec.rotate">0</property>
  <property name="kdenlive:meta.media.1.codec.frame_rate">2400</property>
  <property name="kdenlive:meta.media.1.codec.pix_fmt">yuv422p10le</property>
  <property name="kdenlive:meta.media.1.codec.sample_aspect_ratio">0</property>
  <property name="kdenlive:meta.media.1.codec.colorspace">709</property>
  <property name="kdenlive:meta.media.1.codec.color_trc">1</property>
  <property name="kdenlive:meta.media.1.codec.name">prores</property>
  <property name="kdenlive:meta.media.1.codec.long_name">ProRes</property>
  <property name="kdenlive:meta.media.1.codec.bit_rate">176141156</property>
  <property name="kdenlive:meta.attr.1.stream.creation_time.markup">2017-11-24T01:48:50.000000Z</property>
  <property name="kdenlive:meta.attr.1.stream.language.markup">eng</property>
  <property name="kdenlive:meta.attr.1.stream.handler_name.markup">Apple Alias Data Handler</property>
  <property name="kdenlive:meta.attr.1.stream.encoder.markup">Apple ProRes 422 HQ</property>
  <property name="kdenlive:meta.attr.1.stream.timecode.markup">01:48:50:12</property>
  <property name="kdenlive:meta.media.2.stream.type">audio</property>
  <property name="kdenlive:meta.media.2.codec.sample_fmt">s32</property>
  <property name="kdenlive:meta.media.2.codec.sample_rate">48000</property>
  <property name="kdenlive:meta.media.2.codec.channels">2</property>
  <property name="kdenlive:meta.media.2.codec.name">pcm_s24le</property>
  <property name="kdenlive:meta.media.2.codec.long_name">PCM signed 24-bit little-endian</property>
  <property name="kdenlive:meta.media.2.codec.bit_rate">2304000</property>
  <property name="kdenlive:meta.attr.2.stream.creation_time.markup">2017-11-24T01:48:50.000000Z</property>
  <property name="kdenlive:meta.attr.2.stream.language.markup">eng</property>
  <property name="kdenlive:meta.attr.2.stream.handler_name.markup">Apple Alias Data Handler</property>
  <property name="kdenlive:meta.attr.2.stream.timecode.markup">01:48:50:12</property>
  <property name="kdenlive:meta.attr.com.apple.proapps.manufacturer.markup">Blackmagic Design</property>
  <property name="kdenlive:meta.attr.com.apple.proapps.cameraName.markup">CAM2</property>
  <property name="kdenlive:meta.attr.com.apple.proapps.isGood.markup">0</property>
  <property name="kdenlive:meta.attr.com.apple.proapps.customgamma.markup">com.blackmagic-design.cinemacamera.filmlog</property>
  <property name="kdenlive:meta.attr.com.blackmagic-design.cinemacamera.uuid.markup">18E5E00548F94923B646613A73C01B56</property>
  <property name="kdenlive:meta.attr.creation_time.markup">2017-11-24T01:48:50.000000Z</property>
  <property name="kdenlive:meta.attr.timecode.markup">01:48:50:12</property>
  <property name="kdenlive:meta.media.sample_aspect_num">1</property>
  <property name="kdenlive:meta.media.sample_aspect_den">1</property>
  <property name="kdenlive:meta.media.frame_rate_num">24</property>
  <property name="kdenlive:meta.media.frame_rate_den">1</property>
  <property name="kdenlive:meta.media.colorspace">709</property>
  <property name="kdenlive:meta.media.color_trc">1</property>
  <property name="kdenlive:meta.media.width">1920</property>
  <property name="kdenlive:meta.media.height">1080</property>
  <property name="kdenlive:meta.media.top_field_first">0</property>
  <property name="kdenlive:meta.media.progressive">1</property>
  <property name="xml">was here</property>
  <property name="meta.media.nb_streams">2</property>
  <property name="meta.media.1.stream.type">video</property>
  <property name="meta.media.1.stream.frame_rate">24</property>
  <property name="meta.media.1.stream.sample_aspect_ratio">1</property>
  <property name="meta.media.1.codec.width">1920</property>
  <property name="meta.media.1.codec.height">1080</property>
  <property name="meta.media.1.codec.rotate">0</property>
  <property name="meta.media.1.codec.frame_rate">2400</property>
  <property name="meta.media.1.codec.pix_fmt">yuv422p10le</property>
  <property name="meta.media.1.codec.sample_aspect_ratio">0</property>
  <property name="meta.media.1.codec.colorspace">709</property>
  <property name="meta.media.1.codec.color_trc">1</property>
  <property name="meta.media.1.codec.name">prores</property>
  <property name="meta.media.1.codec.long_name">ProRes</property>
  <property name="meta.media.1.codec.bit_rate">176141156</property>
  <property name="meta.attr.1.stream.creation_time.markup">2017-11-24T01:48:50.000000Z</property>
  <property name="meta.attr.1.stream.language.markup">eng</property>
  <property name="meta.attr.1.stream.handler_name.markup">Apple Alias Data Handler</property>
  <property name="meta.attr.1.stream.encoder.markup">Apple ProRes 422 HQ</property>
  <property name="meta.attr.1.stream.timecode.markup">01:48:50:12</property>
  <property name="meta.media.2.stream.type">audio</property>
  <property name="meta.media.2.codec.sample_fmt">s32</property>
  <property name="meta.media.2.codec.sample_rate">48000</property>
  <property name="meta.media.2.codec.channels">2</property>
  <property name="meta.media.2.codec.name">pcm_s24le</property>
  <property name="meta.media.2.codec.long_name">PCM signed 24-bit little-endian</property>
  <property name="meta.media.2.codec.bit_rate">2304000</property>
  <property name="meta.attr.2.stream.creation_time.markup">2017-11-24T01:48:50.000000Z</property>
  <property name="meta.attr.2.stream.language.markup">eng</property>
  <property name="meta.attr.2.stream.handler_name.markup">Apple Alias Data Handler</property>
  <property name="meta.attr.2.stream.timecode.markup">01:48:50:12</property>
  <property name="meta.attr.com.apple.proapps.manufacturer.markup">Blackmagic Design</property>
  <property name="meta.attr.com.apple.proapps.cameraName.markup">CAM2</property>
  <property name="meta.attr.com.apple.proapps.isGood.markup">0</property>
  <property name="meta.attr.com.apple.proapps.customgamma.markup">com.blackmagic-design.cinemacamera.filmlog</property>
  <property name="meta.attr.com.blackmagic-design.cinemacamera.uuid.markup">18E5E00548F94923B646613A73C01B56</property>
  <property name="meta.attr.creation_time.markup">2017-11-24T01:48:50.000000Z</property>
  <property name="meta.attr.timecode.markup">01:48:50:12</property>
  <property name="meta.media.sample_aspect_num">1</property>
  <property name="meta.media.sample_aspect_den">1</property>
  <property name="meta.media.frame_rate_num">24</property>
  <property name="meta.media.frame_rate_den">1</property>
  <property name="meta.media.colorspace">709</property>
  <property name="meta.media.color_trc">1</property>
  <property name="meta.media.width">1920</property>
  <property name="meta.media.height">1080</property>
  <property name="meta.media.top_field_first">0</property>
  <property name="meta.media.progressive">1</property>
  <property name="meta.media.0.stream.type">video</property>
  <property name="meta.media.0.stream.frame_rate">24</property>
  <property name="meta.media.0.stream.sample_aspect_ratio">1</property>
  <property name="meta.media.0.codec.width">1920</property>
  <property name="meta.media.0.codec.height">1080</property>
  <property name="meta.media.0.codec.rotate">0</property>
  <property name="meta.media.0.codec.frame_rate">12288</property>
  <property name="meta.media.0.codec.pix_fmt">yuv422p10le</property>
  <property name="meta.media.0.codec.sample_aspect_ratio">0</property>
  <property name="meta.media.0.codec.colorspace">709</property>
  <property name="meta.media.0.codec.color_trc">1</property>
  <property name="meta.media.0.codec.name">dnxhd</property>
  <property name="meta.media.0.codec.long_name">VC3/DNxHD</property>
  <property name="meta.media.0.codec.bit_rate">176160768</property>
  <property name="meta.attr.0.stream.language.markup">eng</property>
  <property name="meta.attr.0.stream.handler_name.markup">VideoHandler</property>
  <property name="meta.attr.0.stream.timecode.markup">01:48:50:12</property>
  <property name="meta.attr.major_brand.markup">qt  </property>
  <property name="meta.attr.minor_version.markup">512</property>
  <property name="meta.attr.compatible_brands.markup">qt  </property>
  <property name="meta.attr.encoder.markup">Lavf57.25.100</property>
 </producer>
 <producer title="Anonymous Submission" id="11_playlist10" in="0" out="1866">
  <property name="length">00:01:17:19</property>
  <property name="eof">pause</property>
  <property name="resource">/media/bordun/Odile/SnapshatAuHarem/etalo/CAM2_2017-11-24_0152_C0003.mov</property>
  <property name="audio_index">2</property>
  <property name="video_index">0</property>
  <property name="mute_on_pause">1</property>
  <property name="mlt_service">avformat-novalidate</property>
  <property name="seekable">1</property>
  <property name="aspect_ratio">1</property>
  <property name="kdenlive:folderid">-1</property>
  <property name="kdenlive:file_size">1735623353</property>
  <property name="kdenlive:file_hash">135377d0fb800f4c0227e31eacc02d7f</property>
  <property name="kdenlive:proxy">-</property>
  <property name="proxy_out">1866</property>
  <property name="kdenlive:originalurl">src/04-06_Couplet2/mao1.sshfs/CAM2_2017-11-24_0152_C0003.mov</property>
  <property name="global_feed">1</property>
  <property name="kdenlive:meta.media.nb_streams">3</property>
  <property name="kdenlive:meta.media.1.stream.type">video</property>
  <property name="kdenlive:meta.media.1.stream.frame_rate">24</property>
  <property name="kdenlive:meta.media.1.stream.sample_aspect_ratio">1</property>
  <property name="kdenlive:meta.media.1.codec.width">1920</property>
  <property name="kdenlive:meta.media.1.codec.height">1080</property>
  <property name="kdenlive:meta.media.1.codec.rotate">0</property>
  <property name="kdenlive:meta.media.1.codec.frame_rate">2400</property>
  <property name="kdenlive:meta.media.1.codec.pix_fmt">yuv422p10le</property>
  <property name="kdenlive:meta.media.1.codec.sample_aspect_ratio">0</property>
  <property name="kdenlive:meta.media.1.codec.colorspace">709</property>
  <property name="kdenlive:meta.media.1.codec.color_trc">1</property>
  <property name="kdenlive:meta.media.1.codec.name">prores</property>
  <property name="kdenlive:meta.media.1.codec.long_name">ProRes</property>
  <property name="kdenlive:meta.media.1.codec.bit_rate">176140680</property>
  <property name="kdenlive:meta.attr.1.stream.creation_time.markup">2017-11-24T01:52:33.000000Z</property>
  <property name="kdenlive:meta.attr.1.stream.language.markup">eng</property>
  <property name="kdenlive:meta.attr.1.stream.handler_name.markup">Apple Alias Data Handler</property>
  <property name="kdenlive:meta.attr.1.stream.encoder.markup">Apple ProRes 422 HQ</property>
  <property name="kdenlive:meta.attr.1.stream.timecode.markup">01:52:33:01</property>
  <property name="kdenlive:meta.media.2.stream.type">audio</property>
  <property name="kdenlive:meta.media.2.codec.sample_fmt">s32</property>
  <property name="kdenlive:meta.media.2.codec.sample_rate">48000</property>
  <property name="kdenlive:meta.media.2.codec.channels">2</property>
  <property name="kdenlive:meta.media.2.codec.name">pcm_s24le</property>
  <property name="kdenlive:meta.media.2.codec.long_name">PCM signed 24-bit little-endian</property>
  <property name="kdenlive:meta.media.2.codec.bit_rate">2304000</property>
  <property name="kdenlive:meta.attr.2.stream.creation_time.markup">2017-11-24T01:52:33.000000Z</property>
  <property name="kdenlive:meta.attr.2.stream.language.markup">eng</property>
  <property name="kdenlive:meta.attr.2.stream.handler_name.markup">Apple Alias Data Handler</property>
  <property name="kdenlive:meta.attr.2.stream.timecode.markup">01:52:33:01</property>
  <property name="kdenlive:meta.attr.com.apple.proapps.manufacturer.markup">Blackmagic Design</property>
  <property name="kdenlive:meta.attr.com.apple.proapps.cameraName.markup">CAM2</property>
  <property name="kdenlive:meta.attr.com.apple.proapps.isGood.markup">0</property>
  <property name="kdenlive:meta.attr.com.apple.proapps.customgamma.markup">com.blackmagic-design.cinemacamera.filmlog</property>
  <property name="kdenlive:meta.attr.com.blackmagic-design.cinemacamera.uuid.markup">18E5E00548F94923B646613A73C01B56</property>
  <property name="kdenlive:meta.attr.creation_time.markup">2017-11-24T01:52:33.000000Z</property>
  <property name="kdenlive:meta.attr.timecode.markup">01:52:33:01</property>
  <property name="kdenlive:meta.media.sample_aspect_num">1</property>
  <property name="kdenlive:meta.media.sample_aspect_den">1</property>
  <property name="kdenlive:meta.media.frame_rate_num">24</property>
  <property name="kdenlive:meta.media.frame_rate_den">1</property>
  <property name="kdenlive:meta.media.colorspace">709</property>
  <property name="kdenlive:meta.media.color_trc">1</property>
  <property name="kdenlive:meta.media.width">1920</property>
  <property name="kdenlive:meta.media.height">1080</property>
  <property name="kdenlive:meta.media.top_field_first">0</property>
  <property name="kdenlive:meta.media.progressive">1</property>
  <property name="xml">was here</property>
  <property name="meta.media.nb_streams">2</property>
  <property name="meta.media.0.stream.type">video</property>
  <property name="meta.media.0.stream.frame_rate">24</property>
  <property name="meta.media.0.stream.sample_aspect_ratio">1</property>
  <property name="meta.media.0.codec.width">1920</property>
  <property name="meta.media.0.codec.height">1080</property>
  <property name="meta.media.0.codec.rotate">0</property>
  <property name="meta.media.0.codec.frame_rate">12288</property>
  <property name="meta.media.0.codec.pix_fmt">yuv422p10le</property>
  <property name="meta.media.0.codec.sample_aspect_ratio">0</property>
  <property name="meta.media.0.codec.colorspace">709</property>
  <property name="meta.media.0.codec.color_trc">1</property>
  <property name="meta.media.0.codec.name">dnxhd</property>
  <property name="meta.media.0.codec.long_name">VC3/DNxHD</property>
  <property name="meta.media.0.codec.bit_rate">176160768</property>
  <property name="meta.attr.0.stream.language.markup">eng</property>
  <property name="meta.attr.0.stream.handler_name.markup">VideoHandler</property>
  <property name="meta.attr.0.stream.timecode.markup">01:52:33:01</property>
  <property name="meta.attr.major_brand.markup">qt  </property>
  <property name="meta.attr.minor_version.markup">512</property>
  <property name="meta.attr.compatible_brands.markup">qt  </property>
  <property name="meta.attr.encoder.markup">Lavf57.25.100</property>
  <property name="meta.media.sample_aspect_num">1</property>
  <property name="meta.media.sample_aspect_den">1</property>
  <property name="meta.media.frame_rate_num">24</property>
  <property name="meta.media.frame_rate_den">1</property>
  <property name="meta.media.colorspace">709</property>
  <property name="meta.media.color_trc">1</property>
  <property name="meta.media.width">1920</property>
  <property name="meta.media.height">1080</property>
  <property name="meta.media.top_field_first">0</property>
  <property name="meta.media.progressive">1</property>
 </producer>
 <producer title="Anonymous Submission" id="18_playlist10" in="0" out="4770">
  <property name="length">00:03:18:19</property>
  <property name="eof">pause</property>
  <property name="resource">/media/bordun/Odile/SnapshatAuHarem/etalo/CAM2_2017-11-25_0314_C0000.mov</property>
  <property name="audio_index">2</property>
  <property name="video_index">0</property>
  <property name="mute_on_pause">1</property>
  <property name="mlt_service">avformat-novalidate</property>
  <property name="seekable">1</property>
  <property name="aspect_ratio">1</property>
  <property name="kdenlive:folderid">-1</property>
  <property name="kdenlive:file_size">4435262081</property>
  <property name="kdenlive:file_hash">b8760f3be8f075de8abd8e49fdd57d02</property>
  <property name="kdenlive:proxy">-</property>
  <property name="proxy_out">4770</property>
  <property name="kdenlive:originalurl">src/TheWholeRushes/Dimanche_matin/CAM2_2017-11-25_0314_C0000.mov</property>
  <property name="global_feed">1</property>
  <property name="kdenlive:meta.media.nb_streams">3</property>
  <property name="kdenlive:meta.media.1.stream.type">video</property>
  <property name="kdenlive:meta.media.1.stream.frame_rate">24</property>
  <property name="kdenlive:meta.media.1.stream.sample_aspect_ratio">1</property>
  <property name="kdenlive:meta.media.1.codec.width">1920</property>
  <property name="kdenlive:meta.media.1.codec.height">1080</property>
  <property name="kdenlive:meta.media.1.codec.rotate">0</property>
  <property name="kdenlive:meta.media.1.codec.frame_rate">2400</property>
  <property name="kdenlive:meta.media.1.codec.pix_fmt">yuv422p10le</property>
  <property name="kdenlive:meta.media.1.codec.sample_aspect_ratio">0</property>
  <property name="kdenlive:meta.media.1.codec.colorspace">709</property>
  <property name="kdenlive:meta.media.1.codec.color_trc">1</property>
  <property name="kdenlive:meta.media.1.codec.name">prores</property>
  <property name="kdenlive:meta.media.1.codec.long_name">ProRes</property>
  <property name="kdenlive:meta.media.1.codec.bit_rate">176139916</property>
  <property name="kdenlive:meta.attr.1.stream.creation_time.markup">2017-11-25T03:14:02.000000Z</property>
  <property name="kdenlive:meta.attr.1.stream.language.markup">eng</property>
  <property name="kdenlive:meta.attr.1.stream.handler_name.markup">Apple Alias Data Handler</property>
  <property name="kdenlive:meta.attr.1.stream.encoder.markup">Apple ProRes 422 HQ</property>
  <property name="kdenlive:meta.attr.1.stream.timecode.markup">03:14:02:23</property>
  <property name="kdenlive:meta.media.2.stream.type">audio</property>
  <property name="kdenlive:meta.media.2.codec.sample_fmt">s32</property>
  <property name="kdenlive:meta.media.2.codec.sample_rate">48000</property>
  <property name="kdenlive:meta.media.2.codec.channels">2</property>
  <property name="kdenlive:meta.media.2.codec.name">pcm_s24le</property>
  <property name="kdenlive:meta.media.2.codec.long_name">PCM signed 24-bit little-endian</property>
  <property name="kdenlive:meta.media.2.codec.bit_rate">2304000</property>
  <property name="kdenlive:meta.attr.2.stream.creation_time.markup">2017-11-25T03:14:02.000000Z</property>
  <property name="kdenlive:meta.attr.2.stream.language.markup">eng</property>
  <property name="kdenlive:meta.attr.2.stream.handler_name.markup">Apple Alias Data Handler</property>
  <property name="kdenlive:meta.attr.2.stream.timecode.markup">03:14:02:23</property>
  <property name="kdenlive:meta.attr.com.apple.proapps.manufacturer.markup">Blackmagic Design</property>
  <property name="kdenlive:meta.attr.com.apple.proapps.cameraName.markup">CAM2</property>
  <property name="kdenlive:meta.attr.com.apple.proapps.isGood.markup">0</property>
  <property name="kdenlive:meta.attr.com.apple.proapps.customgamma.markup">com.blackmagic-design.cinemacamera.filmlog</property>
  <property name="kdenlive:meta.attr.com.blackmagic-design.cinemacamera.uuid.markup">18E5E00548F94923B646613A73C01B56</property>
  <property name="kdenlive:meta.attr.creation_time.markup">2017-11-25T03:14:02.000000Z</property>
  <property name="kdenlive:meta.attr.timecode.markup">03:14:02:23</property>
  <property name="kdenlive:meta.media.sample_aspect_num">1</property>
  <property name="kdenlive:meta.media.sample_aspect_den">1</property>
  <property name="kdenlive:meta.media.frame_rate_num">24</property>
  <property name="kdenlive:meta.media.frame_rate_den">1</property>
  <property name="kdenlive:meta.media.colorspace">709</property>
  <property name="kdenlive:meta.media.color_trc">1</property>
  <property name="kdenlive:meta.media.width">1920</property>
  <property name="kdenlive:meta.media.height">1080</property>
  <property name="kdenlive:meta.media.top_field_first">0</property>
  <property name="kdenlive:meta.media.progressive">1</property>
  <property name="kdenlive:zone_in">1284</property>
  <property name="kdenlive:zone_out">1548</property>
  <property name="xml">was here</property>
  <property name="meta.media.nb_streams">2</property>
  <property name="meta.media.0.stream.type">video</property>
  <property name="meta.media.0.stream.frame_rate">24</property>
  <property name="meta.media.0.stream.sample_aspect_ratio">1</property>
  <property name="meta.media.0.codec.width">1920</property>
  <property name="meta.media.0.codec.height">1080</property>
  <property name="meta.media.0.codec.rotate">0</property>
  <property name="meta.media.0.codec.frame_rate">12288</property>
  <property name="meta.media.0.codec.pix_fmt">yuv422p10le</property>
  <property name="meta.media.0.codec.sample_aspect_ratio">0</property>
  <property name="meta.media.0.codec.colorspace">709</property>
  <property name="meta.media.0.codec.color_trc">1</property>
  <property name="meta.media.0.codec.name">dnxhd</property>
  <property name="meta.media.0.codec.long_name">VC3/DNxHD</property>
  <property name="meta.media.0.codec.bit_rate">176160768</property>
  <property name="meta.attr.0.stream.language.markup">eng</property>
  <property name="meta.attr.0.stream.handler_name.markup">VideoHandler</property>
  <property name="meta.attr.0.stream.timecode.markup">03:14:02:23</property>
  <property name="meta.attr.major_brand.markup">qt  </property>
  <property name="meta.attr.minor_version.markup">512</property>
  <property name="meta.attr.compatible_brands.markup">qt  </property>
  <property name="meta.attr.encoder.markup">Lavf57.25.100</property>
  <property name="meta.media.sample_aspect_num">1</property>
  <property name="meta.media.sample_aspect_den">1</property>
  <property name="meta.media.frame_rate_num">24</property>
  <property name="meta.media.frame_rate_den">1</property>
  <property name="meta.media.colorspace">709</property>
  <property name="meta.media.color_trc">1</property>
  <property name="meta.media.width">1920</property>
  <property name="meta.media.height">1080</property>
  <property name="meta.media.top_field_first">0</property>
  <property name="meta.media.progressive">1</property>
 </producer>
 <playlist id="playlist10">
  <property name="kdenlive:track_name">Video 9</property>
  <property name="kdenlive:locked_track">0</property>
  <blank length="1659"/>
  <entry producer="10_playlist10" in="0" out="1682"/>
  <blank length="264"/>
  <entry producer="11_playlist10" in="1211" out="1248"/>
  <blank length="113"/>
  <entry producer="18_playlist10" in="3974" out="3996"/>
  <entry producer="18_playlist10" in="3979" out="4021"/>
  <entry producer="18_playlist10" in="4022" out="4023">
   <filter id="frei0r.rgbsplit0r">
    <property name="version">0,1</property>
    <property name="mlt_service">frei0r.rgbsplit0r</property>
    <property name="kdenlive_id">frei0r.rgbsplit0r</property>
    <property name="tag">frei0r.rgbsplit0r</property>
    <property name="kdenlive_ix">1</property>
    <property name="kdenlive_info"/>
    <property name="disable"/>
    <property name="0">0,02</property>
    <property name="1">0</property>
   </filter>
  </entry>
  <entry producer="18_playlist10" in="4024" out="4025">
   <filter id="filter4">
    <property name="version">0,1</property>
    <property name="mlt_service">frei0r.rgbsplit0r</property>
    <property name="kdenlive_id">frei0r.rgbsplit0r</property>
    <property name="tag">frei0r.rgbsplit0r</property>
    <property name="kdenlive_ix">1</property>
    <property name="kdenlive_info"/>
    <property name="disable"/>
    <property name="0">0,04</property>
    <property name="1">0</property>
   </filter>
  </entry>
  <entry producer="18_playlist10" in="4026" out="4027">
   <filter id="filter5">
    <property name="version">0,1</property>
    <property name="mlt_service">frei0r.rgbsplit0r</property>
    <property name="kdenlive_id">frei0r.rgbsplit0r</property>
    <property name="tag">frei0r.rgbsplit0r</property>
    <property name="kdenlive_ix">1</property>
    <property name="kdenlive_info"/>
    <property name="disable"/>
    <property name="0">0,06</property>
    <property name="1">0</property>
   </filter>
  </entry>
  <entry producer="18_playlist10" in="4028" out="4029">
   <filter id="filter6">
    <property name="version">0,1</property>
    <property name="mlt_service">frei0r.rgbsplit0r</property>
    <property name="kdenlive_id">frei0r.rgbsplit0r</property>
    <property name="tag">frei0r.rgbsplit0r</property>
    <property name="kdenlive_ix">1</property>
    <property name="kdenlive_info"/>
    <property name="disable"/>
    <property name="0">0,08</property>
    <property name="1">0</property>
   </filter>
  </entry>
  <entry producer="18_playlist10" in="4030" out="4031">
   <filter id="filter8">
    <property name="version">0,1</property>
    <property name="mlt_service">frei0r.rgbsplit0r</property>
    <property name="kdenlive_id">frei0r.rgbsplit0r</property>
    <property name="tag">frei0r.rgbsplit0r</property>
    <property name="kdenlive_ix">1</property>
    <property name="kdenlive_info"/>
    <property name="disable"/>
    <property name="0">0,1</property>
    <property name="1">0</property>
   </filter>
  </entry>
  <entry producer="18_playlist10" in="4032" out="4033">
   <filter id="filter9">
    <property name="version">0,1</property>
    <property name="mlt_service">frei0r.rgbsplit0r</property>
    <property name="kdenlive_id">frei0r.rgbsplit0r</property>
    <property name="tag">frei0r.rgbsplit0r</property>
    <property name="kdenlive_ix">1</property>
    <property name="kdenlive_info"/>
    <property name="disable"/>
    <property name="0">0,12</property>
    <property name="1">0</property>
   </filter>
  </entry>
  <blank length="37"/>
  <entry producer="10_playlist10" in="2213" out="2255"/>
  <blank length="28"/>
  <entry producer="18_playlist10" in="2373" out="2390"/>
  <entry producer="18_playlist10" in="2391" out="2398"/>
  <entry producer="10_playlist10" in="2311" out="2358"/>
  <blank length="31"/>
  <entry producer="10_playlist10" in="2389" out="2728"/>
 </playlist>
 <producer title="Anonymous Submission" id="11_playlist11" in="0" out="1866">
  <property name="length">00:01:17:19</property>
  <property name="eof">pause</property>
  <property name="resource">/media/bordun/Odile/SnapshatAuHarem/etalo/CAM2_2017-11-24_0152_C0003.mov</property>
  <property name="audio_index">2</property>
  <property name="video_index">0</property>
  <property name="mute_on_pause">1</property>
  <property name="mlt_service">avformat-novalidate</property>
  <property name="seekable">1</property>
  <property name="aspect_ratio">1</property>
  <property name="kdenlive:folderid">-1</property>
  <property name="kdenlive:file_size">1735623353</property>
  <property name="kdenlive:file_hash">135377d0fb800f4c0227e31eacc02d7f</property>
  <property name="kdenlive:proxy">-</property>
  <property name="proxy_out">1866</property>
  <property name="kdenlive:originalurl">src/04-06_Couplet2/mao1.sshfs/CAM2_2017-11-24_0152_C0003.mov</property>
  <property name="global_feed">1</property>
  <property name="kdenlive:meta.media.nb_streams">3</property>
  <property name="kdenlive:meta.media.1.stream.type">video</property>
  <property name="kdenlive:meta.media.1.stream.frame_rate">24</property>
  <property name="kdenlive:meta.media.1.stream.sample_aspect_ratio">1</property>
  <property name="kdenlive:meta.media.1.codec.width">1920</property>
  <property name="kdenlive:meta.media.1.codec.height">1080</property>
  <property name="kdenlive:meta.media.1.codec.rotate">0</property>
  <property name="kdenlive:meta.media.1.codec.frame_rate">2400</property>
  <property name="kdenlive:meta.media.1.codec.pix_fmt">yuv422p10le</property>
  <property name="kdenlive:meta.media.1.codec.sample_aspect_ratio">0</property>
  <property name="kdenlive:meta.media.1.codec.colorspace">709</property>
  <property name="kdenlive:meta.media.1.codec.color_trc">1</property>
  <property name="kdenlive:meta.media.1.codec.name">prores</property>
  <property name="kdenlive:meta.media.1.codec.long_name">ProRes</property>
  <property name="kdenlive:meta.media.1.codec.bit_rate">176140680</property>
  <property name="kdenlive:meta.attr.1.stream.creation_time.markup">2017-11-24T01:52:33.000000Z</property>
  <property name="kdenlive:meta.attr.1.stream.language.markup">eng</property>
  <property name="kdenlive:meta.attr.1.stream.handler_name.markup">Apple Alias Data Handler</property>
  <property name="kdenlive:meta.attr.1.stream.encoder.markup">Apple ProRes 422 HQ</property>
  <property name="kdenlive:meta.attr.1.stream.timecode.markup">01:52:33:01</property>
  <property name="kdenlive:meta.media.2.stream.type">audio</property>
  <property name="kdenlive:meta.media.2.codec.sample_fmt">s32</property>
  <property name="kdenlive:meta.media.2.codec.sample_rate">48000</property>
  <property name="kdenlive:meta.media.2.codec.channels">2</property>
  <property name="kdenlive:meta.media.2.codec.name">pcm_s24le</property>
  <property name="kdenlive:meta.media.2.codec.long_name">PCM signed 24-bit little-endian</property>
  <property name="kdenlive:meta.media.2.codec.bit_rate">2304000</property>
  <property name="kdenlive:meta.attr.2.stream.creation_time.markup">2017-11-24T01:52:33.000000Z</property>
  <property name="kdenlive:meta.attr.2.stream.language.markup">eng</property>
  <property name="kdenlive:meta.attr.2.stream.handler_name.markup">Apple Alias Data Handler</property>
  <property name="kdenlive:meta.attr.2.stream.timecode.markup">01:52:33:01</property>
  <property name="kdenlive:meta.attr.com.apple.proapps.manufacturer.markup">Blackmagic Design</property>
  <property name="kdenlive:meta.attr.com.apple.proapps.cameraName.markup">CAM2</property>
  <property name="kdenlive:meta.attr.com.apple.proapps.isGood.markup">0</property>
  <property name="kdenlive:meta.attr.com.apple.proapps.customgamma.markup">com.blackmagic-design.cinemacamera.filmlog</property>
  <property name="kdenlive:meta.attr.com.blackmagic-design.cinemacamera.uuid.markup">18E5E00548F94923B646613A73C01B56</property>
  <property name="kdenlive:meta.attr.creation_time.markup">2017-11-24T01:52:33.000000Z</property>
  <property name="kdenlive:meta.attr.timecode.markup">01:52:33:01</property>
  <property name="kdenlive:meta.media.sample_aspect_num">1</property>
  <property name="kdenlive:meta.media.sample_aspect_den">1</property>
  <property name="kdenlive:meta.media.frame_rate_num">24</property>
  <property name="kdenlive:meta.media.frame_rate_den">1</property>
  <property name="kdenlive:meta.media.colorspace">709</property>
  <property name="kdenlive:meta.media.color_trc">1</property>
  <property name="kdenlive:meta.media.width">1920</property>
  <property name="kdenlive:meta.media.height">1080</property>
  <property name="kdenlive:meta.media.top_field_first">0</property>
  <property name="kdenlive:meta.media.progressive">1</property>
  <property name="xml">was here</property>
  <property name="meta.media.nb_streams">2</property>
  <property name="meta.media.1.stream.type">video</property>
  <property name="meta.media.1.stream.frame_rate">24</property>
  <property name="meta.media.1.stream.sample_aspect_ratio">1</property>
  <property name="meta.media.1.codec.width">1920</property>
  <property name="meta.media.1.codec.height">1080</property>
  <property name="meta.media.1.codec.rotate">0</property>
  <property name="meta.media.1.codec.frame_rate">2400</property>
  <property name="meta.media.1.codec.pix_fmt">yuv422p10le</property>
  <property name="meta.media.1.codec.sample_aspect_ratio">0</property>
  <property name="meta.media.1.codec.colorspace">709</property>
  <property name="meta.media.1.codec.color_trc">1</property>
  <property name="meta.media.1.codec.name">prores</property>
  <property name="meta.media.1.codec.long_name">ProRes</property>
  <property name="meta.media.1.codec.bit_rate">176140680</property>
  <property name="meta.attr.1.stream.creation_time.markup">2017-11-24T01:52:33.000000Z</property>
  <property name="meta.attr.1.stream.language.markup">eng</property>
  <property name="meta.attr.1.stream.handler_name.markup">Apple Alias Data Handler</property>
  <property name="meta.attr.1.stream.encoder.markup">Apple ProRes 422 HQ</property>
  <property name="meta.attr.1.stream.timecode.markup">01:52:33:01</property>
  <property name="meta.media.2.stream.type">audio</property>
  <property name="meta.media.2.codec.sample_fmt">s32</property>
  <property name="meta.media.2.codec.sample_rate">48000</property>
  <property name="meta.media.2.codec.channels">2</property>
  <property name="meta.media.2.codec.name">pcm_s24le</property>
  <property name="meta.media.2.codec.long_name">PCM signed 24-bit little-endian</property>
  <property name="meta.media.2.codec.bit_rate">2304000</property>
  <property name="meta.attr.2.stream.creation_time.markup">2017-11-24T01:52:33.000000Z</property>
  <property name="meta.attr.2.stream.language.markup">eng</property>
  <property name="meta.attr.2.stream.handler_name.markup">Apple Alias Data Handler</property>
  <property name="meta.attr.2.stream.timecode.markup">01:52:33:01</property>
  <property name="meta.attr.com.apple.proapps.manufacturer.markup">Blackmagic Design</property>
  <property name="meta.attr.com.apple.proapps.cameraName.markup">CAM2</property>
  <property name="meta.attr.com.apple.proapps.isGood.markup">0</property>
  <property name="meta.attr.com.apple.proapps.customgamma.markup">com.blackmagic-design.cinemacamera.filmlog</property>
  <property name="meta.attr.com.blackmagic-design.cinemacamera.uuid.markup">18E5E00548F94923B646613A73C01B56</property>
  <property name="meta.attr.creation_time.markup">2017-11-24T01:52:33.000000Z</property>
  <property name="meta.attr.timecode.markup">01:52:33:01</property>
  <property name="meta.media.sample_aspect_num">1</property>
  <property name="meta.media.sample_aspect_den">1</property>
  <property name="meta.media.frame_rate_num">24</property>
  <property name="meta.media.frame_rate_den">1</property>
  <property name="meta.media.colorspace">709</property>
  <property name="meta.media.color_trc">1</property>
  <property name="meta.media.width">1920</property>
  <property name="meta.media.height">1080</property>
  <property name="meta.media.top_field_first">0</property>
  <property name="meta.media.progressive">1</property>
  <property name="meta.media.0.stream.type">video</property>
  <property name="meta.media.0.stream.frame_rate">24</property>
  <property name="meta.media.0.stream.sample_aspect_ratio">1</property>
  <property name="meta.media.0.codec.width">1920</property>
  <property name="meta.media.0.codec.height">1080</property>
  <property name="meta.media.0.codec.rotate">0</property>
  <property name="meta.media.0.codec.frame_rate">12288</property>
  <property name="meta.media.0.codec.pix_fmt">yuv422p10le</property>
  <property name="meta.media.0.codec.sample_aspect_ratio">0</property>
  <property name="meta.media.0.codec.colorspace">709</property>
  <property name="meta.media.0.codec.color_trc">1</property>
  <property name="meta.media.0.codec.name">dnxhd</property>
  <property name="meta.media.0.codec.long_name">VC3/DNxHD</property>
  <property name="meta.media.0.codec.bit_rate">176160768</property>
  <property name="meta.attr.0.stream.language.markup">eng</property>
  <property name="meta.attr.0.stream.handler_name.markup">VideoHandler</property>
  <property name="meta.attr.0.stream.timecode.markup">01:52:33:01</property>
  <property name="meta.attr.major_brand.markup">qt  </property>
  <property name="meta.attr.minor_version.markup">512</property>
  <property name="meta.attr.compatible_brands.markup">qt  </property>
  <property name="meta.attr.encoder.markup">Lavf57.25.100</property>
 </producer>
 <playlist id="playlist11">
  <property name="kdenlive:track_name">Video 10</property>
  <property name="kdenlive:locked_track">0</property>
  <blank length="2399"/>
  <entry producer="11_playlist11" in="0" out="942"/>
  <blank length="685"/>
  <entry producer="11_playlist11" in="1628" out="1866"/>
  <filter id="filter14">
   <property name="channel">0</property>
   <property name="mlt_service">panner</property>
   <property name="kdenlive_id">audiopan</property>
   <property name="tag">panner</property>
   <property name="kdenlive_ix">1</property>
   <property name="kdenlive_info"/>
   <property name="disable"/>
   <property name="start">1</property>
  </filter>
 </playlist>
 <producer title="Anonymous Submission" id="13_playlist18" in="0" out="4885">
  <property name="length">00:03:23:14</property>
  <property name="eof">pause</property>
  <property name="resource">/media/bordun/Odile/SnapshatAuHarem/etalo/CAM2_2017-11-24_0236_C0005.mov</property>
  <property name="audio_index">2</property>
  <property name="video_index">0</property>
  <property name="mute_on_pause">1</property>
  <property name="mlt_service">avformat-novalidate</property>
  <property name="seekable">1</property>
  <property name="aspect_ratio">1</property>
  <property name="kdenlive:folderid">-1</property>
  <property name="kdenlive:file_size">4542172841</property>
  <property name="kdenlive:file_hash">91feebd31e13c0397d7c7f4aa158eeea</property>
  <property name="kdenlive:proxy">-</property>
  <property name="proxy_out">4885</property>
  <property name="kdenlive:originalurl">src/04-06_Couplet2/mao1.sshfs/CAM2_2017-11-24_0236_C0005.mov</property>
  <property name="global_feed">1</property>
  <property name="kdenlive:meta.media.nb_streams">3</property>
  <property name="kdenlive:meta.media.1.stream.type">video</property>
  <property name="kdenlive:meta.media.1.stream.frame_rate">24</property>
  <property name="kdenlive:meta.media.1.stream.sample_aspect_ratio">1</property>
  <property name="kdenlive:meta.media.1.codec.width">1920</property>
  <property name="kdenlive:meta.media.1.codec.height">1080</property>
  <property name="kdenlive:meta.media.1.codec.rotate">0</property>
  <property name="kdenlive:meta.media.1.codec.frame_rate">2400</property>
  <property name="kdenlive:meta.media.1.codec.pix_fmt">yuv422p10le</property>
  <property name="kdenlive:meta.media.1.codec.sample_aspect_ratio">0</property>
  <property name="kdenlive:meta.media.1.codec.colorspace">709</property>
  <property name="kdenlive:meta.media.1.codec.color_trc">1</property>
  <property name="kdenlive:meta.media.1.codec.name">prores</property>
  <property name="kdenlive:meta.media.1.codec.long_name">ProRes</property>
  <property name="kdenlive:meta.media.1.codec.bit_rate">176139589</property>
  <property name="kdenlive:meta.attr.1.stream.creation_time.markup">2017-11-24T02:36:10.000000Z</property>
  <property name="kdenlive:meta.attr.1.stream.language.markup">eng</property>
  <property name="kdenlive:meta.attr.1.stream.handler_name.markup">Apple Alias Data Handler</property>
  <property name="kdenlive:meta.attr.1.stream.encoder.markup">Apple ProRes 422 HQ</property>
  <property name="kdenlive:meta.attr.1.stream.timecode.markup">02:36:10:06</property>
  <property name="kdenlive:meta.media.2.stream.type">audio</property>
  <property name="kdenlive:meta.media.2.codec.sample_fmt">s32</property>
  <property name="kdenlive:meta.media.2.codec.sample_rate">48000</property>
  <property name="kdenlive:meta.media.2.codec.channels">2</property>
  <property name="kdenlive:meta.media.2.codec.name">pcm_s24le</property>
  <property name="kdenlive:meta.media.2.codec.long_name">PCM signed 24-bit little-endian</property>
  <property name="kdenlive:meta.media.2.codec.bit_rate">2304000</property>
  <property name="kdenlive:meta.attr.2.stream.creation_time.markup">2017-11-24T02:36:10.000000Z</property>
  <property name="kdenlive:meta.attr.2.stream.language.markup">eng</property>
  <property name="kdenlive:meta.attr.2.stream.handler_name.markup">Apple Alias Data Handler</property>
  <property name="kdenlive:meta.attr.2.stream.timecode.markup">02:36:10:06</property>
  <property name="kdenlive:meta.attr.com.apple.proapps.manufacturer.markup">Blackmagic Design</property>
  <property name="kdenlive:meta.attr.com.apple.proapps.cameraName.markup">CAM2</property>
  <property name="kdenlive:meta.attr.com.apple.proapps.isGood.markup">0</property>
  <property name="kdenlive:meta.attr.com.apple.proapps.customgamma.markup">com.blackmagic-design.cinemacamera.filmlog</property>
  <property name="kdenlive:meta.attr.com.blackmagic-design.cinemacamera.uuid.markup">18E5E00548F94923B646613A73C01B56</property>
  <property name="kdenlive:meta.attr.creation_time.markup">2017-11-24T02:36:10.000000Z</property>
  <property name="kdenlive:meta.attr.timecode.markup">02:36:10:06</property>
  <property name="kdenlive:meta.media.sample_aspect_num">1</property>
  <property name="kdenlive:meta.media.sample_aspect_den">1</property>
  <property name="kdenlive:meta.media.frame_rate_num">24</property>
  <property name="kdenlive:meta.media.frame_rate_den">1</property>
  <property name="kdenlive:meta.media.colorspace">709</property>
  <property name="kdenlive:meta.media.color_trc">1</property>
  <property name="kdenlive:meta.media.width">1920</property>
  <property name="kdenlive:meta.media.height">1080</property>
  <property name="kdenlive:meta.media.top_field_first">0</property>
  <property name="kdenlive:meta.media.progressive">1</property>
  <property name="xml">was here</property>
  <property name="meta.media.nb_streams">2</property>
  <property name="meta.media.1.stream.type">video</property>
  <property name="meta.media.1.stream.frame_rate">24</property>
  <property name="meta.media.1.stream.sample_aspect_ratio">1</property>
  <property name="meta.media.1.codec.width">1920</property>
  <property name="meta.media.1.codec.height">1080</property>
  <property name="meta.media.1.codec.rotate">0</property>
  <property name="meta.media.1.codec.frame_rate">2400</property>
  <property name="meta.media.1.codec.pix_fmt">yuv422p10le</property>
  <property name="meta.media.1.codec.sample_aspect_ratio">0</property>
  <property name="meta.media.1.codec.colorspace">709</property>
  <property name="meta.media.1.codec.color_trc">1</property>
  <property name="meta.media.1.codec.name">prores</property>
  <property name="meta.media.1.codec.long_name">ProRes</property>
  <property name="meta.media.1.codec.bit_rate">176139589</property>
  <property name="meta.attr.1.stream.creation_time.markup">2017-11-24T02:36:10.000000Z</property>
  <property name="meta.attr.1.stream.language.markup">eng</property>
  <property name="meta.attr.1.stream.handler_name.markup">Apple Alias Data Handler</property>
  <property name="meta.attr.1.stream.encoder.markup">Apple ProRes 422 HQ</property>
  <property name="meta.attr.1.stream.timecode.markup">02:36:10:06</property>
  <property name="meta.media.2.stream.type">audio</property>
  <property name="meta.media.2.codec.sample_fmt">s32</property>
  <property name="meta.media.2.codec.sample_rate">48000</property>
  <property name="meta.media.2.codec.channels">2</property>
  <property name="meta.media.2.codec.name">pcm_s24le</property>
  <property name="meta.media.2.codec.long_name">PCM signed 24-bit little-endian</property>
  <property name="meta.media.2.codec.bit_rate">2304000</property>
  <property name="meta.attr.2.stream.creation_time.markup">2017-11-24T02:36:10.000000Z</property>
  <property name="meta.attr.2.stream.language.markup">eng</property>
  <property name="meta.attr.2.stream.handler_name.markup">Apple Alias Data Handler</property>
  <property name="meta.attr.2.stream.timecode.markup">02:36:10:06</property>
  <property name="meta.attr.com.apple.proapps.manufacturer.markup">Blackmagic Design</property>
  <property name="meta.attr.com.apple.proapps.cameraName.markup">CAM2</property>
  <property name="meta.attr.com.apple.proapps.isGood.markup">0</property>
  <property name="meta.attr.com.apple.proapps.customgamma.markup">com.blackmagic-design.cinemacamera.filmlog</property>
  <property name="meta.attr.com.blackmagic-design.cinemacamera.uuid.markup">18E5E00548F94923B646613A73C01B56</property>
  <property name="meta.attr.creation_time.markup">2017-11-24T02:36:10.000000Z</property>
  <property name="meta.attr.timecode.markup">02:36:10:06</property>
  <property name="meta.media.sample_aspect_num">1</property>
  <property name="meta.media.sample_aspect_den">1</property>
  <property name="meta.media.frame_rate_num">24</property>
  <property name="meta.media.frame_rate_den">1</property>
  <property name="meta.media.colorspace">709</property>
  <property name="meta.media.color_trc">1</property>
  <property name="meta.media.width">1920</property>
  <property name="meta.media.height">1080</property>
  <property name="meta.media.top_field_first">0</property>
  <property name="meta.media.progressive">1</property>
  <property name="meta.media.0.stream.type">video</property>
  <property name="meta.media.0.stream.frame_rate">24</property>
  <property name="meta.media.0.stream.sample_aspect_ratio">1</property>
  <property name="meta.media.0.codec.width">1920</property>
  <property name="meta.media.0.codec.height">1080</property>
  <property name="meta.media.0.codec.rotate">0</property>
  <property name="meta.media.0.codec.frame_rate">12288</property>
  <property name="meta.media.0.codec.pix_fmt">yuv422p10le</property>
  <property name="meta.media.0.codec.sample_aspect_ratio">0</property>
  <property name="meta.media.0.codec.colorspace">709</property>
  <property name="meta.media.0.codec.color_trc">1</property>
  <property name="meta.media.0.codec.name">dnxhd</property>
  <property name="meta.media.0.codec.long_name">VC3/DNxHD</property>
  <property name="meta.media.0.codec.bit_rate">176160768</property>
  <property name="meta.attr.0.stream.language.markup">eng</property>
  <property name="meta.attr.0.stream.handler_name.markup">Core Media Data Handler</property>
  <property name="meta.attr.0.stream.timecode.markup">02:36:10:06</property>
  <property name="meta.attr.major_brand.markup">qt  </property>
  <property name="meta.attr.minor_version.markup">512</property>
  <property name="meta.attr.compatible_brands.markup">qt  </property>
  <property name="meta.attr.encoder.markup">Lavf57.25.100</property>
 </producer>
 <playlist id="playlist18">
  <property name="kdenlive:track_name">Video 17</property>
  <property name="kdenlive:locked_track">0</property>
  <blank length="1683"/>
  <entry producer="13_playlist18" in="2808" out="4300"/>
 </playlist>
 <producer title="Anonymous Submission" id="17_playlist24" in="0" out="8136">
  <property name="length">00:05:39:01</property>
  <property name="eof">pause</property>
  <property name="resource">/media/bordun/Odile/SnapshatAuHarem/etalo/CAM2_2017-11-25_0904_C0015.mov</property>
  <property name="audio_index">2</property>
  <property name="video_index">0</property>
  <property name="mute_on_pause">1</property>
  <property name="mlt_service">avformat-novalidate</property>
  <property name="seekable">1</property>
  <property name="aspect_ratio">1</property>
  <property name="kdenlive:folderid">-1</property>
  <property name="kdenlive:file_size">7564389609</property>
  <property name="kdenlive:file_hash">260f4d967ff432f80e7391eb6465c3fd</property>
  <property name="kdenlive:proxy">-</property>
  <property name="proxy_out">8136</property>
  <property name="kdenlive:originalurl">src/04-06_Couplet2/mao1.sshfs/CAM2_2017-11-25_0904_C0015.mov</property>
  <property name="global_feed">1</property>
  <property name="kdenlive:meta.media.nb_streams">3</property>
  <property name="kdenlive:meta.media.1.stream.type">video</property>
  <property name="kdenlive:meta.media.1.stream.frame_rate">24</property>
  <property name="kdenlive:meta.media.1.stream.sample_aspect_ratio">1</property>
  <property name="kdenlive:meta.media.1.codec.width">1920</property>
  <property name="kdenlive:meta.media.1.codec.height">1080</property>
  <property name="kdenlive:meta.media.1.codec.rotate">0</property>
  <property name="kdenlive:meta.media.1.codec.frame_rate">2400</property>
  <property name="kdenlive:meta.media.1.codec.pix_fmt">yuv422p10le</property>
  <property name="kdenlive:meta.media.1.codec.sample_aspect_ratio">0</property>
  <property name="kdenlive:meta.media.1.codec.colorspace">709</property>
  <property name="kdenlive:meta.media.1.codec.color_trc">1</property>
  <property name="kdenlive:meta.media.1.codec.name">prores</property>
  <property name="kdenlive:meta.media.1.codec.long_name">ProRes</property>
  <property name="kdenlive:meta.media.1.codec.bit_rate">176138876</property>
  <property name="kdenlive:meta.attr.1.stream.creation_time.markup">2017-11-25T09:04:57.000000Z</property>
  <property name="kdenlive:meta.attr.1.stream.language.markup">eng</property>
  <property name="kdenlive:meta.attr.1.stream.handler_name.markup">Apple Alias Data Handler</property>
  <property name="kdenlive:meta.attr.1.stream.encoder.markup">Apple ProRes 422 HQ</property>
  <property name="kdenlive:meta.attr.1.stream.timecode.markup">09:04:57:06</property>
  <property name="kdenlive:meta.media.2.stream.type">audio</property>
  <property name="kdenlive:meta.media.2.codec.sample_fmt">s32</property>
  <property name="kdenlive:meta.media.2.codec.sample_rate">48000</property>
  <property name="kdenlive:meta.media.2.codec.channels">2</property>
  <property name="kdenlive:meta.media.2.codec.name">pcm_s24le</property>
  <property name="kdenlive:meta.media.2.codec.long_name">PCM signed 24-bit little-endian</property>
  <property name="kdenlive:meta.media.2.codec.bit_rate">2304000</property>
  <property name="kdenlive:meta.attr.2.stream.creation_time.markup">2017-11-25T09:04:57.000000Z</property>
  <property name="kdenlive:meta.attr.2.stream.language.markup">eng</property>
  <property name="kdenlive:meta.attr.2.stream.handler_name.markup">Apple Alias Data Handler</property>
  <property name="kdenlive:meta.attr.2.stream.timecode.markup">09:04:57:06</property>
  <property name="kdenlive:meta.attr.com.apple.proapps.manufacturer.markup">Blackmagic Design</property>
  <property name="kdenlive:meta.attr.com.apple.proapps.cameraName.markup">CAM2</property>
  <property name="kdenlive:meta.attr.com.apple.proapps.isGood.markup">0</property>
  <property name="kdenlive:meta.attr.com.apple.proapps.customgamma.markup">com.blackmagic-design.cinemacamera.filmlog</property>
  <property name="kdenlive:meta.attr.com.blackmagic-design.cinemacamera.uuid.markup">18E5E00548F94923B646613A73C01B56</property>
  <property name="kdenlive:meta.attr.creation_time.markup">2017-11-25T09:04:57.000000Z</property>
  <property name="kdenlive:meta.attr.timecode.markup">09:04:57:06</property>
  <property name="kdenlive:meta.media.sample_aspect_num">1</property>
  <property name="kdenlive:meta.media.sample_aspect_den">1</property>
  <property name="kdenlive:meta.media.frame_rate_num">24</property>
  <property name="kdenlive:meta.media.frame_rate_den">1</property>
  <property name="kdenlive:meta.media.colorspace">709</property>
  <property name="kdenlive:meta.media.color_trc">1</property>
  <property name="kdenlive:meta.media.width">1920</property>
  <property name="kdenlive:meta.media.height">1080</property>
  <property name="kdenlive:meta.media.top_field_first">0</property>
  <property name="kdenlive:meta.media.progressive">1</property>
  <property name="xml">was here</property>
  <property name="meta.media.nb_streams">2</property>
  <property name="meta.media.1.stream.type">video</property>
  <property name="meta.media.1.stream.frame_rate">24</property>
  <property name="meta.media.1.stream.sample_aspect_ratio">1</property>
  <property name="meta.media.1.codec.width">1920</property>
  <property name="meta.media.1.codec.height">1080</property>
  <property name="meta.media.1.codec.rotate">0</property>
  <property name="meta.media.1.codec.frame_rate">2400</property>
  <property name="meta.media.1.codec.pix_fmt">yuv422p10le</property>
  <property name="meta.media.1.codec.sample_aspect_ratio">0</property>
  <property name="meta.media.1.codec.colorspace">709</property>
  <property name="meta.media.1.codec.color_trc">1</property>
  <property name="meta.media.1.codec.name">prores</property>
  <property name="meta.media.1.codec.long_name">ProRes</property>
  <property name="meta.media.1.codec.bit_rate">176138876</property>
  <property name="meta.attr.1.stream.creation_time.markup">2017-11-25T09:04:57.000000Z</property>
  <property name="meta.attr.1.stream.language.markup">eng</property>
  <property name="meta.attr.1.stream.handler_name.markup">Apple Alias Data Handler</property>
  <property name="meta.attr.1.stream.encoder.markup">Apple ProRes 422 HQ</property>
  <property name="meta.attr.1.stream.timecode.markup">09:04:57:06</property>
  <property name="meta.media.2.stream.type">audio</property>
  <property name="meta.media.2.codec.sample_fmt">s32</property>
  <property name="meta.media.2.codec.sample_rate">48000</property>
  <property name="meta.media.2.codec.channels">2</property>
  <property name="meta.media.2.codec.name">pcm_s24le</property>
  <property name="meta.media.2.codec.long_name">PCM signed 24-bit little-endian</property>
  <property name="meta.media.2.codec.bit_rate">2304000</property>
  <property name="meta.attr.2.stream.creation_time.markup">2017-11-25T09:04:57.000000Z</property>
  <property name="meta.attr.2.stream.language.markup">eng</property>
  <property name="meta.attr.2.stream.handler_name.markup">Apple Alias Data Handler</property>
  <property name="meta.attr.2.stream.timecode.markup">09:04:57:06</property>
  <property name="meta.attr.com.apple.proapps.manufacturer.markup">Blackmagic Design</property>
  <property name="meta.attr.com.apple.proapps.cameraName.markup">CAM2</property>
  <property name="meta.attr.com.apple.proapps.isGood.markup">0</property>
  <property name="meta.attr.com.apple.proapps.customgamma.markup">com.blackmagic-design.cinemacamera.filmlog</property>
  <property name="meta.attr.com.blackmagic-design.cinemacamera.uuid.markup">18E5E00548F94923B646613A73C01B56</property>
  <property name="meta.attr.creation_time.markup">2017-11-25T09:04:57.000000Z</property>
  <property name="meta.attr.timecode.markup">09:04:57:06</property>
  <property name="meta.media.sample_aspect_num">1</property>
  <property name="meta.media.sample_aspect_den">1</property>
  <property name="meta.media.frame_rate_num">24</property>
  <property name="meta.media.frame_rate_den">1</property>
  <property name="meta.media.colorspace">709</property>
  <property name="meta.media.color_trc">1</property>
  <property name="meta.media.width">1920</property>
  <property name="meta.media.height">1080</property>
  <property name="meta.media.top_field_first">0</property>
  <property name="meta.media.progressive">1</property>
  <property name="meta.media.0.stream.type">video</property>
  <property name="meta.media.0.stream.frame_rate">24</property>
  <property name="meta.media.0.stream.sample_aspect_ratio">1</property>
  <property name="meta.media.0.codec.width">1920</property>
  <property name="meta.media.0.codec.height">1080</property>
  <property name="meta.media.0.codec.rotate">0</property>
  <property name="meta.media.0.codec.frame_rate">12288</property>
  <property name="meta.media.0.codec.pix_fmt">yuv422p10le</property>
  <property name="meta.media.0.codec.sample_aspect_ratio">0</property>
  <property name="meta.media.0.codec.colorspace">709</property>
  <property name="meta.media.0.codec.color_trc">1</property>
  <property name="meta.media.0.codec.name">dnxhd</property>
  <property name="meta.media.0.codec.long_name">VC3/DNxHD</property>
  <property name="meta.media.0.codec.bit_rate">176160768</property>
  <property name="meta.attr.0.stream.language.markup">eng</property>
  <property name="meta.attr.0.stream.handler_name.markup">VideoHandler</property>
  <property name="meta.attr.0.stream.timecode.markup">09:04:57:06</property>
  <property name="meta.attr.major_brand.markup">qt  </property>
  <property name="meta.attr.minor_version.markup">512</property>
  <property name="meta.attr.compatible_brands.markup">qt  </property>
  <property name="meta.attr.encoder.markup">Lavf57.25.100</property>
 </producer>
 <producer id="slowmotion:18:3:1:0" in="0" out="1589">
  <property name="length">1590</property>
  <property name="eof">pause</property>
  <property name="resource">3:/media/bordun/Odile/SnapshatAuHarem/etalo/CAM2_2017-11-25_0314_C0000.mov</property>
  <property name="aspect_ratio">1</property>
  <property name="meta.media.nb_streams">2</property>
  <property name="meta.media.0.stream.type">video</property>
  <property name="meta.media.0.stream.frame_rate">24</property>
  <property name="meta.media.0.stream.sample_aspect_ratio">1</property>
  <property name="meta.media.0.codec.width">1920</property>
  <property name="meta.media.0.codec.height">1080</property>
  <property name="meta.media.0.codec.rotate">0</property>
  <property name="meta.media.0.codec.frame_rate">12288</property>
  <property name="meta.media.0.codec.pix_fmt">yuv422p10le</property>
  <property name="meta.media.0.codec.sample_aspect_ratio">0</property>
  <property name="meta.media.0.codec.colorspace">709</property>
  <property name="meta.media.0.codec.color_trc">1</property>
  <property name="meta.media.0.codec.name">dnxhd</property>
  <property name="meta.media.0.codec.long_name">VC3/DNxHD</property>
  <property name="meta.media.0.codec.bit_rate">176160768</property>
  <property name="meta.attr.0.stream.language.markup">eng</property>
  <property name="meta.attr.0.stream.handler_name.markup">Core Media Data Handler</property>
  <property name="meta.attr.0.stream.timecode.markup">03:14:02:23</property>
  <property name="meta.attr.major_brand.markup">qt  </property>
  <property name="meta.attr.minor_version.markup">512</property>
  <property name="meta.attr.compatible_brands.markup">qt  </property>
  <property name="meta.attr.encoder.markup">Lavf57.25.100</property>
  <property name="seekable">1</property>
  <property name="meta.media.sample_aspect_num">1</property>
  <property name="meta.media.sample_aspect_den">1</property>
  <property name="audio_index">2</property>
  <property name="video_index">0</property>
  <property name="mute_on_pause">1</property>
  <property name="warp_speed">3</property>
  <property name="warp_resource">/media/bordun/Odile/SnapshatAuHarem/etalo/CAM2_2017-11-25_0314_C0000.mov</property>
  <property name="mlt_service">timewarp</property>
  <property name="meta.media.1.stream.type">video</property>
  <property name="meta.media.1.stream.frame_rate">24</property>
  <property name="meta.media.1.stream.sample_aspect_ratio">1</property>
  <property name="meta.media.1.codec.width">1920</property>
  <property name="meta.media.1.codec.height">1080</property>
  <property name="meta.media.1.codec.rotate">0</property>
  <property name="meta.media.1.codec.frame_rate">2400</property>
  <property name="meta.media.1.codec.pix_fmt">yuv422p10le</property>
  <property name="meta.media.1.codec.sample_aspect_ratio">0</property>
  <property name="meta.media.1.codec.colorspace">709</property>
  <property name="meta.media.1.codec.color_trc">1</property>
  <property name="meta.media.1.codec.name">prores</property>
  <property name="meta.media.1.codec.long_name">ProRes</property>
  <property name="meta.media.1.codec.bit_rate">176139916</property>
  <property name="meta.attr.1.stream.creation_time.markup">2017-11-25T03:14:02.000000Z</property>
  <property name="meta.attr.1.stream.language.markup">eng</property>
  <property name="meta.attr.1.stream.handler_name.markup">Apple Alias Data Handler</property>
  <property name="meta.attr.1.stream.encoder.markup">Apple ProRes 422 HQ</property>
  <property name="meta.attr.1.stream.timecode.markup">03:14:02:23</property>
  <property name="meta.media.2.stream.type">audio</property>
  <property name="meta.media.2.codec.sample_fmt">s32</property>
  <property name="meta.media.2.codec.sample_rate">48000</property>
  <property name="meta.media.2.codec.channels">2</property>
  <property name="meta.media.2.codec.name">pcm_s24le</property>
  <property name="meta.media.2.codec.long_name">PCM signed 24-bit little-endian</property>
  <property name="meta.media.2.codec.bit_rate">2304000</property>
  <property name="meta.attr.2.stream.creation_time.markup">2017-11-25T03:14:02.000000Z</property>
  <property name="meta.attr.2.stream.language.markup">eng</property>
  <property name="meta.attr.2.stream.handler_name.markup">Apple Alias Data Handler</property>
  <property name="meta.attr.2.stream.timecode.markup">03:14:02:23</property>
  <property name="meta.attr.com.apple.proapps.manufacturer.markup">Blackmagic Design</property>
  <property name="meta.attr.com.apple.proapps.cameraName.markup">CAM2</property>
  <property name="meta.attr.com.apple.proapps.isGood.markup">0</property>
  <property name="meta.attr.com.apple.proapps.customgamma.markup">com.blackmagic-design.cinemacamera.filmlog</property>
  <property name="meta.attr.com.blackmagic-design.cinemacamera.uuid.markup">18E5E00548F94923B646613A73C01B56</property>
  <property name="meta.attr.creation_time.markup">2017-11-25T03:14:02.000000Z</property>
  <property name="meta.attr.timecode.markup">03:14:02:23</property>
  <property name="kdenlive:proxy">-</property>
  <property name="kdenlive:originalurl">src/TheWholeRushes/Dimanche_matin/CAM2_2017-11-25_0314_C0000.mov</property>
  <property name="meta.media.frame_rate_num">24</property>
  <property name="meta.media.frame_rate_den">1</property>
  <property name="meta.media.colorspace">709</property>
  <property name="meta.media.color_trc">1</property>
  <property name="meta.media.width">1920</property>
  <property name="meta.media.height">1080</property>
  <property name="meta.media.top_field_first">0</property>
  <property name="meta.media.progressive">1</property>
 </producer>
 <playlist id="playlist24">
  <property name="kdenlive:track_name">FloorDrains</property>
  <blank length="3385"/>
  <entry producer="17_playlist24" in="450" out="510"/>
  <blank length="225"/>
  <entry producer="17_playlist24" in="6412" out="6417"/>
  <blank length="502"/>
  <entry producer="slowmotion:18:3:1:0" in="547" out="563"/>
 </playlist>
 <producer title="Anonymous Submission" id="17_playlist25" in="0" out="8136">
  <property name="length">00:05:39:01</property>
  <property name="eof">pause</property>
  <property name="resource">/media/bordun/Odile/SnapshatAuHarem/etalo/CAM2_2017-11-25_0904_C0015.mov</property>
  <property name="audio_index">2</property>
  <property name="video_index">0</property>
  <property name="mute_on_pause">1</property>
  <property name="mlt_service">avformat-novalidate</property>
  <property name="seekable">1</property>
  <property name="aspect_ratio">1</property>
  <property name="kdenlive:folderid">-1</property>
  <property name="kdenlive:file_size">7564389609</property>
  <property name="kdenlive:file_hash">260f4d967ff432f80e7391eb6465c3fd</property>
  <property name="kdenlive:proxy">-</property>
  <property name="proxy_out">8136</property>
  <property name="kdenlive:originalurl">src/04-06_Couplet2/mao1.sshfs/CAM2_2017-11-25_0904_C0015.mov</property>
  <property name="global_feed">1</property>
  <property name="kdenlive:meta.media.nb_streams">3</property>
  <property name="kdenlive:meta.media.1.stream.type">video</property>
  <property name="kdenlive:meta.media.1.stream.frame_rate">24</property>
  <property name="kdenlive:meta.media.1.stream.sample_aspect_ratio">1</property>
  <property name="kdenlive:meta.media.1.codec.width">1920</property>
  <property name="kdenlive:meta.media.1.codec.height">1080</property>
  <property name="kdenlive:meta.media.1.codec.rotate">0</property>
  <property name="kdenlive:meta.media.1.codec.frame_rate">2400</property>
  <property name="kdenlive:meta.media.1.codec.pix_fmt">yuv422p10le</property>
  <property name="kdenlive:meta.media.1.codec.sample_aspect_ratio">0</property>
  <property name="kdenlive:meta.media.1.codec.colorspace">709</property>
  <property name="kdenlive:meta.media.1.codec.color_trc">1</property>
  <property name="kdenlive:meta.media.1.codec.name">prores</property>
  <property name="kdenlive:meta.media.1.codec.long_name">ProRes</property>
  <property name="kdenlive:meta.media.1.codec.bit_rate">176138876</property>
  <property name="kdenlive:meta.attr.1.stream.creation_time.markup">2017-11-25T09:04:57.000000Z</property>
  <property name="kdenlive:meta.attr.1.stream.language.markup">eng</property>
  <property name="kdenlive:meta.attr.1.stream.handler_name.markup">Apple Alias Data Handler</property>
  <property name="kdenlive:meta.attr.1.stream.encoder.markup">Apple ProRes 422 HQ</property>
  <property name="kdenlive:meta.attr.1.stream.timecode.markup">09:04:57:06</property>
  <property name="kdenlive:meta.media.2.stream.type">audio</property>
  <property name="kdenlive:meta.media.2.codec.sample_fmt">s32</property>
  <property name="kdenlive:meta.media.2.codec.sample_rate">48000</property>
  <property name="kdenlive:meta.media.2.codec.channels">2</property>
  <property name="kdenlive:meta.media.2.codec.name">pcm_s24le</property>
  <property name="kdenlive:meta.media.2.codec.long_name">PCM signed 24-bit little-endian</property>
  <property name="kdenlive:meta.media.2.codec.bit_rate">2304000</property>
  <property name="kdenlive:meta.attr.2.stream.creation_time.markup">2017-11-25T09:04:57.000000Z</property>
  <property name="kdenlive:meta.attr.2.stream.language.markup">eng</property>
  <property name="kdenlive:meta.attr.2.stream.handler_name.markup">Apple Alias Data Handler</property>
  <property name="kdenlive:meta.attr.2.stream.timecode.markup">09:04:57:06</property>
  <property name="kdenlive:meta.attr.com.apple.proapps.manufacturer.markup">Blackmagic Design</property>
  <property name="kdenlive:meta.attr.com.apple.proapps.cameraName.markup">CAM2</property>
  <property name="kdenlive:meta.attr.com.apple.proapps.isGood.markup">0</property>
  <property name="kdenlive:meta.attr.com.apple.proapps.customgamma.markup">com.blackmagic-design.cinemacamera.filmlog</property>
  <property name="kdenlive:meta.attr.com.blackmagic-design.cinemacamera.uuid.markup">18E5E00548F94923B646613A73C01B56</property>
  <property name="kdenlive:meta.attr.creation_time.markup">2017-11-25T09:04:57.000000Z</property>
  <property name="kdenlive:meta.attr.timecode.markup">09:04:57:06</property>
  <property name="kdenlive:meta.media.sample_aspect_num">1</property>
  <property name="kdenlive:meta.media.sample_aspect_den">1</property>
  <property name="kdenlive:meta.media.frame_rate_num">24</property>
  <property name="kdenlive:meta.media.frame_rate_den">1</property>
  <property name="kdenlive:meta.media.colorspace">709</property>
  <property name="kdenlive:meta.media.color_trc">1</property>
  <property name="kdenlive:meta.media.width">1920</property>
  <property name="kdenlive:meta.media.height">1080</property>
  <property name="kdenlive:meta.media.top_field_first">0</property>
  <property name="kdenlive:meta.media.progressive">1</property>
  <property name="xml">was here</property>
  <property name="meta.media.nb_streams">2</property>
  <property name="meta.media.1.stream.type">video</property>
  <property name="meta.media.1.stream.frame_rate">24</property>
  <property name="meta.media.1.stream.sample_aspect_ratio">1</property>
  <property name="meta.media.1.codec.width">1920</property>
  <property name="meta.media.1.codec.height">1080</property>
  <property name="meta.media.1.codec.rotate">0</property>
  <property name="meta.media.1.codec.frame_rate">2400</property>
  <property name="meta.media.1.codec.pix_fmt">yuv422p10le</property>
  <property name="meta.media.1.codec.sample_aspect_ratio">0</property>
  <property name="meta.media.1.codec.colorspace">709</property>
  <property name="meta.media.1.codec.color_trc">1</property>
  <property name="meta.media.1.codec.name">prores</property>
  <property name="meta.media.1.codec.long_name">ProRes</property>
  <property name="meta.media.1.codec.bit_rate">176138876</property>
  <property name="meta.attr.1.stream.creation_time.markup">2017-11-25T09:04:57.000000Z</property>
  <property name="meta.attr.1.stream.language.markup">eng</property>
  <property name="meta.attr.1.stream.handler_name.markup">Apple Alias Data Handler</property>
  <property name="meta.attr.1.stream.encoder.markup">Apple ProRes 422 HQ</property>
  <property name="meta.attr.1.stream.timecode.markup">09:04:57:06</property>
  <property name="meta.media.2.stream.type">audio</property>
  <property name="meta.media.2.codec.sample_fmt">s32</property>
  <property name="meta.media.2.codec.sample_rate">48000</property>
  <property name="meta.media.2.codec.channels">2</property>
  <property name="meta.media.2.codec.name">pcm_s24le</property>
  <property name="meta.media.2.codec.long_name">PCM signed 24-bit little-endian</property>
  <property name="meta.media.2.codec.bit_rate">2304000</property>
  <property name="meta.attr.2.stream.creation_time.markup">2017-11-25T09:04:57.000000Z</property>
  <property name="meta.attr.2.stream.language.markup">eng</property>
  <property name="meta.attr.2.stream.handler_name.markup">Apple Alias Data Handler</property>
  <property name="meta.attr.2.stream.timecode.markup">09:04:57:06</property>
  <property name="meta.attr.com.apple.proapps.manufacturer.markup">Blackmagic Design</property>
  <property name="meta.attr.com.apple.proapps.cameraName.markup">CAM2</property>
  <property name="meta.attr.com.apple.proapps.isGood.markup">0</property>
  <property name="meta.attr.com.apple.proapps.customgamma.markup">com.blackmagic-design.cinemacamera.filmlog</property>
  <property name="meta.attr.com.blackmagic-design.cinemacamera.uuid.markup">18E5E00548F94923B646613A73C01B56</property>
  <property name="meta.attr.creation_time.markup">2017-11-25T09:04:57.000000Z</property>
  <property name="meta.attr.timecode.markup">09:04:57:06</property>
  <property name="meta.media.sample_aspect_num">1</property>
  <property name="meta.media.sample_aspect_den">1</property>
  <property name="meta.media.frame_rate_num">24</property>
  <property name="meta.media.frame_rate_den">1</property>
  <property name="meta.media.colorspace">709</property>
  <property name="meta.media.color_trc">1</property>
  <property name="meta.media.width">1920</property>
  <property name="meta.media.height">1080</property>
  <property name="meta.media.top_field_first">0</property>
  <property name="meta.media.progressive">1</property>
  <property name="meta.media.0.stream.type">video</property>
  <property name="meta.media.0.stream.frame_rate">24</property>
  <property name="meta.media.0.stream.sample_aspect_ratio">1</property>
  <property name="meta.media.0.codec.width">1920</property>
  <property name="meta.media.0.codec.height">1080</property>
  <property name="meta.media.0.codec.rotate">0</property>
  <property name="meta.media.0.codec.frame_rate">12288</property>
  <property name="meta.media.0.codec.pix_fmt">yuv422p10le</property>
  <property name="meta.media.0.codec.sample_aspect_ratio">0</property>
  <property name="meta.media.0.codec.colorspace">709</property>
  <property name="meta.media.0.codec.color_trc">1</property>
  <property name="meta.media.0.codec.name">dnxhd</property>
  <property name="meta.media.0.codec.long_name">VC3/DNxHD</property>
  <property name="meta.media.0.codec.bit_rate">176160768</property>
  <property name="meta.attr.0.stream.language.markup">eng</property>
  <property name="meta.attr.0.stream.handler_name.markup">VideoHandler</property>
  <property name="meta.attr.0.stream.timecode.markup">09:04:57:06</property>
  <property name="meta.attr.major_brand.markup">qt  </property>
  <property name="meta.attr.minor_version.markup">512</property>
  <property name="meta.attr.compatible_brands.markup">qt  </property>
  <property name="meta.attr.encoder.markup">Lavf57.25.100</property>
 </producer>
 <producer id="slowmotion:17:1:1:0" in="0" out="8136">
  <property name="length">8137</property>
  <property name="eof">pause</property>
  <property name="resource">1:/media/bordun/Odile/SnapshatAuHarem/etalo/CAM2_2017-11-25_0904_C0015.mov</property>
  <property name="aspect_ratio">1</property>
  <property name="meta.media.nb_streams">2</property>
  <property name="meta.media.0.stream.type">video</property>
  <property name="meta.media.0.stream.frame_rate">24</property>
  <property name="meta.media.0.stream.sample_aspect_ratio">1</property>
  <property name="meta.media.0.codec.width">1920</property>
  <property name="meta.media.0.codec.height">1080</property>
  <property name="meta.media.0.codec.rotate">0</property>
  <property name="meta.media.0.codec.frame_rate">12288</property>
  <property name="meta.media.0.codec.pix_fmt">yuv422p10le</property>
  <property name="meta.media.0.codec.sample_aspect_ratio">0</property>
  <property name="meta.media.0.codec.colorspace">709</property>
  <property name="meta.media.0.codec.color_trc">1</property>
  <property name="meta.media.0.codec.name">dnxhd</property>
  <property name="meta.media.0.codec.long_name">VC3/DNxHD</property>
  <property name="meta.media.0.codec.bit_rate">176160768</property>
  <property name="meta.attr.0.stream.language.markup">eng</property>
  <property name="meta.attr.0.stream.handler_name.markup">VideoHandler</property>
  <property name="meta.attr.0.stream.timecode.markup">09:04:57:06</property>
  <property name="meta.attr.major_brand.markup">qt  </property>
  <property name="meta.attr.minor_version.markup">512</property>
  <property name="meta.attr.compatible_brands.markup">qt  </property>
  <property name="meta.attr.encoder.markup">Lavf57.25.100</property>
  <property name="seekable">1</property>
  <property name="meta.media.sample_aspect_num">1</property>
  <property name="meta.media.sample_aspect_den">1</property>
  <property name="audio_index">-1</property>
  <property name="video_index">0</property>
  <property name="mute_on_pause">1</property>
  <property name="warp_speed">1</property>
  <property name="warp_resource">/media/bordun/Odile/SnapshatAuHarem/etalo/CAM2_2017-11-25_0904_C0015.mov</property>
  <property name="mlt_service">timewarp</property>
  <property name="kdenlive:proxy">-</property>
  <property name="kdenlive:originalurl">src/04-06_Couplet2/mao1.sshfs/CAM2_2017-11-25_0904_C0015.mov</property>
  <property name="meta.media.frame_rate_num">24</property>
  <property name="meta.media.frame_rate_den">1</property>
  <property name="meta.media.colorspace">709</property>
  <property name="meta.media.color_trc">1</property>
  <property name="meta.media.width">1920</property>
  <property name="meta.media.height">1080</property>
  <property name="meta.media.top_field_first">0</property>
  <property name="meta.media.progressive">1</property>
 </producer>
 <producer id="slowmotion:17:0,89:1:0" in="0" out="9142">
  <property name="length">9143</property>
  <property name="eof">pause</property>
  <property name="resource">0,89:/media/bordun/Odile/SnapshatAuHarem/etalo/CAM2_2017-11-25_0904_C0015.mov</property>
  <property name="aspect_ratio">1</property>
  <property name="meta.media.nb_streams">2</property>
  <property name="meta.media.0.stream.type">video</property>
  <property name="meta.media.0.stream.frame_rate">24</property>
  <property name="meta.media.0.stream.sample_aspect_ratio">1</property>
  <property name="meta.media.0.codec.width">1920</property>
  <property name="meta.media.0.codec.height">1080</property>
  <property name="meta.media.0.codec.rotate">0</property>
  <property name="meta.media.0.codec.frame_rate">12288</property>
  <property name="meta.media.0.codec.pix_fmt">yuv422p10le</property>
  <property name="meta.media.0.codec.sample_aspect_ratio">0</property>
  <property name="meta.media.0.codec.colorspace">709</property>
  <property name="meta.media.0.codec.color_trc">1</property>
  <property name="meta.media.0.codec.name">dnxhd</property>
  <property name="meta.media.0.codec.long_name">VC3/DNxHD</property>
  <property name="meta.media.0.codec.bit_rate">176160768</property>
  <property name="meta.attr.0.stream.language.markup">eng</property>
  <property name="meta.attr.0.stream.handler_name.markup">VideoHandler</property>
  <property name="meta.attr.0.stream.timecode.markup">09:04:57:06</property>
  <property name="meta.attr.major_brand.markup">qt  </property>
  <property name="meta.attr.minor_version.markup">512</property>
  <property name="meta.attr.compatible_brands.markup">qt  </property>
  <property name="meta.attr.encoder.markup">Lavf57.25.100</property>
  <property name="seekable">1</property>
  <property name="meta.media.sample_aspect_num">1</property>
  <property name="meta.media.sample_aspect_den">1</property>
  <property name="audio_index">-1</property>
  <property name="video_index">0</property>
  <property name="mute_on_pause">1</property>
  <property name="warp_speed">0,89</property>
  <property name="warp_resource">/media/bordun/Odile/SnapshatAuHarem/etalo/CAM2_2017-11-25_0904_C0015.mov</property>
  <property name="mlt_service">timewarp</property>
  <property name="kdenlive:proxy">-</property>
  <property name="kdenlive:originalurl">src/04-06_Couplet2/mao1.sshfs/CAM2_2017-11-25_0904_C0015.mov</property>
  <property name="meta.media.frame_rate_num">24</property>
  <property name="meta.media.frame_rate_den">1</property>
  <property name="meta.media.colorspace">709</property>
  <property name="meta.media.color_trc">1</property>
  <property name="meta.media.width">1920</property>
  <property name="meta.media.height">1080</property>
  <property name="meta.media.top_field_first">0</property>
  <property name="meta.media.progressive">1</property>
 </producer>
 <producer title="Anonymous Submission" id="18_playlist25" in="0" out="4770">
  <property name="length">00:03:18:19</property>
  <property name="eof">pause</property>
  <property name="resource">/media/bordun/Odile/SnapshatAuHarem/etalo/CAM2_2017-11-25_0314_C0000.mov</property>
  <property name="audio_index">2</property>
  <property name="video_index">0</property>
  <property name="mute_on_pause">1</property>
  <property name="mlt_service">avformat-novalidate</property>
  <property name="seekable">1</property>
  <property name="aspect_ratio">1</property>
  <property name="kdenlive:folderid">-1</property>
  <property name="kdenlive:file_size">4435262081</property>
  <property name="kdenlive:file_hash">b8760f3be8f075de8abd8e49fdd57d02</property>
  <property name="kdenlive:proxy">-</property>
  <property name="proxy_out">4770</property>
  <property name="kdenlive:originalurl">src/TheWholeRushes/Dimanche_matin/CAM2_2017-11-25_0314_C0000.mov</property>
  <property name="global_feed">1</property>
  <property name="kdenlive:meta.media.nb_streams">3</property>
  <property name="kdenlive:meta.media.1.stream.type">video</property>
  <property name="kdenlive:meta.media.1.stream.frame_rate">24</property>
  <property name="kdenlive:meta.media.1.stream.sample_aspect_ratio">1</property>
  <property name="kdenlive:meta.media.1.codec.width">1920</property>
  <property name="kdenlive:meta.media.1.codec.height">1080</property>
  <property name="kdenlive:meta.media.1.codec.rotate">0</property>
  <property name="kdenlive:meta.media.1.codec.frame_rate">2400</property>
  <property name="kdenlive:meta.media.1.codec.pix_fmt">yuv422p10le</property>
  <property name="kdenlive:meta.media.1.codec.sample_aspect_ratio">0</property>
  <property name="kdenlive:meta.media.1.codec.colorspace">709</property>
  <property name="kdenlive:meta.media.1.codec.color_trc">1</property>
  <property name="kdenlive:meta.media.1.codec.name">prores</property>
  <property name="kdenlive:meta.media.1.codec.long_name">ProRes</property>
  <property name="kdenlive:meta.media.1.codec.bit_rate">176139916</property>
  <property name="kdenlive:meta.attr.1.stream.creation_time.markup">2017-11-25T03:14:02.000000Z</property>
  <property name="kdenlive:meta.attr.1.stream.language.markup">eng</property>
  <property name="kdenlive:meta.attr.1.stream.handler_name.markup">Apple Alias Data Handler</property>
  <property name="kdenlive:meta.attr.1.stream.encoder.markup">Apple ProRes 422 HQ</property>
  <property name="kdenlive:meta.attr.1.stream.timecode.markup">03:14:02:23</property>
  <property name="kdenlive:meta.media.2.stream.type">audio</property>
  <property name="kdenlive:meta.media.2.codec.sample_fmt">s32</property>
  <property name="kdenlive:meta.media.2.codec.sample_rate">48000</property>
  <property name="kdenlive:meta.media.2.codec.channels">2</property>
  <property name="kdenlive:meta.media.2.codec.name">pcm_s24le</property>
  <property name="kdenlive:meta.media.2.codec.long_name">PCM signed 24-bit little-endian</property>
  <property name="kdenlive:meta.media.2.codec.bit_rate">2304000</property>
  <property name="kdenlive:meta.attr.2.stream.creation_time.markup">2017-11-25T03:14:02.000000Z</property>
  <property name="kdenlive:meta.attr.2.stream.language.markup">eng</property>
  <property name="kdenlive:meta.attr.2.stream.handler_name.markup">Apple Alias Data Handler</property>
  <property name="kdenlive:meta.attr.2.stream.timecode.markup">03:14:02:23</property>
  <property name="kdenlive:meta.attr.com.apple.proapps.manufacturer.markup">Blackmagic Design</property>
  <property name="kdenlive:meta.attr.com.apple.proapps.cameraName.markup">CAM2</property>
  <property name="kdenlive:meta.attr.com.apple.proapps.isGood.markup">0</property>
  <property name="kdenlive:meta.attr.com.apple.proapps.customgamma.markup">com.blackmagic-design.cinemacamera.filmlog</property>
  <property name="kdenlive:meta.attr.com.blackmagic-design.cinemacamera.uuid.markup">18E5E00548F94923B646613A73C01B56</property>
  <property name="kdenlive:meta.attr.creation_time.markup">2017-11-25T03:14:02.000000Z</property>
  <property name="kdenlive:meta.attr.timecode.markup">03:14:02:23</property>
  <property name="kdenlive:meta.media.sample_aspect_num">1</property>
  <property name="kdenlive:meta.media.sample_aspect_den">1</property>
  <property name="kdenlive:meta.media.frame_rate_num">24</property>
  <property name="kdenlive:meta.media.frame_rate_den">1</property>
  <property name="kdenlive:meta.media.colorspace">709</property>
  <property name="kdenlive:meta.media.color_trc">1</property>
  <property name="kdenlive:meta.media.width">1920</property>
  <property name="kdenlive:meta.media.height">1080</property>
  <property name="kdenlive:meta.media.top_field_first">0</property>
  <property name="kdenlive:meta.media.progressive">1</property>
  <property name="xml">was here</property>
  <property name="meta.media.nb_streams">2</property>
  <property name="meta.media.1.stream.type">video</property>
  <property name="meta.media.1.stream.frame_rate">24</property>
  <property name="meta.media.1.stream.sample_aspect_ratio">1</property>
  <property name="meta.media.1.codec.width">1920</property>
  <property name="meta.media.1.codec.height">1080</property>
  <property name="meta.media.1.codec.rotate">0</property>
  <property name="meta.media.1.codec.frame_rate">2400</property>
  <property name="meta.media.1.codec.pix_fmt">yuv422p10le</property>
  <property name="meta.media.1.codec.sample_aspect_ratio">0</property>
  <property name="meta.media.1.codec.colorspace">709</property>
  <property name="meta.media.1.codec.color_trc">1</property>
  <property name="meta.media.1.codec.name">prores</property>
  <property name="meta.media.1.codec.long_name">ProRes</property>
  <property name="meta.media.1.codec.bit_rate">176139916</property>
  <property name="meta.attr.1.stream.creation_time.markup">2017-11-25T03:14:02.000000Z</property>
  <property name="meta.attr.1.stream.language.markup">eng</property>
  <property name="meta.attr.1.stream.handler_name.markup">Apple Alias Data Handler</property>
  <property name="meta.attr.1.stream.encoder.markup">Apple ProRes 422 HQ</property>
  <property name="meta.attr.1.stream.timecode.markup">03:14:02:23</property>
  <property name="meta.media.2.stream.type">audio</property>
  <property name="meta.media.2.codec.sample_fmt">s32</property>
  <property name="meta.media.2.codec.sample_rate">48000</property>
  <property name="meta.media.2.codec.channels">2</property>
  <property name="meta.media.2.codec.name">pcm_s24le</property>
  <property name="meta.media.2.codec.long_name">PCM signed 24-bit little-endian</property>
  <property name="meta.media.2.codec.bit_rate">2304000</property>
  <property name="meta.attr.2.stream.creation_time.markup">2017-11-25T03:14:02.000000Z</property>
  <property name="meta.attr.2.stream.language.markup">eng</property>
  <property name="meta.attr.2.stream.handler_name.markup">Apple Alias Data Handler</property>
  <property name="meta.attr.2.stream.timecode.markup">03:14:02:23</property>
  <property name="meta.attr.com.apple.proapps.manufacturer.markup">Blackmagic Design</property>
  <property name="meta.attr.com.apple.proapps.cameraName.markup">CAM2</property>
  <property name="meta.attr.com.apple.proapps.isGood.markup">0</property>
  <property name="meta.attr.com.apple.proapps.customgamma.markup">com.blackmagic-design.cinemacamera.filmlog</property>
  <property name="meta.attr.com.blackmagic-design.cinemacamera.uuid.markup">18E5E00548F94923B646613A73C01B56</property>
  <property name="meta.attr.creation_time.markup">2017-11-25T03:14:02.000000Z</property>
  <property name="meta.attr.timecode.markup">03:14:02:23</property>
  <property name="meta.media.sample_aspect_num">1</property>
  <property name="meta.media.sample_aspect_den">1</property>
  <property name="meta.media.frame_rate_num">24</property>
  <property name="meta.media.frame_rate_den">1</property>
  <property name="meta.media.colorspace">709</property>
  <property name="meta.media.color_trc">1</property>
  <property name="meta.media.width">1920</property>
  <property name="meta.media.height">1080</property>
  <property name="meta.media.top_field_first">0</property>
  <property name="meta.media.progressive">1</property>
  <property name="meta.media.0.stream.type">video</property>
  <property name="meta.media.0.stream.frame_rate">24</property>
  <property name="meta.media.0.stream.sample_aspect_ratio">1</property>
  <property name="meta.media.0.codec.width">1920</property>
  <property name="meta.media.0.codec.height">1080</property>
  <property name="meta.media.0.codec.rotate">0</property>
  <property name="meta.media.0.codec.frame_rate">12288</property>
  <property name="meta.media.0.codec.pix_fmt">yuv422p10le</property>
  <property name="meta.media.0.codec.sample_aspect_ratio">0</property>
  <property name="meta.media.0.codec.colorspace">709</property>
  <property name="meta.media.0.codec.color_trc">1</property>
  <property name="meta.media.0.codec.name">dnxhd</property>
  <property name="meta.media.0.codec.long_name">VC3/DNxHD</property>
  <property name="meta.media.0.codec.bit_rate">176160768</property>
  <property name="meta.attr.0.stream.language.markup">eng</property>
  <property name="meta.attr.0.stream.handler_name.markup">Core Media Data Handler</property>
  <property name="meta.attr.0.stream.timecode.markup">03:14:02:23</property>
  <property name="meta.attr.major_brand.markup">qt  </property>
  <property name="meta.attr.minor_version.markup">512</property>
  <property name="meta.attr.compatible_brands.markup">qt  </property>
  <property name="meta.attr.encoder.markup">Lavf57.25.100</property>
 </producer>
 <playlist id="playlist25">
  <property name="kdenlive:track_name">FloorDrains2</property>
  <blank length="2817"/>
  <entry producer="17_playlist25" in="3665" out="4300"/>
  <blank length="104"/>
  <entry producer="17_playlist25" in="4405" out="4421">
   <filter id="pan_zoom" in="4405" out="4421">
    <property name="background">colour:0x00000000</property>
    <property name="mlt_service">affine</property>
    <property name="kdenlive_id">pan_zoom</property>
    <property name="tag">affine</property>
    <property name="kdenlive_ix">1</property>
    <property name="transition.geometry">-192/0:2304x1296:100</property>
    <property name="transition.distort">0</property>
    <property name="kdenlive:sync_in_out">1</property>
    <property name="kdenlive_info"/>
    <property name="disable">0</property>
   </filter>
  </entry>
  <blank length="39"/>
  <entry producer="slowmotion:17:1:1:0" in="4467" out="4497"/>
  <blank length="27"/>
  <entry producer="17_playlist25" in="4520" out="4551"/>
  <blank length="47"/>
  <entry producer="slowmotion:17:1:1:0" in="4596" out="4606"/>
  <blank length="173"/>
  <entry producer="slowmotion:17:1:1:0" in="4780" out="4797"/>
  <blank length="96"/>
  <entry producer="slowmotion:17:0,89:1:0" in="5499" out="5522"/>
  <blank length="7813"/>
  <entry producer="17_playlist25" in="4624" out="4678"/>
  <blank length="16"/>
  <entry producer="17_playlist25" in="4695" out="4725"/>
  <blank length="55"/>
  <entry producer="17_playlist25" in="4781" out="4798"/>
  <entry producer="18_playlist25" in="2378" out="2391"/>
  <blank length="33"/>
  <entry producer="17_playlist25" in="4846" out="4920"/>
 </playlist>
 <producer title="Anonymous Submission" id="17_playlist26" in="0" out="8136">
  <property name="length">00:05:39:01</property>
  <property name="eof">pause</property>
  <property name="resource">/media/bordun/Odile/SnapshatAuHarem/etalo/CAM2_2017-11-25_0904_C0015.mov</property>
  <property name="audio_index">2</property>
  <property name="video_index">0</property>
  <property name="mute_on_pause">1</property>
  <property name="mlt_service">avformat-novalidate</property>
  <property name="seekable">1</property>
  <property name="aspect_ratio">1</property>
  <property name="kdenlive:folderid">-1</property>
  <property name="kdenlive:file_size">7564389609</property>
  <property name="kdenlive:file_hash">260f4d967ff432f80e7391eb6465c3fd</property>
  <property name="kdenlive:proxy">-</property>
  <property name="proxy_out">8136</property>
  <property name="kdenlive:originalurl">src/04-06_Couplet2/mao1.sshfs/CAM2_2017-11-25_0904_C0015.mov</property>
  <property name="global_feed">1</property>
  <property name="kdenlive:meta.media.nb_streams">3</property>
  <property name="kdenlive:meta.media.1.stream.type">video</property>
  <property name="kdenlive:meta.media.1.stream.frame_rate">24</property>
  <property name="kdenlive:meta.media.1.stream.sample_aspect_ratio">1</property>
  <property name="kdenlive:meta.media.1.codec.width">1920</property>
  <property name="kdenlive:meta.media.1.codec.height">1080</property>
  <property name="kdenlive:meta.media.1.codec.rotate">0</property>
  <property name="kdenlive:meta.media.1.codec.frame_rate">2400</property>
  <property name="kdenlive:meta.media.1.codec.pix_fmt">yuv422p10le</property>
  <property name="kdenlive:meta.media.1.codec.sample_aspect_ratio">0</property>
  <property name="kdenlive:meta.media.1.codec.colorspace">709</property>
  <property name="kdenlive:meta.media.1.codec.color_trc">1</property>
  <property name="kdenlive:meta.media.1.codec.name">prores</property>
  <property name="kdenlive:meta.media.1.codec.long_name">ProRes</property>
  <property name="kdenlive:meta.media.1.codec.bit_rate">176138876</property>
  <property name="kdenlive:meta.attr.1.stream.creation_time.markup">2017-11-25T09:04:57.000000Z</property>
  <property name="kdenlive:meta.attr.1.stream.language.markup">eng</property>
  <property name="kdenlive:meta.attr.1.stream.handler_name.markup">Apple Alias Data Handler</property>
  <property name="kdenlive:meta.attr.1.stream.encoder.markup">Apple ProRes 422 HQ</property>
  <property name="kdenlive:meta.attr.1.stream.timecode.markup">09:04:57:06</property>
  <property name="kdenlive:meta.media.2.stream.type">audio</property>
  <property name="kdenlive:meta.media.2.codec.sample_fmt">s32</property>
  <property name="kdenlive:meta.media.2.codec.sample_rate">48000</property>
  <property name="kdenlive:meta.media.2.codec.channels">2</property>
  <property name="kdenlive:meta.media.2.codec.name">pcm_s24le</property>
  <property name="kdenlive:meta.media.2.codec.long_name">PCM signed 24-bit little-endian</property>
  <property name="kdenlive:meta.media.2.codec.bit_rate">2304000</property>
  <property name="kdenlive:meta.attr.2.stream.creation_time.markup">2017-11-25T09:04:57.000000Z</property>
  <property name="kdenlive:meta.attr.2.stream.language.markup">eng</property>
  <property name="kdenlive:meta.attr.2.stream.handler_name.markup">Apple Alias Data Handler</property>
  <property name="kdenlive:meta.attr.2.stream.timecode.markup">09:04:57:06</property>
  <property name="kdenlive:meta.attr.com.apple.proapps.manufacturer.markup">Blackmagic Design</property>
  <property name="kdenlive:meta.attr.com.apple.proapps.cameraName.markup">CAM2</property>
  <property name="kdenlive:meta.attr.com.apple.proapps.isGood.markup">0</property>
  <property name="kdenlive:meta.attr.com.apple.proapps.customgamma.markup">com.blackmagic-design.cinemacamera.filmlog</property>
  <property name="kdenlive:meta.attr.com.blackmagic-design.cinemacamera.uuid.markup">18E5E00548F94923B646613A73C01B56</property>
  <property name="kdenlive:meta.attr.creation_time.markup">2017-11-25T09:04:57.000000Z</property>
  <property name="kdenlive:meta.attr.timecode.markup">09:04:57:06</property>
  <property name="kdenlive:meta.media.sample_aspect_num">1</property>
  <property name="kdenlive:meta.media.sample_aspect_den">1</property>
  <property name="kdenlive:meta.media.frame_rate_num">24</property>
  <property name="kdenlive:meta.media.frame_rate_den">1</property>
  <property name="kdenlive:meta.media.colorspace">709</property>
  <property name="kdenlive:meta.media.color_trc">1</property>
  <property name="kdenlive:meta.media.width">1920</property>
  <property name="kdenlive:meta.media.height">1080</property>
  <property name="kdenlive:meta.media.top_field_first">0</property>
  <property name="kdenlive:meta.media.progressive">1</property>
  <property name="xml">was here</property>
  <property name="meta.media.nb_streams">2</property>
  <property name="meta.media.1.stream.type">video</property>
  <property name="meta.media.1.stream.frame_rate">24</property>
  <property name="meta.media.1.stream.sample_aspect_ratio">1</property>
  <property name="meta.media.1.codec.width">1920</property>
  <property name="meta.media.1.codec.height">1080</property>
  <property name="meta.media.1.codec.rotate">0</property>
  <property name="meta.media.1.codec.frame_rate">2400</property>
  <property name="meta.media.1.codec.pix_fmt">yuv422p10le</property>
  <property name="meta.media.1.codec.sample_aspect_ratio">0</property>
  <property name="meta.media.1.codec.colorspace">709</property>
  <property name="meta.media.1.codec.color_trc">1</property>
  <property name="meta.media.1.codec.name">prores</property>
  <property name="meta.media.1.codec.long_name">ProRes</property>
  <property name="meta.media.1.codec.bit_rate">176138876</property>
  <property name="meta.attr.1.stream.creation_time.markup">2017-11-25T09:04:57.000000Z</property>
  <property name="meta.attr.1.stream.language.markup">eng</property>
  <property name="meta.attr.1.stream.handler_name.markup">Apple Alias Data Handler</property>
  <property name="meta.attr.1.stream.encoder.markup">Apple ProRes 422 HQ</property>
  <property name="meta.attr.1.stream.timecode.markup">09:04:57:06</property>
  <property name="meta.media.2.stream.type">audio</property>
  <property name="meta.media.2.codec.sample_fmt">s32</property>
  <property name="meta.media.2.codec.sample_rate">48000</property>
  <property name="meta.media.2.codec.channels">2</property>
  <property name="meta.media.2.codec.name">pcm_s24le</property>
  <property name="meta.media.2.codec.long_name">PCM signed 24-bit little-endian</property>
  <property name="meta.media.2.codec.bit_rate">2304000</property>
  <property name="meta.attr.2.stream.creation_time.markup">2017-11-25T09:04:57.000000Z</property>
  <property name="meta.attr.2.stream.language.markup">eng</property>
  <property name="meta.attr.2.stream.handler_name.markup">Apple Alias Data Handler</property>
  <property name="meta.attr.2.stream.timecode.markup">09:04:57:06</property>
  <property name="meta.attr.com.apple.proapps.manufacturer.markup">Blackmagic Design</property>
  <property name="meta.attr.com.apple.proapps.cameraName.markup">CAM2</property>
  <property name="meta.attr.com.apple.proapps.isGood.markup">0</property>
  <property name="meta.attr.com.apple.proapps.customgamma.markup">com.blackmagic-design.cinemacamera.filmlog</property>
  <property name="meta.attr.com.blackmagic-design.cinemacamera.uuid.markup">18E5E00548F94923B646613A73C01B56</property>
  <property name="meta.attr.creation_time.markup">2017-11-25T09:04:57.000000Z</property>
  <property name="meta.attr.timecode.markup">09:04:57:06</property>
  <property name="meta.media.sample_aspect_num">1</property>
  <property name="meta.media.sample_aspect_den">1</property>
  <property name="meta.media.frame_rate_num">24</property>
  <property name="meta.media.frame_rate_den">1</property>
  <property name="meta.media.colorspace">709</property>
  <property name="meta.media.color_trc">1</property>
  <property name="meta.media.width">1920</property>
  <property name="meta.media.height">1080</property>
  <property name="meta.media.top_field_first">0</property>
  <property name="meta.media.progressive">1</property>
  <property name="meta.media.0.stream.type">video</property>
  <property name="meta.media.0.stream.frame_rate">24</property>
  <property name="meta.media.0.stream.sample_aspect_ratio">1</property>
  <property name="meta.media.0.codec.width">1920</property>
  <property name="meta.media.0.codec.height">1080</property>
  <property name="meta.media.0.codec.rotate">0</property>
  <property name="meta.media.0.codec.frame_rate">12288</property>
  <property name="meta.media.0.codec.pix_fmt">yuv422p10le</property>
  <property name="meta.media.0.codec.sample_aspect_ratio">0</property>
  <property name="meta.media.0.codec.colorspace">709</property>
  <property name="meta.media.0.codec.color_trc">1</property>
  <property name="meta.media.0.codec.name">dnxhd</property>
  <property name="meta.media.0.codec.long_name">VC3/DNxHD</property>
  <property name="meta.media.0.codec.bit_rate">176160768</property>
  <property name="meta.attr.0.stream.language.markup">eng</property>
  <property name="meta.attr.0.stream.handler_name.markup">VideoHandler</property>
  <property name="meta.attr.0.stream.timecode.markup">09:04:57:06</property>
  <property name="meta.attr.major_brand.markup">qt  </property>
  <property name="meta.attr.minor_version.markup">512</property>
  <property name="meta.attr.compatible_brands.markup">qt  </property>
  <property name="meta.attr.encoder.markup">Lavf57.25.100</property>
 </producer>
 <playlist id="playlist26">
  <property name="kdenlive:track_name">FloorDrains3</property>
  <blank length="3264"/>
  <entry producer="17_playlist26" in="6022" out="6203"/>
  <blank length="103"/>
  <entry producer="17_playlist26" in="6307" out="6324"/>
  <blank length="1"/>
  <entry producer="17_playlist26" in="6326" out="6326"/>
  <blank length="1"/>
  <entry producer="17_playlist26" in="6328" out="6328"/>
  <blank length="1"/>
  <entry producer="17_playlist26" in="6330" out="6330"/>
  <blank length="98"/>
  <entry producer="17_playlist26" in="6425" out="6440"/>
  <blank length="27"/>
  <entry producer="17_playlist26" in="6469" out="6493"/>
  <blank length="33"/>
  <entry producer="17_playlist26" in="6532" out="6564"/>
  <blank length="30"/>
  <entry producer="17_playlist26" in="6587" out="6587">
   <filter id="filter0">
    <property name="version">0,1</property>
    <property name="mlt_service">frei0r.rgbsplit0r</property>
    <property name="kdenlive_id">frei0r.rgbsplit0r</property>
    <property name="tag">frei0r.rgbsplit0r</property>
    <property name="kdenlive_ix">1</property>
    <property name="kdenlive_info"/>
    <property name="disable"/>
    <property name="0">0,1</property>
    <property name="1">0</property>
   </filter>
  </entry>
  <entry producer="17_playlist26" in="6587" out="6587">
   <filter id="filter1">
    <property name="version">0,1</property>
    <property name="mlt_service">frei0r.rgbsplit0r</property>
    <property name="kdenlive_id">frei0r.rgbsplit0r</property>
    <property name="tag">frei0r.rgbsplit0r</property>
    <property name="kdenlive_ix">1</property>
    <property name="kdenlive_info"/>
    <property name="disable"/>
    <property name="0">0,1</property>
    <property name="1">0</property>
   </filter>
  </entry>
  <entry producer="17_playlist26" in="6588" out="6588">
   <filter id="filter2">
    <property name="version">0,1</property>
    <property name="mlt_service">frei0r.rgbsplit0r</property>
    <property name="kdenlive_id">frei0r.rgbsplit0r</property>
    <property name="tag">frei0r.rgbsplit0r</property>
    <property name="kdenlive_ix">1</property>
    <property name="kdenlive_info"/>
    <property name="disable"/>
    <property name="0">0,08</property>
    <property name="1">0</property>
   </filter>
  </entry>
  <entry producer="17_playlist26" in="6589" out="6589">
   <filter id="filter3">
    <property name="version">0,1</property>
    <property name="mlt_service">frei0r.rgbsplit0r</property>
    <property name="kdenlive_id">frei0r.rgbsplit0r</property>
    <property name="tag">frei0r.rgbsplit0r</property>
    <property name="kdenlive_ix">1</property>
    <property name="kdenlive_info"/>
    <property name="disable"/>
    <property name="0">0,06</property>
    <property name="1">0</property>
   </filter>
  </entry>
  <entry producer="17_playlist26" in="6590" out="6590">
   <filter id="filter10">
    <property name="version">0,1</property>
    <property name="mlt_service">frei0r.rgbsplit0r</property>
    <property name="kdenlive_id">frei0r.rgbsplit0r</property>
    <property name="tag">frei0r.rgbsplit0r</property>
    <property name="kdenlive_ix">1</property>
    <property name="kdenlive_info"/>
    <property name="disable"/>
    <property name="0">0,04</property>
    <property name="1">0</property>
   </filter>
  </entry>
  <entry producer="17_playlist26" in="6591" out="6591">
   <filter id="filter11">
    <property name="version">0,1</property>
    <property name="mlt_service">frei0r.rgbsplit0r</property>
    <property name="kdenlive_id">frei0r.rgbsplit0r</property>
    <property name="tag">frei0r.rgbsplit0r</property>
    <property name="kdenlive_ix">1</property>
    <property name="kdenlive_info"/>
    <property name="disable"/>
    <property name="0">0,01</property>
    <property name="1">0</property>
   </filter>
  </entry>
  <entry producer="17_playlist26" in="6592" out="6624"/>
  <blank length="24"/>
  <entry producer="17_playlist26" in="6649" out="6675"/>
  <blank length="75"/>
  <entry producer="17_playlist26" in="6748" out="6801"/>
  <blank length="86"/>
  <entry producer="17_playlist26" in="6893" out="8136"/>
 </playlist>
 <tractor title="Anonymous Submission" id="maintractor" global_feed="1" in="0" out="12182">
  <track producer="black_track"/>
  <track hide="video" producer="playlist1"/>
  <track hide="both" producer="playlist2"/>
  <track hide="audio" producer="playlist6"/>
  <track hide="audio" producer="playlist7"/>
  <track hide="audio" producer="playlist23"/>
  <track hide="audio" producer="playlist9"/>
  <track hide="audio" producer="playlist10"/>
  <track hide="audio" producer="playlist11"/>
  <track hide="audio" producer="playlist18"/>
  <track hide="audio" producer="playlist24"/>
  <track hide="audio" producer="playlist25"/>
  <track hide="audio" producer="playlist26"/>
  <transition id="transition27" in="3526" out="3548">
   <property name="a_track">3</property>
   <property name="b_track">4</property>
   <property name="factory">loader</property>
   <property name="mlt_service">luma</property>
   <property name="automatic">1</property>
   <property name="kdenlive_id">dissolve</property>
   <property name="force_track">1</property>
   <property name="reverse">1</property>
  </transition>
  <transition id="transition0">
   <property name="a_track">0</property>
   <property name="b_track">1</property>
   <property name="mlt_service">mix</property>
   <property name="always_active">1</property>
   <property name="sum">1</property>
   <property name="internal_added">237</property>
  </transition>
  <transition id="transition1">
   <property name="a_track">0</property>
   <property name="b_track">2</property>
   <property name="mlt_service">mix</property>
   <property name="always_active">1</property>
   <property name="sum">1</property>
   <property name="internal_added">237</property>
  </transition>
  <transition id="transition2">
   <property name="a_track">0</property>
   <property name="b_track">3</property>
   <property name="mlt_service">mix</property>
   <property name="always_active">1</property>
   <property name="sum">1</property>
   <property name="internal_added">237</property>
  </transition>
  <transition id="transition3">
   <property name="a_track">0</property>
   <property name="b_track">4</property>
   <property name="mlt_service">mix</property>
   <property name="always_active">1</property>
   <property name="sum">1</property>
   <property name="internal_added">237</property>
  </transition>
  <transition id="transition4">
   <property name="a_track">0</property>
   <property name="b_track">5</property>
   <property name="mlt_service">mix</property>
   <property name="always_active">1</property>
   <property name="sum">1</property>
   <property name="internal_added">237</property>
  </transition>
  <transition id="transition5">
   <property name="a_track">0</property>
   <property name="b_track">6</property>
   <property name="mlt_service">mix</property>
   <property name="always_active">1</property>
   <property name="sum">1</property>
   <property name="internal_added">237</property>
  </transition>
  <transition id="transition6">
   <property name="a_track">0</property>
   <property name="b_track">7</property>
   <property name="mlt_service">mix</property>
   <property name="always_active">1</property>
   <property name="sum">1</property>
   <property name="internal_added">237</property>
  </transition>
  <transition id="transition7">
   <property name="a_track">0</property>
   <property name="b_track">8</property>
   <property name="mlt_service">mix</property>
   <property name="always_active">1</property>
   <property name="sum">1</property>
   <property name="internal_added">237</property>
  </transition>
  <transition id="transition8">
   <property name="a_track">0</property>
   <property name="b_track">9</property>
   <property name="mlt_service">mix</property>
   <property name="always_active">1</property>
   <property name="sum">1</property>
   <property name="internal_added">237</property>
  </transition>
  <transition id="transition9">
   <property name="a_track">0</property>
   <property name="b_track">10</property>
   <property name="mlt_service">mix</property>
   <property name="always_active">1</property>
   <property name="sum">1</property>
   <property name="internal_added">237</property>
  </transition>
  <transition id="transition10">
   <property name="a_track">0</property>
   <property name="b_track">11</property>
   <property name="mlt_service">mix</property>
   <property name="always_active">1</property>
   <property name="sum">1</property>
   <property name="internal_added">237</property>
  </transition>
  <transition id="transition11">
   <property name="a_track">0</property>
   <property name="b_track">12</property>
   <property name="mlt_service">mix</property>
   <property name="always_active">1</property>
   <property name="sum">1</property>
   <property name="internal_added">237</property>
  </transition>
 </tractor>
</mlt>
