<?xml version='1.0' encoding='utf-8'?>
<mlt title="Anonymous Submission" LC_NUMERIC="fr_FR.UTF-8" producer="main bin" version="6.12.0" root="/home/bordun/Clip01_SnapshatAuHarem/Video">
 <profile frame_rate_num="24" sample_aspect_num="1" display_aspect_den="9" colorspace="709" progressive="1" description="HD 1080p 24 fps" display_aspect_num="16" frame_rate_den="1" width="1920" height="1080" sample_aspect_den="1"/>
 <producer title="Anonymous Submission" id="1" in="0" out="4287">
  <property name="length">00:02:58:16</property>
  <property name="eof">pause</property>
  <property name="resource">/home/bordun/Clip01_SnapshatAuHarem/Audio/Snapchat_au_Harem.flac</property>
  <property name="audio_index">0</property>
  <property name="video_index">-1</property>
  <property name="mute_on_pause">1</property>
  <property name="mlt_service">avformat-novalidate</property>
  <property name="meta.media.nb_streams">1</property>
  <property name="meta.media.0.stream.type">audio</property>
  <property name="meta.media.0.codec.sample_fmt">s16</property>
  <property name="meta.media.0.codec.sample_rate">48000</property>
  <property name="meta.media.0.codec.channels">2</property>
  <property name="meta.media.0.codec.name">flac</property>
  <property name="meta.media.0.codec.long_name">FLAC (Free Lossless Audio Codec)</property>
  <property name="meta.media.0.codec.bit_rate">0</property>
  <property name="seekable">1</property>
  <property name="kdenlive:folderid">-1</property>
  <property name="kdenlive:file_size">16614188</property>
  <property name="kdenlive:file_hash">115a31e39ebfe7c973cc2dc7b9f7cbf8</property>
  <property name="global_feed">1</property>
 </producer>
 <producer id="6" in="0" out="119">
  <property name="length">120</property>
  <property name="eof">pause</property>
  <property name="resource">0x000000ff</property>
  <property name="aspect_ratio">1</property>
  <property name="mlt_service">color</property>
  <property name="kdenlive:clipname">noir</property>
  <property name="kdenlive:folderid">-1</property>
  <property name="kdenlive:duration">120</property>
  <property name="kdenlive:file_hash">9196813120dc5c505072516b15baf414</property>
 </producer>
 <producer id="7" in="0" out="119">
  <property name="length">120</property>
  <property name="eof">pause</property>
  <property name="resource">0xffffffff</property>
  <property name="aspect_ratio">1</property>
  <property name="mlt_service">color</property>
  <property name="kdenlive:clipname">blanc</property>
  <property name="kdenlive:folderid">-1</property>
  <property name="kdenlive:duration">120</property>
  <property name="kdenlive:file_hash">039b56a692cd66eefeea44a17539e5a2</property>
 </producer>
 <producer id="10" in="0" out="119">
  <property name="length">120</property>
  <property name="eof">pause</property>
  <property name="resource">0x000000ff</property>
  <property name="aspect_ratio">1</property>
  <property name="mlt_service">color</property>
  <property name="kdenlive:clipname">Clip couleur</property>
  <property name="kdenlive:folderid">-1</property>
  <property name="kdenlive:duration">120</property>
  <property name="kdenlive:file_hash">9196813120dc5c505072516b15baf414</property>
 </producer>
 <producer title="Anonymous Submission" id="29" in="0" out="2289">
  <property name="length">00:01:35:10</property>
  <property name="eof">pause</property>
  <property name="resource">/media/bordun/Odile/SnapshatAuHarem/etalo/CAM2_2017-11-25_0216_C0025.mov</property>
  <property name="audio_index">2</property>
  <property name="video_index">0</property>
  <property name="mute_on_pause">1</property>
  <property name="mlt_service">avformat-novalidate</property>
  <property name="meta.media.nb_streams">2</property>
  <property name="meta.media.1.stream.type">video</property>
  <property name="meta.media.1.stream.frame_rate">24</property>
  <property name="meta.media.1.stream.sample_aspect_ratio">1</property>
  <property name="meta.media.1.codec.width">1920</property>
  <property name="meta.media.1.codec.height">1080</property>
  <property name="meta.media.1.codec.rotate">0</property>
  <property name="meta.media.1.codec.frame_rate">2400</property>
  <property name="meta.media.1.codec.pix_fmt">yuv422p10le</property>
  <property name="meta.media.1.codec.sample_aspect_ratio">0</property>
  <property name="meta.media.1.codec.colorspace">709</property>
  <property name="meta.media.1.codec.color_trc">1</property>
  <property name="meta.media.1.codec.name">prores</property>
  <property name="meta.media.1.codec.long_name">ProRes</property>
  <property name="meta.media.1.codec.bit_rate">176140323</property>
  <property name="meta.attr.1.stream.creation_time.markup">2017-11-25T02:16:34.000000Z</property>
  <property name="meta.attr.1.stream.language.markup">eng</property>
  <property name="meta.attr.1.stream.handler_name.markup">Apple Alias Data Handler</property>
  <property name="meta.attr.1.stream.encoder.markup">Apple ProRes 422 HQ</property>
  <property name="meta.attr.1.stream.timecode.markup">02:16:34:01</property>
  <property name="meta.media.2.stream.type">audio</property>
  <property name="meta.media.2.codec.sample_fmt">s32</property>
  <property name="meta.media.2.codec.sample_rate">48000</property>
  <property name="meta.media.2.codec.channels">2</property>
  <property name="meta.media.2.codec.name">pcm_s24le</property>
  <property name="meta.media.2.codec.long_name">PCM signed 24-bit little-endian</property>
  <property name="meta.media.2.codec.bit_rate">2304000</property>
  <property name="meta.attr.2.stream.creation_time.markup">2017-11-25T02:16:34.000000Z</property>
  <property name="meta.attr.2.stream.language.markup">eng</property>
  <property name="meta.attr.2.stream.handler_name.markup">Apple Alias Data Handler</property>
  <property name="meta.attr.2.stream.timecode.markup">02:16:34:01</property>
  <property name="meta.attr.com.apple.proapps.manufacturer.markup">Blackmagic Design</property>
  <property name="meta.attr.com.apple.proapps.cameraName.markup">CAM2</property>
  <property name="meta.attr.com.apple.proapps.isGood.markup">0</property>
  <property name="meta.attr.com.apple.proapps.customgamma.markup">com.blackmagic-design.cinemacamera.filmlog</property>
  <property name="meta.attr.com.blackmagic-design.cinemacamera.uuid.markup">18E5E00548F94923B646613A73C01B56</property>
  <property name="meta.attr.creation_time.markup">2017-11-25T02:16:34.000000Z</property>
  <property name="meta.attr.timecode.markup">02:16:34:01</property>
  <property name="seekable">1</property>
  <property name="meta.media.sample_aspect_num">1</property>
  <property name="meta.media.sample_aspect_den">1</property>
  <property name="aspect_ratio">1</property>
  <property name="meta.media.frame_rate_num">24</property>
  <property name="meta.media.frame_rate_den">1</property>
  <property name="meta.media.colorspace">709</property>
  <property name="meta.media.color_trc">1</property>
  <property name="meta.media.width">1920</property>
  <property name="meta.media.height">1080</property>
  <property name="meta.media.top_field_first">0</property>
  <property name="meta.media.progressive">1</property>
  <property name="kdenlive:file_size">2128857929</property>
  <property name="kdenlive:file_hash">c6824e172ec1c8919a2a055efe346cc6</property>
  <property name="kdenlive:clipname">tape cul - brothers horizontal</property>
  <property name="global_feed">1</property>
  <property name="meta.media.0.stream.type">video</property>
  <property name="meta.media.0.stream.frame_rate">24</property>
  <property name="meta.media.0.stream.sample_aspect_ratio">1</property>
  <property name="meta.media.0.codec.width">1920</property>
  <property name="meta.media.0.codec.height">1080</property>
  <property name="meta.media.0.codec.rotate">0</property>
  <property name="meta.media.0.codec.frame_rate">12288</property>
  <property name="meta.media.0.codec.pix_fmt">yuv422p10le</property>
  <property name="meta.media.0.codec.sample_aspect_ratio">0</property>
  <property name="meta.media.0.codec.colorspace">709</property>
  <property name="meta.media.0.codec.color_trc">1</property>
  <property name="meta.media.0.codec.name">dnxhd</property>
  <property name="meta.media.0.codec.long_name">VC3/DNxHD</property>
  <property name="meta.media.0.codec.bit_rate">176160768</property>
  <property name="meta.attr.0.stream.language.markup">eng</property>
  <property name="meta.attr.0.stream.handler_name.markup">Core Media Data Handler</property>
  <property name="meta.attr.0.stream.timecode.markup">02:16:34:01</property>
  <property name="meta.attr.major_brand.markup">qt  </property>
  <property name="meta.attr.minor_version.markup">512</property>
  <property name="meta.attr.compatible_brands.markup">qt  </property>
  <property name="meta.attr.encoder.markup">Lavf57.25.100</property>
 </producer>
 <producer title="Anonymous Submission" id="30" in="0" out="1766">
  <property name="length">00:01:13:15</property>
  <property name="eof">pause</property>
  <property name="resource">/media/bordun/Odile/SnapshatAuHarem/etalo/CAM2_2017-11-25_0212_C0024.mov</property>
  <property name="audio_index">2</property>
  <property name="video_index">0</property>
  <property name="mute_on_pause">1</property>
  <property name="mlt_service">avformat-novalidate</property>
  <property name="meta.media.nb_streams">2</property>
  <property name="meta.media.1.stream.type">video</property>
  <property name="meta.media.1.stream.frame_rate">24</property>
  <property name="meta.media.1.stream.sample_aspect_ratio">1</property>
  <property name="meta.media.1.codec.width">1920</property>
  <property name="meta.media.1.codec.height">1080</property>
  <property name="meta.media.1.codec.rotate">0</property>
  <property name="meta.media.1.codec.frame_rate">2400</property>
  <property name="meta.media.1.codec.pix_fmt">yuv422p10le</property>
  <property name="meta.media.1.codec.sample_aspect_ratio">0</property>
  <property name="meta.media.1.codec.colorspace">709</property>
  <property name="meta.media.1.codec.color_trc">1</property>
  <property name="meta.media.1.codec.name">prores</property>
  <property name="meta.media.1.codec.long_name">ProRes</property>
  <property name="meta.media.1.codec.bit_rate">176140800</property>
  <property name="meta.attr.1.stream.creation_time.markup">2017-11-25T02:12:48.000000Z</property>
  <property name="meta.attr.1.stream.language.markup">eng</property>
  <property name="meta.attr.1.stream.handler_name.markup">Apple Alias Data Handler</property>
  <property name="meta.attr.1.stream.encoder.markup">Apple ProRes 422 HQ</property>
  <property name="meta.attr.1.stream.timecode.markup">02:12:48:12</property>
  <property name="meta.media.2.stream.type">audio</property>
  <property name="meta.media.2.codec.sample_fmt">s32</property>
  <property name="meta.media.2.codec.sample_rate">48000</property>
  <property name="meta.media.2.codec.channels">2</property>
  <property name="meta.media.2.codec.name">pcm_s24le</property>
  <property name="meta.media.2.codec.long_name">PCM signed 24-bit little-endian</property>
  <property name="meta.media.2.codec.bit_rate">2304000</property>
  <property name="meta.attr.2.stream.creation_time.markup">2017-11-25T02:12:48.000000Z</property>
  <property name="meta.attr.2.stream.language.markup">eng</property>
  <property name="meta.attr.2.stream.handler_name.markup">Apple Alias Data Handler</property>
  <property name="meta.attr.2.stream.timecode.markup">02:12:48:12</property>
  <property name="meta.attr.com.apple.proapps.manufacturer.markup">Blackmagic Design</property>
  <property name="meta.attr.com.apple.proapps.cameraName.markup">CAM2</property>
  <property name="meta.attr.com.apple.proapps.isGood.markup">0</property>
  <property name="meta.attr.com.apple.proapps.customgamma.markup">com.blackmagic-design.cinemacamera.filmlog</property>
  <property name="meta.attr.com.blackmagic-design.cinemacamera.uuid.markup">18E5E00548F94923B646613A73C01B56</property>
  <property name="meta.attr.creation_time.markup">2017-11-25T02:12:48.000000Z</property>
  <property name="meta.attr.timecode.markup">02:12:48:12</property>
  <property name="seekable">1</property>
  <property name="meta.media.sample_aspect_num">1</property>
  <property name="meta.media.sample_aspect_den">1</property>
  <property name="aspect_ratio">1</property>
  <property name="meta.media.frame_rate_num">24</property>
  <property name="meta.media.frame_rate_den">1</property>
  <property name="meta.media.colorspace">709</property>
  <property name="meta.media.color_trc">1</property>
  <property name="meta.media.width">1920</property>
  <property name="meta.media.height">1080</property>
  <property name="meta.media.top_field_first">0</property>
  <property name="meta.media.progressive">1</property>
  <property name="kdenlive:file_size">1642659481</property>
  <property name="kdenlive:file_hash">bafd76a9a491d96d85f6a22fdc57e3f6</property>
  <property name="global_feed">1</property>
  <property name="meta.media.0.stream.type">video</property>
  <property name="meta.media.0.stream.frame_rate">24</property>
  <property name="meta.media.0.stream.sample_aspect_ratio">1</property>
  <property name="meta.media.0.codec.width">1920</property>
  <property name="meta.media.0.codec.height">1080</property>
  <property name="meta.media.0.codec.rotate">0</property>
  <property name="meta.media.0.codec.frame_rate">12288</property>
  <property name="meta.media.0.codec.pix_fmt">yuv422p10le</property>
  <property name="meta.media.0.codec.sample_aspect_ratio">0</property>
  <property name="meta.media.0.codec.colorspace">709</property>
  <property name="meta.media.0.codec.color_trc">1</property>
  <property name="meta.media.0.codec.name">dnxhd</property>
  <property name="meta.media.0.codec.long_name">VC3/DNxHD</property>
  <property name="meta.media.0.codec.bit_rate">176160768</property>
  <property name="meta.attr.0.stream.language.markup">eng</property>
  <property name="meta.attr.0.stream.handler_name.markup">Core Media Data Handler</property>
  <property name="meta.attr.0.stream.timecode.markup">02:12:48:12</property>
  <property name="meta.attr.major_brand.markup">qt  </property>
  <property name="meta.attr.minor_version.markup">512</property>
  <property name="meta.attr.compatible_brands.markup">qt  </property>
  <property name="meta.attr.encoder.markup">Lavf57.25.100</property>
 </producer>
 <producer title="Anonymous Submission" id="31" in="0" out="2372">
  <property name="length">00:01:38:21</property>
  <property name="eof">pause</property>
  <property name="resource">/media/bordun/Odile/SnapshatAuHarem/etalo/CAM2_2017-11-25_0209_C0023.mov</property>
  <property name="audio_index">2</property>
  <property name="video_index">0</property>
  <property name="mute_on_pause">1</property>
  <property name="mlt_service">avformat-novalidate</property>
  <property name="meta.media.nb_streams">2</property>
  <property name="meta.media.1.stream.type">video</property>
  <property name="meta.media.1.stream.frame_rate">24</property>
  <property name="meta.media.1.stream.sample_aspect_ratio">1</property>
  <property name="meta.media.1.codec.width">1920</property>
  <property name="meta.media.1.codec.height">1080</property>
  <property name="meta.media.1.codec.rotate">0</property>
  <property name="meta.media.1.codec.frame_rate">2400</property>
  <property name="meta.media.1.codec.pix_fmt">yuv422p10le</property>
  <property name="meta.media.1.codec.sample_aspect_ratio">0</property>
  <property name="meta.media.1.codec.colorspace">709</property>
  <property name="meta.media.1.codec.color_trc">1</property>
  <property name="meta.media.1.codec.name">prores</property>
  <property name="meta.media.1.codec.long_name">ProRes</property>
  <property name="meta.media.1.codec.bit_rate">176140757</property>
  <property name="meta.attr.1.stream.creation_time.markup">2017-11-25T02:09:41.000000Z</property>
  <property name="meta.attr.1.stream.language.markup">eng</property>
  <property name="meta.attr.1.stream.handler_name.markup">Apple Alias Data Handler</property>
  <property name="meta.attr.1.stream.encoder.markup">Apple ProRes 422 HQ</property>
  <property name="meta.attr.1.stream.timecode.markup">02:09:41:07</property>
  <property name="meta.media.2.stream.type">audio</property>
  <property name="meta.media.2.codec.sample_fmt">s32</property>
  <property name="meta.media.2.codec.sample_rate">48000</property>
  <property name="meta.media.2.codec.channels">2</property>
  <property name="meta.media.2.codec.name">pcm_s24le</property>
  <property name="meta.media.2.codec.long_name">PCM signed 24-bit little-endian</property>
  <property name="meta.media.2.codec.bit_rate">2304000</property>
  <property name="meta.attr.2.stream.creation_time.markup">2017-11-25T02:09:41.000000Z</property>
  <property name="meta.attr.2.stream.language.markup">eng</property>
  <property name="meta.attr.2.stream.handler_name.markup">Apple Alias Data Handler</property>
  <property name="meta.attr.2.stream.timecode.markup">02:09:41:07</property>
  <property name="meta.attr.com.apple.proapps.manufacturer.markup">Blackmagic Design</property>
  <property name="meta.attr.com.apple.proapps.cameraName.markup">CAM2</property>
  <property name="meta.attr.com.apple.proapps.isGood.markup">0</property>
  <property name="meta.attr.com.apple.proapps.customgamma.markup">com.blackmagic-design.cinemacamera.filmlog</property>
  <property name="meta.attr.com.blackmagic-design.cinemacamera.uuid.markup">18E5E00548F94923B646613A73C01B56</property>
  <property name="meta.attr.creation_time.markup">2017-11-25T02:09:41.000000Z</property>
  <property name="meta.attr.timecode.markup">02:09:41:07</property>
  <property name="seekable">1</property>
  <property name="meta.media.sample_aspect_num">1</property>
  <property name="meta.media.sample_aspect_den">1</property>
  <property name="aspect_ratio">1</property>
  <property name="meta.media.frame_rate_num">24</property>
  <property name="meta.media.frame_rate_den">1</property>
  <property name="meta.media.colorspace">709</property>
  <property name="meta.media.color_trc">1</property>
  <property name="meta.media.width">1920</property>
  <property name="meta.media.height">1080</property>
  <property name="meta.media.top_field_first">0</property>
  <property name="meta.media.progressive">1</property>
  <property name="kdenlive:file_size">2206015329</property>
  <property name="kdenlive:file_hash">f2ac1c88e18564c4f9c23aee9775a816</property>
  <property name="kdenlive:clipname">balais - bro chaudrons</property>
  <property name="global_feed">1</property>
  <property name="meta.media.0.stream.type">video</property>
  <property name="meta.media.0.stream.frame_rate">24</property>
  <property name="meta.media.0.stream.sample_aspect_ratio">1</property>
  <property name="meta.media.0.codec.width">1920</property>
  <property name="meta.media.0.codec.height">1080</property>
  <property name="meta.media.0.codec.rotate">0</property>
  <property name="meta.media.0.codec.frame_rate">12288</property>
  <property name="meta.media.0.codec.pix_fmt">yuv422p10le</property>
  <property name="meta.media.0.codec.sample_aspect_ratio">0</property>
  <property name="meta.media.0.codec.colorspace">709</property>
  <property name="meta.media.0.codec.color_trc">1</property>
  <property name="meta.media.0.codec.name">dnxhd</property>
  <property name="meta.media.0.codec.long_name">VC3/DNxHD</property>
  <property name="meta.media.0.codec.bit_rate">176160768</property>
  <property name="meta.attr.0.stream.language.markup">eng</property>
  <property name="meta.attr.0.stream.handler_name.markup">Core Media Data Handler</property>
  <property name="meta.attr.0.stream.timecode.markup">02:09:41:07</property>
  <property name="meta.attr.major_brand.markup">qt  </property>
  <property name="meta.attr.minor_version.markup">512</property>
  <property name="meta.attr.compatible_brands.markup">qt  </property>
  <property name="meta.attr.encoder.markup">Lavf57.25.100</property>
 </producer>
 <producer title="Anonymous Submission" id="32" in="0" out="1656">
  <property name="length">00:01:09:01</property>
  <property name="eof">pause</property>
  <property name="resource">/media/bordun/Odile/SnapshatAuHarem/etalo/CAM2_2017-11-25_0207_C0022.mov</property>
  <property name="audio_index">2</property>
  <property name="video_index">0</property>
  <property name="mute_on_pause">1</property>
  <property name="mlt_service">avformat-novalidate</property>
  <property name="meta.media.nb_streams">2</property>
  <property name="meta.media.1.stream.type">video</property>
  <property name="meta.media.1.stream.frame_rate">24</property>
  <property name="meta.media.1.stream.sample_aspect_ratio">1</property>
  <property name="meta.media.1.codec.width">1920</property>
  <property name="meta.media.1.codec.height">1080</property>
  <property name="meta.media.1.codec.rotate">0</property>
  <property name="meta.media.1.codec.frame_rate">2400</property>
  <property name="meta.media.1.codec.pix_fmt">yuv422p10le</property>
  <property name="meta.media.1.codec.sample_aspect_ratio">0</property>
  <property name="meta.media.1.codec.colorspace">709</property>
  <property name="meta.media.1.codec.color_trc">1</property>
  <property name="meta.media.1.codec.name">prores</property>
  <property name="meta.media.1.codec.long_name">ProRes</property>
  <property name="meta.media.1.codec.bit_rate">176140199</property>
  <property name="meta.attr.1.stream.creation_time.markup">2017-11-25T02:07:28.000000Z</property>
  <property name="meta.attr.1.stream.language.markup">eng</property>
  <property name="meta.attr.1.stream.handler_name.markup">Apple Alias Data Handler</property>
  <property name="meta.attr.1.stream.encoder.markup">Apple ProRes 422 HQ</property>
  <property name="meta.attr.1.stream.timecode.markup">02:07:28:12</property>
  <property name="meta.media.2.stream.type">audio</property>
  <property name="meta.media.2.codec.sample_fmt">s32</property>
  <property name="meta.media.2.codec.sample_rate">48000</property>
  <property name="meta.media.2.codec.channels">2</property>
  <property name="meta.media.2.codec.name">pcm_s24le</property>
  <property name="meta.media.2.codec.long_name">PCM signed 24-bit little-endian</property>
  <property name="meta.media.2.codec.bit_rate">2304000</property>
  <property name="meta.attr.2.stream.creation_time.markup">2017-11-25T02:07:28.000000Z</property>
  <property name="meta.attr.2.stream.language.markup">eng</property>
  <property name="meta.attr.2.stream.handler_name.markup">Apple Alias Data Handler</property>
  <property name="meta.attr.2.stream.timecode.markup">02:07:28:12</property>
  <property name="meta.attr.com.apple.proapps.manufacturer.markup">Blackmagic Design</property>
  <property name="meta.attr.com.apple.proapps.cameraName.markup">CAM2</property>
  <property name="meta.attr.com.apple.proapps.isGood.markup">0</property>
  <property name="meta.attr.com.apple.proapps.customgamma.markup">com.blackmagic-design.cinemacamera.filmlog</property>
  <property name="meta.attr.com.blackmagic-design.cinemacamera.uuid.markup">18E5E00548F94923B646613A73C01B56</property>
  <property name="meta.attr.creation_time.markup">2017-11-25T02:07:28.000000Z</property>
  <property name="meta.attr.timecode.markup">02:07:28:12</property>
  <property name="seekable">1</property>
  <property name="meta.media.sample_aspect_num">1</property>
  <property name="meta.media.sample_aspect_den">1</property>
  <property name="aspect_ratio">1</property>
  <property name="meta.media.frame_rate_num">24</property>
  <property name="meta.media.frame_rate_den">1</property>
  <property name="meta.media.colorspace">709</property>
  <property name="meta.media.color_trc">1</property>
  <property name="meta.media.width">1920</property>
  <property name="meta.media.height">1080</property>
  <property name="meta.media.top_field_first">0</property>
  <property name="meta.media.progressive">1</property>
  <property name="kdenlive:file_size">1540402297</property>
  <property name="kdenlive:file_hash">79446307b6e5337da5ef76814d12dc68</property>
  <property name="kdenlive:clipname">balais - bro chaudrons 2</property>
  <property name="global_feed">1</property>
  <property name="meta.media.0.stream.type">video</property>
  <property name="meta.media.0.stream.frame_rate">24</property>
  <property name="meta.media.0.stream.sample_aspect_ratio">1</property>
  <property name="meta.media.0.codec.width">1920</property>
  <property name="meta.media.0.codec.height">1080</property>
  <property name="meta.media.0.codec.rotate">0</property>
  <property name="meta.media.0.codec.frame_rate">12288</property>
  <property name="meta.media.0.codec.pix_fmt">yuv422p10le</property>
  <property name="meta.media.0.codec.sample_aspect_ratio">0</property>
  <property name="meta.media.0.codec.colorspace">709</property>
  <property name="meta.media.0.codec.color_trc">1</property>
  <property name="meta.media.0.codec.name">dnxhd</property>
  <property name="meta.media.0.codec.long_name">VC3/DNxHD</property>
  <property name="meta.media.0.codec.bit_rate">176160768</property>
  <property name="meta.attr.0.stream.language.markup">eng</property>
  <property name="meta.attr.0.stream.handler_name.markup">Core Media Data Handler</property>
  <property name="meta.attr.0.stream.timecode.markup">02:07:28:12</property>
  <property name="meta.attr.major_brand.markup">qt  </property>
  <property name="meta.attr.minor_version.markup">512</property>
  <property name="meta.attr.compatible_brands.markup">qt  </property>
  <property name="meta.attr.encoder.markup">Lavf57.25.100</property>
 </producer>
 <producer title="Anonymous Submission" id="36" in="0" out="2938">
  <property name="length">00:02:02:11</property>
  <property name="eof">pause</property>
  <property name="resource">/media/bordun/Odile/SnapshatAuHarem/etalo/CAM2_2017-11-25_0157_C0018.mov</property>
  <property name="audio_index">2</property>
  <property name="video_index">0</property>
  <property name="mute_on_pause">1</property>
  <property name="mlt_service">avformat-novalidate</property>
  <property name="meta.media.nb_streams">2</property>
  <property name="meta.media.1.stream.type">video</property>
  <property name="meta.media.1.stream.frame_rate">24</property>
  <property name="meta.media.1.stream.sample_aspect_ratio">1</property>
  <property name="meta.media.1.codec.width">1920</property>
  <property name="meta.media.1.codec.height">1080</property>
  <property name="meta.media.1.codec.rotate">0</property>
  <property name="meta.media.1.codec.frame_rate">2400</property>
  <property name="meta.media.1.codec.pix_fmt">yuv422p10le</property>
  <property name="meta.media.1.codec.sample_aspect_ratio">0</property>
  <property name="meta.media.1.codec.colorspace">709</property>
  <property name="meta.media.1.codec.color_trc">1</property>
  <property name="meta.media.1.codec.name">prores</property>
  <property name="meta.media.1.codec.long_name">ProRes</property>
  <property name="meta.media.1.codec.bit_rate">176141077</property>
  <property name="meta.attr.1.stream.creation_time.markup">2017-11-25T01:57:28.000000Z</property>
  <property name="meta.attr.1.stream.language.markup">eng</property>
  <property name="meta.attr.1.stream.handler_name.markup">Apple Alias Data Handler</property>
  <property name="meta.attr.1.stream.encoder.markup">Apple ProRes 422 HQ</property>
  <property name="meta.attr.1.stream.timecode.markup">01:57:28:04</property>
  <property name="meta.media.2.stream.type">audio</property>
  <property name="meta.media.2.codec.sample_fmt">s32</property>
  <property name="meta.media.2.codec.sample_rate">48000</property>
  <property name="meta.media.2.codec.channels">2</property>
  <property name="meta.media.2.codec.name">pcm_s24le</property>
  <property name="meta.media.2.codec.long_name">PCM signed 24-bit little-endian</property>
  <property name="meta.media.2.codec.bit_rate">2304000</property>
  <property name="meta.attr.2.stream.creation_time.markup">2017-11-25T01:57:28.000000Z</property>
  <property name="meta.attr.2.stream.language.markup">eng</property>
  <property name="meta.attr.2.stream.handler_name.markup">Apple Alias Data Handler</property>
  <property name="meta.attr.2.stream.timecode.markup">01:57:28:04</property>
  <property name="meta.attr.com.apple.proapps.manufacturer.markup">Blackmagic Design</property>
  <property name="meta.attr.com.apple.proapps.cameraName.markup">CAM2</property>
  <property name="meta.attr.com.apple.proapps.isGood.markup">0</property>
  <property name="meta.attr.com.apple.proapps.customgamma.markup">com.blackmagic-design.cinemacamera.filmlog</property>
  <property name="meta.attr.com.blackmagic-design.cinemacamera.uuid.markup">18E5E00548F94923B646613A73C01B56</property>
  <property name="meta.attr.creation_time.markup">2017-11-25T01:57:28.000000Z</property>
  <property name="meta.attr.timecode.markup">01:57:28:04</property>
  <property name="seekable">1</property>
  <property name="meta.media.sample_aspect_num">1</property>
  <property name="meta.media.sample_aspect_den">1</property>
  <property name="aspect_ratio">1</property>
  <property name="meta.media.frame_rate_num">24</property>
  <property name="meta.media.frame_rate_den">1</property>
  <property name="meta.media.colorspace">709</property>
  <property name="meta.media.color_trc">1</property>
  <property name="meta.media.width">1920</property>
  <property name="meta.media.height">1080</property>
  <property name="meta.media.top_field_first">0</property>
  <property name="meta.media.progressive">1</property>
  <property name="kdenlive:file_size">2732186657</property>
  <property name="kdenlive:file_hash">572064d88a5e335d857eaf857588a286</property>
  <property name="global_feed">1</property>
  <property name="meta.media.0.stream.type">video</property>
  <property name="meta.media.0.stream.frame_rate">24</property>
  <property name="meta.media.0.stream.sample_aspect_ratio">1</property>
  <property name="meta.media.0.codec.width">1920</property>
  <property name="meta.media.0.codec.height">1080</property>
  <property name="meta.media.0.codec.rotate">0</property>
  <property name="meta.media.0.codec.frame_rate">12288</property>
  <property name="meta.media.0.codec.pix_fmt">yuv422p10le</property>
  <property name="meta.media.0.codec.sample_aspect_ratio">0</property>
  <property name="meta.media.0.codec.colorspace">709</property>
  <property name="meta.media.0.codec.color_trc">1</property>
  <property name="meta.media.0.codec.name">dnxhd</property>
  <property name="meta.media.0.codec.long_name">VC3/DNxHD</property>
  <property name="meta.media.0.codec.bit_rate">176160768</property>
  <property name="meta.attr.0.stream.language.markup">eng</property>
  <property name="meta.attr.0.stream.handler_name.markup">Core Media Data Handler</property>
  <property name="meta.attr.0.stream.timecode.markup">01:57:28:04</property>
  <property name="meta.attr.major_brand.markup">qt  </property>
  <property name="meta.attr.minor_version.markup">512</property>
  <property name="meta.attr.compatible_brands.markup">qt  </property>
  <property name="meta.attr.encoder.markup">Lavf57.25.100</property>
 </producer>
 <producer title="Anonymous Submission" id="37" in="0" out="2511">
  <property name="length">00:01:44:16</property>
  <property name="eof">pause</property>
  <property name="resource">/media/bordun/Odile/SnapshatAuHarem/etalo/CAM2_2017-11-25_0153_C0017.mov</property>
  <property name="audio_index">2</property>
  <property name="video_index">0</property>
  <property name="mute_on_pause">1</property>
  <property name="mlt_service">avformat-novalidate</property>
  <property name="meta.media.nb_streams">2</property>
  <property name="meta.media.1.stream.type">video</property>
  <property name="meta.media.1.stream.frame_rate">24</property>
  <property name="meta.media.1.stream.sample_aspect_ratio">1</property>
  <property name="meta.media.1.codec.width">1920</property>
  <property name="meta.media.1.codec.height">1080</property>
  <property name="meta.media.1.codec.rotate">0</property>
  <property name="meta.media.1.codec.frame_rate">2400</property>
  <property name="meta.media.1.codec.pix_fmt">yuv422p10le</property>
  <property name="meta.media.1.codec.sample_aspect_ratio">0</property>
  <property name="meta.media.1.codec.colorspace">709</property>
  <property name="meta.media.1.codec.color_trc">1</property>
  <property name="meta.media.1.codec.name">prores</property>
  <property name="meta.media.1.codec.long_name">ProRes</property>
  <property name="meta.media.1.codec.bit_rate">176141099</property>
  <property name="meta.attr.1.stream.creation_time.markup">2017-11-25T01:53:07.000000Z</property>
  <property name="meta.attr.1.stream.language.markup">eng</property>
  <property name="meta.attr.1.stream.handler_name.markup">Apple Alias Data Handler</property>
  <property name="meta.attr.1.stream.encoder.markup">Apple ProRes 422 HQ</property>
  <property name="meta.attr.1.stream.timecode.markup">01:53:07:00</property>
  <property name="meta.media.2.stream.type">audio</property>
  <property name="meta.media.2.codec.sample_fmt">s32</property>
  <property name="meta.media.2.codec.sample_rate">48000</property>
  <property name="meta.media.2.codec.channels">2</property>
  <property name="meta.media.2.codec.name">pcm_s24le</property>
  <property name="meta.media.2.codec.long_name">PCM signed 24-bit little-endian</property>
  <property name="meta.media.2.codec.bit_rate">2304000</property>
  <property name="meta.attr.2.stream.creation_time.markup">2017-11-25T01:53:07.000000Z</property>
  <property name="meta.attr.2.stream.language.markup">eng</property>
  <property name="meta.attr.2.stream.handler_name.markup">Apple Alias Data Handler</property>
  <property name="meta.attr.2.stream.timecode.markup">01:53:07:00</property>
  <property name="meta.attr.com.apple.proapps.manufacturer.markup">Blackmagic Design</property>
  <property name="meta.attr.com.apple.proapps.cameraName.markup">CAM2</property>
  <property name="meta.attr.com.apple.proapps.isGood.markup">0</property>
  <property name="meta.attr.com.apple.proapps.customgamma.markup">com.blackmagic-design.cinemacamera.filmlog</property>
  <property name="meta.attr.com.blackmagic-design.cinemacamera.uuid.markup">18E5E00548F94923B646613A73C01B56</property>
  <property name="meta.attr.creation_time.markup">2017-11-25T01:53:07.000000Z</property>
  <property name="meta.attr.timecode.markup">01:53:07:00</property>
  <property name="seekable">1</property>
  <property name="meta.media.sample_aspect_num">1</property>
  <property name="meta.media.sample_aspect_den">1</property>
  <property name="aspect_ratio">1</property>
  <property name="meta.media.frame_rate_num">24</property>
  <property name="meta.media.frame_rate_den">1</property>
  <property name="meta.media.colorspace">709</property>
  <property name="meta.media.color_trc">1</property>
  <property name="meta.media.width">1920</property>
  <property name="meta.media.height">1080</property>
  <property name="meta.media.top_field_first">0</property>
  <property name="meta.media.progressive">1</property>
  <property name="kdenlive:file_size">2335232401</property>
  <property name="kdenlive:file_hash">757c5bae8be2aba08127826634aabb48</property>
  <property name="global_feed">1</property>
  <property name="meta.media.0.stream.type">video</property>
  <property name="meta.media.0.stream.frame_rate">24</property>
  <property name="meta.media.0.stream.sample_aspect_ratio">1</property>
  <property name="meta.media.0.codec.width">1920</property>
  <property name="meta.media.0.codec.height">1080</property>
  <property name="meta.media.0.codec.rotate">0</property>
  <property name="meta.media.0.codec.frame_rate">12288</property>
  <property name="meta.media.0.codec.pix_fmt">yuv422p10le</property>
  <property name="meta.media.0.codec.sample_aspect_ratio">0</property>
  <property name="meta.media.0.codec.colorspace">709</property>
  <property name="meta.media.0.codec.color_trc">1</property>
  <property name="meta.media.0.codec.name">dnxhd</property>
  <property name="meta.media.0.codec.long_name">VC3/DNxHD</property>
  <property name="meta.media.0.codec.bit_rate">176160768</property>
  <property name="meta.attr.0.stream.language.markup">eng</property>
  <property name="meta.attr.0.stream.handler_name.markup">Core Media Data Handler</property>
  <property name="meta.attr.0.stream.timecode.markup">01:53:07:00</property>
  <property name="meta.attr.major_brand.markup">qt  </property>
  <property name="meta.attr.minor_version.markup">512</property>
  <property name="meta.attr.compatible_brands.markup">qt  </property>
  <property name="meta.attr.encoder.markup">Lavf57.25.100</property>
 </producer>
 <producer title="Anonymous Submission" id="38" in="0" out="669">
  <property name="length">00:00:27:22</property>
  <property name="eof">pause</property>
  <property name="resource">/media/bordun/Odile/SnapshatAuHarem/etalo/CAM2_2017-11-25_0152_C0016.mov</property>
  <property name="audio_index">2</property>
  <property name="video_index">0</property>
  <property name="mute_on_pause">1</property>
  <property name="mlt_service">avformat-novalidate</property>
  <property name="meta.media.nb_streams">2</property>
  <property name="meta.media.1.stream.type">video</property>
  <property name="meta.media.1.stream.frame_rate">24</property>
  <property name="meta.media.1.stream.sample_aspect_ratio">1</property>
  <property name="meta.media.1.codec.width">1920</property>
  <property name="meta.media.1.codec.height">1080</property>
  <property name="meta.media.1.codec.rotate">0</property>
  <property name="meta.media.1.codec.frame_rate">2400</property>
  <property name="meta.media.1.codec.pix_fmt">yuv422p10le</property>
  <property name="meta.media.1.codec.sample_aspect_ratio">0</property>
  <property name="meta.media.1.codec.colorspace">709</property>
  <property name="meta.media.1.codec.color_trc">1</property>
  <property name="meta.media.1.codec.name">prores</property>
  <property name="meta.media.1.codec.long_name">ProRes</property>
  <property name="meta.media.1.codec.bit_rate">176141514</property>
  <property name="meta.attr.1.stream.creation_time.markup">2017-11-25T01:52:10.000000Z</property>
  <property name="meta.attr.1.stream.language.markup">eng</property>
  <property name="meta.attr.1.stream.handler_name.markup">Apple Alias Data Handler</property>
  <property name="meta.attr.1.stream.encoder.markup">Apple ProRes 422 HQ</property>
  <property name="meta.attr.1.stream.timecode.markup">01:52:10:10</property>
  <property name="meta.media.2.stream.type">audio</property>
  <property name="meta.media.2.codec.sample_fmt">s32</property>
  <property name="meta.media.2.codec.sample_rate">48000</property>
  <property name="meta.media.2.codec.channels">2</property>
  <property name="meta.media.2.codec.name">pcm_s24le</property>
  <property name="meta.media.2.codec.long_name">PCM signed 24-bit little-endian</property>
  <property name="meta.media.2.codec.bit_rate">2304000</property>
  <property name="meta.attr.2.stream.creation_time.markup">2017-11-25T01:52:10.000000Z</property>
  <property name="meta.attr.2.stream.language.markup">eng</property>
  <property name="meta.attr.2.stream.handler_name.markup">Apple Alias Data Handler</property>
  <property name="meta.attr.2.stream.timecode.markup">01:52:10:10</property>
  <property name="meta.attr.com.apple.proapps.manufacturer.markup">Blackmagic Design</property>
  <property name="meta.attr.com.apple.proapps.cameraName.markup">CAM2</property>
  <property name="meta.attr.com.apple.proapps.isGood.markup">0</property>
  <property name="meta.attr.com.apple.proapps.customgamma.markup">com.blackmagic-design.cinemacamera.filmlog</property>
  <property name="meta.attr.com.blackmagic-design.cinemacamera.uuid.markup">18E5E00548F94923B646613A73C01B56</property>
  <property name="meta.attr.creation_time.markup">2017-11-25T01:52:10.000000Z</property>
  <property name="meta.attr.timecode.markup">01:52:10:10</property>
  <property name="seekable">1</property>
  <property name="meta.media.sample_aspect_num">1</property>
  <property name="meta.media.sample_aspect_den">1</property>
  <property name="aspect_ratio">1</property>
  <property name="meta.media.frame_rate_num">24</property>
  <property name="meta.media.frame_rate_den">1</property>
  <property name="meta.media.colorspace">709</property>
  <property name="meta.media.color_trc">1</property>
  <property name="meta.media.width">1920</property>
  <property name="meta.media.height">1080</property>
  <property name="meta.media.top_field_first">0</property>
  <property name="meta.media.progressive">1</property>
  <property name="kdenlive:file_size">622859561</property>
  <property name="kdenlive:file_hash">99655b42bf7cc538fae6435a097eb4ba</property>
  <property name="global_feed">1</property>
  <property name="meta.media.0.stream.type">video</property>
  <property name="meta.media.0.stream.frame_rate">24</property>
  <property name="meta.media.0.stream.sample_aspect_ratio">1</property>
  <property name="meta.media.0.codec.width">1920</property>
  <property name="meta.media.0.codec.height">1080</property>
  <property name="meta.media.0.codec.rotate">0</property>
  <property name="meta.media.0.codec.frame_rate">12288</property>
  <property name="meta.media.0.codec.pix_fmt">yuv422p10le</property>
  <property name="meta.media.0.codec.sample_aspect_ratio">0</property>
  <property name="meta.media.0.codec.colorspace">709</property>
  <property name="meta.media.0.codec.color_trc">1</property>
  <property name="meta.media.0.codec.name">dnxhd</property>
  <property name="meta.media.0.codec.long_name">VC3/DNxHD</property>
  <property name="meta.media.0.codec.bit_rate">176160768</property>
  <property name="meta.attr.0.stream.language.markup">eng</property>
  <property name="meta.attr.0.stream.handler_name.markup">Core Media Data Handler</property>
  <property name="meta.attr.0.stream.timecode.markup">01:52:10:10</property>
  <property name="meta.attr.major_brand.markup">qt  </property>
  <property name="meta.attr.minor_version.markup">512</property>
  <property name="meta.attr.compatible_brands.markup">qt  </property>
  <property name="meta.attr.encoder.markup">Lavf57.25.100</property>
 </producer>
 <producer title="Anonymous Submission" id="39" in="0" out="1138">
  <property name="length">00:00:47:11</property>
  <property name="eof">pause</property>
  <property name="resource">/media/bordun/Odile/SnapshatAuHarem/etalo/CAM2_2017-11-25_0144_C0015.mov</property>
  <property name="audio_index">2</property>
  <property name="video_index">0</property>
  <property name="mute_on_pause">1</property>
  <property name="mlt_service">avformat-novalidate</property>
  <property name="meta.media.nb_streams">2</property>
  <property name="meta.media.1.stream.type">video</property>
  <property name="meta.media.1.stream.frame_rate">24</property>
  <property name="meta.media.1.stream.sample_aspect_ratio">1</property>
  <property name="meta.media.1.codec.width">1920</property>
  <property name="meta.media.1.codec.height">1080</property>
  <property name="meta.media.1.codec.rotate">0</property>
  <property name="meta.media.1.codec.frame_rate">2400</property>
  <property name="meta.media.1.codec.pix_fmt">yuv422p10le</property>
  <property name="meta.media.1.codec.sample_aspect_ratio">0</property>
  <property name="meta.media.1.codec.colorspace">709</property>
  <property name="meta.media.1.codec.color_trc">1</property>
  <property name="meta.media.1.codec.name">prores</property>
  <property name="meta.media.1.codec.long_name">ProRes</property>
  <property name="meta.media.1.codec.bit_rate">176135647</property>
  <property name="meta.attr.1.stream.creation_time.markup">2017-11-25T01:44:35.000000Z</property>
  <property name="meta.attr.1.stream.language.markup">eng</property>
  <property name="meta.attr.1.stream.handler_name.markup">Apple Alias Data Handler</property>
  <property name="meta.attr.1.stream.encoder.markup">Apple ProRes 422 HQ</property>
  <property name="meta.attr.1.stream.timecode.markup">01:44:35:18</property>
  <property name="meta.media.2.stream.type">audio</property>
  <property name="meta.media.2.codec.sample_fmt">s32</property>
  <property name="meta.media.2.codec.sample_rate">48000</property>
  <property name="meta.media.2.codec.channels">2</property>
  <property name="meta.media.2.codec.name">pcm_s24le</property>
  <property name="meta.media.2.codec.long_name">PCM signed 24-bit little-endian</property>
  <property name="meta.media.2.codec.bit_rate">2304000</property>
  <property name="meta.attr.2.stream.creation_time.markup">2017-11-25T01:44:35.000000Z</property>
  <property name="meta.attr.2.stream.language.markup">eng</property>
  <property name="meta.attr.2.stream.handler_name.markup">Apple Alias Data Handler</property>
  <property name="meta.attr.2.stream.timecode.markup">01:44:35:18</property>
  <property name="meta.attr.com.apple.proapps.manufacturer.markup">Blackmagic Design</property>
  <property name="meta.attr.com.apple.proapps.cameraName.markup">CAM2</property>
  <property name="meta.attr.com.apple.proapps.isGood.markup">0</property>
  <property name="meta.attr.com.apple.proapps.customgamma.markup">com.blackmagic-design.cinemacamera.filmlog</property>
  <property name="meta.attr.com.blackmagic-design.cinemacamera.uuid.markup">18E5E00548F94923B646613A73C01B56</property>
  <property name="meta.attr.creation_time.markup">2017-11-25T01:44:35.000000Z</property>
  <property name="meta.attr.timecode.markup">01:44:35:18</property>
  <property name="seekable">1</property>
  <property name="meta.media.sample_aspect_num">1</property>
  <property name="meta.media.sample_aspect_den">1</property>
  <property name="aspect_ratio">1</property>
  <property name="meta.media.frame_rate_num">24</property>
  <property name="meta.media.frame_rate_den">1</property>
  <property name="meta.media.colorspace">709</property>
  <property name="meta.media.color_trc">1</property>
  <property name="meta.media.width">1920</property>
  <property name="meta.media.height">1080</property>
  <property name="meta.media.top_field_first">0</property>
  <property name="meta.media.progressive">1</property>
  <property name="kdenlive:file_size">1058828233</property>
  <property name="kdenlive:file_hash">c4bf2d7a1e90819c94137bf2d4d31575</property>
  <property name="global_feed">1</property>
  <property name="meta.media.0.stream.type">video</property>
  <property name="meta.media.0.stream.frame_rate">24</property>
  <property name="meta.media.0.stream.sample_aspect_ratio">1</property>
  <property name="meta.media.0.codec.width">1920</property>
  <property name="meta.media.0.codec.height">1080</property>
  <property name="meta.media.0.codec.rotate">0</property>
  <property name="meta.media.0.codec.frame_rate">12288</property>
  <property name="meta.media.0.codec.pix_fmt">yuv422p10le</property>
  <property name="meta.media.0.codec.sample_aspect_ratio">0</property>
  <property name="meta.media.0.codec.colorspace">709</property>
  <property name="meta.media.0.codec.color_trc">1</property>
  <property name="meta.media.0.codec.name">dnxhd</property>
  <property name="meta.media.0.codec.long_name">VC3/DNxHD</property>
  <property name="meta.media.0.codec.bit_rate">176160768</property>
  <property name="meta.attr.0.stream.language.markup">eng</property>
  <property name="meta.attr.0.stream.handler_name.markup">Core Media Data Handler</property>
  <property name="meta.attr.0.stream.timecode.markup">01:44:35:18</property>
  <property name="meta.attr.major_brand.markup">qt  </property>
  <property name="meta.attr.minor_version.markup">512</property>
  <property name="meta.attr.compatible_brands.markup">qt  </property>
  <property name="meta.attr.encoder.markup">Lavf57.25.100</property>
 </producer>
 <producer title="Anonymous Submission" id="40" in="0" out="530">
  <property name="length">00:00:22:03</property>
  <property name="eof">pause</property>
  <property name="resource">/media/bordun/Odile/SnapshatAuHarem/etalo/CAM2_2017-11-25_0143_C0014.mov</property>
  <property name="audio_index">2</property>
  <property name="video_index">0</property>
  <property name="mute_on_pause">1</property>
  <property name="mlt_service">avformat-novalidate</property>
  <property name="meta.media.nb_streams">2</property>
  <property name="meta.media.1.stream.type">video</property>
  <property name="meta.media.1.stream.frame_rate">24</property>
  <property name="meta.media.1.stream.sample_aspect_ratio">1</property>
  <property name="meta.media.1.codec.width">1920</property>
  <property name="meta.media.1.codec.height">1080</property>
  <property name="meta.media.1.codec.rotate">0</property>
  <property name="meta.media.1.codec.frame_rate">2400</property>
  <property name="meta.media.1.codec.pix_fmt">yuv422p10le</property>
  <property name="meta.media.1.codec.sample_aspect_ratio">0</property>
  <property name="meta.media.1.codec.colorspace">709</property>
  <property name="meta.media.1.codec.color_trc">1</property>
  <property name="meta.media.1.codec.name">prores</property>
  <property name="meta.media.1.codec.long_name">ProRes</property>
  <property name="meta.media.1.codec.bit_rate">176139145</property>
  <property name="meta.attr.1.stream.creation_time.markup">2017-11-25T01:43:14.000000Z</property>
  <property name="meta.attr.1.stream.language.markup">eng</property>
  <property name="meta.attr.1.stream.handler_name.markup">Apple Alias Data Handler</property>
  <property name="meta.attr.1.stream.encoder.markup">Apple ProRes 422 HQ</property>
  <property name="meta.attr.1.stream.timecode.markup">01:43:14:11</property>
  <property name="meta.media.2.stream.type">audio</property>
  <property name="meta.media.2.codec.sample_fmt">s32</property>
  <property name="meta.media.2.codec.sample_rate">48000</property>
  <property name="meta.media.2.codec.channels">2</property>
  <property name="meta.media.2.codec.name">pcm_s24le</property>
  <property name="meta.media.2.codec.long_name">PCM signed 24-bit little-endian</property>
  <property name="meta.media.2.codec.bit_rate">2304000</property>
  <property name="meta.attr.2.stream.creation_time.markup">2017-11-25T01:43:14.000000Z</property>
  <property name="meta.attr.2.stream.language.markup">eng</property>
  <property name="meta.attr.2.stream.handler_name.markup">Apple Alias Data Handler</property>
  <property name="meta.attr.2.stream.timecode.markup">01:43:14:11</property>
  <property name="meta.attr.com.apple.proapps.manufacturer.markup">Blackmagic Design</property>
  <property name="meta.attr.com.apple.proapps.cameraName.markup">CAM2</property>
  <property name="meta.attr.com.apple.proapps.isGood.markup">0</property>
  <property name="meta.attr.com.apple.proapps.customgamma.markup">com.blackmagic-design.cinemacamera.filmlog</property>
  <property name="meta.attr.com.blackmagic-design.cinemacamera.uuid.markup">18E5E00548F94923B646613A73C01B56</property>
  <property name="meta.attr.creation_time.markup">2017-11-25T01:43:14.000000Z</property>
  <property name="meta.attr.timecode.markup">01:43:14:11</property>
  <property name="seekable">1</property>
  <property name="meta.media.sample_aspect_num">1</property>
  <property name="meta.media.sample_aspect_den">1</property>
  <property name="aspect_ratio">1</property>
  <property name="meta.media.frame_rate_num">24</property>
  <property name="meta.media.frame_rate_den">1</property>
  <property name="meta.media.colorspace">709</property>
  <property name="meta.media.color_trc">1</property>
  <property name="meta.media.width">1920</property>
  <property name="meta.media.height">1080</property>
  <property name="meta.media.top_field_first">0</property>
  <property name="meta.media.progressive">1</property>
  <property name="kdenlive:file_size">493642497</property>
  <property name="kdenlive:file_hash">ddaba60b41c20085920883c7eafb5cbe</property>
  <property name="global_feed">1</property>
  <property name="meta.media.0.stream.type">video</property>
  <property name="meta.media.0.stream.frame_rate">24</property>
  <property name="meta.media.0.stream.sample_aspect_ratio">1</property>
  <property name="meta.media.0.codec.width">1920</property>
  <property name="meta.media.0.codec.height">1080</property>
  <property name="meta.media.0.codec.rotate">0</property>
  <property name="meta.media.0.codec.frame_rate">12288</property>
  <property name="meta.media.0.codec.pix_fmt">yuv422p10le</property>
  <property name="meta.media.0.codec.sample_aspect_ratio">0</property>
  <property name="meta.media.0.codec.colorspace">709</property>
  <property name="meta.media.0.codec.color_trc">1</property>
  <property name="meta.media.0.codec.name">dnxhd</property>
  <property name="meta.media.0.codec.long_name">VC3/DNxHD</property>
  <property name="meta.media.0.codec.bit_rate">176160768</property>
  <property name="meta.attr.0.stream.language.markup">eng</property>
  <property name="meta.attr.0.stream.handler_name.markup">Core Media Data Handler</property>
  <property name="meta.attr.0.stream.timecode.markup">01:43:14:11</property>
  <property name="meta.attr.major_brand.markup">qt  </property>
  <property name="meta.attr.minor_version.markup">512</property>
  <property name="meta.attr.compatible_brands.markup">qt  </property>
  <property name="meta.attr.encoder.markup">Lavf57.25.100</property>
 </producer>
 <producer title="Anonymous Submission" id="42" in="0" out="1012">
  <property name="length">00:00:42:05</property>
  <property name="eof">pause</property>
  <property name="resource">/media/bordun/Odile/SnapshatAuHarem/etalo/CAM2_2017-11-25_0139_C0012.mov</property>
  <property name="audio_index">2</property>
  <property name="video_index">0</property>
  <property name="mute_on_pause">1</property>
  <property name="mlt_service">avformat-novalidate</property>
  <property name="meta.media.nb_streams">2</property>
  <property name="meta.media.1.stream.type">video</property>
  <property name="meta.media.1.stream.frame_rate">24</property>
  <property name="meta.media.1.stream.sample_aspect_ratio">1</property>
  <property name="meta.media.1.codec.width">1920</property>
  <property name="meta.media.1.codec.height">1080</property>
  <property name="meta.media.1.codec.rotate">0</property>
  <property name="meta.media.1.codec.frame_rate">2400</property>
  <property name="meta.media.1.codec.pix_fmt">yuv422p10le</property>
  <property name="meta.media.1.codec.sample_aspect_ratio">0</property>
  <property name="meta.media.1.codec.colorspace">709</property>
  <property name="meta.media.1.codec.color_trc">1</property>
  <property name="meta.media.1.codec.name">prores</property>
  <property name="meta.media.1.codec.long_name">ProRes</property>
  <property name="meta.media.1.codec.bit_rate">176142189</property>
  <property name="meta.attr.1.stream.creation_time.markup">2017-11-25T01:39:15.000000Z</property>
  <property name="meta.attr.1.stream.language.markup">eng</property>
  <property name="meta.attr.1.stream.handler_name.markup">Apple Alias Data Handler</property>
  <property name="meta.attr.1.stream.encoder.markup">Apple ProRes 422 HQ</property>
  <property name="meta.attr.1.stream.timecode.markup">01:39:15:03</property>
  <property name="meta.media.2.stream.type">audio</property>
  <property name="meta.media.2.codec.sample_fmt">s32</property>
  <property name="meta.media.2.codec.sample_rate">48000</property>
  <property name="meta.media.2.codec.channels">2</property>
  <property name="meta.media.2.codec.name">pcm_s24le</property>
  <property name="meta.media.2.codec.long_name">PCM signed 24-bit little-endian</property>
  <property name="meta.media.2.codec.bit_rate">2304000</property>
  <property name="meta.attr.2.stream.creation_time.markup">2017-11-25T01:39:15.000000Z</property>
  <property name="meta.attr.2.stream.language.markup">eng</property>
  <property name="meta.attr.2.stream.handler_name.markup">Apple Alias Data Handler</property>
  <property name="meta.attr.2.stream.timecode.markup">01:39:15:03</property>
  <property name="meta.attr.com.apple.proapps.manufacturer.markup">Blackmagic Design</property>
  <property name="meta.attr.com.apple.proapps.cameraName.markup">CAM2</property>
  <property name="meta.attr.com.apple.proapps.isGood.markup">0</property>
  <property name="meta.attr.com.apple.proapps.customgamma.markup">com.blackmagic-design.cinemacamera.filmlog</property>
  <property name="meta.attr.com.blackmagic-design.cinemacamera.uuid.markup">18E5E00548F94923B646613A73C01B56</property>
  <property name="meta.attr.creation_time.markup">2017-11-25T01:39:15.000000Z</property>
  <property name="meta.attr.timecode.markup">01:39:15:03</property>
  <property name="seekable">1</property>
  <property name="meta.media.sample_aspect_num">1</property>
  <property name="meta.media.sample_aspect_den">1</property>
  <property name="aspect_ratio">1</property>
  <property name="meta.media.frame_rate_num">24</property>
  <property name="meta.media.frame_rate_den">1</property>
  <property name="meta.media.colorspace">709</property>
  <property name="meta.media.color_trc">1</property>
  <property name="meta.media.width">1920</property>
  <property name="meta.media.height">1080</property>
  <property name="meta.media.top_field_first">0</property>
  <property name="meta.media.progressive">1</property>
  <property name="kdenlive:file_size">941723041</property>
  <property name="kdenlive:file_hash">64d7434ea3bac8844e60ee9f7eb5d609</property>
  <property name="global_feed">1</property>
  <property name="meta.media.0.stream.type">video</property>
  <property name="meta.media.0.stream.frame_rate">24</property>
  <property name="meta.media.0.stream.sample_aspect_ratio">1</property>
  <property name="meta.media.0.codec.width">1920</property>
  <property name="meta.media.0.codec.height">1080</property>
  <property name="meta.media.0.codec.rotate">0</property>
  <property name="meta.media.0.codec.frame_rate">12288</property>
  <property name="meta.media.0.codec.pix_fmt">yuv422p10le</property>
  <property name="meta.media.0.codec.sample_aspect_ratio">0</property>
  <property name="meta.media.0.codec.colorspace">709</property>
  <property name="meta.media.0.codec.color_trc">1</property>
  <property name="meta.media.0.codec.name">dnxhd</property>
  <property name="meta.media.0.codec.long_name">VC3/DNxHD</property>
  <property name="meta.media.0.codec.bit_rate">176160768</property>
  <property name="meta.attr.0.stream.language.markup">eng</property>
  <property name="meta.attr.0.stream.handler_name.markup">Core Media Data Handler</property>
  <property name="meta.attr.0.stream.timecode.markup">01:39:15:03</property>
  <property name="meta.attr.major_brand.markup">qt  </property>
  <property name="meta.attr.minor_version.markup">512</property>
  <property name="meta.attr.compatible_brands.markup">qt  </property>
  <property name="meta.attr.encoder.markup">Lavf57.25.100</property>
 </producer>
 <producer title="Anonymous Submission" id="43" in="0" out="1320">
  <property name="length">00:00:55:01</property>
  <property name="eof">pause</property>
  <property name="resource">/media/bordun/Odile/SnapshatAuHarem/etalo/CAM2_2017-11-25_0138_C0011.mov</property>
  <property name="audio_index">2</property>
  <property name="video_index">0</property>
  <property name="mute_on_pause">1</property>
  <property name="mlt_service">avformat-novalidate</property>
  <property name="meta.media.nb_streams">2</property>
  <property name="meta.media.1.stream.type">video</property>
  <property name="meta.media.1.stream.frame_rate">24</property>
  <property name="meta.media.1.stream.sample_aspect_ratio">1</property>
  <property name="meta.media.1.codec.width">1920</property>
  <property name="meta.media.1.codec.height">1080</property>
  <property name="meta.media.1.codec.rotate">0</property>
  <property name="meta.media.1.codec.frame_rate">2400</property>
  <property name="meta.media.1.codec.pix_fmt">yuv422p10le</property>
  <property name="meta.media.1.codec.sample_aspect_ratio">0</property>
  <property name="meta.media.1.codec.colorspace">709</property>
  <property name="meta.media.1.codec.color_trc">1</property>
  <property name="meta.media.1.codec.name">prores</property>
  <property name="meta.media.1.codec.long_name">ProRes</property>
  <property name="meta.media.1.codec.bit_rate">176141066</property>
  <property name="meta.attr.1.stream.creation_time.markup">2017-11-25T01:38:02.000000Z</property>
  <property name="meta.attr.1.stream.language.markup">eng</property>
  <property name="meta.attr.1.stream.handler_name.markup">Apple Alias Data Handler</property>
  <property name="meta.attr.1.stream.encoder.markup">Apple ProRes 422 HQ</property>
  <property name="meta.attr.1.stream.timecode.markup">01:38:02:17</property>
  <property name="meta.media.2.stream.type">audio</property>
  <property name="meta.media.2.codec.sample_fmt">s32</property>
  <property name="meta.media.2.codec.sample_rate">48000</property>
  <property name="meta.media.2.codec.channels">2</property>
  <property name="meta.media.2.codec.name">pcm_s24le</property>
  <property name="meta.media.2.codec.long_name">PCM signed 24-bit little-endian</property>
  <property name="meta.media.2.codec.bit_rate">2304000</property>
  <property name="meta.attr.2.stream.creation_time.markup">2017-11-25T01:38:02.000000Z</property>
  <property name="meta.attr.2.stream.language.markup">eng</property>
  <property name="meta.attr.2.stream.handler_name.markup">Apple Alias Data Handler</property>
  <property name="meta.attr.2.stream.timecode.markup">01:38:02:17</property>
  <property name="meta.attr.com.apple.proapps.manufacturer.markup">Blackmagic Design</property>
  <property name="meta.attr.com.apple.proapps.cameraName.markup">CAM2</property>
  <property name="meta.attr.com.apple.proapps.isGood.markup">0</property>
  <property name="meta.attr.com.apple.proapps.customgamma.markup">com.blackmagic-design.cinemacamera.filmlog</property>
  <property name="meta.attr.com.blackmagic-design.cinemacamera.uuid.markup">18E5E00548F94923B646613A73C01B56</property>
  <property name="meta.attr.creation_time.markup">2017-11-25T01:38:02.000000Z</property>
  <property name="meta.attr.timecode.markup">01:38:02:17</property>
  <property name="seekable">1</property>
  <property name="meta.media.sample_aspect_num">1</property>
  <property name="meta.media.sample_aspect_den">1</property>
  <property name="aspect_ratio">1</property>
  <property name="meta.media.frame_rate_num">24</property>
  <property name="meta.media.frame_rate_den">1</property>
  <property name="meta.media.colorspace">709</property>
  <property name="meta.media.color_trc">1</property>
  <property name="meta.media.width">1920</property>
  <property name="meta.media.height">1080</property>
  <property name="meta.media.top_field_first">0</property>
  <property name="meta.media.progressive">1</property>
  <property name="kdenlive:file_size">1228047881</property>
  <property name="kdenlive:file_hash">f55b1f96c618f1f23f1d76e78f9e87c8</property>
  <property name="global_feed">1</property>
  <property name="meta.media.0.stream.type">video</property>
  <property name="meta.media.0.stream.frame_rate">24</property>
  <property name="meta.media.0.stream.sample_aspect_ratio">1</property>
  <property name="meta.media.0.codec.width">1920</property>
  <property name="meta.media.0.codec.height">1080</property>
  <property name="meta.media.0.codec.rotate">0</property>
  <property name="meta.media.0.codec.frame_rate">12288</property>
  <property name="meta.media.0.codec.pix_fmt">yuv422p10le</property>
  <property name="meta.media.0.codec.sample_aspect_ratio">0</property>
  <property name="meta.media.0.codec.colorspace">709</property>
  <property name="meta.media.0.codec.color_trc">1</property>
  <property name="meta.media.0.codec.name">dnxhd</property>
  <property name="meta.media.0.codec.long_name">VC3/DNxHD</property>
  <property name="meta.media.0.codec.bit_rate">176160768</property>
  <property name="meta.attr.0.stream.language.markup">eng</property>
  <property name="meta.attr.0.stream.handler_name.markup">Core Media Data Handler</property>
  <property name="meta.attr.0.stream.timecode.markup">01:38:02:17</property>
  <property name="meta.attr.major_brand.markup">qt  </property>
  <property name="meta.attr.minor_version.markup">512</property>
  <property name="meta.attr.compatible_brands.markup">qt  </property>
  <property name="meta.attr.encoder.markup">Lavf57.25.100</property>
  <property name="threads">1</property>
 </producer>
 <producer title="Anonymous Submission" id="44" in="0" out="861">
  <property name="length">00:00:35:22</property>
  <property name="eof">pause</property>
  <property name="resource">/media/bordun/Odile/SnapshatAuHarem/etalo/CAM2_2017-11-25_0136_C0010.mov</property>
  <property name="audio_index">2</property>
  <property name="video_index">0</property>
  <property name="mute_on_pause">1</property>
  <property name="mlt_service">avformat-novalidate</property>
  <property name="meta.media.nb_streams">2</property>
  <property name="meta.media.1.stream.type">video</property>
  <property name="meta.media.1.stream.frame_rate">24</property>
  <property name="meta.media.1.stream.sample_aspect_ratio">1</property>
  <property name="meta.media.1.codec.width">1920</property>
  <property name="meta.media.1.codec.height">1080</property>
  <property name="meta.media.1.codec.rotate">0</property>
  <property name="meta.media.1.codec.frame_rate">2400</property>
  <property name="meta.media.1.codec.pix_fmt">yuv422p10le</property>
  <property name="meta.media.1.codec.sample_aspect_ratio">0</property>
  <property name="meta.media.1.codec.colorspace">709</property>
  <property name="meta.media.1.codec.color_trc">1</property>
  <property name="meta.media.1.codec.name">prores</property>
  <property name="meta.media.1.codec.long_name">ProRes</property>
  <property name="meta.media.1.codec.bit_rate">176141069</property>
  <property name="meta.attr.1.stream.creation_time.markup">2017-11-25T01:36:52.000000Z</property>
  <property name="meta.attr.1.stream.language.markup">eng</property>
  <property name="meta.attr.1.stream.handler_name.markup">Apple Alias Data Handler</property>
  <property name="meta.attr.1.stream.encoder.markup">Apple ProRes 422 HQ</property>
  <property name="meta.attr.1.stream.timecode.markup">01:36:52:06</property>
  <property name="meta.media.2.stream.type">audio</property>
  <property name="meta.media.2.codec.sample_fmt">s32</property>
  <property name="meta.media.2.codec.sample_rate">48000</property>
  <property name="meta.media.2.codec.channels">2</property>
  <property name="meta.media.2.codec.name">pcm_s24le</property>
  <property name="meta.media.2.codec.long_name">PCM signed 24-bit little-endian</property>
  <property name="meta.media.2.codec.bit_rate">2304000</property>
  <property name="meta.attr.2.stream.creation_time.markup">2017-11-25T01:36:52.000000Z</property>
  <property name="meta.attr.2.stream.language.markup">eng</property>
  <property name="meta.attr.2.stream.handler_name.markup">Apple Alias Data Handler</property>
  <property name="meta.attr.2.stream.timecode.markup">01:36:52:06</property>
  <property name="meta.attr.com.apple.proapps.manufacturer.markup">Blackmagic Design</property>
  <property name="meta.attr.com.apple.proapps.cameraName.markup">CAM2</property>
  <property name="meta.attr.com.apple.proapps.isGood.markup">0</property>
  <property name="meta.attr.com.apple.proapps.customgamma.markup">com.blackmagic-design.cinemacamera.filmlog</property>
  <property name="meta.attr.com.blackmagic-design.cinemacamera.uuid.markup">18E5E00548F94923B646613A73C01B56</property>
  <property name="meta.attr.creation_time.markup">2017-11-25T01:36:52.000000Z</property>
  <property name="meta.attr.timecode.markup">01:36:52:06</property>
  <property name="seekable">1</property>
  <property name="meta.media.sample_aspect_num">1</property>
  <property name="meta.media.sample_aspect_den">1</property>
  <property name="aspect_ratio">1</property>
  <property name="meta.media.frame_rate_num">24</property>
  <property name="meta.media.frame_rate_den">1</property>
  <property name="meta.media.colorspace">709</property>
  <property name="meta.media.color_trc">1</property>
  <property name="meta.media.width">1920</property>
  <property name="meta.media.height">1080</property>
  <property name="meta.media.top_field_first">0</property>
  <property name="meta.media.progressive">1</property>
  <property name="kdenlive:file_size">801347945</property>
  <property name="kdenlive:file_hash">d93236ebd49160c806fd2ecab0ea54e3</property>
  <property name="global_feed">1</property>
  <property name="meta.media.0.stream.type">video</property>
  <property name="meta.media.0.stream.frame_rate">24</property>
  <property name="meta.media.0.stream.sample_aspect_ratio">1</property>
  <property name="meta.media.0.codec.width">1920</property>
  <property name="meta.media.0.codec.height">1080</property>
  <property name="meta.media.0.codec.rotate">0</property>
  <property name="meta.media.0.codec.frame_rate">12288</property>
  <property name="meta.media.0.codec.pix_fmt">yuv422p10le</property>
  <property name="meta.media.0.codec.sample_aspect_ratio">0</property>
  <property name="meta.media.0.codec.colorspace">709</property>
  <property name="meta.media.0.codec.color_trc">1</property>
  <property name="meta.media.0.codec.name">dnxhd</property>
  <property name="meta.media.0.codec.long_name">VC3/DNxHD</property>
  <property name="meta.media.0.codec.bit_rate">176160768</property>
  <property name="meta.attr.0.stream.language.markup">eng</property>
  <property name="meta.attr.0.stream.handler_name.markup">Core Media Data Handler</property>
  <property name="meta.attr.0.stream.timecode.markup">01:36:52:06</property>
  <property name="meta.attr.major_brand.markup">qt  </property>
  <property name="meta.attr.minor_version.markup">512</property>
  <property name="meta.attr.compatible_brands.markup">qt  </property>
  <property name="meta.attr.encoder.markup">Lavf57.25.100</property>
 </producer>
 <producer title="Anonymous Submission" id="45" in="0" out="1267">
  <property name="length">00:00:52:20</property>
  <property name="eof">pause</property>
  <property name="resource">/media/bordun/Odile/SnapshatAuHarem/etalo/CAM2_2017-11-25_0135_C0009.mov</property>
  <property name="audio_index">2</property>
  <property name="video_index">0</property>
  <property name="mute_on_pause">1</property>
  <property name="mlt_service">avformat-novalidate</property>
  <property name="meta.media.nb_streams">2</property>
  <property name="meta.media.1.stream.type">video</property>
  <property name="meta.media.1.stream.frame_rate">24</property>
  <property name="meta.media.1.stream.sample_aspect_ratio">1</property>
  <property name="meta.media.1.codec.width">1920</property>
  <property name="meta.media.1.codec.height">1080</property>
  <property name="meta.media.1.codec.rotate">0</property>
  <property name="meta.media.1.codec.frame_rate">2400</property>
  <property name="meta.media.1.codec.pix_fmt">yuv422p10le</property>
  <property name="meta.media.1.codec.sample_aspect_ratio">0</property>
  <property name="meta.media.1.codec.colorspace">709</property>
  <property name="meta.media.1.codec.color_trc">1</property>
  <property name="meta.media.1.codec.name">prores</property>
  <property name="meta.media.1.codec.long_name">ProRes</property>
  <property name="meta.media.1.codec.bit_rate">176140309</property>
  <property name="meta.attr.1.stream.creation_time.markup">2017-11-25T01:35:45.000000Z</property>
  <property name="meta.attr.1.stream.language.markup">eng</property>
  <property name="meta.attr.1.stream.handler_name.markup">Apple Alias Data Handler</property>
  <property name="meta.attr.1.stream.encoder.markup">Apple ProRes 422 HQ</property>
  <property name="meta.attr.1.stream.timecode.markup">01:35:45:13</property>
  <property name="meta.media.2.stream.type">audio</property>
  <property name="meta.media.2.codec.sample_fmt">s32</property>
  <property name="meta.media.2.codec.sample_rate">48000</property>
  <property name="meta.media.2.codec.channels">2</property>
  <property name="meta.media.2.codec.name">pcm_s24le</property>
  <property name="meta.media.2.codec.long_name">PCM signed 24-bit little-endian</property>
  <property name="meta.media.2.codec.bit_rate">2304000</property>
  <property name="meta.attr.2.stream.creation_time.markup">2017-11-25T01:35:45.000000Z</property>
  <property name="meta.attr.2.stream.language.markup">eng</property>
  <property name="meta.attr.2.stream.handler_name.markup">Apple Alias Data Handler</property>
  <property name="meta.attr.2.stream.timecode.markup">01:35:45:13</property>
  <property name="meta.attr.com.apple.proapps.manufacturer.markup">Blackmagic Design</property>
  <property name="meta.attr.com.apple.proapps.cameraName.markup">CAM2</property>
  <property name="meta.attr.com.apple.proapps.isGood.markup">0</property>
  <property name="meta.attr.com.apple.proapps.customgamma.markup">com.blackmagic-design.cinemacamera.filmlog</property>
  <property name="meta.attr.com.blackmagic-design.cinemacamera.uuid.markup">18E5E00548F94923B646613A73C01B56</property>
  <property name="meta.attr.creation_time.markup">2017-11-25T01:35:45.000000Z</property>
  <property name="meta.attr.timecode.markup">01:35:45:13</property>
  <property name="seekable">1</property>
  <property name="meta.media.sample_aspect_num">1</property>
  <property name="meta.media.sample_aspect_den">1</property>
  <property name="aspect_ratio">1</property>
  <property name="meta.media.frame_rate_num">24</property>
  <property name="meta.media.frame_rate_den">1</property>
  <property name="meta.media.colorspace">709</property>
  <property name="meta.media.color_trc">1</property>
  <property name="meta.media.width">1920</property>
  <property name="meta.media.height">1080</property>
  <property name="meta.media.top_field_first">0</property>
  <property name="meta.media.progressive">1</property>
  <property name="kdenlive:file_size">1178776049</property>
  <property name="kdenlive:file_hash">6507895f640d910f5d96f50617797a71</property>
  <property name="global_feed">1</property>
  <property name="meta.media.0.stream.type">video</property>
  <property name="meta.media.0.stream.frame_rate">24</property>
  <property name="meta.media.0.stream.sample_aspect_ratio">1</property>
  <property name="meta.media.0.codec.width">1920</property>
  <property name="meta.media.0.codec.height">1080</property>
  <property name="meta.media.0.codec.rotate">0</property>
  <property name="meta.media.0.codec.frame_rate">12288</property>
  <property name="meta.media.0.codec.pix_fmt">yuv422p10le</property>
  <property name="meta.media.0.codec.sample_aspect_ratio">0</property>
  <property name="meta.media.0.codec.colorspace">709</property>
  <property name="meta.media.0.codec.color_trc">1</property>
  <property name="meta.media.0.codec.name">dnxhd</property>
  <property name="meta.media.0.codec.long_name">VC3/DNxHD</property>
  <property name="meta.media.0.codec.bit_rate">176160768</property>
  <property name="meta.attr.0.stream.language.markup">eng</property>
  <property name="meta.attr.0.stream.handler_name.markup">Core Media Data Handler</property>
  <property name="meta.attr.0.stream.timecode.markup">01:35:45:13</property>
  <property name="meta.attr.major_brand.markup">qt  </property>
  <property name="meta.attr.minor_version.markup">512</property>
  <property name="meta.attr.compatible_brands.markup">qt  </property>
  <property name="meta.attr.encoder.markup">Lavf57.25.100</property>
 </producer>
 <producer title="Anonymous Submission" id="46" in="0" out="3737">
  <property name="length">00:02:35:18</property>
  <property name="eof">pause</property>
  <property name="resource">/media/bordun/Odile/SnapshatAuHarem/etalo/CAM2_2017-11-25_0058_C0004.mov</property>
  <property name="audio_index">2</property>
  <property name="video_index">0</property>
  <property name="mute_on_pause">1</property>
  <property name="mlt_service">avformat-novalidate</property>
  <property name="meta.media.nb_streams">2</property>
  <property name="meta.media.1.stream.type">video</property>
  <property name="meta.media.1.stream.frame_rate">24</property>
  <property name="meta.media.1.stream.sample_aspect_ratio">1</property>
  <property name="meta.media.1.codec.width">1920</property>
  <property name="meta.media.1.codec.height">1080</property>
  <property name="meta.media.1.codec.rotate">0</property>
  <property name="meta.media.1.codec.frame_rate">2400</property>
  <property name="meta.media.1.codec.pix_fmt">yuv422p10le</property>
  <property name="meta.media.1.codec.sample_aspect_ratio">0</property>
  <property name="meta.media.1.codec.colorspace">709</property>
  <property name="meta.media.1.codec.color_trc">1</property>
  <property name="meta.media.1.codec.name">prores</property>
  <property name="meta.media.1.codec.long_name">ProRes</property>
  <property name="meta.media.1.codec.bit_rate">176138656</property>
  <property name="meta.attr.1.stream.creation_time.markup">2017-11-25T00:58:13.000000Z</property>
  <property name="meta.attr.1.stream.language.markup">eng</property>
  <property name="meta.attr.1.stream.handler_name.markup">Apple Alias Data Handler</property>
  <property name="meta.attr.1.stream.encoder.markup">Apple ProRes 422 HQ</property>
  <property name="meta.attr.1.stream.timecode.markup">00:58:13:00</property>
  <property name="meta.media.2.stream.type">audio</property>
  <property name="meta.media.2.codec.sample_fmt">s32</property>
  <property name="meta.media.2.codec.sample_rate">48000</property>
  <property name="meta.media.2.codec.channels">2</property>
  <property name="meta.media.2.codec.name">pcm_s24le</property>
  <property name="meta.media.2.codec.long_name">PCM signed 24-bit little-endian</property>
  <property name="meta.media.2.codec.bit_rate">2304000</property>
  <property name="meta.attr.2.stream.creation_time.markup">2017-11-25T00:58:13.000000Z</property>
  <property name="meta.attr.2.stream.language.markup">eng</property>
  <property name="meta.attr.2.stream.handler_name.markup">Apple Alias Data Handler</property>
  <property name="meta.attr.2.stream.timecode.markup">00:58:13:00</property>
  <property name="meta.attr.com.apple.proapps.manufacturer.markup">Blackmagic Design</property>
  <property name="meta.attr.com.apple.proapps.cameraName.markup">CAM2</property>
  <property name="meta.attr.com.apple.proapps.isGood.markup">0</property>
  <property name="meta.attr.com.apple.proapps.customgamma.markup">com.blackmagic-design.cinemacamera.filmlog</property>
  <property name="meta.attr.com.blackmagic-design.cinemacamera.uuid.markup">18E5E00548F94923B646613A73C01B56</property>
  <property name="meta.attr.creation_time.markup">2017-11-25T00:58:13.000000Z</property>
  <property name="meta.attr.timecode.markup">00:58:13:00</property>
  <property name="seekable">1</property>
  <property name="meta.media.sample_aspect_num">1</property>
  <property name="meta.media.sample_aspect_den">1</property>
  <property name="aspect_ratio">1</property>
  <property name="meta.media.frame_rate_num">24</property>
  <property name="meta.media.frame_rate_den">1</property>
  <property name="meta.media.colorspace">709</property>
  <property name="meta.media.color_trc">1</property>
  <property name="meta.media.width">1920</property>
  <property name="meta.media.height">1080</property>
  <property name="meta.media.top_field_first">0</property>
  <property name="meta.media.progressive">1</property>
  <property name="kdenlive:file_size">3474956585</property>
  <property name="kdenlive:file_hash">ad22dd8a06e746adef0131909037660a</property>
  <property name="global_feed">1</property>
  <property name="meta.media.0.stream.type">video</property>
  <property name="meta.media.0.stream.frame_rate">24</property>
  <property name="meta.media.0.stream.sample_aspect_ratio">1</property>
  <property name="meta.media.0.codec.width">1920</property>
  <property name="meta.media.0.codec.height">1080</property>
  <property name="meta.media.0.codec.rotate">0</property>
  <property name="meta.media.0.codec.frame_rate">12288</property>
  <property name="meta.media.0.codec.pix_fmt">yuv422p10le</property>
  <property name="meta.media.0.codec.sample_aspect_ratio">0</property>
  <property name="meta.media.0.codec.colorspace">709</property>
  <property name="meta.media.0.codec.color_trc">1</property>
  <property name="meta.media.0.codec.name">dnxhd</property>
  <property name="meta.media.0.codec.long_name">VC3/DNxHD</property>
  <property name="meta.media.0.codec.bit_rate">176160768</property>
  <property name="meta.attr.0.stream.language.markup">eng</property>
  <property name="meta.attr.0.stream.handler_name.markup">Core Media Data Handler</property>
  <property name="meta.attr.0.stream.timecode.markup">00:58:13:00</property>
  <property name="meta.attr.major_brand.markup">qt  </property>
  <property name="meta.attr.minor_version.markup">512</property>
  <property name="meta.attr.compatible_brands.markup">qt  </property>
  <property name="meta.attr.encoder.markup">Lavf57.25.100</property>
 </producer>
 <producer title="Anonymous Submission" id="47" in="0" out="8682">
  <property name="length">00:06:01:19</property>
  <property name="eof">pause</property>
  <property name="resource">/media/bordun/Odile/SnapshatAuHarem/etalo/CAM2_2017-11-25_0259_C0026.mov</property>
  <property name="audio_index">2</property>
  <property name="video_index">0</property>
  <property name="mute_on_pause">1</property>
  <property name="mlt_service">avformat-novalidate</property>
  <property name="meta.media.nb_streams">2</property>
  <property name="meta.media.1.stream.type">video</property>
  <property name="meta.media.1.stream.frame_rate">24</property>
  <property name="meta.media.1.stream.sample_aspect_ratio">1</property>
  <property name="meta.media.1.codec.width">1920</property>
  <property name="meta.media.1.codec.height">1080</property>
  <property name="meta.media.1.codec.rotate">0</property>
  <property name="meta.media.1.codec.frame_rate">2400</property>
  <property name="meta.media.1.codec.pix_fmt">yuv422p10le</property>
  <property name="meta.media.1.codec.sample_aspect_ratio">0</property>
  <property name="meta.media.1.codec.colorspace">709</property>
  <property name="meta.media.1.codec.color_trc">1</property>
  <property name="meta.media.1.codec.name">prores</property>
  <property name="meta.media.1.codec.long_name">ProRes</property>
  <property name="meta.media.1.codec.bit_rate">176142178</property>
  <property name="meta.attr.1.stream.creation_time.markup">2017-11-25T02:59:56.000000Z</property>
  <property name="meta.attr.1.stream.language.markup">eng</property>
  <property name="meta.attr.1.stream.handler_name.markup">Apple Alias Data Handler</property>
  <property name="meta.attr.1.stream.encoder.markup">Apple ProRes 422 HQ</property>
  <property name="meta.attr.1.stream.timecode.markup">02:59:56:09</property>
  <property name="meta.media.2.stream.type">audio</property>
  <property name="meta.media.2.codec.sample_fmt">s32</property>
  <property name="meta.media.2.codec.sample_rate">48000</property>
  <property name="meta.media.2.codec.channels">2</property>
  <property name="meta.media.2.codec.name">pcm_s24le</property>
  <property name="meta.media.2.codec.long_name">PCM signed 24-bit little-endian</property>
  <property name="meta.media.2.codec.bit_rate">2304000</property>
  <property name="meta.attr.2.stream.creation_time.markup">2017-11-25T02:59:56.000000Z</property>
  <property name="meta.attr.2.stream.language.markup">eng</property>
  <property name="meta.attr.2.stream.handler_name.markup">Apple Alias Data Handler</property>
  <property name="meta.attr.2.stream.timecode.markup">02:59:56:09</property>
  <property name="meta.attr.com.apple.proapps.manufacturer.markup">Blackmagic Design</property>
  <property name="meta.attr.com.apple.proapps.cameraName.markup">CAM2</property>
  <property name="meta.attr.com.apple.proapps.isGood.markup">0</property>
  <property name="meta.attr.com.apple.proapps.customgamma.markup">com.blackmagic-design.cinemacamera.filmlog</property>
  <property name="meta.attr.com.blackmagic-design.cinemacamera.uuid.markup">18E5E00548F94923B646613A73C01B56</property>
  <property name="meta.attr.creation_time.markup">2017-11-25T02:59:56.000000Z</property>
  <property name="meta.attr.timecode.markup">02:59:56:09</property>
  <property name="seekable">1</property>
  <property name="meta.media.sample_aspect_num">1</property>
  <property name="meta.media.sample_aspect_den">1</property>
  <property name="aspect_ratio">1</property>
  <property name="meta.media.frame_rate_num">24</property>
  <property name="meta.media.frame_rate_den">1</property>
  <property name="meta.media.colorspace">709</property>
  <property name="meta.media.color_trc">1</property>
  <property name="meta.media.width">1920</property>
  <property name="meta.media.height">1080</property>
  <property name="meta.media.top_field_first">0</property>
  <property name="meta.media.progressive">1</property>
  <property name="kdenlive:file_size">8071965081</property>
  <property name="kdenlive:file_hash">e1c8b5f517a3e32ed2e1ed0cc0e684bd</property>
  <property name="global_feed">1</property>
  <property name="meta.media.0.stream.type">video</property>
  <property name="meta.media.0.stream.frame_rate">24</property>
  <property name="meta.media.0.stream.sample_aspect_ratio">1</property>
  <property name="meta.media.0.codec.width">1920</property>
  <property name="meta.media.0.codec.height">1080</property>
  <property name="meta.media.0.codec.rotate">0</property>
  <property name="meta.media.0.codec.frame_rate">12288</property>
  <property name="meta.media.0.codec.pix_fmt">yuv422p10le</property>
  <property name="meta.media.0.codec.sample_aspect_ratio">0</property>
  <property name="meta.media.0.codec.colorspace">709</property>
  <property name="meta.media.0.codec.color_trc">1</property>
  <property name="meta.media.0.codec.name">dnxhd</property>
  <property name="meta.media.0.codec.long_name">VC3/DNxHD</property>
  <property name="meta.media.0.codec.bit_rate">176160768</property>
  <property name="meta.attr.0.stream.language.markup">eng</property>
  <property name="meta.attr.0.stream.handler_name.markup">Core Media Data Handler</property>
  <property name="meta.attr.0.stream.timecode.markup">02:59:56:09</property>
  <property name="meta.attr.major_brand.markup">qt  </property>
  <property name="meta.attr.minor_version.markup">512</property>
  <property name="meta.attr.compatible_brands.markup">qt  </property>
  <property name="meta.attr.encoder.markup">Lavf57.25.100</property>
 </producer>
 <producer title="Anonymous Submission" id="48" in="0" out="5556">
  <property name="length">00:03:51:13</property>
  <property name="eof">pause</property>
  <property name="resource">/media/bordun/Odile/SnapshatAuHarem/etalo/CAM2_2017-11-25_0328_C0001.mov</property>
  <property name="audio_index">2</property>
  <property name="video_index">0</property>
  <property name="mute_on_pause">1</property>
  <property name="mlt_service">avformat-novalidate</property>
  <property name="meta.media.nb_streams">2</property>
  <property name="meta.media.1.stream.type">video</property>
  <property name="meta.media.1.stream.frame_rate">24</property>
  <property name="meta.media.1.stream.sample_aspect_ratio">1</property>
  <property name="meta.media.1.codec.width">1920</property>
  <property name="meta.media.1.codec.height">1080</property>
  <property name="meta.media.1.codec.rotate">0</property>
  <property name="meta.media.1.codec.frame_rate">2400</property>
  <property name="meta.media.1.codec.pix_fmt">yuv422p10le</property>
  <property name="meta.media.1.codec.sample_aspect_ratio">0</property>
  <property name="meta.media.1.codec.colorspace">709</property>
  <property name="meta.media.1.codec.color_trc">1</property>
  <property name="meta.media.1.codec.name">prores</property>
  <property name="meta.media.1.codec.long_name">ProRes</property>
  <property name="meta.media.1.codec.bit_rate">176140198</property>
  <property name="meta.attr.1.stream.creation_time.markup">2017-11-25T03:28:42.000000Z</property>
  <property name="meta.attr.1.stream.language.markup">eng</property>
  <property name="meta.attr.1.stream.handler_name.markup">Apple Alias Data Handler</property>
  <property name="meta.attr.1.stream.encoder.markup">Apple ProRes 422 HQ</property>
  <property name="meta.attr.1.stream.timecode.markup">03:28:42:12</property>
  <property name="meta.media.2.stream.type">audio</property>
  <property name="meta.media.2.codec.sample_fmt">s32</property>
  <property name="meta.media.2.codec.sample_rate">48000</property>
  <property name="meta.media.2.codec.channels">2</property>
  <property name="meta.media.2.codec.name">pcm_s24le</property>
  <property name="meta.media.2.codec.long_name">PCM signed 24-bit little-endian</property>
  <property name="meta.media.2.codec.bit_rate">2304000</property>
  <property name="meta.attr.2.stream.creation_time.markup">2017-11-25T03:28:42.000000Z</property>
  <property name="meta.attr.2.stream.language.markup">eng</property>
  <property name="meta.attr.2.stream.handler_name.markup">Apple Alias Data Handler</property>
  <property name="meta.attr.2.stream.timecode.markup">03:28:42:12</property>
  <property name="meta.attr.com.apple.proapps.manufacturer.markup">Blackmagic Design</property>
  <property name="meta.attr.com.apple.proapps.cameraName.markup">CAM2</property>
  <property name="meta.attr.com.apple.proapps.isGood.markup">0</property>
  <property name="meta.attr.com.apple.proapps.customgamma.markup">com.blackmagic-design.cinemacamera.filmlog</property>
  <property name="meta.attr.com.blackmagic-design.cinemacamera.uuid.markup">18E5E00548F94923B646613A73C01B56</property>
  <property name="meta.attr.creation_time.markup">2017-11-25T03:28:42.000000Z</property>
  <property name="meta.attr.timecode.markup">03:28:42:12</property>
  <property name="seekable">1</property>
  <property name="meta.media.sample_aspect_num">1</property>
  <property name="meta.media.sample_aspect_den">1</property>
  <property name="aspect_ratio">1</property>
  <property name="meta.media.frame_rate_num">24</property>
  <property name="meta.media.frame_rate_den">1</property>
  <property name="meta.media.colorspace">709</property>
  <property name="meta.media.color_trc">1</property>
  <property name="meta.media.width">1920</property>
  <property name="meta.media.height">1080</property>
  <property name="meta.media.top_field_first">0</property>
  <property name="meta.media.progressive">1</property>
  <property name="kdenlive:file_size">5165952393</property>
  <property name="kdenlive:file_hash">3ba1af2b61c3f49ace504e0c5761963b</property>
  <property name="global_feed">1</property>
  <property name="meta.media.0.stream.type">video</property>
  <property name="meta.media.0.stream.frame_rate">24</property>
  <property name="meta.media.0.stream.sample_aspect_ratio">1</property>
  <property name="meta.media.0.codec.width">1920</property>
  <property name="meta.media.0.codec.height">1080</property>
  <property name="meta.media.0.codec.rotate">0</property>
  <property name="meta.media.0.codec.frame_rate">12288</property>
  <property name="meta.media.0.codec.pix_fmt">yuv422p10le</property>
  <property name="meta.media.0.codec.sample_aspect_ratio">0</property>
  <property name="meta.media.0.codec.colorspace">709</property>
  <property name="meta.media.0.codec.color_trc">1</property>
  <property name="meta.media.0.codec.name">dnxhd</property>
  <property name="meta.media.0.codec.long_name">VC3/DNxHD</property>
  <property name="meta.media.0.codec.bit_rate">176160768</property>
  <property name="meta.attr.0.stream.language.markup">eng</property>
  <property name="meta.attr.0.stream.handler_name.markup">Core Media Data Handler</property>
  <property name="meta.attr.0.stream.timecode.markup">03:28:42:12</property>
  <property name="meta.attr.major_brand.markup">qt  </property>
  <property name="meta.attr.minor_version.markup">512</property>
  <property name="meta.attr.compatible_brands.markup">qt  </property>
  <property name="meta.attr.encoder.markup">Lavf57.25.100</property>
 </producer>
 <playlist id="main bin">
  <property name="kdenlive:docproperties.audiotargettrack">2</property>
  <property name="kdenlive:docproperties.decimalPoint">,</property>
  <property name="kdenlive:docproperties.dirtypreviewchunks">1425,1450,1475,1500,1525,1550,1575,1600,1625,1650,1675,1700,1725,1750,1775,1800,1825,1850,1875,1900,1925,1950,1975,2000,2025,2050,2075,2100,2125,2150,2175,2200,2225,2250,2275,2300,2325,2350,2375,2400,2425,2450,2475,2500,2525,2550</property>
  <property name="kdenlive:docproperties.disablepreview">0</property>
  <property name="kdenlive:docproperties.documentid">1516638450852</property>
  <property name="kdenlive:docproperties.enableproxy">0</property>
  <property name="kdenlive:docproperties.generateimageproxy">1</property>
  <property name="kdenlive:docproperties.generateproxy">1</property>
  <property name="kdenlive:docproperties.kdenliveversion">18.08.3</property>
  <property name="kdenlive:docproperties.position">4399</property>
  <property name="kdenlive:docproperties.previewchunks"/>
  <property name="kdenlive:docproperties.previewextension">mov</property>
  <property name="kdenlive:docproperties.previewparameters">r=24 s=1920x1080 vb=36M threads=0 vcodec=dnxhd</property>
  <property name="kdenlive:docproperties.profile">atsc_1080p_24</property>
  <property name="kdenlive:docproperties.proxyextension">mpg</property>
  <property name="kdenlive:docproperties.proxyimageminsize">2000</property>
  <property name="kdenlive:docproperties.proxyminsize">1000</property>
  <property name="kdenlive:docproperties.proxyparams">-vf scale=640:-1 -g 5 -qscale 6 -ab 128k -vcodec mpeg2video -acodec mp2</property>
  <property name="kdenlive:docproperties.version">0.96</property>
  <property name="kdenlive:docproperties.verticalzoom">1</property>
  <property name="kdenlive:docproperties.videotargettrack">-1</property>
  <property name="kdenlive:docproperties.zonein">4063</property>
  <property name="kdenlive:docproperties.zoneout">4671</property>
  <property name="kdenlive:docproperties.zoom">1</property>
  <property name="kdenlive:docmetadata.meta.attr.author.markup">Plagiat &amp; Joris Le Guidart</property>
  <property name="kdenlive:docmetadata.meta.attr.copyright.markup">Copyleft - Licence Art Libre 1.3</property>
  <property name="kdenlive:docmetadata.meta.attr.title.markup">Snapchat au Harem (part of)</property>
  <property name="kdenlive:docmetadata.meta.attr.year.markup">2018</property>
  <property name="kdenlive:documentnotes"/>
  <property name="kdenlive:clipgroups"/>
  <property name="kdenlive:docproperties.renderaudioquality">192</property>
  <property name="kdenlive:docproperties.rendercategory">Sans perte / Haute qualité</property>
  <property name="kdenlive:docproperties.renderendguide">0</property>
  <property name="kdenlive:docproperties.renderexportaudio">2</property>
  <property name="kdenlive:docproperties.renderguide">0</property>
  <property name="kdenlive:docproperties.renderplay">0</property>
  <property name="kdenlive:docproperties.renderprofile">H.264 (libx264+aac)</property>
  <property name="kdenlive:docproperties.renderquality">15</property>
  <property name="kdenlive:docproperties.renderratio">1</property>
  <property name="kdenlive:docproperties.renderrescale">0</property>
  <property name="kdenlive:docproperties.renderrescaleheight">180</property>
  <property name="kdenlive:docproperties.renderrescalewidth">320</property>
  <property name="kdenlive:docproperties.renderscanning">0</property>
  <property name="kdenlive:docproperties.renderspeed">2</property>
  <property name="kdenlive:docproperties.renderstartguide">0</property>
  <property name="kdenlive:docproperties.rendertcoverlay">0</property>
  <property name="kdenlive:docproperties.rendertctype">0</property>
  <property name="kdenlive:docproperties.rendertwopass">0</property>
  <property name="kdenlive:docproperties.renderurl">/home/bordun/Clip01_SnapshatAuHarem/Rendus/07_Refrain2.mp4</property>
  <property name="kdenlive:docproperties.renderzone">1</property>
  <property name="kdenlive:guide.169,292">refrain</property>
  <property name="xml_retain">1</property>
  <entry producer="1" in="0" out="4287"/>
  <blank length="1872"/>
  <entry producer="6" in="0" out="119"/>
  <entry producer="7" in="0" out="119"/>
  <blank length="2072"/>
  <blank length="2299"/>
  <blank length="2260"/>
  <entry producer="10" in="0" out="119"/>
  <entry producer="29" in="0" out="2289"/>
  <entry producer="30" in="0" out="1766"/>
  <entry producer="31" in="0" out="2372"/>
  <entry producer="32" in="0" out="1656"/>
  <entry producer="36" in="0" out="2938"/>
  <entry producer="37" in="0" out="2511"/>
  <entry producer="38" in="0" out="669"/>
  <entry producer="39" in="0" out="1138"/>
  <entry producer="40" in="0" out="530"/>
  <blank length="1512"/>
  <entry producer="42" in="0" out="1012"/>
  <entry producer="43" in="0" out="1320"/>
  <entry producer="44" in="0" out="861"/>
  <entry producer="45" in="0" out="1267"/>
  <entry producer="46" in="0" out="3737"/>
  <entry producer="47" in="0" out="8682"/>
  <entry producer="48" in="0" out="5556"/>
 </playlist>
 <producer id="black" in="0" out="21973">
  <property name="length">21974</property>
  <property name="eof">pause</property>
  <property name="resource">black</property>
  <property name="aspect_ratio">0</property>
  <property name="mlt_service">colour</property>
  <property name="set.test_audio">0</property>
 </producer>
 <playlist id="black_track">
  <entry producer="black" in="0" out="5728"/>
 </playlist>
 <playlist id="playlist1">
  <property name="kdenlive:track_name">Audio 2</property>
  <property name="kdenlive:audio_track">1</property>
 </playlist>
 <producer title="Anonymous Submission" id="1_playlist2" in="0" out="4287">
  <property name="length">00:02:58:16</property>
  <property name="eof">pause</property>
  <property name="resource">/home/bordun/Clip01_SnapshatAuHarem/Audio/Snapchat_au_Harem.flac</property>
  <property name="audio_index">0</property>
  <property name="video_index">-1</property>
  <property name="mute_on_pause">1</property>
  <property name="mlt_service">avformat-novalidate</property>
  <property name="seekable">1</property>
  <property name="kdenlive:folderid">-1</property>
  <property name="kdenlive:file_size">16614188</property>
  <property name="kdenlive:file_hash">115a31e39ebfe7c973cc2dc7b9f7cbf8</property>
  <property name="global_feed">1</property>
  <property name="xml">was here</property>
  <property name="meta.media.nb_streams">1</property>
  <property name="meta.media.0.stream.type">audio</property>
  <property name="meta.media.0.codec.sample_fmt">s16</property>
  <property name="meta.media.0.codec.sample_rate">48000</property>
  <property name="meta.media.0.codec.channels">2</property>
  <property name="meta.media.0.codec.name">flac</property>
  <property name="meta.media.0.codec.long_name">FLAC (Free Lossless Audio Codec)</property>
  <property name="meta.media.0.codec.bit_rate">0</property>
 </producer>
 <playlist id="playlist2">
  <property name="kdenlive:track_name">Audio 1</property>
  <property name="kdenlive:audio_track">1</property>
  <property name="kdenlive:locked_track">1</property>
  <blank length="1440"/>
  <entry producer="1_playlist2" in="0" out="309"/>
  <entry producer="1_playlist2" in="310" out="4287"/>
 </playlist>
 <producer title="Anonymous Submission" id="30_playlist10" in="0" out="1766">
  <property name="length">00:01:13:15</property>
  <property name="eof">pause</property>
  <property name="resource">/media/bordun/Odile/SnapshatAuHarem/etalo/CAM2_2017-11-25_0212_C0024.mov</property>
  <property name="audio_index">2</property>
  <property name="video_index">0</property>
  <property name="mute_on_pause">1</property>
  <property name="mlt_service">avformat-novalidate</property>
  <property name="seekable">1</property>
  <property name="aspect_ratio">1</property>
  <property name="kdenlive:file_size">1642659481</property>
  <property name="kdenlive:file_hash">bafd76a9a491d96d85f6a22fdc57e3f6</property>
  <property name="global_feed">1</property>
  <property name="xml">was here</property>
  <property name="meta.media.nb_streams">2</property>
  <property name="meta.media.0.stream.type">video</property>
  <property name="meta.media.0.stream.frame_rate">24</property>
  <property name="meta.media.0.stream.sample_aspect_ratio">1</property>
  <property name="meta.media.0.codec.width">1920</property>
  <property name="meta.media.0.codec.height">1080</property>
  <property name="meta.media.0.codec.rotate">0</property>
  <property name="meta.media.0.codec.frame_rate">12288</property>
  <property name="meta.media.0.codec.pix_fmt">yuv422p10le</property>
  <property name="meta.media.0.codec.sample_aspect_ratio">0</property>
  <property name="meta.media.0.codec.colorspace">709</property>
  <property name="meta.media.0.codec.color_trc">1</property>
  <property name="meta.media.0.codec.name">dnxhd</property>
  <property name="meta.media.0.codec.long_name">VC3/DNxHD</property>
  <property name="meta.media.0.codec.bit_rate">176160768</property>
  <property name="meta.attr.0.stream.language.markup">eng</property>
  <property name="meta.attr.0.stream.handler_name.markup">Core Media Data Handler</property>
  <property name="meta.attr.0.stream.timecode.markup">02:12:48:12</property>
  <property name="meta.attr.major_brand.markup">qt  </property>
  <property name="meta.attr.minor_version.markup">512</property>
  <property name="meta.attr.compatible_brands.markup">qt  </property>
  <property name="meta.attr.encoder.markup">Lavf57.25.100</property>
  <property name="meta.media.sample_aspect_num">1</property>
  <property name="meta.media.sample_aspect_den">1</property>
  <property name="meta.media.frame_rate_num">24</property>
  <property name="meta.media.frame_rate_den">1</property>
  <property name="meta.media.colorspace">709</property>
  <property name="meta.media.color_trc">1</property>
  <property name="meta.media.width">1920</property>
  <property name="meta.media.height">1080</property>
  <property name="meta.media.top_field_first">0</property>
  <property name="meta.media.progressive">1</property>
 </producer>
 <producer title="Anonymous Submission" id="32_playlist10" in="0" out="1656">
  <property name="length">00:01:09:01</property>
  <property name="eof">pause</property>
  <property name="resource">/media/bordun/Odile/SnapshatAuHarem/etalo/CAM2_2017-11-25_0207_C0022.mov</property>
  <property name="audio_index">2</property>
  <property name="video_index">0</property>
  <property name="mute_on_pause">1</property>
  <property name="mlt_service">avformat-novalidate</property>
  <property name="seekable">1</property>
  <property name="aspect_ratio">1</property>
  <property name="kdenlive:file_size">1540402297</property>
  <property name="kdenlive:file_hash">79446307b6e5337da5ef76814d12dc68</property>
  <property name="kdenlive:clipname">balais - bro chaudrons 2</property>
  <property name="global_feed">1</property>
  <property name="xml">was here</property>
  <property name="meta.media.nb_streams">2</property>
  <property name="meta.media.1.stream.type">video</property>
  <property name="meta.media.1.stream.frame_rate">24</property>
  <property name="meta.media.1.stream.sample_aspect_ratio">1</property>
  <property name="meta.media.1.codec.width">1920</property>
  <property name="meta.media.1.codec.height">1080</property>
  <property name="meta.media.1.codec.rotate">0</property>
  <property name="meta.media.1.codec.frame_rate">2400</property>
  <property name="meta.media.1.codec.pix_fmt">yuv422p10le</property>
  <property name="meta.media.1.codec.sample_aspect_ratio">0</property>
  <property name="meta.media.1.codec.colorspace">709</property>
  <property name="meta.media.1.codec.color_trc">1</property>
  <property name="meta.media.1.codec.name">prores</property>
  <property name="meta.media.1.codec.long_name">ProRes</property>
  <property name="meta.media.1.codec.bit_rate">176140199</property>
  <property name="meta.attr.1.stream.creation_time.markup">2017-11-25T02:07:28.000000Z</property>
  <property name="meta.attr.1.stream.language.markup">eng</property>
  <property name="meta.attr.1.stream.handler_name.markup">Apple Alias Data Handler</property>
  <property name="meta.attr.1.stream.encoder.markup">Apple ProRes 422 HQ</property>
  <property name="meta.attr.1.stream.timecode.markup">02:07:28:12</property>
  <property name="meta.media.2.stream.type">audio</property>
  <property name="meta.media.2.codec.sample_fmt">s32</property>
  <property name="meta.media.2.codec.sample_rate">48000</property>
  <property name="meta.media.2.codec.channels">2</property>
  <property name="meta.media.2.codec.name">pcm_s24le</property>
  <property name="meta.media.2.codec.long_name">PCM signed 24-bit little-endian</property>
  <property name="meta.media.2.codec.bit_rate">2304000</property>
  <property name="meta.attr.2.stream.creation_time.markup">2017-11-25T02:07:28.000000Z</property>
  <property name="meta.attr.2.stream.language.markup">eng</property>
  <property name="meta.attr.2.stream.handler_name.markup">Apple Alias Data Handler</property>
  <property name="meta.attr.2.stream.timecode.markup">02:07:28:12</property>
  <property name="meta.attr.com.apple.proapps.manufacturer.markup">Blackmagic Design</property>
  <property name="meta.attr.com.apple.proapps.cameraName.markup">CAM2</property>
  <property name="meta.attr.com.apple.proapps.isGood.markup">0</property>
  <property name="meta.attr.com.apple.proapps.customgamma.markup">com.blackmagic-design.cinemacamera.filmlog</property>
  <property name="meta.attr.com.blackmagic-design.cinemacamera.uuid.markup">18E5E00548F94923B646613A73C01B56</property>
  <property name="meta.attr.creation_time.markup">2017-11-25T02:07:28.000000Z</property>
  <property name="meta.attr.timecode.markup">02:07:28:12</property>
  <property name="meta.media.sample_aspect_num">1</property>
  <property name="meta.media.sample_aspect_den">1</property>
  <property name="meta.media.frame_rate_num">24</property>
  <property name="meta.media.frame_rate_den">1</property>
  <property name="meta.media.colorspace">709</property>
  <property name="meta.media.color_trc">1</property>
  <property name="meta.media.width">1920</property>
  <property name="meta.media.height">1080</property>
  <property name="meta.media.0.stream.type">video</property>
  <property name="meta.media.0.stream.frame_rate">24</property>
  <property name="meta.media.0.stream.sample_aspect_ratio">1</property>
  <property name="meta.media.0.codec.width">1920</property>
  <property name="meta.media.0.codec.height">1080</property>
  <property name="meta.media.0.codec.rotate">0</property>
  <property name="meta.media.0.codec.frame_rate">12288</property>
  <property name="meta.media.0.codec.pix_fmt">yuv422p10le</property>
  <property name="meta.media.0.codec.sample_aspect_ratio">0</property>
  <property name="meta.media.0.codec.colorspace">709</property>
  <property name="meta.media.0.codec.color_trc">1</property>
  <property name="meta.media.0.codec.name">dnxhd</property>
  <property name="meta.media.0.codec.long_name">VC3/DNxHD</property>
  <property name="meta.media.0.codec.bit_rate">176160768</property>
  <property name="meta.attr.0.stream.language.markup">eng</property>
  <property name="meta.attr.0.stream.handler_name.markup">Core Media Data Handler</property>
  <property name="meta.attr.0.stream.timecode.markup">02:07:28:12</property>
  <property name="meta.attr.major_brand.markup">qt  </property>
  <property name="meta.attr.minor_version.markup">512</property>
  <property name="meta.attr.compatible_brands.markup">qt  </property>
  <property name="meta.attr.encoder.markup">Lavf57.25.100</property>
  <property name="meta.media.top_field_first">0</property>
  <property name="meta.media.progressive">1</property>
 </producer>
 <playlist id="playlist10">
  <property name="kdenlive:track_name">Video 8</property>
  <blank length="4192"/>
  <entry producer="30_playlist10" in="1153" out="1205"/>
  <blank length="180"/>
  <entry producer="32_playlist10" in="1223" out="1277"/>
 </playlist>
 <producer id="slowmotion:44:0,94:1:0" in="0" out="916">
  <property name="length">917</property>
  <property name="eof">pause</property>
  <property name="resource">0,94:/media/bordun/Odile/SnapshatAuHarem/etalo/CAM2_2017-11-25_0136_C0010.mov</property>
  <property name="aspect_ratio">1</property>
  <property name="meta.media.nb_streams">2</property>
  <property name="meta.media.0.stream.type">video</property>
  <property name="meta.media.0.stream.frame_rate">24</property>
  <property name="meta.media.0.stream.sample_aspect_ratio">1</property>
  <property name="meta.media.0.codec.width">1920</property>
  <property name="meta.media.0.codec.height">1080</property>
  <property name="meta.media.0.codec.rotate">0</property>
  <property name="meta.media.0.codec.frame_rate">12288</property>
  <property name="meta.media.0.codec.pix_fmt">yuv422p10le</property>
  <property name="meta.media.0.codec.sample_aspect_ratio">0</property>
  <property name="meta.media.0.codec.colorspace">709</property>
  <property name="meta.media.0.codec.color_trc">1</property>
  <property name="meta.media.0.codec.name">dnxhd</property>
  <property name="meta.media.0.codec.long_name">VC3/DNxHD</property>
  <property name="meta.media.0.codec.bit_rate">176160768</property>
  <property name="meta.attr.0.stream.language.markup">eng</property>
  <property name="meta.attr.0.stream.handler_name.markup">Core Media Data Handler</property>
  <property name="meta.attr.0.stream.timecode.markup">01:36:52:06</property>
  <property name="meta.attr.major_brand.markup">qt  </property>
  <property name="meta.attr.minor_version.markup">512</property>
  <property name="meta.attr.compatible_brands.markup">qt  </property>
  <property name="meta.attr.encoder.markup">Lavf57.25.100</property>
  <property name="seekable">1</property>
  <property name="meta.media.sample_aspect_num">1</property>
  <property name="meta.media.sample_aspect_den">1</property>
  <property name="audio_index">2</property>
  <property name="video_index">0</property>
  <property name="mute_on_pause">1</property>
  <property name="warp_speed">0,94</property>
  <property name="warp_resource">/media/bordun/Odile/SnapshatAuHarem/etalo/CAM2_2017-11-25_0136_C0010.mov</property>
  <property name="mlt_service">timewarp</property>
  <property name="meta.media.1.stream.type">video</property>
  <property name="meta.media.1.stream.frame_rate">24</property>
  <property name="meta.media.1.stream.sample_aspect_ratio">1</property>
  <property name="meta.media.1.codec.width">1920</property>
  <property name="meta.media.1.codec.height">1080</property>
  <property name="meta.media.1.codec.rotate">0</property>
  <property name="meta.media.1.codec.frame_rate">2400</property>
  <property name="meta.media.1.codec.pix_fmt">yuv422p10le</property>
  <property name="meta.media.1.codec.sample_aspect_ratio">0</property>
  <property name="meta.media.1.codec.colorspace">709</property>
  <property name="meta.media.1.codec.color_trc">1</property>
  <property name="meta.media.1.codec.name">prores</property>
  <property name="meta.media.1.codec.long_name">ProRes</property>
  <property name="meta.media.1.codec.bit_rate">176141069</property>
  <property name="meta.attr.1.stream.creation_time.markup">2017-11-25T01:36:52.000000Z</property>
  <property name="meta.attr.1.stream.language.markup">eng</property>
  <property name="meta.attr.1.stream.handler_name.markup">Apple Alias Data Handler</property>
  <property name="meta.attr.1.stream.encoder.markup">Apple ProRes 422 HQ</property>
  <property name="meta.attr.1.stream.timecode.markup">01:36:52:06</property>
  <property name="meta.media.2.stream.type">audio</property>
  <property name="meta.media.2.codec.sample_fmt">s32</property>
  <property name="meta.media.2.codec.sample_rate">48000</property>
  <property name="meta.media.2.codec.channels">2</property>
  <property name="meta.media.2.codec.name">pcm_s24le</property>
  <property name="meta.media.2.codec.long_name">PCM signed 24-bit little-endian</property>
  <property name="meta.media.2.codec.bit_rate">2304000</property>
  <property name="meta.attr.2.stream.creation_time.markup">2017-11-25T01:36:52.000000Z</property>
  <property name="meta.attr.2.stream.language.markup">eng</property>
  <property name="meta.attr.2.stream.handler_name.markup">Apple Alias Data Handler</property>
  <property name="meta.attr.2.stream.timecode.markup">01:36:52:06</property>
  <property name="meta.attr.com.apple.proapps.manufacturer.markup">Blackmagic Design</property>
  <property name="meta.attr.com.apple.proapps.cameraName.markup">CAM2</property>
  <property name="meta.attr.com.apple.proapps.isGood.markup">0</property>
  <property name="meta.attr.com.apple.proapps.customgamma.markup">com.blackmagic-design.cinemacamera.filmlog</property>
  <property name="meta.attr.com.blackmagic-design.cinemacamera.uuid.markup">18E5E00548F94923B646613A73C01B56</property>
  <property name="meta.attr.creation_time.markup">2017-11-25T01:36:52.000000Z</property>
  <property name="meta.attr.timecode.markup">01:36:52:06</property>
  <property name="meta.media.frame_rate_num">24</property>
  <property name="meta.media.frame_rate_den">1</property>
  <property name="meta.media.colorspace">709</property>
  <property name="meta.media.color_trc">1</property>
  <property name="meta.media.width">1920</property>
  <property name="meta.media.height">1080</property>
  <property name="meta.media.top_field_first">0</property>
  <property name="meta.media.progressive">1</property>
 </producer>
 <producer title="Anonymous Submission" id="44_playlist7" in="0" out="861">
  <property name="length">00:00:35:22</property>
  <property name="eof">pause</property>
  <property name="resource">/media/bordun/Odile/SnapshatAuHarem/etalo/CAM2_2017-11-25_0136_C0010.mov</property>
  <property name="audio_index">2</property>
  <property name="video_index">0</property>
  <property name="mute_on_pause">1</property>
  <property name="mlt_service">avformat-novalidate</property>
  <property name="seekable">1</property>
  <property name="aspect_ratio">1</property>
  <property name="kdenlive:file_size">801347945</property>
  <property name="kdenlive:file_hash">d93236ebd49160c806fd2ecab0ea54e3</property>
  <property name="global_feed">1</property>
  <property name="xml">was here</property>
  <property name="meta.media.nb_streams">2</property>
  <property name="meta.media.0.stream.type">video</property>
  <property name="meta.media.0.stream.frame_rate">24</property>
  <property name="meta.media.0.stream.sample_aspect_ratio">1</property>
  <property name="meta.media.0.codec.width">1920</property>
  <property name="meta.media.0.codec.height">1080</property>
  <property name="meta.media.0.codec.rotate">0</property>
  <property name="meta.media.0.codec.frame_rate">12288</property>
  <property name="meta.media.0.codec.pix_fmt">yuv422p10le</property>
  <property name="meta.media.0.codec.sample_aspect_ratio">0</property>
  <property name="meta.media.0.codec.colorspace">709</property>
  <property name="meta.media.0.codec.color_trc">1</property>
  <property name="meta.media.0.codec.name">dnxhd</property>
  <property name="meta.media.0.codec.long_name">VC3/DNxHD</property>
  <property name="meta.media.0.codec.bit_rate">176160768</property>
  <property name="meta.attr.0.stream.language.markup">eng</property>
  <property name="meta.attr.0.stream.handler_name.markup">Core Media Data Handler</property>
  <property name="meta.attr.0.stream.timecode.markup">01:36:52:06</property>
  <property name="meta.attr.major_brand.markup">qt  </property>
  <property name="meta.attr.minor_version.markup">512</property>
  <property name="meta.attr.compatible_brands.markup">qt  </property>
  <property name="meta.attr.encoder.markup">Lavf57.25.100</property>
  <property name="meta.media.sample_aspect_num">1</property>
  <property name="meta.media.sample_aspect_den">1</property>
  <property name="meta.media.frame_rate_num">24</property>
  <property name="meta.media.frame_rate_den">1</property>
  <property name="meta.media.colorspace">709</property>
  <property name="meta.media.color_trc">1</property>
  <property name="meta.media.width">1920</property>
  <property name="meta.media.height">1080</property>
  <property name="meta.media.top_field_first">0</property>
  <property name="meta.media.progressive">1</property>
 </producer>
 <producer title="Anonymous Submission" id="37_playlist7" in="0" out="2511">
  <property name="length">00:01:44:16</property>
  <property name="eof">pause</property>
  <property name="resource">/media/bordun/Odile/SnapshatAuHarem/etalo/CAM2_2017-11-25_0153_C0017.mov</property>
  <property name="audio_index">2</property>
  <property name="video_index">0</property>
  <property name="mute_on_pause">1</property>
  <property name="mlt_service">avformat-novalidate</property>
  <property name="seekable">1</property>
  <property name="aspect_ratio">1</property>
  <property name="kdenlive:file_size">2335232401</property>
  <property name="kdenlive:file_hash">757c5bae8be2aba08127826634aabb48</property>
  <property name="global_feed">1</property>
  <property name="xml">was here</property>
  <property name="meta.media.nb_streams">2</property>
  <property name="meta.media.1.stream.type">video</property>
  <property name="meta.media.1.stream.frame_rate">24</property>
  <property name="meta.media.1.stream.sample_aspect_ratio">1</property>
  <property name="meta.media.1.codec.width">1920</property>
  <property name="meta.media.1.codec.height">1080</property>
  <property name="meta.media.1.codec.rotate">0</property>
  <property name="meta.media.1.codec.frame_rate">2400</property>
  <property name="meta.media.1.codec.pix_fmt">yuv422p10le</property>
  <property name="meta.media.1.codec.sample_aspect_ratio">0</property>
  <property name="meta.media.1.codec.colorspace">709</property>
  <property name="meta.media.1.codec.color_trc">1</property>
  <property name="meta.media.1.codec.name">prores</property>
  <property name="meta.media.1.codec.long_name">ProRes</property>
  <property name="meta.media.1.codec.bit_rate">176141099</property>
  <property name="meta.attr.1.stream.creation_time.markup">2017-11-25T01:53:07.000000Z</property>
  <property name="meta.attr.1.stream.language.markup">eng</property>
  <property name="meta.attr.1.stream.handler_name.markup">Apple Alias Data Handler</property>
  <property name="meta.attr.1.stream.encoder.markup">Apple ProRes 422 HQ</property>
  <property name="meta.attr.1.stream.timecode.markup">01:53:07:00</property>
  <property name="meta.media.2.stream.type">audio</property>
  <property name="meta.media.2.codec.sample_fmt">s32</property>
  <property name="meta.media.2.codec.sample_rate">48000</property>
  <property name="meta.media.2.codec.channels">2</property>
  <property name="meta.media.2.codec.name">pcm_s24le</property>
  <property name="meta.media.2.codec.long_name">PCM signed 24-bit little-endian</property>
  <property name="meta.media.2.codec.bit_rate">2304000</property>
  <property name="meta.attr.2.stream.creation_time.markup">2017-11-25T01:53:07.000000Z</property>
  <property name="meta.attr.2.stream.language.markup">eng</property>
  <property name="meta.attr.2.stream.handler_name.markup">Apple Alias Data Handler</property>
  <property name="meta.attr.2.stream.timecode.markup">01:53:07:00</property>
  <property name="meta.attr.com.apple.proapps.manufacturer.markup">Blackmagic Design</property>
  <property name="meta.attr.com.apple.proapps.cameraName.markup">CAM2</property>
  <property name="meta.attr.com.apple.proapps.isGood.markup">0</property>
  <property name="meta.attr.com.apple.proapps.customgamma.markup">com.blackmagic-design.cinemacamera.filmlog</property>
  <property name="meta.attr.com.blackmagic-design.cinemacamera.uuid.markup">18E5E00548F94923B646613A73C01B56</property>
  <property name="meta.attr.creation_time.markup">2017-11-25T01:53:07.000000Z</property>
  <property name="meta.attr.timecode.markup">01:53:07:00</property>
  <property name="meta.media.sample_aspect_num">1</property>
  <property name="meta.media.sample_aspect_den">1</property>
  <property name="meta.media.frame_rate_num">24</property>
  <property name="meta.media.frame_rate_den">1</property>
  <property name="meta.media.colorspace">709</property>
  <property name="meta.media.color_trc">1</property>
  <property name="meta.media.width">1920</property>
  <property name="meta.media.height">1080</property>
  <property name="meta.media.top_field_first">0</property>
  <property name="meta.media.progressive">1</property>
  <property name="meta.media.0.stream.type">video</property>
  <property name="meta.media.0.stream.frame_rate">24</property>
  <property name="meta.media.0.stream.sample_aspect_ratio">1</property>
  <property name="meta.media.0.codec.width">1920</property>
  <property name="meta.media.0.codec.height">1080</property>
  <property name="meta.media.0.codec.rotate">0</property>
  <property name="meta.media.0.codec.frame_rate">12288</property>
  <property name="meta.media.0.codec.pix_fmt">yuv422p10le</property>
  <property name="meta.media.0.codec.sample_aspect_ratio">0</property>
  <property name="meta.media.0.codec.colorspace">709</property>
  <property name="meta.media.0.codec.color_trc">1</property>
  <property name="meta.media.0.codec.name">dnxhd</property>
  <property name="meta.media.0.codec.long_name">VC3/DNxHD</property>
  <property name="meta.media.0.codec.bit_rate">176160768</property>
  <property name="meta.attr.0.stream.language.markup">eng</property>
  <property name="meta.attr.0.stream.handler_name.markup">Core Media Data Handler</property>
  <property name="meta.attr.0.stream.timecode.markup">01:53:07:00</property>
  <property name="meta.attr.major_brand.markup">qt  </property>
  <property name="meta.attr.minor_version.markup">512</property>
  <property name="meta.attr.compatible_brands.markup">qt  </property>
  <property name="meta.attr.encoder.markup">Lavf57.25.100</property>
 </producer>
 <producer title="Anonymous Submission" id="29_playlist7" in="0" out="2289">
  <property name="length">00:01:35:10</property>
  <property name="eof">pause</property>
  <property name="resource">/media/bordun/Odile/SnapshatAuHarem/etalo/CAM2_2017-11-25_0216_C0025.mov</property>
  <property name="audio_index">2</property>
  <property name="video_index">0</property>
  <property name="mute_on_pause">1</property>
  <property name="mlt_service">avformat-novalidate</property>
  <property name="seekable">1</property>
  <property name="aspect_ratio">1</property>
  <property name="kdenlive:file_size">2128857929</property>
  <property name="kdenlive:file_hash">c6824e172ec1c8919a2a055efe346cc6</property>
  <property name="kdenlive:clipname">tape cul - brothers horizontal</property>
  <property name="global_feed">1</property>
  <property name="xml">was here</property>
  <property name="meta.media.nb_streams">2</property>
  <property name="meta.media.0.stream.type">video</property>
  <property name="meta.media.0.stream.frame_rate">24</property>
  <property name="meta.media.0.stream.sample_aspect_ratio">1</property>
  <property name="meta.media.0.codec.width">1920</property>
  <property name="meta.media.0.codec.height">1080</property>
  <property name="meta.media.0.codec.rotate">0</property>
  <property name="meta.media.0.codec.frame_rate">12288</property>
  <property name="meta.media.0.codec.pix_fmt">yuv422p10le</property>
  <property name="meta.media.0.codec.sample_aspect_ratio">0</property>
  <property name="meta.media.0.codec.colorspace">709</property>
  <property name="meta.media.0.codec.color_trc">1</property>
  <property name="meta.media.0.codec.name">dnxhd</property>
  <property name="meta.media.0.codec.long_name">VC3/DNxHD</property>
  <property name="meta.media.0.codec.bit_rate">176160768</property>
  <property name="meta.attr.0.stream.language.markup">eng</property>
  <property name="meta.attr.0.stream.handler_name.markup">Core Media Data Handler</property>
  <property name="meta.attr.0.stream.timecode.markup">02:16:34:01</property>
  <property name="meta.attr.major_brand.markup">qt  </property>
  <property name="meta.attr.minor_version.markup">512</property>
  <property name="meta.attr.compatible_brands.markup">qt  </property>
  <property name="meta.attr.encoder.markup">Lavf57.25.100</property>
  <property name="meta.media.sample_aspect_num">1</property>
  <property name="meta.media.sample_aspect_den">1</property>
  <property name="meta.media.frame_rate_num">24</property>
  <property name="meta.media.frame_rate_den">1</property>
  <property name="meta.media.colorspace">709</property>
  <property name="meta.media.color_trc">1</property>
  <property name="meta.media.width">1920</property>
  <property name="meta.media.height">1080</property>
  <property name="meta.media.top_field_first">0</property>
  <property name="meta.media.progressive">1</property>
 </producer>
 <producer id="slowmotion:39:1,32:1:0" in="0" out="862">
  <property name="length">863</property>
  <property name="eof">pause</property>
  <property name="resource">1,32:/media/bordun/Odile/SnapshatAuHarem/etalo/CAM2_2017-11-25_0144_C0015.mov</property>
  <property name="aspect_ratio">1</property>
  <property name="meta.media.nb_streams">2</property>
  <property name="meta.media.0.stream.type">video</property>
  <property name="meta.media.0.stream.frame_rate">24</property>
  <property name="meta.media.0.stream.sample_aspect_ratio">1</property>
  <property name="meta.media.0.codec.width">1920</property>
  <property name="meta.media.0.codec.height">1080</property>
  <property name="meta.media.0.codec.rotate">0</property>
  <property name="meta.media.0.codec.frame_rate">12288</property>
  <property name="meta.media.0.codec.pix_fmt">yuv422p10le</property>
  <property name="meta.media.0.codec.sample_aspect_ratio">0</property>
  <property name="meta.media.0.codec.colorspace">709</property>
  <property name="meta.media.0.codec.color_trc">1</property>
  <property name="meta.media.0.codec.name">dnxhd</property>
  <property name="meta.media.0.codec.long_name">VC3/DNxHD</property>
  <property name="meta.media.0.codec.bit_rate">176160768</property>
  <property name="meta.attr.0.stream.language.markup">eng</property>
  <property name="meta.attr.0.stream.handler_name.markup">Core Media Data Handler</property>
  <property name="meta.attr.0.stream.timecode.markup">01:44:35:18</property>
  <property name="meta.attr.major_brand.markup">qt  </property>
  <property name="meta.attr.minor_version.markup">512</property>
  <property name="meta.attr.compatible_brands.markup">qt  </property>
  <property name="meta.attr.encoder.markup">Lavf57.25.100</property>
  <property name="seekable">1</property>
  <property name="meta.media.sample_aspect_num">1</property>
  <property name="meta.media.sample_aspect_den">1</property>
  <property name="audio_index">2</property>
  <property name="video_index">0</property>
  <property name="mute_on_pause">1</property>
  <property name="warp_speed">1,32</property>
  <property name="warp_resource">/media/bordun/Odile/SnapshatAuHarem/etalo/CAM2_2017-11-25_0144_C0015.mov</property>
  <property name="mlt_service">timewarp</property>
  <property name="meta.media.1.stream.type">video</property>
  <property name="meta.media.1.stream.frame_rate">24</property>
  <property name="meta.media.1.stream.sample_aspect_ratio">1</property>
  <property name="meta.media.1.codec.width">1920</property>
  <property name="meta.media.1.codec.height">1080</property>
  <property name="meta.media.1.codec.rotate">0</property>
  <property name="meta.media.1.codec.frame_rate">2400</property>
  <property name="meta.media.1.codec.pix_fmt">yuv422p10le</property>
  <property name="meta.media.1.codec.sample_aspect_ratio">0</property>
  <property name="meta.media.1.codec.colorspace">709</property>
  <property name="meta.media.1.codec.color_trc">1</property>
  <property name="meta.media.1.codec.name">prores</property>
  <property name="meta.media.1.codec.long_name">ProRes</property>
  <property name="meta.media.1.codec.bit_rate">176135647</property>
  <property name="meta.attr.1.stream.creation_time.markup">2017-11-25T01:44:35.000000Z</property>
  <property name="meta.attr.1.stream.language.markup">eng</property>
  <property name="meta.attr.1.stream.handler_name.markup">Apple Alias Data Handler</property>
  <property name="meta.attr.1.stream.encoder.markup">Apple ProRes 422 HQ</property>
  <property name="meta.attr.1.stream.timecode.markup">01:44:35:18</property>
  <property name="meta.media.2.stream.type">audio</property>
  <property name="meta.media.2.codec.sample_fmt">s32</property>
  <property name="meta.media.2.codec.sample_rate">48000</property>
  <property name="meta.media.2.codec.channels">2</property>
  <property name="meta.media.2.codec.name">pcm_s24le</property>
  <property name="meta.media.2.codec.long_name">PCM signed 24-bit little-endian</property>
  <property name="meta.media.2.codec.bit_rate">2304000</property>
  <property name="meta.attr.2.stream.creation_time.markup">2017-11-25T01:44:35.000000Z</property>
  <property name="meta.attr.2.stream.language.markup">eng</property>
  <property name="meta.attr.2.stream.handler_name.markup">Apple Alias Data Handler</property>
  <property name="meta.attr.2.stream.timecode.markup">01:44:35:18</property>
  <property name="meta.attr.com.apple.proapps.manufacturer.markup">Blackmagic Design</property>
  <property name="meta.attr.com.apple.proapps.cameraName.markup">CAM2</property>
  <property name="meta.attr.com.apple.proapps.isGood.markup">0</property>
  <property name="meta.attr.com.apple.proapps.customgamma.markup">com.blackmagic-design.cinemacamera.filmlog</property>
  <property name="meta.attr.com.blackmagic-design.cinemacamera.uuid.markup">18E5E00548F94923B646613A73C01B56</property>
  <property name="meta.attr.creation_time.markup">2017-11-25T01:44:35.000000Z</property>
  <property name="meta.attr.timecode.markup">01:44:35:18</property>
  <property name="meta.media.frame_rate_num">24</property>
  <property name="meta.media.frame_rate_den">1</property>
  <property name="meta.media.colorspace">709</property>
  <property name="meta.media.color_trc">1</property>
  <property name="meta.media.width">1920</property>
  <property name="meta.media.height">1080</property>
  <property name="meta.media.top_field_first">0</property>
  <property name="meta.media.progressive">1</property>
 </producer>
 <producer title="Anonymous Submission" id="30_playlist7" in="0" out="1766">
  <property name="length">00:01:13:15</property>
  <property name="eof">pause</property>
  <property name="resource">/media/bordun/Odile/SnapshatAuHarem/etalo/CAM2_2017-11-25_0212_C0024.mov</property>
  <property name="audio_index">2</property>
  <property name="video_index">0</property>
  <property name="mute_on_pause">1</property>
  <property name="mlt_service">avformat-novalidate</property>
  <property name="seekable">1</property>
  <property name="aspect_ratio">1</property>
  <property name="kdenlive:file_size">1642659481</property>
  <property name="kdenlive:file_hash">bafd76a9a491d96d85f6a22fdc57e3f6</property>
  <property name="global_feed">1</property>
  <property name="xml">was here</property>
  <property name="meta.media.nb_streams">2</property>
  <property name="meta.media.0.stream.type">video</property>
  <property name="meta.media.0.stream.frame_rate">24</property>
  <property name="meta.media.0.stream.sample_aspect_ratio">1</property>
  <property name="meta.media.0.codec.width">1920</property>
  <property name="meta.media.0.codec.height">1080</property>
  <property name="meta.media.0.codec.rotate">0</property>
  <property name="meta.media.0.codec.frame_rate">12288</property>
  <property name="meta.media.0.codec.pix_fmt">yuv422p10le</property>
  <property name="meta.media.0.codec.sample_aspect_ratio">0</property>
  <property name="meta.media.0.codec.colorspace">709</property>
  <property name="meta.media.0.codec.color_trc">1</property>
  <property name="meta.media.0.codec.name">dnxhd</property>
  <property name="meta.media.0.codec.long_name">VC3/DNxHD</property>
  <property name="meta.media.0.codec.bit_rate">176160768</property>
  <property name="meta.attr.0.stream.language.markup">eng</property>
  <property name="meta.attr.0.stream.handler_name.markup">Core Media Data Handler</property>
  <property name="meta.attr.0.stream.timecode.markup">02:12:48:12</property>
  <property name="meta.attr.major_brand.markup">qt  </property>
  <property name="meta.attr.minor_version.markup">512</property>
  <property name="meta.attr.compatible_brands.markup">qt  </property>
  <property name="meta.attr.encoder.markup">Lavf57.25.100</property>
  <property name="meta.media.sample_aspect_num">1</property>
  <property name="meta.media.sample_aspect_den">1</property>
  <property name="meta.media.frame_rate_num">24</property>
  <property name="meta.media.frame_rate_den">1</property>
  <property name="meta.media.colorspace">709</property>
  <property name="meta.media.color_trc">1</property>
  <property name="meta.media.width">1920</property>
  <property name="meta.media.height">1080</property>
  <property name="meta.media.top_field_first">0</property>
  <property name="meta.media.progressive">1</property>
 </producer>
 <playlist id="playlist7">
  <property name="kdenlive:track_name">Video 5</property>
  <blank length="4089"/>
  <entry producer="slowmotion:44:0,94:1:0" in="210" out="257"/>
  <blank length="11"/>
  <entry producer="44_playlist7" in="236" out="261"/>
  <entry producer="37_playlist7" in="1163" out="1180"/>
  <blank length="24"/>
  <entry producer="29_playlist7" in="1614" out="1614"/>
  <blank length="1"/>
  <entry producer="29_playlist7" in="1614" out="1614"/>
  <blank length="1"/>
  <entry producer="29_playlist7" in="1615" out="1615"/>
  <blank length="1"/>
  <entry producer="29_playlist7" in="1613" out="1629"/>
  <blank length="29"/>
  <entry producer="44_playlist7" in="437" out="471"/>
  <entry producer="slowmotion:39:1,32:1:0" in="678" out="727"/>
  <blank length="11"/>
  <entry producer="37_playlist7" in="1908" out="1973"/>
  <blank length="50"/>
  <entry producer="30_playlist7" in="1441" out="1522"/>
  <entry producer="30_playlist7" in="1523" out="1529">
   <filter id="frei0r.rgbsplit0r">
    <property name="version">0,1</property>
    <property name="mlt_service">frei0r.rgbsplit0r</property>
    <property name="kdenlive_id">frei0r.rgbsplit0r</property>
    <property name="tag">frei0r.rgbsplit0r</property>
    <property name="kdenlive_ix">1</property>
    <property name="0">0</property>
    <property name="1">0,088</property>
    <property name="kdenlive_info"/>
   </filter>
  </entry>
 </playlist>
 <producer title="Anonymous Submission" id="44_playlist4" in="0" out="861">
  <property name="length">00:00:35:22</property>
  <property name="eof">pause</property>
  <property name="resource">/media/bordun/Odile/SnapshatAuHarem/etalo/CAM2_2017-11-25_0136_C0010.mov</property>
  <property name="audio_index">2</property>
  <property name="video_index">0</property>
  <property name="mute_on_pause">1</property>
  <property name="mlt_service">avformat-novalidate</property>
  <property name="seekable">1</property>
  <property name="aspect_ratio">1</property>
  <property name="kdenlive:file_size">801347945</property>
  <property name="kdenlive:file_hash">d93236ebd49160c806fd2ecab0ea54e3</property>
  <property name="global_feed">1</property>
  <property name="xml">was here</property>
  <property name="meta.media.nb_streams">2</property>
  <property name="meta.media.0.stream.type">video</property>
  <property name="meta.media.0.stream.frame_rate">24</property>
  <property name="meta.media.0.stream.sample_aspect_ratio">1</property>
  <property name="meta.media.0.codec.width">1920</property>
  <property name="meta.media.0.codec.height">1080</property>
  <property name="meta.media.0.codec.rotate">0</property>
  <property name="meta.media.0.codec.frame_rate">12288</property>
  <property name="meta.media.0.codec.pix_fmt">yuv422p10le</property>
  <property name="meta.media.0.codec.sample_aspect_ratio">0</property>
  <property name="meta.media.0.codec.colorspace">709</property>
  <property name="meta.media.0.codec.color_trc">1</property>
  <property name="meta.media.0.codec.name">dnxhd</property>
  <property name="meta.media.0.codec.long_name">VC3/DNxHD</property>
  <property name="meta.media.0.codec.bit_rate">176160768</property>
  <property name="meta.attr.0.stream.language.markup">eng</property>
  <property name="meta.attr.0.stream.handler_name.markup">Core Media Data Handler</property>
  <property name="meta.attr.0.stream.timecode.markup">01:36:52:06</property>
  <property name="meta.attr.major_brand.markup">qt  </property>
  <property name="meta.attr.minor_version.markup">512</property>
  <property name="meta.attr.compatible_brands.markup">qt  </property>
  <property name="meta.attr.encoder.markup">Lavf57.25.100</property>
  <property name="meta.media.sample_aspect_num">1</property>
  <property name="meta.media.sample_aspect_den">1</property>
  <property name="meta.media.frame_rate_num">24</property>
  <property name="meta.media.frame_rate_den">1</property>
  <property name="meta.media.colorspace">709</property>
  <property name="meta.media.color_trc">1</property>
  <property name="meta.media.width">1920</property>
  <property name="meta.media.height">1080</property>
  <property name="meta.media.top_field_first">0</property>
  <property name="meta.media.progressive">1</property>
 </producer>
 <playlist id="playlist4">
  <property name="kdenlive:track_name">Video 2</property>
  <blank length="4885"/>
  <entry producer="44_playlist4" in="201" out="275"/>
  <filter id="filter8">
   <property name="channel">0</property>
   <property name="mlt_service">panner</property>
   <property name="kdenlive_id">audiopan</property>
   <property name="tag">panner</property>
   <property name="kdenlive_ix">1</property>
   <property name="kdenlive_info">0/-1/</property>
   <property name="disable">0</property>
   <property name="start">1</property>
  </filter>
 </playlist>
 <playlist id="playlist5">
  <property name="kdenlive:track_name">Vidéo 3</property>
  <property name="kdenlive:locked_track">0</property>
  <filter id="frei0r.rgbnoise">
   <property name="version">0,9</property>
   <property name="mlt_service">frei0r.rgbnoise</property>
   <property name="kdenlive_id">frei0r.rgbnoise</property>
   <property name="tag">frei0r.rgbnoise</property>
   <property name="kdenlive_ix">2</property>
   <property name="kdenlive_info">1/-1/</property>
   <property name="0">0,112</property>
   <property name="disable">1</property>
  </filter>
 </playlist>
 <producer title="Anonymous Submission" id="46_playlist8" in="0" out="3737">
  <property name="length">00:02:35:18</property>
  <property name="eof">pause</property>
  <property name="resource">/media/bordun/Odile/SnapshatAuHarem/etalo/CAM2_2017-11-25_0058_C0004.mov</property>
  <property name="audio_index">2</property>
  <property name="video_index">0</property>
  <property name="mute_on_pause">1</property>
  <property name="mlt_service">avformat-novalidate</property>
  <property name="seekable">1</property>
  <property name="aspect_ratio">1</property>
  <property name="kdenlive:file_size">3474956585</property>
  <property name="kdenlive:file_hash">ad22dd8a06e746adef0131909037660a</property>
  <property name="global_feed">1</property>
  <property name="xml">was here</property>
  <property name="meta.media.nb_streams">2</property>
  <property name="meta.media.1.stream.type">video</property>
  <property name="meta.media.1.stream.frame_rate">24</property>
  <property name="meta.media.1.stream.sample_aspect_ratio">1</property>
  <property name="meta.media.1.codec.width">1920</property>
  <property name="meta.media.1.codec.height">1080</property>
  <property name="meta.media.1.codec.rotate">0</property>
  <property name="meta.media.1.codec.frame_rate">2400</property>
  <property name="meta.media.1.codec.pix_fmt">yuv422p10le</property>
  <property name="meta.media.1.codec.sample_aspect_ratio">0</property>
  <property name="meta.media.1.codec.colorspace">709</property>
  <property name="meta.media.1.codec.color_trc">1</property>
  <property name="meta.media.1.codec.name">prores</property>
  <property name="meta.media.1.codec.long_name">ProRes</property>
  <property name="meta.media.1.codec.bit_rate">176138656</property>
  <property name="meta.attr.1.stream.creation_time.markup">2017-11-25T00:58:13.000000Z</property>
  <property name="meta.attr.1.stream.language.markup">eng</property>
  <property name="meta.attr.1.stream.handler_name.markup">Apple Alias Data Handler</property>
  <property name="meta.attr.1.stream.encoder.markup">Apple ProRes 422 HQ</property>
  <property name="meta.attr.1.stream.timecode.markup">00:58:13:00</property>
  <property name="meta.media.2.stream.type">audio</property>
  <property name="meta.media.2.codec.sample_fmt">s32</property>
  <property name="meta.media.2.codec.sample_rate">48000</property>
  <property name="meta.media.2.codec.channels">2</property>
  <property name="meta.media.2.codec.name">pcm_s24le</property>
  <property name="meta.media.2.codec.long_name">PCM signed 24-bit little-endian</property>
  <property name="meta.media.2.codec.bit_rate">2304000</property>
  <property name="meta.attr.2.stream.creation_time.markup">2017-11-25T00:58:13.000000Z</property>
  <property name="meta.attr.2.stream.language.markup">eng</property>
  <property name="meta.attr.2.stream.handler_name.markup">Apple Alias Data Handler</property>
  <property name="meta.attr.2.stream.timecode.markup">00:58:13:00</property>
  <property name="meta.attr.com.apple.proapps.manufacturer.markup">Blackmagic Design</property>
  <property name="meta.attr.com.apple.proapps.cameraName.markup">CAM2</property>
  <property name="meta.attr.com.apple.proapps.isGood.markup">0</property>
  <property name="meta.attr.com.apple.proapps.customgamma.markup">com.blackmagic-design.cinemacamera.filmlog</property>
  <property name="meta.attr.com.blackmagic-design.cinemacamera.uuid.markup">18E5E00548F94923B646613A73C01B56</property>
  <property name="meta.attr.creation_time.markup">2017-11-25T00:58:13.000000Z</property>
  <property name="meta.attr.timecode.markup">00:58:13:00</property>
  <property name="meta.media.sample_aspect_num">1</property>
  <property name="meta.media.sample_aspect_den">1</property>
  <property name="meta.media.frame_rate_num">24</property>
  <property name="meta.media.frame_rate_den">1</property>
  <property name="meta.media.colorspace">709</property>
  <property name="meta.media.color_trc">1</property>
  <property name="meta.media.width">1920</property>
  <property name="meta.media.height">1080</property>
  <property name="meta.media.top_field_first">0</property>
  <property name="meta.media.progressive">1</property>
  <property name="meta.media.0.stream.type">video</property>
  <property name="meta.media.0.stream.frame_rate">24</property>
  <property name="meta.media.0.stream.sample_aspect_ratio">1</property>
  <property name="meta.media.0.codec.width">1920</property>
  <property name="meta.media.0.codec.height">1080</property>
  <property name="meta.media.0.codec.rotate">0</property>
  <property name="meta.media.0.codec.frame_rate">12288</property>
  <property name="meta.media.0.codec.pix_fmt">yuv422p10le</property>
  <property name="meta.media.0.codec.sample_aspect_ratio">0</property>
  <property name="meta.media.0.codec.colorspace">709</property>
  <property name="meta.media.0.codec.color_trc">1</property>
  <property name="meta.media.0.codec.name">dnxhd</property>
  <property name="meta.media.0.codec.long_name">VC3/DNxHD</property>
  <property name="meta.media.0.codec.bit_rate">176160768</property>
  <property name="meta.attr.0.stream.language.markup">eng</property>
  <property name="meta.attr.0.stream.handler_name.markup">Core Media Data Handler</property>
  <property name="meta.attr.0.stream.timecode.markup">00:58:13:00</property>
  <property name="meta.attr.major_brand.markup">qt  </property>
  <property name="meta.attr.minor_version.markup">512</property>
  <property name="meta.attr.compatible_brands.markup">qt  </property>
  <property name="meta.attr.encoder.markup">Lavf57.25.100</property>
 </producer>
 <playlist id="playlist8">
  <property name="kdenlive:track_name">Video 6</property>
  <blank length="4063"/>
  <entry producer="46_playlist8" in="3238" out="3275"/>
  <blank length="137"/>
  <entry producer="46_playlist8" in="3349" out="3386">
   <filter id="pan_zoom" in="3349" out="3386">
    <property name="background">colour:0x00000000</property>
    <property name="mlt_service">affine</property>
    <property name="kdenlive_id">pan_zoom</property>
    <property name="tag">affine</property>
    <property name="kdenlive_ix">1</property>
    <property name="transition.geometry">-48/-27:2017x1134:100</property>
    <property name="transition.distort">0</property>
    <property name="kdenlive:sync_in_out">1</property>
    <property name="kdenlive_info"/>
    <property name="disable"/>
   </filter>
  </entry>
  <blank length="203"/>
  <entry producer="46_playlist8" in="3509" out="3560"/>
  <filter id="filter13">
   <property name="delta">11</property>
   <property name="every">100</property>
   <property name="brightnessdelta_up">0</property>
   <property name="brightnessdelta_down">0</property>
   <property name="brightnessdelta_every">100</property>
   <property name="unevendevelop_up">0</property>
   <property name="unevendevelop_down">0</property>
   <property name="unevendevelop_duration">0</property>
   <property name="mlt_service">oldfilm</property>
   <property name="kdenlive_id">oldfilm</property>
   <property name="tag">oldfilm</property>
   <property name="kdenlive_ix">1</property>
   <property name="kdenlive_info">0/-1/</property>
   <property name="disable">1</property>
  </filter>
  <filter id="filter14" out="4530">
   <property name="background">colour:0x00000000</property>
   <property name="mlt_service">affine</property>
   <property name="kdenlive_id">pan_zoom</property>
   <property name="tag">affine</property>
   <property name="kdenlive_ix">2</property>
   <property name="kdenlive:sync_in_out">1</property>
   <property name="kdenlive_info">0/-1/</property>
   <property name="transition.geometry">-96/-54:2112x1188:100</property>
   <property name="transition.distort">0</property>
   <property name="disable">1</property>
  </filter>
 </playlist>
 <producer title="Anonymous Submission" id="46_playlist6" in="0" out="3737">
  <property name="length">00:02:35:18</property>
  <property name="eof">pause</property>
  <property name="resource">/media/bordun/Odile/SnapshatAuHarem/etalo/CAM2_2017-11-25_0058_C0004.mov</property>
  <property name="audio_index">2</property>
  <property name="video_index">0</property>
  <property name="mute_on_pause">1</property>
  <property name="mlt_service">avformat-novalidate</property>
  <property name="seekable">1</property>
  <property name="aspect_ratio">1</property>
  <property name="kdenlive:file_size">3474956585</property>
  <property name="kdenlive:file_hash">ad22dd8a06e746adef0131909037660a</property>
  <property name="global_feed">1</property>
  <property name="xml">was here</property>
  <property name="meta.media.nb_streams">2</property>
  <property name="meta.media.0.stream.type">video</property>
  <property name="meta.media.0.stream.frame_rate">24</property>
  <property name="meta.media.0.stream.sample_aspect_ratio">1</property>
  <property name="meta.media.0.codec.width">1920</property>
  <property name="meta.media.0.codec.height">1080</property>
  <property name="meta.media.0.codec.rotate">0</property>
  <property name="meta.media.0.codec.frame_rate">12288</property>
  <property name="meta.media.0.codec.pix_fmt">yuv422p10le</property>
  <property name="meta.media.0.codec.sample_aspect_ratio">0</property>
  <property name="meta.media.0.codec.colorspace">709</property>
  <property name="meta.media.0.codec.color_trc">1</property>
  <property name="meta.media.0.codec.name">dnxhd</property>
  <property name="meta.media.0.codec.long_name">VC3/DNxHD</property>
  <property name="meta.media.0.codec.bit_rate">176160768</property>
  <property name="meta.attr.0.stream.language.markup">eng</property>
  <property name="meta.attr.0.stream.handler_name.markup">Core Media Data Handler</property>
  <property name="meta.attr.0.stream.timecode.markup">00:58:13:00</property>
  <property name="meta.attr.major_brand.markup">qt  </property>
  <property name="meta.attr.minor_version.markup">512</property>
  <property name="meta.attr.compatible_brands.markup">qt  </property>
  <property name="meta.attr.encoder.markup">Lavf57.25.100</property>
  <property name="meta.media.sample_aspect_num">1</property>
  <property name="meta.media.sample_aspect_den">1</property>
  <property name="meta.media.frame_rate_num">24</property>
  <property name="meta.media.frame_rate_den">1</property>
  <property name="meta.media.colorspace">709</property>
  <property name="meta.media.color_trc">1</property>
  <property name="meta.media.width">1920</property>
  <property name="meta.media.height">1080</property>
  <property name="meta.media.top_field_first">0</property>
  <property name="meta.media.progressive">1</property>
 </producer>
 <playlist id="playlist6">
  <property name="kdenlive:track_name">Video 4</property>
  <blank length="4239"/>
  <entry producer="46_playlist6" in="3350" out="3350"/>
  <blank length="31"/>
  <entry producer="46_playlist6" in="3382" out="3382"/>
  <filter id="filter19">
   <property name="channel">0</property>
   <property name="mlt_service">panner</property>
   <property name="kdenlive_id">audiopan</property>
   <property name="tag">panner</property>
   <property name="kdenlive_ix">1</property>
   <property name="kdenlive_info">0/-1/</property>
   <property name="disable">0</property>
   <property name="start">0</property>
  </filter>
 </playlist>
 <producer title="Anonymous Submission" id="48_playlist13" in="0" out="5556">
  <property name="length">00:03:51:13</property>
  <property name="eof">pause</property>
  <property name="resource">/media/bordun/Odile/SnapshatAuHarem/etalo/CAM2_2017-11-25_0328_C0001.mov</property>
  <property name="audio_index">2</property>
  <property name="video_index">0</property>
  <property name="mute_on_pause">1</property>
  <property name="mlt_service">avformat-novalidate</property>
  <property name="seekable">1</property>
  <property name="aspect_ratio">1</property>
  <property name="kdenlive:file_size">5165952393</property>
  <property name="kdenlive:file_hash">3ba1af2b61c3f49ace504e0c5761963b</property>
  <property name="global_feed">1</property>
  <property name="xml">was here</property>
  <property name="meta.media.nb_streams">2</property>
  <property name="meta.media.1.stream.type">video</property>
  <property name="meta.media.1.stream.frame_rate">24</property>
  <property name="meta.media.1.stream.sample_aspect_ratio">1</property>
  <property name="meta.media.1.codec.width">1920</property>
  <property name="meta.media.1.codec.height">1080</property>
  <property name="meta.media.1.codec.rotate">0</property>
  <property name="meta.media.1.codec.frame_rate">2400</property>
  <property name="meta.media.1.codec.pix_fmt">yuv422p10le</property>
  <property name="meta.media.1.codec.sample_aspect_ratio">0</property>
  <property name="meta.media.1.codec.colorspace">709</property>
  <property name="meta.media.1.codec.color_trc">1</property>
  <property name="meta.media.1.codec.name">prores</property>
  <property name="meta.media.1.codec.long_name">ProRes</property>
  <property name="meta.media.1.codec.bit_rate">176140198</property>
  <property name="meta.attr.1.stream.creation_time.markup">2017-11-25T03:28:42.000000Z</property>
  <property name="meta.attr.1.stream.language.markup">eng</property>
  <property name="meta.attr.1.stream.handler_name.markup">Apple Alias Data Handler</property>
  <property name="meta.attr.1.stream.encoder.markup">Apple ProRes 422 HQ</property>
  <property name="meta.attr.1.stream.timecode.markup">03:28:42:12</property>
  <property name="meta.media.2.stream.type">audio</property>
  <property name="meta.media.2.codec.sample_fmt">s32</property>
  <property name="meta.media.2.codec.sample_rate">48000</property>
  <property name="meta.media.2.codec.channels">2</property>
  <property name="meta.media.2.codec.name">pcm_s24le</property>
  <property name="meta.media.2.codec.long_name">PCM signed 24-bit little-endian</property>
  <property name="meta.media.2.codec.bit_rate">2304000</property>
  <property name="meta.attr.2.stream.creation_time.markup">2017-11-25T03:28:42.000000Z</property>
  <property name="meta.attr.2.stream.language.markup">eng</property>
  <property name="meta.attr.2.stream.handler_name.markup">Apple Alias Data Handler</property>
  <property name="meta.attr.2.stream.timecode.markup">03:28:42:12</property>
  <property name="meta.attr.com.apple.proapps.manufacturer.markup">Blackmagic Design</property>
  <property name="meta.attr.com.apple.proapps.cameraName.markup">CAM2</property>
  <property name="meta.attr.com.apple.proapps.isGood.markup">0</property>
  <property name="meta.attr.com.apple.proapps.customgamma.markup">com.blackmagic-design.cinemacamera.filmlog</property>
  <property name="meta.attr.com.blackmagic-design.cinemacamera.uuid.markup">18E5E00548F94923B646613A73C01B56</property>
  <property name="meta.attr.creation_time.markup">2017-11-25T03:28:42.000000Z</property>
  <property name="meta.attr.timecode.markup">03:28:42:12</property>
  <property name="meta.media.sample_aspect_num">1</property>
  <property name="meta.media.sample_aspect_den">1</property>
  <property name="meta.media.frame_rate_num">24</property>
  <property name="meta.media.frame_rate_den">1</property>
  <property name="meta.media.colorspace">709</property>
  <property name="meta.media.color_trc">1</property>
  <property name="meta.media.width">1920</property>
  <property name="meta.media.height">1080</property>
  <property name="meta.media.top_field_first">0</property>
  <property name="meta.media.progressive">1</property>
  <property name="meta.media.0.stream.type">video</property>
  <property name="meta.media.0.stream.frame_rate">24</property>
  <property name="meta.media.0.stream.sample_aspect_ratio">1</property>
  <property name="meta.media.0.codec.width">1920</property>
  <property name="meta.media.0.codec.height">1080</property>
  <property name="meta.media.0.codec.rotate">0</property>
  <property name="meta.media.0.codec.frame_rate">12288</property>
  <property name="meta.media.0.codec.pix_fmt">yuv422p10le</property>
  <property name="meta.media.0.codec.sample_aspect_ratio">0</property>
  <property name="meta.media.0.codec.colorspace">709</property>
  <property name="meta.media.0.codec.color_trc">1</property>
  <property name="meta.media.0.codec.name">dnxhd</property>
  <property name="meta.media.0.codec.long_name">VC3/DNxHD</property>
  <property name="meta.media.0.codec.bit_rate">176160768</property>
  <property name="meta.attr.0.stream.language.markup">eng</property>
  <property name="meta.attr.0.stream.handler_name.markup">Core Media Data Handler</property>
  <property name="meta.attr.0.stream.timecode.markup">03:28:42:12</property>
  <property name="meta.attr.major_brand.markup">qt  </property>
  <property name="meta.attr.minor_version.markup">512</property>
  <property name="meta.attr.compatible_brands.markup">qt  </property>
  <property name="meta.attr.encoder.markup">Lavf57.25.100</property>
 </producer>
 <playlist id="playlist13">
  <property name="kdenlive:track_name">Vidéo 4</property>
  <blank length="4347"/>
  <entry producer="48_playlist13" in="4932" out="4983"/>
  <entry producer="48_playlist13" in="4984" out="4985"/>
  <entry producer="48_playlist13" in="4986" out="4997"/>
  <blank length="13"/>
  <entry producer="48_playlist13" in="2034" out="2086"/>
  <blank length="26"/>
  <entry producer="48_playlist13" in="2098" out="2123"/>
  <filter id="frei0r.levels">
   <property name="version">0,3</property>
   <property name="mlt_service">frei0r.levels</property>
   <property name="kdenlive_id">frei0r.levels</property>
   <property name="tag">frei0r.levels</property>
   <property name="kdenlive_ix">1</property>
   <property name="kdenlive_info"/>
   <property name="Channel">0,3</property>
   <property name="Input black level">0=0</property>
   <property name="Input white level">0=1</property>
   <property name="Gamma">0=0,35275</property>
   <property name="Black output">0=0</property>
   <property name="White output">0=0,843</property>
   <property name="Show histogram">0</property>
   <property name="Histogram position">0,3</property>
   <property name="disable">0</property>
  </filter>
 </playlist>
 <producer title="Anonymous Submission" id="47_playlist9" in="0" out="8682">
  <property name="length">00:06:01:19</property>
  <property name="eof">pause</property>
  <property name="resource">/media/bordun/Odile/SnapshatAuHarem/etalo/CAM2_2017-11-25_0259_C0026.mov</property>
  <property name="audio_index">2</property>
  <property name="video_index">0</property>
  <property name="mute_on_pause">1</property>
  <property name="mlt_service">avformat-novalidate</property>
  <property name="seekable">1</property>
  <property name="aspect_ratio">1</property>
  <property name="kdenlive:file_size">8071965081</property>
  <property name="kdenlive:file_hash">e1c8b5f517a3e32ed2e1ed0cc0e684bd</property>
  <property name="global_feed">1</property>
  <property name="xml">was here</property>
  <property name="meta.media.nb_streams">2</property>
  <property name="meta.media.1.stream.type">video</property>
  <property name="meta.media.1.stream.frame_rate">24</property>
  <property name="meta.media.1.stream.sample_aspect_ratio">1</property>
  <property name="meta.media.1.codec.width">1920</property>
  <property name="meta.media.1.codec.height">1080</property>
  <property name="meta.media.1.codec.rotate">0</property>
  <property name="meta.media.1.codec.frame_rate">2400</property>
  <property name="meta.media.1.codec.pix_fmt">yuv422p10le</property>
  <property name="meta.media.1.codec.sample_aspect_ratio">0</property>
  <property name="meta.media.1.codec.colorspace">709</property>
  <property name="meta.media.1.codec.color_trc">1</property>
  <property name="meta.media.1.codec.name">prores</property>
  <property name="meta.media.1.codec.long_name">ProRes</property>
  <property name="meta.media.1.codec.bit_rate">176142178</property>
  <property name="meta.attr.1.stream.creation_time.markup">2017-11-25T02:59:56.000000Z</property>
  <property name="meta.attr.1.stream.language.markup">eng</property>
  <property name="meta.attr.1.stream.handler_name.markup">Apple Alias Data Handler</property>
  <property name="meta.attr.1.stream.encoder.markup">Apple ProRes 422 HQ</property>
  <property name="meta.attr.1.stream.timecode.markup">02:59:56:09</property>
  <property name="meta.media.2.stream.type">audio</property>
  <property name="meta.media.2.codec.sample_fmt">s32</property>
  <property name="meta.media.2.codec.sample_rate">48000</property>
  <property name="meta.media.2.codec.channels">2</property>
  <property name="meta.media.2.codec.name">pcm_s24le</property>
  <property name="meta.media.2.codec.long_name">PCM signed 24-bit little-endian</property>
  <property name="meta.media.2.codec.bit_rate">2304000</property>
  <property name="meta.attr.2.stream.creation_time.markup">2017-11-25T02:59:56.000000Z</property>
  <property name="meta.attr.2.stream.language.markup">eng</property>
  <property name="meta.attr.2.stream.handler_name.markup">Apple Alias Data Handler</property>
  <property name="meta.attr.2.stream.timecode.markup">02:59:56:09</property>
  <property name="meta.attr.com.apple.proapps.manufacturer.markup">Blackmagic Design</property>
  <property name="meta.attr.com.apple.proapps.cameraName.markup">CAM2</property>
  <property name="meta.attr.com.apple.proapps.isGood.markup">0</property>
  <property name="meta.attr.com.apple.proapps.customgamma.markup">com.blackmagic-design.cinemacamera.filmlog</property>
  <property name="meta.attr.com.blackmagic-design.cinemacamera.uuid.markup">18E5E00548F94923B646613A73C01B56</property>
  <property name="meta.attr.creation_time.markup">2017-11-25T02:59:56.000000Z</property>
  <property name="meta.attr.timecode.markup">02:59:56:09</property>
  <property name="meta.media.sample_aspect_num">1</property>
  <property name="meta.media.sample_aspect_den">1</property>
  <property name="meta.media.frame_rate_num">24</property>
  <property name="meta.media.frame_rate_den">1</property>
  <property name="meta.media.colorspace">709</property>
  <property name="meta.media.color_trc">1</property>
  <property name="meta.media.width">1920</property>
  <property name="meta.media.height">1080</property>
  <property name="meta.media.top_field_first">0</property>
  <property name="meta.media.progressive">1</property>
  <property name="meta.media.0.stream.type">video</property>
  <property name="meta.media.0.stream.frame_rate">24</property>
  <property name="meta.media.0.stream.sample_aspect_ratio">1</property>
  <property name="meta.media.0.codec.width">1920</property>
  <property name="meta.media.0.codec.height">1080</property>
  <property name="meta.media.0.codec.rotate">0</property>
  <property name="meta.media.0.codec.frame_rate">12288</property>
  <property name="meta.media.0.codec.pix_fmt">yuv422p10le</property>
  <property name="meta.media.0.codec.sample_aspect_ratio">0</property>
  <property name="meta.media.0.codec.colorspace">709</property>
  <property name="meta.media.0.codec.color_trc">1</property>
  <property name="meta.media.0.codec.name">dnxhd</property>
  <property name="meta.media.0.codec.long_name">VC3/DNxHD</property>
  <property name="meta.media.0.codec.bit_rate">176160768</property>
  <property name="meta.attr.0.stream.language.markup">eng</property>
  <property name="meta.attr.0.stream.handler_name.markup">Core Media Data Handler</property>
  <property name="meta.attr.0.stream.timecode.markup">02:59:56:09</property>
  <property name="meta.attr.major_brand.markup">qt  </property>
  <property name="meta.attr.minor_version.markup">512</property>
  <property name="meta.attr.compatible_brands.markup">qt  </property>
  <property name="meta.attr.encoder.markup">Lavf57.25.100</property>
 </producer>
 <producer id="slowmotion:47:0,5:1:0" in="0" out="17365">
  <property name="length">17366</property>
  <property name="eof">pause</property>
  <property name="resource">0,5:/media/bordun/Odile/SnapshatAuHarem/etalo/CAM2_2017-11-25_0259_C0026.mov</property>
  <property name="aspect_ratio">1</property>
  <property name="meta.media.nb_streams">2</property>
  <property name="meta.media.0.stream.type">video</property>
  <property name="meta.media.0.stream.frame_rate">24</property>
  <property name="meta.media.0.stream.sample_aspect_ratio">1</property>
  <property name="meta.media.0.codec.width">1920</property>
  <property name="meta.media.0.codec.height">1080</property>
  <property name="meta.media.0.codec.rotate">0</property>
  <property name="meta.media.0.codec.frame_rate">12288</property>
  <property name="meta.media.0.codec.pix_fmt">yuv422p10le</property>
  <property name="meta.media.0.codec.sample_aspect_ratio">0</property>
  <property name="meta.media.0.codec.colorspace">709</property>
  <property name="meta.media.0.codec.color_trc">1</property>
  <property name="meta.media.0.codec.name">dnxhd</property>
  <property name="meta.media.0.codec.long_name">VC3/DNxHD</property>
  <property name="meta.media.0.codec.bit_rate">176160768</property>
  <property name="meta.attr.0.stream.language.markup">eng</property>
  <property name="meta.attr.0.stream.handler_name.markup">Core Media Data Handler</property>
  <property name="meta.attr.0.stream.timecode.markup">02:59:56:09</property>
  <property name="meta.attr.major_brand.markup">qt  </property>
  <property name="meta.attr.minor_version.markup">512</property>
  <property name="meta.attr.compatible_brands.markup">qt  </property>
  <property name="meta.attr.encoder.markup">Lavf57.25.100</property>
  <property name="seekable">1</property>
  <property name="meta.media.sample_aspect_num">1</property>
  <property name="meta.media.sample_aspect_den">1</property>
  <property name="audio_index">2</property>
  <property name="video_index">0</property>
  <property name="mute_on_pause">1</property>
  <property name="warp_speed">0,5</property>
  <property name="warp_resource">/media/bordun/Odile/SnapshatAuHarem/etalo/CAM2_2017-11-25_0259_C0026.mov</property>
  <property name="mlt_service">timewarp</property>
  <property name="meta.media.1.stream.type">video</property>
  <property name="meta.media.1.stream.frame_rate">24</property>
  <property name="meta.media.1.stream.sample_aspect_ratio">1</property>
  <property name="meta.media.1.codec.width">1920</property>
  <property name="meta.media.1.codec.height">1080</property>
  <property name="meta.media.1.codec.rotate">0</property>
  <property name="meta.media.1.codec.frame_rate">2400</property>
  <property name="meta.media.1.codec.pix_fmt">yuv422p10le</property>
  <property name="meta.media.1.codec.sample_aspect_ratio">0</property>
  <property name="meta.media.1.codec.colorspace">709</property>
  <property name="meta.media.1.codec.color_trc">1</property>
  <property name="meta.media.1.codec.name">prores</property>
  <property name="meta.media.1.codec.long_name">ProRes</property>
  <property name="meta.media.1.codec.bit_rate">176142178</property>
  <property name="meta.attr.1.stream.creation_time.markup">2017-11-25T02:59:56.000000Z</property>
  <property name="meta.attr.1.stream.language.markup">eng</property>
  <property name="meta.attr.1.stream.handler_name.markup">Apple Alias Data Handler</property>
  <property name="meta.attr.1.stream.encoder.markup">Apple ProRes 422 HQ</property>
  <property name="meta.attr.1.stream.timecode.markup">02:59:56:09</property>
  <property name="meta.media.2.stream.type">audio</property>
  <property name="meta.media.2.codec.sample_fmt">s32</property>
  <property name="meta.media.2.codec.sample_rate">48000</property>
  <property name="meta.media.2.codec.channels">2</property>
  <property name="meta.media.2.codec.name">pcm_s24le</property>
  <property name="meta.media.2.codec.long_name">PCM signed 24-bit little-endian</property>
  <property name="meta.media.2.codec.bit_rate">2304000</property>
  <property name="meta.attr.2.stream.creation_time.markup">2017-11-25T02:59:56.000000Z</property>
  <property name="meta.attr.2.stream.language.markup">eng</property>
  <property name="meta.attr.2.stream.handler_name.markup">Apple Alias Data Handler</property>
  <property name="meta.attr.2.stream.timecode.markup">02:59:56:09</property>
  <property name="meta.attr.com.apple.proapps.manufacturer.markup">Blackmagic Design</property>
  <property name="meta.attr.com.apple.proapps.cameraName.markup">CAM2</property>
  <property name="meta.attr.com.apple.proapps.isGood.markup">0</property>
  <property name="meta.attr.com.apple.proapps.customgamma.markup">com.blackmagic-design.cinemacamera.filmlog</property>
  <property name="meta.attr.com.blackmagic-design.cinemacamera.uuid.markup">18E5E00548F94923B646613A73C01B56</property>
  <property name="meta.attr.creation_time.markup">2017-11-25T02:59:56.000000Z</property>
  <property name="meta.attr.timecode.markup">02:59:56:09</property>
  <property name="meta.media.frame_rate_num">24</property>
  <property name="meta.media.frame_rate_den">1</property>
  <property name="meta.media.colorspace">709</property>
  <property name="meta.media.color_trc">1</property>
  <property name="meta.media.width">1920</property>
  <property name="meta.media.height">1080</property>
  <property name="meta.media.top_field_first">0</property>
  <property name="meta.media.progressive">1</property>
 </producer>
 <playlist id="playlist9">
  <property name="kdenlive:track_name">Video 7</property>
  <blank length="4127"/>
  <entry producer="47_playlist9" in="5326" out="5356"/>
  <blank length="180"/>
  <entry producer="47_playlist9" in="5504" out="5533"/>
  <blank length="45"/>
  <entry producer="47_playlist9" in="7271" out="7305"/>
  <blank length="116"/>
  <entry producer="slowmotion:47:0,5:1:0" in="15052" out="15159"/>
 </playlist>
 <playlist id="playlist12">
  <property name="kdenlive:track_name">Vidéo 1</property>
  <filter id="filter34">
   <property name="channel">0</property>
   <property name="mlt_service">panner</property>
   <property name="kdenlive_id">audiopan</property>
   <property name="tag">panner</property>
   <property name="kdenlive_ix">1</property>
   <property name="kdenlive_info">0/-1/</property>
   <property name="disable">0</property>
   <property name="start">0</property>
  </filter>
 </playlist>
 <producer title="Anonymous Submission" id="47_playlist11" in="0" out="8682">
  <property name="length">00:06:01:19</property>
  <property name="eof">pause</property>
  <property name="resource">/media/bordun/Odile/SnapshatAuHarem/etalo/CAM2_2017-11-25_0259_C0026.mov</property>
  <property name="audio_index">2</property>
  <property name="video_index">0</property>
  <property name="mute_on_pause">1</property>
  <property name="mlt_service">avformat-novalidate</property>
  <property name="seekable">1</property>
  <property name="aspect_ratio">1</property>
  <property name="kdenlive:file_size">8071965081</property>
  <property name="kdenlive:file_hash">e1c8b5f517a3e32ed2e1ed0cc0e684bd</property>
  <property name="global_feed">1</property>
  <property name="xml">was here</property>
  <property name="meta.media.nb_streams">3</property>
  <property name="meta.media.1.stream.type">video</property>
  <property name="meta.media.1.stream.frame_rate">24</property>
  <property name="meta.media.1.stream.sample_aspect_ratio">1</property>
  <property name="meta.media.1.codec.width">1920</property>
  <property name="meta.media.1.codec.height">1080</property>
  <property name="meta.media.1.codec.rotate">0</property>
  <property name="meta.media.1.codec.frame_rate">2400</property>
  <property name="meta.media.1.codec.pix_fmt">yuv422p10le</property>
  <property name="meta.media.1.codec.sample_aspect_ratio">0</property>
  <property name="meta.media.1.codec.colorspace">709</property>
  <property name="meta.media.1.codec.color_trc">1</property>
  <property name="meta.media.1.codec.name">prores</property>
  <property name="meta.media.1.codec.long_name">ProRes</property>
  <property name="meta.media.1.codec.bit_rate">176142178</property>
  <property name="meta.attr.1.stream.creation_time.markup">2017-11-25T02:59:56.000000Z</property>
  <property name="meta.attr.1.stream.language.markup">eng</property>
  <property name="meta.attr.1.stream.handler_name.markup">Apple Alias Data Handler</property>
  <property name="meta.attr.1.stream.encoder.markup">Apple ProRes 422 HQ</property>
  <property name="meta.attr.1.stream.timecode.markup">02:59:56:09</property>
  <property name="meta.media.2.stream.type">audio</property>
  <property name="meta.media.2.codec.sample_fmt">s32</property>
  <property name="meta.media.2.codec.sample_rate">48000</property>
  <property name="meta.media.2.codec.channels">2</property>
  <property name="meta.media.2.codec.name">pcm_s24le</property>
  <property name="meta.media.2.codec.long_name">PCM signed 24-bit little-endian</property>
  <property name="meta.media.2.codec.bit_rate">2304000</property>
  <property name="meta.attr.2.stream.creation_time.markup">2017-11-25T02:59:56.000000Z</property>
  <property name="meta.attr.2.stream.language.markup">eng</property>
  <property name="meta.attr.2.stream.handler_name.markup">Apple Alias Data Handler</property>
  <property name="meta.attr.2.stream.timecode.markup">02:59:56:09</property>
  <property name="meta.attr.com.apple.proapps.manufacturer.markup">Blackmagic Design</property>
  <property name="meta.attr.com.apple.proapps.cameraName.markup">CAM2</property>
  <property name="meta.attr.com.apple.proapps.isGood.markup">0</property>
  <property name="meta.attr.com.apple.proapps.customgamma.markup">com.blackmagic-design.cinemacamera.filmlog</property>
  <property name="meta.attr.com.blackmagic-design.cinemacamera.uuid.markup">18E5E00548F94923B646613A73C01B56</property>
  <property name="meta.attr.creation_time.markup">2017-11-25T02:59:56.000000Z</property>
  <property name="meta.attr.timecode.markup">02:59:56:09</property>
  <property name="meta.media.sample_aspect_num">1</property>
  <property name="meta.media.sample_aspect_den">1</property>
  <property name="meta.media.frame_rate_num">24</property>
  <property name="meta.media.frame_rate_den">1</property>
  <property name="meta.media.colorspace">709</property>
  <property name="meta.media.color_trc">1</property>
  <property name="meta.media.width">1920</property>
  <property name="meta.media.height">1080</property>
  <property name="meta.media.top_field_first">0</property>
  <property name="meta.media.progressive">1</property>
 </producer>
 <playlist id="playlist11">
  <property name="kdenlive:track_name">Vidéo 2</property>
  <blank length="2971"/>
  <entry producer="47_playlist11" in="1664" out="1680"/>
  <entry producer="47_playlist11" in="1681" out="1865"/>
 </playlist>
 <playlist id="playlist0">
  <property name="kdenlive:track_name">noir</property>
  <filter id="filter35">
   <property name="channel">0</property>
   <property name="mlt_service">panner</property>
   <property name="kdenlive_id">audiopan</property>
   <property name="tag">panner</property>
   <property name="kdenlive_ix">1</property>
   <property name="kdenlive_info">0/-1/</property>
   <property name="disable">0</property>
   <property name="start">0</property>
  </filter>
 </playlist>
 <tractor title="Anonymous Submission" id="maintractor" global_feed="1" in="0" out="5728">
  <track producer="black_track"/>
  <track hide="video" producer="playlist1"/>
  <track hide="video" producer="playlist2"/>
  <track hide="audio" producer="playlist10"/>
  <track hide="audio" producer="playlist7"/>
  <track hide="audio" producer="playlist4"/>
  <track hide="audio" producer="playlist5"/>
  <track hide="audio" producer="playlist8"/>
  <track hide="audio" producer="playlist6"/>
  <track hide="audio" producer="playlist13"/>
  <track hide="audio" producer="playlist9"/>
  <track hide="audio" producer="playlist12"/>
  <track hide="audio" producer="playlist11"/>
  <track hide="audio" producer="playlist0"/>
  <transition id="transition0">
   <property name="a_track">0</property>
   <property name="b_track">1</property>
   <property name="mlt_service">mix</property>
   <property name="always_active">1</property>
   <property name="sum">1</property>
   <property name="internal_added">237</property>
  </transition>
  <transition id="transition1">
   <property name="a_track">0</property>
   <property name="b_track">2</property>
   <property name="mlt_service">mix</property>
   <property name="always_active">1</property>
   <property name="sum">1</property>
   <property name="internal_added">237</property>
  </transition>
  <transition id="transition2">
   <property name="a_track">0</property>
   <property name="b_track">3</property>
   <property name="mlt_service">mix</property>
   <property name="always_active">1</property>
   <property name="sum">1</property>
   <property name="internal_added">237</property>
  </transition>
  <transition id="transition3">
   <property name="a_track">0</property>
   <property name="b_track">4</property>
   <property name="mlt_service">mix</property>
   <property name="always_active">1</property>
   <property name="sum">1</property>
   <property name="internal_added">237</property>
  </transition>
  <transition id="transition4">
   <property name="a_track">0</property>
   <property name="b_track">5</property>
   <property name="mlt_service">mix</property>
   <property name="always_active">1</property>
   <property name="sum">1</property>
   <property name="internal_added">237</property>
  </transition>
  <transition id="transition5">
   <property name="a_track">0</property>
   <property name="b_track">6</property>
   <property name="mlt_service">mix</property>
   <property name="always_active">1</property>
   <property name="sum">1</property>
   <property name="internal_added">237</property>
  </transition>
  <transition id="transition6">
   <property name="a_track">0</property>
   <property name="b_track">7</property>
   <property name="mlt_service">mix</property>
   <property name="always_active">1</property>
   <property name="sum">1</property>
   <property name="internal_added">237</property>
  </transition>
  <transition id="transition7">
   <property name="a_track">0</property>
   <property name="b_track">8</property>
   <property name="mlt_service">mix</property>
   <property name="always_active">1</property>
   <property name="sum">1</property>
   <property name="internal_added">237</property>
  </transition>
  <transition id="transition8">
   <property name="a_track">0</property>
   <property name="b_track">9</property>
   <property name="mlt_service">mix</property>
   <property name="always_active">1</property>
   <property name="sum">1</property>
   <property name="internal_added">237</property>
  </transition>
  <transition id="transition9">
   <property name="a_track">0</property>
   <property name="b_track">10</property>
   <property name="mlt_service">mix</property>
   <property name="always_active">1</property>
   <property name="sum">1</property>
   <property name="internal_added">237</property>
  </transition>
  <transition id="transition10">
   <property name="a_track">0</property>
   <property name="b_track">11</property>
   <property name="mlt_service">mix</property>
   <property name="always_active">1</property>
   <property name="sum">1</property>
   <property name="internal_added">237</property>
  </transition>
  <transition id="transition11">
   <property name="a_track">0</property>
   <property name="b_track">12</property>
   <property name="mlt_service">mix</property>
   <property name="always_active">1</property>
   <property name="sum">1</property>
   <property name="internal_added">237</property>
  </transition>
  <transition id="transition12">
   <property name="a_track">0</property>
   <property name="b_track">13</property>
   <property name="mlt_service">mix</property>
   <property name="always_active">1</property>
   <property name="sum">1</property>
   <property name="internal_added">237</property>
  </transition>
 </tractor>
</mlt>
