<?xml version='1.0' encoding='utf-8'?>
<mlt title="Anonymous Submission" LC_NUMERIC="fr_FR.UTF-8" producer="main bin" version="6.12.0" root="/home/bordun/Clip01_SnapshatAuHarem/Video">
 <profile frame_rate_num="24" sample_aspect_num="1" display_aspect_den="9" colorspace="709" progressive="1" description="HD 1080p 24 fps" display_aspect_num="16" frame_rate_den="1" width="1920" height="1080" sample_aspect_den="1"/>
 <producer title="Anonymous Submission" id="1" in="0" out="4287">
  <property name="length">00:02:58:16</property>
  <property name="eof">pause</property>
  <property name="resource">/home/bordun/Clip01_SnapshatAuHarem/Audio/Snapchat_au_Harem.flac</property>
  <property name="audio_index">0</property>
  <property name="video_index">-1</property>
  <property name="mute_on_pause">1</property>
  <property name="mlt_service">avformat-novalidate</property>
  <property name="meta.media.nb_streams">1</property>
  <property name="meta.media.0.stream.type">audio</property>
  <property name="meta.media.0.codec.sample_fmt">s16</property>
  <property name="meta.media.0.codec.sample_rate">48000</property>
  <property name="meta.media.0.codec.channels">2</property>
  <property name="meta.media.0.codec.name">flac</property>
  <property name="meta.media.0.codec.long_name">FLAC (Free Lossless Audio Codec)</property>
  <property name="meta.media.0.codec.bit_rate">0</property>
  <property name="seekable">1</property>
  <property name="kdenlive:folderid">-1</property>
  <property name="kdenlive:file_size">16614188</property>
  <property name="kdenlive:file_hash">115a31e39ebfe7c973cc2dc7b9f7cbf8</property>
  <property name="global_feed">1</property>
 </producer>
 <producer title="Anonymous Submission" id="23" in="0" out="4106">
  <property name="length">00:02:51:03</property>
  <property name="eof">pause</property>
  <property name="resource">/media/bordun/Odile/SnapshatAuHarem/etalo/CAM2_2017-11-24_1117_C0001.mov</property>
  <property name="audio_index">2</property>
  <property name="video_index">0</property>
  <property name="mute_on_pause">1</property>
  <property name="mlt_service">avformat-novalidate</property>
  <property name="meta.media.nb_streams">2</property>
  <property name="meta.media.1.stream.type">video</property>
  <property name="meta.media.1.stream.frame_rate">24</property>
  <property name="meta.media.1.stream.sample_aspect_ratio">1</property>
  <property name="meta.media.1.codec.width">1920</property>
  <property name="meta.media.1.codec.height">1080</property>
  <property name="meta.media.1.codec.rotate">0</property>
  <property name="meta.media.1.codec.frame_rate">2400</property>
  <property name="meta.media.1.codec.pix_fmt">yuv422p10le</property>
  <property name="meta.media.1.codec.sample_aspect_ratio">0</property>
  <property name="meta.media.1.codec.colorspace">709</property>
  <property name="meta.media.1.codec.color_trc">1</property>
  <property name="meta.media.1.codec.name">prores</property>
  <property name="meta.media.1.codec.long_name">ProRes</property>
  <property name="meta.media.1.codec.bit_rate">176139791</property>
  <property name="meta.attr.1.stream.creation_time.markup">2017-11-24T11:17:56.000000Z</property>
  <property name="meta.attr.1.stream.language.markup">eng</property>
  <property name="meta.attr.1.stream.handler_name.markup">Apple Alias Data Handler</property>
  <property name="meta.attr.1.stream.encoder.markup">Apple ProRes 422 HQ</property>
  <property name="meta.attr.1.stream.timecode.markup">11:17:56:09</property>
  <property name="meta.media.2.stream.type">audio</property>
  <property name="meta.media.2.codec.sample_fmt">s32</property>
  <property name="meta.media.2.codec.sample_rate">48000</property>
  <property name="meta.media.2.codec.channels">2</property>
  <property name="meta.media.2.codec.name">pcm_s24le</property>
  <property name="meta.media.2.codec.long_name">PCM signed 24-bit little-endian</property>
  <property name="meta.media.2.codec.bit_rate">2304000</property>
  <property name="meta.attr.2.stream.creation_time.markup">2017-11-24T11:17:56.000000Z</property>
  <property name="meta.attr.2.stream.language.markup">eng</property>
  <property name="meta.attr.2.stream.handler_name.markup">Apple Alias Data Handler</property>
  <property name="meta.attr.2.stream.timecode.markup">11:17:56:09</property>
  <property name="meta.attr.com.apple.proapps.manufacturer.markup">Blackmagic Design</property>
  <property name="meta.attr.com.apple.proapps.cameraName.markup">CAM2</property>
  <property name="meta.attr.com.apple.proapps.isGood.markup">0</property>
  <property name="meta.attr.com.apple.proapps.customgamma.markup">com.blackmagic-design.cinemacamera.filmlog</property>
  <property name="meta.attr.com.blackmagic-design.cinemacamera.uuid.markup">18E5E00548F94923B646613A73C01B56</property>
  <property name="meta.attr.creation_time.markup">2017-11-24T11:17:56.000000Z</property>
  <property name="meta.attr.timecode.markup">11:17:56:09</property>
  <property name="seekable">1</property>
  <property name="meta.media.sample_aspect_num">1</property>
  <property name="meta.media.sample_aspect_den">1</property>
  <property name="aspect_ratio">1</property>
  <property name="kdenlive:folderid">-1</property>
  <property name="meta.media.frame_rate_num">24</property>
  <property name="meta.media.frame_rate_den">1</property>
  <property name="meta.media.colorspace">709</property>
  <property name="meta.media.color_trc">1</property>
  <property name="meta.media.width">1920</property>
  <property name="meta.media.height">1080</property>
  <property name="meta.media.top_field_first">0</property>
  <property name="meta.media.progressive">1</property>
  <property name="kdenlive:file_size">3817991081</property>
  <property name="kdenlive:file_hash">e89f437a6cab322b45877ac37506466d</property>
  <property name="kdenlive:proxy">-</property>
  <property name="proxy_out">4106</property>
  <property name="kdenlive:originalurl">src/TheWholeRushes/Samedi_soir/CAM2_2017-11-24_1117_C0001.mov</property>
  <property name="meta.media.0.stream.type">video</property>
  <property name="meta.media.0.stream.frame_rate">24</property>
  <property name="meta.media.0.stream.sample_aspect_ratio">1</property>
  <property name="meta.media.0.codec.width">1920</property>
  <property name="meta.media.0.codec.height">1080</property>
  <property name="meta.media.0.codec.rotate">0</property>
  <property name="meta.media.0.codec.frame_rate">12288</property>
  <property name="meta.media.0.codec.pix_fmt">yuv422p10le</property>
  <property name="meta.media.0.codec.sample_aspect_ratio">0</property>
  <property name="meta.media.0.codec.colorspace">709</property>
  <property name="meta.media.0.codec.color_trc">1</property>
  <property name="meta.media.0.codec.name">dnxhd</property>
  <property name="meta.media.0.codec.long_name">VC3/DNxHD</property>
  <property name="meta.media.0.codec.bit_rate">176160768</property>
  <property name="meta.attr.0.stream.language.markup">eng</property>
  <property name="meta.attr.0.stream.handler_name.markup">Core Media Data Handler</property>
  <property name="meta.attr.0.stream.timecode.markup">11:17:56:09</property>
  <property name="meta.attr.major_brand.markup">qt  </property>
  <property name="meta.attr.minor_version.markup">512</property>
  <property name="meta.attr.compatible_brands.markup">qt  </property>
  <property name="meta.attr.encoder.markup">Lavf57.25.100</property>
  <property name="global_feed">1</property>
 </producer>
 <producer title="Anonymous Submission" id="26" in="0" out="3990">
  <property name="length">00:02:46:07</property>
  <property name="eof">pause</property>
  <property name="resource">/media/bordun/Odile/SnapshatAuHarem/etalo/CAM2_2017-11-24_1159_C0004.mov</property>
  <property name="audio_index">2</property>
  <property name="video_index">0</property>
  <property name="mute_on_pause">1</property>
  <property name="mlt_service">avformat-novalidate</property>
  <property name="meta.media.nb_streams">2</property>
  <property name="meta.media.1.stream.type">video</property>
  <property name="meta.media.1.stream.frame_rate">24</property>
  <property name="meta.media.1.stream.sample_aspect_ratio">1</property>
  <property name="meta.media.1.codec.width">1920</property>
  <property name="meta.media.1.codec.height">1080</property>
  <property name="meta.media.1.codec.rotate">0</property>
  <property name="meta.media.1.codec.frame_rate">2400</property>
  <property name="meta.media.1.codec.pix_fmt">yuv422p10le</property>
  <property name="meta.media.1.codec.sample_aspect_ratio">0</property>
  <property name="meta.media.1.codec.colorspace">709</property>
  <property name="meta.media.1.codec.color_trc">1</property>
  <property name="meta.media.1.codec.name">prores</property>
  <property name="meta.media.1.codec.long_name">ProRes</property>
  <property name="meta.media.1.codec.bit_rate">176138200</property>
  <property name="meta.attr.1.stream.creation_time.markup">2017-11-24T11:59:05.000000Z</property>
  <property name="meta.attr.1.stream.language.markup">eng</property>
  <property name="meta.attr.1.stream.handler_name.markup">Apple Alias Data Handler</property>
  <property name="meta.attr.1.stream.encoder.markup">Apple ProRes 422 HQ</property>
  <property name="meta.attr.1.stream.timecode.markup">11:59:05:16</property>
  <property name="meta.media.2.stream.type">audio</property>
  <property name="meta.media.2.codec.sample_fmt">s32</property>
  <property name="meta.media.2.codec.sample_rate">48000</property>
  <property name="meta.media.2.codec.channels">2</property>
  <property name="meta.media.2.codec.name">pcm_s24le</property>
  <property name="meta.media.2.codec.long_name">PCM signed 24-bit little-endian</property>
  <property name="meta.media.2.codec.bit_rate">2304000</property>
  <property name="meta.attr.2.stream.creation_time.markup">2017-11-24T11:59:05.000000Z</property>
  <property name="meta.attr.2.stream.language.markup">eng</property>
  <property name="meta.attr.2.stream.handler_name.markup">Apple Alias Data Handler</property>
  <property name="meta.attr.2.stream.timecode.markup">11:59:05:16</property>
  <property name="meta.attr.com.apple.proapps.manufacturer.markup">Blackmagic Design</property>
  <property name="meta.attr.com.apple.proapps.cameraName.markup">CAM2</property>
  <property name="meta.attr.com.apple.proapps.isGood.markup">0</property>
  <property name="meta.attr.com.apple.proapps.customgamma.markup">com.blackmagic-design.cinemacamera.filmlog</property>
  <property name="meta.attr.com.blackmagic-design.cinemacamera.uuid.markup">18E5E00548F94923B646613A73C01B56</property>
  <property name="meta.attr.creation_time.markup">2017-11-24T11:59:05.000000Z</property>
  <property name="meta.attr.timecode.markup">11:59:05:16</property>
  <property name="seekable">1</property>
  <property name="meta.media.sample_aspect_num">1</property>
  <property name="meta.media.sample_aspect_den">1</property>
  <property name="aspect_ratio">1</property>
  <property name="kdenlive:folderid">-1</property>
  <property name="meta.media.frame_rate_num">24</property>
  <property name="meta.media.frame_rate_den">1</property>
  <property name="meta.media.colorspace">709</property>
  <property name="meta.media.color_trc">1</property>
  <property name="meta.media.width">1920</property>
  <property name="meta.media.height">1080</property>
  <property name="meta.media.top_field_first">0</property>
  <property name="meta.media.progressive">1</property>
  <property name="kdenlive:file_size">3710154625</property>
  <property name="kdenlive:file_hash">3d1df8552dba09e5893e2cafd5c87ab2</property>
  <property name="kdenlive:proxy">-</property>
  <property name="proxy_out">3990</property>
  <property name="kdenlive:originalurl">src/TheWholeRushes/Samedi_soir/CAM2_2017-11-24_1159_C0004.mov</property>
  <property name="global_feed">1</property>
  <property name="meta.media.0.stream.type">video</property>
  <property name="meta.media.0.stream.frame_rate">24</property>
  <property name="meta.media.0.stream.sample_aspect_ratio">1</property>
  <property name="meta.media.0.codec.width">1920</property>
  <property name="meta.media.0.codec.height">1080</property>
  <property name="meta.media.0.codec.rotate">0</property>
  <property name="meta.media.0.codec.frame_rate">12288</property>
  <property name="meta.media.0.codec.pix_fmt">yuv422p10le</property>
  <property name="meta.media.0.codec.sample_aspect_ratio">0</property>
  <property name="meta.media.0.codec.colorspace">709</property>
  <property name="meta.media.0.codec.color_trc">1</property>
  <property name="meta.media.0.codec.name">dnxhd</property>
  <property name="meta.media.0.codec.long_name">VC3/DNxHD</property>
  <property name="meta.media.0.codec.bit_rate">176160768</property>
  <property name="meta.attr.0.stream.language.markup">eng</property>
  <property name="meta.attr.0.stream.handler_name.markup">Core Media Data Handler</property>
  <property name="meta.attr.0.stream.timecode.markup">11:59:05:16</property>
  <property name="meta.attr.major_brand.markup">qt  </property>
  <property name="meta.attr.minor_version.markup">512</property>
  <property name="meta.attr.compatible_brands.markup">qt  </property>
  <property name="meta.attr.encoder.markup">Lavf57.25.100</property>
 </producer>
 <producer title="Anonymous Submission" id="21" in="0" out="3033">
  <property name="length">00:02:06:10</property>
  <property name="eof">pause</property>
  <property name="resource">/media/bordun/Odile/SnapshatAuHarem/etalo/CAM2_2017-11-24_1208_C0005.mov</property>
  <property name="audio_index">2</property>
  <property name="video_index">0</property>
  <property name="mute_on_pause">1</property>
  <property name="mlt_service">avformat-novalidate</property>
  <property name="meta.media.nb_streams">2</property>
  <property name="meta.media.1.stream.type">video</property>
  <property name="meta.media.1.stream.frame_rate">24</property>
  <property name="meta.media.1.stream.sample_aspect_ratio">1</property>
  <property name="meta.media.1.codec.width">1920</property>
  <property name="meta.media.1.codec.height">1080</property>
  <property name="meta.media.1.codec.rotate">0</property>
  <property name="meta.media.1.codec.frame_rate">2400</property>
  <property name="meta.media.1.codec.pix_fmt">yuv422p10le</property>
  <property name="meta.media.1.codec.sample_aspect_ratio">0</property>
  <property name="meta.media.1.codec.colorspace">709</property>
  <property name="meta.media.1.codec.color_trc">1</property>
  <property name="meta.media.1.codec.name">prores</property>
  <property name="meta.media.1.codec.long_name">ProRes</property>
  <property name="meta.media.1.codec.bit_rate">176138297</property>
  <property name="meta.attr.1.stream.creation_time.markup">2017-11-24T12:08:53.000000Z</property>
  <property name="meta.attr.1.stream.language.markup">eng</property>
  <property name="meta.attr.1.stream.handler_name.markup">Apple Alias Data Handler</property>
  <property name="meta.attr.1.stream.encoder.markup">Apple ProRes 422 HQ</property>
  <property name="meta.attr.1.stream.timecode.markup">12:08:53:19</property>
  <property name="meta.media.2.stream.type">audio</property>
  <property name="meta.media.2.codec.sample_fmt">s32</property>
  <property name="meta.media.2.codec.sample_rate">48000</property>
  <property name="meta.media.2.codec.channels">2</property>
  <property name="meta.media.2.codec.name">pcm_s24le</property>
  <property name="meta.media.2.codec.long_name">PCM signed 24-bit little-endian</property>
  <property name="meta.media.2.codec.bit_rate">2304000</property>
  <property name="meta.attr.2.stream.creation_time.markup">2017-11-24T12:08:53.000000Z</property>
  <property name="meta.attr.2.stream.language.markup">eng</property>
  <property name="meta.attr.2.stream.handler_name.markup">Apple Alias Data Handler</property>
  <property name="meta.attr.2.stream.timecode.markup">12:08:53:19</property>
  <property name="meta.attr.com.apple.proapps.manufacturer.markup">Blackmagic Design</property>
  <property name="meta.attr.com.apple.proapps.cameraName.markup">CAM2</property>
  <property name="meta.attr.com.apple.proapps.isGood.markup">0</property>
  <property name="meta.attr.com.apple.proapps.customgamma.markup">com.blackmagic-design.cinemacamera.filmlog</property>
  <property name="meta.attr.com.blackmagic-design.cinemacamera.uuid.markup">18E5E00548F94923B646613A73C01B56</property>
  <property name="meta.attr.creation_time.markup">2017-11-24T12:08:53.000000Z</property>
  <property name="meta.attr.timecode.markup">12:08:53:19</property>
  <property name="seekable">1</property>
  <property name="meta.media.sample_aspect_num">1</property>
  <property name="meta.media.sample_aspect_den">1</property>
  <property name="aspect_ratio">1</property>
  <property name="kdenlive:folderid">-1</property>
  <property name="kdenlive:file_size">2820501057</property>
  <property name="kdenlive:file_hash">305214fc03958c6bab5f7b3a3ad15a92</property>
  <property name="kdenlive:proxy">-</property>
  <property name="proxy_out">3033</property>
  <property name="kdenlive:originalurl">src/TheWholeRushes/Samedi_soir/CAM2_2017-11-24_1208_C0005.mov</property>
  <property name="global_feed">1</property>
  <property name="kdenlive:meta.media.nb_streams">3</property>
  <property name="kdenlive:meta.media.1.stream.type">video</property>
  <property name="kdenlive:meta.media.1.stream.frame_rate">24</property>
  <property name="kdenlive:meta.media.1.stream.sample_aspect_ratio">1</property>
  <property name="kdenlive:meta.media.1.codec.width">1920</property>
  <property name="kdenlive:meta.media.1.codec.height">1080</property>
  <property name="kdenlive:meta.media.1.codec.rotate">0</property>
  <property name="kdenlive:meta.media.1.codec.frame_rate">2400</property>
  <property name="kdenlive:meta.media.1.codec.pix_fmt">yuv422p10le</property>
  <property name="kdenlive:meta.media.1.codec.sample_aspect_ratio">0</property>
  <property name="kdenlive:meta.media.1.codec.colorspace">709</property>
  <property name="kdenlive:meta.media.1.codec.color_trc">1</property>
  <property name="kdenlive:meta.media.1.codec.name">prores</property>
  <property name="kdenlive:meta.media.1.codec.long_name">ProRes</property>
  <property name="kdenlive:meta.media.1.codec.bit_rate">176138297</property>
  <property name="kdenlive:meta.attr.1.stream.creation_time.markup">2017-11-24T12:08:53.000000Z</property>
  <property name="kdenlive:meta.attr.1.stream.language.markup">eng</property>
  <property name="kdenlive:meta.attr.1.stream.handler_name.markup">Apple Alias Data Handler</property>
  <property name="kdenlive:meta.attr.1.stream.encoder.markup">Apple ProRes 422 HQ</property>
  <property name="kdenlive:meta.attr.1.stream.timecode.markup">12:08:53:19</property>
  <property name="kdenlive:meta.media.2.stream.type">audio</property>
  <property name="kdenlive:meta.media.2.codec.sample_fmt">s32</property>
  <property name="kdenlive:meta.media.2.codec.sample_rate">48000</property>
  <property name="kdenlive:meta.media.2.codec.channels">2</property>
  <property name="kdenlive:meta.media.2.codec.name">pcm_s24le</property>
  <property name="kdenlive:meta.media.2.codec.long_name">PCM signed 24-bit little-endian</property>
  <property name="kdenlive:meta.media.2.codec.bit_rate">2304000</property>
  <property name="kdenlive:meta.attr.2.stream.creation_time.markup">2017-11-24T12:08:53.000000Z</property>
  <property name="kdenlive:meta.attr.2.stream.language.markup">eng</property>
  <property name="kdenlive:meta.attr.2.stream.handler_name.markup">Apple Alias Data Handler</property>
  <property name="kdenlive:meta.attr.2.stream.timecode.markup">12:08:53:19</property>
  <property name="kdenlive:meta.attr.com.apple.proapps.manufacturer.markup">Blackmagic Design</property>
  <property name="kdenlive:meta.attr.com.apple.proapps.cameraName.markup">CAM2</property>
  <property name="kdenlive:meta.attr.com.apple.proapps.isGood.markup">0</property>
  <property name="kdenlive:meta.attr.com.apple.proapps.customgamma.markup">com.blackmagic-design.cinemacamera.filmlog</property>
  <property name="kdenlive:meta.attr.com.blackmagic-design.cinemacamera.uuid.markup">18E5E00548F94923B646613A73C01B56</property>
  <property name="kdenlive:meta.attr.creation_time.markup">2017-11-24T12:08:53.000000Z</property>
  <property name="kdenlive:meta.attr.timecode.markup">12:08:53:19</property>
  <property name="kdenlive:meta.media.sample_aspect_num">1</property>
  <property name="kdenlive:meta.media.sample_aspect_den">1</property>
  <property name="kdenlive:meta.media.frame_rate_num">24</property>
  <property name="kdenlive:meta.media.frame_rate_den">1</property>
  <property name="kdenlive:meta.media.colorspace">709</property>
  <property name="kdenlive:meta.media.color_trc">1</property>
  <property name="kdenlive:meta.media.width">1920</property>
  <property name="kdenlive:meta.media.height">1080</property>
  <property name="kdenlive:meta.media.top_field_first">0</property>
  <property name="kdenlive:meta.media.progressive">1</property>
  <property name="meta.media.frame_rate_num">24</property>
  <property name="meta.media.frame_rate_den">1</property>
  <property name="meta.media.colorspace">709</property>
  <property name="meta.media.color_trc">1</property>
  <property name="meta.media.width">1920</property>
  <property name="meta.media.height">1080</property>
  <property name="meta.media.top_field_first">0</property>
  <property name="meta.media.progressive">1</property>
  <property name="meta.media.0.stream.type">video</property>
  <property name="meta.media.0.stream.frame_rate">24</property>
  <property name="meta.media.0.stream.sample_aspect_ratio">1</property>
  <property name="meta.media.0.codec.width">1920</property>
  <property name="meta.media.0.codec.height">1080</property>
  <property name="meta.media.0.codec.rotate">0</property>
  <property name="meta.media.0.codec.frame_rate">12288</property>
  <property name="meta.media.0.codec.pix_fmt">yuv422p10le</property>
  <property name="meta.media.0.codec.sample_aspect_ratio">0</property>
  <property name="meta.media.0.codec.colorspace">709</property>
  <property name="meta.media.0.codec.color_trc">1</property>
  <property name="meta.media.0.codec.name">dnxhd</property>
  <property name="meta.media.0.codec.long_name">VC3/DNxHD</property>
  <property name="meta.media.0.codec.bit_rate">176160768</property>
  <property name="meta.attr.0.stream.language.markup">eng</property>
  <property name="meta.attr.0.stream.handler_name.markup">Core Media Data Handler</property>
  <property name="meta.attr.0.stream.timecode.markup">12:08:53:19</property>
  <property name="meta.attr.major_brand.markup">qt  </property>
  <property name="meta.attr.minor_version.markup">512</property>
  <property name="meta.attr.compatible_brands.markup">qt  </property>
  <property name="meta.attr.encoder.markup">Lavf57.25.100</property>
  <property name="kdenlive:zone_in">592</property>
  <property name="kdenlive:zone_out">2108</property>
 </producer>
 <producer title="Anonymous Submission" id="24" in="0" out="302">
  <property name="length">00:00:12:15</property>
  <property name="eof">pause</property>
  <property name="resource">/media/bordun/Odile/SnapshatAuHarem/etalo/CAM2_2017-11-24_1129_C0002.mov</property>
  <property name="audio_index">2</property>
  <property name="video_index">0</property>
  <property name="mute_on_pause">1</property>
  <property name="mlt_service">avformat-novalidate</property>
  <property name="meta.media.nb_streams">2</property>
  <property name="meta.media.1.stream.type">video</property>
  <property name="meta.media.1.stream.frame_rate">24</property>
  <property name="meta.media.1.stream.sample_aspect_ratio">1</property>
  <property name="meta.media.1.codec.width">1920</property>
  <property name="meta.media.1.codec.height">1080</property>
  <property name="meta.media.1.codec.rotate">0</property>
  <property name="meta.media.1.codec.frame_rate">2400</property>
  <property name="meta.media.1.codec.pix_fmt">yuv422p10le</property>
  <property name="meta.media.1.codec.sample_aspect_ratio">0</property>
  <property name="meta.media.1.codec.colorspace">709</property>
  <property name="meta.media.1.codec.color_trc">1</property>
  <property name="meta.media.1.codec.name">prores</property>
  <property name="meta.media.1.codec.long_name">ProRes</property>
  <property name="meta.media.1.codec.bit_rate">176139750</property>
  <property name="meta.attr.1.stream.creation_time.markup">2017-11-24T11:29:16.000000Z</property>
  <property name="meta.attr.1.stream.language.markup">eng</property>
  <property name="meta.attr.1.stream.handler_name.markup">Apple Alias Data Handler</property>
  <property name="meta.attr.1.stream.encoder.markup">Apple ProRes 422 HQ</property>
  <property name="meta.attr.1.stream.timecode.markup">11:29:16:10</property>
  <property name="meta.media.2.stream.type">audio</property>
  <property name="meta.media.2.codec.sample_fmt">s32</property>
  <property name="meta.media.2.codec.sample_rate">48000</property>
  <property name="meta.media.2.codec.channels">2</property>
  <property name="meta.media.2.codec.name">pcm_s24le</property>
  <property name="meta.media.2.codec.long_name">PCM signed 24-bit little-endian</property>
  <property name="meta.media.2.codec.bit_rate">2304000</property>
  <property name="meta.attr.2.stream.creation_time.markup">2017-11-24T11:29:16.000000Z</property>
  <property name="meta.attr.2.stream.language.markup">eng</property>
  <property name="meta.attr.2.stream.handler_name.markup">Apple Alias Data Handler</property>
  <property name="meta.attr.2.stream.timecode.markup">11:29:16:10</property>
  <property name="meta.attr.com.apple.proapps.manufacturer.markup">Blackmagic Design</property>
  <property name="meta.attr.com.apple.proapps.cameraName.markup">CAM2</property>
  <property name="meta.attr.com.apple.proapps.isGood.markup">0</property>
  <property name="meta.attr.com.apple.proapps.customgamma.markup">com.blackmagic-design.cinemacamera.filmlog</property>
  <property name="meta.attr.com.blackmagic-design.cinemacamera.uuid.markup">18E5E00548F94923B646613A73C01B56</property>
  <property name="meta.attr.creation_time.markup">2017-11-24T11:29:16.000000Z</property>
  <property name="meta.attr.timecode.markup">11:29:16:10</property>
  <property name="seekable">1</property>
  <property name="meta.media.sample_aspect_num">1</property>
  <property name="meta.media.sample_aspect_den">1</property>
  <property name="aspect_ratio">1</property>
  <property name="kdenlive:folderid">-1</property>
  <property name="kdenlive:file_size">281685169</property>
  <property name="kdenlive:file_hash">b85772cb708c51b6a69095edac5c83d9</property>
  <property name="kdenlive:proxy">-</property>
  <property name="proxy_out">302</property>
  <property name="kdenlive:originalurl">src/TheWholeRushes/Samedi_soir/CAM2_2017-11-24_1129_C0002.mov</property>
  <property name="global_feed">1</property>
  <property name="kdenlive:meta.media.nb_streams">3</property>
  <property name="kdenlive:meta.media.1.stream.type">video</property>
  <property name="kdenlive:meta.media.1.stream.frame_rate">24</property>
  <property name="kdenlive:meta.media.1.stream.sample_aspect_ratio">1</property>
  <property name="kdenlive:meta.media.1.codec.width">1920</property>
  <property name="kdenlive:meta.media.1.codec.height">1080</property>
  <property name="kdenlive:meta.media.1.codec.rotate">0</property>
  <property name="kdenlive:meta.media.1.codec.frame_rate">2400</property>
  <property name="kdenlive:meta.media.1.codec.pix_fmt">yuv422p10le</property>
  <property name="kdenlive:meta.media.1.codec.sample_aspect_ratio">0</property>
  <property name="kdenlive:meta.media.1.codec.colorspace">709</property>
  <property name="kdenlive:meta.media.1.codec.color_trc">1</property>
  <property name="kdenlive:meta.media.1.codec.name">prores</property>
  <property name="kdenlive:meta.media.1.codec.long_name">ProRes</property>
  <property name="kdenlive:meta.media.1.codec.bit_rate">176139750</property>
  <property name="kdenlive:meta.attr.1.stream.creation_time.markup">2017-11-24T11:29:16.000000Z</property>
  <property name="kdenlive:meta.attr.1.stream.language.markup">eng</property>
  <property name="kdenlive:meta.attr.1.stream.handler_name.markup">Apple Alias Data Handler</property>
  <property name="kdenlive:meta.attr.1.stream.encoder.markup">Apple ProRes 422 HQ</property>
  <property name="kdenlive:meta.attr.1.stream.timecode.markup">11:29:16:10</property>
  <property name="kdenlive:meta.media.2.stream.type">audio</property>
  <property name="kdenlive:meta.media.2.codec.sample_fmt">s32</property>
  <property name="kdenlive:meta.media.2.codec.sample_rate">48000</property>
  <property name="kdenlive:meta.media.2.codec.channels">2</property>
  <property name="kdenlive:meta.media.2.codec.name">pcm_s24le</property>
  <property name="kdenlive:meta.media.2.codec.long_name">PCM signed 24-bit little-endian</property>
  <property name="kdenlive:meta.media.2.codec.bit_rate">2304000</property>
  <property name="kdenlive:meta.attr.2.stream.creation_time.markup">2017-11-24T11:29:16.000000Z</property>
  <property name="kdenlive:meta.attr.2.stream.language.markup">eng</property>
  <property name="kdenlive:meta.attr.2.stream.handler_name.markup">Apple Alias Data Handler</property>
  <property name="kdenlive:meta.attr.2.stream.timecode.markup">11:29:16:10</property>
  <property name="kdenlive:meta.attr.com.apple.proapps.manufacturer.markup">Blackmagic Design</property>
  <property name="kdenlive:meta.attr.com.apple.proapps.cameraName.markup">CAM2</property>
  <property name="kdenlive:meta.attr.com.apple.proapps.isGood.markup">0</property>
  <property name="kdenlive:meta.attr.com.apple.proapps.customgamma.markup">com.blackmagic-design.cinemacamera.filmlog</property>
  <property name="kdenlive:meta.attr.com.blackmagic-design.cinemacamera.uuid.markup">18E5E00548F94923B646613A73C01B56</property>
  <property name="kdenlive:meta.attr.creation_time.markup">2017-11-24T11:29:16.000000Z</property>
  <property name="kdenlive:meta.attr.timecode.markup">11:29:16:10</property>
  <property name="kdenlive:meta.media.sample_aspect_num">1</property>
  <property name="kdenlive:meta.media.sample_aspect_den">1</property>
  <property name="kdenlive:meta.media.frame_rate_num">24</property>
  <property name="kdenlive:meta.media.frame_rate_den">1</property>
  <property name="kdenlive:meta.media.colorspace">709</property>
  <property name="kdenlive:meta.media.color_trc">1</property>
  <property name="kdenlive:meta.media.width">1920</property>
  <property name="kdenlive:meta.media.height">1080</property>
  <property name="kdenlive:meta.media.top_field_first">0</property>
  <property name="kdenlive:meta.media.progressive">1</property>
  <property name="meta.media.frame_rate_num">24</property>
  <property name="meta.media.frame_rate_den">1</property>
  <property name="meta.media.colorspace">709</property>
  <property name="meta.media.color_trc">1</property>
  <property name="meta.media.width">1920</property>
  <property name="meta.media.height">1080</property>
  <property name="meta.media.top_field_first">0</property>
  <property name="meta.media.progressive">1</property>
  <property name="meta.media.0.stream.type">video</property>
  <property name="meta.media.0.stream.frame_rate">24</property>
  <property name="meta.media.0.stream.sample_aspect_ratio">1</property>
  <property name="meta.media.0.codec.width">1920</property>
  <property name="meta.media.0.codec.height">1080</property>
  <property name="meta.media.0.codec.rotate">0</property>
  <property name="meta.media.0.codec.frame_rate">12288</property>
  <property name="meta.media.0.codec.pix_fmt">yuv422p10le</property>
  <property name="meta.media.0.codec.sample_aspect_ratio">0</property>
  <property name="meta.media.0.codec.colorspace">709</property>
  <property name="meta.media.0.codec.color_trc">1</property>
  <property name="meta.media.0.codec.name">dnxhd</property>
  <property name="meta.media.0.codec.long_name">VC3/DNxHD</property>
  <property name="meta.media.0.codec.bit_rate">176160768</property>
  <property name="meta.attr.0.stream.language.markup">eng</property>
  <property name="meta.attr.0.stream.handler_name.markup">Core Media Data Handler</property>
  <property name="meta.attr.0.stream.timecode.markup">11:29:16:10</property>
  <property name="meta.attr.major_brand.markup">qt  </property>
  <property name="meta.attr.minor_version.markup">512</property>
  <property name="meta.attr.compatible_brands.markup">qt  </property>
  <property name="meta.attr.encoder.markup">Lavf57.25.100</property>
 </producer>
 <producer title="Anonymous Submission" id="22" in="0" out="2601">
  <property name="length">00:01:48:10</property>
  <property name="eof">pause</property>
  <property name="resource">/media/bordun/Odile/SnapshatAuHarem/etalo/CAM2_2017-11-24_1108_C0000.mov</property>
  <property name="audio_index">2</property>
  <property name="video_index">0</property>
  <property name="mute_on_pause">1</property>
  <property name="mlt_service">avformat-novalidate</property>
  <property name="meta.media.nb_streams">2</property>
  <property name="meta.media.1.stream.type">video</property>
  <property name="meta.media.1.stream.frame_rate">24</property>
  <property name="meta.media.1.stream.sample_aspect_ratio">1</property>
  <property name="meta.media.1.codec.width">1920</property>
  <property name="meta.media.1.codec.height">1080</property>
  <property name="meta.media.1.codec.rotate">0</property>
  <property name="meta.media.1.codec.frame_rate">2400</property>
  <property name="meta.media.1.codec.pix_fmt">yuv422p10le</property>
  <property name="meta.media.1.codec.sample_aspect_ratio">0</property>
  <property name="meta.media.1.codec.colorspace">709</property>
  <property name="meta.media.1.codec.color_trc">1</property>
  <property name="meta.media.1.codec.name">prores</property>
  <property name="meta.media.1.codec.long_name">ProRes</property>
  <property name="meta.media.1.codec.bit_rate">176139058</property>
  <property name="meta.attr.1.stream.creation_time.markup">2017-11-24T11:08:29.000000Z</property>
  <property name="meta.attr.1.stream.language.markup">eng</property>
  <property name="meta.attr.1.stream.handler_name.markup">Apple Alias Data Handler</property>
  <property name="meta.attr.1.stream.encoder.markup">Apple ProRes 422 HQ</property>
  <property name="meta.attr.1.stream.timecode.markup">11:08:29:05</property>
  <property name="meta.media.2.stream.type">audio</property>
  <property name="meta.media.2.codec.sample_fmt">s32</property>
  <property name="meta.media.2.codec.sample_rate">48000</property>
  <property name="meta.media.2.codec.channels">2</property>
  <property name="meta.media.2.codec.name">pcm_s24le</property>
  <property name="meta.media.2.codec.long_name">PCM signed 24-bit little-endian</property>
  <property name="meta.media.2.codec.bit_rate">2304000</property>
  <property name="meta.attr.2.stream.creation_time.markup">2017-11-24T11:08:29.000000Z</property>
  <property name="meta.attr.2.stream.language.markup">eng</property>
  <property name="meta.attr.2.stream.handler_name.markup">Apple Alias Data Handler</property>
  <property name="meta.attr.2.stream.timecode.markup">11:08:29:05</property>
  <property name="meta.attr.com.apple.proapps.manufacturer.markup">Blackmagic Design</property>
  <property name="meta.attr.com.apple.proapps.cameraName.markup">CAM2</property>
  <property name="meta.attr.com.apple.proapps.isGood.markup">0</property>
  <property name="meta.attr.com.apple.proapps.customgamma.markup">com.blackmagic-design.cinemacamera.filmlog</property>
  <property name="meta.attr.com.blackmagic-design.cinemacamera.uuid.markup">18E5E00548F94923B646613A73C01B56</property>
  <property name="meta.attr.creation_time.markup">2017-11-24T11:08:29.000000Z</property>
  <property name="meta.attr.timecode.markup">11:08:29:05</property>
  <property name="seekable">1</property>
  <property name="meta.media.sample_aspect_num">1</property>
  <property name="meta.media.sample_aspect_den">1</property>
  <property name="aspect_ratio">1</property>
  <property name="kdenlive:folderid">-1</property>
  <property name="kdenlive:file_size">2418902449</property>
  <property name="kdenlive:file_hash">bdb0e206b0e425c9f782e42384568f7c</property>
  <property name="kdenlive:proxy">-</property>
  <property name="proxy_out">2601</property>
  <property name="kdenlive:originalurl">src/TheWholeRushes/Samedi_soir/CAM2_2017-11-24_1108_C0000.mov</property>
  <property name="global_feed">1</property>
  <property name="kdenlive:meta.media.nb_streams">3</property>
  <property name="kdenlive:meta.media.1.stream.type">video</property>
  <property name="kdenlive:meta.media.1.stream.frame_rate">24</property>
  <property name="kdenlive:meta.media.1.stream.sample_aspect_ratio">1</property>
  <property name="kdenlive:meta.media.1.codec.width">1920</property>
  <property name="kdenlive:meta.media.1.codec.height">1080</property>
  <property name="kdenlive:meta.media.1.codec.rotate">0</property>
  <property name="kdenlive:meta.media.1.codec.frame_rate">2400</property>
  <property name="kdenlive:meta.media.1.codec.pix_fmt">yuv422p10le</property>
  <property name="kdenlive:meta.media.1.codec.sample_aspect_ratio">0</property>
  <property name="kdenlive:meta.media.1.codec.colorspace">709</property>
  <property name="kdenlive:meta.media.1.codec.color_trc">1</property>
  <property name="kdenlive:meta.media.1.codec.name">prores</property>
  <property name="kdenlive:meta.media.1.codec.long_name">ProRes</property>
  <property name="kdenlive:meta.media.1.codec.bit_rate">176139058</property>
  <property name="kdenlive:meta.attr.1.stream.creation_time.markup">2017-11-24T11:08:29.000000Z</property>
  <property name="kdenlive:meta.attr.1.stream.language.markup">eng</property>
  <property name="kdenlive:meta.attr.1.stream.handler_name.markup">Apple Alias Data Handler</property>
  <property name="kdenlive:meta.attr.1.stream.encoder.markup">Apple ProRes 422 HQ</property>
  <property name="kdenlive:meta.attr.1.stream.timecode.markup">11:08:29:05</property>
  <property name="kdenlive:meta.media.2.stream.type">audio</property>
  <property name="kdenlive:meta.media.2.codec.sample_fmt">s32</property>
  <property name="kdenlive:meta.media.2.codec.sample_rate">48000</property>
  <property name="kdenlive:meta.media.2.codec.channels">2</property>
  <property name="kdenlive:meta.media.2.codec.name">pcm_s24le</property>
  <property name="kdenlive:meta.media.2.codec.long_name">PCM signed 24-bit little-endian</property>
  <property name="kdenlive:meta.media.2.codec.bit_rate">2304000</property>
  <property name="kdenlive:meta.attr.2.stream.creation_time.markup">2017-11-24T11:08:29.000000Z</property>
  <property name="kdenlive:meta.attr.2.stream.language.markup">eng</property>
  <property name="kdenlive:meta.attr.2.stream.handler_name.markup">Apple Alias Data Handler</property>
  <property name="kdenlive:meta.attr.2.stream.timecode.markup">11:08:29:05</property>
  <property name="kdenlive:meta.attr.com.apple.proapps.manufacturer.markup">Blackmagic Design</property>
  <property name="kdenlive:meta.attr.com.apple.proapps.cameraName.markup">CAM2</property>
  <property name="kdenlive:meta.attr.com.apple.proapps.isGood.markup">0</property>
  <property name="kdenlive:meta.attr.com.apple.proapps.customgamma.markup">com.blackmagic-design.cinemacamera.filmlog</property>
  <property name="kdenlive:meta.attr.com.blackmagic-design.cinemacamera.uuid.markup">18E5E00548F94923B646613A73C01B56</property>
  <property name="kdenlive:meta.attr.creation_time.markup">2017-11-24T11:08:29.000000Z</property>
  <property name="kdenlive:meta.attr.timecode.markup">11:08:29:05</property>
  <property name="kdenlive:meta.media.sample_aspect_num">1</property>
  <property name="kdenlive:meta.media.sample_aspect_den">1</property>
  <property name="kdenlive:meta.media.frame_rate_num">24</property>
  <property name="kdenlive:meta.media.frame_rate_den">1</property>
  <property name="kdenlive:meta.media.colorspace">709</property>
  <property name="kdenlive:meta.media.color_trc">1</property>
  <property name="kdenlive:meta.media.width">1920</property>
  <property name="kdenlive:meta.media.height">1080</property>
  <property name="kdenlive:meta.media.top_field_first">0</property>
  <property name="kdenlive:meta.media.progressive">1</property>
  <property name="meta.media.frame_rate_num">24</property>
  <property name="meta.media.frame_rate_den">1</property>
  <property name="meta.media.colorspace">709</property>
  <property name="meta.media.color_trc">1</property>
  <property name="meta.media.width">1920</property>
  <property name="meta.media.height">1080</property>
  <property name="meta.media.top_field_first">0</property>
  <property name="meta.media.progressive">1</property>
  <property name="meta.media.0.stream.type">video</property>
  <property name="meta.media.0.stream.frame_rate">24</property>
  <property name="meta.media.0.stream.sample_aspect_ratio">1</property>
  <property name="meta.media.0.codec.width">1920</property>
  <property name="meta.media.0.codec.height">1080</property>
  <property name="meta.media.0.codec.rotate">0</property>
  <property name="meta.media.0.codec.frame_rate">12288</property>
  <property name="meta.media.0.codec.pix_fmt">yuv422p10le</property>
  <property name="meta.media.0.codec.sample_aspect_ratio">0</property>
  <property name="meta.media.0.codec.colorspace">709</property>
  <property name="meta.media.0.codec.color_trc">1</property>
  <property name="meta.media.0.codec.name">dnxhd</property>
  <property name="meta.media.0.codec.long_name">VC3/DNxHD</property>
  <property name="meta.media.0.codec.bit_rate">176160768</property>
  <property name="meta.attr.0.stream.language.markup">eng</property>
  <property name="meta.attr.0.stream.handler_name.markup">Core Media Data Handler</property>
  <property name="meta.attr.0.stream.timecode.markup">11:08:29:05</property>
  <property name="meta.attr.major_brand.markup">qt  </property>
  <property name="meta.attr.minor_version.markup">512</property>
  <property name="meta.attr.compatible_brands.markup">qt  </property>
  <property name="meta.attr.encoder.markup">Lavf57.25.100</property>
 </producer>
 <producer title="Anonymous Submission" id="25" in="0" out="1815">
  <property name="length">00:01:15:16</property>
  <property name="eof">pause</property>
  <property name="resource">/media/bordun/Odile/SnapshatAuHarem/etalo/CAM2_2017-11-24_1130_C0003.mov</property>
  <property name="audio_index">2</property>
  <property name="video_index">0</property>
  <property name="mute_on_pause">1</property>
  <property name="mlt_service">avformat-novalidate</property>
  <property name="meta.media.nb_streams">2</property>
  <property name="meta.media.1.stream.type">video</property>
  <property name="meta.media.1.stream.frame_rate">24</property>
  <property name="meta.media.1.stream.sample_aspect_ratio">1</property>
  <property name="meta.media.1.codec.width">1920</property>
  <property name="meta.media.1.codec.height">1080</property>
  <property name="meta.media.1.codec.rotate">0</property>
  <property name="meta.media.1.codec.frame_rate">2400</property>
  <property name="meta.media.1.codec.pix_fmt">yuv422p10le</property>
  <property name="meta.media.1.codec.sample_aspect_ratio">0</property>
  <property name="meta.media.1.codec.colorspace">709</property>
  <property name="meta.media.1.codec.color_trc">1</property>
  <property name="meta.media.1.codec.name">prores</property>
  <property name="meta.media.1.codec.long_name">ProRes</property>
  <property name="meta.media.1.codec.bit_rate">176140125</property>
  <property name="meta.attr.1.stream.creation_time.markup">2017-11-24T11:30:24.000000Z</property>
  <property name="meta.attr.1.stream.language.markup">eng</property>
  <property name="meta.attr.1.stream.handler_name.markup">Apple Alias Data Handler</property>
  <property name="meta.attr.1.stream.encoder.markup">Apple ProRes 422 HQ</property>
  <property name="meta.attr.1.stream.timecode.markup">11:30:24:23</property>
  <property name="meta.media.2.stream.type">audio</property>
  <property name="meta.media.2.codec.sample_fmt">s32</property>
  <property name="meta.media.2.codec.sample_rate">48000</property>
  <property name="meta.media.2.codec.channels">2</property>
  <property name="meta.media.2.codec.name">pcm_s24le</property>
  <property name="meta.media.2.codec.long_name">PCM signed 24-bit little-endian</property>
  <property name="meta.media.2.codec.bit_rate">2304000</property>
  <property name="meta.attr.2.stream.creation_time.markup">2017-11-24T11:30:24.000000Z</property>
  <property name="meta.attr.2.stream.language.markup">eng</property>
  <property name="meta.attr.2.stream.handler_name.markup">Apple Alias Data Handler</property>
  <property name="meta.attr.2.stream.timecode.markup">11:30:24:23</property>
  <property name="meta.attr.com.apple.proapps.manufacturer.markup">Blackmagic Design</property>
  <property name="meta.attr.com.apple.proapps.cameraName.markup">CAM2</property>
  <property name="meta.attr.com.apple.proapps.isGood.markup">0</property>
  <property name="meta.attr.com.apple.proapps.customgamma.markup">com.blackmagic-design.cinemacamera.filmlog</property>
  <property name="meta.attr.com.blackmagic-design.cinemacamera.uuid.markup">18E5E00548F94923B646613A73C01B56</property>
  <property name="meta.attr.creation_time.markup">2017-11-24T11:30:24.000000Z</property>
  <property name="meta.attr.timecode.markup">11:30:24:23</property>
  <property name="seekable">1</property>
  <property name="meta.media.sample_aspect_num">1</property>
  <property name="meta.media.sample_aspect_den">1</property>
  <property name="aspect_ratio">1</property>
  <property name="kdenlive:folderid">-1</property>
  <property name="kdenlive:file_size">1688212137</property>
  <property name="kdenlive:file_hash">9e3b238311cbd7c98462643bd5208d2f</property>
  <property name="kdenlive:proxy">-</property>
  <property name="proxy_out">1815</property>
  <property name="kdenlive:originalurl">src/TheWholeRushes/Samedi_soir/CAM2_2017-11-24_1130_C0003.mov</property>
  <property name="global_feed">1</property>
  <property name="kdenlive:meta.media.nb_streams">3</property>
  <property name="kdenlive:meta.media.1.stream.type">video</property>
  <property name="kdenlive:meta.media.1.stream.frame_rate">24</property>
  <property name="kdenlive:meta.media.1.stream.sample_aspect_ratio">1</property>
  <property name="kdenlive:meta.media.1.codec.width">1920</property>
  <property name="kdenlive:meta.media.1.codec.height">1080</property>
  <property name="kdenlive:meta.media.1.codec.rotate">0</property>
  <property name="kdenlive:meta.media.1.codec.frame_rate">2400</property>
  <property name="kdenlive:meta.media.1.codec.pix_fmt">yuv422p10le</property>
  <property name="kdenlive:meta.media.1.codec.sample_aspect_ratio">0</property>
  <property name="kdenlive:meta.media.1.codec.colorspace">709</property>
  <property name="kdenlive:meta.media.1.codec.color_trc">1</property>
  <property name="kdenlive:meta.media.1.codec.name">prores</property>
  <property name="kdenlive:meta.media.1.codec.long_name">ProRes</property>
  <property name="kdenlive:meta.media.1.codec.bit_rate">176140125</property>
  <property name="kdenlive:meta.attr.1.stream.creation_time.markup">2017-11-24T11:30:24.000000Z</property>
  <property name="kdenlive:meta.attr.1.stream.language.markup">eng</property>
  <property name="kdenlive:meta.attr.1.stream.handler_name.markup">Apple Alias Data Handler</property>
  <property name="kdenlive:meta.attr.1.stream.encoder.markup">Apple ProRes 422 HQ</property>
  <property name="kdenlive:meta.attr.1.stream.timecode.markup">11:30:24:23</property>
  <property name="kdenlive:meta.media.2.stream.type">audio</property>
  <property name="kdenlive:meta.media.2.codec.sample_fmt">s32</property>
  <property name="kdenlive:meta.media.2.codec.sample_rate">48000</property>
  <property name="kdenlive:meta.media.2.codec.channels">2</property>
  <property name="kdenlive:meta.media.2.codec.name">pcm_s24le</property>
  <property name="kdenlive:meta.media.2.codec.long_name">PCM signed 24-bit little-endian</property>
  <property name="kdenlive:meta.media.2.codec.bit_rate">2304000</property>
  <property name="kdenlive:meta.attr.2.stream.creation_time.markup">2017-11-24T11:30:24.000000Z</property>
  <property name="kdenlive:meta.attr.2.stream.language.markup">eng</property>
  <property name="kdenlive:meta.attr.2.stream.handler_name.markup">Apple Alias Data Handler</property>
  <property name="kdenlive:meta.attr.2.stream.timecode.markup">11:30:24:23</property>
  <property name="kdenlive:meta.attr.com.apple.proapps.manufacturer.markup">Blackmagic Design</property>
  <property name="kdenlive:meta.attr.com.apple.proapps.cameraName.markup">CAM2</property>
  <property name="kdenlive:meta.attr.com.apple.proapps.isGood.markup">0</property>
  <property name="kdenlive:meta.attr.com.apple.proapps.customgamma.markup">com.blackmagic-design.cinemacamera.filmlog</property>
  <property name="kdenlive:meta.attr.com.blackmagic-design.cinemacamera.uuid.markup">18E5E00548F94923B646613A73C01B56</property>
  <property name="kdenlive:meta.attr.creation_time.markup">2017-11-24T11:30:24.000000Z</property>
  <property name="kdenlive:meta.attr.timecode.markup">11:30:24:23</property>
  <property name="kdenlive:meta.media.sample_aspect_num">1</property>
  <property name="kdenlive:meta.media.sample_aspect_den">1</property>
  <property name="kdenlive:meta.media.frame_rate_num">24</property>
  <property name="kdenlive:meta.media.frame_rate_den">1</property>
  <property name="kdenlive:meta.media.colorspace">709</property>
  <property name="kdenlive:meta.media.color_trc">1</property>
  <property name="kdenlive:meta.media.width">1920</property>
  <property name="kdenlive:meta.media.height">1080</property>
  <property name="kdenlive:meta.media.top_field_first">0</property>
  <property name="kdenlive:meta.media.progressive">1</property>
  <property name="meta.media.frame_rate_num">24</property>
  <property name="meta.media.frame_rate_den">1</property>
  <property name="meta.media.colorspace">709</property>
  <property name="meta.media.color_trc">1</property>
  <property name="meta.media.width">1920</property>
  <property name="meta.media.height">1080</property>
  <property name="meta.media.top_field_first">0</property>
  <property name="meta.media.progressive">1</property>
  <property name="meta.media.0.stream.type">video</property>
  <property name="meta.media.0.stream.frame_rate">24</property>
  <property name="meta.media.0.stream.sample_aspect_ratio">1</property>
  <property name="meta.media.0.codec.width">1920</property>
  <property name="meta.media.0.codec.height">1080</property>
  <property name="meta.media.0.codec.rotate">0</property>
  <property name="meta.media.0.codec.frame_rate">12288</property>
  <property name="meta.media.0.codec.pix_fmt">yuv422p10le</property>
  <property name="meta.media.0.codec.sample_aspect_ratio">0</property>
  <property name="meta.media.0.codec.colorspace">709</property>
  <property name="meta.media.0.codec.color_trc">1</property>
  <property name="meta.media.0.codec.name">dnxhd</property>
  <property name="meta.media.0.codec.long_name">VC3/DNxHD</property>
  <property name="meta.media.0.codec.bit_rate">176160768</property>
  <property name="meta.attr.0.stream.language.markup">eng</property>
  <property name="meta.attr.0.stream.handler_name.markup">Core Media Data Handler</property>
  <property name="meta.attr.0.stream.timecode.markup">11:30:24:23</property>
  <property name="meta.attr.major_brand.markup">qt  </property>
  <property name="meta.attr.minor_version.markup">512</property>
  <property name="meta.attr.compatible_brands.markup">qt  </property>
  <property name="meta.attr.encoder.markup">Lavf57.25.100</property>
 </producer>
 <producer id="27" in="0" out="154">
  <property name="length">155</property>
  <property name="eof">pause</property>
  <property name="resource">0x000000ff</property>
  <property name="aspect_ratio">1</property>
  <property name="mlt_service">color</property>
  <property name="kdenlive:clipname">Color Clip</property>
  <property name="kdenlive:folderid">-1</property>
  <property name="kdenlive:duration">120</property>
  <property name="kdenlive:file_hash">9196813120dc5c505072516b15baf414</property>
 </producer>
 <producer title="Anonymous Submission" id="28" in="0" out="1904">
  <property name="length">1905</property>
  <property name="eof">pause</property>
  <property name="resource"/>
  <property name="progressive">1</property>
  <property name="aspect_ratio">1</property>
  <property name="seekable">1</property>
  <property name="mlt_service">kdenlivetitle</property>
  <property name="kdenlive:clipname">Title clip</property>
  <property name="kdenlive:folderid">-1</property>
  <property name="xmldata">&lt;kdenlivetitle duration="120" LC_NUMERIC="fr_FR.UTF-8" width="1920" height="1080" out="120">
 &lt;item type="QGraphicsTextItem" z-index="0">
  &lt;position x="469" y="237">
   &lt;transform>1,0,0,0,1,0,0,0,1&lt;/transform>
  &lt;/position>
  &lt;content line-spacing="0" shadow="0;#64000000;3;3;3" font-underline="0" box-height="39" font="FreeMono" letter-spacing="0" font-pixel-size="38" font-italic="0" alignment="1" font-weight="75" box-width="182.375" font-color="255,255,255,255">[plaʒia]&lt;/content>
 &lt;/item>
 &lt;startviewport rect="0,0,1920,1080"/>
 &lt;endviewport rect="0,0,1920,1080"/>
 &lt;background color="0,0,0,255"/>
&lt;/kdenlivetitle>
</property>
  <property name="kdenlive:duration">120</property>
  <property name="force_reload">0</property>
  <property name="meta.media.width">1920</property>
  <property name="meta.media.height">1080</property>
  <property name="kdenlive:file_hash">2f20ca35aceaf64575b1026f7dc86dbd</property>
  <property name="global_feed">1</property>
 </producer>
 <producer title="Anonymous Submission" id="29" in="0" out="119">
  <property name="length">120</property>
  <property name="eof">pause</property>
  <property name="resource"/>
  <property name="progressive">1</property>
  <property name="aspect_ratio">1</property>
  <property name="seekable">1</property>
  <property name="mlt_service">kdenlivetitle</property>
  <property name="kdenlive:clipname">Sounds</property>
  <property name="kdenlive:folderid">-1</property>
  <property name="xmldata">&lt;kdenlivetitle duration="120" LC_NUMERIC="fr_FR.UTF-8" width="1920" height="1080" out="120">
 &lt;item type="QGraphicsTextItem" z-index="0">
  &lt;position x="792" y="507">
   &lt;transform>1,0,0,0,1,0,0,0,1&lt;/transform>
  &lt;/position>
  &lt;content line-spacing="0" shadow="0;#64000000;3;3;3" font-underline="0" box-height="66" font="FreeMono" letter-spacing="0" font-pixel-size="33" font-italic="0" alignment="4" font-weight="75" box-width="336.547" font-color="255,255,255,255">Sounds/Mix/Master
PLAGIAT BROS&lt;/content>
 &lt;/item>
 &lt;startviewport rect="0,0,1920,1080"/>
 &lt;endviewport rect="0,0,1920,1080"/>
 &lt;background color="0,0,0,255"/>
&lt;/kdenlivetitle>
</property>
  <property name="kdenlive:duration">120</property>
  <property name="force_reload">0</property>
  <property name="meta.media.width">1920</property>
  <property name="meta.media.height">1080</property>
  <property name="kdenlive:file_hash">abce8512128016fc78d907d1e519094b</property>
  <property name="global_feed">1</property>
  <property name="kdenlive:zone_in">0</property>
  <property name="kdenlive:zone_out">68</property>
 </producer>
 <producer title="Anonymous Submission" id="30" in="0" out="1904">
  <property name="length">1905</property>
  <property name="eof">pause</property>
  <property name="resource"/>
  <property name="progressive">1</property>
  <property name="aspect_ratio">1</property>
  <property name="seekable">1</property>
  <property name="mlt_service">kdenlivetitle</property>
  <property name="kdenlive:clipname">snapchat</property>
  <property name="kdenlive:folderid">-1</property>
  <property name="xmldata">&lt;kdenlivetitle duration="120" LC_NUMERIC="fr_FR.UTF-8" width="1920" height="1080" out="120">
 &lt;item type="QGraphicsTextItem" z-index="0">
  &lt;position x="1098" y="798">
   &lt;transform>1,0,0,0,1,0,0,0,1&lt;/transform>
  &lt;/position>
  &lt;content line-spacing="0" shadow="0;#64000000;3;3;3" font-underline="0" box-height="34" font="FreeMono" letter-spacing="0" font-pixel-size="33" font-italic="0" alignment="1" font-weight="75" box-width="337.547" font-color="255,255,255,255">snapchat au harem&lt;/content>
 &lt;/item>
 &lt;startviewport rect="0,0,1920,1080"/>
 &lt;endviewport rect="0,0,1920,1080"/>
 &lt;background color="0,0,0,255"/>
&lt;/kdenlivetitle>
</property>
  <property name="kdenlive:duration">120</property>
  <property name="force_reload">0</property>
  <property name="kdenlive:file_hash">1558853407dbbd04a358719cf6fa43fc</property>
  <property name="global_feed">1</property>
  <property name="meta.media.width">1920</property>
  <property name="meta.media.height">1080</property>
 </producer>
 <producer title="Anonymous Submission" id="31" in="0" out="119">
  <property name="length">120</property>
  <property name="eof">pause</property>
  <property name="resource"/>
  <property name="progressive">1</property>
  <property name="aspect_ratio">1</property>
  <property name="seekable">1</property>
  <property name="mlt_service">kdenlivetitle</property>
  <property name="kdenlive:clipname">Vids</property>
  <property name="kdenlive:folderid">-1</property>
  <property name="xmldata">&lt;kdenlivetitle duration="120" LC_NUMERIC="fr_FR.UTF-8" width="1920" height="1080" out="120">
 &lt;item type="QGraphicsTextItem" z-index="0">
  &lt;position x="742" y="507">
   &lt;transform>1,0,0,0,1,0,0,0,1&lt;/transform>
  &lt;/position>
  &lt;content line-spacing="0" shadow="0;#64000000;3;3;3" font-underline="0" box-height="66" font="FreeMono" letter-spacing="0" font-pixel-size="33" font-italic="0" alignment="4" font-weight="75" box-width="435.531" font-color="255,255,255,255">Shooting/Color Grading
PR¥N¢€$$ 4K&lt;/content>
 &lt;/item>
 &lt;startviewport rect="0,0,1920,1080"/>
 &lt;endviewport rect="0,0,1920,1080"/>
 &lt;background color="0,0,0,255"/>
&lt;/kdenlivetitle>
</property>
  <property name="kdenlive:duration">120</property>
  <property name="force_reload">0</property>
  <property name="kdenlive:file_hash">dc9486399ed9dcf27be5e532e42dc218</property>
  <property name="global_feed">1</property>
  <property name="meta.media.width">1920</property>
  <property name="meta.media.height">1080</property>
  <property name="kdenlive:zone_in">0</property>
  <property name="kdenlive:zone_out">69</property>
 </producer>
 <producer title="Anonymous Submission" id="32" in="0" out="704">
  <property name="length">705</property>
  <property name="eof">pause</property>
  <property name="resource"/>
  <property name="progressive">1</property>
  <property name="aspect_ratio">1</property>
  <property name="seekable">1</property>
  <property name="mlt_service">kdenlivetitle</property>
  <property name="kdenlive:clipname">Feat</property>
  <property name="kdenlive:folderid">-1</property>
  <property name="xmldata">&lt;kdenlivetitle duration="120" LC_NUMERIC="fr_FR.UTF-8" width="1920" height="1080" out="120">
 &lt;item type="QGraphicsTextItem" z-index="0">
  &lt;position x="871" y="507">
   &lt;transform>1,0,0,0,1,0,0,0,1&lt;/transform>
  &lt;/position>
  &lt;content line-spacing="0" shadow="0;#64000000;3;3;3" font-underline="0" box-height="66" font="FreeMono" letter-spacing="0" font-pixel-size="33" font-italic="0" alignment="4" font-weight="75" box-width="178.172" font-color="255,255,255,255">Featuring
&lt;/content>
 &lt;/item>
 &lt;startviewport rect="0,0,1920,1080"/>
 &lt;endviewport rect="0,0,1920,1080"/>
 &lt;background color="0,0,0,255"/>
&lt;/kdenlivetitle>
</property>
  <property name="kdenlive:duration">120</property>
  <property name="force_reload">0</property>
  <property name="kdenlive:file_hash">dc9486399ed9dcf27be5e532e42dc218</property>
  <property name="global_feed">1</property>
  <property name="meta.media.width">1920</property>
  <property name="meta.media.height">1080</property>
  <property name="kdenlive:zone_in">0</property>
  <property name="kdenlive:zone_out">405</property>
 </producer>
 <producer title="Anonymous Submission" id="33" in="0" out="119">
  <property name="length">120</property>
  <property name="eof">pause</property>
  <property name="resource"/>
  <property name="progressive">1</property>
  <property name="aspect_ratio">1</property>
  <property name="seekable">1</property>
  <property name="mlt_service">kdenlivetitle</property>
  <property name="kdenlive:clipname">Nano</property>
  <property name="kdenlive:folderid">-1</property>
  <property name="xmldata">&lt;kdenlivetitle duration="120" LC_NUMERIC="fr_FR.UTF-8" width="1920" height="1080" out="120">
 &lt;item type="QGraphicsTextItem" z-index="0">
  &lt;position x="851" y="507">
   &lt;transform>1,0,0,0,1,0,0,0,1&lt;/transform>
  &lt;/position>
  &lt;content line-spacing="0" shadow="0;#64000000;3;3;3" font-underline="0" box-height="66" font="FreeMono" letter-spacing="0" font-pixel-size="33" font-italic="0" alignment="4" font-weight="75" box-width="217.766" font-color="255,255,255,255">
BIG MC NANO&lt;/content>
 &lt;/item>
 &lt;startviewport rect="0,0,1920,1080"/>
 &lt;endviewport rect="0,0,1920,1080"/>
 &lt;background color="0,0,0,255"/>
&lt;/kdenlivetitle>
</property>
  <property name="kdenlive:duration">120</property>
  <property name="force_reload">0</property>
  <property name="kdenlive:file_hash">61c857d880325bf8e59e972d6c9b80c4</property>
  <property name="global_feed">1</property>
  <property name="meta.media.width">1920</property>
  <property name="meta.media.height">1080</property>
 </producer>
 <producer title="Anonymous Submission" id="34" in="0" out="119">
  <property name="length">120</property>
  <property name="eof">pause</property>
  <property name="resource"/>
  <property name="progressive">1</property>
  <property name="aspect_ratio">1</property>
  <property name="seekable">1</property>
  <property name="mlt_service">kdenlivetitle</property>
  <property name="kdenlive:clipname">Missy</property>
  <property name="kdenlive:folderid">-1</property>
  <property name="xmldata">&lt;kdenlivetitle duration="120" LC_NUMERIC="fr_FR.UTF-8" width="1920" height="1080" out="120">
 &lt;item type="QGraphicsTextItem" z-index="0">
  &lt;position x="792" y="507">
   &lt;transform>1,0,0,0,1,0,0,0,1&lt;/transform>
  &lt;/position>
  &lt;content line-spacing="0" shadow="0;#64000000;3;3;3" font-underline="0" box-height="66" font="FreeMono" letter-spacing="0" font-pixel-size="33" font-italic="0" alignment="4" font-weight="75" box-width="336.547" font-color="255,255,255,255">
MI$$Y SCHNECK 1-2&lt;/content>
 &lt;/item>
 &lt;startviewport rect="0,0,1920,1080"/>
 &lt;endviewport rect="0,0,1920,1080"/>
 &lt;background color="0,0,0,255"/>
&lt;/kdenlivetitle>
</property>
  <property name="kdenlive:duration">120</property>
  <property name="force_reload">0</property>
  <property name="kdenlive:file_hash">e1714fcac57ef20266b18bafe31fb6eb</property>
  <property name="global_feed">1</property>
  <property name="meta.media.width">1920</property>
  <property name="meta.media.height">1080</property>
 </producer>
 <producer title="Anonymous Submission" id="35" in="0" out="119">
  <property name="length">120</property>
  <property name="eof">pause</property>
  <property name="resource"/>
  <property name="progressive">1</property>
  <property name="aspect_ratio">1</property>
  <property name="seekable">1</property>
  <property name="mlt_service">kdenlivetitle</property>
  <property name="kdenlive:clipname">oSx</property>
  <property name="kdenlive:folderid">-1</property>
  <property name="xmldata">&lt;kdenlivetitle duration="120" LC_NUMERIC="fr_FR.UTF-8" width="1920" height="1080" out="120">
 &lt;item type="QGraphicsTextItem" z-index="0">
  &lt;position x="821" y="507">
   &lt;transform>1,0,0,0,1,0,0,0,1&lt;/transform>
  &lt;/position>
  &lt;content line-spacing="0" shadow="0;#64000000;3;3;3" font-underline="0" box-height="66" font="FreeMono" letter-spacing="0" font-pixel-size="33" font-italic="0" alignment="4" font-weight="75" box-width="277.156" font-color="255,255,255,255">
MISS OS X TOFU&lt;/content>
 &lt;/item>
 &lt;startviewport rect="0,0,1920,1080"/>
 &lt;endviewport rect="0,0,1920,1080"/>
 &lt;background color="0,0,0,255"/>
&lt;/kdenlivetitle>
</property>
  <property name="kdenlive:duration">120</property>
  <property name="force_reload">0</property>
  <property name="kdenlive:file_hash">d3e34e6433bd2df7e9714314176b7a32</property>
  <property name="global_feed">1</property>
  <property name="meta.media.width">1920</property>
  <property name="meta.media.height">1080</property>
 </producer>
 <producer title="Anonymous Submission" id="36" in="0" out="119">
  <property name="length">120</property>
  <property name="eof">pause</property>
  <property name="resource"/>
  <property name="progressive">1</property>
  <property name="aspect_ratio">1</property>
  <property name="seekable">1</property>
  <property name="mlt_service">kdenlivetitle</property>
  <property name="kdenlive:clipname">kARL</property>
  <property name="kdenlive:folderid">-1</property>
  <property name="xmldata">&lt;kdenlivetitle duration="120" LC_NUMERIC="fr_FR.UTF-8" width="1920" height="1080" out="120">
 &lt;item type="QGraphicsTextItem" z-index="0">
  &lt;position x="802" y="507">
   &lt;transform>1,0,0,0,1,0,0,0,1&lt;/transform>
  &lt;/position>
  &lt;content line-spacing="0" shadow="0;#64000000;3;3;3" font-underline="0" box-height="66" font="FreeMono" letter-spacing="0" font-pixel-size="33" font-italic="0" alignment="4" font-weight="75" box-width="316.75" font-color="255,255,255,255">
KARL MARX DORCEL&lt;/content>
 &lt;/item>
 &lt;startviewport rect="0,0,1920,1080"/>
 &lt;endviewport rect="0,0,1920,1080"/>
 &lt;background color="0,0,0,255"/>
&lt;/kdenlivetitle>
</property>
  <property name="kdenlive:duration">120</property>
  <property name="force_reload">0</property>
  <property name="kdenlive:file_hash">d3e34e6433bd2df7e9714314176b7a32</property>
  <property name="global_feed">1</property>
  <property name="meta.media.width">1920</property>
  <property name="meta.media.height">1080</property>
 </producer>
 <producer title="Anonymous Submission" id="37" in="0" out="119">
  <property name="length">120</property>
  <property name="eof">pause</property>
  <property name="resource"/>
  <property name="progressive">1</property>
  <property name="aspect_ratio">1</property>
  <property name="seekable">1</property>
  <property name="mlt_service">kdenlivetitle</property>
  <property name="kdenlive:clipname">GIHAD</property>
  <property name="kdenlive:folderid">-1</property>
  <property name="xmldata">&lt;kdenlivetitle duration="120" LC_NUMERIC="fr_FR.UTF-8" width="1920" height="1080" out="120">
 &lt;item type="QGraphicsTextItem" z-index="0">
  &lt;position x="871" y="507">
   &lt;transform>1,0,0,0,1,0,0,0,1&lt;/transform>
  &lt;/position>
  &lt;content line-spacing="0" shadow="0;#64000000;3;3;3" font-underline="0" box-height="66" font="FreeMono" letter-spacing="0" font-pixel-size="33" font-italic="0" alignment="4" font-weight="75" box-width="178.172" font-color="255,255,255,255">
GIHAD JOE&lt;/content>
 &lt;/item>
 &lt;startviewport rect="0,0,1920,1080"/>
 &lt;endviewport rect="0,0,1920,1080"/>
 &lt;background color="0,0,0,255"/>
&lt;/kdenlivetitle>
</property>
  <property name="kdenlive:duration">120</property>
  <property name="force_reload">0</property>
  <property name="kdenlive:file_hash">e7d8aef85baefbc7bd9b21eeb09b35ec</property>
  <property name="global_feed">1</property>
  <property name="meta.media.width">1920</property>
  <property name="meta.media.height">1080</property>
 </producer>
 <producer title="Anonymous Submission" id="38" in="0" out="119">
  <property name="length">120</property>
  <property name="eof">pause</property>
  <property name="resource"/>
  <property name="progressive">1</property>
  <property name="aspect_ratio">1</property>
  <property name="seekable">1</property>
  <property name="mlt_service">kdenlivetitle</property>
  <property name="kdenlive:clipname">SOUBRETT</property>
  <property name="kdenlive:folderid">-1</property>
  <property name="xmldata">&lt;kdenlivetitle duration="120" LC_NUMERIC="fr_FR.UTF-8" width="1920" height="1080" out="120">
 &lt;item type="QGraphicsTextItem" z-index="0">
  &lt;position x="792" y="507">
   &lt;transform>1,0,0,0,1,0,0,0,1&lt;/transform>
  &lt;/position>
  &lt;content line-spacing="0" shadow="0;#64000000;3;3;3" font-underline="0" box-height="66" font="FreeMono" letter-spacing="0" font-pixel-size="33" font-italic="0" alignment="4" font-weight="75" box-width="336.547" font-color="255,255,255,255">
SOUBRETTE SUPRÊME&lt;/content>
 &lt;/item>
 &lt;startviewport rect="0,0,1920,1080"/>
 &lt;endviewport rect="0,0,1920,1080"/>
 &lt;background color="0,0,0,255"/>
&lt;/kdenlivetitle>
</property>
  <property name="kdenlive:duration">120</property>
  <property name="force_reload">0</property>
  <property name="kdenlive:file_hash">05097f31d773fd25909223e95a7b1b08</property>
  <property name="global_feed">1</property>
  <property name="meta.media.width">1920</property>
  <property name="meta.media.height">1080</property>
 </producer>
 <producer title="Anonymous Submission" id="39" in="0" out="119">
  <property name="length">120</property>
  <property name="eof">pause</property>
  <property name="resource"/>
  <property name="progressive">1</property>
  <property name="aspect_ratio">1</property>
  <property name="seekable">1</property>
  <property name="mlt_service">kdenlivetitle</property>
  <property name="kdenlive:clipname">FREDDY MERKRUEGER</property>
  <property name="kdenlive:folderid">-1</property>
  <property name="xmldata">&lt;kdenlivetitle duration="120" LC_NUMERIC="fr_FR.UTF-8" width="1920" height="1080" out="120">
 &lt;item type="QGraphicsTextItem" z-index="0">
  &lt;position x="791" y="507">
   &lt;transform>1,0,0,0,1,0,0,0,1&lt;/transform>
  &lt;/position>
  &lt;content line-spacing="0" shadow="0;#64000000;3;3;3" font-underline="0" box-height="66" font="FreeMono" letter-spacing="0" font-pixel-size="33" font-italic="0" alignment="4" font-weight="75" box-width="337.547" font-color="255,255,255,255">
FREDDY MERKRUEGER&lt;/content>
 &lt;/item>
 &lt;startviewport rect="0,0,1920,1080"/>
 &lt;endviewport rect="0,0,1920,1080"/>
 &lt;background color="0,0,0,255"/>
&lt;/kdenlivetitle>
</property>
  <property name="kdenlive:duration">120</property>
  <property name="force_reload">0</property>
  <property name="kdenlive:file_hash">aff4f118a25e6f31c3707fabe0572510</property>
  <property name="global_feed">1</property>
  <property name="meta.media.width">1920</property>
  <property name="meta.media.height">1080</property>
 </producer>
 <producer title="Anonymous Submission" id="40" in="0" out="119">
  <property name="length">120</property>
  <property name="eof">pause</property>
  <property name="resource"/>
  <property name="progressive">1</property>
  <property name="aspect_ratio">1</property>
  <property name="seekable">1</property>
  <property name="mlt_service">kdenlivetitle</property>
  <property name="kdenlive:clipname">XPLICI</property>
  <property name="kdenlive:folderid">-1</property>
  <property name="xmldata">&lt;kdenlivetitle duration="120" LC_NUMERIC="fr_FR.UTF-8" width="1920" height="1080" out="120">
 &lt;item type="QGraphicsTextItem" z-index="0">
  &lt;position x="821" y="474">
   &lt;transform>1,0,0,0,1,0,0,0,1&lt;/transform>
  &lt;/position>
  &lt;content line-spacing="0" shadow="0;#64000000;3;3;3" font-underline="0" box-height="132" font="FreeMono" letter-spacing="0" font-pixel-size="33" font-italic="0" alignment="4" font-weight="75" box-width="277.156" font-color="255,255,255,255">

XPLICIT KURT
COPAIN CONTENT&lt;/content>
 &lt;/item>
 &lt;startviewport rect="0,0,1920,1080"/>
 &lt;endviewport rect="0,0,1920,1080"/>
 &lt;background color="0,0,0,255"/>
&lt;/kdenlivetitle>
</property>
  <property name="kdenlive:duration">120</property>
  <property name="force_reload">0</property>
  <property name="kdenlive:file_hash">2f0d484f818396addb5701d72ee8f059</property>
  <property name="global_feed">1</property>
  <property name="meta.media.width">1920</property>
  <property name="meta.media.height">1080</property>
 </producer>
 <producer title="Anonymous Submission" id="41" in="0" out="119">
  <property name="length">120</property>
  <property name="eof">pause</property>
  <property name="resource"/>
  <property name="progressive">1</property>
  <property name="aspect_ratio">1</property>
  <property name="seekable">1</property>
  <property name="mlt_service">kdenlivetitle</property>
  <property name="kdenlive:clipname">YASSER</property>
  <property name="kdenlive:folderid">-1</property>
  <property name="xmldata">&lt;kdenlivetitle duration="120" LC_NUMERIC="fr_FR.UTF-8" width="1920" height="1080" out="120">
 &lt;item type="QGraphicsTextItem" z-index="0">
  &lt;position x="812" y="507">
   &lt;transform>1,0,0,0,1,0,0,0,1&lt;/transform>
  &lt;/position>
  &lt;content line-spacing="0" shadow="0;#64000000;3;3;3" font-underline="0" box-height="66" font="FreeMono" letter-spacing="0" font-pixel-size="33" font-italic="0" alignment="4" font-weight="75" box-width="296.953" font-color="255,255,255,255">
YASSER A RAFAAL&lt;/content>
 &lt;/item>
 &lt;startviewport rect="0,0,1920,1080"/>
 &lt;endviewport rect="0,0,1920,1080"/>
 &lt;background color="0,0,0,255"/>
&lt;/kdenlivetitle>
</property>
  <property name="kdenlive:duration">120</property>
  <property name="force_reload">0</property>
  <property name="kdenlive:file_hash">1548d2e1289d78180a9ea1a0aac4ef2a</property>
  <property name="global_feed">1</property>
  <property name="meta.media.width">1920</property>
  <property name="meta.media.height">1080</property>
 </producer>
 <producer title="Anonymous Submission" id="42" in="0" out="119">
  <property name="length">120</property>
  <property name="eof">pause</property>
  <property name="resource"/>
  <property name="progressive">1</property>
  <property name="aspect_ratio">1</property>
  <property name="seekable">1</property>
  <property name="mlt_service">kdenlivetitle</property>
  <property name="kdenlive:clipname">boomtrap</property>
  <property name="kdenlive:folderid">-1</property>
  <property name="xmldata">&lt;kdenlivetitle duration="120" LC_NUMERIC="fr_FR.UTF-8" width="1920" height="1080" out="120">
 &lt;item type="QGraphicsTextItem" z-index="0">
  &lt;position x="781" y="490">
   &lt;transform>1,0,0,0,1,0,0,0,1&lt;/transform>
  &lt;/position>
  &lt;content line-spacing="0" shadow="0;#64000000;3;3;3" font-underline="0" box-height="99" font="FreeMono" letter-spacing="0" font-pixel-size="33" font-italic="0" alignment="4" font-weight="75" box-width="357.344" font-color="255,255,255,255">Steady by
BOOMTRAPPED
fb.com/boomtrapped&lt;/content>
 &lt;/item>
 &lt;startviewport rect="0,0,1920,1080"/>
 &lt;endviewport rect="0,0,1920,1080"/>
 &lt;background color="0,0,0,255"/>
&lt;/kdenlivetitle>
</property>
  <property name="kdenlive:duration">120</property>
  <property name="force_reload">0</property>
  <property name="kdenlive:file_hash">dc9486399ed9dcf27be5e532e42dc218</property>
  <property name="global_feed">1</property>
  <property name="meta.media.width">1920</property>
  <property name="meta.media.height">1080</property>
 </producer>
 <producer title="Anonymous Submission" id="43" in="0" out="119">
  <property name="length">120</property>
  <property name="eof">pause</property>
  <property name="resource"/>
  <property name="progressive">1</property>
  <property name="aspect_ratio">1</property>
  <property name="seekable">1</property>
  <property name="mlt_service">kdenlivetitle</property>
  <property name="kdenlive:clipname">Recorded</property>
  <property name="kdenlive:folderid">-1</property>
  <property name="xmldata">&lt;kdenlivetitle duration="120" LC_NUMERIC="fr_FR.utf8" width="1920" height="1080" out="120">
 &lt;item type="QGraphicsTextItem" z-index="0">
  &lt;position x="792" y="441">
   &lt;transform>1,0,0,0,1,0,0,0,1&lt;/transform>
  &lt;/position>
  &lt;content line-spacing="0" shadow="0;#64000000;3;3;3" font-underline="0" box-height="198" font="FreeMono" letter-spacing="0" font-pixel-size="33" font-italic="0" alignment="4" font-weight="75" box-width="336.547" font-color="255,255,255,255">Recorded at
EMI
Centre Artistique
Jean Françaix
SAINT CALAIS
emibscv.fr&lt;/content>
 &lt;/item>
 &lt;startviewport rect="0,0,1920,1080"/>
 &lt;endviewport rect="0,0,1920,1080"/>
 &lt;background color="0,0,0,255"/>
&lt;/kdenlivetitle>
</property>
  <property name="kdenlive:duration">120</property>
  <property name="force_reload">0</property>
  <property name="kdenlive:file_hash">dafcd802e17ef5a975da410d7398fcc7</property>
  <property name="global_feed">1</property>
  <property name="meta.media.width">1920</property>
  <property name="meta.media.height">1080</property>
 </producer>
 <producer title="Anonymous Submission" id="44" in="0" out="405">
  <property name="length">406</property>
  <property name="eof">pause</property>
  <property name="resource"/>
  <property name="progressive">1</property>
  <property name="aspect_ratio">1</property>
  <property name="seekable">1</property>
  <property name="mlt_service">kdenlivetitle</property>
  <property name="kdenlive:clipname">Shooted</property>
  <property name="kdenlive:folderid">-1</property>
  <property name="xmldata">&lt;kdenlivetitle duration="120" LC_NUMERIC="fr_FR.UTF-8" width="1920" height="1080" out="120">
 &lt;item type="QGraphicsTextItem" z-index="0">
  &lt;position x="861" y="507">
   &lt;transform>1,0,0,0,1,0,0,0,1&lt;/transform>
  &lt;/position>
  &lt;content line-spacing="0" shadow="0;#64000000;3;3;3" font-underline="0" box-height="66" font="FreeMono" letter-spacing="0" font-pixel-size="33" font-italic="0" alignment="4" font-weight="75" box-width="197.969" font-color="255,255,255,255">Shooted at
&lt;/content>
 &lt;/item>
 &lt;startviewport rect="0,0,1920,1080"/>
 &lt;endviewport rect="0,0,1920,1080"/>
 &lt;background color="0,0,0,255"/>
&lt;/kdenlivetitle>
</property>
  <property name="kdenlive:duration">120</property>
  <property name="force_reload">0</property>
  <property name="kdenlive:file_hash">1dbffb8d54ac4d0720d22d198545c9f0</property>
  <property name="global_feed">1</property>
  <property name="meta.media.width">1920</property>
  <property name="meta.media.height">1080</property>
 </producer>
 <producer title="Anonymous Submission" id="45" in="0" out="119">
  <property name="length">120</property>
  <property name="eof">pause</property>
  <property name="resource"/>
  <property name="progressive">1</property>
  <property name="aspect_ratio">1</property>
  <property name="seekable">1</property>
  <property name="mlt_service">kdenlivetitle</property>
  <property name="kdenlive:clipname">La Coop</property>
  <property name="kdenlive:folderid">-1</property>
  <property name="xmldata">&lt;kdenlivetitle duration="120" LC_NUMERIC="fr_FR.UTF-8" width="1920" height="1080" out="120">
 &lt;item type="QGraphicsTextItem" z-index="0">
  &lt;position x="782" y="474">
   &lt;transform>1,0,0,0,1,0,0,0,1&lt;/transform>
  &lt;/position>
  &lt;content line-spacing="0" shadow="0;#64000000;3;3;3" font-underline="0" box-height="132" font="FreeMono" letter-spacing="0" font-pixel-size="33" font-italic="0" alignment="4" font-weight="75" box-width="356.344" font-color="255,255,255,255">

LA COOP
fb.com/lavraiecoop&lt;/content>
 &lt;/item>
 &lt;startviewport rect="0,0,1920,1080"/>
 &lt;endviewport rect="0,0,1920,1080"/>
 &lt;background color="0,0,0,255"/>
&lt;/kdenlivetitle>
</property>
  <property name="kdenlive:duration">120</property>
  <property name="force_reload">0</property>
  <property name="kdenlive:file_hash">873c071a08e752771b47ef74115d291d</property>
  <property name="global_feed">1</property>
  <property name="meta.media.width">1920</property>
  <property name="meta.media.height">1080</property>
 </producer>
 <producer title="Anonymous Submission" id="46" in="0" out="119">
  <property name="length">120</property>
  <property name="eof">pause</property>
  <property name="resource"/>
  <property name="progressive">1</property>
  <property name="aspect_ratio">1</property>
  <property name="seekable">1</property>
  <property name="mlt_service">kdenlivetitle</property>
  <property name="kdenlive:clipname">MJC Manu</property>
  <property name="kdenlive:folderid">-1</property>
  <property name="xmldata">&lt;kdenlivetitle duration="120" LC_NUMERIC="fr_FR.UTF-8" width="1920" height="1080" out="120">
 &lt;item type="QGraphicsTextItem" z-index="0">
  &lt;position x="752" y="441">
   &lt;transform>1,0,0,0,1,0,0,0,1&lt;/transform>
  &lt;/position>
  &lt;content line-spacing="0" shadow="0;#64000000;3;3;3" font-underline="0" box-height="198" font="FreeMono" letter-spacing="0" font-pixel-size="33" font-italic="0" alignment="4" font-weight="75" box-width="415.734" font-color="255,255,255,255">


MJC MANU DI BANGO
SAINT CALAIS
fb.com/mjcmanudibango&lt;/content>
 &lt;/item>
 &lt;startviewport rect="0,0,1920,1080"/>
 &lt;endviewport rect="0,0,1920,1080"/>
 &lt;background color="0,0,0,255"/>
&lt;/kdenlivetitle>
</property>
  <property name="kdenlive:duration">120</property>
  <property name="force_reload">0</property>
  <property name="kdenlive:file_hash">972b3a4968bb242118c3c1518f5a2818</property>
  <property name="global_feed">1</property>
  <property name="meta.media.width">1920</property>
  <property name="meta.media.height">1080</property>
 </producer>
 <producer title="Anonymous Submission" id="47" in="0" out="119">
  <property name="length">120</property>
  <property name="eof">pause</property>
  <property name="resource"/>
  <property name="progressive">1</property>
  <property name="aspect_ratio">1</property>
  <property name="seekable">1</property>
  <property name="mlt_service">kdenlivetitle</property>
  <property name="kdenlive:clipname">Parigne</property>
  <property name="kdenlive:folderid">-1</property>
  <property name="xmldata">&lt;kdenlivetitle duration="120" LC_NUMERIC="fr_FR.UTF-8" width="1920" height="1080" out="120">
 &lt;item type="QGraphicsTextItem" z-index="0">
  &lt;position x="782" y="490">
   &lt;transform>1,0,0,0,1,0,0,0,1&lt;/transform>
  &lt;/position>
  &lt;content line-spacing="0" shadow="0;#64000000;3;3;3" font-underline="0" box-height="99" font="FreeMono" letter-spacing="0" font-pixel-size="33" font-italic="0" alignment="4" font-weight="75" box-width="356.344" font-color="255,255,255,255">
LA COOP
fb.com/lavraiecoop&lt;/content>
 &lt;/item>
 &lt;startviewport rect="0,0,1920,1080"/>
 &lt;endviewport rect="0,0,1920,1080"/>
 &lt;background color="0,0,0,255"/>
&lt;/kdenlivetitle>
</property>
  <property name="kdenlive:duration">120</property>
  <property name="force_reload">0</property>
  <property name="kdenlive:file_hash">972b3a4968bb242118c3c1518f5a2818</property>
  <property name="global_feed">1</property>
  <property name="meta.media.width">1920</property>
  <property name="meta.media.height">1080</property>
 </producer>
 <producer title="Anonymous Submission" id="48" in="0" out="188">
  <property name="length">189</property>
  <property name="eof">pause</property>
  <property name="resource"/>
  <property name="progressive">1</property>
  <property name="aspect_ratio">1</property>
  <property name="seekable">1</property>
  <property name="mlt_service">kdenlivetitle</property>
  <property name="kdenlive:clipname">LIcence</property>
  <property name="kdenlive:folderid">-1</property>
  <property name="xmldata">&lt;kdenlivetitle duration="120" LC_NUMERIC="fr_FR.UTF-8" width="1920" height="1080" out="120">
 &lt;item type="QGraphicsTextItem" z-index="0">
  &lt;position x="693" y="441">
   &lt;transform>1,0,0,0,1,0,0,0,1&lt;/transform>
  &lt;/position>
  &lt;content line-spacing="0" shadow="0;#64000000;3;3;3" font-underline="0" box-height="198" font="FreeMono" letter-spacing="0" font-pixel-size="33" font-italic="0" alignment="4" font-weight="75" box-width="534.516" font-color="255,255,255,255">(c) Plagiat 2017 - 2019
Copyleft - this art is free
art. Feel free to use it
following the terms of
the CC4.0-BY-SA License
creativecommons.org&lt;/content>
 &lt;/item>
 &lt;startviewport rect="0,0,1920,1080"/>
 &lt;endviewport rect="0,0,1920,1080"/>
 &lt;background color="0,0,0,255"/>
&lt;/kdenlivetitle>
</property>
  <property name="kdenlive:duration">120</property>
  <property name="force_reload">0</property>
  <property name="kdenlive:file_hash">dc9486399ed9dcf27be5e532e42dc218</property>
  <property name="global_feed">1</property>
  <property name="meta.media.width">1920</property>
  <property name="meta.media.height">1080</property>
  <property name="kdenlive:zone_in">0</property>
  <property name="kdenlive:zone_out">188</property>
 </producer>
 <producer title="Anonymous Submission" id="49" in="0" out="665">
  <property name="length">666</property>
  <property name="eof">pause</property>
  <property name="resource"/>
  <property name="progressive">1</property>
  <property name="aspect_ratio">1</property>
  <property name="seekable">1</property>
  <property name="mlt_service">kdenlivetitle</property>
  <property name="kdenlive:clipname">Copying is</property>
  <property name="kdenlive:folderid">-1</property>
  <property name="xmldata">&lt;kdenlivetitle duration="120" LC_NUMERIC="fr_FR.UTF-8" width="1920" height="1080" out="120">
 &lt;item type="QGraphicsTextItem" z-index="0">
  &lt;position x="732" y="430">
   &lt;transform>1,0,0,0,1,0,0,0,1&lt;/transform>
  &lt;/position>
  &lt;content line-spacing="20" shadow="0;#64000000;3;3;3" font-underline="0" box-height="220" font="FreeMono" letter-spacing="0" font-pixel-size="40" font-italic="0" alignment="4" font-weight="75" box-width="455.703" font-color="255,255,255,255">Copying is no theft


 &lt;/content>
 &lt;/item>
 &lt;startviewport rect="0,0,1920,1080"/>
 &lt;endviewport rect="0,0,1920,1080"/>
 &lt;background color="0,0,0,255"/>
&lt;/kdenlivetitle>
</property>
  <property name="kdenlive:duration">120</property>
  <property name="force_reload">0</property>
  <property name="kdenlive:file_hash">37003002ec182c4b499cd54b6100fb22</property>
  <property name="global_feed">1</property>
  <property name="meta.media.width">1920</property>
  <property name="meta.media.height">1080</property>
 </producer>
 <producer title="Anonymous Submission" id="50" in="0" out="624">
  <property name="length">625</property>
  <property name="eof">pause</property>
  <property name="resource"/>
  <property name="progressive">1</property>
  <property name="aspect_ratio">1</property>
  <property name="seekable">1</property>
  <property name="mlt_service">kdenlivetitle</property>
  <property name="kdenlive:clipname">rape</property>
  <property name="kdenlive:folderid">-1</property>
  <property name="xmldata">&lt;kdenlivetitle duration="120" LC_NUMERIC="fr_FR.UTF-8" width="1920" height="1080" out="120">
 &lt;item type="QGraphicsTextItem" z-index="0">
  &lt;position x="708" y="430">
   &lt;transform>1,0,0,0,1,0,0,0,1&lt;/transform>
  &lt;/position>
  &lt;content line-spacing="20" shadow="0;#64000000;3;3;3" font-underline="0" box-height="220" font-outline-color="211,215,207,255" font="FreeMono" letter-spacing="0" font-pixel-size="40" font-italic="0" alignment="4" font-weight="75" font-outline="0" box-width="503.672" font-color="255,255,255,255">
Plagiat ain't no rape

&lt;/content>
 &lt;/item>
 &lt;startviewport rect="0,0,1920,1080"/>
 &lt;endviewport rect="0,0,1920,1080"/>
 &lt;background color="0,0,0,255"/>
&lt;/kdenlivetitle>
</property>
  <property name="kdenlive:duration">120</property>
  <property name="force_reload">0</property>
  <property name="kdenlive:file_hash">d2fb2e584e34b6834515e40ecf2926a5</property>
  <property name="global_feed">1</property>
  <property name="meta.media.width">1920</property>
  <property name="meta.media.height">1080</property>
 </producer>
 <producer title="Anonymous Submission" id="51" in="0" out="565">
  <property name="length">566</property>
  <property name="eof">pause</property>
  <property name="resource"/>
  <property name="progressive">1</property>
  <property name="aspect_ratio">1</property>
  <property name="seekable">1</property>
  <property name="mlt_service">kdenlivetitle</property>
  <property name="kdenlive:clipname">plazia</property>
  <property name="kdenlive:folderid">-1</property>
  <property name="xmldata">&lt;kdenlivetitle duration="120" LC_NUMERIC="fr_FR.UTF-8" width="1920" height="1080" out="120">
 &lt;item type="QGraphicsTextItem" z-index="0">
  &lt;position x="708" y="430">
   &lt;transform>1,0,0,0,1,0,0,0,1&lt;/transform>
  &lt;/position>
  &lt;content line-spacing="20" shadow="0;#64000000;3;3;3" font-underline="0" box-height="220" font-outline-color="211,215,207,255" font="FreeMono" letter-spacing="0" font-pixel-size="40" font-italic="0" alignment="4" font-weight="75" font-outline="0" box-width="503.672" font-color="255,255,255,255">

[plaʒia] ain't no rap
&lt;/content>
 &lt;/item>
 &lt;startviewport rect="0,0,1920,1080"/>
 &lt;endviewport rect="0,0,1920,1080"/>
 &lt;background color="0,0,0,255"/>
&lt;/kdenlivetitle>
</property>
  <property name="kdenlive:duration">120</property>
  <property name="force_reload">0</property>
  <property name="kdenlive:file_hash">bed16e434e0c4cc237298a57daa67a65</property>
  <property name="global_feed">1</property>
  <property name="meta.media.width">1920</property>
  <property name="meta.media.height">1080</property>
 </producer>
 <producer title="Anonymous Submission" id="52" in="0" out="551">
  <property name="length">552</property>
  <property name="eof">pause</property>
  <property name="resource"/>
  <property name="progressive">1</property>
  <property name="aspect_ratio">1</property>
  <property name="seekable">1</property>
  <property name="mlt_service">kdenlivetitle</property>
  <property name="kdenlive:clipname">plagiat.org</property>
  <property name="kdenlive:folderid">-1</property>
  <property name="xmldata">&lt;kdenlivetitle duration="120" LC_NUMERIC="fr_FR.UTF-8" width="1920" height="1080" out="120">
 &lt;item type="QGraphicsTextItem" z-index="0">
  &lt;position x="528" y="430">
   &lt;transform>1,0,0,0,1,0,0,0,1&lt;/transform>
  &lt;/position>
  &lt;content line-spacing="20" shadow="0;#64000000;3;3;3" font-underline="0" box-height="220" font="FreeMono" letter-spacing="0" font-pixel-size="40" font-italic="0" alignment="4" font-weight="75" box-width="863.438" font-color="255,255,255,255">


U can't diss the Miss on plagiat.org&lt;/content>
 &lt;/item>
 &lt;startviewport rect="0,0,1920,1080"/>
 &lt;endviewport rect="0,0,1920,1080"/>
 &lt;background color="0,0,0,255"/>
&lt;/kdenlivetitle>
</property>
  <property name="kdenlive:duration">120</property>
  <property name="force_reload">0</property>
  <property name="kdenlive:file_hash">e9be462bd1ed6427fc96e5199c8aafbc</property>
  <property name="global_feed">1</property>
  <property name="meta.media.width">1920</property>
  <property name="meta.media.height">1080</property>
  <property name="kdenlive:zone_in">51</property>
  <property name="kdenlive:zone_out">117</property>
 </producer>
 <producer title="Anonymous Submission" id="53" in="0" out="119">
  <property name="length">120</property>
  <property name="eof">pause</property>
  <property name="resource"/>
  <property name="progressive">1</property>
  <property name="aspect_ratio">1</property>
  <property name="seekable">1</property>
  <property name="mlt_service">kdenlivetitle</property>
  <property name="kdenlive:clipname">steady</property>
  <property name="kdenlive:folderid">-1</property>
  <property name="xmldata">&lt;kdenlivetitle duration="120" LC_NUMERIC="fr_FR.UTF-8" width="1920" height="1080" out="120">
 &lt;item type="QGraphicsTextItem" z-index="0">
  &lt;position x="781" y="490">
   &lt;transform>1,0,0,0,1,0,0,0,1&lt;/transform>
  &lt;/position>
  &lt;content line-spacing="0" shadow="0;#64000000;3;3;3" font-underline="0" box-height="99" font="FreeMono" letter-spacing="0" font-pixel-size="33" font-italic="0" alignment="4" font-weight="75" box-width="357.344" font-color="255,255,255,255">Steady by
BOOMTRAPPED
fb.com/boomtrapped&lt;/content>
 &lt;/item>
 &lt;startviewport rect="0,0,1920,1080"/>
 &lt;endviewport rect="0,0,1920,1080"/>
 &lt;background color="0,0,0,255"/>
&lt;/kdenlivetitle>
</property>
  <property name="kdenlive:duration">120</property>
  <property name="force_reload">0</property>
  <property name="kdenlive:file_hash">dc9486399ed9dcf27be5e532e42dc218</property>
  <property name="global_feed">1</property>
  <property name="meta.media.width">1920</property>
  <property name="meta.media.height">1080</property>
 </producer>
 <producer title="Anonymous Submission" id="54" in="0" out="130">
  <property name="length">131</property>
  <property name="eof">pause</property>
  <property name="resource"/>
  <property name="progressive">1</property>
  <property name="aspect_ratio">1</property>
  <property name="seekable">1</property>
  <property name="mlt_service">kdenlivetitle</property>
  <property name="kdenlive:clipname">LIcence (copy)</property>
  <property name="kdenlive:folderid">-1</property>
  <property name="xmldata">&lt;kdenlivetitle duration="120" LC_NUMERIC="fr_FR.utf8" width="1920" height="1080" out="120">
 &lt;item type="QGraphicsTextItem" z-index="6">
  &lt;position x="951" y="611">
   &lt;transform>1,0,0,0,1,0,0,0,1&lt;/transform>
  &lt;/position>
  &lt;content shadow="0;#64000000;3;3;3" font-underline="0" box-height="34" font="FreeMono" letter-spacing="0" font-pixel-size="33" font-italic="0" alignment="1" font-weight="75" box-width="19.7969" font-color="255,255,255,255">\&lt;/content>
 &lt;/item>
 &lt;item type="QGraphicsTextItem" z-index="5">
  &lt;position x="951" y="609">
   &lt;transform>1,0,0,0,1,0,0,0,1&lt;/transform>
  &lt;/position>
  &lt;content shadow="0;#64000000;3;3;3" font-underline="0" box-height="34" font="FreeMono" letter-spacing="0" font-pixel-size="33" font-italic="0" alignment="1" font-weight="75" box-width="19.7969" font-color="255,255,255,255">/&lt;/content>
 &lt;/item>
 &lt;item type="QGraphicsTextItem" z-index="4">
  &lt;position x="959" y="632">
   &lt;transform>1,0,0,0,1,0,0,0,1&lt;/transform>
  &lt;/position>
  &lt;content shadow="0;#64000000;3;3;3" font-underline="0" box-height="34" font="FreeMono" letter-spacing="0" font-pixel-size="33" font-italic="0" alignment="1" font-weight="75" box-width="19.7969" font-color="255,255,255,255">u&lt;/content>
 &lt;/item>
 &lt;item type="QGraphicsTextItem" z-index="3">
  &lt;position x="753" y="439">
   &lt;transform>1,0,0,0,1,0,0,0,1&lt;/transform>
  &lt;/position>
  &lt;content shadow="0;#64000000;3;3;3" font-underline="0" box-height="34" font="FreeMono" letter-spacing="0" font-pixel-size="33" font-italic="0" alignment="1" font-weight="75" box-width="19.7969" font-color="255,255,255,255">|&lt;/content>
 &lt;/item>
 &lt;item type="QGraphicsTextItem" z-index="2">
  &lt;position x="992" y="475">
   &lt;transform>1,0,0,0,1,0,0,0,1&lt;/transform>
  &lt;/position>
  &lt;content shadow="0;#64000000;3;3;3" font-underline="0" box-height="34" font="FreeMono" letter-spacing="0" font-pixel-size="33" font-italic="0" alignment="1" font-weight="75" box-width="19.7969" font-color="255,255,255,255">f&lt;/content>
 &lt;/item>
 &lt;item type="QGraphicsTextItem" z-index="1">
  &lt;position x="699" y="508">
   &lt;transform>1,0,0,0,1,0,0,0,1&lt;/transform>
  &lt;/position>
  &lt;content shadow="0;#64000000;3;3;3" font-underline="0" box-height="34" font="FreeMono" letter-spacing="0" font-pixel-size="33" font-italic="0" alignment="1" font-weight="75" box-width="19.7969" font-color="255,255,255,255">f&lt;/content>
 &lt;/item>
 &lt;startviewport rect="0,0,1920,1080"/>
 &lt;endviewport rect="0,0,1920,1080"/>
 &lt;background color="0,0,0,0"/>
&lt;/kdenlivetitle>
</property>
  <property name="kdenlive:duration">120</property>
  <property name="force_reload">0</property>
  <property name="kdenlive:file_hash">dc9486399ed9dcf27be5e532e42dc218</property>
  <property name="global_feed">1</property>
  <property name="meta.media.width">1920</property>
  <property name="meta.media.height">1080</property>
  <property name="kdenlive:zone_in">89</property>
  <property name="kdenlive:zone_out">130</property>
 </producer>
 <producer title="Anonymous Submission" id="55" in="0" out="119">
  <property name="length">120</property>
  <property name="eof">pause</property>
  <property name="resource"/>
  <property name="progressive">1</property>
  <property name="aspect_ratio">1</property>
  <property name="seekable">1</property>
  <property name="mlt_service">kdenlivetitle</property>
  <property name="kdenlive:clipname">Color Degrading</property>
  <property name="kdenlive:folderid">-1</property>
  <property name="xmldata">&lt;kdenlivetitle duration="120" LC_NUMERIC="fr_FR.UTF-8" width="1920" height="1080" out="120">
 &lt;item type="QGraphicsTextItem" z-index="0">
  &lt;position x="812" y="507">
   &lt;transform>1,0,0,0,1,0,0,0,1&lt;/transform>
  &lt;/position>
  &lt;content line-spacing="0" shadow="0;#64000000;3;3;3" font-underline="0" box-height="66" font="FreeMono" letter-spacing="0" font-pixel-size="33" font-italic="0" alignment="4" font-weight="75" box-width="296.953" font-color="255,255,255,255">Color Degrading
PLAGIAT BROS&lt;/content>
 &lt;/item>
 &lt;startviewport rect="0,0,1920,1080"/>
 &lt;endviewport rect="0,0,1920,1080"/>
 &lt;background color="0,0,0,255"/>
&lt;/kdenlivetitle>
</property>
  <property name="kdenlive:duration">120</property>
  <property name="force_reload">0</property>
  <property name="kdenlive:file_hash">abce8512128016fc78d907d1e519094b</property>
  <property name="global_feed">1</property>
  <property name="kdenlive:zone_in">0</property>
  <property name="kdenlive:zone_out">79</property>
  <property name="meta.media.width">1920</property>
  <property name="meta.media.height">1080</property>
 </producer>
 <producer title="Anonymous Submission" id="56" in="0" out="278">
  <property name="length">279</property>
  <property name="eof">pause</property>
  <property name="resource"/>
  <property name="progressive">1</property>
  <property name="aspect_ratio">1</property>
  <property name="seekable">1</property>
  <property name="mlt_service">kdenlivetitle</property>
  <property name="kdenlive:clipname">Free Softwares</property>
  <property name="kdenlive:folderid">-1</property>
  <property name="xmldata">&lt;kdenlivetitle duration="120" LC_NUMERIC="fr_FR.utf8" width="1920" height="1080" out="120">
 &lt;item type="QGraphicsTextItem" z-index="0">
  &lt;position x="772" y="507">
   &lt;transform>1,0,0,0,1,0,0,0,1&lt;/transform>
  &lt;/position>
  &lt;content line-spacing="0" shadow="0;#64000000;3;3;3" font-underline="0" box-height="66" font="FreeMono" letter-spacing="0" font-pixel-size="33" font-italic="0" alignment="4" font-weight="75" box-width="376.141" font-color="255,255,255,255">dis been made wit
free softwares only&lt;/content>
 &lt;/item>
 &lt;startviewport rect="0,0,1920,1080"/>
 &lt;endviewport rect="0,0,1920,1080"/>
 &lt;background color="0,0,0,255"/>
&lt;/kdenlivetitle>
</property>
  <property name="kdenlive:duration">120</property>
  <property name="force_reload">0</property>
  <property name="kdenlive:file_hash">dc9486399ed9dcf27be5e532e42dc218</property>
  <property name="global_feed">1</property>
  <property name="kdenlive:zone_in">0</property>
  <property name="kdenlive:zone_out">201</property>
  <property name="meta.media.width">1920</property>
  <property name="meta.media.height">1080</property>
 </producer>
 <producer title="Anonymous Submission" id="58" in="0" out="275">
  <property name="length">276</property>
  <property name="eof">pause</property>
  <property name="resource"/>
  <property name="progressive">1</property>
  <property name="aspect_ratio">1</property>
  <property name="seekable">1</property>
  <property name="mlt_service">kdenlivetitle</property>
  <property name="kdenlive:clipname">Free Softwares trad 1</property>
  <property name="kdenlive:folderid">-1</property>
  <property name="xmldata">&lt;kdenlivetitle duration="120" LC_NUMERIC="fr_FR.utf8" width="1920" height="1080" out="120">
 &lt;item type="QGraphicsTextItem" z-index="0">
  &lt;position x="238" y="933">
   &lt;transform>1,0,0,0,1,0,0,0,1&lt;/transform>
  &lt;/position>
  &lt;content line-spacing="0" shadow="0;#64000000;3;3;3" font-underline="0" box-height="32" font="Sans Serif" letter-spacing="0" font-pixel-size="26" font-italic="0" alignment="4" font-weight="50" box-width="1443.42" font-color="255,255,255,255">Ce clip clop réalise avec liberté logicielle de jeux d'argent sur réseaux et programme de simulation de chèvres&lt;/content>
 &lt;/item>
 &lt;startviewport rect="0,0,1920,1080"/>
 &lt;endviewport rect="0,0,1920,1080"/>
 &lt;background color="0,0,0,255"/>
&lt;/kdenlivetitle>
</property>
  <property name="kdenlive:duration">120</property>
  <property name="force_reload">0</property>
  <property name="kdenlive:file_hash">dc9486399ed9dcf27be5e532e42dc218</property>
  <property name="global_feed">1</property>
  <property name="kdenlive:zone_in">0</property>
  <property name="kdenlive:zone_out">201</property>
  <property name="meta.media.width">1920</property>
  <property name="meta.media.height">1080</property>
 </producer>
 <producer title="Anonymous Submission" id="59" in="0" out="241">
  <property name="length">242</property>
  <property name="eof">pause</property>
  <property name="resource"/>
  <property name="progressive">1</property>
  <property name="aspect_ratio">1</property>
  <property name="seekable">1</property>
  <property name="mlt_service">kdenlivetitle</property>
  <property name="kdenlive:clipname">Free Softwares trad 2</property>
  <property name="kdenlive:folderid">-1</property>
  <property name="xmldata">&lt;kdenlivetitle duration="120" LC_NUMERIC="fr_FR.UTF-8" width="1920" height="1080" out="120">
 &lt;item type="QGraphicsTextItem" z-index="0">
  &lt;position x="379" y="950">
   &lt;transform rotation="4,0,0" zoom="100">1,0,0,0,0.997564,-6.81216e-05,0,0,1&lt;/transform>
  &lt;/position>
  &lt;content line-spacing="0" shadow="0;#64000000;3;3;3" font-underline="0" box-height="60" font="Sans Serif" letter-spacing="0" font-pixel-size="26" font-italic="0" alignment="4" font-weight="50" box-width="1162.17" font-color="255,255,255,255">
This clip clop makes free software of gambling on networks and goat simulation program&lt;/content>
 &lt;/item>
 &lt;startviewport rect="0,0,1920,1080"/>
 &lt;endviewport rect="0,0,1920,1080"/>
 &lt;background color="0,0,0,255"/>
&lt;/kdenlivetitle>
</property>
  <property name="kdenlive:duration">120</property>
  <property name="force_reload">0</property>
  <property name="kdenlive:file_hash">dc9486399ed9dcf27be5e532e42dc218</property>
  <property name="global_feed">1</property>
  <property name="kdenlive:zone_in">0</property>
  <property name="kdenlive:zone_out">201</property>
  <property name="meta.media.width">1920</property>
  <property name="meta.media.height">1080</property>
 </producer>
 <producer title="Anonymous Submission" id="60" in="0" out="201">
  <property name="length">202</property>
  <property name="eof">pause</property>
  <property name="resource"/>
  <property name="progressive">1</property>
  <property name="aspect_ratio">1</property>
  <property name="seekable">1</property>
  <property name="mlt_service">kdenlivetitle</property>
  <property name="kdenlive:clipname">Free Softwares trad 3</property>
  <property name="kdenlive:folderid">-1</property>
  <property name="xmldata">&lt;kdenlivetitle duration="120" LC_NUMERIC="fr_FR.utf8" width="1920" height="1080" out="120">
 &lt;item type="QGraphicsTextItem" z-index="0">
  &lt;position x="331" y="933">
   &lt;transform>1,0,0,0,1,0,0,0,1&lt;/transform>
  &lt;/position>
  &lt;content line-spacing="0" shadow="0;#64000000;3;3;3" font-underline="0" box-height="90" font="Sans Serif" letter-spacing="0" font-pixel-size="26" font-italic="0" alignment="4" font-weight="50" box-width="1258.67" font-color="255,255,255,255">

Ce clip clop rend libre le logiciel de jeu sur les réseaux et le programme de simulation de chèvre&lt;/content>
 &lt;/item>
 &lt;startviewport rect="0,0,1920,1080"/>
 &lt;endviewport rect="0,0,1920,1080"/>
 &lt;background color="0,0,0,255"/>
&lt;/kdenlivetitle>
</property>
  <property name="kdenlive:duration">120</property>
  <property name="force_reload">0</property>
  <property name="kdenlive:file_hash">dc9486399ed9dcf27be5e532e42dc218</property>
  <property name="global_feed">1</property>
  <property name="kdenlive:zone_in">0</property>
  <property name="kdenlive:zone_out">201</property>
  <property name="meta.media.width">1920</property>
  <property name="meta.media.height">1080</property>
 </producer>
 <producer title="Anonymous Submission" id="61" in="0" out="201">
  <property name="length">202</property>
  <property name="eof">pause</property>
  <property name="resource"/>
  <property name="progressive">1</property>
  <property name="aspect_ratio">1</property>
  <property name="seekable">1</property>
  <property name="mlt_service">kdenlivetitle</property>
  <property name="kdenlive:clipname">Free Softwares trad 4</property>
  <property name="kdenlive:folderid">-1</property>
  <property name="xmldata">&lt;kdenlivetitle duration="120" LC_NUMERIC="fr_FR.UTF-8" width="1920" height="1080" out="120">
 &lt;item type="QGraphicsTextItem" z-index="0">
  &lt;position x="111" y="933">
   &lt;transform>1,0,0,0,1,0,0,0,1&lt;/transform>
  &lt;/position>
  &lt;content line-spacing="0" shadow="0;#64000000;3;3;3" font-underline="0" box-height="90" font="Sans Serif" letter-spacing="0" font-pixel-size="26" font-italic="0" alignment="4" font-weight="50" box-width="1697.53" font-color="255,255,255,255">

Этот Зажим Clop делает свободное программное обеспечение азартной игры на сетях и программе моделирования козла&lt;/content>
 &lt;/item>
 &lt;startviewport rect="0,0,1920,1080"/>
 &lt;endviewport rect="0,0,1920,1080"/>
 &lt;background color="0,0,0,255"/>
&lt;/kdenlivetitle>
</property>
  <property name="kdenlive:duration">120</property>
  <property name="force_reload">0</property>
  <property name="kdenlive:file_hash">dc9486399ed9dcf27be5e532e42dc218</property>
  <property name="global_feed">1</property>
  <property name="kdenlive:zone_in">0</property>
  <property name="kdenlive:zone_out">201</property>
  <property name="meta.media.width">1920</property>
  <property name="meta.media.height">1080</property>
 </producer>
 <producer id="62" in="0" out="161">
  <property name="length">162</property>
  <property name="eof">pause</property>
  <property name="resource">0xffffffff</property>
  <property name="aspect_ratio">1</property>
  <property name="mlt_service">color</property>
  <property name="kdenlive:clipname">Clip couleur</property>
  <property name="kdenlive:folderid">-1</property>
  <property name="kdenlive:duration">120</property>
  <property name="kdenlive:file_hash">039b56a692cd66eefeea44a17539e5a2</property>
 </producer>
 <playlist id="main bin">
  <property name="kdenlive:docproperties.audiotargettrack">2</property>
  <property name="kdenlive:docproperties.decimalPoint">,</property>
  <property name="kdenlive:docproperties.dirtypreviewchunks"/>
  <property name="kdenlive:docproperties.disablepreview">0</property>
  <property name="kdenlive:docproperties.documentid">1516638450852</property>
  <property name="kdenlive:docproperties.enableproxy">0</property>
  <property name="kdenlive:docproperties.generateimageproxy">1</property>
  <property name="kdenlive:docproperties.generateproxy">1</property>
  <property name="kdenlive:docproperties.kdenliveversion">18.12.0</property>
  <property name="kdenlive:docproperties.position">6071</property>
  <property name="kdenlive:docproperties.previewchunks"/>
  <property name="kdenlive:docproperties.previewextension"/>
  <property name="kdenlive:docproperties.previewparameters"/>
  <property name="kdenlive:docproperties.profile">atsc_1080p_24</property>
  <property name="kdenlive:docproperties.proxyextension">mpg</property>
  <property name="kdenlive:docproperties.proxyimageminsize">2000</property>
  <property name="kdenlive:docproperties.proxyminsize">1000</property>
  <property name="kdenlive:docproperties.proxyparams">-vf scale=640:-1 -g 5 -qscale 6 -ab 128k -vcodec mpeg2video -acodec mp2</property>
  <property name="kdenlive:docproperties.version">0.96</property>
  <property name="kdenlive:docproperties.verticalzoom">1</property>
  <property name="kdenlive:docproperties.videotargettrack">3</property>
  <property name="kdenlive:docproperties.zonein">5365</property>
  <property name="kdenlive:docproperties.zoneout">6343</property>
  <property name="kdenlive:docproperties.zoom">3</property>
  <property name="kdenlive:docmetadata.meta.attr.author.markup">Plagiat &amp; Joris Le Guidart</property>
  <property name="kdenlive:docmetadata.meta.attr.copyright.markup">Copyleft - Licence Art Libre 1.3</property>
  <property name="kdenlive:docmetadata.meta.attr.title.markup">Snapchat au Harem (part of)</property>
  <property name="kdenlive:docmetadata.meta.attr.year.markup">2018</property>
  <property name="kdenlive:documentnotes"/>
  <property name="kdenlive:clipgroups"/>
  <property name="kdenlive:guide.137,583">DebutTrap</property>
  <property name="kdenlive:guide.137">Snare</property>
  <property name="kdenlive:guide.142,625">Fuck</property>
  <property name="kdenlive:docproperties.renderaudioquality">192</property>
  <property name="kdenlive:docproperties.rendercategory">Generic (HD for web, mobile devices...)</property>
  <property name="kdenlive:docproperties.renderendguide">0</property>
  <property name="kdenlive:docproperties.renderexportaudio">0</property>
  <property name="kdenlive:docproperties.renderguide">0</property>
  <property name="kdenlive:docproperties.renderplay">0</property>
  <property name="kdenlive:docproperties.renderprofile">MP4 - the dominating format (H264/AAC)</property>
  <property name="kdenlive:docproperties.renderquality">19</property>
  <property name="kdenlive:docproperties.renderratio">1</property>
  <property name="kdenlive:docproperties.renderrescale">0</property>
  <property name="kdenlive:docproperties.renderrescaleheight">180</property>
  <property name="kdenlive:docproperties.renderrescalewidth">320</property>
  <property name="kdenlive:docproperties.renderscanning">0</property>
  <property name="kdenlive:docproperties.renderspeed">2</property>
  <property name="kdenlive:docproperties.renderstartguide">0</property>
  <property name="kdenlive:docproperties.rendertcoverlay">0</property>
  <property name="kdenlive:docproperties.rendertctype">0</property>
  <property name="kdenlive:docproperties.rendertwopass">0</property>
  <property name="kdenlive:docproperties.renderurl">/home/bordun/Clip01_SnapshatAuHarem/Rendus/08_Outro.mp4</property>
  <property name="kdenlive:docproperties.renderzone">1</property>
  <property name="kdenlive:guide.116,208">Pont</property>
  <property name="kdenlive:customeffects">&lt;customeffects>
 &lt;effect type="custom" unique="1" id="rumble" tag="oldfilm" kdenlive_info="0/-1/" effectcolor="#c92c3e" disable="0">
  &lt;name>rumble&lt;/name>
  &lt;description>Moves the Picture up and down and random brightness change&lt;/description>
  &lt;author>Marco Gittler&lt;/author>
  &lt;parameter type="double" name="delta" value="11" min="0" max="400" default="14">
   &lt;name>Y-Delta&lt;/name>
  &lt;/parameter>
  &lt;parameter type="double" suffix="%" name="every" value="100" min="0" max="100" default="20">
   &lt;name>% of picture have a delta&lt;/name>
  &lt;/parameter>
  &lt;parameter type="double" name="brightnessdelta_up" value="0" min="0" max="100" default="20">
   &lt;name>Brightness up&lt;/name>
  &lt;/parameter>
  &lt;parameter type="double" name="brightnessdelta_down" value="0" min="0" max="100" default="30">
   &lt;name>Brightness down&lt;/name>
  &lt;/parameter>
  &lt;parameter type="double" suffix="%" name="brightnessdelta_every" value="100" min="0" max="100" default="70">
   &lt;name>Brightness every&lt;/name>
  &lt;/parameter>
  &lt;parameter type="double" name="unevendevelop_up" value="0" min="0" max="100" default="60">
   &lt;name>Unevendevelop up&lt;/name>
  &lt;/parameter>
  &lt;parameter type="double" name="unevendevelop_down" value="0" min="0" max="100" default="20">
   &lt;name>Unevendevelop down&lt;/name>
  &lt;/parameter>
  &lt;parameter type="double" name="unevendevelop_duration" value="0" min="0" max="10000" default="70">
   &lt;name>Unevendevelop Duration&lt;/name>
  &lt;/parameter>
  &lt;version>0,2&lt;/version>
  &lt;version>0,2&lt;/version>
 &lt;/effect>
&lt;/customeffects>
</property>
  <property name="xml_retain">1</property>
  <entry producer="1" in="0" out="4287"/>
  <blank length="3455"/>
  <entry producer="23" in="0" out="4106"/>
  <entry producer="26" in="0" out="3990"/>
  <entry producer="21" in="0" out="3033"/>
  <entry producer="24" in="0" out="302"/>
  <entry producer="22" in="0" out="2601"/>
  <entry producer="25" in="0" out="1815"/>
  <entry producer="27" in="0" out="119"/>
  <entry producer="28" in="0" out="119"/>
  <entry producer="29" in="0" out="119"/>
  <entry producer="30" in="0" out="1904"/>
  <entry producer="31" in="0" out="119"/>
  <entry producer="32" in="0" out="119"/>
  <entry producer="33" in="0" out="119"/>
  <entry producer="34" in="0" out="119"/>
  <entry producer="35" in="0" out="119"/>
  <entry producer="36" in="0" out="119"/>
  <entry producer="37" in="0" out="119"/>
  <entry producer="38" in="0" out="119"/>
  <entry producer="39" in="0" out="119"/>
  <entry producer="40" in="0" out="119"/>
  <entry producer="41" in="0" out="119"/>
  <entry producer="42" in="0" out="119"/>
  <entry producer="43" in="0" out="119"/>
  <entry producer="44" in="0" out="119"/>
  <entry producer="45" in="0" out="119"/>
  <entry producer="46" in="0" out="119"/>
  <entry producer="47" in="0" out="119"/>
  <entry producer="48" in="0" out="119"/>
  <entry producer="49" in="0" out="119"/>
  <entry producer="50" in="0" out="119"/>
  <entry producer="51" in="0" out="119"/>
  <entry producer="52" in="0" out="119"/>
  <entry producer="53" in="0" out="119"/>
  <entry producer="54" in="0" out="119"/>
  <entry producer="55" in="0" out="119"/>
  <entry producer="56" in="0" out="138"/>
  <entry producer="58" in="0" out="201"/>
  <entry producer="59" in="0" out="201"/>
  <entry producer="60" in="0" out="201"/>
  <entry producer="61" in="0" out="201"/>
  <entry producer="62" in="0" out="119"/>
 </playlist>
 <producer id="black" in="0" out="18669">
  <property name="length">18670</property>
  <property name="eof">pause</property>
  <property name="resource">black</property>
  <property name="aspect_ratio">0</property>
  <property name="mlt_service">colour</property>
  <property name="set.test_audio">0</property>
 </producer>
 <playlist id="black_track">
  <entry producer="black" in="0" out="6613"/>
 </playlist>
 <playlist id="playlist1">
  <property name="kdenlive:track_name">Audio 2</property>
  <property name="kdenlive:audio_track">1</property>
  <blank length="1503"/>
  <blank length="3145"/>
  <blank length="1965"/>
 </playlist>
 <producer title="Anonymous Submission" id="1_playlist2" in="0" out="4287">
  <property name="length">00:02:58:16</property>
  <property name="eof">pause</property>
  <property name="resource">/home/bordun/Clip01_SnapshatAuHarem/Audio/Snapchat_au_Harem.flac</property>
  <property name="audio_index">0</property>
  <property name="video_index">-1</property>
  <property name="mute_on_pause">1</property>
  <property name="mlt_service">avformat-novalidate</property>
  <property name="seekable">1</property>
  <property name="kdenlive:folderid">-1</property>
  <property name="kdenlive:file_size">16614188</property>
  <property name="kdenlive:file_hash">115a31e39ebfe7c973cc2dc7b9f7cbf8</property>
  <property name="global_feed">1</property>
  <property name="xml">was here</property>
  <property name="meta.media.nb_streams">1</property>
  <property name="meta.media.0.stream.type">audio</property>
  <property name="meta.media.0.codec.sample_fmt">s16</property>
  <property name="meta.media.0.codec.sample_rate">48000</property>
  <property name="meta.media.0.codec.channels">2</property>
  <property name="meta.media.0.codec.name">flac</property>
  <property name="meta.media.0.codec.long_name">FLAC (Free Lossless Audio Codec)</property>
  <property name="meta.media.0.codec.bit_rate">0</property>
 </producer>
 <playlist id="playlist2">
  <property name="kdenlive:track_name">Audio 1</property>
  <property name="kdenlive:audio_track">1</property>
  <property name="kdenlive:locked_track">1</property>
  <blank length="1440"/>
  <entry producer="1_playlist2" in="0" out="3180">
   <filter id="fadeout" in="3131" out="3180">
    <property name="window">75</property>
    <property name="max_gain">20dB</property>
    <property name="mlt_service">volume</property>
    <property name="kdenlive_id">fadeout</property>
    <property name="tag">volume</property>
    <property name="kdenlive_ix">1</property>
    <property name="gain">1</property>
    <property name="end">0</property>
   </filter>
  </entry>
 </playlist>
 <playlist id="playlist3">
  <property name="kdenlive:track_name">Video 1</property>
  <filter id="frei0r.vignette">
   <property name="version">0,2</property>
   <property name="mlt_service">frei0r.vignette</property>
   <property name="kdenlive_id">frei0r.vignette</property>
   <property name="tag">frei0r.vignette</property>
   <property name="kdenlive_ix">1</property>
   <property name="kdenlive_info"/>
   <property name="aspect">0=0,823</property>
   <property name="clearCenter">0=0,349</property>
   <property name="soft">0=0,167</property>
   <property name="disable">0</property>
  </filter>
  <filter id="frei0r.dither">
   <property name="version">0,1</property>
   <property name="mlt_service">frei0r.dither</property>
   <property name="kdenlive_id">frei0r.dither</property>
   <property name="tag">frei0r.dither</property>
   <property name="kdenlive_ix">2</property>
   <property name="kdenlive_info"/>
   <property name="0">0,104167</property>
   <property name="1">1</property>
   <property name="disable">0</property>
  </filter>
  <filter id="pan_zoom">
   <property name="background">colour:0x00000000</property>
   <property name="mlt_service">affine</property>
   <property name="kdenlive_id">pan_zoom</property>
   <property name="tag">affine</property>
   <property name="kdenlive_ix">3</property>
   <property name="kdenlive_info"/>
   <property name="transition.geometry">243/270:960x540:100</property>
   <property name="transition.distort">0</property>
   <property name="disable">0</property>
  </filter>
 </playlist>
 <producer title="Anonymous Submission" id="21_playlist9" in="0" out="3033">
  <property name="length">00:02:06:10</property>
  <property name="eof">pause</property>
  <property name="resource">/media/bordun/Odile/SnapshatAuHarem/etalo/CAM2_2017-11-24_1208_C0005.mov</property>
  <property name="audio_index">2</property>
  <property name="video_index">0</property>
  <property name="mute_on_pause">1</property>
  <property name="mlt_service">avformat-novalidate</property>
  <property name="seekable">1</property>
  <property name="aspect_ratio">1</property>
  <property name="kdenlive:folderid">-1</property>
  <property name="kdenlive:file_size">2820501057</property>
  <property name="kdenlive:file_hash">305214fc03958c6bab5f7b3a3ad15a92</property>
  <property name="kdenlive:proxy">-</property>
  <property name="proxy_out">3033</property>
  <property name="kdenlive:originalurl">src/TheWholeRushes/Samedi_soir/CAM2_2017-11-24_1208_C0005.mov</property>
  <property name="global_feed">1</property>
  <property name="kdenlive:meta.media.nb_streams">3</property>
  <property name="kdenlive:meta.media.1.stream.type">video</property>
  <property name="kdenlive:meta.media.1.stream.frame_rate">24</property>
  <property name="kdenlive:meta.media.1.stream.sample_aspect_ratio">1</property>
  <property name="kdenlive:meta.media.1.codec.width">1920</property>
  <property name="kdenlive:meta.media.1.codec.height">1080</property>
  <property name="kdenlive:meta.media.1.codec.rotate">0</property>
  <property name="kdenlive:meta.media.1.codec.frame_rate">2400</property>
  <property name="kdenlive:meta.media.1.codec.pix_fmt">yuv422p10le</property>
  <property name="kdenlive:meta.media.1.codec.sample_aspect_ratio">0</property>
  <property name="kdenlive:meta.media.1.codec.colorspace">709</property>
  <property name="kdenlive:meta.media.1.codec.color_trc">1</property>
  <property name="kdenlive:meta.media.1.codec.name">prores</property>
  <property name="kdenlive:meta.media.1.codec.long_name">ProRes</property>
  <property name="kdenlive:meta.media.1.codec.bit_rate">176138297</property>
  <property name="kdenlive:meta.attr.1.stream.creation_time.markup">2017-11-24T12:08:53.000000Z</property>
  <property name="kdenlive:meta.attr.1.stream.language.markup">eng</property>
  <property name="kdenlive:meta.attr.1.stream.handler_name.markup">Apple Alias Data Handler</property>
  <property name="kdenlive:meta.attr.1.stream.encoder.markup">Apple ProRes 422 HQ</property>
  <property name="kdenlive:meta.attr.1.stream.timecode.markup">12:08:53:19</property>
  <property name="kdenlive:meta.media.2.stream.type">audio</property>
  <property name="kdenlive:meta.media.2.codec.sample_fmt">s32</property>
  <property name="kdenlive:meta.media.2.codec.sample_rate">48000</property>
  <property name="kdenlive:meta.media.2.codec.channels">2</property>
  <property name="kdenlive:meta.media.2.codec.name">pcm_s24le</property>
  <property name="kdenlive:meta.media.2.codec.long_name">PCM signed 24-bit little-endian</property>
  <property name="kdenlive:meta.media.2.codec.bit_rate">2304000</property>
  <property name="kdenlive:meta.attr.2.stream.creation_time.markup">2017-11-24T12:08:53.000000Z</property>
  <property name="kdenlive:meta.attr.2.stream.language.markup">eng</property>
  <property name="kdenlive:meta.attr.2.stream.handler_name.markup">Apple Alias Data Handler</property>
  <property name="kdenlive:meta.attr.2.stream.timecode.markup">12:08:53:19</property>
  <property name="kdenlive:meta.attr.com.apple.proapps.manufacturer.markup">Blackmagic Design</property>
  <property name="kdenlive:meta.attr.com.apple.proapps.cameraName.markup">CAM2</property>
  <property name="kdenlive:meta.attr.com.apple.proapps.isGood.markup">0</property>
  <property name="kdenlive:meta.attr.com.apple.proapps.customgamma.markup">com.blackmagic-design.cinemacamera.filmlog</property>
  <property name="kdenlive:meta.attr.com.blackmagic-design.cinemacamera.uuid.markup">18E5E00548F94923B646613A73C01B56</property>
  <property name="kdenlive:meta.attr.creation_time.markup">2017-11-24T12:08:53.000000Z</property>
  <property name="kdenlive:meta.attr.timecode.markup">12:08:53:19</property>
  <property name="kdenlive:meta.media.sample_aspect_num">1</property>
  <property name="kdenlive:meta.media.sample_aspect_den">1</property>
  <property name="kdenlive:meta.media.frame_rate_num">24</property>
  <property name="kdenlive:meta.media.frame_rate_den">1</property>
  <property name="kdenlive:meta.media.colorspace">709</property>
  <property name="kdenlive:meta.media.color_trc">1</property>
  <property name="kdenlive:meta.media.width">1920</property>
  <property name="kdenlive:meta.media.height">1080</property>
  <property name="kdenlive:meta.media.top_field_first">0</property>
  <property name="kdenlive:meta.media.progressive">1</property>
  <property name="xml">was here</property>
  <property name="meta.media.nb_streams">2</property>
  <property name="meta.media.1.stream.type">video</property>
  <property name="meta.media.1.stream.frame_rate">24</property>
  <property name="meta.media.1.stream.sample_aspect_ratio">1</property>
  <property name="meta.media.1.codec.width">1920</property>
  <property name="meta.media.1.codec.height">1080</property>
  <property name="meta.media.1.codec.rotate">0</property>
  <property name="meta.media.1.codec.frame_rate">2400</property>
  <property name="meta.media.1.codec.pix_fmt">yuv422p10le</property>
  <property name="meta.media.1.codec.sample_aspect_ratio">0</property>
  <property name="meta.media.1.codec.colorspace">709</property>
  <property name="meta.media.1.codec.color_trc">1</property>
  <property name="meta.media.1.codec.name">prores</property>
  <property name="meta.media.1.codec.long_name">ProRes</property>
  <property name="meta.media.1.codec.bit_rate">176138297</property>
  <property name="meta.attr.1.stream.creation_time.markup">2017-11-24T12:08:53.000000Z</property>
  <property name="meta.attr.1.stream.language.markup">eng</property>
  <property name="meta.attr.1.stream.handler_name.markup">Apple Alias Data Handler</property>
  <property name="meta.attr.1.stream.encoder.markup">Apple ProRes 422 HQ</property>
  <property name="meta.attr.1.stream.timecode.markup">12:08:53:19</property>
  <property name="meta.media.2.stream.type">audio</property>
  <property name="meta.media.2.codec.sample_fmt">s32</property>
  <property name="meta.media.2.codec.sample_rate">48000</property>
  <property name="meta.media.2.codec.channels">2</property>
  <property name="meta.media.2.codec.name">pcm_s24le</property>
  <property name="meta.media.2.codec.long_name">PCM signed 24-bit little-endian</property>
  <property name="meta.media.2.codec.bit_rate">2304000</property>
  <property name="meta.attr.2.stream.creation_time.markup">2017-11-24T12:08:53.000000Z</property>
  <property name="meta.attr.2.stream.language.markup">eng</property>
  <property name="meta.attr.2.stream.handler_name.markup">Apple Alias Data Handler</property>
  <property name="meta.attr.2.stream.timecode.markup">12:08:53:19</property>
  <property name="meta.attr.com.apple.proapps.manufacturer.markup">Blackmagic Design</property>
  <property name="meta.attr.com.apple.proapps.cameraName.markup">CAM2</property>
  <property name="meta.attr.com.apple.proapps.isGood.markup">0</property>
  <property name="meta.attr.com.apple.proapps.customgamma.markup">com.blackmagic-design.cinemacamera.filmlog</property>
  <property name="meta.attr.com.blackmagic-design.cinemacamera.uuid.markup">18E5E00548F94923B646613A73C01B56</property>
  <property name="meta.attr.creation_time.markup">2017-11-24T12:08:53.000000Z</property>
  <property name="meta.attr.timecode.markup">12:08:53:19</property>
  <property name="meta.media.sample_aspect_num">1</property>
  <property name="meta.media.sample_aspect_den">1</property>
  <property name="meta.media.frame_rate_num">24</property>
  <property name="meta.media.frame_rate_den">1</property>
  <property name="meta.media.colorspace">709</property>
  <property name="meta.media.color_trc">1</property>
  <property name="meta.media.width">1920</property>
  <property name="meta.media.height">1080</property>
  <property name="meta.media.top_field_first">0</property>
  <property name="meta.media.progressive">1</property>
  <property name="meta.media.0.stream.type">video</property>
  <property name="meta.media.0.stream.frame_rate">24</property>
  <property name="meta.media.0.stream.sample_aspect_ratio">1</property>
  <property name="meta.media.0.codec.width">1920</property>
  <property name="meta.media.0.codec.height">1080</property>
  <property name="meta.media.0.codec.rotate">0</property>
  <property name="meta.media.0.codec.frame_rate">12288</property>
  <property name="meta.media.0.codec.pix_fmt">yuv422p10le</property>
  <property name="meta.media.0.codec.sample_aspect_ratio">0</property>
  <property name="meta.media.0.codec.colorspace">709</property>
  <property name="meta.media.0.codec.color_trc">1</property>
  <property name="meta.media.0.codec.name">dnxhd</property>
  <property name="meta.media.0.codec.long_name">VC3/DNxHD</property>
  <property name="meta.media.0.codec.bit_rate">176160768</property>
  <property name="meta.attr.0.stream.language.markup">eng</property>
  <property name="meta.attr.0.stream.handler_name.markup">Core Media Data Handler</property>
  <property name="meta.attr.0.stream.timecode.markup">12:08:53:19</property>
  <property name="meta.attr.major_brand.markup">qt  </property>
  <property name="meta.attr.minor_version.markup">512</property>
  <property name="meta.attr.compatible_brands.markup">qt  </property>
  <property name="meta.attr.encoder.markup">Lavf57.25.100</property>
 </producer>
 <playlist id="playlist9">
  <property name="kdenlive:track_name">Video 8</property>
  <blank length="4711"/>
  <entry producer="21_playlist9" in="592" out="2107">
   <filter id="fade_from_black" in="592" out="719">
    <property name="start">0</property>
    <property name="mlt_service">brightness</property>
    <property name="kdenlive_id">fade_from_black</property>
    <property name="tag">brightness</property>
    <property name="kdenlive_ix">1</property>
    <property name="kdenlive_info"/>
    <property name="disable"/>
    <property name="end">1</property>
   </filter>
   <filter id="fade_to_black" in="2003" out="2108">
    <property name="start">1</property>
    <property name="mlt_service">brightness</property>
    <property name="kdenlive_id">fade_to_black</property>
    <property name="tag">brightness</property>
    <property name="kdenlive_ix">2</property>
    <property name="end">0</property>
    <property name="kdenlive_info"/>
    <property name="disable"/>
   </filter>
  </entry>
  <filter id="frei0r.levels">
   <property name="version">0,3</property>
   <property name="mlt_service">frei0r.levels</property>
   <property name="kdenlive_id">frei0r.levels</property>
   <property name="tag">frei0r.levels</property>
   <property name="kdenlive_ix">1</property>
   <property name="kdenlive_info">1/-1/</property>
   <property name="Channel">0,3</property>
   <property name="Input black level">0=0</property>
   <property name="Input white level">0=1</property>
   <property name="Gamma">0=0,3185</property>
   <property name="Black output">0=0</property>
   <property name="White output">0=0,863</property>
   <property name="Show histogram">0</property>
   <property name="Histogram position">0,3</property>
   <property name="disable"/>
  </filter>
  <filter id="filter0">
   <property name="version">0,1</property>
   <property name="mlt_service">frei0r.dither</property>
   <property name="kdenlive_id">frei0r.dither</property>
   <property name="tag">frei0r.dither</property>
   <property name="kdenlive_ix">2</property>
   <property name="kdenlive_info">0/-1/</property>
   <property name="0">0,17</property>
   <property name="1">0</property>
   <property name="disable">0</property>
  </filter>
  <filter id="filter1">
   <property name="background">colour:0x00000000</property>
   <property name="mlt_service">affine</property>
   <property name="kdenlive_id">pan_zoom</property>
   <property name="tag">affine</property>
   <property name="kdenlive_ix">3</property>
   <property name="kdenlive_info">1/-1/</property>
   <property name="transition.geometry">243/270:960x540:100</property>
   <property name="transition.distort">0</property>
   <property name="disable">0</property>
  </filter>
 </playlist>
 <playlist id="playlist10">
  <property name="kdenlive:track_name">Video 9</property>
  <blank length="4711"/>
  <entry producer="28" in="0" out="1515">
   <filter id="filter2" in="1411" out="1516">
    <property name="start">1</property>
    <property name="mlt_service">brightness</property>
    <property name="kdenlive_id">fade_to_black</property>
    <property name="tag">brightness</property>
    <property name="kdenlive_ix">1</property>
    <property name="end">0</property>
    <property name="kdenlive_info"/>
    <property name="disable"/>
   </filter>
  </entry>
  <filter id="filter3">
   <property name="background">colour:0x00000000</property>
   <property name="mlt_service">affine</property>
   <property name="kdenlive_id">pan_zoom</property>
   <property name="tag">affine</property>
   <property name="kdenlive_ix">1</property>
   <property name="kdenlive_info"/>
   <property name="transition.geometry">-245/0:1920x1080:100</property>
   <property name="transition.distort">0</property>
   <property name="disable"/>
  </filter>
 </playlist>
 <playlist id="playlist4">
  <property name="kdenlive:track_name">Video 2</property>
  <blank length="4790"/>
  <entry producer="30" in="0" out="1436">
   <filter id="filter4" in="1332" out="1437">
    <property name="start">1</property>
    <property name="mlt_service">brightness</property>
    <property name="kdenlive_id">fade_to_black</property>
    <property name="tag">brightness</property>
    <property name="kdenlive_ix">1</property>
    <property name="end">0</property>
    <property name="disable">0</property>
    <property name="kdenlive_info"/>
   </filter>
  </entry>
  <filter id="filter5">
   <property name="background">colour:0x00000000</property>
   <property name="mlt_service">affine</property>
   <property name="kdenlive_id">pan_zoom</property>
   <property name="tag">affine</property>
   <property name="kdenlive_ix">1</property>
   <property name="kdenlive_info"/>
   <property name="transition.geometry">-218/0:1920x1080:100</property>
   <property name="transition.distort">0</property>
  </filter>
 </playlist>
 <playlist id="playlist5">
  <property name="kdenlive:track_name">Video 3</property>
  <property name="kdenlive:locked_track">0</property>
  <blank length="4899"/>
  <entry producer="29" in="0" out="67">
   <filter id="filter6" out="3">
    <property name="start">0</property>
    <property name="mlt_service">brightness</property>
    <property name="kdenlive_id">fade_from_black</property>
    <property name="tag">brightness</property>
    <property name="kdenlive_ix">1</property>
    <property name="end">1</property>
    <property name="kdenlive_info"/>
    <property name="disable">1</property>
   </filter>
   <filter id="filter7" in="64" out="67">
    <property name="start">1</property>
    <property name="mlt_service">brightness</property>
    <property name="kdenlive_id">fade_to_black</property>
    <property name="tag">brightness</property>
    <property name="kdenlive_ix">2</property>
    <property name="end">0</property>
    <property name="kdenlive_info"/>
    <property name="disable">0</property>
   </filter>
  </entry>
  <entry producer="31" in="0" out="68">
   <filter id="filter8" out="3">
    <property name="start">0</property>
    <property name="mlt_service">brightness</property>
    <property name="kdenlive_id">fade_from_black</property>
    <property name="tag">brightness</property>
    <property name="kdenlive_ix">1</property>
    <property name="end">1</property>
   </filter>
  </entry>
  <entry producer="31" in="74" out="75">
   <filter id="frei0r.glitch0r">
    <property name="version">0,1</property>
    <property name="mlt_service">frei0r.glitch0r</property>
    <property name="kdenlive_id">frei0r.glitch0r</property>
    <property name="tag">frei0r.glitch0r</property>
    <property name="kdenlive_ix">1</property>
    <property name="0">1</property>
    <property name="1">0,006</property>
    <property name="2">0,04</property>
    <property name="3">0</property>
    <property name="kdenlive_info"/>
    <property name="disable"/>
   </filter>
  </entry>
  <entry producer="55" in="0" out="0">
   <filter id="filter9">
    <property name="version">0,1</property>
    <property name="mlt_service">frei0r.glitch0r</property>
    <property name="kdenlive_id">frei0r.glitch0r</property>
    <property name="tag">frei0r.glitch0r</property>
    <property name="kdenlive_info"/>
    <property name="kdenlive_ix">1</property>
    <property name="disable"/>
    <property name="0">1</property>
    <property name="1">0,006</property>
    <property name="2">0,04</property>
    <property name="3">0</property>
   </filter>
  </entry>
  <entry producer="55" in="1" out="56">
   <filter id="filter10" in="54" out="57">
    <property name="start">1</property>
    <property name="mlt_service">brightness</property>
    <property name="kdenlive_id">fade_to_black</property>
    <property name="tag">brightness</property>
    <property name="kdenlive_ix">1</property>
    <property name="end">0</property>
    <property name="kdenlive_info"/>
   </filter>
  </entry>
  <entry producer="33" in="0" out="44">
   <filter id="filter11" out="3">
    <property name="start">0</property>
    <property name="mlt_service">brightness</property>
    <property name="kdenlive_id">fade_from_black</property>
    <property name="tag">brightness</property>
    <property name="kdenlive_ix">1</property>
    <property name="kdenlive_info"/>
    <property name="disable"/>
    <property name="end">1</property>
   </filter>
   <filter id="filter12" in="41" out="44">
    <property name="start">1</property>
    <property name="mlt_service">brightness</property>
    <property name="kdenlive_id">fade_to_black</property>
    <property name="tag">brightness</property>
    <property name="kdenlive_ix">2</property>
    <property name="kdenlive_info"/>
    <property name="disable"/>
    <property name="end">0</property>
   </filter>
  </entry>
  <entry producer="34" in="41" out="85">
   <filter id="filter13" in="41" out="44">
    <property name="start">0</property>
    <property name="mlt_service">brightness</property>
    <property name="kdenlive_id">fade_from_black</property>
    <property name="tag">brightness</property>
    <property name="kdenlive_ix">1</property>
    <property name="kdenlive_info"/>
    <property name="disable"/>
    <property name="end">1</property>
   </filter>
   <filter id="filter14" in="82" out="85">
    <property name="start">1</property>
    <property name="mlt_service">brightness</property>
    <property name="kdenlive_id">fade_to_black</property>
    <property name="tag">brightness</property>
    <property name="kdenlive_ix">2</property>
    <property name="kdenlive_info"/>
    <property name="disable"/>
    <property name="end">0</property>
   </filter>
  </entry>
  <entry producer="35" in="0" out="44">
   <filter id="filter15" out="3">
    <property name="start">0</property>
    <property name="mlt_service">brightness</property>
    <property name="kdenlive_id">fade_from_black</property>
    <property name="tag">brightness</property>
    <property name="kdenlive_ix">1</property>
    <property name="kdenlive_info"/>
    <property name="disable"/>
    <property name="end">1</property>
   </filter>
   <filter id="filter16" in="41" out="44">
    <property name="start">1</property>
    <property name="mlt_service">brightness</property>
    <property name="kdenlive_id">fade_to_black</property>
    <property name="tag">brightness</property>
    <property name="kdenlive_ix">2</property>
    <property name="kdenlive_info"/>
    <property name="disable"/>
    <property name="end">0</property>
   </filter>
  </entry>
  <entry producer="40" in="0" out="44">
   <filter id="filter17" out="3">
    <property name="start">0</property>
    <property name="mlt_service">brightness</property>
    <property name="kdenlive_id">fade_from_black</property>
    <property name="tag">brightness</property>
    <property name="kdenlive_ix">1</property>
    <property name="kdenlive_info"/>
    <property name="disable"/>
    <property name="end">1</property>
   </filter>
   <filter id="filter18" in="41" out="44">
    <property name="start">1</property>
    <property name="mlt_service">brightness</property>
    <property name="kdenlive_id">fade_to_black</property>
    <property name="tag">brightness</property>
    <property name="kdenlive_ix">2</property>
    <property name="kdenlive_info"/>
    <property name="disable"/>
    <property name="end">0</property>
   </filter>
  </entry>
  <entry producer="41" in="0" out="44">
   <filter id="filter19" out="3">
    <property name="start">0</property>
    <property name="mlt_service">brightness</property>
    <property name="kdenlive_id">fade_from_black</property>
    <property name="tag">brightness</property>
    <property name="kdenlive_ix">1</property>
    <property name="kdenlive_info"/>
    <property name="disable"/>
    <property name="end">1</property>
   </filter>
   <filter id="filter20" in="41" out="44">
    <property name="start">1</property>
    <property name="mlt_service">brightness</property>
    <property name="kdenlive_id">fade_to_black</property>
    <property name="tag">brightness</property>
    <property name="kdenlive_ix">2</property>
    <property name="kdenlive_info"/>
    <property name="disable"/>
    <property name="end">0</property>
   </filter>
  </entry>
  <entry producer="38" in="0" out="44">
   <filter id="filter21" out="3">
    <property name="start">0</property>
    <property name="mlt_service">brightness</property>
    <property name="kdenlive_id">fade_from_black</property>
    <property name="tag">brightness</property>
    <property name="kdenlive_ix">1</property>
    <property name="kdenlive_info"/>
    <property name="disable"/>
    <property name="end">1</property>
   </filter>
   <filter id="filter22" in="41" out="44">
    <property name="start">1</property>
    <property name="mlt_service">brightness</property>
    <property name="kdenlive_id">fade_to_black</property>
    <property name="tag">brightness</property>
    <property name="kdenlive_ix">2</property>
    <property name="kdenlive_info"/>
    <property name="disable"/>
    <property name="end">0</property>
   </filter>
  </entry>
  <entry producer="36" in="0" out="44">
   <filter id="filter23" out="3">
    <property name="start">0</property>
    <property name="mlt_service">brightness</property>
    <property name="kdenlive_id">fade_from_black</property>
    <property name="tag">brightness</property>
    <property name="kdenlive_ix">1</property>
    <property name="kdenlive_info"/>
    <property name="disable"/>
    <property name="end">1</property>
   </filter>
   <filter id="filter24" in="41" out="44">
    <property name="start">1</property>
    <property name="mlt_service">brightness</property>
    <property name="kdenlive_id">fade_to_black</property>
    <property name="tag">brightness</property>
    <property name="kdenlive_ix">2</property>
    <property name="kdenlive_info"/>
    <property name="disable"/>
    <property name="end">0</property>
   </filter>
  </entry>
  <entry producer="39" in="0" out="44">
   <filter id="filter25" out="3">
    <property name="start">0</property>
    <property name="mlt_service">brightness</property>
    <property name="kdenlive_id">fade_from_black</property>
    <property name="tag">brightness</property>
    <property name="kdenlive_ix">1</property>
    <property name="kdenlive_info"/>
    <property name="disable"/>
    <property name="end">1</property>
   </filter>
   <filter id="filter26" in="41" out="44">
    <property name="start">1</property>
    <property name="mlt_service">brightness</property>
    <property name="kdenlive_id">fade_to_black</property>
    <property name="tag">brightness</property>
    <property name="kdenlive_ix">2</property>
    <property name="kdenlive_info"/>
    <property name="disable"/>
    <property name="end">0</property>
   </filter>
  </entry>
  <entry producer="37" in="0" out="44">
   <filter id="filter27" out="3">
    <property name="start">0</property>
    <property name="mlt_service">brightness</property>
    <property name="kdenlive_id">fade_from_black</property>
    <property name="tag">brightness</property>
    <property name="kdenlive_ix">1</property>
    <property name="kdenlive_info"/>
    <property name="disable"/>
    <property name="end">1</property>
   </filter>
   <filter id="filter28" in="41" out="44">
    <property name="start">1</property>
    <property name="mlt_service">brightness</property>
    <property name="kdenlive_id">fade_to_black</property>
    <property name="tag">brightness</property>
    <property name="kdenlive_ix">2</property>
    <property name="kdenlive_info"/>
    <property name="disable"/>
    <property name="end">0</property>
   </filter>
  </entry>
  <entry producer="42" in="41" out="93">
   <filter id="filter29" in="41" out="44">
    <property name="start">0</property>
    <property name="mlt_service">brightness</property>
    <property name="kdenlive_id">fade_from_black</property>
    <property name="tag">brightness</property>
    <property name="kdenlive_ix">1</property>
    <property name="kdenlive_info"/>
    <property name="disable"/>
    <property name="end">1</property>
   </filter>
   <filter id="filter30" in="90" out="93">
    <property name="start">1</property>
    <property name="mlt_service">brightness</property>
    <property name="kdenlive_id">fade_to_black</property>
    <property name="tag">brightness</property>
    <property name="kdenlive_ix">2</property>
    <property name="kdenlive_info"/>
    <property name="disable"/>
    <property name="end">0</property>
   </filter>
  </entry>
  <entry producer="43" in="0" out="52">
   <filter id="filter31" out="3">
    <property name="start">0</property>
    <property name="mlt_service">brightness</property>
    <property name="kdenlive_id">fade_from_black</property>
    <property name="tag">brightness</property>
    <property name="kdenlive_ix">1</property>
    <property name="kdenlive_info"/>
    <property name="disable"/>
    <property name="end">1</property>
   </filter>
   <filter id="filter32" in="49" out="52">
    <property name="start">1</property>
    <property name="mlt_service">brightness</property>
    <property name="kdenlive_id">fade_to_black</property>
    <property name="tag">brightness</property>
    <property name="kdenlive_ix">2</property>
    <property name="kdenlive_info"/>
    <property name="disable"/>
    <property name="end">0</property>
   </filter>
  </entry>
  <entry producer="45" in="0" out="52">
   <filter id="filter33" out="3">
    <property name="start">0</property>
    <property name="mlt_service">brightness</property>
    <property name="kdenlive_id">fade_from_black</property>
    <property name="tag">brightness</property>
    <property name="kdenlive_ix">1</property>
    <property name="kdenlive_info"/>
    <property name="disable"/>
    <property name="end">1</property>
   </filter>
   <filter id="filter34" in="49" out="52">
    <property name="start">1</property>
    <property name="mlt_service">brightness</property>
    <property name="kdenlive_id">fade_to_black</property>
    <property name="tag">brightness</property>
    <property name="kdenlive_ix">2</property>
    <property name="kdenlive_info"/>
    <property name="disable"/>
    <property name="end">0</property>
   </filter>
  </entry>
  <entry producer="46" in="41" out="93">
   <filter id="filter35" in="41" out="44">
    <property name="start">0</property>
    <property name="mlt_service">brightness</property>
    <property name="kdenlive_id">fade_from_black</property>
    <property name="tag">brightness</property>
    <property name="kdenlive_ix">1</property>
    <property name="kdenlive_info"/>
    <property name="disable"/>
    <property name="end">1</property>
   </filter>
   <filter id="filter36" in="90" out="93">
    <property name="start">1</property>
    <property name="mlt_service">brightness</property>
    <property name="kdenlive_id">fade_to_black</property>
    <property name="tag">brightness</property>
    <property name="kdenlive_ix">3</property>
    <property name="end">0</property>
   </filter>
   <filter id="filter37" in="41" out="44">
    <property name="start">0</property>
    <property name="mlt_service">brightness</property>
    <property name="kdenlive_id">fade_from_black</property>
    <property name="tag">brightness</property>
    <property name="kdenlive_ix">4</property>
    <property name="kdenlive_info"/>
    <property name="disable"/>
    <property name="end">1</property>
   </filter>
  </entry>
  <filter id="filter39">
   <property name="background">colour:0x00000000</property>
   <property name="mlt_service">affine</property>
   <property name="kdenlive_id">pan_zoom</property>
   <property name="tag">affine</property>
   <property name="kdenlive_ix">1</property>
   <property name="kdenlive_info"/>
   <property name="disable"/>
   <property name="transition.geometry">610/0:1920x1080:100</property>
   <property name="transition.distort">0</property>
  </filter>
 </playlist>
 <playlist id="playlist0">
  <property name="kdenlive:track_name">Video 4</property>
  <blank length="5095"/>
  <entry producer="32" in="0" out="404">
   <filter id="filter40" out="3">
    <property name="start">0</property>
    <property name="mlt_service">brightness</property>
    <property name="kdenlive_id">fade_from_black</property>
    <property name="tag">brightness</property>
    <property name="kdenlive_ix">1</property>
    <property name="kdenlive_info"/>
    <property name="disable"/>
    <property name="end">1</property>
   </filter>
   <filter id="filter41" in="401" out="404">
    <property name="start">1</property>
    <property name="mlt_service">brightness</property>
    <property name="kdenlive_id">fade_to_black</property>
    <property name="tag">brightness</property>
    <property name="kdenlive_ix">2</property>
    <property name="kdenlive_info"/>
    <property name="disable"/>
    <property name="end">0</property>
   </filter>
  </entry>
  <blank length="106"/>
  <entry producer="44" in="0" out="105">
   <filter id="filter42" out="3">
    <property name="start">0</property>
    <property name="mlt_service">brightness</property>
    <property name="kdenlive_id">fade_from_black</property>
    <property name="tag">brightness</property>
    <property name="kdenlive_ix">1</property>
    <property name="kdenlive_info"/>
    <property name="disable"/>
    <property name="end">1</property>
   </filter>
   <filter id="filter43" in="102" out="105">
    <property name="start">1</property>
    <property name="mlt_service">brightness</property>
    <property name="kdenlive_id">fade_to_black</property>
    <property name="tag">brightness</property>
    <property name="kdenlive_ix">2</property>
    <property name="kdenlive_info"/>
    <property name="disable"/>
    <property name="end">0</property>
   </filter>
  </entry>
  <filter id="filter46">
   <property name="background">colour:0x00000000</property>
   <property name="mlt_service">affine</property>
   <property name="kdenlive_id">pan_zoom</property>
   <property name="tag">affine</property>
   <property name="kdenlive_ix">1</property>
   <property name="kdenlive_info"/>
   <property name="transition.geometry">610/0:1920x1080:100</property>
   <property name="transition.distort">0</property>
   <property name="disable"/>
  </filter>
 </playlist>
 <playlist id="playlist6">
  <property name="kdenlive:track_name">Video 5</property>
  <blank length="5744"/>
  <entry producer="48" in="19" out="187">
   <filter id="filter47" in="19" out="22">
    <property name="start">0</property>
    <property name="mlt_service">brightness</property>
    <property name="kdenlive_id">fade_from_black</property>
    <property name="tag">brightness</property>
    <property name="kdenlive_ix">1</property>
    <property name="kdenlive_info"/>
    <property name="disable"/>
    <property name="end">1</property>
   </filter>
   <filter id="filter48" in="184" out="187">
    <property name="start">1</property>
    <property name="mlt_service">brightness</property>
    <property name="kdenlive_id">fade_to_black</property>
    <property name="tag">brightness</property>
    <property name="kdenlive_ix">2</property>
    <property name="kdenlive_info"/>
    <property name="disable"/>
    <property name="end">0</property>
   </filter>
  </entry>
  <blank length="36"/>
  <entry producer="56" in="0" out="277">
   <filter id="filter49" in="172" out="277">
    <property name="start">1</property>
    <property name="mlt_service">brightness</property>
    <property name="kdenlive_id">fade_to_black</property>
    <property name="tag">brightness</property>
    <property name="kdenlive_ix">1</property>
    <property name="kdenlive_info"/>
    <property name="disable"/>
    <property name="end">0</property>
   </filter>
   <filter id="filter50" out="3">
    <property name="start">0</property>
    <property name="mlt_service">brightness</property>
    <property name="kdenlive_id">fade_from_black</property>
    <property name="tag">brightness</property>
    <property name="kdenlive_ix">2</property>
    <property name="kdenlive_info"/>
    <property name="disable"/>
    <property name="end">1</property>
   </filter>
  </entry>
  <filter id="filter51">
   <property name="background">colour:0x00000000</property>
   <property name="mlt_service">affine</property>
   <property name="kdenlive_id">pan_zoom</property>
   <property name="tag">affine</property>
   <property name="kdenlive_ix">1</property>
   <property name="kdenlive_info"/>
   <property name="disable"/>
   <property name="transition.geometry">610/0:1920x1080:100</property>
   <property name="transition.distort">0</property>
  </filter>
 </playlist>
 <playlist id="playlist11">
  <property name="kdenlive:track_name">Video 10</property>
  <blank length="5839"/>
  <entry producer="54" in="78" out="78"/>
  <blank length="3"/>
  <entry producer="54" in="78" out="78"/>
  <blank length="22"/>
  <entry producer="54" in="83" out="83"/>
  <blank length="1"/>
  <entry producer="54" in="85" out="85"/>
  <blank length="1"/>
  <entry producer="54" in="87" out="87"/>
  <blank length="1"/>
  <entry producer="54" in="89" out="129">
   <filter id="filter52" in="126" out="129">
    <property name="start">1</property>
    <property name="mlt_service">brightness</property>
    <property name="kdenlive_id">fade_to_black</property>
    <property name="tag">brightness</property>
    <property name="kdenlive_ix">1</property>
    <property name="kdenlive_info"/>
    <property name="disable"/>
    <property name="end">0</property>
   </filter>
  </entry>
  <filter id="filter53">
   <property name="background">colour:0x00000000</property>
   <property name="mlt_service">affine</property>
   <property name="kdenlive_id">pan_zoom</property>
   <property name="tag">affine</property>
   <property name="kdenlive_ix">1</property>
   <property name="kdenlive_info"/>
   <property name="disable"/>
   <property name="transition.geometry">610/0:1920x1080:100</property>
   <property name="transition.distort">0</property>
  </filter>
 </playlist>
 <playlist id="playlist12">
  <property name="kdenlive:track_name">Vidéo 1</property>
  <blank length="5952"/>
  <entry producer="58" in="0" out="274">
   <filter id="filter54" in="169" out="274">
    <property name="start">1</property>
    <property name="mlt_service">brightness</property>
    <property name="kdenlive_id">fade_to_black</property>
    <property name="tag">brightness</property>
    <property name="kdenlive_ix">1</property>
    <property name="end">0</property>
   </filter>
  </entry>
  <blank length="27"/>
  <entry producer="49" in="0" out="1">
   <filter id="filter55">
    <property name="version">0,1</property>
    <property name="mlt_service">frei0r.glitch0r</property>
    <property name="kdenlive_id">frei0r.glitch0r</property>
    <property name="tag">frei0r.glitch0r</property>
    <property name="kdenlive_ix">1</property>
    <property name="kdenlive_info"/>
    <property name="disable"/>
    <property name="0">1</property>
    <property name="1">0,033</property>
    <property name="2">0,089</property>
    <property name="3">0</property>
   </filter>
  </entry>
  <entry producer="49" in="2" out="226"/>
  <entry producer="49" in="227" out="229">
   <filter id="filter56">
    <property name="version">0,1</property>
    <property name="mlt_service">frei0r.glitch0r</property>
    <property name="kdenlive_id">frei0r.glitch0r</property>
    <property name="tag">frei0r.glitch0r</property>
    <property name="kdenlive_ix">1</property>
    <property name="kdenlive_info"/>
    <property name="disable"/>
    <property name="0">1</property>
    <property name="1">0,028</property>
    <property name="2">0,016</property>
    <property name="3">0</property>
   </filter>
  </entry>
 </playlist>
 <playlist id="playlist13">
  <property name="kdenlive:track_name">Vidéo 2</property>
  <blank length="6066"/>
  <entry producer="59" in="80" out="240">
   <filter id="filter57" in="135" out="240">
    <property name="start">1</property>
    <property name="mlt_service">brightness</property>
    <property name="kdenlive_id">fade_to_black</property>
    <property name="tag">brightness</property>
    <property name="kdenlive_ix">1</property>
    <property name="end">0</property>
   </filter>
   <filter id="rumble">
    <property name="delta">2</property>
    <property name="every">100</property>
    <property name="brightnessdelta_up">0</property>
    <property name="brightnessdelta_down">0</property>
    <property name="brightnessdelta_every">100</property>
    <property name="unevendevelop_up">0</property>
    <property name="unevendevelop_down">0</property>
    <property name="unevendevelop_duration">0</property>
    <property name="mlt_service">oldfilm</property>
    <property name="kdenlive_id">rumble</property>
    <property name="tag">oldfilm</property>
    <property name="kdenlive_info">0/-1/</property>
    <property name="kdenlive_ix">2</property>
    <property name="disable">0</property>
   </filter>
   <filter id="frei0r.saturat0r">
    <property name="version">0,3</property>
    <property name="mlt_service">frei0r.saturat0r</property>
    <property name="kdenlive_id">frei0r.saturat0r</property>
    <property name="tag">frei0r.saturat0r</property>
    <property name="kdenlive_ix">3</property>
    <property name="Saturation">80=1</property>
    <property name="kdenlive_info"/>
   </filter>
  </entry>
  <blank length="85"/>
  <entry producer="50" in="38" out="39">
   <filter id="filter58">
    <property name="version">0,1</property>
    <property name="mlt_service">frei0r.glitch0r</property>
    <property name="kdenlive_id">frei0r.glitch0r</property>
    <property name="tag">frei0r.glitch0r</property>
    <property name="kdenlive_ix">1</property>
    <property name="kdenlive_info"/>
    <property name="disable"/>
    <property name="0">1</property>
    <property name="1">0,028</property>
    <property name="2">0,039</property>
    <property name="3">0</property>
   </filter>
  </entry>
  <entry producer="50" in="40" out="206"/>
  <entry producer="50" in="207" out="209">
   <filter id="filter59">
    <property name="version">0,1</property>
    <property name="mlt_service">frei0r.glitch0r</property>
    <property name="kdenlive_id">frei0r.glitch0r</property>
    <property name="tag">frei0r.glitch0r</property>
    <property name="kdenlive_ix">1</property>
    <property name="kdenlive_info"/>
    <property name="disable"/>
    <property name="0">1</property>
    <property name="1">0,028</property>
    <property name="2">0,098</property>
    <property name="3">0</property>
   </filter>
  </entry>
 </playlist>
 <playlist id="playlist7">
  <property name="kdenlive:track_name">Vidéo 3</property>
  <blank length="6066"/>
  <entry producer="62" in="0" out="160">
   <filter id="filter60">
    <property name="version">0,1</property>
    <property name="mlt_service">frei0r.glitch0r</property>
    <property name="kdenlive_id">frei0r.glitch0r</property>
    <property name="tag">frei0r.glitch0r</property>
    <property name="kdenlive_info"/>
    <property name="kdenlive_ix">1</property>
    <property name="disable"/>
    <property name="0">1</property>
    <property name="1">1</property>
    <property name="2">0</property>
    <property name="3">1</property>
   </filter>
  </entry>
  <blank length="135"/>
  <entry producer="51" in="12" out="13">
   <filter id="filter61">
    <property name="version">0,1</property>
    <property name="mlt_service">frei0r.glitch0r</property>
    <property name="kdenlive_id">frei0r.glitch0r</property>
    <property name="tag">frei0r.glitch0r</property>
    <property name="kdenlive_ix">1</property>
    <property name="kdenlive_info"/>
    <property name="disable"/>
    <property name="0">1</property>
    <property name="1">0,028</property>
    <property name="2">0,039</property>
    <property name="3">0</property>
   </filter>
  </entry>
  <entry producer="51" in="14" out="130"/>
  <entry producer="51" in="131" out="133">
   <filter id="filter62">
    <property name="version">0,1</property>
    <property name="mlt_service">frei0r.glitch0r</property>
    <property name="kdenlive_id">frei0r.glitch0r</property>
    <property name="tag">frei0r.glitch0r</property>
    <property name="kdenlive_ix">1</property>
    <property name="kdenlive_info"/>
    <property name="disable"/>
    <property name="0">1</property>
    <property name="1">0,028</property>
    <property name="2">1</property>
    <property name="3">0</property>
   </filter>
  </entry>
 </playlist>
 <playlist id="playlist8">
  <property name="kdenlive:track_name">Video 7</property>
  <blank length="6413"/>
  <entry producer="52" in="49" out="50">
   <filter id="filter63">
    <property name="version">0,1</property>
    <property name="mlt_service">frei0r.glitch0r</property>
    <property name="kdenlive_id">frei0r.glitch0r</property>
    <property name="tag">frei0r.glitch0r</property>
    <property name="kdenlive_ix">1</property>
    <property name="kdenlive_info"/>
    <property name="disable"/>
    <property name="0">1</property>
    <property name="1">0,028</property>
    <property name="2">0,039</property>
    <property name="3">0</property>
   </filter>
  </entry>
  <entry producer="52" in="51" out="116"/>
  <entry producer="52" in="117" out="119">
   <filter id="filter64">
    <property name="version">0,1</property>
    <property name="mlt_service">frei0r.glitch0r</property>
    <property name="kdenlive_id">frei0r.glitch0r</property>
    <property name="tag">frei0r.glitch0r</property>
    <property name="kdenlive_ix">1</property>
    <property name="kdenlive_info"/>
    <property name="disable"/>
    <property name="0">1</property>
    <property name="1">0,028</property>
    <property name="2">0,253</property>
    <property name="3">0</property>
   </filter>
  </entry>
 </playlist>
 <playlist id="playlist14">
  <property name="kdenlive:track_name">Vidéo 4</property>
 </playlist>
 <tractor title="Anonymous Submission" id="maintractor" global_feed="1" in="0" out="6613">
  <track producer="black_track"/>
  <track hide="video" producer="playlist1"/>
  <track hide="video" producer="playlist2"/>
  <track hide="audio" producer="playlist3"/>
  <track hide="audio" producer="playlist9"/>
  <track hide="audio" producer="playlist10"/>
  <track hide="audio" producer="playlist4"/>
  <track hide="audio" producer="playlist5"/>
  <track hide="audio" producer="playlist0"/>
  <track hide="audio" producer="playlist6"/>
  <track hide="audio" producer="playlist11"/>
  <track producer="playlist12"/>
  <track producer="playlist13"/>
  <track producer="playlist7"/>
  <track hide="both" producer="playlist8"/>
  <track producer="playlist14"/>
  <transition id="transition0">
   <property name="a_track">0</property>
   <property name="b_track">1</property>
   <property name="mlt_service">mix</property>
   <property name="always_active">1</property>
   <property name="sum">1</property>
   <property name="internal_added">237</property>
  </transition>
  <transition id="transition1">
   <property name="a_track">0</property>
   <property name="b_track">2</property>
   <property name="mlt_service">mix</property>
   <property name="always_active">1</property>
   <property name="sum">1</property>
   <property name="internal_added">237</property>
  </transition>
  <transition id="transition2">
   <property name="a_track">0</property>
   <property name="b_track">3</property>
   <property name="mlt_service">mix</property>
   <property name="always_active">1</property>
   <property name="sum">1</property>
   <property name="internal_added">237</property>
  </transition>
  <transition id="transition3">
   <property name="a_track">0</property>
   <property name="b_track">4</property>
   <property name="mlt_service">mix</property>
   <property name="always_active">1</property>
   <property name="sum">1</property>
   <property name="internal_added">237</property>
  </transition>
  <transition id="transition4">
   <property name="a_track">0</property>
   <property name="b_track">5</property>
   <property name="mlt_service">mix</property>
   <property name="always_active">1</property>
   <property name="sum">1</property>
   <property name="internal_added">237</property>
  </transition>
  <transition id="transition5">
   <property name="a_track">0</property>
   <property name="b_track">6</property>
   <property name="mlt_service">mix</property>
   <property name="always_active">1</property>
   <property name="sum">1</property>
   <property name="internal_added">237</property>
  </transition>
  <transition id="transition6">
   <property name="a_track">0</property>
   <property name="b_track">7</property>
   <property name="mlt_service">mix</property>
   <property name="always_active">1</property>
   <property name="sum">1</property>
   <property name="internal_added">237</property>
  </transition>
  <transition id="transition7">
   <property name="a_track">0</property>
   <property name="b_track">8</property>
   <property name="mlt_service">mix</property>
   <property name="always_active">1</property>
   <property name="sum">1</property>
   <property name="internal_added">237</property>
  </transition>
  <transition id="transition8">
   <property name="a_track">0</property>
   <property name="b_track">9</property>
   <property name="mlt_service">mix</property>
   <property name="always_active">1</property>
   <property name="sum">1</property>
   <property name="internal_added">237</property>
  </transition>
  <transition id="transition9">
   <property name="a_track">0</property>
   <property name="b_track">10</property>
   <property name="mlt_service">mix</property>
   <property name="always_active">1</property>
   <property name="sum">1</property>
   <property name="internal_added">237</property>
  </transition>
  <transition id="transition10">
   <property name="a_track">0</property>
   <property name="b_track">11</property>
   <property name="mlt_service">mix</property>
   <property name="always_active">1</property>
   <property name="sum">1</property>
   <property name="internal_added">237</property>
  </transition>
  <transition id="transition11">
   <property name="a_track">0</property>
   <property name="b_track">12</property>
   <property name="mlt_service">mix</property>
   <property name="always_active">1</property>
   <property name="sum">1</property>
   <property name="internal_added">237</property>
  </transition>
  <transition id="transition12">
   <property name="a_track">0</property>
   <property name="b_track">13</property>
   <property name="mlt_service">mix</property>
   <property name="always_active">1</property>
   <property name="sum">1</property>
   <property name="internal_added">237</property>
  </transition>
  <transition id="transition13">
   <property name="a_track">0</property>
   <property name="b_track">14</property>
   <property name="mlt_service">mix</property>
   <property name="always_active">1</property>
   <property name="sum">1</property>
   <property name="internal_added">237</property>
  </transition>
  <transition id="transition14">
   <property name="a_track">0</property>
   <property name="b_track">15</property>
   <property name="mlt_service">mix</property>
   <property name="always_active">1</property>
   <property name="sum">1</property>
   <property name="internal_added">237</property>
  </transition>
  <transition id="transition15" in="6063" out="6226">
   <property name="a_track">12</property>
   <property name="b_track">13</property>
   <property name="version">0,2</property>
   <property name="mlt_service">frei0r.multiply</property>
   <property name="automatic">1</property>
   <property name="force_track">1</property>
  </transition>
  <transition id="transition29" in="6248" out="6483">
   <property name="a_track">11</property>
   <property name="b_track">12</property>
   <property name="version">0,2</property>
   <property name="mlt_service">frei0r.addition_alpha</property>
   <property name="automatic">1</property>
   <property name="force_track">0</property>
  </transition>
  <transition id="transition17" in="6066" out="6226">
   <property name="a_track">11</property>
   <property name="b_track">12</property>
   <property name="version">0,2</property>
   <property name="mlt_service">frei0r.addition_alpha</property>
   <property name="automatic">1</property>
   <property name="force_track">0</property>
  </transition>
  <transition id="transition18" in="5744" out="5912">
   <property name="a_track">9</property>
   <property name="b_track">10</property>
   <property name="start">0/0:100%x100%</property>
   <property name="factory">loader</property>
   <property name="aligned">1</property>
   <property name="progressive">1</property>
   <property name="mlt_service">composite</property>
   <property name="automatic">1</property>
   <property name="kdenlive_id">composite</property>
   <property name="force_track">1</property>
   <property name="deinterlace">0</property>
   <property name="distort">0</property>
   <property name="fill">1</property>
   <property name="geometry">0%/0%:100%x100%:100</property>
   <property name="halign">centre</property>
   <property name="luma_invert">0</property>
   <property name="operator">over</property>
   <property name="softness">0</property>
   <property name="valign">middle</property>
  </transition>
  <transition id="transition31" in="6233" out="6483">
   <property name="a_track">9</property>
   <property name="b_track">11</property>
   <property name="version">0,2</property>
   <property name="mlt_service">frei0r.addition_alpha</property>
   <property name="automatic">1</property>
   <property name="force_track">1</property>
  </transition>
  <transition id="transition19" in="5952" out="6226">
   <property name="a_track">9</property>
   <property name="b_track">11</property>
   <property name="version">0,2</property>
   <property name="mlt_service">frei0r.addition_alpha</property>
   <property name="automatic">1</property>
   <property name="force_track">1</property>
  </transition>
  <transition id="transition20" in="6280" out="6483">
   <property name="a_track">9</property>
   <property name="b_track">13</property>
   <property name="version">0,2</property>
   <property name="mlt_service">frei0r.addition_alpha</property>
   <property name="automatic">1</property>
   <property name="force_track">1</property>
  </transition>
  <transition id="transition16" in="6280" out="6483">
   <property name="a_track">9</property>
   <property name="b_track">14</property>
   <property name="version">0,2</property>
   <property name="mlt_service">frei0r.addition_alpha</property>
   <property name="automatic">1</property>
   <property name="force_track">1</property>
  </transition>
  <transition id="transition21" in="4792" out="5711">
   <property name="a_track">6</property>
   <property name="b_track">7</property>
   <property name="version">0,2</property>
   <property name="mlt_service">frei0r.addition_alpha</property>
   <property name="automatic">1</property>
   <property name="force_track">1</property>
  </transition>
  <transition id="transition35" in="5095" out="5499">
   <property name="a_track">6</property>
   <property name="b_track">8</property>
   <property name="version">0,2</property>
   <property name="mlt_service">frei0r.addition_alpha</property>
   <property name="automatic">1</property>
   <property name="force_track">1</property>
  </transition>
  <transition id="transition22" in="5606" out="5711">
   <property name="a_track">6</property>
   <property name="b_track">8</property>
   <property name="version">0,2</property>
   <property name="mlt_service">frei0r.addition_alpha</property>
   <property name="automatic">1</property>
   <property name="force_track">1</property>
  </transition>
  <transition id="transition23" in="5949" out="6226">
   <property name="a_track">6</property>
   <property name="b_track">9</property>
   <property name="version">0,2</property>
   <property name="mlt_service">frei0r.addition_alpha</property>
   <property name="automatic">1</property>
   <property name="force_track">1</property>
  </transition>
  <transition id="transition24" in="5744" out="5912">
   <property name="a_track">6</property>
   <property name="b_track">9</property>
   <property name="version">0,2</property>
   <property name="mlt_service">frei0r.addition_alpha</property>
   <property name="automatic">1</property>
   <property name="force_track">1</property>
  </transition>
  <transition id="transition38" in="4790" out="6226">
   <property name="a_track">5</property>
   <property name="b_track">6</property>
   <property name="version">0,2</property>
   <property name="mlt_service">frei0r.addition_alpha</property>
   <property name="automatic">1</property>
   <property name="force_track">0</property>
  </transition>
  <transition id="transition39" in="4711" out="6226">
   <property name="a_track">3</property>
   <property name="b_track">5</property>
   <property name="version">0,2</property>
   <property name="mlt_service">frei0r.addition_alpha</property>
   <property name="automatic">1</property>
   <property name="force_track">1</property>
  </transition>
  <transition id="transition25">
   <property name="a_track">0</property>
   <property name="b_track">3</property>
   <property name="compositing">0</property>
   <property name="distort">0</property>
   <property name="rotate_center">0</property>
   <property name="mlt_service">qtblend</property>
   <property name="always_active">1</property>
   <property name="internal_added">237</property>
  </transition>
  <transition id="transition26">
   <property name="a_track">0</property>
   <property name="b_track">4</property>
   <property name="compositing">0</property>
   <property name="distort">0</property>
   <property name="rotate_center">0</property>
   <property name="mlt_service">qtblend</property>
   <property name="always_active">1</property>
   <property name="internal_added">237</property>
  </transition>
  <transition id="transition27">
   <property name="a_track">0</property>
   <property name="b_track">5</property>
   <property name="compositing">0</property>
   <property name="distort">0</property>
   <property name="rotate_center">0</property>
   <property name="mlt_service">qtblend</property>
   <property name="always_active">1</property>
   <property name="internal_added">237</property>
  </transition>
  <transition id="transition28">
   <property name="a_track">0</property>
   <property name="b_track">6</property>
   <property name="compositing">0</property>
   <property name="distort">0</property>
   <property name="rotate_center">0</property>
   <property name="mlt_service">qtblend</property>
   <property name="always_active">1</property>
   <property name="internal_added">237</property>
  </transition>
  <transition id="transition30">
   <property name="a_track">0</property>
   <property name="b_track">7</property>
   <property name="compositing">0</property>
   <property name="distort">0</property>
   <property name="rotate_center">0</property>
   <property name="mlt_service">qtblend</property>
   <property name="always_active">1</property>
   <property name="internal_added">237</property>
  </transition>
  <transition id="transition32">
   <property name="a_track">0</property>
   <property name="b_track">8</property>
   <property name="compositing">0</property>
   <property name="distort">0</property>
   <property name="rotate_center">0</property>
   <property name="mlt_service">qtblend</property>
   <property name="always_active">1</property>
   <property name="internal_added">237</property>
  </transition>
  <transition id="transition33">
   <property name="a_track">0</property>
   <property name="b_track">9</property>
   <property name="compositing">0</property>
   <property name="distort">0</property>
   <property name="rotate_center">0</property>
   <property name="mlt_service">qtblend</property>
   <property name="always_active">1</property>
   <property name="internal_added">237</property>
  </transition>
  <transition id="transition34">
   <property name="a_track">0</property>
   <property name="b_track">10</property>
   <property name="compositing">0</property>
   <property name="distort">0</property>
   <property name="rotate_center">0</property>
   <property name="mlt_service">qtblend</property>
   <property name="always_active">1</property>
   <property name="internal_added">237</property>
  </transition>
  <transition id="transition36">
   <property name="a_track">0</property>
   <property name="b_track">11</property>
   <property name="compositing">0</property>
   <property name="distort">0</property>
   <property name="rotate_center">0</property>
   <property name="mlt_service">qtblend</property>
   <property name="always_active">1</property>
   <property name="internal_added">237</property>
  </transition>
  <transition id="transition37">
   <property name="a_track">0</property>
   <property name="b_track">12</property>
   <property name="compositing">0</property>
   <property name="distort">0</property>
   <property name="rotate_center">0</property>
   <property name="mlt_service">qtblend</property>
   <property name="always_active">1</property>
   <property name="internal_added">237</property>
  </transition>
  <transition id="transition40">
   <property name="a_track">0</property>
   <property name="b_track">13</property>
   <property name="compositing">0</property>
   <property name="distort">0</property>
   <property name="rotate_center">0</property>
   <property name="mlt_service">qtblend</property>
   <property name="always_active">1</property>
   <property name="internal_added">237</property>
  </transition>
  <transition id="transition41">
   <property name="a_track">0</property>
   <property name="b_track">14</property>
   <property name="compositing">0</property>
   <property name="distort">0</property>
   <property name="rotate_center">0</property>
   <property name="mlt_service">qtblend</property>
   <property name="always_active">1</property>
   <property name="internal_added">237</property>
  </transition>
  <transition id="transition42">
   <property name="a_track">0</property>
   <property name="b_track">15</property>
   <property name="compositing">0</property>
   <property name="distort">0</property>
   <property name="rotate_center">0</property>
   <property name="mlt_service">qtblend</property>
   <property name="always_active">1</property>
   <property name="internal_added">237</property>
  </transition>
 </tractor>
</mlt>
