<?xml version='1.0' encoding='utf-8'?>
<mlt title="Anonymous Submission" LC_NUMERIC="fr_FR.UTF-8" producer="main bin" version="6.12.0" root="/home/bordun/Clip01_SnapshatAuHarem/Video">
 <profile frame_rate_num="24" sample_aspect_num="1" display_aspect_den="9" colorspace="709" progressive="1" description="HD 1080p 24 fps" display_aspect_num="16" frame_rate_den="1" width="1920" height="1080" sample_aspect_den="1"/>
 <producer title="Anonymous Submission" id="1" in="0" out="4287">
  <property name="length">00:02:58:16</property>
  <property name="eof">pause</property>
  <property name="resource">/home/bordun/Clip01_SnapshatAuHarem/Audio/Snapchat_au_Harem.flac</property>
  <property name="audio_index">0</property>
  <property name="video_index">-1</property>
  <property name="mute_on_pause">1</property>
  <property name="mlt_service">avformat-novalidate</property>
  <property name="meta.media.nb_streams">1</property>
  <property name="meta.media.0.stream.type">audio</property>
  <property name="meta.media.0.codec.sample_fmt">s16</property>
  <property name="meta.media.0.codec.sample_rate">48000</property>
  <property name="meta.media.0.codec.channels">2</property>
  <property name="meta.media.0.codec.name">flac</property>
  <property name="meta.media.0.codec.long_name">FLAC (Free Lossless Audio Codec)</property>
  <property name="meta.media.0.codec.bit_rate">0</property>
  <property name="seekable">1</property>
  <property name="kdenlive:folderid">-1</property>
  <property name="kdenlive:file_size">16614188</property>
  <property name="kdenlive:file_hash">115a31e39ebfe7c973cc2dc7b9f7cbf8</property>
  <property name="global_feed">1</property>
 </producer>
 <producer title="Anonymous Submission" id="20" in="0" out="3455">
  <property name="length">00:02:24:00</property>
  <property name="eof">pause</property>
  <property name="resource">/home/woii/Plagiat/Stage/Sounds/Samples/WholeWorld/Intro1.wav</property>
  <property name="audio_index">0</property>
  <property name="video_index">-1</property>
  <property name="mute_on_pause">1</property>
  <property name="mlt_service">avformat-novalidate</property>
  <property name="meta.media.nb_streams">1</property>
  <property name="meta.media.0.stream.type">audio</property>
  <property name="meta.media.0.codec.sample_fmt">s16</property>
  <property name="meta.media.0.codec.sample_rate">48000</property>
  <property name="meta.media.0.codec.channels">2</property>
  <property name="meta.media.0.codec.name">pcm_s16le</property>
  <property name="meta.media.0.codec.long_name">PCM signed 16-bit little-endian</property>
  <property name="meta.media.0.codec.bit_rate">1536000</property>
  <property name="seekable">1</property>
  <property name="kdenlive:folderid">-1</property>
  <property name="kdenlive:file_size">27648040</property>
  <property name="kdenlive:file_hash">cca9bc04f4779f62a8baf76421a7072b</property>
  <property name="global_feed">1</property>
 </producer>
 <producer title="Anonymous Submission" id="22" in="0" out="177">
  <property name="length">178</property>
  <property name="eof">pause</property>
  <property name="resource">0x000000ff</property>
  <property name="aspect_ratio">1</property>
  <property name="mlt_service">color</property>
  <property name="kdenlive:clipname">Color Clip</property>
  <property name="kdenlive:folderid">-1</property>
  <property name="kdenlive:duration">120</property>
  <property name="kdenlive:file_hash">9196813120dc5c505072516b15baf414</property>
  <property name="global_feed">1</property>
  <filter id="frei0r.alphaspot">
   <property name="version">0,1</property>
   <property name="mlt_service">frei0r.alphaspot</property>
   <property name="kdenlive_id">frei0r.alphaspot</property>
   <property name="tag">frei0r.alphaspot</property>
   <property name="kdenlive_ix">1</property>
   <property name="kdenlive_info"/>
   <property name="Shape">0,0</property>
   <property name="Position X">0=0</property>
   <property name="Position Y">0=0</property>
   <property name="Size X">0=0,1</property>
   <property name="Size Y">0=0,1</property>
   <property name="Tilt">0=0,5</property>
   <property name="Transition width">0=0,2</property>
   <property name="Min">0=0</property>
   <property name="Max">0=1</property>
   <property name="Operation">0,0</property>
   <property name="disable">0</property>
  </filter>
 </producer>
 <producer title="Anonymous Submission" id="23" in="0" out="178">
  <property name="length">179</property>
  <property name="eof">pause</property>
  <property name="resource"/>
  <property name="progressive">1</property>
  <property name="aspect_ratio">1</property>
  <property name="seekable">1</property>
  <property name="mlt_service">kdenlivetitle</property>
  <property name="kdenlive:clipname">kschne</property>
  <property name="kdenlive:folderid">1</property>
  <property name="xmldata">&lt;kdenlivetitle duration="120" LC_NUMERIC="fr_FR.UTF-8" width="1920" height="1080" out="120">
 &lt;item type="QGraphicsTextItem" z-index="1">
  &lt;position x="1196" y="704">
   &lt;transform>1,0,0,0,1,0,0,0,1&lt;/transform>
  &lt;/position>
  &lt;content line-spacing="0" shadow="0;#64000000;3;3;3" font-underline="0" box-height="169" font-outline-color="211,215,207,255" font="Lato Black" letter-spacing="0" font-pixel-size="140" font-italic="0" alignment="1" font-weight="75" font-outline="0" box-width="615.172" font-color="255,255,255,255">K-SCHNE&lt;/content>
 &lt;/item>
 &lt;startviewport rect="0,0,1920,1080"/>
 &lt;endviewport rect="0,0,1920,1080"/>
 &lt;background color="0,0,0,0"/>
&lt;/kdenlivetitle>
</property>
  <property name="kdenlive:duration">120</property>
  <property name="force_reload">0</property>
  <property name="meta.media.width">1920</property>
  <property name="meta.media.height">1080</property>
  <property name="kdenlive:file_hash">2157e2c036113b38616a8439a4d8b231</property>
  <property name="global_feed">1</property>
 </producer>
 <producer title="Anonymous Submission" id="25" in="0" out="177">
  <property name="length">178</property>
  <property name="eof">pause</property>
  <property name="resource"/>
  <property name="progressive">1</property>
  <property name="aspect_ratio">1</property>
  <property name="seekable">1</property>
  <property name="mlt_service">kdenlivetitle</property>
  <property name="kdenlive:clipname">nano</property>
  <property name="kdenlive:folderid">1</property>
  <property name="xmldata">&lt;kdenlivetitle duration="120" LC_NUMERIC="fr_FR.UTF-8" width="1920" height="1080" out="120">
 &lt;item type="QGraphicsTextItem" z-index="0">
  &lt;position x="305" y="240">
   &lt;transform>1,0,0,0,1,0,0,0,1&lt;/transform>
  &lt;/position>
  &lt;content line-spacing="0" shadow="0;#64000000;3;3;3" font-underline="0" box-height="181" font="Lato Black" letter-spacing="0" font-pixel-size="150" font-italic="0" alignment="1" font-weight="75" box-width="461.906" font-color="0,0,0,255">NANO&lt;/content>
 &lt;/item>
 &lt;startviewport rect="0,0,1920,1080"/>
 &lt;endviewport rect="0,0,1920,1080"/>
 &lt;background color="0,0,0,0"/>
&lt;/kdenlivetitle>
</property>
  <property name="kdenlive:duration">120</property>
  <property name="force_reload">0</property>
  <property name="kdenlive:file_hash">2157e2c036113b38616a8439a4d8b231</property>
  <property name="global_feed">1</property>
  <property name="meta.media.width">1920</property>
  <property name="meta.media.height">1080</property>
 </producer>
 <producer title="Anonymous Submission" id="26" in="0" out="119">
  <property name="length">120</property>
  <property name="eof">pause</property>
  <property name="resource"/>
  <property name="progressive">1</property>
  <property name="aspect_ratio">1</property>
  <property name="seekable">1</property>
  <property name="mlt_service">kdenlivetitle</property>
  <property name="kdenlive:clipname">?</property>
  <property name="kdenlive:folderid">1</property>
  <property name="xmldata">&lt;kdenlivetitle width="1920" duration="120" out="120" height="1080" LC_NUMERIC="fr_FR.UTF-8">
 &lt;item z-index="0" type="QGraphicsTextItem">
  &lt;position x="945" y="173">
   &lt;transform>1,0,0,0,1,0,0,0,1&lt;/transform>
  &lt;/position>
  &lt;content font-italic="0" letter-spacing="0" font-weight="75" box-height="113" font-outline-color="0,0,0,255" shadow="0;#64000000;3;3;3" font="Lato Black" font-underline="0" font-outline="0" font-pixel-size="94" line-spacing="0" box-width="44" font-color="255,255,255,255" alignment="1">?&lt;/content>
 &lt;/item>
 &lt;startviewport rect="0,0,1920,1080"/>
 &lt;endviewport rect="0,0,1920,1080"/>
 &lt;background color="0,0,0,0"/>
&lt;/kdenlivetitle>
</property>
  <property name="kdenlive:duration">120</property>
  <property name="force_reload">0</property>
  <property name="meta.media.width">1920</property>
  <property name="meta.media.height">1080</property>
  <property name="kdenlive:file_hash">a324db3606b27703b810c78023faab4b</property>
  <property name="global_feed">1</property>
 </producer>
 <producer title="Anonymous Submission" id="24" in="0" out="119">
  <property name="length">120</property>
  <property name="eof">pause</property>
  <property name="resource">/home/bordun/Clip01_SnapshatAuHarem/sunglasses.png</property>
  <property name="ttl">25</property>
  <property name="aspect_ratio">1</property>
  <property name="progressive">1</property>
  <property name="seekable">0</property>
  <property name="meta.media.width">1024</property>
  <property name="meta.media.height">1024</property>
  <property name="mlt_service">qimage</property>
  <property name="mute_on_pause">1</property>
  <property name="loop">1</property>
  <property name="kdenlive:folderid">1</property>
  <property name="kdenlive:duration">120</property>
  <property name="kdenlive:file_size">33758</property>
  <property name="kdenlive:file_hash">6ffe479ea326e51cefd004860c0d3b77</property>
  <property name="global_feed">1</property>
 </producer>
 <producer title="Anonymous Submission" id="17" in="0" out="5728">
  <property name="length">00:03:58:17</property>
  <property name="eof">pause</property>
  <property name="resource">05_Trap.kdenlive</property>
  <property name="mlt_service">xml</property>
  <property name="global_feed">1</property>
  <property name="xml">was here</property>
  <property name="seekable">1</property>
  <property name="kdenlive:folderid">-1</property>
  <property name="kdenlive:file_size">340682</property>
  <property name="kdenlive:file_hash">bf741965d272a21b562507a7c26c45d8</property>
  <property name="proxy_out">5728</property>
  <property name="kdenlive:originalurl">05_Trap.kdenlive</property>
  <filter id="frei0r.sigmoidaltransfer">
   <property name="version">0,9</property>
   <property name="mlt_service">frei0r.sigmoidaltransfer</property>
   <property name="kdenlive_id">frei0r.sigmoidaltransfer</property>
   <property name="tag">frei0r.sigmoidaltransfer</property>
   <property name="kdenlive_ix">1</property>
   <property name="kdenlive_info"/>
   <property name="disable">0</property>
   <property name="0">1</property>
   <property name="1">0,225</property>
  </filter>
 </producer>
 <producer title="Anonymous Submission" id="16" in="0" out="6187">
  <property name="length">00:04:17:20</property>
  <property name="eof">pause</property>
  <property name="resource">04_Couplet2-1.kdenlive</property>
  <property name="mlt_service">xml</property>
  <property name="global_feed">1</property>
  <property name="xml">was here</property>
  <property name="seekable">1</property>
  <property name="kdenlive:folderid">-1</property>
  <property name="kdenlive:file_size">401691</property>
  <property name="kdenlive:file_hash">130e686a2e57c2c45cc0650dcf868d11</property>
  <property name="proxy_out">6187</property>
  <property name="kdenlive:originalurl">04_Couplet2-1.kdenlive</property>
  <filter id="frei0r.levels">
   <property name="version">0,3</property>
   <property name="mlt_service">frei0r.levels</property>
   <property name="kdenlive_id">frei0r.levels</property>
   <property name="tag">frei0r.levels</property>
   <property name="kdenlive_ix">1</property>
   <property name="kdenlive_info"/>
   <property name="Channel">0,3</property>
   <property name="Input black level">0=0</property>
   <property name="Input white level">0=0,75</property>
   <property name="Gamma">0=0,25</property>
   <property name="Black output">0=0</property>
   <property name="White output">0=1</property>
   <property name="Show histogram">0</property>
   <property name="Histogram position">0,3</property>
  </filter>
  <filter id="frei0r.coloradj_RGB">
   <property name="version">0,2</property>
   <property name="mlt_service">frei0r.coloradj_RGB</property>
   <property name="kdenlive_id">frei0r.coloradj_RGB</property>
   <property name="tag">frei0r.coloradj_RGB</property>
   <property name="kdenlive_ix">2</property>
   <property name="kdenlive_info"/>
   <property name="R">0=0,5</property>
   <property name="G">0=0,5</property>
   <property name="B">0=0,5</property>
   <property name="Action">0,5</property>
   <property name="Keep luma">1</property>
   <property name="Alpha controlled">0</property>
   <property name="Luma formula">1,0</property>
  </filter>
  <filter id="frei0r.saturat0r">
   <property name="version">0,3</property>
   <property name="mlt_service">frei0r.saturat0r</property>
   <property name="kdenlive_id">frei0r.saturat0r</property>
   <property name="tag">frei0r.saturat0r</property>
   <property name="kdenlive_ix">3</property>
   <property name="kdenlive_info"/>
   <property name="Saturation">0=0,07</property>
  </filter>
 </producer>
 <producer title="Anonymous Submission" id="15" in="0" out="5728">
  <property name="length">00:03:58:17</property>
  <property name="eof">pause</property>
  <property name="resource">02_Refrain1.kdenlive</property>
  <property name="mlt_service">xml</property>
  <property name="global_feed">1</property>
  <property name="xml">was here</property>
  <property name="seekable">1</property>
  <property name="aspect_ratio">1</property>
  <property name="mute_on_pause">1</property>
  <property name="kdenlive:folderid">-1</property>
  <property name="kdenlive:file_size">107054</property>
  <property name="kdenlive:file_hash">299846b2e5f0096804f71a5be2762335</property>
  <property name="proxy_out">5728</property>
  <property name="kdenlive:originalurl">02_Refrain1.kdenlive</property>
  <filter id="filter0">
   <property name="version">0,3</property>
   <property name="mlt_service">frei0r.levels</property>
   <property name="kdenlive_id">frei0r.levels</property>
   <property name="tag">frei0r.levels</property>
   <property name="kdenlive_ix">1</property>
   <property name="kdenlive_info"/>
   <property name="Channel">0,3</property>
   <property name="Input black level">0=0</property>
   <property name="Input white level">0=0,75</property>
   <property name="Gamma">0=0,25</property>
   <property name="Black output">0=0</property>
   <property name="White output">0=1</property>
   <property name="Show histogram">0</property>
   <property name="Histogram position">0,3</property>
  </filter>
  <filter id="filter1">
   <property name="version">0,2</property>
   <property name="mlt_service">frei0r.coloradj_RGB</property>
   <property name="kdenlive_id">frei0r.coloradj_RGB</property>
   <property name="tag">frei0r.coloradj_RGB</property>
   <property name="kdenlive_ix">2</property>
   <property name="kdenlive_info"/>
   <property name="R">0=0,5</property>
   <property name="G">0=0,485</property>
   <property name="B">0=0,5</property>
   <property name="Action">0,5</property>
   <property name="Keep luma">1</property>
   <property name="Alpha controlled">0</property>
   <property name="Luma formula">1,0</property>
  </filter>
  <filter id="filter2">
   <property name="version">0,3</property>
   <property name="mlt_service">frei0r.saturat0r</property>
   <property name="kdenlive_id">frei0r.saturat0r</property>
   <property name="tag">frei0r.saturat0r</property>
   <property name="kdenlive_ix">3</property>
   <property name="kdenlive_info"/>
   <property name="Saturation">0=0,07</property>
  </filter>
 </producer>
 <producer title="Anonymous Submission" id="21" in="0" out="6615">
  <property name="length">00:04:35:16</property>
  <property name="eof">pause</property>
  <property name="resource">08_Outro.kdenlive</property>
  <property name="mlt_service">xml</property>
  <property name="global_feed">1</property>
  <property name="xml">was here</property>
  <property name="seekable">1</property>
  <property name="kdenlive:folderid">-1</property>
  <property name="kdenlive:file_size">162052</property>
  <property name="kdenlive:file_hash">33b37d8ebf8f517268af3e4a3ee72cf4</property>
  <property name="proxy_out">6615</property>
  <property name="kdenlive:originalurl">08_Outro.kdenlive</property>
 </producer>
 <producer title="Anonymous Submission" id="19" in="0" out="5728">
  <property name="length">00:03:58:17</property>
  <property name="eof">pause</property>
  <property name="resource">07_Refrain2.kdenlive</property>
  <property name="mlt_service">xml</property>
  <property name="global_feed">1</property>
  <property name="xml">was here</property>
  <property name="seekable">1</property>
  <property name="kdenlive:folderid">-1</property>
  <property name="kdenlive:file_size">181251</property>
  <property name="kdenlive:file_hash">7d28c9aa380001fa66055357e4145f19</property>
  <property name="proxy_out">5728</property>
  <property name="kdenlive:originalurl">07_Refrain2.kdenlive</property>
  <filter id="filter3">
   <property name="version">0,3</property>
   <property name="mlt_service">frei0r.levels</property>
   <property name="kdenlive_id">frei0r.levels</property>
   <property name="tag">frei0r.levels</property>
   <property name="kdenlive_ix">1</property>
   <property name="kdenlive_info"/>
   <property name="Channel">0,3</property>
   <property name="Input black level">0=0</property>
   <property name="Input white level">0=0,75</property>
   <property name="Gamma">0=0,25</property>
   <property name="Black output">0=0</property>
   <property name="White output">0=1</property>
   <property name="Show histogram">0</property>
   <property name="Histogram position">0,3</property>
   <property name="disable">0</property>
  </filter>
  <filter id="filter4">
   <property name="version">0,2</property>
   <property name="mlt_service">frei0r.coloradj_RGB</property>
   <property name="kdenlive_id">frei0r.coloradj_RGB</property>
   <property name="tag">frei0r.coloradj_RGB</property>
   <property name="kdenlive_ix">2</property>
   <property name="kdenlive_info"/>
   <property name="R">0=0,5</property>
   <property name="G">0=0,48</property>
   <property name="B">0=0,5</property>
   <property name="Action">0,5</property>
   <property name="Keep luma">1</property>
   <property name="Alpha controlled">0</property>
   <property name="Luma formula">1,0</property>
   <property name="disable">0</property>
  </filter>
  <filter id="filter5">
   <property name="version">0,3</property>
   <property name="mlt_service">frei0r.saturat0r</property>
   <property name="kdenlive_id">frei0r.saturat0r</property>
   <property name="tag">frei0r.saturat0r</property>
   <property name="kdenlive_ix">3</property>
   <property name="kdenlive_info"/>
   <property name="Saturation">0=0,07</property>
   <property name="disable">0</property>
  </filter>
 </producer>
 <producer title="Anonymous Submission" id="27" in="0" out="7838">
  <property name="length">00:05:26:15</property>
  <property name="eof">pause</property>
  <property name="resource">00_Intro.kdenlive</property>
  <property name="mlt_service">xml</property>
  <property name="global_feed">1</property>
  <property name="xml">was here</property>
  <property name="seekable">0</property>
  <property name="kdenlive:folderid">-1</property>
  <property name="kdenlive:file_size">302042</property>
  <property name="kdenlive:file_hash">9db686b603083d35b7719aa06373d693</property>
  <filter id="filter6">
   <property name="version">0,3</property>
   <property name="mlt_service">frei0r.levels</property>
   <property name="kdenlive_id">frei0r.levels</property>
   <property name="tag">frei0r.levels</property>
   <property name="kdenlive_ix">1</property>
   <property name="kdenlive_info"/>
   <property name="Channel">0,3</property>
   <property name="Input black level">0=0</property>
   <property name="Input white level">0=0,75</property>
   <property name="Gamma">0=0,25</property>
   <property name="Black output">0=0</property>
   <property name="White output">0=1</property>
   <property name="Show histogram">0</property>
   <property name="Histogram position">0,3</property>
  </filter>
  <filter id="filter7">
   <property name="version">0,2</property>
   <property name="mlt_service">frei0r.coloradj_RGB</property>
   <property name="kdenlive_id">frei0r.coloradj_RGB</property>
   <property name="tag">frei0r.coloradj_RGB</property>
   <property name="kdenlive_ix">2</property>
   <property name="kdenlive_info"/>
   <property name="R">0=0,5</property>
   <property name="G">0=0,485</property>
   <property name="B">0=0,5</property>
   <property name="Action">0,5</property>
   <property name="Keep luma">1</property>
   <property name="Alpha controlled">0</property>
   <property name="Luma formula">1,0</property>
  </filter>
  <filter id="filter8">
   <property name="version">0,3</property>
   <property name="mlt_service">frei0r.saturat0r</property>
   <property name="kdenlive_id">frei0r.saturat0r</property>
   <property name="tag">frei0r.saturat0r</property>
   <property name="kdenlive_ix">3</property>
   <property name="kdenlive_info"/>
   <property name="Saturation">0=0,07</property>
  </filter>
 </producer>
 <producer id="28" in="0" out="163">
  <property name="length">164</property>
  <property name="eof">pause</property>
  <property name="resource">0xffffffff</property>
  <property name="aspect_ratio">1</property>
  <property name="mlt_service">color</property>
  <property name="kdenlive:clipname">Clip couleur</property>
  <property name="kdenlive:folderid">-1</property>
  <property name="kdenlive:duration">120</property>
  <property name="kdenlive:file_hash">039b56a692cd66eefeea44a17539e5a2</property>
 </producer>
 <producer title="Anonymous Submission" id="29" in="0" out="3263">
  <property name="length">00:02:16:00</property>
  <property name="eof">pause</property>
  <property name="resource">/home/slave/SnapshatAuHarem_Master_r14_2018-12-12.flac</property>
  <property name="audio_index">0</property>
  <property name="video_index">-1</property>
  <property name="mute_on_pause">1</property>
  <property name="mlt_service">avformat-novalidate</property>
  <property name="meta.media.nb_streams">1</property>
  <property name="meta.media.0.stream.type">audio</property>
  <property name="meta.media.0.codec.sample_fmt">s32</property>
  <property name="meta.media.0.codec.sample_rate">48000</property>
  <property name="meta.media.0.codec.channels">2</property>
  <property name="meta.media.0.codec.name">flac</property>
  <property name="meta.media.0.codec.long_name">FLAC (Free Lossless Audio Codec)</property>
  <property name="meta.media.0.codec.bit_rate">0</property>
  <property name="seekable">1</property>
  <property name="kdenlive:file_size">28399154</property>
  <property name="kdenlive:file_hash">ddbf26a019f7d426329e414285b94305</property>
  <property name="global_feed">1</property>
 </producer>
 <producer title="Anonymous Submission" id="14" in="0" out="18568">
  <property name="length">00:12:53:17</property>
  <property name="eof">pause</property>
  <property name="resource">01_Couplet1.kdenlive</property>
  <property name="mlt_service">xml</property>
  <property name="global_feed">1</property>
  <property name="xml">was here</property>
  <property name="seekable">1</property>
  <property name="kdenlive:folderid">-1</property>
  <property name="kdenlive:file_size">214678</property>
  <property name="kdenlive:file_hash">3cd1e263790a285d94e90efdf8e82faf</property>
  <property name="kdenlive:proxy">-</property>
  <property name="proxy_out">18568</property>
  <property name="kdenlive:originalurl">01_Couplet1.kdenlive</property>
  <filter id="filter9">
   <property name="version">0,3</property>
   <property name="mlt_service">frei0r.levels</property>
   <property name="kdenlive_id">frei0r.levels</property>
   <property name="tag">frei0r.levels</property>
   <property name="kdenlive_ix">1</property>
   <property name="kdenlive_info"/>
   <property name="Channel">0,3</property>
   <property name="Input black level">0=0</property>
   <property name="Input white level">0=0,75</property>
   <property name="Gamma">0=0,25</property>
   <property name="Black output">0=0</property>
   <property name="White output">0=1</property>
   <property name="Show histogram">0</property>
   <property name="Histogram position">0,3</property>
   <property name="disable">0</property>
  </filter>
  <filter id="filter10">
   <property name="version">0,2</property>
   <property name="mlt_service">frei0r.coloradj_RGB</property>
   <property name="kdenlive_id">frei0r.coloradj_RGB</property>
   <property name="tag">frei0r.coloradj_RGB</property>
   <property name="kdenlive_ix">2</property>
   <property name="kdenlive_info"/>
   <property name="R">0=0,5</property>
   <property name="G">0=0,485</property>
   <property name="B">0=0,5</property>
   <property name="Action">0,5</property>
   <property name="Keep luma">1</property>
   <property name="Alpha controlled">0</property>
   <property name="Luma formula">1,0</property>
   <property name="disable">0</property>
  </filter>
  <filter id="filter11">
   <property name="version">0,3</property>
   <property name="mlt_service">frei0r.saturat0r</property>
   <property name="kdenlive_id">frei0r.saturat0r</property>
   <property name="tag">frei0r.saturat0r</property>
   <property name="kdenlive_ix">3</property>
   <property name="kdenlive_info"/>
   <property name="Saturation">0=0,07</property>
   <property name="disable">0</property>
  </filter>
 </producer>
 <producer title="Anonymous Submission" id="18" in="0" out="6187">
  <property name="length">00:04:17:20</property>
  <property name="eof">pause</property>
  <property name="resource">06_Couplet2-2.kdenlive</property>
  <property name="mlt_service">xml</property>
  <property name="global_feed">1</property>
  <property name="xml">was here</property>
  <property name="seekable">1</property>
  <property name="kdenlive:folderid">-1</property>
  <property name="kdenlive:file_size">371820</property>
  <property name="kdenlive:file_hash">74c66018bd026d2d36c25cd1000b0ffa</property>
  <property name="proxy_out">6187</property>
  <property name="kdenlive:originalurl">06_Couplet2-2.kdenlive</property>
  <filter id="filter12">
   <property name="version">0,3</property>
   <property name="mlt_service">frei0r.levels</property>
   <property name="kdenlive_id">frei0r.levels</property>
   <property name="tag">frei0r.levels</property>
   <property name="kdenlive_ix">1</property>
   <property name="kdenlive_info"/>
   <property name="Channel">0,3</property>
   <property name="Input black level">0=0</property>
   <property name="Input white level">0=0,75</property>
   <property name="Gamma">0=0,25</property>
   <property name="Black output">0=0</property>
   <property name="White output">0=1</property>
   <property name="Show histogram">0</property>
   <property name="Histogram position">0,3</property>
   <property name="disable">0</property>
  </filter>
  <filter id="filter13">
   <property name="version">0,2</property>
   <property name="mlt_service">frei0r.coloradj_RGB</property>
   <property name="kdenlive_id">frei0r.coloradj_RGB</property>
   <property name="tag">frei0r.coloradj_RGB</property>
   <property name="kdenlive_ix">2</property>
   <property name="kdenlive_info"/>
   <property name="R">0=0,5</property>
   <property name="G">0=0,48</property>
   <property name="B">0=0,5</property>
   <property name="Action">0,5</property>
   <property name="Keep luma">1</property>
   <property name="Alpha controlled">0</property>
   <property name="Luma formula">1,0</property>
   <property name="disable">0</property>
  </filter>
  <filter id="filter14">
   <property name="version">0,3</property>
   <property name="mlt_service">frei0r.saturat0r</property>
   <property name="kdenlive_id">frei0r.saturat0r</property>
   <property name="tag">frei0r.saturat0r</property>
   <property name="kdenlive_ix">3</property>
   <property name="kdenlive_info"/>
   <property name="Saturation">0=0,07</property>
   <property name="disable">0</property>
  </filter>
 </producer>
 <producer id="30" in="0" out="119">
  <property name="length">120</property>
  <property name="eof">pause</property>
  <property name="resource">/home/bordun/Clip01_SnapshatAuHarem/NoiseGlitch_1.png</property>
  <property name="ttl">25</property>
  <property name="aspect_ratio">1</property>
  <property name="progressive">1</property>
  <property name="seekable">1</property>
  <property name="meta.media.width">1920</property>
  <property name="meta.media.height">1080</property>
  <property name="mlt_service">qimage</property>
  <property name="kdenlive:folderid">1</property>
  <property name="kdenlive:duration">120</property>
  <property name="kdenlive:file_size">1250218</property>
  <property name="kdenlive:file_hash">aea75ba3613aca2c99ba2e195dedc06b</property>
 </producer>
 <producer id="31" in="0" out="119">
  <property name="length">120</property>
  <property name="eof">pause</property>
  <property name="resource">/home/bordun/Clip01_SnapshatAuHarem/NoiseGlitch_2.png</property>
  <property name="ttl">25</property>
  <property name="aspect_ratio">1</property>
  <property name="progressive">1</property>
  <property name="seekable">1</property>
  <property name="meta.media.width">1920</property>
  <property name="meta.media.height">1080</property>
  <property name="mlt_service">qimage</property>
  <property name="kdenlive:folderid">1</property>
  <property name="kdenlive:duration">120</property>
  <property name="kdenlive:file_size">1322828</property>
  <property name="kdenlive:file_hash">3668fe3b93c03f59c6111113c6b2142f</property>
 </producer>
 <producer id="32" in="0" out="119">
  <property name="length">120</property>
  <property name="eof">pause</property>
  <property name="resource">/home/bordun/Clip01_SnapshatAuHarem/NoiseGlitch_0.png</property>
  <property name="ttl">25</property>
  <property name="aspect_ratio">1</property>
  <property name="progressive">1</property>
  <property name="seekable">1</property>
  <property name="meta.media.width">1920</property>
  <property name="meta.media.height">1080</property>
  <property name="mlt_service">qimage</property>
  <property name="kdenlive:folderid">1</property>
  <property name="kdenlive:duration">120</property>
  <property name="kdenlive:file_size">1481070</property>
  <property name="kdenlive:file_hash">d9cba92312c61204edfe8f9664c0fa02</property>
 </producer>
 <producer title="Anonymous Submission" id="33" in="0" out="5728">
  <property name="length">00:03:58:17</property>
  <property name="eof">pause</property>
  <property name="resource">05_Trap.kdenlive</property>
  <property name="mlt_service">xml</property>
  <property name="global_feed">1</property>
  <property name="xml">was here</property>
  <property name="seekable">1</property>
  <property name="kdenlive:folderid">-1</property>
  <property name="kdenlive:file_size">332083</property>
  <property name="kdenlive:file_hash">9540427bb9ccc6440ab83ba5c7af7939</property>
  <property name="proxy_out">5728</property>
  <property name="kdenlive:originalurl">05_Trap.kdenlive</property>
  <property name="kdenlive:clipname">05_Trap.kdenlive (COLOR)</property>
 </producer>
 <playlist id="main bin">
  <property name="kdenlive:docproperties.audiotargettrack">3</property>
  <property name="kdenlive:docproperties.decimalPoint">,</property>
  <property name="kdenlive:docproperties.dirtypreviewchunks"/>
  <property name="kdenlive:docproperties.disablepreview">0</property>
  <property name="kdenlive:docproperties.documentid">1516638450852</property>
  <property name="kdenlive:docproperties.enableproxy">0</property>
  <property name="kdenlive:docproperties.generateimageproxy">1</property>
  <property name="kdenlive:docproperties.generateproxy">1</property>
  <property name="kdenlive:docproperties.kdenliveversion">18.08.3</property>
  <property name="kdenlive:docproperties.position">2548</property>
  <property name="kdenlive:docproperties.previewchunks"/>
  <property name="kdenlive:docproperties.previewextension">mov</property>
  <property name="kdenlive:docproperties.previewparameters">r=24 s=1920x1080 vb=36M threads=0 vcodec=dnxhd</property>
  <property name="kdenlive:docproperties.profile">atsc_1080p_24</property>
  <property name="kdenlive:docproperties.proxyextension">mpg</property>
  <property name="kdenlive:docproperties.proxyimageminsize">2000</property>
  <property name="kdenlive:docproperties.proxyminsize">1000</property>
  <property name="kdenlive:docproperties.proxyparams">-vf scale=640:-1 -g 5 -qscale 6 -ab 128k -vcodec mpeg2video -acodec mp2</property>
  <property name="kdenlive:docproperties.version">0.96</property>
  <property name="kdenlive:docproperties.verticalzoom">1</property>
  <property name="kdenlive:docproperties.videotargettrack">4</property>
  <property name="kdenlive:docproperties.zonein">1626</property>
  <property name="kdenlive:docproperties.zoneout">1725</property>
  <property name="kdenlive:docproperties.zoom">10</property>
  <property name="kdenlive:docmetadata.meta.attr.author.markup">Plagiat &amp; Joris Le Guidart</property>
  <property name="kdenlive:docmetadata.meta.attr.copyright.markup">Copyleft - Licence Art Libre 1.3</property>
  <property name="kdenlive:docmetadata.meta.attr.title.markup">Snapchat au Harem (part of)</property>
  <property name="kdenlive:docmetadata.meta.attr.year.markup">2018</property>
  <property name="kdenlive:documentnotes"/>
  <property name="kdenlive:clipgroups"/>
  <property name="kdenlive:guide.137,583">DebutTrap</property>
  <property name="kdenlive:guide.137">Snare</property>
  <property name="kdenlive:guide.142,625">Fuck</property>
  <property name="kdenlive:docproperties.renderaudioquality">160</property>
  <property name="kdenlive:docproperties.rendercategory">Generic (HD for web, mobile devices...)</property>
  <property name="kdenlive:docproperties.renderendguide">0</property>
  <property name="kdenlive:docproperties.renderexportaudio">0</property>
  <property name="kdenlive:docproperties.renderguide">0</property>
  <property name="kdenlive:docproperties.renderplay">0</property>
  <property name="kdenlive:docproperties.renderprofile">MP4 - the dominating format (H264/AAC)</property>
  <property name="kdenlive:docproperties.renderquality">20</property>
  <property name="kdenlive:docproperties.renderratio">1</property>
  <property name="kdenlive:docproperties.renderrescale">0</property>
  <property name="kdenlive:docproperties.renderrescaleheight">180</property>
  <property name="kdenlive:docproperties.renderrescalewidth">320</property>
  <property name="kdenlive:docproperties.renderscanning">0</property>
  <property name="kdenlive:docproperties.renderspeed">2</property>
  <property name="kdenlive:docproperties.renderstartguide">0</property>
  <property name="kdenlive:docproperties.rendertcoverlay">0</property>
  <property name="kdenlive:docproperties.rendertctype">0</property>
  <property name="kdenlive:docproperties.rendertwopass">0</property>
  <property name="kdenlive:docproperties.renderurl">/home/bordun/Clip01_SnapshatAuHarem/Rendus/transition.mp4</property>
  <property name="kdenlive:docproperties.renderzone">1</property>
  <property name="kdenlive:guide.116,208">Pont</property>
  <property name="kdenlive:folder.-1.1">intro</property>
  <property name="kdenlive:customeffects">&lt;customeffects>
 &lt;effect type="custom" unique="1" id="rumble" tag="oldfilm" kdenlive_info="0/-1/" effectcolor="#c92c3e" disable="0">
  &lt;name>rumble&lt;/name>
  &lt;description>Moves the Picture up and down and random brightness change&lt;/description>
  &lt;author>Marco Gittler&lt;/author>
  &lt;parameter type="double" name="delta" value="11" min="0" max="400" default="14">
   &lt;name>Y-Delta&lt;/name>
  &lt;/parameter>
  &lt;parameter type="double" suffix="%" name="every" value="100" min="0" max="100" default="20">
   &lt;name>% of picture have a delta&lt;/name>
  &lt;/parameter>
  &lt;parameter type="double" name="brightnessdelta_up" value="0" min="0" max="100" default="20">
   &lt;name>Brightness up&lt;/name>
  &lt;/parameter>
  &lt;parameter type="double" name="brightnessdelta_down" value="0" min="0" max="100" default="30">
   &lt;name>Brightness down&lt;/name>
  &lt;/parameter>
  &lt;parameter type="double" suffix="%" name="brightnessdelta_every" value="100" min="0" max="100" default="70">
   &lt;name>Brightness every&lt;/name>
  &lt;/parameter>
  &lt;parameter type="double" name="unevendevelop_up" value="0" min="0" max="100" default="60">
   &lt;name>Unevendevelop up&lt;/name>
  &lt;/parameter>
  &lt;parameter type="double" name="unevendevelop_down" value="0" min="0" max="100" default="20">
   &lt;name>Unevendevelop down&lt;/name>
  &lt;/parameter>
  &lt;parameter type="double" name="unevendevelop_duration" value="0" min="0" max="10000" default="70">
   &lt;name>Unevendevelop Duration&lt;/name>
  &lt;/parameter>
  &lt;version>0,2&lt;/version>
  &lt;version>0,2&lt;/version>
 &lt;/effect>
&lt;/customeffects>
</property>
  <property name="xml_retain">1</property>
  <entry producer="1" in="0" out="4287"/>
  <entry producer="20" in="0" out="3455"/>
  <entry producer="22" in="0" out="119"/>
  <entry producer="23" in="0" out="119"/>
  <entry producer="25" in="0" out="119"/>
  <entry producer="26" in="0" out="119"/>
  <entry producer="24" in="0" out="119"/>
  <entry producer="17" in="0" out="5728"/>
  <entry producer="16" in="0" out="6187"/>
  <entry producer="15" in="0" out="5728"/>
  <entry producer="21" in="0" out="6615"/>
  <entry producer="19" in="0" out="5728"/>
  <entry producer="27" in="0" out="7838"/>
  <entry producer="28" in="0" out="119"/>
  <entry producer="29" in="0" out="3263"/>
  <entry producer="14" in="0" out="18568"/>
  <entry producer="18" in="0" out="6187"/>
  <entry producer="30" in="0" out="119"/>
  <entry producer="31" in="0" out="119"/>
  <entry producer="32" in="0" out="119"/>
  <entry producer="33" in="0" out="5728"/>
 </playlist>
 <producer id="black" in="0" out="21906">
  <property name="length">21907</property>
  <property name="eof">pause</property>
  <property name="resource">black</property>
  <property name="aspect_ratio">0</property>
  <property name="mlt_service">colour</property>
  <property name="set.test_audio">0</property>
 </producer>
 <playlist id="black_track">
  <entry producer="black" in="0" out="6616"/>
 </playlist>
 <producer title="Anonymous Submission" id="29_playlist12" in="0" out="3263">
  <property name="length">00:02:16:00</property>
  <property name="eof">pause</property>
  <property name="resource">/home/slave/SnapshatAuHarem_Master_r14_2018-12-12.flac</property>
  <property name="audio_index">0</property>
  <property name="video_index">-1</property>
  <property name="mute_on_pause">1</property>
  <property name="mlt_service">avformat-novalidate</property>
  <property name="seekable">1</property>
  <property name="kdenlive:file_size">28399154</property>
  <property name="kdenlive:file_hash">ddbf26a019f7d426329e414285b94305</property>
  <property name="global_feed">1</property>
  <property name="xml">was here</property>
  <property name="meta.media.nb_streams">1</property>
  <property name="meta.media.0.stream.type">audio</property>
  <property name="meta.media.0.codec.sample_fmt">s32</property>
  <property name="meta.media.0.codec.sample_rate">48000</property>
  <property name="meta.media.0.codec.channels">2</property>
  <property name="meta.media.0.codec.name">flac</property>
  <property name="meta.media.0.codec.long_name">FLAC (Free Lossless Audio Codec)</property>
  <property name="meta.media.0.codec.bit_rate">0</property>
 </producer>
 <playlist id="playlist12">
  <property name="kdenlive:track_name">Audio 3</property>
  <property name="kdenlive:audio_track">1</property>
  <property name="kdenlive:locked_track">1</property>
  <blank length="1440"/>
  <entry producer="29_playlist12" in="0" out="3263"/>
 </playlist>
 <producer title="Anonymous Submission" id="20_playlist1" in="0" out="3455">
  <property name="length">00:02:24:00</property>
  <property name="eof">pause</property>
  <property name="resource">/home/woii/Plagiat/Stage/Sounds/Samples/WholeWorld/Intro1.wav</property>
  <property name="audio_index">0</property>
  <property name="video_index">-1</property>
  <property name="mute_on_pause">1</property>
  <property name="mlt_service">avformat-novalidate</property>
  <property name="seekable">1</property>
  <property name="kdenlive:folderid">-1</property>
  <property name="kdenlive:file_size">27648040</property>
  <property name="kdenlive:file_hash">cca9bc04f4779f62a8baf76421a7072b</property>
  <property name="global_feed">1</property>
  <property name="xml">was here</property>
  <property name="meta.media.nb_streams">1</property>
  <property name="meta.media.0.stream.type">audio</property>
  <property name="meta.media.0.codec.sample_fmt">s16</property>
  <property name="meta.media.0.codec.sample_rate">48000</property>
  <property name="meta.media.0.codec.channels">2</property>
  <property name="meta.media.0.codec.name">pcm_s16le</property>
  <property name="meta.media.0.codec.long_name">PCM signed 16-bit little-endian</property>
  <property name="meta.media.0.codec.bit_rate">1536000</property>
 </producer>
 <playlist id="playlist1">
  <property name="kdenlive:track_name">Audio 2</property>
  <property name="kdenlive:audio_track">1</property>
  <blank length="39"/>
  <entry producer="20_playlist1" in="96" out="1503">
   <filter id="fadeout" in="1402" out="1504">
    <property name="window">75</property>
    <property name="max_gain">20dB</property>
    <property name="mlt_service">volume</property>
    <property name="kdenlive_id">fadeout</property>
    <property name="tag">volume</property>
    <property name="kdenlive_ix">1</property>
    <property name="gain">1</property>
    <property name="end">0</property>
    <property name="kdenlive_info"/>
   </filter>
  </entry>
  <blank length="3221"/>
  <entry producer="20_playlist1" in="1509" out="3455">
   <filter id="fadein" in="1509" out="1514">
    <property name="window">75</property>
    <property name="max_gain">20dB</property>
    <property name="mlt_service">volume</property>
    <property name="kdenlive_id">fadein</property>
    <property name="tag">volume</property>
    <property name="kdenlive_ix">1</property>
    <property name="gain">0</property>
    <property name="end">1</property>
    <property name="kdenlive_info"/>
    <property name="disable"/>
   </filter>
  </entry>
 </playlist>
 <producer title="Anonymous Submission" id="1_playlist2" in="0" out="4287">
  <property name="length">00:02:58:16</property>
  <property name="eof">pause</property>
  <property name="resource">/home/bordun/Clip01_SnapshatAuHarem/Audio/Snapchat_au_Harem.flac</property>
  <property name="audio_index">0</property>
  <property name="video_index">-1</property>
  <property name="mute_on_pause">1</property>
  <property name="mlt_service">avformat-novalidate</property>
  <property name="seekable">1</property>
  <property name="kdenlive:folderid">-1</property>
  <property name="kdenlive:file_size">16614188</property>
  <property name="kdenlive:file_hash">115a31e39ebfe7c973cc2dc7b9f7cbf8</property>
  <property name="global_feed">1</property>
  <property name="xml">was here</property>
  <property name="meta.media.nb_streams">1</property>
  <property name="meta.media.0.stream.type">audio</property>
  <property name="meta.media.0.codec.sample_fmt">s16</property>
  <property name="meta.media.0.codec.sample_rate">48000</property>
  <property name="meta.media.0.codec.channels">2</property>
  <property name="meta.media.0.codec.name">flac</property>
  <property name="meta.media.0.codec.long_name">FLAC (Free Lossless Audio Codec)</property>
  <property name="meta.media.0.codec.bit_rate">0</property>
 </producer>
 <playlist id="playlist2">
  <property name="kdenlive:track_name">Audio 1</property>
  <property name="kdenlive:audio_track">1</property>
  <property name="kdenlive:locked_track">1</property>
  <blank length="1440"/>
  <entry producer="1_playlist2" in="0" out="3180">
   <filter id="filter15" in="3131" out="3180">
    <property name="window">75</property>
    <property name="max_gain">20dB</property>
    <property name="mlt_service">volume</property>
    <property name="kdenlive_id">fadeout</property>
    <property name="tag">volume</property>
    <property name="kdenlive_ix">1</property>
    <property name="gain">1</property>
    <property name="end">0</property>
   </filter>
  </entry>
 </playlist>
 <producer title="Anonymous Submission" id="21_playlist3" in="0" out="6615">
  <property name="length">00:04:35:16</property>
  <property name="eof">pause</property>
  <property name="resource">08_Outro.kdenlive</property>
  <property name="mlt_service">xml</property>
  <property name="global_feed">1</property>
  <property name="xml">was here</property>
  <property name="seekable">1</property>
  <property name="kdenlive:folderid">-1</property>
  <property name="kdenlive:file_size">162052</property>
  <property name="kdenlive:file_hash">33b37d8ebf8f517268af3e4a3ee72cf4</property>
  <property name="kdenlive:proxy">-</property>
  <property name="proxy_out">6615</property>
  <property name="kdenlive:originalurl">08_Outro.kdenlive</property>
 </producer>
 <playlist id="playlist3">
  <property name="kdenlive:track_name">Video 1</property>
  <blank length="4649"/>
  <entry producer="21_playlist3" in="4649" out="6615"/>
 </playlist>
 <producer title="Anonymous Submission" id="14_playlist9" in="0" out="18568">
  <property name="length">00:12:53:17</property>
  <property name="eof">pause</property>
  <property name="resource">01_Couplet1.kdenlive</property>
  <property name="mlt_service">xml</property>
  <property name="global_feed">1</property>
  <property name="xml">was here</property>
  <property name="seekable">1</property>
  <property name="kdenlive:folderid">-1</property>
  <property name="kdenlive:file_size">239594</property>
  <property name="kdenlive:file_hash">d2592ac2d8f76c413d910b5853d8b226</property>
  <property name="kdenlive:proxy">-</property>
  <property name="proxy_out">18568</property>
  <property name="kdenlive:originalurl">01_Couplet1.kdenlive</property>
  <filter id="filter16">
   <property name="version">0,3</property>
   <property name="mlt_service">frei0r.levels</property>
   <property name="kdenlive_id">frei0r.levels</property>
   <property name="tag">frei0r.levels</property>
   <property name="kdenlive_ix">1</property>
   <property name="kdenlive_info"/>
   <property name="Channel">0,3</property>
   <property name="Input black level">0=0</property>
   <property name="Input white level">0=0,75</property>
   <property name="Gamma">0=0,25</property>
   <property name="Black output">0=0</property>
   <property name="White output">0=1</property>
   <property name="Show histogram">0</property>
   <property name="Histogram position">0,3</property>
   <property name="disable">0</property>
  </filter>
  <filter id="filter17">
   <property name="version">0,2</property>
   <property name="mlt_service">frei0r.coloradj_RGB</property>
   <property name="kdenlive_id">frei0r.coloradj_RGB</property>
   <property name="tag">frei0r.coloradj_RGB</property>
   <property name="kdenlive_ix">2</property>
   <property name="kdenlive_info"/>
   <property name="R">0=0,5</property>
   <property name="G">0=0,485</property>
   <property name="B">0=0,5</property>
   <property name="Action">0,5</property>
   <property name="Keep luma">1</property>
   <property name="Alpha controlled">0</property>
   <property name="Luma formula">1,0</property>
   <property name="disable">0</property>
  </filter>
  <filter id="filter18">
   <property name="version">0,3</property>
   <property name="mlt_service">frei0r.saturat0r</property>
   <property name="kdenlive_id">frei0r.saturat0r</property>
   <property name="tag">frei0r.saturat0r</property>
   <property name="kdenlive_ix">3</property>
   <property name="kdenlive_info"/>
   <property name="Saturation">0=0,07</property>
   <property name="disable">0</property>
  </filter>
 </producer>
 <playlist id="playlist9">
  <property name="kdenlive:track_name">Video 8</property>
  <blank length="1390"/>
  <entry producer="14_playlist9" in="1390" out="1669"/>
  <entry producer="14_playlist9" in="1670" out="1696"/>
  <entry producer="14_playlist9" in="1697" out="2287"/>
 </playlist>
 <playlist id="playlist10">
  <property name="kdenlive:track_name">Video 9</property>
 </playlist>
 <producer title="Anonymous Submission" id="27_playlist4" in="0" out="7838">
  <property name="length">00:05:26:15</property>
  <property name="eof">pause</property>
  <property name="resource">00_Intro.kdenlive</property>
  <property name="mlt_service">xml</property>
  <property name="global_feed">1</property>
  <property name="xml">was here</property>
  <property name="seekable">1</property>
  <property name="kdenlive:folderid">-1</property>
  <property name="kdenlive:file_size">302042</property>
  <property name="kdenlive:file_hash">9db686b603083d35b7719aa06373d693</property>
  <filter id="filter22">
   <property name="version">0,3</property>
   <property name="mlt_service">frei0r.levels</property>
   <property name="kdenlive_id">frei0r.levels</property>
   <property name="tag">frei0r.levels</property>
   <property name="kdenlive_ix">1</property>
   <property name="kdenlive_info"/>
   <property name="Channel">0,3</property>
   <property name="Input black level">0=0</property>
   <property name="Input white level">0=0,75</property>
   <property name="Gamma">0=0,25</property>
   <property name="Black output">0=0</property>
   <property name="White output">0=1</property>
   <property name="Show histogram">0</property>
   <property name="Histogram position">0,3</property>
  </filter>
  <filter id="filter23">
   <property name="version">0,2</property>
   <property name="mlt_service">frei0r.coloradj_RGB</property>
   <property name="kdenlive_id">frei0r.coloradj_RGB</property>
   <property name="tag">frei0r.coloradj_RGB</property>
   <property name="kdenlive_ix">2</property>
   <property name="kdenlive_info"/>
   <property name="R">0=0,5</property>
   <property name="G">0=0,485</property>
   <property name="B">0=0,5</property>
   <property name="Action">0,5</property>
   <property name="Keep luma">1</property>
   <property name="Alpha controlled">0</property>
   <property name="Luma formula">1,0</property>
  </filter>
  <filter id="filter24">
   <property name="version">0,3</property>
   <property name="mlt_service">frei0r.saturat0r</property>
   <property name="kdenlive_id">frei0r.saturat0r</property>
   <property name="tag">frei0r.saturat0r</property>
   <property name="kdenlive_ix">3</property>
   <property name="kdenlive_info"/>
   <property name="Saturation">0=0,07</property>
  </filter>
 </producer>
 <playlist id="playlist4">
  <property name="kdenlive:track_name">Video 2</property>
  <blank length="39"/>
  <entry producer="27_playlist4" in="201" out="1651"/>
 </playlist>
 <producer title="Anonymous Submission" id="15_playlist5" in="0" out="5728">
  <property name="length">00:03:58:17</property>
  <property name="eof">pause</property>
  <property name="resource">02_Refrain1.kdenlive</property>
  <property name="mlt_service">xml</property>
  <property name="global_feed">1</property>
  <property name="xml">was here</property>
  <property name="seekable">1</property>
  <property name="aspect_ratio">1</property>
  <property name="mute_on_pause">1</property>
  <property name="kdenlive:folderid">-1</property>
  <property name="kdenlive:file_size">82406</property>
  <property name="kdenlive:file_hash">ea3c67122c9e9c373169a9d9a933f1b0</property>
  <property name="kdenlive:proxy">-</property>
  <property name="proxy_out">5728</property>
  <property name="kdenlive:originalurl">02_Refrain1.kdenlive</property>
  <filter id="filter25">
   <property name="version">0,3</property>
   <property name="mlt_service">frei0r.levels</property>
   <property name="kdenlive_id">frei0r.levels</property>
   <property name="tag">frei0r.levels</property>
   <property name="kdenlive_ix">1</property>
   <property name="kdenlive_info"/>
   <property name="Channel">0,3</property>
   <property name="Input black level">0=0</property>
   <property name="Input white level">0=0,75</property>
   <property name="Gamma">0=0,25</property>
   <property name="Black output">0=0</property>
   <property name="White output">0=1</property>
   <property name="Show histogram">0</property>
   <property name="Histogram position">0,3</property>
  </filter>
  <filter id="filter26">
   <property name="version">0,2</property>
   <property name="mlt_service">frei0r.coloradj_RGB</property>
   <property name="kdenlive_id">frei0r.coloradj_RGB</property>
   <property name="tag">frei0r.coloradj_RGB</property>
   <property name="kdenlive_ix">2</property>
   <property name="kdenlive_info"/>
   <property name="R">0=0,5</property>
   <property name="G">0=0,485</property>
   <property name="B">0=0,5</property>
   <property name="Action">0,5</property>
   <property name="Keep luma">1</property>
   <property name="Alpha controlled">0</property>
   <property name="Luma formula">1,0</property>
  </filter>
  <filter id="filter27">
   <property name="version">0,3</property>
   <property name="mlt_service">frei0r.saturat0r</property>
   <property name="kdenlive_id">frei0r.saturat0r</property>
   <property name="tag">frei0r.saturat0r</property>
   <property name="kdenlive_ix">3</property>
   <property name="kdenlive_info"/>
   <property name="Saturation">0=0,07</property>
  </filter>
 </producer>
 <playlist id="playlist5">
  <property name="kdenlive:track_name">Video 3</property>
  <property name="kdenlive:locked_track">0</property>
  <blank length="1319"/>
  <entry producer="22" in="6" out="176"/>
  <blank length="780"/>
  <entry producer="15_playlist5" in="2270" out="2823"/>
 </playlist>
 <producer title="Anonymous Submission" id="16_playlist0" in="0" out="6187">
  <property name="length">00:04:17:20</property>
  <property name="eof">pause</property>
  <property name="resource">04_Couplet2-1.kdenlive</property>
  <property name="mlt_service">xml</property>
  <property name="global_feed">1</property>
  <property name="xml">was here</property>
  <property name="seekable">1</property>
  <property name="kdenlive:folderid">-1</property>
  <property name="kdenlive:file_size">348163</property>
  <property name="kdenlive:file_hash">f92bd22844a5d765abf5bdcef56c7ac5</property>
  <property name="kdenlive:proxy">-</property>
  <property name="proxy_out">6187</property>
  <property name="kdenlive:originalurl">04_Couplet2-1.kdenlive</property>
  <filter id="filter28">
   <property name="version">0,3</property>
   <property name="mlt_service">frei0r.levels</property>
   <property name="kdenlive_id">frei0r.levels</property>
   <property name="tag">frei0r.levels</property>
   <property name="kdenlive_ix">1</property>
   <property name="kdenlive_info"/>
   <property name="Channel">0,3</property>
   <property name="Input black level">0=0</property>
   <property name="Input white level">0=0,75</property>
   <property name="Gamma">0=0,25</property>
   <property name="Black output">0=0</property>
   <property name="White output">0=1</property>
   <property name="Show histogram">0</property>
   <property name="Histogram position">0,3</property>
  </filter>
  <filter id="filter29">
   <property name="version">0,2</property>
   <property name="mlt_service">frei0r.coloradj_RGB</property>
   <property name="kdenlive_id">frei0r.coloradj_RGB</property>
   <property name="tag">frei0r.coloradj_RGB</property>
   <property name="kdenlive_ix">2</property>
   <property name="kdenlive_info"/>
   <property name="R">0=0,5</property>
   <property name="G">0=0,5</property>
   <property name="B">0=0,5</property>
   <property name="Action">0,5</property>
   <property name="Keep luma">1</property>
   <property name="Alpha controlled">0</property>
   <property name="Luma formula">1,0</property>
  </filter>
  <filter id="filter30">
   <property name="version">0,3</property>
   <property name="mlt_service">frei0r.saturat0r</property>
   <property name="kdenlive_id">frei0r.saturat0r</property>
   <property name="tag">frei0r.saturat0r</property>
   <property name="kdenlive_ix">3</property>
   <property name="kdenlive_info"/>
   <property name="Saturation">0=0,07</property>
  </filter>
 </producer>
 <playlist id="playlist0">
  <property name="kdenlive:track_name">Video 4</property>
  <blank length="1319"/>
  <entry producer="25" in="6" out="176"/>
  <blank length="1330"/>
  <entry producer="16_playlist0" in="2821" out="3282"/>
 </playlist>
 <producer title="Anonymous Submission" id="16_playlist6" in="0" out="6187">
  <property name="length">00:04:17:20</property>
  <property name="eof">pause</property>
  <property name="resource">04_Couplet2-1.kdenlive</property>
  <property name="mlt_service">xml</property>
  <property name="global_feed">1</property>
  <property name="xml">was here</property>
  <property name="seekable">1</property>
  <property name="kdenlive:folderid">-1</property>
  <property name="kdenlive:file_size">348163</property>
  <property name="kdenlive:file_hash">f92bd22844a5d765abf5bdcef56c7ac5</property>
  <property name="kdenlive:proxy">-</property>
  <property name="proxy_out">6187</property>
  <property name="kdenlive:originalurl">04_Couplet2-1.kdenlive</property>
  <filter id="filter31">
   <property name="version">0,3</property>
   <property name="mlt_service">frei0r.levels</property>
   <property name="kdenlive_id">frei0r.levels</property>
   <property name="tag">frei0r.levels</property>
   <property name="kdenlive_ix">1</property>
   <property name="kdenlive_info"/>
   <property name="Channel">0,3</property>
   <property name="Input black level">0=0</property>
   <property name="Input white level">0=0,75</property>
   <property name="Gamma">0=0,25</property>
   <property name="Black output">0=0</property>
   <property name="White output">0=1</property>
   <property name="Show histogram">0</property>
   <property name="Histogram position">0,3</property>
  </filter>
  <filter id="filter32">
   <property name="version">0,2</property>
   <property name="mlt_service">frei0r.coloradj_RGB</property>
   <property name="kdenlive_id">frei0r.coloradj_RGB</property>
   <property name="tag">frei0r.coloradj_RGB</property>
   <property name="kdenlive_ix">2</property>
   <property name="kdenlive_info"/>
   <property name="R">0=0,5</property>
   <property name="G">0=0,5</property>
   <property name="B">0=0,5</property>
   <property name="Action">0,5</property>
   <property name="Keep luma">1</property>
   <property name="Alpha controlled">0</property>
   <property name="Luma formula">1,0</property>
  </filter>
  <filter id="filter33">
   <property name="version">0,3</property>
   <property name="mlt_service">frei0r.saturat0r</property>
   <property name="kdenlive_id">frei0r.saturat0r</property>
   <property name="tag">frei0r.saturat0r</property>
   <property name="kdenlive_ix">3</property>
   <property name="kdenlive_info"/>
   <property name="Saturation">0=0,07</property>
  </filter>
 </producer>
 <playlist id="playlist6">
  <property name="kdenlive:track_name">Video 5</property>
  <blank length="1319"/>
  <entry producer="23" in="7" out="177"/>
  <blank length="1487"/>
  <entry producer="16_playlist6" in="2978" out="3101">
   <filter id="filter34">
    <property name="version">0,3</property>
    <property name="mlt_service">frei0r.levels</property>
    <property name="kdenlive_id">frei0r.levels</property>
    <property name="tag">frei0r.levels</property>
    <property name="kdenlive_info"/>
    <property name="kdenlive_ix">1</property>
    <property name="disable">0</property>
    <property name="Channel">0,3</property>
    <property name="Input black level">2978=0</property>
    <property name="Input white level">2978=1</property>
    <property name="Gamma">2978=0,25</property>
    <property name="Black output">2978=0</property>
    <property name="White output">2978=0,88</property>
    <property name="Show histogram">0</property>
    <property name="Histogram position">0,3</property>
   </filter>
   <filter id="filter35">
    <property name="version">0,2</property>
    <property name="mlt_service">frei0r.coloradj_RGB</property>
    <property name="kdenlive_id">frei0r.coloradj_RGB</property>
    <property name="tag">frei0r.coloradj_RGB</property>
    <property name="kdenlive_info"/>
    <property name="kdenlive_ix">2</property>
    <property name="disable">0</property>
    <property name="R">2978=0,48</property>
    <property name="G">2978=0,5</property>
    <property name="B">2978=0,5</property>
    <property name="Action">0,5</property>
    <property name="Keep luma">1</property>
    <property name="Alpha controlled">0</property>
    <property name="Luma formula">1,0</property>
   </filter>
  </entry>
  <blank length="66"/>
  <entry producer="16_playlist6" in="3168" out="3220">
   <filter id="filter36">
    <property name="version">0,3</property>
    <property name="mlt_service">frei0r.levels</property>
    <property name="kdenlive_id">frei0r.levels</property>
    <property name="tag">frei0r.levels</property>
    <property name="kdenlive_info"/>
    <property name="kdenlive_ix">1</property>
    <property name="disable">0</property>
    <property name="Channel">0,3</property>
    <property name="Input black level">3168=0</property>
    <property name="Input white level">3168=1</property>
    <property name="Gamma">3168=0,25</property>
    <property name="Black output">3168=0</property>
    <property name="White output">3168=0,88</property>
    <property name="Show histogram">0</property>
    <property name="Histogram position">0,3</property>
   </filter>
   <filter id="filter37">
    <property name="version">0,2</property>
    <property name="mlt_service">frei0r.coloradj_RGB</property>
    <property name="kdenlive_id">frei0r.coloradj_RGB</property>
    <property name="tag">frei0r.coloradj_RGB</property>
    <property name="kdenlive_info"/>
    <property name="kdenlive_ix">2</property>
    <property name="disable">0</property>
    <property name="R">3168=0,48</property>
    <property name="G">3168=0,5</property>
    <property name="B">3168=0,5</property>
    <property name="Action">0,5</property>
    <property name="Keep luma">1</property>
    <property name="Alpha controlled">0</property>
    <property name="Luma formula">1,0</property>
   </filter>
  </entry>
 </playlist>
 <producer title="Anonymous Submission" id="17_playlist13" in="0" out="5728">
  <property name="length">00:03:58:17</property>
  <property name="eof">pause</property>
  <property name="resource">05_Trap.kdenlive</property>
  <property name="mlt_service">xml</property>
  <property name="global_feed">1</property>
  <property name="xml">was here</property>
  <property name="seekable">1</property>
  <property name="kdenlive:folderid">-1</property>
  <property name="kdenlive:file_size">340682</property>
  <property name="kdenlive:file_hash">bf741965d272a21b562507a7c26c45d8</property>
  <property name="proxy_out">5728</property>
  <property name="kdenlive:originalurl">05_Trap.kdenlive</property>
  <filter id="filter38">
   <property name="version">0,9</property>
   <property name="mlt_service">frei0r.sigmoidaltransfer</property>
   <property name="kdenlive_id">frei0r.sigmoidaltransfer</property>
   <property name="tag">frei0r.sigmoidaltransfer</property>
   <property name="kdenlive_ix">1</property>
   <property name="kdenlive_info"/>
   <property name="disable">0</property>
   <property name="0">1</property>
   <property name="1">0,225</property>
  </filter>
 </producer>
 <playlist id="playlist13">
  <property name="kdenlive:track_name">Vidéo 1</property>
  <blank length="3278"/>
  <entry producer="17_playlist13" in="3275" out="3281"/>
  <entry producer="17_playlist13" in="3282" out="3283"/>
  <entry producer="17_playlist13" in="3284" out="3299"/>
  <entry producer="17_playlist13" in="3300" out="3309"/>
  <blank length="2"/>
  <entry producer="17_playlist13" in="3313" out="3314">
   <filter id="frei0r.glitch0r">
    <property name="version">0,1</property>
    <property name="mlt_service">frei0r.glitch0r</property>
    <property name="kdenlive_id">frei0r.glitch0r</property>
    <property name="tag">frei0r.glitch0r</property>
    <property name="kdenlive_ix">1</property>
    <property name="0">1</property>
    <property name="1">0,153</property>
    <property name="2">0,026</property>
    <property name="3">0</property>
    <property name="kdenlive_info"/>
   </filter>
  </entry>
  <entry producer="17_playlist13" in="3315" out="3318"/>
  <entry producer="17_playlist13" in="3319" out="3355"/>
  <entry producer="17_playlist13" in="3356" out="3367"/>
  <entry producer="17_playlist13" in="3368" out="3379"/>
  <entry producer="17_playlist13" in="3380" out="3380"/>
  <entry producer="17_playlist13" in="3381" out="3420"/>
  <entry producer="17_playlist13" in="3423" out="3450"/>
  <entry producer="17_playlist13" in="3449" out="3456"/>
  <entry producer="17_playlist13" in="3457" out="3559"/>
 </playlist>
 <producer title="Anonymous Submission" id="33_playlist11" in="0" out="5728">
  <property name="length">00:03:58:17</property>
  <property name="eof">pause</property>
  <property name="resource">05_Trap.kdenlive</property>
  <property name="mlt_service">xml</property>
  <property name="global_feed">1</property>
  <property name="xml">was here</property>
  <property name="seekable">1</property>
  <property name="kdenlive:folderid">-1</property>
  <property name="kdenlive:file_size">332083</property>
  <property name="kdenlive:file_hash">9540427bb9ccc6440ab83ba5c7af7939</property>
  <property name="proxy_out">5728</property>
  <property name="kdenlive:originalurl">05_Trap.kdenlive</property>
  <property name="kdenlive:clipname">05_Trap.kdenlive (COLOR)</property>
 </producer>
 <producer title="Anonymous Submission" id="17_playlist11" in="0" out="5728">
  <property name="length">00:03:58:17</property>
  <property name="eof">pause</property>
  <property name="resource">05_Trap.kdenlive</property>
  <property name="mlt_service">xml</property>
  <property name="global_feed">1</property>
  <property name="xml">was here</property>
  <property name="seekable">1</property>
  <property name="kdenlive:folderid">-1</property>
  <property name="kdenlive:file_size">340682</property>
  <property name="kdenlive:file_hash">bf741965d272a21b562507a7c26c45d8</property>
  <property name="proxy_out">5728</property>
  <property name="kdenlive:originalurl">05_Trap.kdenlive</property>
  <filter id="filter39">
   <property name="version">0,9</property>
   <property name="mlt_service">frei0r.sigmoidaltransfer</property>
   <property name="kdenlive_id">frei0r.sigmoidaltransfer</property>
   <property name="tag">frei0r.sigmoidaltransfer</property>
   <property name="kdenlive_ix">1</property>
   <property name="kdenlive_info"/>
   <property name="disable">0</property>
   <property name="0">1</property>
   <property name="1">0,225</property>
  </filter>
 </producer>
 <playlist id="playlist11">
  <property name="kdenlive:track_name">Video 10</property>
  <blank length="3278"/>
  <entry producer="33_playlist11" in="3275" out="3281"/>
  <blank length="28"/>
  <entry producer="17_playlist11" in="3311" out="3312">
   <filter id="filter40">
    <property name="version">0,9</property>
    <property name="mlt_service">frei0r.sigmoidaltransfer</property>
    <property name="kdenlive_id">frei0r.sigmoidaltransfer</property>
    <property name="tag">frei0r.sigmoidaltransfer</property>
    <property name="kdenlive_info"/>
    <property name="kdenlive_ix">1</property>
    <property name="disable">0</property>
    <property name="0">1</property>
    <property name="1">0,225</property>
   </filter>
   <filter id="frei0r.rgbsplit0r">
    <property name="version">0,1</property>
    <property name="mlt_service">frei0r.rgbsplit0r</property>
    <property name="kdenlive_id">frei0r.rgbsplit0r</property>
    <property name="tag">frei0r.rgbsplit0r</property>
    <property name="kdenlive_ix">2</property>
    <property name="0">0,06</property>
    <property name="1">0</property>
    <property name="kdenlive_info">0/-1/</property>
    <property name="disable"/>
   </filter>
  </entry>
  <blank length="67"/>
  <entry producer="33_playlist11" in="3379" out="3380"/>
  <blank length="67"/>
  <entry producer="17_playlist11" in="3449" out="3450">
   <filter id="filter41">
    <property name="version">0,9</property>
    <property name="mlt_service">frei0r.sigmoidaltransfer</property>
    <property name="kdenlive_id">frei0r.sigmoidaltransfer</property>
    <property name="tag">frei0r.sigmoidaltransfer</property>
    <property name="kdenlive_info"/>
    <property name="kdenlive_ix">1</property>
    <property name="disable">0</property>
    <property name="0">1</property>
    <property name="1">0,225</property>
   </filter>
   <filter id="filter42">
    <property name="version">0,1</property>
    <property name="mlt_service">frei0r.rgbsplit0r</property>
    <property name="kdenlive_id">frei0r.rgbsplit0r</property>
    <property name="tag">frei0r.rgbsplit0r</property>
    <property name="kdenlive_ix">2</property>
    <property name="0">0</property>
    <property name="1">0,072</property>
    <property name="kdenlive_info"/>
   </filter>
   <filter id="filter43">
    <property name="version">0,1</property>
    <property name="mlt_service">frei0r.glitch0r</property>
    <property name="kdenlive_id">frei0r.glitch0r</property>
    <property name="tag">frei0r.glitch0r</property>
    <property name="kdenlive_ix">3</property>
    <property name="0">1</property>
    <property name="1">0,499</property>
    <property name="2">0,169</property>
    <property name="3">0</property>
    <property name="kdenlive_info"/>
    <property name="disable"/>
   </filter>
  </entry>
 </playlist>
 <producer title="Anonymous Submission" id="18_playlist7" in="0" out="6187">
  <property name="length">00:04:17:20</property>
  <property name="eof">pause</property>
  <property name="resource">06_Couplet2-2.kdenlive</property>
  <property name="mlt_service">xml</property>
  <property name="global_feed">1</property>
  <property name="xml">was here</property>
  <property name="seekable">1</property>
  <property name="kdenlive:folderid">-1</property>
  <property name="kdenlive:file_size">361256</property>
  <property name="kdenlive:file_hash">fd59c174b6649ee6b702b208c12ec54c</property>
  <property name="proxy_out">6187</property>
  <property name="kdenlive:originalurl">06_Couplet2-2.kdenlive</property>
  <filter id="filter44">
   <property name="version">0,3</property>
   <property name="mlt_service">frei0r.levels</property>
   <property name="kdenlive_id">frei0r.levels</property>
   <property name="tag">frei0r.levels</property>
   <property name="kdenlive_ix">1</property>
   <property name="kdenlive_info"/>
   <property name="Channel">0,3</property>
   <property name="Input black level">0=0</property>
   <property name="Input white level">0=0,75</property>
   <property name="Gamma">0=0,25</property>
   <property name="Black output">0=0</property>
   <property name="White output">0=1</property>
   <property name="Show histogram">0</property>
   <property name="Histogram position">0,3</property>
   <property name="disable">0</property>
  </filter>
  <filter id="filter45">
   <property name="version">0,2</property>
   <property name="mlt_service">frei0r.coloradj_RGB</property>
   <property name="kdenlive_id">frei0r.coloradj_RGB</property>
   <property name="tag">frei0r.coloradj_RGB</property>
   <property name="kdenlive_ix">2</property>
   <property name="kdenlive_info"/>
   <property name="R">0=0,5</property>
   <property name="G">0=0,48</property>
   <property name="B">0=0,5</property>
   <property name="Action">0,5</property>
   <property name="Keep luma">1</property>
   <property name="Alpha controlled">0</property>
   <property name="Luma formula">1,0</property>
   <property name="disable">0</property>
  </filter>
  <filter id="filter46">
   <property name="version">0,3</property>
   <property name="mlt_service">frei0r.saturat0r</property>
   <property name="kdenlive_id">frei0r.saturat0r</property>
   <property name="tag">frei0r.saturat0r</property>
   <property name="kdenlive_ix">3</property>
   <property name="kdenlive_info"/>
   <property name="Saturation">0=0,07</property>
   <property name="disable">0</property>
  </filter>
 </producer>
 <producer title="Anonymous Submission" id="19_playlist7" in="0" out="5728">
  <property name="length">00:03:58:17</property>
  <property name="eof">pause</property>
  <property name="resource">07_Refrain2.kdenlive</property>
  <property name="mlt_service">xml</property>
  <property name="global_feed">1</property>
  <property name="xml">was here</property>
  <property name="seekable">1</property>
  <property name="kdenlive:folderid">-1</property>
  <property name="kdenlive:file_size">181251</property>
  <property name="kdenlive:file_hash">7d28c9aa380001fa66055357e4145f19</property>
  <property name="proxy_out">5728</property>
  <property name="kdenlive:originalurl">07_Refrain2.kdenlive</property>
  <filter id="filter55">
   <property name="version">0,3</property>
   <property name="mlt_service">frei0r.levels</property>
   <property name="kdenlive_id">frei0r.levels</property>
   <property name="tag">frei0r.levels</property>
   <property name="kdenlive_ix">1</property>
   <property name="kdenlive_info"/>
   <property name="Channel">0,3</property>
   <property name="Input black level">0=0</property>
   <property name="Input white level">0=0,75</property>
   <property name="Gamma">0=0,25</property>
   <property name="Black output">0=0</property>
   <property name="White output">0=1</property>
   <property name="Show histogram">0</property>
   <property name="Histogram position">0,3</property>
   <property name="disable">0</property>
  </filter>
  <filter id="filter56">
   <property name="version">0,2</property>
   <property name="mlt_service">frei0r.coloradj_RGB</property>
   <property name="kdenlive_id">frei0r.coloradj_RGB</property>
   <property name="tag">frei0r.coloradj_RGB</property>
   <property name="kdenlive_ix">2</property>
   <property name="kdenlive_info"/>
   <property name="R">0=0,5</property>
   <property name="G">0=0,48</property>
   <property name="B">0=0,5</property>
   <property name="Action">0,5</property>
   <property name="Keep luma">1</property>
   <property name="Alpha controlled">0</property>
   <property name="Luma formula">1,0</property>
   <property name="disable">0</property>
  </filter>
  <filter id="filter57">
   <property name="version">0,3</property>
   <property name="mlt_service">frei0r.saturat0r</property>
   <property name="kdenlive_id">frei0r.saturat0r</property>
   <property name="tag">frei0r.saturat0r</property>
   <property name="kdenlive_ix">3</property>
   <property name="kdenlive_info"/>
   <property name="Saturation">0=0,07</property>
   <property name="disable">0</property>
  </filter>
 </producer>
 <playlist id="playlist7">
  <property name="kdenlive:track_name">Video 6</property>
  <blank length="1415"/>
  <entry producer="24" in="0" out="74">
   <filter id="filter47">
    <property name="background">colour:0x00000000</property>
    <property name="mlt_service">affine</property>
    <property name="kdenlive_id">pan_zoom</property>
    <property name="tag">affine</property>
    <property name="kdenlive_ix">1</property>
    <property name="kdenlive_info"/>
    <property name="disable"/>
    <property name="transition.geometry">0=643/256:250x140:100;58=638/361:250x140:100;63=634/361:250x140:100;74=623/363:250x140:100</property>
    <property name="transition.distort">0</property>
   </filter>
  </entry>
  <blank length="2036"/>
  <entry producer="18_playlist7" in="3526" out="3533"/>
  <entry producer="18_playlist7" in="3534" out="3535">
   <filter id="filter48">
    <property name="version">0,1</property>
    <property name="mlt_service">frei0r.glitch0r</property>
    <property name="kdenlive_id">frei0r.glitch0r</property>
    <property name="tag">frei0r.glitch0r</property>
    <property name="kdenlive_ix">1</property>
    <property name="0">1</property>
    <property name="1">0,207</property>
    <property name="2">0,042</property>
    <property name="3">0</property>
    <property name="kdenlive_info"/>
    <property name="disable"/>
   </filter>
  </entry>
  <entry producer="18_playlist7" in="3536" out="3537">
   <filter id="filter49">
    <property name="version">0,1</property>
    <property name="mlt_service">frei0r.glitch0r</property>
    <property name="kdenlive_id">frei0r.glitch0r</property>
    <property name="tag">frei0r.glitch0r</property>
    <property name="kdenlive_ix">1</property>
    <property name="0">1</property>
    <property name="1">0,099</property>
    <property name="2">0,017</property>
    <property name="3">0</property>
    <property name="kdenlive_info"/>
    <property name="disable"/>
   </filter>
  </entry>
  <entry producer="18_playlist7" in="3538" out="3539">
   <filter id="filter50">
    <property name="version">0,1</property>
    <property name="mlt_service">frei0r.glitch0r</property>
    <property name="kdenlive_id">frei0r.glitch0r</property>
    <property name="tag">frei0r.glitch0r</property>
    <property name="kdenlive_ix">1</property>
    <property name="0">1</property>
    <property name="1">0,099</property>
    <property name="2">0,053</property>
    <property name="3">0</property>
    <property name="disable">0</property>
   </filter>
   <filter id="filter51">
    <property name="version">0,1</property>
    <property name="mlt_service">frei0r.rgbsplit0r</property>
    <property name="kdenlive_id">frei0r.rgbsplit0r</property>
    <property name="tag">frei0r.rgbsplit0r</property>
    <property name="kdenlive_ix">2</property>
    <property name="0">0,041</property>
    <property name="1">0,061</property>
    <property name="kdenlive_info"/>
   </filter>
  </entry>
  <entry producer="18_playlist7" in="3540" out="3541">
   <filter id="filter52">
    <property name="version">0,1</property>
    <property name="mlt_service">frei0r.glitch0r</property>
    <property name="kdenlive_id">frei0r.glitch0r</property>
    <property name="tag">frei0r.glitch0r</property>
    <property name="kdenlive_ix">1</property>
    <property name="disable">0</property>
    <property name="0">1</property>
    <property name="1">0,193</property>
    <property name="2">0,011</property>
    <property name="3">0</property>
    <property name="kdenlive_info"/>
   </filter>
   <filter id="filter53">
    <property name="version">0,1</property>
    <property name="mlt_service">frei0r.rgbsplit0r</property>
    <property name="kdenlive_id">frei0r.rgbsplit0r</property>
    <property name="tag">frei0r.rgbsplit0r</property>
    <property name="kdenlive_ix">2</property>
    <property name="0">0,041</property>
    <property name="1">0,061</property>
   </filter>
   <filter id="frei0r.nosync0r">
    <property name="version">0,2</property>
    <property name="mlt_service">frei0r.nosync0r</property>
    <property name="kdenlive_id">frei0r.nosync0r</property>
    <property name="tag">frei0r.nosync0r</property>
    <property name="kdenlive_ix">3</property>
    <property name="HSync">0,187</property>
    <property name="kdenlive_info"/>
   </filter>
   <filter id="frei0r.hueshift0r">
    <property name="version">0,3</property>
    <property name="mlt_service">frei0r.hueshift0r</property>
    <property name="kdenlive_id">frei0r.hueshift0r</property>
    <property name="tag">frei0r.hueshift0r</property>
    <property name="kdenlive_ix">4</property>
    <property name="Hue">3540=0,230556</property>
    <property name="kdenlive_info"/>
   </filter>
  </entry>
  <entry producer="18_playlist7" in="3542" out="3542">
   <filter id="filter54">
    <property name="version">0,1</property>
    <property name="mlt_service">frei0r.glitch0r</property>
    <property name="kdenlive_id">frei0r.glitch0r</property>
    <property name="tag">frei0r.glitch0r</property>
    <property name="kdenlive_ix">1</property>
    <property name="disable">0</property>
    <property name="0">1</property>
    <property name="1">0,193</property>
    <property name="2">0,005</property>
    <property name="3">0</property>
    <property name="kdenlive_info"/>
   </filter>
   <filter id="filter58">
    <property name="version">0,1</property>
    <property name="mlt_service">frei0r.rgbsplit0r</property>
    <property name="kdenlive_id">frei0r.rgbsplit0r</property>
    <property name="tag">frei0r.rgbsplit0r</property>
    <property name="kdenlive_ix">2</property>
    <property name="0">0,041</property>
    <property name="1">0,061</property>
   </filter>
   <filter id="filter59">
    <property name="version">0,2</property>
    <property name="mlt_service">frei0r.nosync0r</property>
    <property name="kdenlive_id">frei0r.nosync0r</property>
    <property name="tag">frei0r.nosync0r</property>
    <property name="kdenlive_ix">3</property>
    <property name="HSync">0,627</property>
    <property name="kdenlive_info"/>
    <property name="disable"/>
   </filter>
  </entry>
  <entry producer="18_playlist7" in="3543" out="3543">
   <filter id="filter60">
    <property name="version">0,1</property>
    <property name="mlt_service">frei0r.glitch0r</property>
    <property name="kdenlive_id">frei0r.glitch0r</property>
    <property name="tag">frei0r.glitch0r</property>
    <property name="kdenlive_ix">1</property>
    <property name="disable">0</property>
    <property name="0">1</property>
    <property name="1">0,193</property>
    <property name="2">0,005</property>
    <property name="3">0</property>
    <property name="kdenlive_info"/>
   </filter>
   <filter id="filter61">
    <property name="version">0,1</property>
    <property name="mlt_service">frei0r.rgbsplit0r</property>
    <property name="kdenlive_id">frei0r.rgbsplit0r</property>
    <property name="tag">frei0r.rgbsplit0r</property>
    <property name="kdenlive_ix">2</property>
    <property name="0">0,041</property>
    <property name="1">0,061</property>
   </filter>
   <filter id="filter62">
    <property name="version">0,2</property>
    <property name="mlt_service">frei0r.nosync0r</property>
    <property name="kdenlive_id">frei0r.nosync0r</property>
    <property name="tag">frei0r.nosync0r</property>
    <property name="kdenlive_ix">3</property>
    <property name="HSync">0,741</property>
    <property name="kdenlive_info"/>
    <property name="disable"/>
   </filter>
   <filter id="filter63">
    <property name="version">0,3</property>
    <property name="mlt_service">frei0r.hueshift0r</property>
    <property name="kdenlive_id">frei0r.hueshift0r</property>
    <property name="tag">frei0r.hueshift0r</property>
    <property name="kdenlive_ix">4</property>
    <property name="Hue">3543=0,511111</property>
    <property name="kdenlive_info"/>
   </filter>
  </entry>
  <entry producer="18_playlist7" in="3544" out="3544">
   <filter id="filter64">
    <property name="version">0,1</property>
    <property name="mlt_service">frei0r.glitch0r</property>
    <property name="kdenlive_id">frei0r.glitch0r</property>
    <property name="tag">frei0r.glitch0r</property>
    <property name="kdenlive_ix">1</property>
    <property name="disable">0</property>
    <property name="0">1</property>
    <property name="1">0,193</property>
    <property name="2">0,005</property>
    <property name="3">0</property>
    <property name="kdenlive_info"/>
   </filter>
   <filter id="filter65">
    <property name="version">0,1</property>
    <property name="mlt_service">frei0r.rgbsplit0r</property>
    <property name="kdenlive_id">frei0r.rgbsplit0r</property>
    <property name="tag">frei0r.rgbsplit0r</property>
    <property name="kdenlive_ix">2</property>
    <property name="0">0,041</property>
    <property name="1">0,061</property>
   </filter>
   <filter id="filter66">
    <property name="version">0,2</property>
    <property name="mlt_service">frei0r.nosync0r</property>
    <property name="kdenlive_id">frei0r.nosync0r</property>
    <property name="tag">frei0r.nosync0r</property>
    <property name="kdenlive_ix">3</property>
    <property name="HSync">0,511</property>
    <property name="kdenlive_info"/>
   </filter>
  </entry>
  <entry producer="18_playlist7" in="3547" out="3548">
   <filter id="filter67">
    <property name="version">0,1</property>
    <property name="mlt_service">frei0r.glitch0r</property>
    <property name="kdenlive_id">frei0r.glitch0r</property>
    <property name="tag">frei0r.glitch0r</property>
    <property name="kdenlive_ix">1</property>
    <property name="kdenlive_info"/>
    <property name="disable">0</property>
    <property name="0">1</property>
    <property name="1">0,193</property>
    <property name="2">0,024</property>
    <property name="3">0</property>
   </filter>
   <filter id="filter68">
    <property name="version">0,1</property>
    <property name="mlt_service">frei0r.rgbsplit0r</property>
    <property name="kdenlive_id">frei0r.rgbsplit0r</property>
    <property name="tag">frei0r.rgbsplit0r</property>
    <property name="kdenlive_ix">2</property>
    <property name="kdenlive_info"/>
    <property name="disable"/>
    <property name="0">0,244</property>
    <property name="1">0,011</property>
   </filter>
   <filter id="filter69">
    <property name="version">0,2</property>
    <property name="mlt_service">frei0r.nosync0r</property>
    <property name="kdenlive_id">frei0r.nosync0r</property>
    <property name="tag">frei0r.nosync0r</property>
    <property name="kdenlive_ix">3</property>
    <property name="kdenlive_info"/>
    <property name="disable"/>
    <property name="HSync">0,187</property>
   </filter>
   <filter id="filter70">
    <property name="version">0,3</property>
    <property name="mlt_service">frei0r.hueshift0r</property>
    <property name="kdenlive_id">frei0r.hueshift0r</property>
    <property name="tag">frei0r.hueshift0r</property>
    <property name="kdenlive_ix">4</property>
    <property name="Hue">3547=0,130556</property>
    <property name="kdenlive_info"/>
   </filter>
  </entry>
  <entry producer="18_playlist7" in="3547" out="3548">
   <filter id="filter71">
    <property name="version">0,1</property>
    <property name="mlt_service">frei0r.glitch0r</property>
    <property name="kdenlive_id">frei0r.glitch0r</property>
    <property name="tag">frei0r.glitch0r</property>
    <property name="kdenlive_ix">1</property>
    <property name="disable">0</property>
    <property name="0">1</property>
    <property name="1">0,193</property>
    <property name="2">0,024</property>
    <property name="3">0</property>
    <property name="kdenlive_info"/>
   </filter>
   <filter id="filter72">
    <property name="version">0,1</property>
    <property name="mlt_service">frei0r.rgbsplit0r</property>
    <property name="kdenlive_id">frei0r.rgbsplit0r</property>
    <property name="tag">frei0r.rgbsplit0r</property>
    <property name="kdenlive_ix">2</property>
    <property name="0">0,244</property>
    <property name="1">0,011</property>
    <property name="kdenlive_info"/>
   </filter>
   <filter id="filter73">
    <property name="version">0,2</property>
    <property name="mlt_service">frei0r.nosync0r</property>
    <property name="kdenlive_id">frei0r.nosync0r</property>
    <property name="tag">frei0r.nosync0r</property>
    <property name="kdenlive_ix">3</property>
    <property name="HSync">0,536</property>
    <property name="kdenlive_info"/>
    <property name="disable"/>
   </filter>
   <filter id="filter74">
    <property name="version">0,3</property>
    <property name="mlt_service">frei0r.hueshift0r</property>
    <property name="kdenlive_id">frei0r.hueshift0r</property>
    <property name="tag">frei0r.hueshift0r</property>
    <property name="kdenlive_ix">4</property>
    <property name="Hue">3547=0,877778</property>
    <property name="kdenlive_info"/>
    <property name="disable"/>
   </filter>
  </entry>
  <entry producer="18_playlist7" in="3549" out="4063"/>
  <blank length="268"/>
  <entry producer="19_playlist7" in="4332" out="4337">
   <filter id="filter75">
    <property name="version">0,9</property>
    <property name="mlt_service">frei0r.rgbnoise</property>
    <property name="kdenlive_id">frei0r.rgbnoise</property>
    <property name="tag">frei0r.rgbnoise</property>
    <property name="kdenlive_ix">1</property>
    <property name="0">0,874</property>
    <property name="kdenlive_info"/>
    <property name="disable">0</property>
   </filter>
   <filter id="frei0r.vertigo">
    <property name="version">1,1</property>
    <property name="mlt_service">frei0r.vertigo</property>
    <property name="kdenlive_id">frei0r.vertigo</property>
    <property name="tag">frei0r.vertigo</property>
    <property name="kdenlive_ix">2</property>
    <property name="PhaseIncrement">4332=0</property>
    <property name="Zoomrate">4332=0,1</property>
    <property name="kdenlive_info"/>
    <property name="disable"/>
   </filter>
   <filter id="frei0r.contrast0r">
    <property name="version">0,2</property>
    <property name="mlt_service">frei0r.contrast0r</property>
    <property name="kdenlive_id">frei0r.contrast0r</property>
    <property name="tag">frei0r.contrast0r</property>
    <property name="kdenlive_ix">3</property>
    <property name="Contrast">4332=0,996</property>
    <property name="kdenlive_info"/>
    <property name="disable"/>
   </filter>
  </entry>
 </playlist>
 <producer title="Anonymous Submission" id="19_playlist8" in="0" out="5728">
  <property name="length">00:03:58:17</property>
  <property name="eof">pause</property>
  <property name="resource">07_Refrain2.kdenlive</property>
  <property name="mlt_service">xml</property>
  <property name="global_feed">1</property>
  <property name="xml">was here</property>
  <property name="seekable">1</property>
  <property name="kdenlive:folderid">-1</property>
  <property name="kdenlive:file_size">181251</property>
  <property name="kdenlive:file_hash">7d28c9aa380001fa66055357e4145f19</property>
  <property name="proxy_out">5728</property>
  <property name="kdenlive:originalurl">07_Refrain2.kdenlive</property>
  <filter id="filter76">
   <property name="version">0,3</property>
   <property name="mlt_service">frei0r.levels</property>
   <property name="kdenlive_id">frei0r.levels</property>
   <property name="tag">frei0r.levels</property>
   <property name="kdenlive_ix">1</property>
   <property name="kdenlive_info"/>
   <property name="Channel">0,3</property>
   <property name="Input black level">0=0</property>
   <property name="Input white level">0=0,75</property>
   <property name="Gamma">0=0,25</property>
   <property name="Black output">0=0</property>
   <property name="White output">0=1</property>
   <property name="Show histogram">0</property>
   <property name="Histogram position">0,3</property>
   <property name="disable">0</property>
  </filter>
  <filter id="filter77">
   <property name="version">0,2</property>
   <property name="mlt_service">frei0r.coloradj_RGB</property>
   <property name="kdenlive_id">frei0r.coloradj_RGB</property>
   <property name="tag">frei0r.coloradj_RGB</property>
   <property name="kdenlive_ix">2</property>
   <property name="kdenlive_info"/>
   <property name="R">0=0,5</property>
   <property name="G">0=0,48</property>
   <property name="B">0=0,5</property>
   <property name="Action">0,5</property>
   <property name="Keep luma">1</property>
   <property name="Alpha controlled">0</property>
   <property name="Luma formula">1,0</property>
   <property name="disable">0</property>
  </filter>
  <filter id="filter78">
   <property name="version">0,3</property>
   <property name="mlt_service">frei0r.saturat0r</property>
   <property name="kdenlive_id">frei0r.saturat0r</property>
   <property name="tag">frei0r.saturat0r</property>
   <property name="kdenlive_ix">3</property>
   <property name="kdenlive_info"/>
   <property name="Saturation">0=0,07</property>
   <property name="disable">0</property>
  </filter>
 </producer>
 <playlist id="playlist8">
  <property name="kdenlive:track_name">Video 7</property>
  <blank length="1415"/>
  <entry producer="24" in="0" out="74">
   <filter id="filter79">
    <property name="background">colour:0x00000000</property>
    <property name="mlt_service">affine</property>
    <property name="kdenlive_id">pan_zoom</property>
    <property name="tag">affine</property>
    <property name="kdenlive_ix">1</property>
    <property name="kdenlive_info"/>
    <property name="disable"/>
    <property name="transition.geometry">0=1357/214:192x108:100;58=1357/260:192x108:100;74=1370/249:192x108:100</property>
    <property name="transition.distort">0</property>
   </filter>
  </entry>
  <blank length="2574"/>
  <entry producer="19_playlist8" in="4064" out="4100">
   <filter id="pan_zoom" in="4064" out="4100">
    <property name="background">colour:0x00000000</property>
    <property name="mlt_service">affine</property>
    <property name="kdenlive_id">pan_zoom</property>
    <property name="tag">affine</property>
    <property name="kdenlive_ix">1</property>
    <property name="transition.geometry">0=-96/-54:2112x1188:100;1=0/0:1920x1080:100</property>
    <property name="transition.distort">0</property>
    <property name="kdenlive:sync_in_out">1</property>
    <property name="kdenlive_info"/>
   </filter>
  </entry>
  <entry producer="19_playlist8" in="4101" out="4335"/>
  <blank length="2"/>
  <entry producer="19_playlist8" in="4338" out="4350"/>
  <entry producer="19_playlist8" in="4351" out="4367">
   <filter id="filter80" in="4351" out="4367">
    <property name="background">colour:0x00000000</property>
    <property name="mlt_service">affine</property>
    <property name="kdenlive_id">pan_zoom</property>
    <property name="tag">affine</property>
    <property name="kdenlive_ix">1</property>
    <property name="transition.geometry">-144/-81:2208x1242:100</property>
    <property name="transition.distort">0</property>
    <property name="kdenlive:sync_in_out">1</property>
    <property name="kdenlive_info"/>
   </filter>
  </entry>
  <entry producer="19_playlist8" in="4368" out="4685"/>
 </playlist>
 <producer title="Anonymous Submission" id="19_playlist14" in="0" out="5728">
  <property name="length">00:03:58:17</property>
  <property name="eof">pause</property>
  <property name="resource">07_Refrain2.kdenlive</property>
  <property name="mlt_service">xml</property>
  <property name="global_feed">1</property>
  <property name="xml">was here</property>
  <property name="seekable">1</property>
  <property name="kdenlive:folderid">-1</property>
  <property name="kdenlive:file_size">181251</property>
  <property name="kdenlive:file_hash">7d28c9aa380001fa66055357e4145f19</property>
  <property name="proxy_out">5728</property>
  <property name="kdenlive:originalurl">07_Refrain2.kdenlive</property>
  <filter id="filter81">
   <property name="version">0,3</property>
   <property name="mlt_service">frei0r.levels</property>
   <property name="kdenlive_id">frei0r.levels</property>
   <property name="tag">frei0r.levels</property>
   <property name="kdenlive_ix">1</property>
   <property name="kdenlive_info"/>
   <property name="Channel">0,3</property>
   <property name="Input black level">0=0</property>
   <property name="Input white level">0=0,75</property>
   <property name="Gamma">0=0,25</property>
   <property name="Black output">0=0</property>
   <property name="White output">0=1</property>
   <property name="Show histogram">0</property>
   <property name="Histogram position">0,3</property>
   <property name="disable">0</property>
  </filter>
  <filter id="filter82">
   <property name="version">0,2</property>
   <property name="mlt_service">frei0r.coloradj_RGB</property>
   <property name="kdenlive_id">frei0r.coloradj_RGB</property>
   <property name="tag">frei0r.coloradj_RGB</property>
   <property name="kdenlive_ix">2</property>
   <property name="kdenlive_info"/>
   <property name="R">0=0,5</property>
   <property name="G">0=0,48</property>
   <property name="B">0=0,5</property>
   <property name="Action">0,5</property>
   <property name="Keep luma">1</property>
   <property name="Alpha controlled">0</property>
   <property name="Luma formula">1,0</property>
   <property name="disable">0</property>
  </filter>
  <filter id="filter83">
   <property name="version">0,3</property>
   <property name="mlt_service">frei0r.saturat0r</property>
   <property name="kdenlive_id">frei0r.saturat0r</property>
   <property name="tag">frei0r.saturat0r</property>
   <property name="kdenlive_ix">3</property>
   <property name="kdenlive_info"/>
   <property name="Saturation">0=0,07</property>
   <property name="disable">0</property>
  </filter>
 </producer>
 <playlist id="playlist14">
  <property name="kdenlive:track_name">Vidéo 2</property>
  <blank length="4351"/>
  <entry producer="19_playlist14" in="4351" out="4367">
   <filter id="rumble">
    <property name="delta">32</property>
    <property name="every">100</property>
    <property name="brightnessdelta_up">0</property>
    <property name="brightnessdelta_down">0</property>
    <property name="brightnessdelta_every">100</property>
    <property name="unevendevelop_up">0</property>
    <property name="unevendevelop_down">0</property>
    <property name="unevendevelop_duration">0</property>
    <property name="mlt_service">oldfilm</property>
    <property name="kdenlive_id">rumble</property>
    <property name="tag">oldfilm</property>
    <property name="kdenlive_ix">1</property>
    <property name="kdenlive_info">0/-1/</property>
    <property name="disable">0</property>
   </filter>
   <filter id="filter84" in="4351" out="4367">
    <property name="background">colour:0x00000000</property>
    <property name="mlt_service">affine</property>
    <property name="kdenlive_id">pan_zoom</property>
    <property name="tag">affine</property>
    <property name="kdenlive_ix">2</property>
    <property name="kdenlive:sync_in_out">1</property>
    <property name="kdenlive_info"/>
    <property name="transition.geometry">-144/-81:2208x1242:100</property>
    <property name="transition.distort">0</property>
    <property name="disable">0</property>
   </filter>
  </entry>
 </playlist>
 <tractor title="Anonymous Submission" id="maintractor" global_feed="1" in="0" out="6616">
  <track producer="black_track"/>
  <track hide="video" producer="playlist12"/>
  <track hide="video" producer="playlist1"/>
  <track hide="both" producer="playlist2"/>
  <track hide="audio" producer="playlist3"/>
  <track hide="audio" producer="playlist9"/>
  <track hide="audio" producer="playlist10"/>
  <track hide="audio" producer="playlist4"/>
  <track hide="audio" producer="playlist5"/>
  <track hide="audio" producer="playlist0"/>
  <track hide="audio" producer="playlist6"/>
  <track producer="playlist13"/>
  <track hide="audio" producer="playlist11"/>
  <track hide="audio" producer="playlist7"/>
  <track hide="audio" producer="playlist8"/>
  <track producer="playlist14"/>
  <transition id="transition0">
   <property name="a_track">0</property>
   <property name="b_track">1</property>
   <property name="mlt_service">mix</property>
   <property name="always_active">1</property>
   <property name="sum">1</property>
   <property name="internal_added">237</property>
  </transition>
  <transition id="transition1">
   <property name="a_track">0</property>
   <property name="b_track">2</property>
   <property name="mlt_service">mix</property>
   <property name="always_active">1</property>
   <property name="sum">1</property>
   <property name="internal_added">237</property>
  </transition>
  <transition id="transition2">
   <property name="a_track">0</property>
   <property name="b_track">3</property>
   <property name="mlt_service">mix</property>
   <property name="always_active">1</property>
   <property name="sum">1</property>
   <property name="internal_added">237</property>
  </transition>
  <transition id="transition3">
   <property name="a_track">0</property>
   <property name="b_track">4</property>
   <property name="mlt_service">mix</property>
   <property name="always_active">1</property>
   <property name="sum">1</property>
   <property name="internal_added">237</property>
  </transition>
  <transition id="transition4">
   <property name="a_track">0</property>
   <property name="b_track">5</property>
   <property name="mlt_service">mix</property>
   <property name="always_active">1</property>
   <property name="sum">1</property>
   <property name="internal_added">237</property>
  </transition>
  <transition id="transition5">
   <property name="a_track">0</property>
   <property name="b_track">6</property>
   <property name="mlt_service">mix</property>
   <property name="always_active">1</property>
   <property name="sum">1</property>
   <property name="internal_added">237</property>
  </transition>
  <transition id="transition6">
   <property name="a_track">0</property>
   <property name="b_track">7</property>
   <property name="mlt_service">mix</property>
   <property name="always_active">1</property>
   <property name="sum">1</property>
   <property name="internal_added">237</property>
  </transition>
  <transition id="transition7">
   <property name="a_track">0</property>
   <property name="b_track">8</property>
   <property name="mlt_service">mix</property>
   <property name="always_active">1</property>
   <property name="sum">1</property>
   <property name="internal_added">237</property>
  </transition>
  <transition id="transition8">
   <property name="a_track">0</property>
   <property name="b_track">9</property>
   <property name="mlt_service">mix</property>
   <property name="always_active">1</property>
   <property name="sum">1</property>
   <property name="internal_added">237</property>
  </transition>
  <transition id="transition9">
   <property name="a_track">0</property>
   <property name="b_track">10</property>
   <property name="mlt_service">mix</property>
   <property name="always_active">1</property>
   <property name="sum">1</property>
   <property name="internal_added">237</property>
  </transition>
  <transition id="transition10">
   <property name="a_track">0</property>
   <property name="b_track">11</property>
   <property name="mlt_service">mix</property>
   <property name="always_active">1</property>
   <property name="sum">1</property>
   <property name="internal_added">237</property>
  </transition>
  <transition id="transition11">
   <property name="a_track">0</property>
   <property name="b_track">12</property>
   <property name="mlt_service">mix</property>
   <property name="always_active">1</property>
   <property name="sum">1</property>
   <property name="internal_added">237</property>
  </transition>
  <transition id="transition12">
   <property name="a_track">0</property>
   <property name="b_track">13</property>
   <property name="mlt_service">mix</property>
   <property name="always_active">1</property>
   <property name="sum">1</property>
   <property name="internal_added">237</property>
  </transition>
  <transition id="transition13">
   <property name="a_track">0</property>
   <property name="b_track">14</property>
   <property name="mlt_service">mix</property>
   <property name="always_active">1</property>
   <property name="sum">1</property>
   <property name="internal_added">237</property>
  </transition>
  <transition id="transition14">
   <property name="a_track">0</property>
   <property name="b_track">15</property>
   <property name="mlt_service">mix</property>
   <property name="always_active">1</property>
   <property name="sum">1</property>
   <property name="internal_added">237</property>
  </transition>
  <transition id="transition15" in="4351" out="4367">
   <property name="a_track">14</property>
   <property name="b_track">15</property>
   <property name="start">0/0:100%x100%</property>
   <property name="factory">loader</property>
   <property name="aligned">1</property>
   <property name="progressive">1</property>
   <property name="mlt_service">composite</property>
   <property name="kdenlive_id">composite</property>
   <property name="force_track">0</property>
   <property name="deinterlace">0</property>
   <property name="distort">0</property>
   <property name="fill">1</property>
   <property name="geometry">0=0/0:1920x1080:100;16=0/0:1920x1080:0</property>
   <property name="halign">centre</property>
   <property name="luma_invert">0</property>
   <property name="operator">over</property>
   <property name="softness">0</property>
   <property name="valign">middle</property>
   <property name="automatic">0</property>
   <property name="luma"/>
  </transition>
  <transition id="transition16" in="3382" out="3382">
   <property name="a_track">11</property>
   <property name="b_track">12</property>
   <property name="version">0,2</property>
   <property name="mlt_service">frei0r.divide</property>
   <property name="force_track">0</property>
  </transition>
  <transition id="transition17" in="3383" out="3383">
   <property name="a_track">11</property>
   <property name="b_track">12</property>
   <property name="version">0,2</property>
   <property name="mlt_service">frei0r.dodge</property>
   <property name="force_track">0</property>
  </transition>
  <transition id="transition18" in="3278" out="3284">
   <property name="a_track">11</property>
   <property name="b_track">12</property>
   <property name="start">0/0:100%x100%</property>
   <property name="factory">loader</property>
   <property name="aligned">1</property>
   <property name="progressive">1</property>
   <property name="mlt_service">composite</property>
   <property name="kdenlive_id">composite</property>
   <property name="force_track">1</property>
   <property name="deinterlace">0</property>
   <property name="distort">0</property>
   <property name="fill">1</property>
   <property name="geometry">0=0/0:1920x1080:100;6=0/0:1920x1080:0</property>
   <property name="halign">centre</property>
   <property name="luma_invert">0</property>
   <property name="operator">over</property>
   <property name="softness">0</property>
   <property name="valign">middle</property>
  </transition>
  <transition id="transition19" in="1319" out="1489">
   <property name="a_track">8</property>
   <property name="b_track">9</property>
   <property name="rect">0=111 -82 1920 1080 1;170=-4 -134 1920 1080 1</property>
   <property name="compositing">0</property>
   <property name="distort">0</property>
   <property name="rotate_center">1</property>
   <property name="mlt_service">qtblend</property>
   <property name="kdenlive_id">qtblend</property>
   <property name="force_track">1</property>
   <property name="rotation">0=9;162=12</property>
   <property name="automatic">0</property>
  </transition>
  <transition id="transition20" in="1319" out="1489">
   <property name="a_track">8</property>
   <property name="b_track">10</property>
   <property name="rect">0=155 -148 1920 1080 1;170=254 -202 1920 1080 1</property>
   <property name="compositing">0</property>
   <property name="distort">0</property>
   <property name="rotate_center">1</property>
   <property name="mlt_service">qtblend</property>
   <property name="kdenlive_id">qtblend</property>
   <property name="force_track">1</property>
   <property name="rotation">0=12;162=12</property>
   <property name="automatic">0</property>
  </transition>
  <transition id="transition21" in="1319" out="1489">
   <property name="a_track">7</property>
   <property name="b_track">8</property>
   <property name="start">0/0:100%x100%</property>
   <property name="factory">loader</property>
   <property name="aligned">1</property>
   <property name="progressive">1</property>
   <property name="mlt_service">composite</property>
   <property name="kdenlive_id">composite</property>
   <property name="force_track">1</property>
   <property name="deinterlace">0</property>
   <property name="distort">0</property>
   <property name="fill">1</property>
   <property name="geometry">0=0/0:1920x1080:0;9=0/0:1920x1080:100</property>
   <property name="halign">centre</property>
   <property name="luma_invert">0</property>
   <property name="operator">over</property>
   <property name="softness">0</property>
   <property name="valign">middle</property>
   <property name="automatic">0</property>
   <property name="luma">/usr/share/kdenlive/lumas/HD/radial.pgm</property>
  </transition>
  <transition id="transition22" in="1415" out="1489">
   <property name="a_track">7</property>
   <property name="b_track">13</property>
   <property name="start">0/0:100%x100%</property>
   <property name="factory">loader</property>
   <property name="aligned">1</property>
   <property name="progressive">1</property>
   <property name="mlt_service">composite</property>
   <property name="kdenlive_id">composite</property>
   <property name="force_track">1</property>
   <property name="deinterlace">0</property>
   <property name="distort">0</property>
   <property name="fill">1</property>
   <property name="geometry">0=-10/0:1920x1080:0;31=-10/0:1920x1080:100</property>
   <property name="halign">centre</property>
   <property name="luma_invert">0</property>
   <property name="operator">over</property>
   <property name="softness">0</property>
   <property name="valign">middle</property>
  </transition>
  <transition id="transition23" in="1415" out="1489">
   <property name="a_track">7</property>
   <property name="b_track">14</property>
   <property name="start">0/0:100%x100%</property>
   <property name="factory">loader</property>
   <property name="aligned">1</property>
   <property name="progressive">1</property>
   <property name="mlt_service">composite</property>
   <property name="kdenlive_id">composite</property>
   <property name="force_track">1</property>
   <property name="deinterlace">0</property>
   <property name="distort">0</property>
   <property name="fill">1</property>
   <property name="geometry">0=180/0:1920x1080:0;31=180/0:1920x1080:100</property>
   <property name="halign">centre</property>
   <property name="luma_invert">0</property>
   <property name="operator">over</property>
   <property name="softness">0</property>
   <property name="valign">middle</property>
  </transition>
 </tractor>
</mlt>
