<?xml version='1.0' encoding='utf-8'?>
<mlt title="Anonymous Submission" LC_NUMERIC="fr_FR.utf8" producer="main bin" version="6.9.0" root="/home/bordun/Projets/Ammd">
 <profile frame_rate_num="30000" sample_aspect_num="1" display_aspect_den="9" colorspace="709" progressive="1" description="HD 1080p 29.97 fps" display_aspect_num="16" frame_rate_den="1001" width="1920" height="1080" sample_aspect_den="1"/>
 <producer title="Anonymous Submission" id="2" in="0" out="1008">
  <property name="length">1009</property>
  <property name="eof">pause</property>
  <property name="resource">0x000000ff</property>
  <property name="aspect_ratio">1</property>
  <property name="mlt_service">color</property>
  <property name="kdenlive:clipname">Clip couleur</property>
  <property name="kdenlive:folderid">-1</property>
  <property name="kdenlive:duration">125</property>
  <property name="kdenlive:file_hash">9196813120dc5c505072516b15baf414</property>
  <property name="global_feed">1</property>
 </producer>
 <producer title="Anonymous Submission" id="3" in="0" out="932">
  <property name="length">933</property>
  <property name="eof">pause</property>
  <property name="resource">0xffffffff</property>
  <property name="aspect_ratio">1</property>
  <property name="mlt_service">color</property>
  <property name="kdenlive:clipname">Clip couleur</property>
  <property name="kdenlive:folderid">-1</property>
  <property name="kdenlive:duration">125</property>
  <property name="kdenlive:file_hash">039b56a692cd66eefeea44a17539e5a2</property>
  <property name="global_feed">1</property>
 </producer>
 <producer id="9" in="0" out="873">
  <property name="length">874</property>
  <property name="eof">pause</property>
  <property name="resource">ammd_newlogo.png</property>
  <property name="ttl">25</property>
  <property name="aspect_ratio">1</property>
  <property name="progressive">1</property>
  <property name="seekable">1</property>
  <property name="loop">1</property>
  <property name="meta.media.width">2480</property>
  <property name="meta.media.height">1181</property>
  <property name="mlt_service">pixbuf</property>
  <property name="kdenlive:duration">150</property>
  <property name="kdenlive:file_size">48958</property>
  <property name="kdenlive:file_hash">f4d823415406f40ede1c5199de7da37e</property>
 </producer>
 <producer id="10" in="0" out="358">
  <property name="length">359</property>
  <property name="eof">pause</property>
  <property name="resource">2d_payes.png</property>
  <property name="ttl">25</property>
  <property name="aspect_ratio">1</property>
  <property name="progressive">1</property>
  <property name="seekable">1</property>
  <property name="loop">1</property>
  <property name="meta.media.width">2480</property>
  <property name="meta.media.height">1181</property>
  <property name="mlt_service">pixbuf</property>
  <property name="kdenlive:duration">150</property>
  <property name="kdenlive:file_size">29211</property>
  <property name="kdenlive:file_hash">0bd186f63fc1e74a6397af70bb79a71c</property>
 </producer>
 <producer id="11" in="0" out="226">
  <property name="length">227</property>
  <property name="eof">pause</property>
  <property name="resource">smp.png</property>
  <property name="ttl">25</property>
  <property name="aspect_ratio">1</property>
  <property name="progressive">1</property>
  <property name="seekable">1</property>
  <property name="loop">1</property>
  <property name="meta.media.width">2480</property>
  <property name="meta.media.height">1181</property>
  <property name="mlt_service">pixbuf</property>
  <property name="kdenlive:duration">150</property>
  <property name="kdenlive:file_size">50922</property>
  <property name="kdenlive:file_hash">26de5795ead5488d4df9b926e3f8de20</property>
 </producer>
 <producer title="Anonymous Submission" id="12" in="0" out="171">
  <property name="length">172</property>
  <property name="eof">pause</property>
  <property name="resource">plagiat.png</property>
  <property name="ttl">25</property>
  <property name="aspect_ratio">1</property>
  <property name="progressive">1</property>
  <property name="seekable">1</property>
  <property name="meta.media.width">2480</property>
  <property name="meta.media.height">1181</property>
  <property name="mlt_service">qimage</property>
  <property name="loop">1</property>
  <property name="kdenlive:duration">150</property>
  <property name="kdenlive:file_size">108541</property>
  <property name="kdenlive:file_hash">0eae1d0c29d1258db7db04a63a14fd58</property>
  <property name="global_feed">1</property>
 </producer>
 <playlist id="main bin">
  <property name="kdenlive:docproperties.audiotargettrack">2</property>
  <property name="kdenlive:docproperties.decimalPoint">,</property>
  <property name="kdenlive:docproperties.dirtypreviewchunks"/>
  <property name="kdenlive:docproperties.disablepreview">0</property>
  <property name="kdenlive:docproperties.documentid">1530603393129</property>
  <property name="kdenlive:docproperties.enableproxy">0</property>
  <property name="kdenlive:docproperties.generateimageproxy">0</property>
  <property name="kdenlive:docproperties.generateproxy">0</property>
  <property name="kdenlive:docproperties.kdenliveversion">18.04.2</property>
  <property name="kdenlive:docproperties.position">772</property>
  <property name="kdenlive:docproperties.previewchunks"/>
  <property name="kdenlive:docproperties.previewextension"/>
  <property name="kdenlive:docproperties.previewparameters"/>
  <property name="kdenlive:docproperties.profile">atsc_1080p_2997</property>
  <property name="kdenlive:docproperties.proxyextension">ts</property>
  <property name="kdenlive:docproperties.proxyimageminsize">2000</property>
  <property name="kdenlive:docproperties.proxyminsize">1000</property>
  <property name="kdenlive:docproperties.proxyparams">-f mpegts -acodec libmp3lame -ac 2 -ab 128k -vcodec mpeg2video -g 5 -s 640x480 -qscale 7</property>
  <property name="kdenlive:docproperties.version">0.96</property>
  <property name="kdenlive:docproperties.verticalzoom">1</property>
  <property name="kdenlive:docproperties.videotargettrack">3</property>
  <property name="kdenlive:docproperties.zonein">175</property>
  <property name="kdenlive:docproperties.zoneout">933</property>
  <property name="kdenlive:docproperties.zoom">6</property>
  <property name="kdenlive:documentnotes">&lt;!DOCTYPE HTML PUBLIC "-//W3C//DTD HTML 4.0//EN" "http://www.w3.org/TR/REC-html40/strict.dtd">
&lt;html>&lt;head>&lt;meta name="qrichtext" content="1" />&lt;style type="text/css">
p, li { white-space: pre-wrap; }
&lt;/style>&lt;/head>&lt;body style=" font-family:'Sans Serif'; font-size:9pt; font-weight:400; font-style:normal;">
&lt;p style=" margin-top:0px; margin-bottom:0px; margin-left:0px; margin-right:0px; -qt-block-indent:0; text-indent:0px;"> b   &lt;/p>&lt;/body>&lt;/html></property>
  <property name="kdenlive:clipgroups"/>
  <property name="kdenlive:docproperties.renderaudioquality">192</property>
  <property name="kdenlive:docproperties.rendercategory">Generic (HD for web, mobile devices...)</property>
  <property name="kdenlive:docproperties.renderendguide">-1</property>
  <property name="kdenlive:docproperties.renderexportaudio">0</property>
  <property name="kdenlive:docproperties.renderguide">0</property>
  <property name="kdenlive:docproperties.renderplay">0</property>
  <property name="kdenlive:docproperties.renderprofile">MP4 - the dominating format (H264/AAC)</property>
  <property name="kdenlive:docproperties.renderquality">15</property>
  <property name="kdenlive:docproperties.renderratio">1</property>
  <property name="kdenlive:docproperties.renderrescale">0</property>
  <property name="kdenlive:docproperties.renderrescaleheight">180</property>
  <property name="kdenlive:docproperties.renderrescalewidth">320</property>
  <property name="kdenlive:docproperties.renderscanning">0</property>
  <property name="kdenlive:docproperties.renderspeed">3</property>
  <property name="kdenlive:docproperties.renderstartguide">-1</property>
  <property name="kdenlive:docproperties.rendertcoverlay">0</property>
  <property name="kdenlive:docproperties.rendertctype">0</property>
  <property name="kdenlive:docproperties.rendertwopass">0</property>
  <property name="kdenlive:docproperties.renderurl">logo_noglitch-full-zoom.mp4</property>
  <property name="kdenlive:docproperties.renderzone">1</property>
  <property name="xml_retain">1</property>
  <entry producer="2" in="0" out="825"/>
  <entry producer="3" in="0" out="549"/>
  <entry producer="9" in="0" out="149"/>
  <entry producer="10" in="0" out="149"/>
  <entry producer="11" in="0" out="149"/>
  <entry producer="12" in="0" out="169"/>
 </playlist>
 <producer id="black" in="0" out="500">
  <property name="length">15000</property>
  <property name="eof">pause</property>
  <property name="resource">black</property>
  <property name="aspect_ratio">0</property>
  <property name="mlt_service">colour</property>
  <property name="set.test_audio">0</property>
 </producer>
 <playlist id="black_track">
  <entry producer="black" in="0" out="1009"/>
 </playlist>
 <playlist id="playlist1">
  <property name="kdenlive:audio_track">1</property>
  <property name="kdenlive:track_name">Audio 2</property>
 </playlist>
 <playlist id="playlist2">
  <property name="kdenlive:audio_track">1</property>
  <property name="kdenlive:track_name">Audio 1</property>
 </playlist>
 <playlist id="playlist3">
  <property name="kdenlive:track_name">Vidéo 1</property>
 </playlist>
 <playlist id="playlist4">
  <property name="kdenlive:track_name">Vidéo 2</property>
  <blank length="1"/>
  <entry producer="2" in="0" out="1007"/>
 </playlist>
 <playlist id="playlist5">
  <property name="kdenlive:track_name">Vidéo 3</property>
  <blank length="179"/>
  <entry producer="9" in="178" out="303"/>
  <blank length="6"/>
  <entry producer="10" in="3" out="142"/>
  <blank length="6"/>
  <entry producer="11" in="3" out="145"/>
  <blank length="6"/>
  <entry producer="12" in="0" out="135"/>
  <filter id="frei0r.glitch0r">
   <property name="version">0,1</property>
   <property name="mlt_service">frei0r.glitch0r</property>
   <property name="kdenlive_id">frei0r.glitch0r</property>
   <property name="tag">frei0r.glitch0r</property>
   <property name="kdenlive_ix">1</property>
   <property name="kdenlive_info"/>
   <property name="0">0,013</property>
   <property name="1">0,04</property>
   <property name="2">0,013</property>
   <property name="3">0</property>
   <property name="disable">1</property>
  </filter>
 </playlist>
 <playlist id="playlist6">
  <property name="kdenlive:track_name">Vidéo 5</property>
  <blank length="176"/>
  <entry producer="9" in="5" out="7"/>
  <blank length="126"/>
  <entry producer="9" in="5" out="7"/>
  <entry producer="10" in="0" out="2"/>
  <blank length="140"/>
  <entry producer="10" in="0" out="2"/>
  <entry producer="11" in="0" out="2"/>
  <blank length="143"/>
  <entry producer="11" in="0" out="2"/>
  <entry producer="12" in="162" out="164"/>
  <blank length="136"/>
  <entry producer="12" in="162" out="164"/>
  <filter id="filter0">
   <property name="version">0,1</property>
   <property name="mlt_service">frei0r.glitch0r</property>
   <property name="kdenlive_id">frei0r.glitch0r</property>
   <property name="tag">frei0r.glitch0r</property>
   <property name="kdenlive_ix">1</property>
   <property name="kdenlive_info"/>
   <property name="disable"/>
   <property name="0">0,556</property>
   <property name="1">0,135</property>
   <property name="2">0,266</property>
   <property name="3">0</property>
  </filter>
 </playlist>
 <playlist id="playlist0">
  <property name="kdenlive:track_name">Vidéo 4</property>
  <blank length="1"/>
  <entry producer="3" in="0" out="931"/>
  <filter id="frei0r.rgbnoise">
   <property name="version">0,9</property>
   <property name="mlt_service">frei0r.rgbnoise</property>
   <property name="kdenlive_id">frei0r.rgbnoise</property>
   <property name="tag">frei0r.rgbnoise</property>
   <property name="kdenlive_ix">1</property>
   <property name="kdenlive_info"/>
   <property name="0">1</property>
   <property name="disable">0</property>
  </filter>
  <filter id="frei0r.saturat0r">
   <property name="version">0,3</property>
   <property name="mlt_service">frei0r.saturat0r</property>
   <property name="kdenlive_id">frei0r.saturat0r</property>
   <property name="tag">frei0r.saturat0r</property>
   <property name="kdenlive_ix">2</property>
   <property name="kdenlive_info"/>
   <property name="Saturation">0=0,001</property>
   <property name="disable">0</property>
  </filter>
 </playlist>
 <tractor title="Anonymous Submission" id="maintractor" global_feed="1" in="0" out="1009">
  <track producer="black_track"/>
  <track hide="video" producer="playlist1"/>
  <track hide="video" producer="playlist2"/>
  <track producer="playlist3"/>
  <track producer="playlist4"/>
  <track producer="playlist5"/>
  <track producer="playlist6"/>
  <track hide="video" producer="playlist0"/>
  <transition id="transition0">
   <property name="a_track">0</property>
   <property name="b_track">1</property>
   <property name="mlt_service">mix</property>
   <property name="always_active">1</property>
   <property name="sum">1</property>
   <property name="internal_added">237</property>
  </transition>
  <transition id="transition1">
   <property name="a_track">0</property>
   <property name="b_track">2</property>
   <property name="mlt_service">mix</property>
   <property name="always_active">1</property>
   <property name="sum">1</property>
   <property name="internal_added">237</property>
  </transition>
  <transition id="transition2">
   <property name="a_track">0</property>
   <property name="b_track">3</property>
   <property name="mlt_service">mix</property>
   <property name="always_active">1</property>
   <property name="sum">1</property>
   <property name="internal_added">237</property>
  </transition>
  <transition id="transition3">
   <property name="a_track">0</property>
   <property name="b_track">4</property>
   <property name="mlt_service">mix</property>
   <property name="always_active">1</property>
   <property name="sum">1</property>
   <property name="internal_added">237</property>
  </transition>
  <transition id="transition4">
   <property name="a_track">0</property>
   <property name="b_track">5</property>
   <property name="mlt_service">mix</property>
   <property name="always_active">1</property>
   <property name="sum">1</property>
   <property name="internal_added">237</property>
  </transition>
  <transition id="transition5">
   <property name="a_track">0</property>
   <property name="b_track">6</property>
   <property name="mlt_service">mix</property>
   <property name="always_active">1</property>
   <property name="sum">1</property>
   <property name="internal_added">237</property>
  </transition>
  <transition id="transition6">
   <property name="a_track">0</property>
   <property name="b_track">7</property>
   <property name="mlt_service">mix</property>
   <property name="always_active">1</property>
   <property name="sum">1</property>
   <property name="internal_added">237</property>
  </transition>
  <transition id="transition7" out="960">
   <property name="a_track">4</property>
   <property name="b_track">5</property>
   <property name="rect">0 0 1920 1080 1</property>
   <property name="compositing">0</property>
   <property name="distort">0</property>
   <property name="rotate_center">1</property>
   <property name="mlt_service">qtblend</property>
   <property name="automatic">1</property>
   <property name="kdenlive_id">qtblend</property>
   <property name="force_track">1</property>
   <property name="rotation">0</property>
  </transition>
  <transition id="transition8" out="932">
   <property name="a_track">4</property>
   <property name="b_track">6</property>
   <property name="rect">0 0 1920 1080 1</property>
   <property name="compositing">0</property>
   <property name="distort">0</property>
   <property name="rotate_center">1</property>
   <property name="mlt_service">qtblend</property>
   <property name="automatic">1</property>
   <property name="kdenlive_id">qtblend</property>
   <property name="force_track">1</property>
   <property name="rotation">0</property>
  </transition>
  <transition id="transition9" in="1" out="932">
   <property name="a_track">4</property>
   <property name="b_track">7</property>
   <property name="version">0,2</property>
   <property name="mlt_service">frei0r.difference</property>
   <property name="automatic">1</property>
   <property name="force_track">1</property>
  </transition>
  <transition id="transition11">
   <property name="a_track">0</property>
   <property name="b_track">3</property>
   <property name="compositing">0</property>
   <property name="distort">0</property>
   <property name="rotate_center">0</property>
   <property name="mlt_service">qtblend</property>
   <property name="always_active">1</property>
   <property name="internal_added">237</property>
  </transition>
  <transition id="transition12">
   <property name="a_track">0</property>
   <property name="b_track">4</property>
   <property name="compositing">0</property>
   <property name="distort">0</property>
   <property name="rotate_center">0</property>
   <property name="mlt_service">qtblend</property>
   <property name="always_active">1</property>
   <property name="internal_added">237</property>
  </transition>
  <transition id="transition13">
   <property name="a_track">0</property>
   <property name="b_track">5</property>
   <property name="compositing">0</property>
   <property name="distort">0</property>
   <property name="rotate_center">0</property>
   <property name="mlt_service">qtblend</property>
   <property name="always_active">1</property>
   <property name="internal_added">237</property>
  </transition>
  <transition id="transition14">
   <property name="a_track">0</property>
   <property name="b_track">6</property>
   <property name="compositing">0</property>
   <property name="distort">0</property>
   <property name="rotate_center">0</property>
   <property name="mlt_service">qtblend</property>
   <property name="always_active">1</property>
   <property name="internal_added">237</property>
  </transition>
  <transition id="transition15">
   <property name="a_track">0</property>
   <property name="b_track">7</property>
   <property name="compositing">0</property>
   <property name="distort">0</property>
   <property name="rotate_center">0</property>
   <property name="mlt_service">qtblend</property>
   <property name="always_active">1</property>
   <property name="internal_added">237</property>
  </transition>
 </tractor>
</mlt>
